<svg width="495" height="311" viewBox="0 0 495 311" fill="none" xmlns="http://www.w3.org/2000/svg">
<path d="M284.893 0.5C296.53 0.5 305.708 6.34316 312.906 14.6084C319.649 22.3505 324.684 32.2468 328.419 41.5576L329.148 43.4121L329.149 43.4131C342.636 78.5805 344.924 121.252 344.924 155.5C344.924 189.748 342.636 232.419 329.149 267.587L329.148 267.588C325.348 277.423 320.099 288.133 312.906 296.392C305.708 304.657 296.53 310.5 284.893 310.5C273.256 310.5 264.078 304.657 256.879 296.392C249.686 288.133 244.438 277.423 240.637 267.588V267.587C227.15 232.419 224.861 189.748 224.861 155.5C224.861 121.252 227.15 78.5806 240.637 43.4131C244.438 33.5778 249.686 22.8668 256.879 14.6084C264.078 6.34319 273.256 0.500042 284.893 0.5ZM73.2646 8.85156L73.3301 9.27539L118.265 301.572L118.354 302.148H89.8633L89.7998 301.722L81.1328 242.854H38.6377L29.9707 301.722L29.9072 302.148H1.41699L1.50586 301.572L46.4404 9.27539L46.5059 8.85156H73.2646ZM179.167 8.85156C184.187 8.85156 189.25 9.16266 193.948 11.2432C198.518 13.2667 202.697 16.9411 206.182 23.5117L206.517 24.1572L206.519 24.1611C208.846 28.8297 216.302 46.0273 216.302 83.2607C216.302 106.267 213.149 121.361 210.262 129.363C207.662 136.736 204.367 141.187 201.606 143.854C199.244 146.137 197.267 147.111 196.554 147.457V148.438C199.8 149.39 203.314 151.825 206.574 155.59C209.966 159.507 213.108 164.889 215.416 171.623C220.74 187.158 221.597 206.857 221.597 221.476C221.597 246.99 218.505 266.267 214.514 277.767L214.124 278.855C210.152 289.604 204.422 295.452 198.267 298.597C192.129 301.732 185.625 302.148 180.169 302.148H120.854V8.85156H179.167ZM415.108 8.85156C420.078 8.85156 426.235 9.37516 432.201 12.9951C438.174 16.6195 443.889 23.3052 448.066 35.4961C453.963 52.7017 454.962 75.3238 454.962 91.1943C454.962 110.833 453.388 128.855 448.352 143.134L448.353 143.135C444.951 153.06 440.131 160.199 435.5 163.683V164.803C439.744 167.091 444.25 173.034 447.209 182.484L447.641 183.825C451.961 197.713 451.966 212.354 452.243 226.894L452.959 259.881C453.245 274.063 453.959 286.14 457.099 301.549L457.221 302.148H428.311L428.218 301.767C425.056 288.766 424.626 278.698 424.34 264.495V264.494L423.91 240.275C423.624 222.333 421.621 210.719 419.227 204.965L419.225 204.96C416.423 198.011 411.144 194.834 406.809 194.834H382.695V302.148H355.364V8.85156H415.108ZM494.5 8.85156V302.148H467.169V8.85156H494.5ZM284.893 59.959C281.616 59.959 278.02 60.6669 274.395 63.7549C270.864 66.7616 267.265 72.0591 263.935 81.2695L263.613 82.1729C255.345 105.884 254.482 138.792 254.482 155.5C254.482 172.208 255.345 205.116 263.613 228.827L263.935 229.73C267.265 238.941 270.864 244.238 274.395 247.245C278.02 250.333 281.616 251.041 284.893 251.041C288.169 251.041 291.765 250.333 295.391 247.245C299.035 244.141 302.752 238.597 306.172 228.827C314.441 205.116 315.303 172.208 315.303 155.5C315.303 138.792 314.441 105.884 306.172 82.1729C302.752 72.4036 299.035 66.8584 295.391 63.7549C291.765 60.6668 288.169 59.959 284.893 59.959ZM148.185 246.865H175.732C183.91 246.865 186.922 241.625 187.309 240.873L187.314 240.861L187.321 240.85C189.69 236.784 192.262 227.701 192.262 212.707C192.262 196.878 189.546 188.216 187.326 184.572L187.322 184.565L187.318 184.558C184.176 178.977 177.729 178.549 175.304 178.549H148.185V246.865ZM45.2188 191.746H74.6934L59.8174 86.4492L45.2188 191.746ZM382.695 138.715H410.101C412.289 138.715 414.712 138.506 417.04 137.019C419.366 135.532 421.671 132.72 423.508 127.361C425.061 122.83 426.772 114.535 426.772 102.469C426.772 87.4783 424.202 78.3867 421.969 74.3145L421.967 74.3115C418.967 68.7422 412.676 68.3106 409.814 68.3105H382.695V138.715ZM148.185 124.936H171.297C174.366 124.936 177.017 124.722 179.282 123.579C181.525 122.447 183.457 120.367 184.999 116.481L185.003 116.473C186.542 112.797 188.255 105.353 188.255 93.2822C188.255 81.2386 186.265 74.2201 184.304 70.127C182.85 67.2997 181.076 65.8238 179.141 65.0381C177.182 64.2427 175.014 64.1348 172.728 64.1348H148.185V124.936Z" fill="black" stroke="black"/>
</svg>
