<svg width="265" height="341" viewBox="0 0 265 341" fill="none" xmlns="http://www.w3.org/2000/svg">
<path d="M2.184 21L2.184 4.2H6.288L11.472 14.448L16.608 4.2H20.616V21H17.304V9.408L13.032 17.88H9.84L5.496 9.408L5.496 21H2.184ZM29.6447 21.24C28.8127 21.24 28.0447 21.144 27.3407 20.952C26.6527 20.744 26.0367 20.448 25.4927 20.064C24.9487 19.664 24.4927 19.192 24.1247 18.648C23.7567 18.088 23.4687 17.456 23.2607 16.752C23.0687 16.032 22.9727 15.256 22.9727 14.424C22.9727 13.592 23.0687 12.824 23.2607 12.12C23.4687 11.416 23.7567 10.792 24.1247 10.248C24.4927 9.688 24.9487 9.216 25.4927 8.832C26.0367 8.432 26.6527 8.128 27.3407 7.92C28.0447 7.712 28.8127 7.608 29.6447 7.608C30.4927 7.608 31.2607 7.712 31.9487 7.92C32.6527 8.128 33.2767 8.432 33.8207 8.832C34.3647 9.216 34.8207 9.688 35.1887 10.248C35.5727 10.792 35.8607 11.416 36.0527 12.12C36.2447 12.824 36.3407 13.592 36.3407 14.424C36.3407 15.256 36.2447 16.032 36.0527 16.752C35.8607 17.456 35.5727 18.088 35.1887 18.648C34.8207 19.192 34.3647 19.664 33.8207 20.064C33.2767 20.448 32.6527 20.744 31.9487 20.952C31.2607 21.144 30.4927 21.24 29.6447 21.24ZM29.6447 18.432C30.0767 18.432 30.4607 18.376 30.7967 18.264C31.1327 18.152 31.4207 17.992 31.6607 17.784C31.9007 17.56 32.1087 17.288 32.2847 16.968C32.4607 16.632 32.5887 16.256 32.6687 15.84C32.7487 15.408 32.7887 14.936 32.7887 14.424C32.7887 13.912 32.7487 13.448 32.6687 13.032C32.5887 12.6 32.4607 12.224 32.2847 11.904C32.1087 11.568 31.9007 11.296 31.6607 11.088C31.4207 10.864 31.1327 10.696 30.7967 10.584C30.4607 10.472 30.0767 10.416 29.6447 10.416C29.2287 10.416 28.8527 10.472 28.5167 10.584C28.1807 10.696 27.8847 10.864 27.6287 11.088C27.3887 11.296 27.1807 11.568 27.0047 11.904C26.8447 12.224 26.7247 12.6 26.6447 13.032C26.5647 13.448 26.5247 13.912 26.5247 14.424C26.5247 14.936 26.5647 15.408 26.6447 15.84C26.7247 16.256 26.8447 16.632 27.0047 16.968C27.1807 17.288 27.3887 17.56 27.6287 17.784C27.8847 17.992 28.1807 18.152 28.5167 18.264C28.8527 18.376 29.2287 18.432 29.6447 18.432ZM50.5095 12.504L47.1735 13.08C47.0775 12.504 46.9015 12.016 46.6455 11.616C46.4055 11.216 46.0855 10.92 45.6855 10.728C45.3015 10.52 44.8455 10.416 44.3175 10.416C43.9015 10.416 43.5255 10.48 43.1895 10.608C42.8695 10.72 42.5815 10.888 42.3255 11.112C42.0855 11.336 41.8775 11.608 41.7015 11.928C41.5415 12.248 41.4135 12.624 41.3175 13.056C41.2375 13.472 41.1975 13.928 41.1975 14.424C41.1975 14.936 41.2375 15.4 41.3175 15.816C41.4135 16.232 41.5415 16.6 41.7015 16.92C41.8775 17.24 42.0855 17.512 42.3255 17.736C42.5815 17.96 42.8775 18.136 43.2135 18.264C43.5495 18.376 43.9175 18.432 44.3175 18.432C44.8615 18.432 45.3335 18.336 45.7335 18.144C46.1335 17.936 46.4535 17.632 46.6935 17.232C46.9495 16.816 47.1335 16.304 47.2455 15.696L50.5335 16.248C50.3255 17.304 49.9415 18.208 49.3815 18.96C48.8375 19.712 48.1335 20.28 47.2695 20.664C46.4215 21.048 45.4375 21.24 44.3175 21.24C43.4855 21.24 42.7175 21.144 42.0135 20.952C41.3255 20.744 40.7095 20.448 40.1655 20.064C39.6215 19.664 39.1655 19.192 38.7975 18.648C38.4295 18.088 38.1415 17.456 37.9335 16.752C37.7415 16.048 37.6455 15.272 37.6455 14.424C37.6455 13.592 37.7415 12.824 37.9335 12.12C38.1415 11.416 38.4295 10.792 38.7975 10.248C39.1655 9.688 39.6215 9.216 40.1655 8.832C40.7095 8.432 41.3255 8.128 42.0135 7.92C42.7175 7.712 43.4855 7.608 44.3175 7.608C45.4695 7.608 46.4695 7.8 47.3175 8.184C48.1655 8.552 48.8535 9.104 49.3815 9.84C49.9255 10.56 50.3015 11.448 50.5095 12.504ZM52.1957 21V7.848H55.6757V13.512L60.7157 7.848H64.7717L59.0357 13.92L64.8917 21L60.7157 21L55.6757 14.88V21H52.1957ZM65.7201 21V7.848H72.5601C73.4881 7.848 74.2801 7.984 74.9361 8.256C75.5921 8.528 76.0961 8.92 76.4481 9.432C76.8001 9.944 76.9761 10.568 76.9761 11.304C76.9761 11.72 76.9121 12.104 76.7841 12.456C76.6721 12.792 76.4961 13.088 76.2561 13.344C76.0161 13.6 75.7201 13.816 75.3681 13.992C75.1921 14.072 75.0001 14.152 74.7921 14.232C75.1601 14.328 75.4961 14.472 75.8001 14.664C76.3121 14.968 76.7041 15.36 76.9761 15.84C77.2641 16.32 77.4081 16.864 77.4081 17.472C77.4081 18.224 77.2321 18.864 76.8801 19.392C76.5281 19.92 76.0161 20.32 75.3441 20.592C74.6881 20.864 73.8881 21 72.9441 21H65.7201ZM69.0801 15.504V18.552H72.2961C72.6801 18.552 73.0001 18.496 73.2561 18.384C73.5121 18.272 73.7041 18.112 73.8321 17.904C73.9761 17.68 74.0481 17.392 74.0481 17.04C74.0481 16.704 73.9761 16.424 73.8321 16.2C73.6881 15.976 73.4801 15.808 73.2081 15.696C72.9521 15.568 72.6401 15.504 72.2721 15.504H69.0801ZM69.0801 10.296V13.08H72.0561C72.3921 13.08 72.6801 13.032 72.9201 12.936C73.1601 12.824 73.3441 12.664 73.4721 12.456C73.6001 12.232 73.6641 11.96 73.6641 11.64C73.6641 11.192 73.5201 10.856 73.2321 10.632C72.9601 10.408 72.5601 10.296 72.0321 10.296H69.0801ZM78.5702 11.952C78.6982 11.248 78.9222 10.624 79.2422 10.08C79.5782 9.52 79.9942 9.064 80.4902 8.712C81.0022 8.344 81.5942 8.072 82.2662 7.896C82.9382 7.704 83.6902 7.608 84.5222 7.608C85.4022 7.608 86.1862 7.712 86.8742 7.92C87.5782 8.128 88.1622 8.44 88.6262 8.856C89.1062 9.272 89.4662 9.792 89.7062 10.416C89.9462 11.04 90.0662 11.768 90.0662 12.6V17.76C90.0662 17.968 90.0982 18.136 90.1622 18.264C90.2262 18.392 90.3142 18.488 90.4262 18.552C90.5542 18.6 90.7062 18.624 90.8822 18.624C90.9622 18.624 91.0422 18.624 91.1222 18.624C91.2022 18.608 91.2662 18.6 91.3142 18.6L91.2422 20.952C91.0662 21.032 90.8342 21.096 90.5462 21.144C90.2742 21.192 90.0422 21.216 89.8502 21.216C89.1942 21.216 88.6502 21.112 88.2182 20.904C87.7862 20.696 87.4662 20.392 87.2582 19.992C87.0982 19.688 87.0022 19.328 86.9702 18.912C86.9062 19.008 86.8502 19.096 86.8022 19.176C86.4662 19.624 86.0822 20 85.6502 20.304C85.2342 20.608 84.7622 20.84 84.2342 21C83.7222 21.16 83.1622 21.24 82.5542 21.24C81.6582 21.24 80.8742 21.088 80.2022 20.784C79.5462 20.464 79.0342 20.016 78.6662 19.44C78.3142 18.848 78.1382 18.16 78.1382 17.376C78.1382 16.56 78.3222 15.864 78.6902 15.288C79.0582 14.712 79.6182 14.256 80.3702 13.92C81.1222 13.568 82.0902 13.328 83.2742 13.2L86.8982 12.816V12.792C86.8982 12.344 86.8422 11.96 86.7302 11.64C86.6182 11.304 86.4582 11.032 86.2502 10.824C86.0422 10.616 85.7862 10.464 85.4822 10.368C85.1782 10.256 84.8262 10.2 84.4262 10.2C83.9142 10.2 83.4582 10.28 83.0582 10.44C82.6742 10.6 82.3702 10.848 82.1462 11.184C81.9222 11.52 81.7942 11.936 81.7622 12.432L78.5702 11.952ZM86.9462 15.024L83.3942 15.456C82.9462 15.488 82.5702 15.584 82.2662 15.744C81.9782 15.888 81.7542 16.072 81.5942 16.296C81.4502 16.52 81.3782 16.784 81.3782 17.088C81.3782 17.408 81.4422 17.688 81.5702 17.928C81.7142 18.152 81.9222 18.32 82.1942 18.432C82.4822 18.544 82.8342 18.6 83.2502 18.6C83.6662 18.6 84.0582 18.544 84.4262 18.432C84.8102 18.32 85.1542 18.168 85.4582 17.976C85.7622 17.784 86.0262 17.552 86.2502 17.28C86.4742 17.008 86.6422 16.712 86.7542 16.392C86.8822 16.072 86.9462 15.728 86.9462 15.36V15.024ZM92.7682 17.568H96.2962V20.736C96.2962 21.696 96.1682 22.464 95.9122 23.04C95.6722 23.632 95.2882 24.064 94.7602 24.336C94.2482 24.608 93.5522 24.76 92.6722 24.792L92.5042 22.872C92.9682 22.872 93.3202 22.816 93.5602 22.704C93.8002 22.592 93.9762 22.392 94.0882 22.104C94.1842 21.832 94.2322 21.464 94.2322 21H92.7682V17.568ZM2.184 44L2.184 27.2H9.672C10.568 27.2 11.384 27.336 12.12 27.608C12.872 27.88 13.504 28.28 14.016 28.808C14.544 29.32 14.952 29.936 15.24 30.656C15.528 31.36 15.672 32.168 15.672 33.08C15.672 34.232 15.408 35.24 14.88 36.104C14.368 36.968 13.648 37.64 12.72 38.12C11.792 38.584 10.696 38.816 9.432 38.816H5.88V44H2.184ZM5.88 30.152V35.864H8.88C9.52 35.864 10.064 35.76 10.512 35.552C10.96 35.328 11.304 35.008 11.544 34.592C11.784 34.16 11.904 33.656 11.904 33.08C11.904 32.44 11.784 31.904 11.544 31.472C11.304 31.04 10.96 30.712 10.512 30.488C10.064 30.264 9.52 30.152 8.88 30.152H5.88ZM16.6446 34.952C16.7726 34.248 16.9966 33.624 17.3166 33.08C17.6526 32.52 18.0686 32.064 18.5646 31.712C19.0766 31.344 19.6686 31.072 20.3406 30.896C21.0126 30.704 21.7646 30.608 22.5966 30.608C23.4766 30.608 24.2606 30.712 24.9486 30.92C25.6526 31.128 26.2366 31.44 26.7006 31.856C27.1806 32.272 27.5406 32.792 27.7806 33.416C28.0206 34.04 28.1406 34.768 28.1406 35.6V40.76C28.1406 40.968 28.1726 41.136 28.2366 41.264C28.3006 41.392 28.3886 41.488 28.5006 41.552C28.6286 41.6 28.7806 41.624 28.9566 41.624C29.0366 41.624 29.1166 41.624 29.1966 41.624C29.2766 41.608 29.3406 41.6 29.3886 41.6L29.3166 43.952C29.1406 44.032 28.9086 44.096 28.6206 44.144C28.3486 44.192 28.1166 44.216 27.9246 44.216C27.2686 44.216 26.7246 44.112 26.2926 43.904C25.8606 43.696 25.5406 43.392 25.3326 42.992C25.1726 42.688 25.0766 42.328 25.0446 41.912C24.9806 42.008 24.9246 42.096 24.8766 42.176C24.5406 42.624 24.1566 43 23.7246 43.304C23.3086 43.608 22.8366 43.84 22.3086 44C21.7966 44.16 21.2366 44.24 20.6286 44.24C19.7326 44.24 18.9486 44.088 18.2766 43.784C17.6206 43.464 17.1086 43.016 16.7406 42.44C16.3886 41.848 16.2126 41.16 16.2126 40.376C16.2126 39.56 16.3966 38.864 16.7646 38.288C17.1326 37.712 17.6926 37.256 18.4446 36.92C19.1966 36.568 20.1646 36.328 21.3486 36.2L24.9726 35.816V35.792C24.9726 35.344 24.9166 34.96 24.8046 34.64C24.6926 34.304 24.5326 34.032 24.3246 33.824C24.1166 33.616 23.8606 33.464 23.5566 33.368C23.2526 33.256 22.9006 33.2 22.5006 33.2C21.9886 33.2 21.5326 33.28 21.1326 33.44C20.7486 33.6 20.4446 33.848 20.2206 34.184C19.9966 34.52 19.8686 34.936 19.8366 35.432L16.6446 34.952ZM25.0206 38.024L21.4686 38.456C21.0206 38.488 20.6446 38.584 20.3406 38.744C20.0526 38.888 19.8286 39.072 19.6686 39.296C19.5246 39.52 19.4526 39.784 19.4526 40.088C19.4526 40.408 19.5166 40.688 19.6446 40.928C19.7886 41.152 19.9966 41.32 20.2686 41.432C20.5566 41.544 20.9086 41.6 21.3246 41.6C21.7406 41.6 22.1326 41.544 22.5006 41.432C22.8846 41.32 23.2286 41.168 23.5326 40.976C23.8366 40.784 24.1006 40.552 24.3246 40.28C24.5486 40.008 24.7166 39.712 24.8286 39.392C24.9566 39.072 25.0206 38.728 25.0206 38.36V38.024ZM38.6003 30.848H42.0323L36.9443 44.288C36.6403 45.152 36.3123 45.88 35.9603 46.472C35.6243 47.08 35.2563 47.568 34.8563 47.936C34.4563 48.32 34.0003 48.6 33.4883 48.776C32.9923 48.952 32.4323 49.04 31.8083 49.04C31.4723 49.04 31.1523 49.016 30.8483 48.968C30.5443 48.92 30.2723 48.856 30.0322 48.776L29.9122 46.136C30.0882 46.168 30.2562 46.192 30.4162 46.208C30.5922 46.224 30.7682 46.232 30.9443 46.232C31.3763 46.232 31.7443 46.184 32.0483 46.088C32.3523 45.992 32.6243 45.816 32.8643 45.56C33.1043 45.32 33.3203 44.984 33.5123 44.552C33.6723 44.216 33.8403 43.808 34.0163 43.328L28.9282 30.848H32.5283L35.6963 39.56L38.6003 30.848ZM43.1254 44V30.848H46.5094V41.192H50.6374V30.848H54.0214V41.192H58.1734V30.848H61.5334V44H43.1254ZM76.4801 35.504L73.1441 36.08C73.0481 35.504 72.8721 35.016 72.6161 34.616C72.3761 34.216 72.0561 33.92 71.6561 33.728C71.2721 33.52 70.8161 33.416 70.2881 33.416C69.8721 33.416 69.4961 33.48 69.1601 33.608C68.8401 33.72 68.5521 33.888 68.2961 34.112C68.0561 34.336 67.8481 34.608 67.6721 34.928C67.5121 35.248 67.3841 35.624 67.2881 36.056C67.2081 36.472 67.1681 36.928 67.1681 37.424C67.1681 37.936 67.2081 38.4 67.2881 38.816C67.3841 39.232 67.5121 39.6 67.6721 39.92C67.8481 40.24 68.0561 40.512 68.2961 40.736C68.5521 40.96 68.8481 41.136 69.1841 41.264C69.5201 41.376 69.8881 41.432 70.2881 41.432C70.8321 41.432 71.3041 41.336 71.7041 41.144C72.1041 40.936 72.4241 40.632 72.6641 40.232C72.9201 39.816 73.1041 39.304 73.2161 38.696L76.5041 39.248C76.2961 40.304 75.9121 41.208 75.3521 41.96C74.8081 42.712 74.1041 43.28 73.2401 43.664C72.3921 44.048 71.4081 44.24 70.2881 44.24C69.4561 44.24 68.6881 44.144 67.9841 43.952C67.2961 43.744 66.6801 43.448 66.1361 43.064C65.5921 42.664 65.1361 42.192 64.7681 41.648C64.4001 41.088 64.1121 40.456 63.9041 39.752C63.7121 39.048 63.6161 38.272 63.6161 37.424C63.6161 36.592 63.7121 35.824 63.9041 35.12C64.1121 34.416 64.4001 33.792 64.7681 33.248C65.1361 32.688 65.5921 32.216 66.1361 31.832C66.6801 31.432 67.2961 31.128 67.9841 30.92C68.6881 30.712 69.4561 30.608 70.2881 30.608C71.4401 30.608 72.4401 30.8 73.2881 31.184C74.1361 31.552 74.8241 32.104 75.3521 32.84C75.8961 33.56 76.2721 34.448 76.4801 35.504ZM78.1663 44V30.848H81.6463V36.512L86.6863 30.848H90.7423L85.0063 36.92L90.8623 44H86.6863L81.6463 37.88V44H78.1663ZM90.9227 34.952C91.0507 34.248 91.2747 33.624 91.5947 33.08C91.9307 32.52 92.3467 32.064 92.8427 31.712C93.3547 31.344 93.9467 31.072 94.6187 30.896C95.2907 30.704 96.0427 30.608 96.8747 30.608C97.7547 30.608 98.5387 30.712 99.2267 30.92C99.9307 31.128 100.515 31.44 100.979 31.856C101.459 32.272 101.819 32.792 102.059 33.416C102.299 34.04 102.419 34.768 102.419 35.6V40.76C102.419 40.968 102.451 41.136 102.515 41.264C102.579 41.392 102.667 41.488 102.779 41.552C102.907 41.6 103.059 41.624 103.235 41.624C103.315 41.624 103.395 41.624 103.475 41.624C103.555 41.608 103.619 41.6 103.667 41.6L103.595 43.952C103.419 44.032 103.187 44.096 102.899 44.144C102.627 44.192 102.395 44.216 102.203 44.216C101.547 44.216 101.003 44.112 100.571 43.904C100.139 43.696 99.8187 43.392 99.6107 42.992C99.4507 42.688 99.3547 42.328 99.3227 41.912C99.2587 42.008 99.2027 42.096 99.1547 42.176C98.8187 42.624 98.4347 43 98.0027 43.304C97.5867 43.608 97.1147 43.84 96.5867 44C96.0747 44.16 95.5147 44.24 94.9067 44.24C94.0107 44.24 93.2267 44.088 92.5547 43.784C91.8987 43.464 91.3867 43.016 91.0187 42.44C90.6667 41.848 90.4907 41.16 90.4907 40.376C90.4907 39.56 90.6747 38.864 91.0427 38.288C91.4107 37.712 91.9707 37.256 92.7227 36.92C93.4747 36.568 94.4427 36.328 95.6267 36.2L99.2507 35.816V35.792C99.2507 35.344 99.1947 34.96 99.0827 34.64C98.9707 34.304 98.8107 34.032 98.6027 33.824C98.3947 33.616 98.1387 33.464 97.8347 33.368C97.5307 33.256 97.1787 33.2 96.7787 33.2C96.2667 33.2 95.8107 33.28 95.4107 33.44C95.0267 33.6 94.7227 33.848 94.4987 34.184C94.2747 34.52 94.1467 34.936 94.1147 35.432L90.9227 34.952ZM99.2987 38.024L95.7467 38.456C95.2987 38.488 94.9227 38.584 94.6187 38.744C94.3307 38.888 94.1067 39.072 93.9467 39.296C93.8027 39.52 93.7307 39.784 93.7307 40.088C93.7307 40.408 93.7947 40.688 93.9227 40.928C94.0667 41.152 94.2747 41.32 94.5467 41.432C94.8347 41.544 95.1867 41.6 95.6027 41.6C96.0187 41.6 96.4107 41.544 96.7787 41.432C97.1627 41.32 97.5067 41.168 97.8107 40.976C98.1147 40.784 98.3787 40.552 98.6027 40.28C98.8267 40.008 98.9947 39.712 99.1067 39.392C99.2347 39.072 99.2987 38.728 99.2987 38.36V38.024ZM115.585 44H112.249V39.584H110.593L107.689 44H103.993L107.353 39.056C107.065 38.992 106.801 38.904 106.561 38.792C105.793 38.472 105.201 38 104.785 37.376C104.385 36.752 104.185 36.016 104.185 35.168C104.185 34.272 104.393 33.504 104.809 32.864C105.241 32.208 105.841 31.712 106.609 31.376C107.393 31.024 108.313 30.848 109.369 30.848H115.585V44ZM112.249 36.992V33.368H109.633C109.201 33.368 108.825 33.44 108.505 33.584C108.201 33.712 107.961 33.912 107.785 34.184C107.625 34.44 107.545 34.768 107.545 35.168C107.545 35.568 107.625 35.904 107.785 36.176C107.961 36.448 108.201 36.656 108.505 36.8C108.825 36.928 109.201 36.992 109.633 36.992H112.249ZM123.036 44V27.2H126.732V33.824L134.46 33.824V27.2H138.132V44H134.46V36.848L126.732 36.848V44H123.036ZM140.497 34.952C140.625 34.248 140.849 33.624 141.169 33.08C141.505 32.52 141.921 32.064 142.417 31.712C142.929 31.344 143.521 31.072 144.193 30.896C144.865 30.704 145.617 30.608 146.449 30.608C147.329 30.608 148.113 30.712 148.801 30.92C149.505 31.128 150.089 31.44 150.553 31.856C151.033 32.272 151.393 32.792 151.633 33.416C151.873 34.04 151.993 34.768 151.993 35.6V40.76C151.993 40.968 152.025 41.136 152.089 41.264C152.153 41.392 152.241 41.488 152.353 41.552C152.481 41.6 152.633 41.624 152.809 41.624C152.889 41.624 152.969 41.624 153.049 41.624C153.129 41.608 153.193 41.6 153.241 41.6L153.169 43.952C152.993 44.032 152.761 44.096 152.473 44.144C152.201 44.192 151.969 44.216 151.777 44.216C151.121 44.216 150.577 44.112 150.145 43.904C149.713 43.696 149.393 43.392 149.185 42.992C149.025 42.688 148.929 42.328 148.897 41.912C148.833 42.008 148.777 42.096 148.729 42.176C148.393 42.624 148.009 43 147.577 43.304C147.161 43.608 146.689 43.84 146.161 44C145.649 44.16 145.089 44.24 144.481 44.24C143.585 44.24 142.801 44.088 142.129 43.784C141.473 43.464 140.961 43.016 140.593 42.44C140.241 41.848 140.065 41.16 140.065 40.376C140.065 39.56 140.249 38.864 140.617 38.288C140.985 37.712 141.545 37.256 142.297 36.92C143.049 36.568 144.017 36.328 145.201 36.2L148.825 35.816V35.792C148.825 35.344 148.769 34.96 148.657 34.64C148.545 34.304 148.385 34.032 148.177 33.824C147.969 33.616 147.713 33.464 147.409 33.368C147.105 33.256 146.753 33.2 146.353 33.2C145.841 33.2 145.385 33.28 144.985 33.44C144.601 33.6 144.297 33.848 144.073 34.184C143.849 34.52 143.721 34.936 143.689 35.432L140.497 34.952ZM148.873 38.024L145.321 38.456C144.873 38.488 144.497 38.584 144.193 38.744C143.905 38.888 143.681 39.072 143.521 39.296C143.377 39.52 143.305 39.784 143.305 40.088C143.305 40.408 143.369 40.688 143.497 40.928C143.641 41.152 143.849 41.32 144.121 41.432C144.409 41.544 144.761 41.6 145.177 41.6C145.593 41.6 145.985 41.544 146.353 41.432C146.737 41.32 147.081 41.168 147.385 40.976C147.689 40.784 147.953 40.552 148.177 40.28C148.401 40.008 148.569 39.712 148.681 39.392C148.809 39.072 148.873 38.728 148.873 38.36V38.024ZM161.007 44.24C159.919 44.24 158.959 44.072 158.127 43.736C157.295 43.384 156.599 42.88 156.039 42.224C155.479 41.568 155.055 40.76 154.767 39.8C154.479 38.84 154.335 37.744 154.335 36.512V35.72C154.335 34.072 154.479 32.656 154.767 31.472C155.055 30.288 155.511 29.312 156.135 28.544C156.775 27.776 157.583 27.2 158.559 26.816C159.551 26.416 160.735 26.168 162.111 26.072L164.559 25.928C164.959 25.896 165.303 25.856 165.591 25.808C165.879 25.76 166.191 25.696 166.527 25.616L166.743 28.448C166.439 28.56 166.103 28.648 165.735 28.712C165.383 28.776 164.975 28.824 164.511 28.856L162.087 29C161.255 29.048 160.543 29.184 159.951 29.408C159.375 29.616 158.903 29.952 158.535 30.416C158.167 30.864 157.887 31.472 157.695 32.24C157.583 32.72 157.511 33.28 157.479 33.92C157.783 33.376 158.159 32.904 158.607 32.504C159.087 32.072 159.631 31.744 160.239 31.52C160.847 31.296 161.503 31.184 162.207 31.184C162.895 31.184 163.527 31.288 164.103 31.496C164.679 31.688 165.191 31.968 165.639 32.336C166.087 32.704 166.463 33.152 166.767 33.68C167.071 34.208 167.303 34.808 167.463 35.48C167.623 36.152 167.703 36.88 167.703 37.664C167.703 38.464 167.599 39.2 167.391 39.872C167.199 40.544 166.903 41.152 166.503 41.696C166.119 42.224 165.647 42.68 165.087 43.064C164.543 43.448 163.927 43.744 163.239 43.952C162.567 44.144 161.823 44.24 161.007 44.24ZM161.007 41.432C161.423 41.432 161.799 41.376 162.135 41.264C162.471 41.152 162.759 41 162.999 40.808C163.255 40.6 163.471 40.344 163.647 40.04C163.823 39.72 163.951 39.36 164.031 38.96C164.111 38.56 164.151 38.104 164.151 37.592C164.151 37.112 164.111 36.672 164.031 36.272C163.967 35.872 163.855 35.52 163.695 35.216C163.535 34.912 163.335 34.656 163.095 34.448C162.855 34.224 162.575 34.064 162.255 33.968C161.935 33.872 161.567 33.824 161.151 33.824C160.751 33.824 160.383 33.88 160.047 33.992C159.727 34.088 159.431 34.24 159.159 34.448C158.903 34.64 158.687 34.896 158.511 35.216C158.335 35.52 158.199 35.872 158.103 36.272C158.007 36.672 157.959 37.112 157.959 37.592C157.959 38.088 157.999 38.544 158.079 38.96C158.159 39.36 158.279 39.712 158.439 40.016C158.599 40.32 158.799 40.576 159.039 40.784C159.295 40.992 159.583 41.152 159.903 41.264C160.223 41.376 160.591 41.432 161.007 41.432ZM169.813 44V40.568H173.341V44H169.813ZM175.415 40.568H178.943V43.736C178.943 44.696 178.815 45.464 178.559 46.04C178.319 46.632 177.935 47.064 177.407 47.336C176.895 47.608 176.199 47.76 175.319 47.792L175.151 45.872C175.615 45.872 175.967 45.816 176.207 45.704C176.447 45.592 176.623 45.392 176.735 45.104C176.831 44.832 176.879 44.464 176.879 44H175.415V40.568ZM192.682 44.24C191.77 44.24 190.93 44.112 190.162 43.856C189.394 43.6 188.706 43.232 188.098 42.752C187.506 42.272 186.994 41.68 186.562 40.976C186.146 40.272 185.834 39.472 185.626 38.576C185.418 37.664 185.314 36.672 185.314 35.6C185.314 34.512 185.418 33.52 185.626 32.624C185.834 31.728 186.146 30.928 186.562 30.224C186.994 29.52 187.506 28.928 188.098 28.448C188.706 27.968 189.394 27.6 190.162 27.344C190.93 27.088 191.77 26.96 192.682 26.96C193.61 26.96 194.458 27.088 195.226 27.344C195.994 27.6 196.674 27.968 197.266 28.448C197.874 28.928 198.386 29.52 198.802 30.224C199.218 30.928 199.53 31.728 199.738 32.624C199.962 33.52 200.074 34.512 200.074 35.6C200.074 36.672 199.962 37.664 199.738 38.576C199.53 39.472 199.218 40.272 198.802 40.976C198.386 41.68 197.874 42.272 197.266 42.752C196.674 43.232 195.994 43.6 195.226 43.856C194.458 44.112 193.61 44.24 192.682 44.24ZM192.682 41.24C193.146 41.24 193.562 41.16 193.93 41C194.314 40.84 194.65 40.608 194.938 40.304C195.226 39.984 195.466 39.6 195.658 39.152C195.866 38.688 196.018 38.16 196.114 37.568C196.226 36.976 196.282 36.32 196.282 35.6C196.282 34.88 196.226 34.224 196.114 33.632C196.018 33.04 195.866 32.52 195.658 32.072C195.466 31.608 195.226 31.224 194.938 30.92C194.65 30.6 194.314 30.36 193.93 30.2C193.562 30.04 193.146 29.96 192.682 29.96C192.218 29.96 191.794 30.04 191.41 30.2C191.042 30.36 190.714 30.6 190.426 30.92C190.138 31.224 189.89 31.608 189.682 32.072C189.49 32.52 189.346 33.04 189.25 33.632C189.154 34.224 189.106 34.88 189.106 35.6C189.106 36.32 189.154 36.976 189.25 37.568C189.346 38.16 189.49 38.688 189.682 39.152C189.89 39.6 190.138 39.984 190.426 40.304C190.714 40.608 191.042 40.84 191.41 41C191.794 41.16 192.218 41.24 192.682 41.24ZM208.714 44.24C207.802 44.24 206.962 44.112 206.194 43.856C205.426 43.6 204.738 43.232 204.13 42.752C203.538 42.272 203.026 41.68 202.594 40.976C202.178 40.272 201.866 39.472 201.658 38.576C201.45 37.664 201.346 36.672 201.346 35.6C201.346 34.512 201.45 33.52 201.658 32.624C201.866 31.728 202.178 30.928 202.594 30.224C203.026 29.52 203.538 28.928 204.13 28.448C204.738 27.968 205.426 27.6 206.194 27.344C206.962 27.088 207.802 26.96 208.714 26.96C209.642 26.96 210.49 27.088 211.258 27.344C212.026 27.6 212.706 27.968 213.298 28.448C213.906 28.928 214.418 29.52 214.834 30.224C215.25 30.928 215.562 31.728 215.77 32.624C215.994 33.52 216.106 34.512 216.106 35.6C216.106 36.672 215.994 37.664 215.77 38.576C215.562 39.472 215.25 40.272 214.834 40.976C214.418 41.68 213.906 42.272 213.298 42.752C212.706 43.232 212.026 43.6 211.258 43.856C210.49 44.112 209.642 44.24 208.714 44.24ZM208.714 41.24C209.178 41.24 209.594 41.16 209.962 41C210.346 40.84 210.682 40.608 210.97 40.304C211.258 39.984 211.498 39.6 211.69 39.152C211.898 38.688 212.05 38.16 212.146 37.568C212.258 36.976 212.314 36.32 212.314 35.6C212.314 34.88 212.258 34.224 212.146 33.632C212.05 33.04 211.898 32.52 211.69 32.072C211.498 31.608 211.258 31.224 210.97 30.92C210.682 30.6 210.346 30.36 209.962 30.2C209.594 30.04 209.178 29.96 208.714 29.96C208.25 29.96 207.826 30.04 207.442 30.2C207.074 30.36 206.746 30.6 206.458 30.92C206.17 31.224 205.922 31.608 205.714 32.072C205.522 32.52 205.378 33.04 205.282 33.632C205.186 34.224 205.138 34.88 205.138 35.6C205.138 36.32 205.186 36.976 205.282 37.568C205.378 38.16 205.522 38.688 205.714 39.152C205.922 39.6 206.17 39.984 206.458 40.304C206.746 40.608 207.074 40.84 207.442 41C207.826 41.16 208.25 41.24 208.714 41.24ZM216.974 44V41H221.51V30.392L217.358 31.424V28.304L221.894 27.2H225.23V41H229.07V44H216.974ZM5.742 113L5.742 99.734H0.55L0.55 97.6H13.596V99.734H8.338V113H5.742ZM15.5447 113V97.6H21.9467C22.7681 97.6 23.5087 97.7247 24.1687 97.974C24.8434 98.2087 25.4154 98.5607 25.8847 99.03C26.3541 99.4847 26.7134 100.035 26.9627 100.68C27.2267 101.325 27.3587 102.044 27.3587 102.836C27.3587 103.877 27.1241 104.787 26.6547 105.564C26.2001 106.341 25.5547 106.943 24.7187 107.368C23.8974 107.779 22.9221 107.984 21.7927 107.984H18.1407V113H15.5447ZM18.1407 99.712V105.894H21.3967C22.1007 105.894 22.7021 105.777 23.2007 105.542C23.6994 105.293 24.0807 104.941 24.3447 104.486C24.6087 104.031 24.7407 103.481 24.7407 102.836C24.7407 102.176 24.6087 101.611 24.3447 101.142C24.0807 100.673 23.6994 100.321 23.2007 100.086C22.7021 99.8367 22.1007 99.712 21.3967 99.712H18.1407ZM29.6178 113V97.6H32.2138V110.888H40.1778V97.6H42.7518V110.888H44.4898V116.52H42.0258V113H29.6178ZM50.6098 113V97.6H53.2278L61.5218 109.634V97.6H63.8538V113H61.2578L52.9198 100.966V113H50.6098ZM67.5403 113V97.6H78.0783V99.734H70.1363V104.068H77.0883V106.18H70.1363V110.866H78.2103V113H67.5403ZM87.0937 107.104V105.124H94.2217V113H92.4617L92.2637 110.36C91.985 110.859 91.6404 111.291 91.2297 111.658C90.687 112.171 90.0564 112.56 89.3377 112.824C88.619 113.088 87.805 113.22 86.8957 113.22C86.001 113.22 85.1724 113.103 84.4097 112.868C83.647 112.619 82.965 112.267 82.3637 111.812C81.7624 111.357 81.249 110.807 80.8237 110.162C80.413 109.517 80.0977 108.791 79.8777 107.984C79.6577 107.163 79.5477 106.275 79.5477 105.322C79.5477 104.369 79.665 103.489 79.8997 102.682C80.1344 101.861 80.4644 101.127 80.8897 100.482C81.3297 99.822 81.8577 99.2647 82.4737 98.81C83.1044 98.3407 83.8157 97.9887 84.6077 97.754C85.3997 97.5047 86.265 97.38 87.2037 97.38C88.4357 97.38 89.5064 97.5707 90.4157 97.952C91.3397 98.3187 92.1024 98.8687 92.7037 99.602C93.305 100.321 93.745 101.208 94.0237 102.264L91.5377 102.814C91.3764 102.11 91.105 101.516 90.7237 101.032C90.3424 100.533 89.8584 100.159 89.2717 99.91C88.685 99.646 88.003 99.514 87.2257 99.514C86.5657 99.514 85.9717 99.602 85.4437 99.778C84.9304 99.9393 84.4684 100.181 84.0577 100.504C83.6617 100.827 83.3244 101.223 83.0457 101.692C82.767 102.161 82.5544 102.704 82.4077 103.32C82.2757 103.921 82.2097 104.589 82.2097 105.322C82.2097 106.041 82.2757 106.708 82.4077 107.324C82.5544 107.925 82.767 108.461 83.0457 108.93C83.3244 109.399 83.6617 109.795 84.0577 110.118C84.4537 110.441 84.9084 110.69 85.4217 110.866C85.935 111.027 86.507 111.108 87.1377 111.108C88.1937 111.108 89.0737 110.925 89.7777 110.558C90.4817 110.177 91.017 109.634 91.3837 108.93C91.6624 108.402 91.8384 107.793 91.9117 107.104H87.0937ZM97.169 113V97.6H99.765V110.866H107.465V113H97.169ZM109.437 113V97.6H112.033V113H109.437ZM115.733 113V97.6H118.351L126.645 109.634V97.6H128.977V113H126.381L118.043 100.966V113H115.733ZM132.664 113V97.6H135.282L143.576 109.634V97.6H145.908V113H143.312L134.974 100.966V113H132.664ZM160.022 113L158.504 109.128H151.662L150.144 113H147.614L153.818 97.6H156.436L162.662 113H160.022ZM157.69 107.038L155.094 100.328L152.476 107.038H157.69ZM165.983 113V106.708L160.461 97.6H163.365L167.369 104.508L171.395 97.6H174.233L168.579 106.818V113H165.983ZM184.43 113L182.912 109.128H176.07L174.552 113H172.022L178.226 97.6H180.844L187.07 113H184.43ZM182.098 107.038L179.502 100.328L176.884 107.038H182.098ZM1.98 136L1.98 124.01H12.628V136H10.186V125.99H4.422V136H1.98ZM15.7094 136V124.01H18.1514V128.718H24.0914V124.01H26.5114V136H24.0914V130.698H18.1514V136H15.7094ZM32.856 130.786V128.498H52.678V130.786H32.856ZM68.7053 136H66.2413V131.072C65.7133 131.277 65.1413 131.453 64.5253 131.6C63.9093 131.732 63.3226 131.798 62.7653 131.798C61.812 131.798 61.02 131.651 60.3893 131.358C59.7586 131.05 59.2893 130.581 58.9813 129.95C58.688 129.319 58.5413 128.491 58.5413 127.464V124.01H60.9833V127.244C60.9833 127.948 61.0786 128.491 61.2693 128.872C61.46 129.239 61.7533 129.495 62.1493 129.642C62.5453 129.774 63.0513 129.84 63.6673 129.84C63.946 129.84 64.232 129.818 64.5253 129.774C64.8333 129.73 65.134 129.664 65.4273 129.576C65.7206 129.488 65.992 129.385 66.2413 129.268V124.01H68.7053V136ZM74.1864 136V125.99H70.1604V124.01H80.6544V125.99H76.6284V136H74.1864ZM82.1442 136V124.01H88.1282C88.9349 124.01 89.6242 124.127 90.1962 124.362C90.7829 124.597 91.2302 124.941 91.5382 125.396C91.8609 125.851 92.0222 126.415 92.0222 127.09C92.0222 127.501 91.9562 127.867 91.8242 128.19C91.7069 128.513 91.5309 128.791 91.2962 129.026C91.0762 129.261 90.7975 129.459 90.4602 129.62C90.3429 129.679 90.2255 129.73 90.1082 129.774C90.4015 129.862 90.6802 129.979 90.9442 130.126C91.4282 130.405 91.8022 130.771 92.0662 131.226C92.3449 131.681 92.4842 132.209 92.4842 132.81C92.4842 133.499 92.3229 134.086 92.0002 134.57C91.6775 135.039 91.2155 135.399 90.6142 135.648C90.0129 135.883 89.2942 136 88.4582 136H82.1442ZM84.5202 130.698V134.218H88.0182C88.4582 134.218 88.8322 134.152 89.1402 134.02C89.4482 133.888 89.6829 133.705 89.8442 133.47C90.0202 133.221 90.1082 132.905 90.1082 132.524C90.1082 132.128 90.0129 131.798 89.8222 131.534C89.6462 131.255 89.3969 131.05 89.0742 130.918C88.7515 130.771 88.3849 130.698 87.9742 130.698H84.5202ZM84.5202 125.792V128.982H87.7982C88.1649 128.982 88.4875 128.923 88.7662 128.806C89.0595 128.674 89.2869 128.483 89.4482 128.234C89.6095 127.985 89.6902 127.677 89.6902 127.31C89.6902 126.811 89.5142 126.437 89.1622 126.188C88.8249 125.924 88.3629 125.792 87.7762 125.792H84.5202ZM94.5615 133.404H97.1355V136.176C97.1355 136.953 97.0328 137.577 96.8275 138.046C96.6368 138.515 96.3362 138.853 95.9255 139.058C95.5148 139.278 94.9722 139.395 94.2975 139.41L94.1655 138.024C94.5468 138.024 94.8402 137.973 95.0455 137.87C95.2655 137.782 95.4195 137.606 95.5075 137.342C95.5955 137.093 95.6395 136.741 95.6395 136.286V136H94.5615V133.404ZM103.241 136V133.888H107.553V122.866L103.483 123.834V121.656L107.795 120.6H110.149V133.888H113.889V136H103.241ZM120.423 136.22C119.484 136.22 118.641 136.117 117.893 135.912C117.16 135.707 116.536 135.413 116.023 135.032C115.51 134.636 115.121 134.174 114.857 133.646C114.593 133.103 114.461 132.502 114.461 131.842C114.461 131.197 114.6 130.617 114.879 130.104C115.158 129.591 115.561 129.158 116.089 128.806C116.485 128.527 116.947 128.293 117.475 128.102C117.108 127.955 116.778 127.765 116.485 127.53C116.016 127.163 115.649 126.731 115.385 126.232C115.136 125.733 115.011 125.176 115.011 124.56C115.011 123.929 115.136 123.365 115.385 122.866C115.634 122.353 115.994 121.913 116.463 121.546C116.932 121.165 117.497 120.879 118.157 120.688C118.832 120.483 119.587 120.38 120.423 120.38C121.274 120.38 122.029 120.483 122.689 120.688C123.349 120.879 123.914 121.165 124.383 121.546C124.852 121.913 125.212 122.353 125.461 122.866C125.71 123.365 125.835 123.929 125.835 124.56C125.835 125.059 125.747 125.521 125.571 125.946C125.41 126.357 125.175 126.731 124.867 127.068C124.559 127.405 124.185 127.691 123.745 127.926C123.628 127.985 123.496 128.043 123.349 128.102C123.892 128.293 124.361 128.527 124.757 128.806C125.285 129.158 125.688 129.591 125.967 130.104C126.246 130.617 126.385 131.197 126.385 131.842C126.385 132.502 126.253 133.103 125.989 133.646C125.725 134.174 125.336 134.636 124.823 135.032C124.31 135.413 123.686 135.707 122.953 135.912C122.22 136.117 121.376 136.22 120.423 136.22ZM120.423 134.306C120.951 134.306 121.42 134.247 121.831 134.13C122.242 134.013 122.586 133.844 122.865 133.624C123.158 133.404 123.378 133.14 123.525 132.832C123.686 132.524 123.767 132.172 123.767 131.776C123.767 131.365 123.686 130.999 123.525 130.676C123.378 130.353 123.158 130.082 122.865 129.862C122.586 129.627 122.242 129.451 121.831 129.334C121.42 129.217 120.951 129.158 120.423 129.158C119.91 129.158 119.44 129.217 119.015 129.334C118.604 129.451 118.252 129.627 117.959 129.862C117.68 130.082 117.46 130.353 117.299 130.676C117.152 130.999 117.079 131.358 117.079 131.754C117.079 132.165 117.152 132.524 117.299 132.832C117.46 133.14 117.68 133.404 117.959 133.624C118.252 133.844 118.604 134.013 119.015 134.13C119.44 134.247 119.91 134.306 120.423 134.306ZM123.349 124.736C123.349 124.369 123.283 124.039 123.151 123.746C123.019 123.438 122.821 123.181 122.557 122.976C122.308 122.756 122 122.595 121.633 122.492C121.281 122.375 120.878 122.316 120.423 122.316C119.983 122.316 119.58 122.375 119.213 122.492C118.861 122.595 118.553 122.756 118.289 122.976C118.025 123.181 117.827 123.438 117.695 123.746C117.563 124.039 117.497 124.377 117.497 124.758C117.497 125.125 117.563 125.455 117.695 125.748C117.827 126.027 118.018 126.269 118.267 126.474C118.531 126.679 118.839 126.841 119.191 126.958C119.558 127.061 119.968 127.112 120.423 127.112C120.878 127.112 121.281 127.061 121.633 126.958C122 126.841 122.308 126.679 122.557 126.474C122.821 126.269 123.019 126.027 123.151 125.748C123.283 125.455 123.349 125.117 123.349 124.736ZM128.532 136V133.404H131.106V136H128.532ZM128.532 126.606V124.01H131.106V126.606H128.532ZM139.818 136.22C139.026 136.22 138.293 136.103 137.618 135.868C136.943 135.633 136.342 135.296 135.814 134.856C135.286 134.401 134.839 133.859 134.472 133.228C134.105 132.583 133.827 131.849 133.636 131.028C133.445 130.192 133.35 129.283 133.35 128.3C133.35 127.317 133.445 126.415 133.636 125.594C133.827 124.773 134.105 124.039 134.472 123.394C134.839 122.749 135.286 122.206 135.814 121.766C136.342 121.311 136.943 120.967 137.618 120.732C138.293 120.497 139.026 120.38 139.818 120.38C140.639 120.38 141.387 120.497 142.062 120.732C142.737 120.967 143.338 121.311 143.866 121.766C144.394 122.206 144.841 122.749 145.208 123.394C145.575 124.039 145.853 124.773 146.044 125.594C146.235 126.415 146.33 127.317 146.33 128.3C146.33 129.283 146.235 130.192 146.044 131.028C145.853 131.849 145.575 132.583 145.208 133.228C144.841 133.859 144.394 134.401 143.866 134.856C143.338 135.296 142.737 135.633 142.062 135.868C141.387 136.103 140.639 136.22 139.818 136.22ZM139.818 134.108C140.302 134.108 140.742 134.027 141.138 133.866C141.549 133.705 141.908 133.463 142.216 133.14C142.539 132.803 142.803 132.399 143.008 131.93C143.213 131.461 143.367 130.925 143.47 130.324C143.587 129.708 143.646 129.033 143.646 128.3C143.646 127.567 143.587 126.899 143.47 126.298C143.367 125.682 143.213 125.139 143.008 124.67C142.803 124.201 142.539 123.805 142.216 123.482C141.908 123.159 141.549 122.917 141.138 122.756C140.742 122.595 140.302 122.514 139.818 122.514C139.349 122.514 138.916 122.595 138.52 122.756C138.124 122.917 137.765 123.159 137.442 123.482C137.134 123.805 136.87 124.201 136.65 124.67C136.445 125.139 136.283 125.682 136.166 126.298C136.063 126.899 136.012 127.567 136.012 128.3C136.012 129.033 136.063 129.708 136.166 130.324C136.283 130.925 136.445 131.461 136.65 131.93C136.87 132.399 137.134 132.803 137.442 133.14C137.765 133.463 138.124 133.705 138.52 133.866C138.916 134.027 139.349 134.108 139.818 134.108ZM154.342 136.22C153.55 136.22 152.817 136.103 152.142 135.868C151.468 135.633 150.866 135.296 150.338 134.856C149.81 134.401 149.363 133.859 148.996 133.228C148.63 132.583 148.351 131.849 148.16 131.028C147.97 130.192 147.874 129.283 147.874 128.3C147.874 127.317 147.97 126.415 148.16 125.594C148.351 124.773 148.63 124.039 148.996 123.394C149.363 122.749 149.81 122.206 150.338 121.766C150.866 121.311 151.468 120.967 152.142 120.732C152.817 120.497 153.55 120.38 154.342 120.38C155.164 120.38 155.912 120.497 156.586 120.732C157.261 120.967 157.862 121.311 158.39 121.766C158.918 122.206 159.366 122.749 159.732 123.394C160.099 124.039 160.378 124.773 160.568 125.594C160.759 126.415 160.854 127.317 160.854 128.3C160.854 129.283 160.759 130.192 160.568 131.028C160.378 131.849 160.099 132.583 159.732 133.228C159.366 133.859 158.918 134.401 158.39 134.856C157.862 135.296 157.261 135.633 156.586 135.868C155.912 136.103 155.164 136.22 154.342 136.22ZM154.342 134.108C154.826 134.108 155.266 134.027 155.662 133.866C156.073 133.705 156.432 133.463 156.74 133.14C157.063 132.803 157.327 132.399 157.532 131.93C157.738 131.461 157.892 130.925 157.994 130.324C158.112 129.708 158.17 129.033 158.17 128.3C158.17 127.567 158.112 126.899 157.994 126.298C157.892 125.682 157.738 125.139 157.532 124.67C157.327 124.201 157.063 123.805 156.74 123.482C156.432 123.159 156.073 122.917 155.662 122.756C155.266 122.595 154.826 122.514 154.342 122.514C153.873 122.514 153.44 122.595 153.044 122.756C152.648 122.917 152.289 123.159 151.966 123.482C151.658 123.805 151.394 124.201 151.174 124.67C150.969 125.139 150.808 125.682 150.69 126.298C150.588 126.899 150.536 127.567 150.536 128.3C150.536 129.033 150.588 129.708 150.69 130.324C150.808 130.925 150.969 131.461 151.174 131.93C151.394 132.399 151.658 132.803 151.966 133.14C152.289 133.463 152.648 133.705 153.044 133.866C153.44 134.027 153.873 134.108 154.342 134.108ZM166.414 130.786V128.498H186.236V130.786H166.414ZM201.625 136H199.161V132.942H191.197V131.028L199.029 120.6H201.625V130.896H203.891V132.942H201.625V136ZM199.161 130.896V123.746L193.815 130.896H199.161ZM205.495 136V133.404H208.069V136H205.495ZM205.495 126.606V124.01H208.069V126.606H205.495ZM210.489 133.888L215.945 129.158C216.326 128.806 216.664 128.483 216.957 128.19C217.25 127.897 217.492 127.618 217.683 127.354C217.874 127.075 218.028 126.811 218.145 126.562C218.277 126.298 218.365 126.041 218.409 125.792C218.468 125.543 218.497 125.279 218.497 125C218.497 124.487 218.387 124.047 218.167 123.68C217.947 123.299 217.632 123.013 217.221 122.822C216.81 122.617 216.319 122.514 215.747 122.514C215.116 122.514 214.574 122.631 214.119 122.866C213.664 123.101 213.305 123.453 213.041 123.922C212.792 124.391 212.652 124.971 212.623 125.66L210.137 125.264C210.225 124.252 210.504 123.387 210.973 122.668C211.457 121.935 212.102 121.37 212.909 120.974C213.73 120.578 214.691 120.38 215.791 120.38C216.891 120.38 217.837 120.571 218.629 120.952C219.436 121.333 220.052 121.869 220.477 122.558C220.917 123.233 221.137 124.039 221.137 124.978C221.137 125.374 221.093 125.763 221.005 126.144C220.932 126.511 220.814 126.877 220.653 127.244C220.492 127.596 220.264 127.955 219.971 128.322C219.692 128.689 219.348 129.077 218.937 129.488C218.541 129.884 218.072 130.317 217.529 130.786L213.899 133.888H221.445V136H210.489V133.888ZM234.459 128.124C234.459 128.989 234.393 129.789 234.261 130.522C234.144 131.241 233.96 131.901 233.711 132.502C233.462 133.103 233.154 133.639 232.787 134.108C232.435 134.563 232.017 134.951 231.533 135.274C231.064 135.582 230.536 135.817 229.949 135.978C229.377 136.139 228.754 136.22 228.079 136.22C227.17 136.22 226.348 136.073 225.615 135.78C224.882 135.472 224.273 135.032 223.789 134.46C223.305 133.888 222.968 133.184 222.777 132.348L225.175 131.864C225.307 132.348 225.505 132.766 225.769 133.118C226.033 133.455 226.363 133.712 226.759 133.888C227.155 134.064 227.602 134.152 228.101 134.152C228.585 134.152 229.025 134.071 229.421 133.91C229.832 133.749 230.191 133.507 230.499 133.184C230.807 132.847 231.064 132.443 231.269 131.974C231.474 131.49 231.621 130.925 231.709 130.28C231.812 129.693 231.863 129.048 231.863 128.344C231.614 128.696 231.313 129.011 230.961 129.29C230.521 129.613 230.022 129.869 229.465 130.06C228.908 130.251 228.292 130.346 227.617 130.346C226.854 130.346 226.165 130.236 225.549 130.016C224.933 129.781 224.398 129.451 223.943 129.026C223.503 128.601 223.158 128.087 222.909 127.486C222.674 126.87 222.557 126.188 222.557 125.44C222.557 124.677 222.689 123.988 222.953 123.372C223.232 122.756 223.62 122.228 224.119 121.788C224.632 121.333 225.234 120.989 225.923 120.754C226.627 120.505 227.404 120.38 228.255 120.38C229.062 120.38 229.788 120.49 230.433 120.71C231.093 120.93 231.672 121.26 232.171 121.7C232.67 122.125 233.088 122.653 233.425 123.284C233.777 123.915 234.034 124.633 234.195 125.44C234.371 126.247 234.459 127.141 234.459 128.124ZM228.233 122.426C227.749 122.426 227.309 122.499 226.913 122.646C226.532 122.793 226.202 122.998 225.923 123.262C225.659 123.526 225.454 123.841 225.307 124.208C225.16 124.56 225.087 124.956 225.087 125.396C225.087 125.865 225.16 126.283 225.307 126.65C225.454 127.002 225.659 127.31 225.923 127.574C226.202 127.838 226.532 128.043 226.913 128.19C227.309 128.322 227.749 128.388 228.233 128.388C228.717 128.388 229.15 128.322 229.531 128.19C229.927 128.043 230.264 127.845 230.543 127.596C230.836 127.347 231.056 127.053 231.203 126.716C231.364 126.379 231.445 126.012 231.445 125.616C231.445 125.132 231.364 124.699 231.203 124.318C231.056 123.922 230.844 123.585 230.565 123.306C230.286 123.027 229.949 122.815 229.553 122.668C229.157 122.507 228.717 122.426 228.233 122.426ZM1.98 159L1.98 147.01H12.628V159H10.186V148.99H4.422V159H1.98ZM18.1079 159V148.99H14.0819V147.01H24.5759V148.99H20.5499V159H18.1079ZM26.0657 159V147.01H28.5077V151.718H34.4477V147.01H36.8677V159H34.4477V153.698H28.5077V159H26.0657ZM43.2123 153.786V151.498H63.0343V153.786H43.2123ZM69.3816 159V147.01H75.3656C76.1723 147.01 76.8616 147.127 77.4336 147.362C78.0203 147.597 78.4676 147.941 78.7756 148.396C79.0983 148.851 79.2596 149.415 79.2596 150.09C79.2596 150.501 79.1936 150.867 79.0616 151.19C78.9443 151.513 78.7683 151.791 78.5336 152.026C78.3136 152.261 78.035 152.459 77.6976 152.62C77.5803 152.679 77.463 152.73 77.3456 152.774C77.639 152.862 77.9176 152.979 78.1816 153.126C78.6656 153.405 79.0396 153.771 79.3036 154.226C79.5823 154.681 79.7216 155.209 79.7216 155.81C79.7216 156.499 79.5603 157.086 79.2376 157.57C78.915 158.039 78.453 158.399 77.8516 158.648C77.2503 158.883 76.5316 159 75.6956 159H69.3816ZM71.7576 153.698V157.218H75.2556C75.6956 157.218 76.0696 157.152 76.3776 157.02C76.6856 156.888 76.9203 156.705 77.0816 156.47C77.2576 156.221 77.3456 155.905 77.3456 155.524C77.3456 155.128 77.2503 154.798 77.0596 154.534C76.8836 154.255 76.6343 154.05 76.3116 153.918C75.989 153.771 75.6223 153.698 75.2116 153.698H71.7576ZM71.7576 148.792V151.982H75.0356C75.4023 151.982 75.725 151.923 76.0036 151.806C76.297 151.674 76.5243 151.483 76.6856 151.234C76.847 150.985 76.9276 150.677 76.9276 150.31C76.9276 149.811 76.7516 149.437 76.3996 149.188C76.0623 148.924 75.6003 148.792 75.0136 148.792H71.7576ZM92.4469 151.102L90.0929 151.498C90.0049 150.911 89.8216 150.42 89.5429 150.024C89.2789 149.613 88.9343 149.305 88.5089 149.1C88.0836 148.88 87.5849 148.77 87.0129 148.77C86.5583 148.77 86.1476 148.836 85.7809 148.968C85.4143 149.1 85.0916 149.283 84.8129 149.518C84.5489 149.753 84.3216 150.046 84.1309 150.398C83.9549 150.735 83.8156 151.124 83.7129 151.564C83.6249 152.004 83.5809 152.488 83.5809 153.016C83.5809 153.529 83.6249 154.006 83.7129 154.446C83.8156 154.871 83.9549 155.26 84.1309 155.612C84.3216 155.964 84.5563 156.257 84.8349 156.492C85.1136 156.727 85.4289 156.91 85.7809 157.042C86.1476 157.174 86.5583 157.24 87.0129 157.24C87.5849 157.24 88.0836 157.137 88.5089 156.932C88.9343 156.727 89.2863 156.426 89.5649 156.03C89.8583 155.619 90.0636 155.099 90.1809 154.468L92.4909 154.864C92.3003 155.803 91.9556 156.595 91.4569 157.24C90.9729 157.885 90.3496 158.377 89.5869 158.714C88.8389 159.051 87.9809 159.22 87.0129 159.22C86.2649 159.22 85.5829 159.125 84.9669 158.934C84.3509 158.743 83.8009 158.472 83.3169 158.12C82.8329 157.753 82.4223 157.321 82.0849 156.822C81.7623 156.309 81.5129 155.737 81.3369 155.106C81.1756 154.475 81.0949 153.779 81.0949 153.016C81.0949 152.268 81.1756 151.571 81.3369 150.926C81.5129 150.281 81.7623 149.701 82.0849 149.188C82.4223 148.675 82.8329 148.242 83.3169 147.89C83.8009 147.523 84.3509 147.252 84.9669 147.076C85.5829 146.885 86.2649 146.79 87.0129 146.79C88.0249 146.79 88.9049 146.959 89.6529 147.296C90.4009 147.619 91.0096 148.103 91.4789 148.748C91.9483 149.393 92.2709 150.178 92.4469 151.102ZM94.3912 159V147.01H96.8332V152.598L102.223 147.01H105.127L99.4732 152.62L105.259 159H102.267L96.8332 153.038V159H94.3912ZM108.471 147.01L108.647 149.232C108.794 148.997 108.948 148.785 109.109 148.594C109.549 148.022 110.085 147.582 110.715 147.274C111.361 146.951 112.079 146.79 112.871 146.79C113.517 146.79 114.111 146.893 114.653 147.098C115.211 147.289 115.702 147.567 116.127 147.934C116.567 148.301 116.934 148.741 117.227 149.254C117.535 149.767 117.77 150.339 117.931 150.97C118.093 151.601 118.173 152.275 118.173 152.994C118.173 153.727 118.093 154.409 117.931 155.04C117.77 155.671 117.535 156.243 117.227 156.756C116.934 157.269 116.567 157.709 116.127 158.076C115.702 158.443 115.211 158.729 114.653 158.934C114.111 159.125 113.517 159.22 112.871 159.22C112.079 159.22 111.361 159.066 110.715 158.758C110.085 158.435 109.549 157.995 109.109 157.438C108.992 157.291 108.882 157.137 108.779 156.976V163.4H106.337V147.01H108.471ZM112.233 157.196C112.673 157.196 113.077 157.13 113.443 156.998C113.81 156.866 114.133 156.675 114.411 156.426C114.69 156.177 114.917 155.876 115.093 155.524C115.284 155.172 115.423 154.791 115.511 154.38C115.614 153.955 115.665 153.5 115.665 153.016C115.665 152.517 115.614 152.055 115.511 151.63C115.423 151.205 115.284 150.823 115.093 150.486C114.917 150.134 114.69 149.833 114.411 149.584C114.133 149.335 113.81 149.144 113.443 149.012C113.077 148.88 112.673 148.814 112.233 148.814C111.515 148.814 110.899 148.997 110.385 149.364C109.872 149.716 109.476 150.207 109.197 150.838C108.919 151.469 108.779 152.195 108.779 153.016C108.779 153.617 108.853 154.175 108.999 154.688C109.161 155.201 109.388 155.649 109.681 156.03C109.989 156.397 110.356 156.683 110.781 156.888C111.207 157.093 111.691 157.196 112.233 157.196ZM120.409 156.404H122.983V159.176C122.983 159.953 122.88 160.577 122.675 161.046C122.484 161.515 122.184 161.853 121.773 162.058C121.362 162.278 120.82 162.395 120.145 162.41L120.013 161.024C120.394 161.024 120.688 160.973 120.893 160.87C121.113 160.782 121.267 160.606 121.355 160.342C121.443 160.093 121.487 159.741 121.487 159.286V159H120.409V156.404ZM129.089 159V156.888H133.401V145.866L129.331 146.834V144.656L133.643 143.6H135.997V156.888H139.737V159H129.089ZM140.548 151.476C140.548 150.611 140.614 149.819 140.746 149.1C140.878 148.367 141.061 147.699 141.296 147.098C141.545 146.497 141.853 145.969 142.22 145.514C142.587 145.045 143.005 144.656 143.474 144.348C143.943 144.025 144.471 143.783 145.058 143.622C145.645 143.461 146.275 143.38 146.95 143.38C147.845 143.38 148.659 143.534 149.392 143.842C150.125 144.135 150.741 144.568 151.24 145.14C151.739 145.712 152.076 146.416 152.252 147.252L149.832 147.736C149.715 147.252 149.524 146.841 149.26 146.504C148.996 146.152 148.666 145.888 148.27 145.712C147.874 145.536 147.427 145.448 146.928 145.448C146.429 145.448 145.975 145.529 145.564 145.69C145.168 145.851 144.816 146.101 144.508 146.438C144.215 146.761 143.965 147.164 143.76 147.648C143.555 148.117 143.401 148.675 143.298 149.32C143.21 149.907 143.159 150.552 143.144 151.256C143.188 151.197 143.232 151.139 143.276 151.08C143.731 150.508 144.31 150.061 145.014 149.738C145.718 149.415 146.51 149.254 147.39 149.254C148.153 149.254 148.842 149.371 149.458 149.606C150.074 149.826 150.609 150.149 151.064 150.574C151.519 150.999 151.863 151.52 152.098 152.136C152.333 152.737 152.45 153.412 152.45 154.16C152.45 154.923 152.311 155.612 152.032 156.228C151.768 156.844 151.379 157.379 150.866 157.834C150.367 158.274 149.766 158.619 149.062 158.868C148.373 159.103 147.603 159.22 146.752 159.22C145.945 159.22 145.219 159.11 144.574 158.89C143.929 158.67 143.349 158.347 142.836 157.922C142.337 157.482 141.919 156.947 141.582 156.316C141.245 155.685 140.988 154.967 140.812 154.16C140.636 153.353 140.548 152.459 140.548 151.476ZM146.774 157.174C147.258 157.174 147.691 157.101 148.072 156.954C148.468 156.807 148.798 156.602 149.062 156.338C149.341 156.074 149.553 155.766 149.7 155.414C149.847 155.047 149.92 154.644 149.92 154.204C149.92 153.735 149.847 153.324 149.7 152.972C149.553 152.605 149.341 152.29 149.062 152.026C148.798 151.762 148.468 151.564 148.072 151.432C147.691 151.285 147.258 151.212 146.774 151.212C146.305 151.212 145.872 151.285 145.476 151.432C145.095 151.564 144.757 151.755 144.464 152.004C144.171 152.253 143.951 152.547 143.804 152.884C143.657 153.221 143.584 153.588 143.584 153.984C143.584 154.468 143.657 154.908 143.804 155.304C143.951 155.685 144.163 156.015 144.442 156.294C144.735 156.573 145.08 156.793 145.476 156.954C145.872 157.101 146.305 157.174 146.774 157.174ZM154.594 159V156.404H157.168V159H154.594ZM154.594 149.606V147.01H157.168V149.606H154.594ZM165.88 159.22C165.088 159.22 164.355 159.103 163.68 158.868C163.006 158.633 162.404 158.296 161.876 157.856C161.348 157.401 160.901 156.859 160.534 156.228C160.168 155.583 159.889 154.849 159.698 154.028C159.508 153.192 159.412 152.283 159.412 151.3C159.412 150.317 159.508 149.415 159.698 148.594C159.889 147.773 160.168 147.039 160.534 146.394C160.901 145.749 161.348 145.206 161.876 144.766C162.404 144.311 163.006 143.967 163.68 143.732C164.355 143.497 165.088 143.38 165.88 143.38C166.702 143.38 167.45 143.497 168.124 143.732C168.799 143.967 169.4 144.311 169.928 144.766C170.456 145.206 170.904 145.749 171.27 146.394C171.637 147.039 171.916 147.773 172.106 148.594C172.297 149.415 172.392 150.317 172.392 151.3C172.392 152.283 172.297 153.192 172.106 154.028C171.916 154.849 171.637 155.583 171.27 156.228C170.904 156.859 170.456 157.401 169.928 157.856C169.4 158.296 168.799 158.633 168.124 158.868C167.45 159.103 166.702 159.22 165.88 159.22ZM165.88 157.108C166.364 157.108 166.804 157.027 167.2 156.866C167.611 156.705 167.97 156.463 168.278 156.14C168.601 155.803 168.865 155.399 169.07 154.93C169.276 154.461 169.43 153.925 169.532 153.324C169.65 152.708 169.708 152.033 169.708 151.3C169.708 150.567 169.65 149.899 169.532 149.298C169.43 148.682 169.276 148.139 169.07 147.67C168.865 147.201 168.601 146.805 168.278 146.482C167.97 146.159 167.611 145.917 167.2 145.756C166.804 145.595 166.364 145.514 165.88 145.514C165.411 145.514 164.978 145.595 164.582 145.756C164.186 145.917 163.827 146.159 163.504 146.482C163.196 146.805 162.932 147.201 162.712 147.67C162.507 148.139 162.346 148.682 162.228 149.298C162.126 149.899 162.074 150.567 162.074 151.3C162.074 152.033 162.126 152.708 162.228 153.324C162.346 153.925 162.507 154.461 162.712 154.93C162.932 155.399 163.196 155.803 163.504 156.14C163.827 156.463 164.186 156.705 164.582 156.866C164.978 157.027 165.411 157.108 165.88 157.108ZM180.405 159.22C179.613 159.22 178.879 159.103 178.205 158.868C177.53 158.633 176.929 158.296 176.401 157.856C175.873 157.401 175.425 156.859 175.059 156.228C174.692 155.583 174.413 154.849 174.223 154.028C174.032 153.192 173.937 152.283 173.937 151.3C173.937 150.317 174.032 149.415 174.223 148.594C174.413 147.773 174.692 147.039 175.059 146.394C175.425 145.749 175.873 145.206 176.401 144.766C176.929 144.311 177.53 143.967 178.205 143.732C178.879 143.497 179.613 143.38 180.405 143.38C181.226 143.38 181.974 143.497 182.649 143.732C183.323 143.967 183.925 144.311 184.453 144.766C184.981 145.206 185.428 145.749 185.795 146.394C186.161 147.039 186.44 147.773 186.631 148.594C186.821 149.415 186.917 150.317 186.917 151.3C186.917 152.283 186.821 153.192 186.631 154.028C186.44 154.849 186.161 155.583 185.795 156.228C185.428 156.859 184.981 157.401 184.453 157.856C183.925 158.296 183.323 158.633 182.649 158.868C181.974 159.103 181.226 159.22 180.405 159.22ZM180.405 157.108C180.889 157.108 181.329 157.027 181.725 156.866C182.135 156.705 182.495 156.463 182.803 156.14C183.125 155.803 183.389 155.399 183.595 154.93C183.8 154.461 183.954 153.925 184.057 153.324C184.174 152.708 184.233 152.033 184.233 151.3C184.233 150.567 184.174 149.899 184.057 149.298C183.954 148.682 183.8 148.139 183.595 147.67C183.389 147.201 183.125 146.805 182.803 146.482C182.495 146.159 182.135 145.917 181.725 145.756C181.329 145.595 180.889 145.514 180.405 145.514C179.935 145.514 179.503 145.595 179.107 145.756C178.711 145.917 178.351 146.159 178.029 146.482C177.721 146.805 177.457 147.201 177.237 147.67C177.031 148.139 176.87 148.682 176.753 149.298C176.65 149.899 176.599 150.567 176.599 151.3C176.599 152.033 176.65 152.708 176.753 153.324C176.87 153.925 177.031 154.461 177.237 154.93C177.457 155.399 177.721 155.803 178.029 156.14C178.351 156.463 178.711 156.705 179.107 156.866C179.503 157.027 179.935 157.108 180.405 157.108ZM192.476 153.786V151.498H212.298V153.786H192.476ZM217.898 151.476C217.898 150.611 217.964 149.819 218.096 149.1C218.228 148.367 218.411 147.699 218.646 147.098C218.895 146.497 219.203 145.969 219.57 145.514C219.936 145.045 220.354 144.656 220.824 144.348C221.293 144.025 221.821 143.783 222.408 143.622C222.994 143.461 223.625 143.38 224.3 143.38C225.194 143.38 226.008 143.534 226.742 143.842C227.475 144.135 228.091 144.568 228.59 145.14C229.088 145.712 229.426 146.416 229.602 147.252L227.182 147.736C227.064 147.252 226.874 146.841 226.61 146.504C226.346 146.152 226.016 145.888 225.62 145.712C225.224 145.536 224.776 145.448 224.278 145.448C223.779 145.448 223.324 145.529 222.914 145.69C222.518 145.851 222.166 146.101 221.858 146.438C221.564 146.761 221.315 147.164 221.11 147.648C220.904 148.117 220.75 148.675 220.648 149.32C220.56 149.907 220.508 150.552 220.494 151.256C220.538 151.197 220.582 151.139 220.626 151.08C221.08 150.508 221.66 150.061 222.364 149.738C223.068 149.415 223.86 149.254 224.74 149.254C225.502 149.254 226.192 149.371 226.808 149.606C227.424 149.826 227.959 150.149 228.414 150.574C228.868 150.999 229.213 151.52 229.448 152.136C229.682 152.737 229.8 153.412 229.8 154.16C229.8 154.923 229.66 155.612 229.382 156.228C229.118 156.844 228.729 157.379 228.216 157.834C227.717 158.274 227.116 158.619 226.412 158.868C225.722 159.103 224.952 159.22 224.102 159.22C223.295 159.22 222.569 159.11 221.924 158.89C221.278 158.67 220.699 158.347 220.186 157.922C219.687 157.482 219.269 156.947 218.932 156.316C218.594 155.685 218.338 154.967 218.162 154.16C217.986 153.353 217.898 152.459 217.898 151.476ZM224.124 157.174C224.608 157.174 225.04 157.101 225.422 156.954C225.818 156.807 226.148 156.602 226.412 156.338C226.69 156.074 226.903 155.766 227.05 155.414C227.196 155.047 227.27 154.644 227.27 154.204C227.27 153.735 227.196 153.324 227.05 152.972C226.903 152.605 226.69 152.29 226.412 152.026C226.148 151.762 225.818 151.564 225.422 151.432C225.04 151.285 224.608 151.212 224.124 151.212C223.654 151.212 223.222 151.285 222.826 151.432C222.444 151.564 222.107 151.755 221.814 152.004C221.52 152.253 221.3 152.547 221.154 152.884C221.007 153.221 220.934 153.588 220.934 153.984C220.934 154.468 221.007 154.908 221.154 155.304C221.3 155.685 221.513 156.015 221.792 156.294C222.085 156.573 222.43 156.793 222.826 156.954C223.222 157.101 223.654 157.174 224.124 157.174ZM231.944 159V156.404H234.518V159H231.944ZM231.944 149.606V147.01H234.518V149.606H231.944ZM243.23 159.22C242.438 159.22 241.705 159.103 241.03 158.868C240.355 158.633 239.754 158.296 239.226 157.856C238.698 157.401 238.251 156.859 237.884 156.228C237.517 155.583 237.239 154.849 237.048 154.028C236.857 153.192 236.762 152.283 236.762 151.3C236.762 150.317 236.857 149.415 237.048 148.594C237.239 147.773 237.517 147.039 237.884 146.394C238.251 145.749 238.698 145.206 239.226 144.766C239.754 144.311 240.355 143.967 241.03 143.732C241.705 143.497 242.438 143.38 243.23 143.38C244.051 143.38 244.799 143.497 245.474 143.732C246.149 143.967 246.75 144.311 247.278 144.766C247.806 145.206 248.253 145.749 248.62 146.394C248.987 147.039 249.265 147.773 249.456 148.594C249.647 149.415 249.742 150.317 249.742 151.3C249.742 152.283 249.647 153.192 249.456 154.028C249.265 154.849 248.987 155.583 248.62 156.228C248.253 156.859 247.806 157.401 247.278 157.856C246.75 158.296 246.149 158.633 245.474 158.868C244.799 159.103 244.051 159.22 243.23 159.22ZM243.23 157.108C243.714 157.108 244.154 157.027 244.55 156.866C244.961 156.705 245.32 156.463 245.628 156.14C245.951 155.803 246.215 155.399 246.42 154.93C246.625 154.461 246.779 153.925 246.882 153.324C246.999 152.708 247.058 152.033 247.058 151.3C247.058 150.567 246.999 149.899 246.882 149.298C246.779 148.682 246.625 148.139 246.42 147.67C246.215 147.201 245.951 146.805 245.628 146.482C245.32 146.159 244.961 145.917 244.55 145.756C244.154 145.595 243.714 145.514 243.23 145.514C242.761 145.514 242.328 145.595 241.932 145.756C241.536 145.917 241.177 146.159 240.854 146.482C240.546 146.805 240.282 147.201 240.062 147.67C239.857 148.139 239.695 148.682 239.578 149.298C239.475 149.899 239.424 150.567 239.424 151.3C239.424 152.033 239.475 152.708 239.578 153.324C239.695 153.925 239.857 154.461 240.062 154.93C240.282 155.399 240.546 155.803 240.854 156.14C241.177 156.463 241.536 156.705 241.932 156.866C242.328 157.027 242.761 157.108 243.23 157.108ZM257.754 159.22C256.962 159.22 256.229 159.103 255.554 158.868C254.88 158.633 254.278 158.296 253.75 157.856C253.222 157.401 252.775 156.859 252.408 156.228C252.042 155.583 251.763 154.849 251.572 154.028C251.382 153.192 251.286 152.283 251.286 151.3C251.286 150.317 251.382 149.415 251.572 148.594C251.763 147.773 252.042 147.039 252.408 146.394C252.775 145.749 253.222 145.206 253.75 144.766C254.278 144.311 254.88 143.967 255.554 143.732C256.229 143.497 256.962 143.38 257.754 143.38C258.576 143.38 259.324 143.497 259.998 143.732C260.673 143.967 261.274 144.311 261.802 144.766C262.33 145.206 262.778 145.749 263.144 146.394C263.511 147.039 263.79 147.773 263.98 148.594C264.171 149.415 264.266 150.317 264.266 151.3C264.266 152.283 264.171 153.192 263.98 154.028C263.79 154.849 263.511 155.583 263.144 156.228C262.778 156.859 262.33 157.401 261.802 157.856C261.274 158.296 260.673 158.633 259.998 158.868C259.324 159.103 258.576 159.22 257.754 159.22ZM257.754 157.108C258.238 157.108 258.678 157.027 259.074 156.866C259.485 156.705 259.844 156.463 260.152 156.14C260.475 155.803 260.739 155.399 260.944 154.93C261.15 154.461 261.304 153.925 261.406 153.324C261.524 152.708 261.582 152.033 261.582 151.3C261.582 150.567 261.524 149.899 261.406 149.298C261.304 148.682 261.15 148.139 260.944 147.67C260.739 147.201 260.475 146.805 260.152 146.482C259.844 146.159 259.485 145.917 259.074 145.756C258.678 145.595 258.238 145.514 257.754 145.514C257.285 145.514 256.852 145.595 256.456 145.756C256.06 145.917 255.701 146.159 255.378 146.482C255.07 146.805 254.806 147.201 254.586 147.67C254.381 148.139 254.22 148.682 254.102 149.298C254 149.899 253.948 150.567 253.948 151.3C253.948 152.033 254 152.708 254.102 153.324C254.22 153.925 254.381 154.461 254.586 154.93C254.806 155.399 255.07 155.803 255.378 156.14C255.701 156.463 256.06 156.705 256.456 156.866C256.852 157.027 257.285 157.108 257.754 157.108Z" fill="black"/>
<path d="M1.738 295V282.944H4.928V288.136L9.548 282.944H13.266L8.008 288.51L13.376 295H9.548L4.928 289.39V295H1.738ZM19.4184 295.22C18.6558 295.22 17.9518 295.132 17.3064 294.956C16.6758 294.765 16.1111 294.494 15.6124 294.142C15.1138 293.775 14.6958 293.343 14.3584 292.844C14.0211 292.331 13.7571 291.751 13.5664 291.106C13.3904 290.446 13.3024 289.735 13.3024 288.972C13.3024 288.209 13.3904 287.505 13.5664 286.86C13.7571 286.215 14.0211 285.643 14.3584 285.144C14.6958 284.631 15.1138 284.198 15.6124 283.846C16.1111 283.479 16.6758 283.201 17.3064 283.01C17.9518 282.819 18.6558 282.724 19.4184 282.724C20.1958 282.724 20.8998 282.819 21.5304 283.01C22.1758 283.201 22.7478 283.479 23.2464 283.846C23.7451 284.198 24.1631 284.631 24.5004 285.144C24.8524 285.643 25.1164 286.215 25.2924 286.86C25.4684 287.505 25.5564 288.209 25.5564 288.972C25.5564 289.735 25.4684 290.446 25.2924 291.106C25.1164 291.751 24.8524 292.331 24.5004 292.844C24.1631 293.343 23.7451 293.775 23.2464 294.142C22.7478 294.494 22.1758 294.765 21.5304 294.956C20.8998 295.132 20.1958 295.22 19.4184 295.22ZM19.4184 292.646C19.8144 292.646 20.1664 292.595 20.4744 292.492C20.7824 292.389 21.0464 292.243 21.2664 292.052C21.4864 291.847 21.6771 291.597 21.8384 291.304C21.9998 290.996 22.1171 290.651 22.1904 290.27C22.2638 289.874 22.3004 289.441 22.3004 288.972C22.3004 288.503 22.2638 288.077 22.1904 287.696C22.1171 287.3 21.9998 286.955 21.8384 286.662C21.6771 286.354 21.4864 286.105 21.2664 285.914C21.0464 285.709 20.7824 285.555 20.4744 285.452C20.1664 285.349 19.8144 285.298 19.4184 285.298C19.0371 285.298 18.6924 285.349 18.3844 285.452C18.0764 285.555 17.8051 285.709 17.5704 285.914C17.3504 286.105 17.1598 286.354 16.9984 286.662C16.8518 286.955 16.7418 287.3 16.6684 287.696C16.5951 288.077 16.5584 288.503 16.5584 288.972C16.5584 289.441 16.5951 289.874 16.6684 290.27C16.7418 290.651 16.8518 290.996 16.9984 291.304C17.1598 291.597 17.3504 291.847 17.5704 292.052C17.8051 292.243 18.0764 292.389 18.3844 292.492C18.6924 292.595 19.0371 292.646 19.4184 292.646ZM27.4565 295V282.944H30.6465V287.388H35.6405V282.944H38.8085V295H35.6405V289.94H30.6465V295H27.4565ZM43.7338 295V285.518H39.9718V282.944H50.7078V285.518H46.9238V295H43.7338ZM51.2035 286.706C51.3208 286.061 51.5261 285.489 51.8195 284.99C52.1275 284.477 52.5088 284.059 52.9635 283.736C53.4328 283.399 53.9755 283.149 54.5915 282.988C55.2075 282.812 55.8968 282.724 56.6595 282.724C57.4661 282.724 58.1848 282.819 58.8155 283.01C59.4608 283.201 59.9961 283.487 60.4215 283.868C60.8615 284.249 61.1915 284.726 61.4115 285.298C61.6315 285.87 61.7415 286.537 61.7415 287.3V292.03C61.7415 292.221 61.7708 292.375 61.8295 292.492C61.8881 292.609 61.9688 292.697 62.0715 292.756C62.1888 292.8 62.3281 292.822 62.4895 292.822C62.5628 292.822 62.6361 292.822 62.7095 292.822C62.7828 292.807 62.8415 292.8 62.8855 292.8L62.8195 294.956C62.6581 295.029 62.4455 295.088 62.1815 295.132C61.9321 295.176 61.7195 295.198 61.5435 295.198C60.9421 295.198 60.4435 295.103 60.0475 294.912C59.6515 294.721 59.3581 294.443 59.1675 294.076C59.0208 293.797 58.9328 293.467 58.9035 293.086C58.8448 293.174 58.7935 293.255 58.7495 293.328C58.4415 293.739 58.0895 294.083 57.6935 294.362C57.3121 294.641 56.8795 294.853 56.3955 295C55.9261 295.147 55.4128 295.22 54.8555 295.22C54.0341 295.22 53.3155 295.081 52.6995 294.802C52.0981 294.509 51.6288 294.098 51.2915 293.57C50.9688 293.027 50.8075 292.397 50.8075 291.678C50.8075 290.93 50.9761 290.292 51.3135 289.764C51.6508 289.236 52.1641 288.818 52.8535 288.51C53.5428 288.187 54.4301 287.967 55.5155 287.85L58.8375 287.498V287.476C58.8375 287.065 58.7861 286.713 58.6835 286.42C58.5808 286.112 58.4341 285.863 58.2435 285.672C58.0528 285.481 57.8181 285.342 57.5395 285.254C57.2608 285.151 56.9381 285.1 56.5715 285.1C56.1021 285.1 55.6841 285.173 55.3175 285.32C54.9655 285.467 54.6868 285.694 54.4815 286.002C54.2761 286.31 54.1588 286.691 54.1295 287.146L51.2035 286.706ZM58.8815 289.522L55.6255 289.918C55.2148 289.947 54.8701 290.035 54.5915 290.182C54.3275 290.314 54.1221 290.483 53.9755 290.688C53.8435 290.893 53.7775 291.135 53.7775 291.414C53.7775 291.707 53.8361 291.964 53.9535 292.184C54.0855 292.389 54.2761 292.543 54.5255 292.646C54.7895 292.749 55.1121 292.8 55.4935 292.8C55.8748 292.8 56.2341 292.749 56.5715 292.646C56.9235 292.543 57.2388 292.404 57.5175 292.228C57.7961 292.052 58.0381 291.839 58.2435 291.59C58.4488 291.341 58.6028 291.069 58.7055 290.776C58.8228 290.483 58.8815 290.167 58.8815 289.83V289.522ZM64.2403 295V282.944H67.4303V288.136L72.0503 282.944H75.7683L70.5103 288.51L75.8783 295H72.0503L67.4303 289.39V295H64.2403ZM79.2285 295V285.518H75.4665V282.944H86.2025V285.518H82.4185V295H79.2285ZM87.4022 295V282.944H90.5922V287.388H95.5862V282.944H98.7542V295H95.5862V289.94H90.5922V295H87.4022ZM101.368 295V282.944H104.558V286.574H107.638C108.533 286.574 109.303 286.75 109.948 287.102C110.593 287.454 111.085 287.945 111.422 288.576C111.774 289.207 111.95 289.947 111.95 290.798C111.95 291.443 111.847 292.03 111.642 292.558C111.451 293.071 111.165 293.511 110.784 293.878C110.417 294.23 109.963 294.509 109.42 294.714C108.892 294.905 108.298 295 107.638 295H101.368ZM113.138 295V282.944H116.328V295H113.138ZM104.558 288.928V292.646H106.956C107.381 292.646 107.741 292.58 108.034 292.448C108.327 292.301 108.547 292.096 108.694 291.832C108.841 291.553 108.914 291.216 108.914 290.82C108.914 290.395 108.841 290.043 108.694 289.764C108.547 289.485 108.327 289.28 108.034 289.148C107.741 289.001 107.381 288.928 106.956 288.928H104.558ZM118.922 295V282.944H122.024V290.754L126.908 282.944H129.988V295H126.908V287.212L122.024 295H118.922ZM126.116 278.302H128.602C128.602 278.815 128.499 279.292 128.294 279.732C128.103 280.172 127.824 280.546 127.458 280.854C127.106 281.162 126.68 281.404 126.182 281.58C125.683 281.741 125.118 281.822 124.488 281.822C123.872 281.822 123.307 281.741 122.794 281.58C122.295 281.404 121.862 281.162 121.496 280.854C121.144 280.546 120.865 280.172 120.66 279.732C120.469 279.292 120.374 278.815 120.374 278.302H122.882C122.882 278.801 123.021 279.189 123.3 279.468C123.578 279.747 123.974 279.886 124.488 279.886C124.825 279.886 125.111 279.827 125.346 279.71C125.595 279.578 125.786 279.395 125.918 279.16C126.05 278.911 126.116 278.625 126.116 278.302ZM138.959 295V285.518H135.197V282.944H145.933V285.518H142.149V295H138.959ZM152.655 295.22C151.892 295.22 151.181 295.125 150.521 294.934C149.876 294.743 149.304 294.472 148.805 294.12C148.306 293.753 147.874 293.313 147.507 292.8C147.155 292.287 146.884 291.707 146.693 291.062C146.517 290.417 146.429 289.72 146.429 288.972C146.429 288.239 146.517 287.557 146.693 286.926C146.884 286.281 147.148 285.709 147.485 285.21C147.837 284.697 148.262 284.257 148.761 283.89C149.26 283.509 149.832 283.223 150.477 283.032C151.137 282.827 151.856 282.724 152.633 282.724C153.498 282.724 154.29 282.863 155.009 283.142C155.742 283.406 156.373 283.795 156.901 284.308C157.429 284.807 157.84 285.415 158.133 286.134C158.426 286.838 158.573 287.63 158.573 288.51C158.573 288.73 158.558 288.943 158.529 289.148C158.514 289.353 158.485 289.559 158.441 289.764H149.553C149.568 289.94 149.597 290.109 149.641 290.27C149.714 290.666 149.839 291.018 150.015 291.326C150.191 291.619 150.404 291.876 150.653 292.096C150.902 292.301 151.196 292.463 151.533 292.58C151.885 292.683 152.266 292.734 152.677 292.734C153.205 292.734 153.66 292.668 154.041 292.536C154.422 292.389 154.738 292.177 154.987 291.898C155.236 291.619 155.42 291.289 155.537 290.908L158.463 291.414C158.258 292.206 157.913 292.888 157.429 293.46C156.945 294.032 156.307 294.472 155.515 294.78C154.738 295.073 153.784 295.22 152.655 295.22ZM149.619 287.762H155.603C155.559 287.469 155.493 287.205 155.405 286.97C155.273 286.589 155.075 286.273 154.811 286.024C154.547 285.76 154.232 285.562 153.865 285.43C153.513 285.283 153.11 285.21 152.655 285.21C152.244 285.21 151.87 285.269 151.533 285.386C151.196 285.489 150.902 285.65 150.653 285.87C150.404 286.075 150.191 286.332 150.015 286.64C149.839 286.933 149.714 287.278 149.641 287.674C149.626 287.703 149.619 287.733 149.619 287.762ZM158.829 292.668C159.152 292.653 159.431 292.602 159.665 292.514C159.915 292.411 160.12 292.25 160.281 292.03C160.487 291.751 160.641 291.355 160.743 290.842C160.846 290.314 160.912 289.632 160.941 288.796C160.985 287.945 161.015 286.911 161.029 285.694V282.944H170.643V295H167.453V285.518H164.021V286.134C164.007 287.557 163.948 288.767 163.845 289.764C163.757 290.747 163.611 291.561 163.405 292.206C163.2 292.837 162.943 293.357 162.635 293.768C162.225 294.311 161.711 294.677 161.095 294.868C160.494 295.044 159.775 295.139 158.939 295.154L158.829 292.668ZM178.782 295.22C178.019 295.22 177.308 295.125 176.648 294.934C176.002 294.743 175.43 294.472 174.932 294.12C174.433 293.753 174 293.313 173.634 292.8C173.282 292.287 173.01 291.707 172.82 291.062C172.644 290.417 172.556 289.72 172.556 288.972C172.556 288.239 172.644 287.557 172.82 286.926C173.01 286.281 173.274 285.709 173.612 285.21C173.964 284.697 174.389 284.257 174.888 283.89C175.386 283.509 175.958 283.223 176.604 283.032C177.264 282.827 177.982 282.724 178.76 282.724C179.625 282.724 180.417 282.863 181.136 283.142C181.869 283.406 182.5 283.795 183.028 284.308C183.556 284.807 183.966 285.415 184.26 286.134C184.553 286.838 184.7 287.63 184.7 288.51C184.7 288.73 184.685 288.943 184.656 289.148C184.641 289.353 184.612 289.559 184.568 289.764H175.68C175.694 289.94 175.724 290.109 175.768 290.27C175.841 290.666 175.966 291.018 176.142 291.326C176.318 291.619 176.53 291.876 176.78 292.096C177.029 292.301 177.322 292.463 177.66 292.58C178.012 292.683 178.393 292.734 178.804 292.734C179.332 292.734 179.786 292.668 180.168 292.536C180.549 292.389 180.864 292.177 181.114 291.898C181.363 291.619 181.546 291.289 181.664 290.908L184.59 291.414C184.384 292.206 184.04 292.888 183.556 293.46C183.072 294.032 182.434 294.472 181.642 294.78C180.864 295.073 179.911 295.22 178.782 295.22ZM175.746 287.762H181.73C181.686 287.469 181.62 287.205 181.532 286.97C181.4 286.589 181.202 286.273 180.938 286.024C180.674 285.76 180.358 285.562 179.992 285.43C179.64 285.283 179.236 285.21 178.782 285.21C178.371 285.21 177.997 285.269 177.66 285.386C177.322 285.489 177.029 285.65 176.78 285.87C176.53 286.075 176.318 286.332 176.142 286.64C175.966 286.933 175.841 287.278 175.768 287.674C175.753 287.703 175.746 287.733 175.746 287.762ZM192.04 299.4V295.154C191.219 295.11 190.463 294.978 189.774 294.758C188.894 294.494 188.146 294.098 187.53 293.57C186.914 293.027 186.445 292.375 186.122 291.612C185.814 290.835 185.66 289.962 185.66 288.994C185.66 288.011 185.814 287.139 186.122 286.376C186.445 285.599 186.914 284.946 187.53 284.418C188.146 283.875 188.894 283.465 189.774 283.186C190.463 282.966 191.219 282.834 192.04 282.79V278.5H195.098V282.79C195.934 282.834 196.697 282.966 197.386 283.186C198.266 283.465 199.014 283.875 199.63 284.418C200.246 284.946 200.708 285.599 201.016 286.376C201.339 287.139 201.5 288.011 201.5 288.994C201.5 289.962 201.339 290.835 201.016 291.612C200.708 292.375 200.246 293.027 199.63 293.57C199.014 294.098 198.266 294.494 197.386 294.758C196.697 294.978 195.934 295.11 195.098 295.154V299.4H192.04ZM195.098 285.188V292.756C195.479 292.712 195.824 292.646 196.132 292.558C196.645 292.382 197.071 292.14 197.408 291.832C197.745 291.509 197.995 291.113 198.156 290.644C198.332 290.16 198.42 289.61 198.42 288.994C198.42 288.363 198.332 287.813 198.156 287.344C197.995 286.86 197.745 286.457 197.408 286.134C197.071 285.811 196.645 285.569 196.132 285.408C195.824 285.305 195.479 285.232 195.098 285.188ZM192.04 292.756V285.21C191.673 285.239 191.336 285.305 191.028 285.408C190.515 285.569 190.089 285.811 189.752 286.134C189.415 286.457 189.158 286.86 188.982 287.344C188.821 287.813 188.74 288.363 188.74 288.994C188.74 289.61 188.821 290.16 188.982 290.644C189.158 291.113 189.415 291.509 189.752 291.832C190.089 292.14 190.515 292.382 191.028 292.558C191.336 292.646 191.673 292.712 192.04 292.756ZM208.709 295.22C207.946 295.22 207.242 295.132 206.597 294.956C205.966 294.765 205.401 294.494 204.903 294.142C204.404 293.775 203.986 293.343 203.649 292.844C203.311 292.331 203.047 291.751 202.857 291.106C202.681 290.446 202.593 289.735 202.593 288.972C202.593 288.209 202.681 287.505 202.857 286.86C203.047 286.215 203.311 285.643 203.649 285.144C203.986 284.631 204.404 284.198 204.903 283.846C205.401 283.479 205.966 283.201 206.597 283.01C207.242 282.819 207.946 282.724 208.709 282.724C209.486 282.724 210.19 282.819 210.821 283.01C211.466 283.201 212.038 283.479 212.537 283.846C213.035 284.198 213.453 284.631 213.791 285.144C214.143 285.643 214.407 286.215 214.583 286.86C214.759 287.505 214.847 288.209 214.847 288.972C214.847 289.735 214.759 290.446 214.583 291.106C214.407 291.751 214.143 292.331 213.791 292.844C213.453 293.343 213.035 293.775 212.537 294.142C212.038 294.494 211.466 294.765 210.821 294.956C210.19 295.132 209.486 295.22 208.709 295.22ZM208.709 292.646C209.105 292.646 209.457 292.595 209.765 292.492C210.073 292.389 210.337 292.243 210.557 292.052C210.777 291.847 210.967 291.597 211.129 291.304C211.29 290.996 211.407 290.651 211.481 290.27C211.554 289.874 211.591 289.441 211.591 288.972C211.591 288.503 211.554 288.077 211.481 287.696C211.407 287.3 211.29 286.955 211.129 286.662C210.967 286.354 210.777 286.105 210.557 285.914C210.337 285.709 210.073 285.555 209.765 285.452C209.457 285.349 209.105 285.298 208.709 285.298C208.327 285.298 207.983 285.349 207.675 285.452C207.367 285.555 207.095 285.709 206.861 285.914C206.641 286.105 206.45 286.354 206.289 286.662C206.142 286.955 206.032 287.3 205.959 287.696C205.885 288.077 205.849 288.503 205.849 288.972C205.849 289.441 205.885 289.874 205.959 290.27C206.032 290.651 206.142 290.996 206.289 291.304C206.45 291.597 206.641 291.847 206.861 292.052C207.095 292.243 207.367 292.389 207.675 292.492C207.983 292.595 208.327 292.646 208.709 292.646ZM216.747 295V282.944H219.937V287.388H224.931V282.944H228.099V295H224.931V289.94H219.937V295H216.747ZM230.69 295V291.854H233.924V295H230.69ZM230.69 286.09V282.944H233.924V286.09H230.69ZM7.062 339.22C6.12333 339.22 5.28 339.117 4.532 338.912C3.79867 338.707 3.17533 338.413 2.662 338.032C2.14867 337.636 1.76 337.174 1.496 336.646C1.232 336.103 1.1 335.502 1.1 334.842C1.1 334.197 1.23933 333.617 1.518 333.104C1.79667 332.591 2.2 332.158 2.728 331.806C3.124 331.527 3.586 331.293 4.114 331.102C3.74733 330.955 3.41733 330.765 3.124 330.53C2.65467 330.163 2.288 329.731 2.024 329.232C1.77467 328.733 1.65 328.176 1.65 327.56C1.65 326.929 1.77467 326.365 2.024 325.866C2.27333 325.353 2.63267 324.913 3.102 324.546C3.57133 324.165 4.136 323.879 4.796 323.688C5.47067 323.483 6.226 323.38 7.062 323.38C7.91267 323.38 8.668 323.483 9.328 323.688C9.988 323.879 10.5527 324.165 11.022 324.546C11.4913 324.913 11.8507 325.353 12.1 325.866C12.3493 326.365 12.474 326.929 12.474 327.56C12.474 328.059 12.386 328.521 12.21 328.946C12.0487 329.357 11.814 329.731 11.506 330.068C11.198 330.405 10.824 330.691 10.384 330.926C10.2667 330.985 10.1347 331.043 9.988 331.102C10.5307 331.293 11 331.527 11.396 331.806C11.924 332.158 12.3273 332.591 12.606 333.104C12.8847 333.617 13.024 334.197 13.024 334.842C13.024 335.502 12.892 336.103 12.628 336.646C12.364 337.174 11.9753 337.636 11.462 338.032C10.9487 338.413 10.3253 338.707 9.592 338.912C8.85867 339.117 8.01533 339.22 7.062 339.22ZM7.062 337.306C7.59 337.306 8.05933 337.247 8.47 337.13C8.88067 337.013 9.22533 336.844 9.504 336.624C9.79733 336.404 10.0173 336.14 10.164 335.832C10.3253 335.524 10.406 335.172 10.406 334.776C10.406 334.365 10.3253 333.999 10.164 333.676C10.0173 333.353 9.79733 333.082 9.504 332.862C9.22533 332.627 8.88067 332.451 8.47 332.334C8.05933 332.217 7.59 332.158 7.062 332.158C6.54867 332.158 6.07933 332.217 5.654 332.334C5.24333 332.451 4.89133 332.627 4.598 332.862C4.31933 333.082 4.09933 333.353 3.938 333.676C3.79133 333.999 3.718 334.358 3.718 334.754C3.718 335.165 3.79133 335.524 3.938 335.832C4.09933 336.14 4.31933 336.404 4.598 336.624C4.89133 336.844 5.24333 337.013 5.654 337.13C6.07933 337.247 6.54867 337.306 7.062 337.306ZM9.988 327.736C9.988 327.369 9.922 327.039 9.79 326.746C9.658 326.438 9.46 326.181 9.196 325.976C8.94667 325.756 8.63867 325.595 8.272 325.492C7.92 325.375 7.51667 325.316 7.062 325.316C6.622 325.316 6.21867 325.375 5.852 325.492C5.5 325.595 5.192 325.756 4.928 325.976C4.664 326.181 4.466 326.438 4.334 326.746C4.202 327.039 4.136 327.377 4.136 327.758C4.136 328.125 4.202 328.455 4.334 328.748C4.466 329.027 4.65667 329.269 4.906 329.474C5.17 329.679 5.478 329.841 5.83 329.958C6.19667 330.061 6.60733 330.112 7.062 330.112C7.51667 330.112 7.92 330.061 8.272 329.958C8.63867 329.841 8.94667 329.679 9.196 329.474C9.46 329.269 9.658 329.027 9.79 328.748C9.922 328.455 9.988 328.117 9.988 327.736ZM20.3187 339.22C19.3801 339.22 18.5367 339.117 17.7887 338.912C17.0554 338.707 16.4321 338.413 15.9187 338.032C15.4054 337.636 15.0167 337.174 14.7527 336.646C14.4887 336.103 14.3567 335.502 14.3567 334.842C14.3567 334.197 14.4961 333.617 14.7747 333.104C15.0534 332.591 15.4567 332.158 15.9847 331.806C16.3807 331.527 16.8427 331.293 17.3707 331.102C17.0041 330.955 16.6741 330.765 16.3807 330.53C15.9114 330.163 15.5447 329.731 15.2807 329.232C15.0314 328.733 14.9067 328.176 14.9067 327.56C14.9067 326.929 15.0314 326.365 15.2807 325.866C15.5301 325.353 15.8894 324.913 16.3587 324.546C16.8281 324.165 17.3927 323.879 18.0527 323.688C18.7274 323.483 19.4827 323.38 20.3187 323.38C21.1694 323.38 21.9247 323.483 22.5847 323.688C23.2447 323.879 23.8094 324.165 24.2787 324.546C24.7481 324.913 25.1074 325.353 25.3567 325.866C25.6061 326.365 25.7307 326.929 25.7307 327.56C25.7307 328.059 25.6427 328.521 25.4667 328.946C25.3054 329.357 25.0707 329.731 24.7627 330.068C24.4547 330.405 24.0807 330.691 23.6407 330.926C23.5234 330.985 23.3914 331.043 23.2447 331.102C23.7874 331.293 24.2567 331.527 24.6527 331.806C25.1807 332.158 25.5841 332.591 25.8627 333.104C26.1414 333.617 26.2807 334.197 26.2807 334.842C26.2807 335.502 26.1487 336.103 25.8847 336.646C25.6207 337.174 25.2321 337.636 24.7187 338.032C24.2054 338.413 23.5821 338.707 22.8487 338.912C22.1154 339.117 21.2721 339.22 20.3187 339.22ZM20.3187 337.306C20.8467 337.306 21.3161 337.247 21.7267 337.13C22.1374 337.013 22.4821 336.844 22.7607 336.624C23.0541 336.404 23.2741 336.14 23.4207 335.832C23.5821 335.524 23.6627 335.172 23.6627 334.776C23.6627 334.365 23.5821 333.999 23.4207 333.676C23.2741 333.353 23.0541 333.082 22.7607 332.862C22.4821 332.627 22.1374 332.451 21.7267 332.334C21.3161 332.217 20.8467 332.158 20.3187 332.158C19.8054 332.158 19.3361 332.217 18.9107 332.334C18.5001 332.451 18.1481 332.627 17.8547 332.862C17.5761 333.082 17.3561 333.353 17.1947 333.676C17.0481 333.999 16.9747 334.358 16.9747 334.754C16.9747 335.165 17.0481 335.524 17.1947 335.832C17.3561 336.14 17.5761 336.404 17.8547 336.624C18.1481 336.844 18.5001 337.013 18.9107 337.13C19.3361 337.247 19.8054 337.306 20.3187 337.306ZM23.2447 327.736C23.2447 327.369 23.1787 327.039 23.0467 326.746C22.9147 326.438 22.7167 326.181 22.4527 325.976C22.2034 325.756 21.8954 325.595 21.5287 325.492C21.1767 325.375 20.7734 325.316 20.3187 325.316C19.8787 325.316 19.4754 325.375 19.1087 325.492C18.7567 325.595 18.4487 325.756 18.1847 325.976C17.9207 326.181 17.7227 326.438 17.5907 326.746C17.4587 327.039 17.3927 327.377 17.3927 327.758C17.3927 328.125 17.4587 328.455 17.5907 328.748C17.7227 329.027 17.9134 329.269 18.1627 329.474C18.4267 329.679 18.7347 329.841 19.0867 329.958C19.4534 330.061 19.8641 330.112 20.3187 330.112C20.7734 330.112 21.1767 330.061 21.5287 329.958C21.8954 329.841 22.2034 329.679 22.4527 329.474C22.7167 329.269 22.9147 329.027 23.0467 328.748C23.1787 328.455 23.2447 328.117 23.2447 327.736ZM34.1914 339.22C33.3994 339.22 32.6661 339.103 31.9914 338.868C31.3168 338.633 30.7154 338.296 30.1874 337.856C29.6594 337.401 29.2121 336.859 28.8454 336.228C28.4788 335.583 28.2001 334.849 28.0094 334.028C27.8188 333.192 27.7234 332.283 27.7234 331.3C27.7234 330.317 27.8188 329.415 28.0094 328.594C28.2001 327.773 28.4788 327.039 28.8454 326.394C29.2121 325.749 29.6594 325.206 30.1874 324.766C30.7154 324.311 31.3168 323.967 31.9914 323.732C32.6661 323.497 33.3994 323.38 34.1914 323.38C35.0128 323.38 35.7608 323.497 36.4354 323.732C37.1101 323.967 37.7114 324.311 38.2394 324.766C38.7674 325.206 39.2148 325.749 39.5814 326.394C39.9481 327.039 40.2268 327.773 40.4174 328.594C40.6081 329.415 40.7034 330.317 40.7034 331.3C40.7034 332.283 40.6081 333.192 40.4174 334.028C40.2268 334.849 39.9481 335.583 39.5814 336.228C39.2148 336.859 38.7674 337.401 38.2394 337.856C37.7114 338.296 37.1101 338.633 36.4354 338.868C35.7608 339.103 35.0128 339.22 34.1914 339.22ZM34.1914 337.108C34.6754 337.108 35.1154 337.027 35.5114 336.866C35.9221 336.705 36.2814 336.463 36.5894 336.14C36.9121 335.803 37.1761 335.399 37.3814 334.93C37.5868 334.461 37.7408 333.925 37.8434 333.324C37.9608 332.708 38.0194 332.033 38.0194 331.3C38.0194 330.567 37.9608 329.899 37.8434 329.298C37.7408 328.682 37.5868 328.139 37.3814 327.67C37.1761 327.201 36.9121 326.805 36.5894 326.482C36.2814 326.159 35.9221 325.917 35.5114 325.756C35.1154 325.595 34.6754 325.514 34.1914 325.514C33.7221 325.514 33.2894 325.595 32.8934 325.756C32.4974 325.917 32.1381 326.159 31.8154 326.482C31.5074 326.805 31.2434 327.201 31.0234 327.67C30.8181 328.139 30.6568 328.682 30.5394 329.298C30.4368 329.899 30.3854 330.567 30.3854 331.3C30.3854 332.033 30.4368 332.708 30.5394 333.324C30.6568 333.925 30.8181 334.461 31.0234 334.93C31.2434 335.399 31.5074 335.803 31.8154 336.14C32.1381 336.463 32.4974 336.705 32.8934 336.866C33.2894 337.027 33.7221 337.108 34.1914 337.108ZM48.7157 339.22C47.9237 339.22 47.1904 339.103 46.5157 338.868C45.8411 338.633 45.2397 338.296 44.7117 337.856C44.1837 337.401 43.7364 336.859 43.3697 336.228C43.0031 335.583 42.7244 334.849 42.5337 334.028C42.3431 333.192 42.2477 332.283 42.2477 331.3C42.2477 330.317 42.3431 329.415 42.5337 328.594C42.7244 327.773 43.0031 327.039 43.3697 326.394C43.7364 325.749 44.1837 325.206 44.7117 324.766C45.2397 324.311 45.8411 323.967 46.5157 323.732C47.1904 323.497 47.9237 323.38 48.7157 323.38C49.5371 323.38 50.2851 323.497 50.9597 323.732C51.6344 323.967 52.2357 324.311 52.7637 324.766C53.2917 325.206 53.7391 325.749 54.1057 326.394C54.4724 327.039 54.7511 327.773 54.9417 328.594C55.1324 329.415 55.2277 330.317 55.2277 331.3C55.2277 332.283 55.1324 333.192 54.9417 334.028C54.7511 334.849 54.4724 335.583 54.1057 336.228C53.7391 336.859 53.2917 337.401 52.7637 337.856C52.2357 338.296 51.6344 338.633 50.9597 338.868C50.2851 339.103 49.5371 339.22 48.7157 339.22ZM48.7157 337.108C49.1997 337.108 49.6397 337.027 50.0357 336.866C50.4464 336.705 50.8057 336.463 51.1137 336.14C51.4364 335.803 51.7004 335.399 51.9057 334.93C52.1111 334.461 52.2651 333.925 52.3677 333.324C52.4851 332.708 52.5437 332.033 52.5437 331.3C52.5437 330.567 52.4851 329.899 52.3677 329.298C52.2651 328.682 52.1111 328.139 51.9057 327.67C51.7004 327.201 51.4364 326.805 51.1137 326.482C50.8057 326.159 50.4464 325.917 50.0357 325.756C49.6397 325.595 49.1997 325.514 48.7157 325.514C48.2464 325.514 47.8137 325.595 47.4177 325.756C47.0217 325.917 46.6624 326.159 46.3397 326.482C46.0317 326.805 45.7677 327.201 45.5477 327.67C45.3424 328.139 45.1811 328.682 45.0637 329.298C44.9611 329.899 44.9097 330.567 44.9097 331.3C44.9097 332.033 44.9611 332.708 45.0637 333.324C45.1811 333.925 45.3424 334.461 45.5477 334.93C45.7677 335.399 46.0317 335.803 46.3397 336.14C46.6624 336.463 47.0217 336.705 47.4177 336.866C47.8137 337.027 48.2464 337.108 48.7157 337.108ZM65.198 331.08C65.7994 331.271 66.3127 331.527 66.738 331.85C67.178 332.187 67.508 332.605 67.728 333.104C67.9627 333.588 68.08 334.16 68.08 334.82C68.08 335.509 67.9407 336.125 67.662 336.668C67.398 337.211 67.024 337.673 66.54 338.054C66.056 338.435 65.4694 338.729 64.78 338.934C64.1054 339.125 63.3427 339.22 62.492 339.22C61.656 339.22 60.8934 339.132 60.204 338.956C59.5294 338.765 58.9354 338.487 58.422 338.12C57.9087 337.753 57.4907 337.284 57.168 336.712C56.8454 336.14 56.6254 335.465 56.508 334.688L58.994 334.226C59.0527 334.71 59.17 335.135 59.346 335.502C59.522 335.854 59.7567 336.155 60.05 336.404C60.3434 336.653 60.688 336.844 61.084 336.976C61.4947 337.108 61.9567 337.174 62.47 337.174C62.9394 337.174 63.3574 337.115 63.724 336.998C64.1054 336.881 64.4207 336.719 64.67 336.514C64.934 336.294 65.132 336.03 65.264 335.722C65.396 335.414 65.462 335.055 65.462 334.644C65.462 334.145 65.352 333.72 65.132 333.368C64.912 333.016 64.5894 332.745 64.164 332.554C63.7387 332.363 63.2254 332.268 62.624 332.268H60.952V330.2H62.58C62.9907 330.2 63.3574 330.141 63.68 330.024C64.0174 329.907 64.296 329.745 64.516 329.54C64.7507 329.335 64.9267 329.085 65.044 328.792C65.1614 328.499 65.22 328.169 65.22 327.802C65.22 327.435 65.154 327.105 65.022 326.812C64.9047 326.519 64.7214 326.269 64.472 326.064C64.2374 325.859 63.944 325.705 63.592 325.602C63.2547 325.499 62.8514 325.448 62.382 325.448C61.942 325.448 61.5387 325.514 61.172 325.646C60.82 325.763 60.5047 325.947 60.226 326.196C59.962 326.431 59.742 326.724 59.566 327.076C59.39 327.428 59.2727 327.831 59.214 328.286L56.816 327.78C56.9334 327.076 57.146 326.453 57.454 325.91C57.7767 325.367 58.1874 324.905 58.686 324.524C59.1847 324.143 59.7567 323.857 60.402 323.666C61.0474 323.475 61.7587 323.38 62.536 323.38C63.3134 323.38 64.0247 323.475 64.67 323.666C65.3154 323.842 65.8654 324.106 66.32 324.458C66.7894 324.795 67.1487 325.213 67.398 325.712C67.6474 326.211 67.772 326.783 67.772 327.428C67.772 328.029 67.662 328.572 67.442 329.056C67.2367 329.525 66.9434 329.929 66.562 330.266C66.1807 330.603 65.726 330.875 65.198 331.08ZM69.7965 336.888L75.2525 332.158C75.6339 331.806 75.9712 331.483 76.2645 331.19C76.5579 330.897 76.7999 330.618 76.9905 330.354C77.1812 330.075 77.3352 329.811 77.4525 329.562C77.5845 329.298 77.6725 329.041 77.7165 328.792C77.7752 328.543 77.8045 328.279 77.8045 328C77.8045 327.487 77.6945 327.047 77.4745 326.68C77.2545 326.299 76.9392 326.013 76.5285 325.822C76.1179 325.617 75.6265 325.514 75.0545 325.514C74.4239 325.514 73.8812 325.631 73.4265 325.866C72.9719 326.101 72.6125 326.453 72.3485 326.922C72.0992 327.391 71.9599 327.971 71.9305 328.66L69.4445 328.264C69.5325 327.252 69.8112 326.387 70.2805 325.668C70.7645 324.935 71.4099 324.37 72.2165 323.974C73.0379 323.578 73.9985 323.38 75.0985 323.38C76.1985 323.38 77.1445 323.571 77.9365 323.952C78.7432 324.333 79.3592 324.869 79.7845 325.558C80.2245 326.233 80.4445 327.039 80.4445 327.978C80.4445 328.374 80.4005 328.763 80.3125 329.144C80.2392 329.511 80.1219 329.877 79.9605 330.244C79.7992 330.596 79.5719 330.955 79.2785 331.322C78.9999 331.689 78.6552 332.077 78.2445 332.488C77.8485 332.884 77.3792 333.317 76.8365 333.786L73.2065 336.888H80.7525V339H69.7965V336.888ZM90.4224 331.08C91.0237 331.271 91.5371 331.527 91.9624 331.85C92.4024 332.187 92.7324 332.605 92.9524 333.104C93.1871 333.588 93.3044 334.16 93.3044 334.82C93.3044 335.509 93.1651 336.125 92.8864 336.668C92.6224 337.211 92.2484 337.673 91.7644 338.054C91.2804 338.435 90.6937 338.729 90.0044 338.934C89.3297 339.125 88.5671 339.22 87.7164 339.22C86.8804 339.22 86.1177 339.132 85.4284 338.956C84.7537 338.765 84.1597 338.487 83.6464 338.12C83.1331 337.753 82.7151 337.284 82.3924 336.712C82.0697 336.14 81.8497 335.465 81.7324 334.688L84.2184 334.226C84.2771 334.71 84.3944 335.135 84.5704 335.502C84.7464 335.854 84.9811 336.155 85.2744 336.404C85.5677 336.653 85.9124 336.844 86.3084 336.976C86.7191 337.108 87.1811 337.174 87.6944 337.174C88.1637 337.174 88.5817 337.115 88.9484 336.998C89.3297 336.881 89.6451 336.719 89.8944 336.514C90.1584 336.294 90.3564 336.03 90.4884 335.722C90.6204 335.414 90.6864 335.055 90.6864 334.644C90.6864 334.145 90.5764 333.72 90.3564 333.368C90.1364 333.016 89.8137 332.745 89.3884 332.554C88.9631 332.363 88.4497 332.268 87.8484 332.268H86.1764V330.2H87.8044C88.2151 330.2 88.5817 330.141 88.9044 330.024C89.2417 329.907 89.5204 329.745 89.7404 329.54C89.9751 329.335 90.1511 329.085 90.2684 328.792C90.3857 328.499 90.4444 328.169 90.4444 327.802C90.4444 327.435 90.3784 327.105 90.2464 326.812C90.1291 326.519 89.9457 326.269 89.6964 326.064C89.4617 325.859 89.1684 325.705 88.8164 325.602C88.4791 325.499 88.0757 325.448 87.6064 325.448C87.1664 325.448 86.7631 325.514 86.3964 325.646C86.0444 325.763 85.7291 325.947 85.4504 326.196C85.1864 326.431 84.9664 326.724 84.7904 327.076C84.6144 327.428 84.4971 327.831 84.4384 328.286L82.0404 327.78C82.1577 327.076 82.3704 326.453 82.6784 325.91C83.0011 325.367 83.4117 324.905 83.9104 324.524C84.4091 324.143 84.9811 323.857 85.6264 323.666C86.2717 323.475 86.9831 323.38 87.7604 323.38C88.5377 323.38 89.2491 323.475 89.8944 323.666C90.5397 323.842 91.0897 324.106 91.5444 324.458C92.0137 324.795 92.3731 325.213 92.6224 325.712C92.8717 326.211 92.9964 326.783 92.9964 327.428C92.9964 328.029 92.8864 328.572 92.6664 329.056C92.4611 329.525 92.1677 329.929 91.7864 330.266C91.4051 330.603 90.9504 330.875 90.4224 331.08ZM101.313 339.22C100.521 339.22 99.7876 339.103 99.1129 338.868C98.4383 338.633 97.8369 338.296 97.3089 337.856C96.7809 337.401 96.3336 336.859 95.9669 336.228C95.6003 335.583 95.3216 334.849 95.1309 334.028C94.9403 333.192 94.8449 332.283 94.8449 331.3C94.8449 330.317 94.9403 329.415 95.1309 328.594C95.3216 327.773 95.6003 327.039 95.9669 326.394C96.3336 325.749 96.7809 325.206 97.3089 324.766C97.8369 324.311 98.4383 323.967 99.1129 323.732C99.7876 323.497 100.521 323.38 101.313 323.38C102.134 323.38 102.882 323.497 103.557 323.732C104.232 323.967 104.833 324.311 105.361 324.766C105.889 325.206 106.336 325.749 106.703 326.394C107.07 327.039 107.348 327.773 107.539 328.594C107.73 329.415 107.825 330.317 107.825 331.3C107.825 332.283 107.73 333.192 107.539 334.028C107.348 334.849 107.07 335.583 106.703 336.228C106.336 336.859 105.889 337.401 105.361 337.856C104.833 338.296 104.232 338.633 103.557 338.868C102.882 339.103 102.134 339.22 101.313 339.22ZM101.313 337.108C101.797 337.108 102.237 337.027 102.633 336.866C103.044 336.705 103.403 336.463 103.711 336.14C104.034 335.803 104.298 335.399 104.503 334.93C104.708 334.461 104.862 333.925 104.965 333.324C105.082 332.708 105.141 332.033 105.141 331.3C105.141 330.567 105.082 329.899 104.965 329.298C104.862 328.682 104.708 328.139 104.503 327.67C104.298 327.201 104.034 326.805 103.711 326.482C103.403 326.159 103.044 325.917 102.633 325.756C102.237 325.595 101.797 325.514 101.313 325.514C100.844 325.514 100.411 325.595 100.015 325.756C99.6189 325.917 99.2596 326.159 98.9369 326.482C98.6289 326.805 98.3649 327.201 98.1449 327.67C97.9396 328.139 97.7783 328.682 97.6609 329.298C97.5583 329.899 97.5069 330.567 97.5069 331.3C97.5069 332.033 97.5583 332.708 97.6609 333.324C97.7783 333.925 97.9396 334.461 98.1449 334.93C98.3649 335.399 98.6289 335.803 98.9369 336.14C99.2596 336.463 99.6189 336.705 100.015 336.866C100.411 337.027 100.844 337.108 101.313 337.108ZM109.04 339V336.888H113.352V325.866L109.282 326.834V324.656L113.594 323.6H115.948V336.888H119.688V339H109.04ZM126.924 339.22C126.132 339.22 125.399 339.103 124.724 338.868C124.049 338.633 123.448 338.296 122.92 337.856C122.392 337.401 121.945 336.859 121.578 336.228C121.211 335.583 120.933 334.849 120.742 334.028C120.551 333.192 120.456 332.283 120.456 331.3C120.456 330.317 120.551 329.415 120.742 328.594C120.933 327.773 121.211 327.039 121.578 326.394C121.945 325.749 122.392 325.206 122.92 324.766C123.448 324.311 124.049 323.967 124.724 323.732C125.399 323.497 126.132 323.38 126.924 323.38C127.745 323.38 128.493 323.497 129.168 323.732C129.843 323.967 130.444 324.311 130.972 324.766C131.5 325.206 131.947 325.749 132.314 326.394C132.681 327.039 132.959 327.773 133.15 328.594C133.341 329.415 133.436 330.317 133.436 331.3C133.436 332.283 133.341 333.192 133.15 334.028C132.959 334.849 132.681 335.583 132.314 336.228C131.947 336.859 131.5 337.401 130.972 337.856C130.444 338.296 129.843 338.633 129.168 338.868C128.493 339.103 127.745 339.22 126.924 339.22ZM126.924 337.108C127.408 337.108 127.848 337.027 128.244 336.866C128.655 336.705 129.014 336.463 129.322 336.14C129.645 335.803 129.909 335.399 130.114 334.93C130.319 334.461 130.473 333.925 130.576 333.324C130.693 332.708 130.752 332.033 130.752 331.3C130.752 330.567 130.693 329.899 130.576 329.298C130.473 328.682 130.319 328.139 130.114 327.67C129.909 327.201 129.645 326.805 129.322 326.482C129.014 326.159 128.655 325.917 128.244 325.756C127.848 325.595 127.408 325.514 126.924 325.514C126.455 325.514 126.022 325.595 125.626 325.756C125.23 325.917 124.871 326.159 124.548 326.482C124.24 326.805 123.976 327.201 123.756 327.67C123.551 328.139 123.389 328.682 123.272 329.298C123.169 329.899 123.118 330.567 123.118 331.3C123.118 332.033 123.169 332.708 123.272 333.324C123.389 333.925 123.551 334.461 123.756 334.93C123.976 335.399 124.24 335.803 124.548 336.14C124.871 336.463 125.23 336.705 125.626 336.866C126.022 337.027 126.455 337.108 126.924 337.108ZM135.156 336.888L140.612 332.158C140.994 331.806 141.331 331.483 141.624 331.19C141.918 330.897 142.16 330.618 142.35 330.354C142.541 330.075 142.695 329.811 142.812 329.562C142.944 329.298 143.032 329.041 143.076 328.792C143.135 328.543 143.164 328.279 143.164 328C143.164 327.487 143.054 327.047 142.834 326.68C142.614 326.299 142.299 326.013 141.888 325.822C141.478 325.617 140.986 325.514 140.414 325.514C139.784 325.514 139.241 325.631 138.786 325.866C138.332 326.101 137.972 326.453 137.708 326.922C137.459 327.391 137.32 327.971 137.29 328.66L134.804 328.264C134.892 327.252 135.171 326.387 135.64 325.668C136.124 324.935 136.77 324.37 137.576 323.974C138.398 323.578 139.358 323.38 140.458 323.38C141.558 323.38 142.504 323.571 143.296 323.952C144.103 324.333 144.719 324.869 145.144 325.558C145.584 326.233 145.804 327.039 145.804 327.978C145.804 328.374 145.76 328.763 145.672 329.144C145.599 329.511 145.482 329.877 145.32 330.244C145.159 330.596 144.932 330.955 144.638 331.322C144.36 331.689 144.015 332.077 143.604 332.488C143.208 332.884 142.739 333.317 142.196 333.786L138.566 336.888H146.112V339H135.156V336.888Z" fill="black"/>
</svg>
