<svg width="526" height="285" viewBox="0 0 526 285" fill="none" xmlns="http://www.w3.org/2000/svg">
<path d="M72.3516 0.5C99.4864 0.500085 112.919 14.2391 118.771 21.7598L119.314 22.4678L119.318 22.4727C135.706 44.758 138.89 76.215 139.422 96.4658L139.436 96.9795H104.448L104.429 96.499C103.9 83.181 101.255 72.6119 94.623 64.3291C88.025 56.0892 80.5875 54.9688 74.6533 54.9688C70.0987 54.9688 65.2866 55.63 60.6357 58.4297C56.1309 61.1416 51.7254 65.8908 47.8604 74.1104L47.4883 74.916C40.2747 90.8561 36.9102 117.502 36.9102 144.219C36.9102 178.916 42.5658 199.082 47.8389 210.458C52.0609 219.376 56.5184 224.248 61.0088 226.902C65.498 229.556 70.0835 230.031 74.6533 230.031C78.5091 230.031 82.6284 229.559 86.627 227.601C90.6192 225.645 94.533 222.189 97.9424 216.155C101.93 209.049 106.295 195.569 107.406 177.182H78.7559V132.643H140.839V276.861H116.836L116.822 276.375L115.851 241.107C111.322 256.627 105.317 267.492 99.2656 273.656C89.3752 283.742 76.9718 284.5 67.748 284.5C59.4867 284.5 50.4831 283.735 41.6709 278.656C32.8554 273.576 24.2954 264.216 16.8301 247.154V247.153C7.76327 226.826 0.5 192.761 0.5 145.364C0.500014 88.3955 11.135 55.4742 19.4941 38.21C27.5844 21.5256 36.899 12.0829 46.167 6.81934C55.4329 1.55699 64.6032 0.5 72.3516 0.5ZM292.851 8.52051V164.078C292.851 170.379 292.895 179.046 293.777 187.946C294.661 196.854 296.38 205.954 299.709 213.135C302.853 219.917 306.85 223.553 310.744 225.502C314.648 227.456 318.497 227.74 321.387 227.74C324.276 227.74 328.125 227.456 332.029 225.502C335.924 223.553 339.92 219.917 343.064 213.135C346.393 205.954 348.113 196.854 348.996 187.946C349.879 179.046 349.923 170.379 349.923 164.078V8.52051H383.5V171.335C383.5 192.712 382.798 226.044 370.885 252.127H370.884C364.295 266.532 356.211 274.457 347.592 278.767C338.986 283.069 329.904 283.736 321.387 283.736C312.869 283.736 303.786 283.069 295.181 278.767C286.831 274.592 278.983 267.024 272.511 253.459L271.889 252.127C259.975 226.044 259.273 192.712 259.273 171.335V8.52051H292.851ZM191.042 8.52051V221.63H258.853V276.861H157.465V8.52051H191.042ZM473.124 8.52051C485.536 8.52051 497.993 9.65996 506.821 22.4854L506.824 22.4893C509.713 26.7729 518.949 42.5292 518.949 76.6191C518.949 97.6775 515.044 111.504 511.463 118.845L511.464 118.846C508.238 125.611 504.153 129.686 500.747 132.118C497.827 134.204 495.395 135.085 494.517 135.4V136.172C502.591 137.899 512.216 145.243 517.841 157.375C524.441 171.613 525.5 189.66 525.5 203.034C525.5 227.139 521.422 245.174 516.241 255.579L516.24 255.58C506.361 275.34 487.835 276.861 474.363 276.861H401.096V8.52051H473.124ZM434.673 226.213H468.875C479.131 226.213 482.883 221.351 483.337 220.698L483.346 220.687L483.354 220.674C486.268 216.976 489.444 208.702 489.444 195.014C489.444 180.562 486.092 172.674 483.361 169.361L483.35 169.346C481.41 166.799 478.435 165.408 475.522 164.658C472.616 163.91 469.831 163.814 468.344 163.814H434.673V226.213ZM434.673 114.693H463.387C467.19 114.693 470.518 114.499 473.37 113.436C476.194 112.382 478.581 110.463 480.474 106.937L480.479 106.926C482.371 103.587 484.486 96.8051 484.486 85.7852C484.486 74.7866 482.026 68.3929 479.609 64.6699H479.608C476.05 59.5663 470.822 59.169 465.157 59.1689H434.673V114.693Z" fill="black" stroke="black"/>
</svg>
