<svg width="651" height="175" viewBox="0 0 651 175" fill="none" xmlns="http://www.w3.org/2000/svg">
<path d="M23.9403 98V169.369H0V3.82848H23.9403V69L67.1369 68.869V3.82848H91.0773V169.369H67.1369V98H23.9403Z" fill="black"/>
<path d="M149.174 33.1081C143.058 33.1081 135.642 34.7635 129.397 45.8784C121.85 59.3581 121.07 78.0405 121.07 87.5C121.07 96.9595 121.85 115.642 129.397 129.122C135.642 140.236 143.058 141.892 149.174 141.892C155.289 141.892 162.705 140.236 168.95 129.122C176.497 115.642 177.277 96.9595 177.277 87.5C177.277 78.0405 176.497 59.3581 168.95 45.8784C162.705 34.7635 155.289 33.1081 149.174 33.1081ZM203.299 87.5C203.299 106.892 201.218 131.014 188.987 150.878C182.091 161.993 169.991 175 149.174 175C128.356 175 116.256 161.993 109.36 150.878C97.1294 131.014 95.0476 106.892 95.0476 87.5C95.0476 68.1081 97.1294 43.9865 109.36 24.1216C116.256 13.0068 128.356 0 149.174 0C169.991 0 182.091 13.0068 188.987 24.1216C201.218 43.9865 203.299 68.1081 203.299 87.5Z" fill="black"/>
<path d="M257.028 33.1081C250.913 33.1081 243.496 34.7635 237.251 45.8784C229.705 59.3581 228.924 78.0405 228.924 87.5C228.924 96.9595 229.705 115.642 237.251 129.122C243.496 140.236 250.913 141.892 257.028 141.892C263.143 141.892 270.559 140.236 276.805 129.122C284.351 115.642 285.132 96.9595 285.132 87.5C285.132 78.0405 284.351 59.3581 276.805 45.8784C270.559 34.7635 263.143 33.1081 257.028 33.1081ZM311.154 87.5C311.154 106.892 309.072 131.014 296.842 150.878C289.946 161.993 277.846 175 257.028 175C236.21 175 224.11 161.993 217.214 150.878C204.984 131.014 202.902 106.892 202.902 87.5C202.902 68.1081 204.984 43.9865 217.214 24.1216C224.11 13.0068 236.21 0 257.028 0C277.846 0 289.946 13.0068 296.842 24.1216C309.072 43.9865 311.154 68.1081 311.154 87.5Z" fill="black"/>
<path d="M329.582 37.8378H297.835V4.72972H385.269V37.8378H353.522V170.27H329.582V37.8378Z" fill="black"/>
<path d="M403.227 108.311H431.071L417.019 46.3513L403.227 108.311ZM397.372 136.689L389.436 170.27H364.454L405.309 4.72972H428.859L469.714 170.27H444.732L436.796 136.689H397.372Z" fill="black"/>
<path d="M490.406 37.8378V78.277H515.778C519.811 78.277 525.016 77.804 528.398 71.6554C529.83 69.0541 531.391 64.3243 531.391 57.4662C531.391 48.9527 529.049 43.75 526.967 41.3851C524.105 38.0743 518.12 37.8378 515.518 37.8378H490.406ZM466.466 170.27V4.72972H520.332C529.309 4.72972 542.32 5.91216 549.867 19.6284C555.201 29.3243 556.112 42.0946 556.112 51.0811C556.112 62.1959 554.681 72.3649 550.127 80.4054C547.004 86.0811 542.58 90.1013 538.417 91.9932V92.9392C542.19 94.1216 546.354 97.4324 549.086 102.872C553.38 110.912 553.38 119.426 553.64 127.939L554.29 146.622C554.551 154.662 555.201 161.52 558.064 170.27H532.692C529.83 162.939 529.439 157.264 529.179 149.223L528.789 135.507C528.529 125.338 526.707 118.716 524.495 115.405C521.893 111.385 516.949 109.493 512.785 109.493H490.406V170.27H466.466Z" fill="black"/>
<path d="M651 4.72972V105.236C651 118.48 650.48 139.054 641.762 155.135C632.134 172.872 618.212 174.527 605.722 174.527C593.231 174.527 579.309 172.872 569.681 155.135C560.964 139.054 560.443 118.48 560.443 105.236V4.72972H584.384V100.743C584.384 108.547 584.514 122.263 589.458 131.25C594.142 139.763 601.428 140.473 605.722 140.473C610.015 140.473 617.301 139.763 621.985 131.25C626.93 122.263 627.06 108.547 627.06 100.743V4.72972H651Z" fill="black"/>
</svg>
