<svg width="334" height="54" viewBox="0 0 334 54" fill="none" xmlns="http://www.w3.org/2000/svg">
<path d="M0 0H198V54H0V0Z" fill="#FF0000"/>
<path d="M198 0H334V29H198V0Z" fill="#FF0000"/>
<path d="M20.096 23L19.688 19.304H12.632L10.232 23H6.416L17.624 6.2H21.368L23.576 23H20.096ZM19.352 16.4L18.632 10.112L14.528 16.4H19.352Z" fill="black"/>
<path d="M24.9329 23L29.4449 6.2H36.9569C37.7249 6.2 38.3969 6.288 38.9729 6.464C39.5489 6.64 40.0369 6.904 40.4369 7.256C40.8529 7.592 41.1649 8.008 41.3729 8.504C41.5969 8.984 41.7089 9.528 41.7089 10.136C41.7089 10.696 41.5969 11.232 41.3729 11.744C41.1649 12.24 40.8609 12.696 40.4609 13.112C40.0609 13.512 39.5729 13.848 38.9969 14.12C38.6609 14.296 38.2929 14.432 37.8929 14.528C38.2609 14.64 38.5809 14.792 38.8529 14.984C39.3489 15.304 39.7169 15.72 39.9569 16.232C40.1969 16.728 40.3169 17.288 40.3169 17.912C40.3169 18.856 40.0689 19.72 39.5729 20.504C39.0769 21.272 38.3489 21.88 37.3889 22.328C36.4449 22.776 35.2929 23 33.9329 23H24.9329ZM30.4529 15.944L29.3249 20.168H33.5249C34.1809 20.168 34.7329 20.08 35.1809 19.904C35.6289 19.712 35.9729 19.448 36.2129 19.112C36.4529 18.76 36.5729 18.336 36.5729 17.84C36.5729 17.424 36.4849 17.08 36.3089 16.808C36.1489 16.52 35.9089 16.304 35.5889 16.16C35.2689 16.016 34.8769 15.944 34.4129 15.944H30.4529ZM32.3009 9.032L31.1969 13.136H35.1569C35.5889 13.136 35.9809 13.088 36.3329 12.992C36.7009 12.88 37.0209 12.72 37.2929 12.512C37.5649 12.304 37.7729 12.048 37.9169 11.744C38.0609 11.44 38.1329 11.096 38.1329 10.712C38.1329 10.36 38.0609 10.064 37.9169 9.824C37.7729 9.568 37.5569 9.376 37.2689 9.248C36.9809 9.104 36.6209 9.032 36.1889 9.032H32.3009Z" fill="black"/>
<path d="M48.9526 23.24C48.1046 23.24 47.3286 23.144 46.6246 22.952C45.9206 22.76 45.2886 22.488 44.7286 22.136C44.1846 21.768 43.7206 21.328 43.3366 20.816C42.9526 20.288 42.6646 19.704 42.4726 19.064C42.2806 18.408 42.1846 17.704 42.1846 16.952C42.1846 15.784 42.3366 14.664 42.6406 13.592C42.9606 12.504 43.4166 11.504 44.0086 10.592C44.6006 9.664 45.3206 8.856 46.1686 8.168C47.0166 7.464 47.9846 6.92 49.0726 6.536C50.1606 6.152 51.3526 5.96 52.6486 5.96C53.4806 5.96 54.2406 6.064 54.9286 6.272C55.6326 6.464 56.2566 6.744 56.8006 7.112C57.3606 7.48 57.8326 7.928 58.2166 8.456C58.6006 8.968 58.8966 9.544 59.1046 10.184C59.3126 10.824 59.4166 11.512 59.4166 12.248C59.4166 13.4 59.2646 14.52 58.9606 15.608C58.6566 16.696 58.2086 17.704 57.6166 18.632C57.0406 19.544 56.3286 20.352 55.4806 21.056C54.6326 21.744 53.6566 22.28 52.5526 22.664C51.4646 23.048 50.2646 23.24 48.9526 23.24ZM49.4086 20.24C50.1446 20.24 50.8246 20.104 51.4486 19.832C52.0886 19.544 52.6646 19.152 53.1766 18.656C53.6886 18.16 54.1286 17.592 54.4966 16.952C54.8646 16.296 55.1446 15.608 55.3366 14.888C55.5286 14.152 55.6246 13.408 55.6246 12.656C55.6246 12.224 55.5766 11.824 55.4806 11.456C55.4006 11.072 55.2726 10.728 55.0966 10.424C54.9366 10.12 54.7126 9.864 54.4246 9.656C54.1526 9.432 53.8246 9.264 53.4406 9.152C53.0566 9.024 52.6086 8.96 52.0966 8.96C51.3606 8.96 50.6726 9.104 50.0326 9.392C49.4086 9.68 48.8486 10.072 48.3526 10.568C47.8566 11.064 47.4246 11.64 47.0566 12.296C46.7046 12.952 46.4326 13.648 46.2406 14.384C46.0486 15.12 45.9526 15.864 45.9526 16.616C45.9526 17.048 45.9926 17.456 46.0726 17.84C46.1526 18.208 46.2726 18.536 46.4326 18.824C46.6086 19.112 46.8326 19.368 47.1046 19.592C47.3766 19.8 47.7046 19.96 48.0886 20.072C48.4726 20.184 48.9126 20.24 49.4086 20.24Z" fill="black"/>
<path d="M59.3411 23L63.8531 6.2H70.9331C71.7651 6.2 72.5011 6.312 73.1411 6.536C73.7811 6.744 74.3251 7.056 74.7731 7.472C75.2371 7.872 75.5811 8.368 75.8051 8.96C76.0451 9.536 76.1651 10.192 76.1651 10.928C76.1651 12.064 75.8611 13.064 75.2531 13.928C74.6451 14.776 73.8211 15.448 72.7811 15.944C72.0931 16.264 71.3331 16.48 70.5011 16.592L73.5251 23H69.6131L66.7571 16.784H64.7171L63.0371 23H59.3411ZM66.7571 9.104L65.4851 13.88H69.1811C69.6611 13.88 70.1011 13.816 70.5011 13.688C70.9011 13.56 71.2451 13.384 71.5331 13.16C71.8211 12.92 72.0451 12.64 72.2051 12.32C72.3651 11.984 72.4451 11.616 72.4451 11.216C72.4451 10.88 72.3971 10.584 72.3011 10.328C72.2051 10.056 72.0531 9.832 71.8451 9.656C71.6531 9.48 71.4131 9.344 71.1251 9.248C70.8371 9.152 70.5011 9.104 70.1171 9.104H66.7571Z" fill="black"/>
<path d="M75.4904 23L80.0024 6.2H83.6984L79.1864 23H75.4904Z" fill="black"/>
<path d="M91.8809 16.928L92.6249 14.12H100.497L98.1209 23H95.6009L95.9849 20.648C95.6649 21 95.3129 21.32 94.9289 21.608C94.2249 22.136 93.4569 22.544 92.6249 22.832C91.8089 23.104 90.9369 23.24 90.0089 23.24C89.1929 23.24 88.4489 23.152 87.7769 22.976C87.1049 22.784 86.5049 22.512 85.9769 22.16C85.4649 21.808 85.0249 21.384 84.6569 20.888C84.3049 20.376 84.0329 19.8 83.8409 19.16C83.6649 18.504 83.5769 17.792 83.5769 17.024C83.5769 15.856 83.7369 14.728 84.0569 13.64C84.3769 12.552 84.8409 11.544 85.4489 10.616C86.0729 9.688 86.8089 8.872 87.6569 8.168C88.5209 7.464 89.4889 6.92 90.5609 6.536C91.6489 6.152 92.8169 5.96 94.0649 5.96C95.3289 5.96 96.4409 6.168 97.4009 6.584C98.3769 7 99.1289 7.616 99.6569 8.432C100.185 9.232 100.433 10.232 100.401 11.432L96.7049 12.152C96.7529 11.464 96.6649 10.888 96.4409 10.424C96.2329 9.944 95.8889 9.584 95.4089 9.344C94.9449 9.088 94.3289 8.96 93.5609 8.96C92.8249 8.96 92.1369 9.104 91.4969 9.392C90.8729 9.664 90.3049 10.048 89.7929 10.544C89.2969 11.024 88.8649 11.592 88.4969 12.248C88.1289 12.888 87.8489 13.584 87.6569 14.336C87.4649 15.072 87.3689 15.824 87.3689 16.592C87.3689 17.04 87.4089 17.448 87.4889 17.816C87.5849 18.184 87.7289 18.52 87.9209 18.824C88.1129 19.128 88.3449 19.384 88.6169 19.592C88.8889 19.8 89.2089 19.96 89.5769 20.072C89.9609 20.184 90.3929 20.24 90.8729 20.24C91.8009 20.24 92.6409 20.096 93.3929 19.808C94.1609 19.504 94.8169 19.064 95.3609 18.488C95.7769 18.04 96.1209 17.52 96.3929 16.928H91.8809Z" fill="black"/>
<path d="M100.875 23L105.387 6.2H109.083L105.387 20H113.307L112.491 23H100.875Z" fill="black"/>
<path d="M129.329 16.472C129.025 17.576 128.641 18.552 128.177 19.4C127.729 20.232 127.169 20.936 126.497 21.512C125.825 22.088 125.033 22.52 124.121 22.808C123.209 23.096 122.161 23.24 120.977 23.24C119.665 23.24 118.561 23.072 117.665 22.736C116.769 22.384 116.073 21.896 115.577 21.272C115.081 20.632 114.777 19.872 114.665 18.992C114.569 18.112 114.665 17.152 114.953 16.112L117.617 6.2H121.289L118.577 16.28C118.385 17.064 118.337 17.752 118.433 18.344C118.545 18.936 118.841 19.4 119.321 19.736C119.801 20.072 120.473 20.24 121.337 20.24C121.881 20.24 122.377 20.16 122.825 20C123.289 19.84 123.697 19.608 124.049 19.304C124.401 18.984 124.705 18.6 124.961 18.152C125.233 17.704 125.449 17.184 125.609 16.592L128.417 6.2H132.089L129.329 16.472Z" fill="black"/>
<path d="M130.76 23L135.272 6.2H142.784C143.552 6.2 144.224 6.288 144.8 6.464C145.376 6.64 145.864 6.904 146.264 7.256C146.68 7.592 146.992 8.008 147.2 8.504C147.424 8.984 147.536 9.528 147.536 10.136C147.536 10.696 147.424 11.232 147.2 11.744C146.992 12.24 146.688 12.696 146.288 13.112C145.888 13.512 145.4 13.848 144.824 14.12C144.488 14.296 144.12 14.432 143.72 14.528C144.088 14.64 144.408 14.792 144.68 14.984C145.176 15.304 145.544 15.72 145.784 16.232C146.024 16.728 146.144 17.288 146.144 17.912C146.144 18.856 145.896 19.72 145.4 20.504C144.904 21.272 144.176 21.88 143.216 22.328C142.272 22.776 141.12 23 139.76 23H130.76ZM136.28 15.944L135.152 20.168H139.352C140.008 20.168 140.56 20.08 141.008 19.904C141.456 19.712 141.8 19.448 142.04 19.112C142.28 18.76 142.4 18.336 142.4 17.84C142.4 17.424 142.312 17.08 142.136 16.808C141.976 16.52 141.736 16.304 141.416 16.16C141.096 16.016 140.704 15.944 140.24 15.944H136.28ZM138.128 9.032L137.024 13.136H140.984C141.416 13.136 141.808 13.088 142.16 12.992C142.528 12.88 142.848 12.72 143.12 12.512C143.392 12.304 143.6 12.048 143.744 11.744C143.888 11.44 143.96 11.096 143.96 10.712C143.96 10.36 143.888 10.064 143.744 9.824C143.6 9.568 143.384 9.376 143.096 9.248C142.808 9.104 142.448 9.032 142.016 9.032H138.128Z" fill="black"/>
<path d="M152.052 17.624L152.94 14.336H174.684L173.796 17.624H152.052Z" fill="black"/>
<path d="M179.045 23L183.557 6.2H187.253L185.477 12.824H193.133L194.933 6.2H198.605L194.093 23H190.421L192.341 15.848H184.661L182.741 23H179.045Z" fill="black"/>
<path d="M197.491 23L202.003 6.2H213.859L213.043 9.2H204.883L203.875 12.992H210.883L210.091 15.92H203.083L201.979 20H210.355L209.563 23H197.491Z" fill="black"/>
<path d="M216.173 23L220.685 6.2H235.685L231.173 23H227.477L231.197 9.2H223.565L219.869 23H216.173Z" fill="black"/>
<path d="M234.572 23L239.084 6.2H245.492C246.388 6.2 247.18 6.32 247.868 6.56C248.572 6.784 249.164 7.12 249.644 7.568C250.124 8.016 250.492 8.544 250.748 9.152C251.004 9.76 251.132 10.44 251.132 11.192C251.132 12.504 250.796 13.664 250.124 14.672C249.468 15.664 248.556 16.44 247.388 17C246.22 17.544 244.876 17.816 243.356 17.816H239.66L238.268 23H234.572ZM241.988 9.128L240.452 14.888H243.428C244.212 14.888 244.9 14.76 245.492 14.504C246.084 14.232 246.54 13.84 246.86 13.328C247.196 12.816 247.364 12.216 247.364 11.528C247.364 11.032 247.268 10.608 247.076 10.256C246.884 9.888 246.596 9.608 246.212 9.416C245.844 9.224 245.372 9.128 244.796 9.128H241.988Z" fill="black"/>
<path d="M258.053 23.24C257.205 23.24 256.429 23.144 255.725 22.952C255.021 22.76 254.389 22.488 253.829 22.136C253.285 21.768 252.821 21.328 252.437 20.816C252.053 20.288 251.765 19.704 251.573 19.064C251.381 18.408 251.285 17.704 251.285 16.952C251.285 15.784 251.437 14.664 251.741 13.592C252.061 12.504 252.517 11.504 253.109 10.592C253.701 9.664 254.421 8.856 255.269 8.168C256.117 7.464 257.085 6.92 258.173 6.536C259.261 6.152 260.453 5.96 261.749 5.96C262.581 5.96 263.341 6.064 264.029 6.272C264.733 6.464 265.357 6.744 265.901 7.112C266.461 7.48 266.933 7.928 267.317 8.456C267.701 8.968 267.997 9.544 268.205 10.184C268.413 10.824 268.517 11.512 268.517 12.248C268.517 13.4 268.365 14.52 268.061 15.608C267.757 16.696 267.309 17.704 266.717 18.632C266.141 19.544 265.429 20.352 264.581 21.056C263.733 21.744 262.757 22.28 261.653 22.664C260.565 23.048 259.365 23.24 258.053 23.24ZM258.509 20.24C259.245 20.24 259.925 20.104 260.549 19.832C261.189 19.544 261.765 19.152 262.277 18.656C262.789 18.16 263.229 17.592 263.597 16.952C263.965 16.296 264.245 15.608 264.437 14.888C264.629 14.152 264.725 13.408 264.725 12.656C264.725 12.224 264.677 11.824 264.581 11.456C264.501 11.072 264.373 10.728 264.197 10.424C264.037 10.12 263.813 9.864 263.525 9.656C263.253 9.432 262.925 9.264 262.541 9.152C262.157 9.024 261.709 8.96 261.197 8.96C260.461 8.96 259.773 9.104 259.133 9.392C258.509 9.68 257.949 10.072 257.453 10.568C256.957 11.064 256.525 11.64 256.157 12.296C255.805 12.952 255.533 13.648 255.341 14.384C255.149 15.12 255.053 15.864 255.053 16.616C255.053 17.048 255.093 17.456 255.173 17.84C255.253 18.208 255.373 18.536 255.533 18.824C255.709 19.112 255.933 19.368 256.205 19.592C256.477 19.8 256.805 19.96 257.189 20.072C257.573 20.184 258.013 20.24 258.509 20.24Z" fill="black"/>
<path d="M269.401 17.096C269.401 15.912 269.561 14.776 269.881 13.688C270.201 12.6 270.665 11.592 271.273 10.664C271.897 9.72 272.633 8.896 273.481 8.192C274.345 7.488 275.313 6.944 276.385 6.56C277.473 6.16 278.641 5.96 279.889 5.96C281.153 5.96 282.273 6.192 283.249 6.656C284.225 7.104 284.977 7.768 285.505 8.648C286.033 9.512 286.265 10.584 286.201 11.864L282.505 12.584C282.537 11.8 282.449 11.144 282.241 10.616C282.049 10.072 281.713 9.664 281.233 9.392C280.769 9.104 280.153 8.96 279.385 8.96C278.665 8.96 277.985 9.104 277.345 9.392C276.705 9.664 276.129 10.048 275.617 10.544C275.121 11.04 274.689 11.616 274.321 12.272C273.953 12.912 273.673 13.608 273.481 14.36C273.289 15.096 273.193 15.848 273.193 16.616C273.193 17.048 273.225 17.456 273.289 17.84C273.369 18.208 273.489 18.544 273.649 18.848C273.809 19.136 274.009 19.384 274.249 19.592C274.505 19.8 274.801 19.96 275.137 20.072C275.489 20.184 275.889 20.24 276.337 20.24C277.121 20.24 277.841 20.096 278.497 19.808C279.153 19.52 279.729 19.104 280.225 18.56C280.737 18 281.145 17.32 281.449 16.52L284.977 17.216C284.417 18.576 283.705 19.704 282.841 20.6C281.993 21.496 281.001 22.16 279.865 22.592C278.729 23.024 277.441 23.24 276.001 23.24C275.313 23.24 274.665 23.176 274.057 23.048C273.465 22.92 272.921 22.736 272.425 22.496C271.945 22.24 271.513 21.944 271.129 21.608C270.745 21.256 270.425 20.856 270.169 20.408C269.913 19.944 269.721 19.44 269.593 18.896C269.465 18.336 269.401 17.736 269.401 17.096Z" fill="black"/>
<path d="M289.201 23L292.897 9.2H287.593L288.409 6.2H302.785L301.969 9.2H296.593L292.897 23H289.201Z" fill="black"/>
<path d="M307.884 23.24C307.036 23.24 306.26 23.144 305.556 22.952C304.852 22.76 304.22 22.488 303.66 22.136C303.116 21.768 302.652 21.328 302.268 20.816C301.884 20.288 301.596 19.704 301.404 19.064C301.212 18.408 301.116 17.704 301.116 16.952C301.116 15.784 301.268 14.664 301.572 13.592C301.892 12.504 302.348 11.504 302.94 10.592C303.532 9.664 304.252 8.856 305.1 8.168C305.948 7.464 306.916 6.92 308.004 6.536C309.092 6.152 310.284 5.96 311.58 5.96C312.412 5.96 313.172 6.064 313.86 6.272C314.564 6.464 315.188 6.744 315.732 7.112C316.292 7.48 316.764 7.928 317.148 8.456C317.532 8.968 317.828 9.544 318.036 10.184C318.244 10.824 318.348 11.512 318.348 12.248C318.348 13.4 318.196 14.52 317.892 15.608C317.588 16.696 317.14 17.704 316.548 18.632C315.972 19.544 315.26 20.352 314.412 21.056C313.564 21.744 312.588 22.28 311.484 22.664C310.396 23.048 309.196 23.24 307.884 23.24ZM308.34 20.24C309.076 20.24 309.756 20.104 310.38 19.832C311.02 19.544 311.596 19.152 312.108 18.656C312.62 18.16 313.06 17.592 313.428 16.952C313.796 16.296 314.076 15.608 314.268 14.888C314.46 14.152 314.556 13.408 314.556 12.656C314.556 12.224 314.508 11.824 314.412 11.456C314.332 11.072 314.204 10.728 314.028 10.424C313.868 10.12 313.644 9.864 313.356 9.656C313.084 9.432 312.756 9.264 312.372 9.152C311.988 9.024 311.54 8.96 311.028 8.96C310.292 8.96 309.604 9.104 308.964 9.392C308.34 9.68 307.78 10.072 307.284 10.568C306.788 11.064 306.356 11.64 305.988 12.296C305.636 12.952 305.364 13.648 305.172 14.384C304.98 15.12 304.884 15.864 304.884 16.616C304.884 17.048 304.924 17.456 305.004 17.84C305.084 18.208 305.204 18.536 305.364 18.824C305.54 19.112 305.764 19.368 306.036 19.592C306.308 19.8 306.636 19.96 307.02 20.072C307.404 20.184 307.844 20.24 308.34 20.24Z" fill="black"/>
<path d="M11.912 47H8.432L12.944 30.2H16.424L13.352 41.6L24.272 30.2H27.776L23.264 47H19.76L22.832 35.648L11.912 47Z" fill="black"/>
<path d="M26.6673 47L31.1793 30.2H34.8753L33.0993 36.824H40.7553L42.5553 30.2H46.2273L41.7153 47H38.0433L39.9633 39.848H32.2833L30.3633 47H26.6673Z" fill="black"/>
<path d="M48.5936 47H45.1136L49.6256 30.2H53.1056L50.0336 41.6L60.9536 30.2H64.4576L59.9456 47H56.4416L59.5136 35.648L48.5936 47Z" fill="black"/>
<path d="M63.3489 47L67.8609 30.2H71.5569L67.8369 44H75.3969L79.1169 30.2H82.7889L79.0929 44H80.8449L79.0209 50.84H75.5409L76.5729 47H63.3489Z" fill="black"/>
<path d="M85.2283 47H81.7483L86.2603 30.2H89.7403L86.6683 41.6L97.5883 30.2H101.092L96.5803 47H93.0763L96.1483 35.648L85.2283 47Z" fill="black"/>
<path d="M111.648 47L111.24 43.304H104.184L101.784 47H97.9676L109.176 30.2H112.92L115.128 47H111.648ZM110.904 40.4L110.184 34.112L106.08 40.4H110.904Z" fill="black"/>
<path d="M118.517 47L122.213 33.2H116.909L117.725 30.2H132.101L131.285 33.2H125.909L122.213 47H118.517Z" fill="black"/>
<path d="M132.88 47H129.4L133.911 30.2H137.391L134.32 41.6L145.24 30.2H148.743L144.232 47H140.727L143.799 35.648L132.88 47Z" fill="black"/>
<path d="M147.635 47L152.147 30.2H159.659C160.427 30.2 161.099 30.288 161.675 30.464C162.251 30.64 162.739 30.904 163.139 31.256C163.555 31.592 163.867 32.008 164.075 32.504C164.299 32.984 164.411 33.528 164.411 34.136C164.411 34.696 164.299 35.232 164.075 35.744C163.867 36.24 163.563 36.696 163.163 37.112C162.763 37.512 162.275 37.848 161.699 38.12C161.363 38.296 160.995 38.432 160.595 38.528C160.963 38.64 161.283 38.792 161.555 38.984C162.051 39.304 162.419 39.72 162.659 40.232C162.899 40.728 163.019 41.288 163.019 41.912C163.019 42.856 162.771 43.72 162.275 44.504C161.779 45.272 161.051 45.88 160.091 46.328C159.147 46.776 157.995 47 156.635 47H147.635ZM153.155 39.944L152.027 44.168H156.227C156.883 44.168 157.435 44.08 157.883 43.904C158.331 43.712 158.675 43.448 158.915 43.112C159.155 42.76 159.275 42.336 159.275 41.84C159.275 41.424 159.187 41.08 159.011 40.808C158.851 40.52 158.611 40.304 158.291 40.16C157.971 40.016 157.579 39.944 157.115 39.944H153.155ZM155.003 33.032L153.899 37.136H157.859C158.291 37.136 158.683 37.088 159.035 36.992C159.403 36.88 159.723 36.72 159.995 36.512C160.267 36.304 160.475 36.048 160.619 35.744C160.763 35.44 160.835 35.096 160.835 34.712C160.835 34.36 160.763 34.064 160.619 33.824C160.475 33.568 160.259 33.376 159.971 33.248C159.683 33.104 159.323 33.032 158.891 33.032H155.003Z" fill="black"/>
<path d="M175.87 47L175.462 43.304H168.406L166.006 47H162.19L173.398 30.2H177.142L179.35 47H175.87ZM175.126 40.4L174.406 34.112L170.302 40.4H175.126Z" fill="black"/>
<path d="M180.395 47L181.331 43.568H184.859L183.923 47H180.395Z" fill="black"/>
</svg>
