<svg width="134" height="40" viewBox="0 0 134 40" fill="none" xmlns="http://www.w3.org/2000/svg">
<path d="M6.1637 24.778H10.59L8.35615 10.8244L6.1637 24.778ZM5.23294 31.169L3.97124 38.7316H0L6.49463 1.45094H10.2384L16.733 38.7316H12.7618L11.5001 31.169H5.23294Z" fill="black"/>
<path d="M21.0567 22.9672V31.808H25.1106C26.331 31.808 26.786 31.1157 26.8481 31.0092C27.1997 30.4766 27.572 29.3049 27.572 27.3876C27.572 25.3638 27.179 24.2454 26.8481 23.7661C26.3723 23.0205 25.4002 22.9672 25.0486 22.9672H21.0567ZM21.0567 8.37449V16.2567H24.4694C25.3588 16.2567 26.0621 16.1502 26.5171 15.1383C26.7446 14.6589 26.9928 13.7003 26.9928 12.1558C26.9928 10.6113 26.7033 9.70594 26.4137 9.17336C25.9793 8.42775 25.3382 8.37449 24.6763 8.37449H21.0567ZM17.2509 1.45094H25.607C27.0549 1.45094 28.4821 1.61071 29.4956 3.36823C29.8265 3.95407 30.902 6.13765 30.902 10.8776C30.902 13.8068 30.447 15.7241 30.0333 16.736C29.2887 18.6 28.1511 18.9728 28.0477 19.0261V19.2391C28.9785 19.4522 30.1161 20.4641 30.7779 22.1683C31.5432 24.1389 31.6673 26.642 31.6673 28.506C31.6673 31.8613 31.1916 34.3644 30.5918 35.8024C29.4542 38.5186 27.3238 38.7316 25.7518 38.7316H17.2509V1.45094Z" fill="black"/>
<path d="M40.8881 7.84191C39.916 7.84191 38.7371 8.21472 37.7442 10.7178C36.5446 13.7536 36.4205 17.9609 36.4205 20.0913C36.4205 22.2216 36.5446 26.429 37.7442 29.4647C38.7371 31.9678 39.916 32.3406 40.8881 32.3406C41.8603 32.3406 43.0392 31.9678 44.032 29.4647C45.2317 26.429 45.3558 22.2216 45.3558 20.0913C45.3558 17.9609 45.2317 13.7536 44.032 10.7178C43.0392 8.21472 41.8603 7.84191 40.8881 7.84191ZM49.4925 20.0913C49.4925 24.4584 49.1616 29.8908 47.2173 34.3644C46.1211 36.8676 44.1975 39.7968 40.8881 39.7968C37.5788 39.7968 35.6552 36.8676 34.559 34.3644C32.6147 29.8908 32.2838 24.4584 32.2838 20.0913C32.2838 15.7241 32.6147 10.2918 34.559 5.8181C35.6552 3.31497 37.5788 0.385777 40.8881 0.385777C44.1975 0.385777 46.1211 3.31497 47.2173 5.8181C49.1616 10.2918 49.4925 15.7241 49.4925 20.0913Z" fill="black"/>
<path d="M54.9518 8.90707V18.0142H58.9851C59.6263 18.0142 60.4537 17.9077 60.9914 16.523C61.2189 15.9371 61.4671 14.872 61.4671 13.3275C61.4671 11.4102 61.0948 10.2385 60.7639 9.70594C60.3089 8.96033 59.3574 8.90707 58.9438 8.90707H54.9518ZM51.1461 38.7316V1.45094H59.709C61.1362 1.45094 63.2046 1.71723 64.4042 4.8062C65.2522 6.98978 65.397 9.86571 65.397 11.8895C65.397 14.3927 65.1695 16.6828 64.4456 18.4935C63.9492 19.7717 63.2459 20.6771 62.5841 21.1032V21.3162C63.1839 21.5825 63.8458 22.3281 64.2801 23.553C64.9627 25.3638 64.9627 27.2811 65.004 29.1984L65.1075 33.4058C65.1488 35.2166 65.2522 36.761 65.7073 38.7316H61.674C61.2189 37.0806 61.1569 35.8024 61.1155 33.9916L61.0535 30.9027C61.0121 28.6126 60.7225 27.1213 60.3709 26.3757C59.9573 25.4703 59.1713 25.0443 58.5094 25.0443H54.9518V38.7316H51.1461Z" fill="black"/>
<path d="M67.3059 1.45094H71.1117V38.7316H67.3059V1.45094Z" fill="black"/>
<path d="M81.9269 18.7598H89.0627V38.7316H86.3739L86.2498 33.3525C85.712 35.7491 84.9674 37.4001 84.2228 38.3055C83.0852 39.6902 81.658 39.7968 80.5825 39.7968C78.6589 39.7968 76.4251 39.3707 74.6877 34.6307C73.6328 31.808 72.7848 27.0681 72.7848 20.4641C72.7848 12.5286 74.0258 7.94843 74.9979 5.55181C76.8801 0.918357 79.3208 0.33252 81.1202 0.33252C84.3676 0.33252 85.9188 2.35633 86.56 3.36823C88.4629 6.4572 88.8352 10.8244 88.8973 13.647H84.926C84.864 11.783 84.5537 10.2918 83.7677 9.1201C82.9818 7.94843 82.0924 7.78865 81.3891 7.78865C80.3136 7.78865 79.0933 8.16146 78.1625 10.6113C77.3145 12.8482 76.9215 16.5762 76.9215 20.3043C76.9215 25.1508 77.5834 27.9735 78.2039 29.5712C79.1967 32.0743 80.3136 32.3406 81.3891 32.3406C82.2992 32.3406 83.3541 32.0743 84.1607 30.3701C84.6364 29.3582 85.1535 27.4409 85.2776 24.8312H81.9269V18.7598Z" fill="black"/>
<path d="M102.849 31.169V38.7316H91.1219V1.45094H94.9276V31.169H102.849Z" fill="black"/>
<path d="M117.411 1.45094V24.0856C117.411 27.0681 117.328 31.7015 115.943 35.3231C114.412 39.3174 112.199 39.6902 110.213 39.6902C108.228 39.6902 106.014 39.3174 104.484 35.3231C103.098 31.7015 103.015 27.0681 103.015 24.0856V1.45094H106.821V23.0737C106.821 24.8312 106.842 27.9202 107.628 29.944C108.372 31.8613 109.531 32.0211 110.213 32.0211C110.896 32.0211 112.054 31.8613 112.799 29.944C113.585 27.9202 113.605 24.8312 113.605 23.0737V1.45094H117.411Z" fill="black"/>
<path d="M123.389 22.9672V31.808H127.443C128.664 31.808 129.119 31.1157 129.181 31.0092C129.532 30.4766 129.905 29.3049 129.905 27.3876C129.905 25.3638 129.512 24.2454 129.181 23.7661C128.705 23.0205 127.733 22.9672 127.381 22.9672H123.389ZM123.389 8.37449V16.2567H126.802C127.692 16.2567 128.395 16.1502 128.85 15.1383C129.077 14.6589 129.326 13.7003 129.326 12.1558C129.326 10.6113 129.036 9.70594 128.746 9.17336C128.312 8.42775 127.671 8.37449 127.009 8.37449H123.389ZM119.584 1.45094H127.94C129.388 1.45094 130.815 1.61071 131.828 3.36823C132.159 3.95407 133.235 6.13765 133.235 10.8776C133.235 13.8068 132.78 15.7241 132.366 16.736C131.621 18.6 130.484 18.9728 130.38 19.0261V19.2391C131.311 19.4522 132.449 20.4641 133.111 22.1683C133.876 24.1389 134 26.642 134 28.506C134 31.8613 133.524 34.3644 132.924 35.8024C131.787 38.5186 129.656 38.7316 128.085 38.7316H119.584V1.45094Z" fill="black"/>
</svg>
