<svg width="595" height="58" viewBox="0 0 595 58" fill="none" xmlns="http://www.w3.org/2000/svg">
<path d="M0 0H480V29H0V0Z" fill="#ECECEC"/>
<path d="M0 29H530V58H0V29Z" fill="#ECECEC"/>
<path d="M5.784 15.768L2.304 15.048L3.168 12.24L6.576 13.608L6.216 10.128H9.24L8.88 13.608L12.264 12.24L13.152 15.048L9.648 15.768L12.072 18.312L9.744 20.112L7.728 16.968L5.712 20.112L3.36 18.312L5.784 15.768ZM12.3705 27L16.8825 10.2H28.6185C29.4025 10.2 30.0985 10.288 30.7065 10.464C31.3145 10.64 31.8345 10.896 32.2665 11.232C32.7145 11.568 33.0505 11.976 33.2745 12.456C33.4985 12.936 33.6105 13.488 33.6105 14.112C33.6105 14.688 33.4985 15.232 33.2745 15.744C33.0665 16.24 32.7545 16.688 32.3385 17.088C31.9225 17.488 31.4025 17.824 30.7785 18.096C30.4425 18.24 30.0665 18.368 29.6505 18.48C30.0665 18.576 30.4265 18.72 30.7305 18.912C31.2745 19.232 31.6745 19.648 31.9305 20.16C32.1865 20.672 32.3145 21.24 32.3145 21.864C32.3145 22.856 32.0425 23.744 31.4985 24.528C30.9705 25.296 30.1945 25.904 29.1705 26.352C28.1625 26.784 26.9145 27 25.4265 27H12.3705ZM18.2265 19.968L17.1225 24.096H25.0665C25.7385 24.096 26.2985 24.008 26.7465 23.832C27.2105 23.64 27.5625 23.376 27.8025 23.04C28.0585 22.704 28.1865 22.304 28.1865 21.84C28.1865 21.424 28.0985 21.08 27.9225 20.808C27.7625 20.536 27.5145 20.328 27.1785 20.184C26.8585 20.04 26.4425 19.968 25.9305 19.968H18.2265ZM20.0745 13.104L18.9945 17.064H26.6025C27.0345 17.064 27.4345 17.016 27.8025 16.92C28.1705 16.824 28.4825 16.68 28.7385 16.488C29.0105 16.296 29.2185 16.056 29.3625 15.768C29.5225 15.48 29.6025 15.152 29.6025 14.784C29.6025 14.432 29.5225 14.128 29.3625 13.872C29.2185 13.616 28.9945 13.424 28.6905 13.296C28.3865 13.168 28.0025 13.104 27.5385 13.104H20.0745ZM55.5154 27L54.5794 23.4H44.6914L41.8354 27H37.3714L50.8834 10.2H55.0114L59.5474 27H55.5154ZM53.7874 20.376L52.1554 14.016L47.1154 20.376H53.7874ZM61.2171 27L65.7291 10.2H77.4651C78.2491 10.2 78.9451 10.288 79.5531 10.464C80.1611 10.64 80.6811 10.896 81.1131 11.232C81.5611 11.568 81.8971 11.976 82.1211 12.456C82.3451 12.936 82.4571 13.488 82.4571 14.112C82.4571 14.688 82.3451 15.232 82.1211 15.744C81.9131 16.24 81.6011 16.688 81.1851 17.088C80.7691 17.488 80.2491 17.824 79.6251 18.096C79.2891 18.24 78.9131 18.368 78.4971 18.48C78.9131 18.576 79.2731 18.72 79.5771 18.912C80.1211 19.232 80.5211 19.648 80.7771 20.16C81.0331 20.672 81.1611 21.24 81.1611 21.864C81.1611 22.856 80.8891 23.744 80.3451 24.528C79.8171 25.296 79.0411 25.904 78.0171 26.352C77.0091 26.784 75.7611 27 74.2731 27H61.2171ZM67.0731 19.968L65.9691 24.096H73.9131C74.5851 24.096 75.1451 24.008 75.5931 23.832C76.0571 23.64 76.4091 23.376 76.6491 23.04C76.9051 22.704 77.0331 22.304 77.0331 21.84C77.0331 21.424 76.9451 21.08 76.7691 20.808C76.6091 20.536 76.3611 20.328 76.0251 20.184C75.7051 20.04 75.2891 19.968 74.7771 19.968H67.0731ZM68.9211 13.104L67.8411 17.064H75.4491C75.8811 17.064 76.2811 17.016 76.6491 16.92C77.0171 16.824 77.3291 16.68 77.5851 16.488C77.8571 16.296 78.0651 16.056 78.2091 15.768C78.3691 15.48 78.4491 15.152 78.4491 14.784C78.4491 14.432 78.3691 14.128 78.2091 13.872C78.0651 13.616 77.8411 13.424 77.5371 13.296C77.2331 13.168 76.8491 13.104 76.3851 13.104H68.9211ZM92.409 27.264C91.241 27.264 90.177 27.168 89.217 26.976C88.273 26.768 87.441 26.472 86.721 26.088C86.001 25.704 85.393 25.24 84.897 24.696C84.417 24.152 84.049 23.536 83.793 22.848C83.553 22.144 83.433 21.384 83.433 20.568C83.433 19.416 83.617 18.312 83.985 17.256C84.369 16.2 84.921 15.232 85.641 14.352C86.361 13.456 87.241 12.68 88.281 12.024C89.337 11.352 90.537 10.84 91.881 10.488C93.225 10.12 94.697 9.936 96.297 9.936C97.465 9.936 98.521 10.04 99.465 10.248C100.409 10.456 101.241 10.752 101.961 11.136C102.697 11.52 103.305 11.992 103.785 12.552C104.281 13.096 104.657 13.712 104.913 14.4C105.169 15.088 105.297 15.84 105.297 16.656C105.297 17.792 105.113 18.888 104.745 19.944C104.377 20.984 103.833 21.952 103.113 22.848C102.393 23.728 101.513 24.504 100.473 25.176C99.433 25.832 98.233 26.344 96.873 26.712C95.529 27.08 94.041 27.264 92.409 27.264ZM92.889 24.072C93.913 24.072 94.849 23.944 95.697 23.688C96.561 23.432 97.329 23.08 98.001 22.632C98.673 22.184 99.241 21.664 99.705 21.072C100.169 20.464 100.521 19.824 100.761 19.152C101.001 18.464 101.121 17.752 101.121 17.016C101.121 16.552 101.057 16.12 100.929 15.72C100.817 15.32 100.625 14.96 100.353 14.64C100.097 14.32 99.761 14.048 99.345 13.824C98.929 13.6 98.425 13.432 97.833 13.32C97.241 13.192 96.553 13.128 95.769 13.128C94.745 13.128 93.809 13.264 92.961 13.536C92.113 13.792 91.353 14.152 90.681 14.616C90.025 15.064 89.465 15.592 89.001 16.2C88.537 16.792 88.185 17.44 87.945 18.144C87.705 18.832 87.585 19.536 87.585 20.256C87.585 20.72 87.641 21.152 87.753 21.552C87.881 21.952 88.073 22.304 88.329 22.608C88.585 22.912 88.913 23.176 89.313 23.4C89.729 23.608 90.233 23.776 90.825 23.904C91.417 24.016 92.105 24.072 92.889 24.072ZM105.703 27L110.215 10.2H121.015C121.911 10.2 122.703 10.312 123.391 10.536C124.095 10.744 124.687 11.056 125.167 11.472C125.647 11.888 126.007 12.4 126.247 13.008C126.503 13.6 126.631 14.28 126.631 15.048C126.631 16.248 126.295 17.288 125.623 18.168C124.967 19.048 124.063 19.728 122.911 20.208C122.031 20.576 121.047 20.808 119.959 20.904L123.991 27H119.431L115.543 21.072H111.343L109.759 27H105.703ZM113.431 13.272L112.159 18H119.095C119.623 18 120.103 17.944 120.535 17.832C120.967 17.704 121.327 17.528 121.615 17.304C121.919 17.064 122.151 16.784 122.311 16.464C122.471 16.144 122.551 15.784 122.551 15.384C122.551 15.032 122.495 14.728 122.383 14.472C122.287 14.216 122.135 14 121.927 13.824C121.719 13.632 121.455 13.496 121.135 13.416C120.831 13.32 120.471 13.272 120.055 13.272H113.431ZM126.564 27L131.076 10.2H135.132L130.62 27H126.564ZM145.857 20.904L146.625 18H157.065L154.665 27H151.713L152.145 24.216C151.585 24.76 150.977 25.232 150.321 25.632C149.425 26.16 148.449 26.568 147.393 26.856C146.337 27.128 145.201 27.264 143.985 27.264C142.833 27.264 141.801 27.168 140.889 26.976C139.993 26.768 139.209 26.48 138.537 26.112C137.865 25.744 137.305 25.288 136.857 24.744C136.409 24.184 136.073 23.56 135.849 22.872C135.625 22.184 135.513 21.416 135.513 20.568C135.513 19.4 135.705 18.288 136.089 17.232C136.473 16.176 137.033 15.208 137.769 14.328C138.521 13.432 139.417 12.656 140.457 12C141.497 11.344 142.673 10.84 143.985 10.488C145.313 10.12 146.753 9.936 148.305 9.936C150.081 9.936 151.609 10.144 152.889 10.56C154.185 10.976 155.177 11.6 155.865 12.432C156.569 13.248 156.929 14.264 156.945 15.48L152.817 16.296C152.833 15.608 152.657 15.032 152.289 14.568C151.921 14.088 151.369 13.728 150.633 13.488C149.913 13.248 148.985 13.128 147.849 13.128C146.809 13.128 145.865 13.256 145.017 13.512C144.169 13.768 143.409 14.12 142.737 14.568C142.081 15 141.521 15.512 141.057 16.104C140.609 16.696 140.265 17.336 140.025 18.024C139.801 18.712 139.689 19.416 139.689 20.136C139.689 20.616 139.753 21.064 139.881 21.48C140.025 21.88 140.233 22.24 140.505 22.56C140.793 22.88 141.145 23.152 141.561 23.376C141.993 23.6 142.497 23.776 143.073 23.904C143.649 24.016 144.297 24.072 145.017 24.072C146.297 24.072 147.441 23.936 148.449 23.664C149.457 23.376 150.321 22.944 151.041 22.368C151.553 21.952 151.977 21.464 152.313 20.904H145.857ZM158.019 27L162.531 10.2H166.587L162.915 23.808H173.859L172.995 27H158.019ZM194.567 19.488C194.199 20.816 193.703 21.968 193.079 22.944C192.471 23.92 191.719 24.728 190.823 25.368C189.943 26.008 188.903 26.488 187.703 26.808C186.519 27.112 185.175 27.264 183.671 27.264C182.039 27.264 180.655 27.064 179.519 26.664C178.383 26.264 177.495 25.704 176.855 24.984C176.215 24.264 175.815 23.416 175.655 22.44C175.495 21.448 175.567 20.368 175.871 19.2L178.295 10.2H182.327L179.903 19.272C179.631 20.28 179.607 21.144 179.831 21.864C180.071 22.584 180.551 23.136 181.271 23.52C181.991 23.888 182.935 24.072 184.103 24.072C184.935 24.072 185.695 23.976 186.383 23.784C187.071 23.592 187.687 23.304 188.231 22.92C188.775 22.536 189.239 22.064 189.623 21.504C190.023 20.928 190.327 20.248 190.535 19.464L193.031 10.2H197.063L194.567 19.488ZM196.224 27L200.736 10.2H212.472C213.256 10.2 213.952 10.288 214.56 10.464C215.168 10.64 215.688 10.896 216.12 11.232C216.568 11.568 216.904 11.976 217.128 12.456C217.352 12.936 217.464 13.488 217.464 14.112C217.464 14.688 217.352 15.232 217.128 15.744C216.92 16.24 216.608 16.688 216.192 17.088C215.776 17.488 215.256 17.824 214.632 18.096C214.296 18.24 213.92 18.368 213.504 18.48C213.92 18.576 214.28 18.72 214.584 18.912C215.128 19.232 215.528 19.648 215.784 20.16C216.04 20.672 216.168 21.24 216.168 21.864C216.168 22.856 215.896 23.744 215.352 24.528C214.824 25.296 214.048 25.904 213.024 26.352C212.016 26.784 210.768 27 209.28 27H196.224ZM202.08 19.968L200.976 24.096H208.92C209.592 24.096 210.152 24.008 210.6 23.832C211.064 23.64 211.416 23.376 211.656 23.04C211.912 22.704 212.04 22.304 212.04 21.84C212.04 21.424 211.952 21.08 211.776 20.808C211.616 20.536 211.368 20.328 211.032 20.184C210.712 20.04 210.296 19.968 209.784 19.968H202.08ZM203.928 13.104L202.848 17.064H210.456C210.888 17.064 211.288 17.016 211.656 16.92C212.024 16.824 212.336 16.68 212.592 16.488C212.864 16.296 213.072 16.056 213.216 15.768C213.376 15.48 213.456 15.152 213.456 14.784C213.456 14.432 213.376 14.128 213.216 13.872C213.072 13.616 212.848 13.424 212.544 13.296C212.24 13.168 211.856 13.104 211.392 13.104H203.928ZM218 21.624L218.912 18.288H228.512L227.624 21.624H218ZM236.481 27.264C235.521 27.264 234.649 27.184 233.865 27.024C233.097 26.864 232.417 26.64 231.825 26.352C231.249 26.048 230.761 25.688 230.361 25.272C229.977 24.856 229.689 24.384 229.497 23.856C229.305 23.312 229.209 22.736 229.209 22.128C229.209 21.232 229.353 20.368 229.641 19.536C229.945 18.688 230.385 17.904 230.961 17.184C231.537 16.464 232.241 15.84 233.073 15.312C233.921 14.768 234.889 14.344 235.977 14.04C237.065 13.736 238.265 13.584 239.577 13.584C240.777 13.584 241.825 13.72 242.721 13.992C243.633 14.248 244.393 14.608 245.001 15.072C245.609 15.536 246.065 16.08 246.369 16.704C246.689 17.312 246.849 17.968 246.849 18.672C246.849 19.168 246.793 19.624 246.681 20.04C246.585 20.456 246.433 20.88 246.225 21.312H233.001C232.985 21.44 232.977 21.568 232.977 21.696C232.977 22.032 233.025 22.344 233.121 22.632C233.233 22.92 233.393 23.184 233.601 23.424C233.809 23.648 234.073 23.832 234.393 23.976C234.729 24.12 235.121 24.232 235.569 24.312C236.033 24.392 236.553 24.432 237.129 24.432C238.009 24.432 238.785 24.368 239.457 24.24C240.129 24.096 240.697 23.88 241.161 23.592C241.625 23.304 241.969 22.96 242.193 22.56L245.745 23.208C245.265 24.104 244.609 24.856 243.777 25.464C242.961 26.056 241.945 26.504 240.729 26.808C239.529 27.112 238.113 27.264 236.481 27.264ZM233.625 19.032H243.225C243.241 18.984 243.249 18.944 243.249 18.912C243.249 18.464 243.169 18.088 243.009 17.784C242.849 17.464 242.601 17.2 242.265 16.992C241.945 16.768 241.529 16.608 241.017 16.512C240.505 16.4 239.897 16.344 239.193 16.344C238.377 16.344 237.641 16.432 236.985 16.608C236.329 16.768 235.753 17.008 235.257 17.328C234.761 17.648 234.345 18.024 234.009 18.456C233.865 18.632 233.737 18.824 233.625 19.032ZM253.879 20.616C253.879 19.448 254.071 18.336 254.455 17.28C254.855 16.208 255.423 15.232 256.159 14.352C256.895 13.456 257.783 12.68 258.823 12.024C259.863 11.352 261.039 10.84 262.351 10.488C263.679 10.12 265.111 9.936 266.647 9.936C268.439 9.936 269.975 10.16 271.255 10.608C272.535 11.056 273.519 11.712 274.207 12.576C274.911 13.44 275.263 14.504 275.263 15.768L271.135 16.584C271.135 15.832 270.959 15.2 270.607 14.688C270.255 14.176 269.711 13.792 268.975 13.536C268.255 13.264 267.335 13.128 266.215 13.128C265.191 13.128 264.247 13.256 263.383 13.512C262.535 13.768 261.775 14.12 261.103 14.568C260.447 15.016 259.887 15.536 259.423 16.128C258.975 16.72 258.631 17.36 258.391 18.048C258.167 18.72 258.055 19.424 258.055 20.16C258.055 20.64 258.119 21.08 258.247 21.48C258.375 21.88 258.567 22.24 258.823 22.56C259.079 22.88 259.407 23.152 259.807 23.376C260.207 23.6 260.687 23.776 261.247 23.904C261.823 24.016 262.479 24.072 263.215 24.072C264.319 24.072 265.303 23.944 266.167 23.688C267.047 23.416 267.799 23.016 268.423 22.488C269.063 21.96 269.575 21.296 269.959 20.496L273.895 21.312C273.271 22.656 272.455 23.768 271.447 24.648C270.455 25.528 269.239 26.184 267.799 26.616C266.375 27.048 264.687 27.264 262.735 27.264C261.759 27.264 260.863 27.192 260.047 27.048C259.247 26.92 258.519 26.728 257.863 26.472C257.207 26.2 256.631 25.88 256.135 25.512C255.639 25.128 255.223 24.688 254.887 24.192C254.551 23.696 254.295 23.152 254.119 22.56C253.959 21.952 253.879 21.304 253.879 20.616ZM284.771 27.264C283.603 27.264 282.539 27.168 281.579 26.976C280.635 26.768 279.803 26.472 279.083 26.088C278.363 25.704 277.755 25.24 277.259 24.696C276.779 24.152 276.411 23.536 276.155 22.848C275.915 22.144 275.795 21.384 275.795 20.568C275.795 19.416 275.979 18.312 276.347 17.256C276.731 16.2 277.283 15.232 278.003 14.352C278.723 13.456 279.603 12.68 280.643 12.024C281.699 11.352 282.899 10.84 284.243 10.488C285.587 10.12 287.059 9.936 288.659 9.936C289.827 9.936 290.883 10.04 291.827 10.248C292.771 10.456 293.603 10.752 294.323 11.136C295.059 11.52 295.667 11.992 296.147 12.552C296.643 13.096 297.019 13.712 297.275 14.4C297.531 15.088 297.659 15.84 297.659 16.656C297.659 17.792 297.475 18.888 297.107 19.944C296.739 20.984 296.195 21.952 295.475 22.848C294.755 23.728 293.875 24.504 292.835 25.176C291.795 25.832 290.595 26.344 289.235 26.712C287.891 27.08 286.403 27.264 284.771 27.264ZM285.251 24.072C286.275 24.072 287.211 23.944 288.059 23.688C288.923 23.432 289.691 23.08 290.363 22.632C291.035 22.184 291.603 21.664 292.067 21.072C292.531 20.464 292.883 19.824 293.123 19.152C293.363 18.464 293.483 17.752 293.483 17.016C293.483 16.552 293.419 16.12 293.291 15.72C293.179 15.32 292.987 14.96 292.715 14.64C292.459 14.32 292.123 14.048 291.707 13.824C291.291 13.6 290.787 13.432 290.195 13.32C289.603 13.192 288.915 13.128 288.131 13.128C287.107 13.128 286.171 13.264 285.323 13.536C284.475 13.792 283.715 14.152 283.043 14.616C282.387 15.064 281.827 15.592 281.363 16.2C280.899 16.792 280.547 17.44 280.307 18.144C280.067 18.832 279.947 19.536 279.947 20.256C279.947 20.72 280.003 21.152 280.115 21.552C280.243 21.952 280.435 22.304 280.691 22.608C280.947 22.912 281.275 23.176 281.675 23.4C282.091 23.608 282.595 23.776 283.187 23.904C283.779 24.016 284.467 24.072 285.251 24.072ZM310.964 27L312.716 20.472C311.964 20.712 311.228 20.912 310.508 21.072C309.788 21.232 309.076 21.36 308.372 21.456C307.668 21.536 306.948 21.576 306.212 21.576C304.548 21.576 303.212 21.312 302.204 20.784C301.196 20.256 300.524 19.52 300.188 18.576C299.852 17.632 299.852 16.536 300.188 15.288L301.556 10.2H305.588L304.412 14.616C304.172 15.48 304.148 16.176 304.34 16.704C304.548 17.216 304.964 17.592 305.588 17.832C306.212 18.056 307.044 18.168 308.084 18.168C308.644 18.168 309.204 18.144 309.764 18.096C310.324 18.032 310.908 17.936 311.516 17.808C312.14 17.664 312.82 17.496 313.556 17.304L315.476 10.2H319.508L314.996 27H310.964ZM319.066 27L323.578 10.2H339.874L339.034 13.272H326.722L325.762 16.92H336.682L335.866 19.944H324.946L323.866 23.928H336.37L335.554 27H319.066ZM343.852 27L347.5 13.392H340.132L341.02 10.2H359.788L358.924 13.392H351.532L347.884 27H343.852ZM370.953 27L370.017 23.4H360.129L357.273 27H352.809L366.321 10.2H370.449L374.985 27H370.953ZM369.225 20.376L367.593 14.016L362.553 20.376H369.225ZM394.271 27.264C393.087 27.264 392.023 27.168 391.079 26.976C390.151 26.784 389.327 26.504 388.607 26.136C387.887 25.752 387.287 25.296 386.807 24.768C386.327 24.224 385.967 23.608 385.727 22.92C385.487 22.232 385.367 21.48 385.367 20.664C385.367 20.424 385.375 20.184 385.391 19.944H382.583L380.711 27H376.655L381.167 10.2H385.223L383.423 16.824H386.135C386.503 15.944 386.991 15.128 387.599 14.376C388.335 13.48 389.231 12.704 390.287 12.048C391.343 11.376 392.543 10.856 393.887 10.488C395.231 10.12 396.711 9.936 398.327 9.936C399.479 9.936 400.527 10.04 401.471 10.248C402.415 10.44 403.247 10.728 403.967 11.112C404.687 11.496 405.287 11.96 405.767 12.504C406.247 13.032 406.607 13.64 406.847 14.328C407.103 15.016 407.231 15.768 407.231 16.584C407.231 17.72 407.039 18.816 406.655 19.872C406.287 20.928 405.743 21.904 405.023 22.8C404.303 23.696 403.415 24.48 402.359 25.152C401.303 25.808 400.095 26.328 398.735 26.712C397.391 27.08 395.903 27.264 394.271 27.264ZM394.847 24.072C395.855 24.072 396.783 23.944 397.631 23.688C398.495 23.432 399.263 23.08 399.935 22.632C400.607 22.184 401.175 21.664 401.639 21.072C402.103 20.464 402.455 19.824 402.695 19.152C402.935 18.464 403.055 17.752 403.055 17.016C403.055 16.552 402.991 16.12 402.863 15.72C402.751 15.32 402.559 14.96 402.287 14.64C402.031 14.32 401.695 14.048 401.279 13.824C400.863 13.6 400.359 13.432 399.767 13.32C399.175 13.192 398.487 13.128 397.703 13.128C396.679 13.128 395.743 13.264 394.895 13.536C394.047 13.792 393.287 14.152 392.615 14.616C391.959 15.064 391.399 15.592 390.935 16.2C390.471 16.792 390.119 17.44 389.879 18.144C389.655 18.832 389.543 19.536 389.543 20.256C389.543 20.72 389.599 21.152 389.711 21.552C389.823 21.952 390.007 22.304 390.263 22.608C390.519 22.912 390.847 23.176 391.247 23.4C391.663 23.608 392.167 23.776 392.759 23.904C393.351 24.016 394.047 24.072 394.847 24.072ZM412.597 27L416.245 13.392H408.877L409.765 10.2H428.533L427.669 13.392H420.277L416.629 27H412.597ZM426.996 20.616C426.996 19.448 427.188 18.336 427.572 17.28C427.972 16.208 428.54 15.232 429.276 14.352C430.012 13.456 430.9 12.68 431.94 12.024C432.98 11.352 434.156 10.84 435.468 10.488C436.796 10.12 438.228 9.936 439.764 9.936C441.556 9.936 443.092 10.16 444.372 10.608C445.652 11.056 446.636 11.712 447.324 12.576C448.028 13.44 448.38 14.504 448.38 15.768L444.252 16.584C444.252 15.832 444.076 15.2 443.724 14.688C443.372 14.176 442.828 13.792 442.092 13.536C441.372 13.264 440.452 13.128 439.332 13.128C438.308 13.128 437.364 13.256 436.5 13.512C435.652 13.768 434.892 14.12 434.22 14.568C433.564 15.016 433.004 15.536 432.54 16.128C432.092 16.72 431.748 17.36 431.508 18.048C431.284 18.72 431.172 19.424 431.172 20.16C431.172 20.64 431.236 21.08 431.364 21.48C431.492 21.88 431.684 22.24 431.94 22.56C432.196 22.88 432.524 23.152 432.924 23.376C433.324 23.6 433.804 23.776 434.364 23.904C434.94 24.016 435.596 24.072 436.332 24.072C437.436 24.072 438.42 23.944 439.284 23.688C440.164 23.416 440.916 23.016 441.54 22.488C442.18 21.96 442.692 21.296 443.076 20.496L447.012 21.312C446.388 22.656 445.572 23.768 444.564 24.648C443.572 25.528 442.356 26.184 440.916 26.616C439.492 27.048 437.804 27.264 435.852 27.264C434.876 27.264 433.98 27.192 433.164 27.048C432.364 26.92 431.636 26.728 430.98 26.472C430.324 26.2 429.748 25.88 429.252 25.512C428.756 25.128 428.34 24.688 428.004 24.192C427.668 23.696 427.412 23.152 427.236 22.56C427.076 21.952 426.996 21.304 426.996 20.616ZM465.064 27H461.008L462.544 21.288H458.824L451.96 27H446.8L454.024 21.024C453.736 20.976 453.456 20.904 453.184 20.808C452.496 20.6 451.912 20.296 451.432 19.896C450.968 19.496 450.608 19.008 450.352 18.432C450.112 17.856 449.992 17.192 449.992 16.44C449.992 15.528 450.168 14.696 450.52 13.944C450.888 13.176 451.408 12.512 452.08 11.952C452.768 11.392 453.576 10.96 454.504 10.656C455.448 10.352 456.496 10.2 457.648 10.2H469.576L465.064 27ZM463.36 18.288L464.728 13.2H457.864C457.112 13.2 456.456 13.32 455.896 13.56C455.352 13.8 454.928 14.136 454.624 14.568C454.32 15 454.168 15.512 454.168 16.104C454.168 16.584 454.264 16.992 454.456 17.328C454.664 17.648 454.968 17.888 455.368 18.048C455.768 18.208 456.248 18.288 456.808 18.288H463.36ZM0.768 51L5.28 34.2H24.408L19.896 51H15.84L19.512 37.392H8.472L4.824 51H0.768ZM23.9721 51L28.4841 34.2H38.6841C39.6601 34.2 40.5241 34.32 41.2761 34.56C42.0441 34.8 42.6841 35.152 43.1961 35.616C43.7081 36.064 44.1001 36.608 44.3721 37.248C44.6441 37.872 44.7801 38.584 44.7801 39.384C44.7801 40.744 44.4281 41.936 43.7241 42.96C43.0201 43.968 42.0281 44.752 40.7481 45.312C39.4841 45.856 38.0041 46.128 36.3081 46.128H29.3241L28.0281 51H23.9721ZM31.6761 37.344L30.1641 42.984H36.5481C37.3801 42.984 38.1001 42.856 38.7081 42.6C39.3161 42.344 39.7801 41.976 40.1001 41.496C40.4361 41 40.6041 40.416 40.6041 39.744C40.6041 39.232 40.5001 38.8 40.2921 38.448C40.1001 38.096 39.7961 37.824 39.3801 37.632C38.9641 37.44 38.4441 37.344 37.8201 37.344H31.6761ZM54.2734 51.264C53.1054 51.264 52.0414 51.168 51.0814 50.976C50.1374 50.768 49.3054 50.472 48.5854 50.088C47.8654 49.704 47.2574 49.24 46.7614 48.696C46.2814 48.152 45.9134 47.536 45.6574 46.848C45.4174 46.144 45.2974 45.384 45.2974 44.568C45.2974 43.416 45.4814 42.312 45.8494 41.256C46.2334 40.2 46.7854 39.232 47.5054 38.352C48.2254 37.456 49.1054 36.68 50.1454 36.024C51.2014 35.352 52.4014 34.84 53.7454 34.488C55.0894 34.12 56.5614 33.936 58.1614 33.936C59.3294 33.936 60.3854 34.04 61.3294 34.248C62.2734 34.456 63.1054 34.752 63.8254 35.136C64.5614 35.52 65.1694 35.992 65.6494 36.552C66.1454 37.096 66.5214 37.712 66.7774 38.4C67.0334 39.088 67.1614 39.84 67.1614 40.656C67.1614 41.792 66.9774 42.888 66.6094 43.944C66.2414 44.984 65.6974 45.952 64.9774 46.848C64.2574 47.728 63.3774 48.504 62.3374 49.176C61.2974 49.832 60.0974 50.344 58.7374 50.712C57.3934 51.08 55.9054 51.264 54.2734 51.264ZM54.7534 48.072C55.7774 48.072 56.7134 47.944 57.5614 47.688C58.4254 47.432 59.1934 47.08 59.8654 46.632C60.5374 46.184 61.1054 45.664 61.5694 45.072C62.0334 44.464 62.3854 43.824 62.6254 43.152C62.8654 42.464 62.9854 41.752 62.9854 41.016C62.9854 40.552 62.9214 40.12 62.7934 39.72C62.6814 39.32 62.4894 38.96 62.2174 38.64C61.9614 38.32 61.6254 38.048 61.2094 37.824C60.7934 37.6 60.2894 37.432 59.6974 37.32C59.1054 37.192 58.4174 37.128 57.6334 37.128C56.6094 37.128 55.6734 37.264 54.8254 37.536C53.9774 37.792 53.2174 38.152 52.5454 38.616C51.8894 39.064 51.3294 39.592 50.8654 40.2C50.4014 40.792 50.0494 41.44 49.8094 42.144C49.5694 42.832 49.4494 43.536 49.4494 44.256C49.4494 44.72 49.5054 45.152 49.6174 45.552C49.7454 45.952 49.9374 46.304 50.1934 46.608C50.4494 46.912 50.7774 47.176 51.1774 47.4C51.5934 47.608 52.0974 47.776 52.6894 47.904C53.2814 48.016 53.9694 48.072 54.7534 48.072ZM67.5677 51L72.0797 34.2H87.6317L86.7677 37.392H75.2717L71.6237 51H67.5677ZM85.4046 51L89.9166 34.2H100.117C101.093 34.2 101.957 34.32 102.709 34.56C103.477 34.8 104.117 35.152 104.629 35.616C105.141 36.064 105.533 36.608 105.805 37.248C106.077 37.872 106.213 38.584 106.213 39.384C106.213 40.744 105.861 41.936 105.157 42.96C104.453 43.968 103.461 44.752 102.181 45.312C100.917 45.856 99.4366 46.128 97.7406 46.128H90.7566L89.4606 51H85.4046ZM93.1086 37.344L91.5966 42.984H97.9806C98.8126 42.984 99.5326 42.856 100.141 42.6C100.749 42.344 101.213 41.976 101.533 41.496C101.869 41 102.037 40.416 102.037 39.744C102.037 39.232 101.933 38.8 101.725 38.448C101.533 38.096 101.229 37.824 100.813 37.632C100.397 37.44 99.8766 37.344 99.2526 37.344H93.1086ZM105.89 51L110.402 34.2H126.698L125.858 37.272H113.546L112.586 40.92H123.506L122.69 43.944H111.77L110.69 47.928H123.194L122.378 51H105.89ZM125.972 44.616C125.972 43.448 126.164 42.336 126.548 41.28C126.948 40.208 127.516 39.232 128.252 38.352C128.988 37.456 129.876 36.68 130.916 36.024C131.956 35.352 133.132 34.84 134.444 34.488C135.772 34.12 137.204 33.936 138.74 33.936C140.532 33.936 142.068 34.16 143.348 34.608C144.628 35.056 145.612 35.712 146.3 36.576C147.004 37.44 147.356 38.504 147.356 39.768L143.228 40.584C143.228 39.832 143.052 39.2 142.7 38.688C142.348 38.176 141.804 37.792 141.068 37.536C140.348 37.264 139.428 37.128 138.308 37.128C137.284 37.128 136.34 37.256 135.476 37.512C134.628 37.768 133.868 38.12 133.196 38.568C132.54 39.016 131.98 39.536 131.516 40.128C131.068 40.72 130.724 41.36 130.484 42.048C130.26 42.72 130.148 43.424 130.148 44.16C130.148 44.64 130.212 45.08 130.34 45.48C130.468 45.88 130.66 46.24 130.916 46.56C131.172 46.88 131.5 47.152 131.9 47.376C132.3 47.6 132.78 47.776 133.34 47.904C133.916 48.016 134.572 48.072 135.308 48.072C136.412 48.072 137.396 47.944 138.26 47.688C139.14 47.416 139.892 47.016 140.516 46.488C141.156 45.96 141.668 45.296 142.052 44.496L145.988 45.312C145.364 46.656 144.548 47.768 143.54 48.648C142.548 49.528 141.332 50.184 139.892 50.616C138.468 51.048 136.78 51.264 134.828 51.264C133.852 51.264 132.956 51.192 132.14 51.048C131.34 50.92 130.612 50.728 129.956 50.472C129.3 50.2 128.724 49.88 128.228 49.512C127.732 49.128 127.316 48.688 126.98 48.192C126.644 47.696 126.388 47.152 126.212 46.56C126.052 45.952 125.972 45.304 125.972 44.616ZM147.552 47.4H151.584L150.672 50.808C150.368 51.96 150 52.848 149.568 53.472C149.136 54.096 148.576 54.528 147.888 54.768C147.216 55.008 146.336 55.12 145.248 55.104L145.632 52.992C146.208 52.992 146.664 52.936 147 52.824C147.336 52.712 147.6 52.504 147.792 52.2C147.984 51.912 148.152 51.512 148.296 51H146.592L147.552 47.4ZM169.733 51.264C168.565 51.264 167.501 51.168 166.541 50.976C165.597 50.768 164.765 50.472 164.045 50.088C163.325 49.704 162.717 49.24 162.221 48.696C161.741 48.152 161.373 47.536 161.117 46.848C160.877 46.144 160.757 45.384 160.757 44.568C160.757 43.416 160.941 42.312 161.309 41.256C161.693 40.2 162.245 39.232 162.965 38.352C163.685 37.456 164.565 36.68 165.605 36.024C166.661 35.352 167.861 34.84 169.205 34.488C170.549 34.12 172.021 33.936 173.621 33.936C174.789 33.936 175.845 34.04 176.789 34.248C177.733 34.456 178.565 34.752 179.285 35.136C180.021 35.52 180.629 35.992 181.109 36.552C181.605 37.096 181.981 37.712 182.237 38.4C182.493 39.088 182.621 39.84 182.621 40.656C182.621 41.792 182.437 42.888 182.069 43.944C181.701 44.984 181.157 45.952 180.437 46.848C179.717 47.728 178.837 48.504 177.797 49.176C176.757 49.832 175.557 50.344 174.197 50.712C172.853 51.08 171.365 51.264 169.733 51.264ZM170.213 48.072C171.237 48.072 172.173 47.944 173.021 47.688C173.885 47.432 174.653 47.08 175.325 46.632C175.997 46.184 176.565 45.664 177.029 45.072C177.493 44.464 177.845 43.824 178.085 43.152C178.325 42.464 178.445 41.752 178.445 41.016C178.445 40.552 178.381 40.12 178.253 39.72C178.141 39.32 177.949 38.96 177.677 38.64C177.421 38.32 177.085 38.048 176.669 37.824C176.253 37.6 175.749 37.432 175.157 37.32C174.565 37.192 173.877 37.128 173.093 37.128C172.069 37.128 171.133 37.264 170.285 37.536C169.437 37.792 168.677 38.152 168.005 38.616C167.349 39.064 166.789 39.592 166.325 40.2C165.861 40.792 165.509 41.44 165.269 42.144C165.029 42.832 164.909 43.536 164.909 44.256C164.909 44.72 164.965 45.152 165.077 45.552C165.205 45.952 165.397 46.304 165.653 46.608C165.909 46.912 166.237 47.176 166.637 47.4C167.053 47.608 167.557 47.776 168.149 47.904C168.741 48.016 169.429 48.072 170.213 48.072ZM183.027 51L187.539 34.2H204.291L203.427 37.344H190.611L189.723 40.608H197.211C198.363 40.608 199.339 40.792 200.139 41.16C200.939 41.512 201.547 42.024 201.963 42.696C202.395 43.368 202.611 44.176 202.611 45.12C202.611 46.048 202.435 46.88 202.083 47.616C201.747 48.336 201.259 48.952 200.619 49.464C199.979 49.96 199.203 50.344 198.291 50.616C197.395 50.872 196.395 51 195.291 51H183.027ZM188.907 43.656L187.755 47.952H195.483C196.107 47.952 196.651 47.864 197.115 47.688C197.579 47.496 197.939 47.224 198.195 46.872C198.451 46.504 198.579 46.064 198.579 45.552C198.579 45.12 198.499 44.768 198.339 44.496C198.179 44.208 197.947 44 197.643 43.872C197.339 43.728 196.963 43.656 196.515 43.656H188.907ZM205.304 37.344L206.168 34.2H215.576L214.16 39.456H220.328C221.576 39.456 222.632 39.656 223.496 40.056C224.376 40.456 225.04 41.04 225.488 41.808C225.952 42.56 226.184 43.464 226.184 44.52C226.184 45.88 225.832 47.048 225.128 48.024C224.44 48.984 223.488 49.72 222.272 50.232C221.056 50.744 219.672 51 218.12 51H207.104L210.752 37.344H205.304ZM213.32 42.576L211.904 47.88H218.24C219.024 47.88 219.696 47.752 220.256 47.496C220.832 47.24 221.272 46.888 221.576 46.44C221.896 45.976 222.056 45.432 222.056 44.808C222.056 44.312 221.96 43.904 221.768 43.584C221.592 43.248 221.32 43 220.952 42.84C220.584 42.664 220.12 42.576 219.56 42.576H213.32ZM227.139 51L231.651 34.2H247.947L247.107 37.272H234.795L233.835 40.92H244.755L243.939 43.944H233.019L231.939 47.928H244.443L243.627 51H227.139ZM243.116 55.008L245.036 47.808H246.668C246.892 47.648 247.108 47.472 247.316 47.28C247.716 46.928 248.092 46.496 248.444 45.984C248.796 45.472 249.148 44.824 249.5 44.04C249.852 43.256 250.22 42.288 250.604 41.136C251.004 39.984 251.444 38.592 251.924 36.96L252.74 34.2H268.916L265.268 47.808H267.548L265.628 55.008H261.788L262.868 51H248.012L246.956 55.008H243.116ZM250.94 47.808H261.284L264.092 37.392H255.764C255.492 38.32 255.236 39.152 254.996 39.888C254.724 40.768 254.46 41.552 254.204 42.24C253.964 42.928 253.724 43.552 253.484 44.112C253.244 44.656 252.988 45.16 252.716 45.624C252.22 46.472 251.628 47.2 250.94 47.808ZM272.959 51H269.047L273.559 34.2H277.471L274.327 45.84L288.775 34.2H292.687L288.175 51H284.263L287.383 39.384L272.959 51ZM292.251 51L296.763 34.2H300.819L299.043 40.752H310.419L312.195 34.2H316.227L311.715 51H307.683L309.579 43.968H298.179L296.307 51H292.251ZM315.806 51L320.318 34.2H336.614L335.774 37.272H323.462L322.502 40.92H333.422L332.606 43.944H321.686L320.606 47.928H333.11L332.294 51H315.806ZM335.12 51L339.632 34.2H343.688L341.912 40.752H353.288L355.064 34.2H359.096L354.584 51H350.552L352.448 43.968H341.048L339.176 51H335.12ZM362.588 51H358.676L363.188 34.2H367.1L363.956 45.84L378.404 34.2H382.316L377.804 51H373.892L377.012 39.384L362.588 51ZM381.88 51L386.392 34.2H402.688L401.848 37.272H389.536L388.576 40.92H399.496L398.68 43.944H387.76L386.68 47.928H399.184L398.368 51H381.88ZM401.697 47.4H405.729L404.817 50.808C404.513 51.96 404.145 52.848 403.713 53.472C403.281 54.096 402.721 54.528 402.033 54.768C401.361 55.008 400.481 55.12 399.393 55.104L399.777 52.992C400.353 52.992 400.809 52.936 401.145 52.824C401.481 52.712 401.745 52.504 401.937 52.2C402.129 51.912 402.297 51.512 402.441 51H400.737L401.697 47.4ZM429.83 51L428.894 47.4H419.006L416.15 51H411.686L425.198 34.2H429.326L433.862 51H429.83ZM428.102 44.376L426.47 38.016L421.43 44.376H428.102ZM454.291 45.768C454.291 46.632 454.067 47.4 453.619 48.072C453.171 48.744 452.491 49.32 451.579 49.8C450.683 50.28 449.571 50.648 448.243 50.904C446.915 51.144 445.371 51.264 443.611 51.264C441.563 51.264 439.875 51.064 438.547 50.664C437.235 50.264 436.275 49.664 435.667 48.864C435.075 48.048 434.835 47.04 434.947 45.84L439.099 45.072C439.003 45.792 439.091 46.392 439.363 46.872C439.651 47.352 440.155 47.712 440.875 47.952C441.611 48.176 442.603 48.288 443.851 48.288C444.923 48.288 445.835 48.232 446.587 48.12C447.339 47.992 447.955 47.816 448.435 47.592C448.931 47.368 449.283 47.104 449.491 46.8C449.715 46.48 449.827 46.136 449.827 45.768C449.827 45.352 449.723 45.016 449.515 44.76C449.307 44.488 448.987 44.288 448.555 44.16C448.123 44.032 447.571 43.968 446.899 43.968H441.787L442.603 41.016H447.811C448.403 41.016 448.931 40.968 449.395 40.872C449.859 40.76 450.251 40.616 450.571 40.44C450.891 40.248 451.131 40.024 451.291 39.768C451.451 39.496 451.531 39.192 451.531 38.856C451.531 38.536 451.443 38.256 451.267 38.016C451.091 37.776 450.819 37.568 450.451 37.392C450.099 37.216 449.643 37.088 449.083 37.008C448.523 36.912 447.859 36.864 447.091 36.864C445.939 36.864 444.939 36.976 444.091 37.2C443.259 37.408 442.571 37.736 442.027 38.184C441.483 38.616 441.075 39.184 440.803 39.888L437.035 39.072C437.467 37.904 438.147 36.944 439.075 36.192C440.003 35.424 441.155 34.856 442.531 34.488C443.907 34.12 445.499 33.936 447.307 33.936C448.715 33.936 449.947 34.032 451.003 34.224C452.075 34.416 452.963 34.696 453.667 35.064C454.387 35.432 454.923 35.896 455.275 36.456C455.643 37.016 455.827 37.664 455.827 38.4C455.827 38.992 455.683 39.552 455.395 40.08C455.123 40.592 454.707 41.048 454.147 41.448C453.603 41.832 452.915 42.136 452.083 42.36C451.923 42.408 451.747 42.448 451.555 42.48C451.731 42.528 451.899 42.584 452.059 42.648C452.795 42.936 453.347 43.344 453.715 43.872C454.099 44.384 454.291 45.016 454.291 45.768ZM471.715 51L470.779 47.4H460.891L458.035 51H453.571L467.083 34.2H471.211L475.747 51H471.715ZM469.987 44.376L468.355 38.016L463.315 44.376H469.987ZM477.416 51L481.928 34.2H492.128C493.104 34.2 493.968 34.32 494.72 34.56C495.488 34.8 496.128 35.152 496.64 35.616C497.152 36.064 497.544 36.608 497.816 37.248C498.088 37.872 498.224 38.584 498.224 39.384C498.224 40.744 497.872 41.936 497.168 42.96C496.464 43.968 495.472 44.752 494.192 45.312C492.928 45.856 491.448 46.128 489.752 46.128H482.768L481.472 51H477.416ZM485.12 37.344L483.608 42.984H489.992C490.824 42.984 491.544 42.856 492.152 42.6C492.76 42.344 493.224 41.976 493.544 41.496C493.88 41 494.048 40.416 494.048 39.744C494.048 39.232 493.944 38.8 493.736 38.448C493.544 38.096 493.24 37.824 492.824 37.632C492.408 37.44 491.888 37.344 491.264 37.344H485.12ZM503.28 51L506.928 37.392H499.56L500.448 34.2H519.216L518.352 37.392H510.96L507.312 51H503.28ZM521.975 45.984H518.471L521.375 34.2H525.407L521.975 45.984ZM516.863 51L517.775 47.568H521.807L520.895 51H516.863Z" fill="black"/>
</svg>
