<svg width="413" height="112" viewBox="0 0 413 112" fill="none" xmlns="http://www.w3.org/2000/svg">
<path d="M1 0V101" stroke="black" stroke-width="2"/>
<path d="M19.6003 55.16C19.0243 55.16 18.4909 55.0747 18.0003 54.904C17.5096 54.7333 17.0723 54.488 16.6883 54.168C16.3043 53.8373 15.9789 53.4427 15.7123 52.984C15.4456 52.5147 15.2429 51.9813 15.1043 51.384C14.9656 50.776 14.8963 50.1147 14.8963 49.4C14.8963 48.6853 14.9656 48.0293 15.1043 47.432C15.2429 46.8347 15.4456 46.3013 15.7123 45.832C15.9789 45.3627 16.3043 44.968 16.6883 44.648C17.0723 44.3173 17.5096 44.0667 18.0003 43.896C18.4909 43.7253 19.0243 43.64 19.6003 43.64C20.1976 43.64 20.7416 43.7253 21.2323 43.896C21.7229 44.0667 22.1603 44.3173 22.5443 44.648C22.9283 44.968 23.2536 45.3627 23.5203 45.832C23.7869 46.3013 23.9896 46.8347 24.1283 47.432C24.2669 48.0293 24.3363 48.6853 24.3363 49.4C24.3363 50.1147 24.2669 50.776 24.1283 51.384C23.9896 51.9813 23.7869 52.5147 23.5203 52.984C23.2536 53.4427 22.9283 53.8373 22.5443 54.168C22.1603 54.488 21.7229 54.7333 21.2323 54.904C20.7416 55.0747 20.1976 55.16 19.6003 55.16ZM19.6003 53.624C19.9523 53.624 20.2723 53.5653 20.5603 53.448C20.8589 53.3307 21.1203 53.1547 21.3443 52.92C21.5789 52.6747 21.7709 52.3813 21.9203 52.04C22.0696 51.6987 22.1816 51.3093 22.2563 50.872C22.3416 50.424 22.3843 49.9333 22.3843 49.4C22.3843 48.8667 22.3416 48.3813 22.2563 47.944C22.1816 47.496 22.0696 47.1013 21.9203 46.76C21.7709 46.4187 21.5789 46.1307 21.3443 45.896C21.1203 45.6613 20.8589 45.4853 20.5603 45.368C20.2723 45.2507 19.9523 45.192 19.6003 45.192C19.2589 45.192 18.9443 45.2507 18.6563 45.368C18.3683 45.4853 18.1069 45.6613 17.8723 45.896C17.6483 46.1307 17.4563 46.4187 17.2963 46.76C17.1469 47.1013 17.0296 47.496 16.9443 47.944C16.8696 48.3813 16.8323 48.8667 16.8323 49.4C16.8323 49.9333 16.8696 50.424 16.9443 50.872C17.0296 51.3093 17.1469 51.6987 17.2963 52.04C17.4563 52.3813 17.6483 52.6747 17.8723 52.92C18.1069 53.1547 18.3683 53.3307 18.6563 53.448C18.9443 53.5653 19.2589 53.624 19.6003 53.624ZM29.7154 55.16C29.0327 55.16 28.4194 55.0853 27.8754 54.936C27.342 54.7867 26.8887 54.5733 26.5154 54.296C26.142 54.008 25.8594 53.672 25.6674 53.288C25.4754 52.8933 25.3794 52.456 25.3794 51.976C25.3794 51.5067 25.4807 51.0853 25.6834 50.712C25.886 50.3387 26.1794 50.024 26.5634 49.768C26.8514 49.5653 27.1874 49.3947 27.5714 49.256C27.3047 49.1493 27.0647 49.0107 26.8514 48.84C26.51 48.5733 26.2434 48.2587 26.0514 47.896C25.87 47.5333 25.7794 47.128 25.7794 46.68C25.7794 46.2213 25.87 45.8107 26.0514 45.448C26.2327 45.0747 26.494 44.7547 26.8354 44.488C27.1767 44.2107 27.5874 44.0027 28.0674 43.864C28.558 43.7147 29.1074 43.64 29.7154 43.64C30.334 43.64 30.8834 43.7147 31.3634 43.864C31.8434 44.0027 32.254 44.2107 32.5954 44.488C32.9367 44.7547 33.198 45.0747 33.3794 45.448C33.5607 45.8107 33.6514 46.2213 33.6514 46.68C33.6514 47.0427 33.5874 47.3787 33.4594 47.688C33.342 47.9867 33.1714 48.2587 32.9474 48.504C32.7234 48.7493 32.4514 48.9573 32.1314 49.128C32.046 49.1707 31.95 49.2133 31.8434 49.256C32.238 49.3947 32.5794 49.5653 32.8674 49.768C33.2514 50.024 33.5447 50.3387 33.7474 50.712C33.95 51.0853 34.0514 51.5067 34.0514 51.976C34.0514 52.456 33.9554 52.8933 33.7634 53.288C33.5714 53.672 33.2887 54.008 32.9154 54.296C32.542 54.5733 32.0887 54.7867 31.5554 54.936C31.022 55.0853 30.4087 55.16 29.7154 55.16ZM29.7154 53.768C30.0994 53.768 30.4407 53.7253 30.7394 53.64C31.038 53.5547 31.2887 53.432 31.4914 53.272C31.7047 53.112 31.8647 52.92 31.9714 52.696C32.0887 52.472 32.1474 52.216 32.1474 51.928C32.1474 51.6293 32.0887 51.3627 31.9714 51.128C31.8647 50.8933 31.7047 50.696 31.4914 50.536C31.2887 50.3653 31.038 50.2373 30.7394 50.152C30.4407 50.0667 30.0994 50.024 29.7154 50.024C29.342 50.024 29.0007 50.0667 28.6914 50.152C28.3927 50.2373 28.1367 50.3653 27.9234 50.536C27.7207 50.696 27.5607 50.8933 27.4434 51.128C27.3367 51.3627 27.2834 51.624 27.2834 51.912C27.2834 52.2107 27.3367 52.472 27.4434 52.696C27.5607 52.92 27.7207 53.112 27.9234 53.272C28.1367 53.432 28.3927 53.5547 28.6914 53.64C29.0007 53.7253 29.342 53.768 29.7154 53.768ZM31.8434 46.808C31.8434 46.5413 31.7954 46.3013 31.6994 46.088C31.6034 45.864 31.4594 45.6773 31.2674 45.528C31.086 45.368 30.862 45.2507 30.5954 45.176C30.3394 45.0907 30.046 45.048 29.7154 45.048C29.3954 45.048 29.102 45.0907 28.8354 45.176C28.5794 45.2507 28.3554 45.368 28.1634 45.528C27.9714 45.6773 27.8274 45.864 27.7314 46.088C27.6354 46.3013 27.5874 46.5467 27.5874 46.824C27.5874 47.0907 27.6354 47.3307 27.7314 47.544C27.8274 47.7467 27.966 47.9227 28.1474 48.072C28.3394 48.2213 28.5634 48.3387 28.8194 48.424C29.086 48.4987 29.3847 48.536 29.7154 48.536C30.046 48.536 30.3394 48.4987 30.5954 48.424C30.862 48.3387 31.086 48.2213 31.2674 48.072C31.4594 47.9227 31.6034 47.7467 31.6994 47.544C31.7954 47.3307 31.8434 47.0853 31.8434 46.808ZM34.4621 57.4L37.9821 43.8H39.8541L36.3341 57.4H34.4621ZM45.3209 55.16C44.7449 55.16 44.2115 55.0747 43.7209 54.904C43.2302 54.7333 42.7929 54.488 42.4089 54.168C42.0249 53.8373 41.6995 53.4427 41.4329 52.984C41.1662 52.5147 40.9635 51.9813 40.8249 51.384C40.6862 50.776 40.6169 50.1147 40.6169 49.4C40.6169 48.6853 40.6862 48.0293 40.8249 47.432C40.9635 46.8347 41.1662 46.3013 41.4329 45.832C41.6995 45.3627 42.0249 44.968 42.4089 44.648C42.7929 44.3173 43.2302 44.0667 43.7209 43.896C44.2115 43.7253 44.7449 43.64 45.3209 43.64C45.9182 43.64 46.4622 43.7253 46.9529 43.896C47.4435 44.0667 47.8809 44.3173 48.2649 44.648C48.6489 44.968 48.9742 45.3627 49.2409 45.832C49.5075 46.3013 49.7102 46.8347 49.8489 47.432C49.9875 48.0293 50.0569 48.6853 50.0569 49.4C50.0569 50.1147 49.9875 50.776 49.8489 51.384C49.7102 51.9813 49.5075 52.5147 49.2409 52.984C48.9742 53.4427 48.6489 53.8373 48.2649 54.168C47.8809 54.488 47.4435 54.7333 46.9529 54.904C46.4622 55.0747 45.9182 55.16 45.3209 55.16ZM45.3209 53.624C45.6729 53.624 45.9929 53.5653 46.2809 53.448C46.5795 53.3307 46.8409 53.1547 47.0649 52.92C47.2995 52.6747 47.4915 52.3813 47.6409 52.04C47.7902 51.6987 47.9022 51.3093 47.9769 50.872C48.0622 50.424 48.1049 49.9333 48.1049 49.4C48.1049 48.8667 48.0622 48.3813 47.9769 47.944C47.9022 47.496 47.7902 47.1013 47.6409 46.76C47.4915 46.4187 47.2995 46.1307 47.0649 45.896C46.8409 45.6613 46.5795 45.4853 46.2809 45.368C45.9929 45.2507 45.6729 45.192 45.3209 45.192C44.9795 45.192 44.6649 45.2507 44.3769 45.368C44.0889 45.4853 43.8275 45.6613 43.5929 45.896C43.3689 46.1307 43.1769 46.4187 43.0169 46.76C42.8675 47.1013 42.7502 47.496 42.6649 47.944C42.5902 48.3813 42.5529 48.8667 42.5529 49.4C42.5529 49.9333 42.5902 50.424 42.6649 50.872C42.7502 51.3093 42.8675 51.6987 43.0169 52.04C43.1769 52.3813 43.3689 52.6747 43.5929 52.92C43.8275 53.1547 44.0889 53.3307 44.3769 53.448C44.6649 53.5653 44.9795 53.624 45.3209 53.624ZM59.74 49.272C59.74 49.9013 59.692 50.4827 59.596 51.016C59.5107 51.5387 59.3773 52.0187 59.196 52.456C59.0147 52.8933 58.7907 53.2827 58.524 53.624C58.268 53.9547 57.964 54.2373 57.612 54.472C57.2707 54.696 56.8867 54.8667 56.46 54.984C56.044 55.1013 55.5907 55.16 55.1 55.16C54.4387 55.16 53.8413 55.0533 53.308 54.84C52.7747 54.616 52.332 54.296 51.98 53.88C51.628 53.464 51.3827 52.952 51.244 52.344L52.988 51.992C53.084 52.344 53.228 52.648 53.42 52.904C53.612 53.1493 53.852 53.336 54.14 53.464C54.428 53.592 54.7533 53.656 55.116 53.656C55.468 53.656 55.788 53.5973 56.076 53.48C56.3747 53.3627 56.636 53.1867 56.86 52.952C57.084 52.7067 57.2707 52.4133 57.42 52.072C57.5693 51.72 57.676 51.3093 57.74 50.84C57.8147 50.4133 57.852 49.944 57.852 49.432C57.6707 49.688 57.452 49.9173 57.196 50.12C56.876 50.3547 56.5133 50.5413 56.108 50.68C55.7027 50.8187 55.2547 50.888 54.764 50.888C54.2093 50.888 53.708 50.808 53.26 50.648C52.812 50.4773 52.4227 50.2373 52.092 49.928C51.772 49.6187 51.5213 49.2453 51.34 48.808C51.1693 48.36 51.084 47.864 51.084 47.32C51.084 46.7653 51.18 46.264 51.372 45.816C51.5747 45.368 51.8573 44.984 52.22 44.664C52.5933 44.3333 53.0307 44.0827 53.532 43.912C54.044 43.7307 54.6093 43.64 55.228 43.64C55.8147 43.64 56.3427 43.72 56.812 43.88C57.292 44.04 57.7133 44.28 58.076 44.6C58.4387 44.9093 58.7427 45.2933 58.988 45.752C59.244 46.2107 59.4307 46.7333 59.548 47.32C59.676 47.9067 59.74 48.5573 59.74 49.272ZM55.212 45.128C54.86 45.128 54.54 45.1813 54.252 45.288C53.9747 45.3947 53.7347 45.544 53.532 45.736C53.34 45.928 53.1907 46.1573 53.084 46.424C52.9773 46.68 52.924 46.968 52.924 47.288C52.924 47.6293 52.9773 47.9333 53.084 48.2C53.1907 48.456 53.34 48.68 53.532 48.872C53.7347 49.064 53.9747 49.2133 54.252 49.32C54.54 49.416 54.86 49.464 55.212 49.464C55.564 49.464 55.8787 49.416 56.156 49.32C56.444 49.2133 56.6893 49.0693 56.892 48.888C57.1053 48.7067 57.2653 48.4933 57.372 48.248C57.4893 48.0027 57.548 47.736 57.548 47.448C57.548 47.096 57.4893 46.7813 57.372 46.504C57.2653 46.216 57.1107 45.9707 56.908 45.768C56.7053 45.5653 56.46 45.4107 56.172 45.304C55.884 45.1867 55.564 45.128 55.212 45.128ZM72.1716 49.256L70.4596 49.544C70.3956 49.1173 70.2623 48.76 70.0596 48.472C69.8676 48.1733 69.617 47.9493 69.3076 47.8C68.9983 47.64 68.6356 47.56 68.2196 47.56C67.889 47.56 67.5903 47.608 67.3236 47.704C67.057 47.8 66.8223 47.9333 66.6196 48.104C66.4276 48.2747 66.2623 48.488 66.1236 48.744C65.9956 48.9893 65.8943 49.272 65.8196 49.592C65.7556 49.912 65.7236 50.264 65.7236 50.648C65.7236 51.0213 65.7556 51.368 65.8196 51.688C65.8943 51.9973 65.9956 52.28 66.1236 52.536C66.2623 52.792 66.433 53.0053 66.6356 53.176C66.8383 53.3467 67.0676 53.48 67.3236 53.576C67.5903 53.672 67.889 53.72 68.2196 53.72C68.6356 53.72 68.9983 53.6453 69.3076 53.496C69.617 53.3467 69.873 53.128 70.0756 52.84C70.289 52.5413 70.4383 52.1627 70.5236 51.704L72.2036 51.992C72.065 52.6747 71.8143 53.2507 71.4516 53.72C71.0996 54.1893 70.6463 54.5467 70.0916 54.792C69.5476 55.0373 68.9236 55.16 68.2196 55.16C67.6756 55.16 67.1796 55.0907 66.7316 54.952C66.2836 54.8133 65.8836 54.616 65.5316 54.36C65.1796 54.0933 64.881 53.7787 64.6356 53.416C64.401 53.0427 64.2196 52.6267 64.0916 52.168C63.9743 51.7093 63.9156 51.2027 63.9156 50.648C63.9156 50.104 63.9743 49.5973 64.0916 49.128C64.2196 48.6587 64.401 48.2373 64.6356 47.864C64.881 47.4907 65.1796 47.176 65.5316 46.92C65.8836 46.6533 66.2836 46.456 66.7316 46.328C67.1796 46.1893 67.6756 46.12 68.2196 46.12C68.9556 46.12 69.5956 46.2427 70.1396 46.488C70.6836 46.7227 71.1263 47.0747 71.4676 47.544C71.809 48.0133 72.0436 48.584 72.1716 49.256ZM77.3296 55.16C76.7856 55.16 76.2896 55.0907 75.8416 54.952C75.3936 54.8133 74.9936 54.616 74.6416 54.36C74.2896 54.0933 73.991 53.7787 73.7456 53.416C73.511 53.0427 73.3296 52.6267 73.2016 52.168C73.0843 51.6987 73.0256 51.1867 73.0256 50.632C73.0256 50.0987 73.0843 49.5973 73.2016 49.128C73.3296 48.6587 73.511 48.2373 73.7456 47.864C73.991 47.4907 74.2896 47.176 74.6416 46.92C74.9936 46.6533 75.3936 46.456 75.8416 46.328C76.2896 46.1893 76.7856 46.12 77.3296 46.12C77.8843 46.12 78.3856 46.1893 78.8336 46.328C79.2923 46.456 79.6923 46.6533 80.0336 46.92C80.3856 47.176 80.6843 47.4907 80.9296 47.864C81.175 48.2373 81.3563 48.6587 81.4736 49.128C81.6016 49.5973 81.6656 50.0987 81.6656 50.632C81.6656 51.1867 81.6016 51.6987 81.4736 52.168C81.3563 52.6267 81.175 53.0427 80.9296 53.416C80.6843 53.7787 80.3856 54.0933 80.0336 54.36C79.6923 54.616 79.2923 54.8133 78.8336 54.952C78.3856 55.0907 77.8843 55.16 77.3296 55.16ZM77.3296 53.72C77.6816 53.72 77.9856 53.672 78.2416 53.576C78.5083 53.48 78.743 53.3467 78.9456 53.176C79.1483 53.0053 79.3136 52.7973 79.4416 52.552C79.5803 52.296 79.6816 52.008 79.7456 51.688C79.8096 51.368 79.8416 51.016 79.8416 50.632C79.8416 50.248 79.8096 49.896 79.7456 49.576C79.6816 49.256 79.5803 48.9733 79.4416 48.728C79.3136 48.4827 79.1483 48.2747 78.9456 48.104C78.743 47.9227 78.5083 47.7893 78.2416 47.704C77.9856 47.608 77.6816 47.56 77.3296 47.56C76.999 47.56 76.7003 47.608 76.4336 47.704C76.167 47.7893 75.9323 47.9227 75.7296 48.104C75.5376 48.2747 75.3723 48.488 75.2336 48.744C75.095 48.9893 74.9936 49.272 74.9296 49.592C74.8656 49.9013 74.8336 50.248 74.8336 50.632C74.8336 51.016 74.8656 51.368 74.9296 51.688C75.0043 52.008 75.1056 52.296 75.2336 52.552C75.3723 52.7973 75.5376 53.0053 75.7296 53.176C75.9323 53.3467 76.167 53.48 76.4336 53.576C76.7003 53.672 76.999 53.72 77.3296 53.72ZM91.0479 49.256L89.3359 49.544C89.2719 49.1173 89.1385 48.76 88.9359 48.472C88.7439 48.1733 88.4932 47.9493 88.1839 47.8C87.8745 47.64 87.5119 47.56 87.0959 47.56C86.7652 47.56 86.4665 47.608 86.1999 47.704C85.9332 47.8 85.6985 47.9333 85.4959 48.104C85.3039 48.2747 85.1385 48.488 84.9999 48.744C84.8719 48.9893 84.7705 49.272 84.6959 49.592C84.6319 49.912 84.5999 50.264 84.5999 50.648C84.5999 51.0213 84.6319 51.368 84.6959 51.688C84.7705 51.9973 84.8719 52.28 84.9999 52.536C85.1385 52.792 85.3092 53.0053 85.5119 53.176C85.7145 53.3467 85.9439 53.48 86.1999 53.576C86.4665 53.672 86.7652 53.72 87.0959 53.72C87.5119 53.72 87.8745 53.6453 88.1839 53.496C88.4932 53.3467 88.7492 53.128 88.9519 52.84C89.1652 52.5413 89.3145 52.1627 89.3999 51.704L91.0799 51.992C90.9412 52.6747 90.6905 53.2507 90.3279 53.72C89.9759 54.1893 89.5225 54.5467 88.9679 54.792C88.4239 55.0373 87.7999 55.16 87.0959 55.16C86.5519 55.16 86.0559 55.0907 85.6079 54.952C85.1599 54.8133 84.7599 54.616 84.4079 54.36C84.0559 54.0933 83.7572 53.7787 83.5119 53.416C83.2772 53.0427 83.0959 52.6267 82.9679 52.168C82.8505 51.7093 82.7919 51.2027 82.7919 50.648C82.7919 50.104 82.8505 49.5973 82.9679 49.128C83.0959 48.6587 83.2772 48.2373 83.5119 47.864C83.7572 47.4907 84.0559 47.176 84.4079 46.92C84.7599 46.6533 85.1599 46.456 85.6079 46.328C86.0559 46.1893 86.5519 46.12 87.0959 46.12C87.8319 46.12 88.4719 46.2427 89.0159 46.488C89.5599 46.7227 90.0025 47.0747 90.3439 47.544C90.6852 48.0133 90.9199 48.584 91.0479 49.256ZM94.2219 55V47.72H91.2939V46.28H98.9259V47.72H95.9979V55H94.2219ZM103.753 55.16C103.209 55.16 102.713 55.0907 102.265 54.952C101.817 54.8133 101.417 54.616 101.065 54.36C100.713 54.0933 100.415 53.7787 100.169 53.416C99.9347 53.0427 99.7534 52.6267 99.6254 52.168C99.508 51.6987 99.4494 51.1867 99.4494 50.632C99.4494 50.0987 99.508 49.5973 99.6254 49.128C99.7534 48.6587 99.9347 48.2373 100.169 47.864C100.415 47.4907 100.713 47.176 101.065 46.92C101.417 46.6533 101.817 46.456 102.265 46.328C102.713 46.1893 103.209 46.12 103.753 46.12C104.308 46.12 104.809 46.1893 105.257 46.328C105.716 46.456 106.116 46.6533 106.457 46.92C106.809 47.176 107.108 47.4907 107.353 47.864C107.599 48.2373 107.78 48.6587 107.897 49.128C108.025 49.5973 108.089 50.0987 108.089 50.632C108.089 51.1867 108.025 51.6987 107.897 52.168C107.78 52.6267 107.599 53.0427 107.353 53.416C107.108 53.7787 106.809 54.0933 106.457 54.36C106.116 54.616 105.716 54.8133 105.257 54.952C104.809 55.0907 104.308 55.16 103.753 55.16ZM103.753 53.72C104.105 53.72 104.409 53.672 104.665 53.576C104.932 53.48 105.167 53.3467 105.369 53.176C105.572 53.0053 105.737 52.7973 105.865 52.552C106.004 52.296 106.105 52.008 106.169 51.688C106.233 51.368 106.265 51.016 106.265 50.632C106.265 50.248 106.233 49.896 106.169 49.576C106.105 49.256 106.004 48.9733 105.865 48.728C105.737 48.4827 105.572 48.2747 105.369 48.104C105.167 47.9227 104.932 47.7893 104.665 47.704C104.409 47.608 104.105 47.56 103.753 47.56C103.423 47.56 103.124 47.608 102.857 47.704C102.591 47.7893 102.356 47.9227 102.153 48.104C101.961 48.2747 101.796 48.488 101.657 48.744C101.519 48.9893 101.417 49.272 101.353 49.592C101.289 49.9013 101.257 50.248 101.257 50.632C101.257 51.016 101.289 51.368 101.353 51.688C101.428 52.008 101.529 52.296 101.657 52.552C101.796 52.7973 101.961 53.0053 102.153 53.176C102.356 53.3467 102.591 53.48 102.857 53.576C103.124 53.672 103.423 53.72 103.753 53.72ZM116.208 55H114.48V51.864H113.008L110.864 55H108.96L111.312 51.624C111.056 51.5707 110.816 51.496 110.592 51.4C110.122 51.1867 109.754 50.8827 109.488 50.488C109.221 50.0827 109.088 49.6027 109.088 49.048C109.088 48.472 109.221 47.976 109.488 47.56C109.754 47.144 110.133 46.824 110.624 46.6C111.114 46.376 111.685 46.264 112.336 46.264H116.208V55ZM114.48 50.52V47.576H112.464C112.133 47.576 111.84 47.6347 111.584 47.752C111.338 47.8693 111.146 48.04 111.008 48.264C110.88 48.4773 110.816 48.744 110.816 49.064C110.816 49.3733 110.885 49.64 111.024 49.864C111.162 50.0773 111.354 50.2427 111.6 50.36C111.845 50.4667 112.133 50.52 112.464 50.52H114.48ZM117.2 53.672C117.424 53.6613 117.627 53.624 117.808 53.56C117.989 53.4853 118.139 53.3733 118.256 53.224C118.437 53.0107 118.571 52.7013 118.656 52.296C118.741 51.88 118.8 51.336 118.832 50.664C118.864 49.9813 118.891 49.1387 118.912 48.136V46.28H125.44V55H123.68V47.72H120.592L120.576 48.344C120.565 49.4747 120.523 50.424 120.448 51.192C120.373 51.96 120.261 52.584 120.112 53.064C119.973 53.544 119.781 53.928 119.536 54.216C119.269 54.5467 118.955 54.776 118.592 54.904C118.229 55.0213 117.792 55.0853 117.28 55.096L117.2 53.672ZM135.395 49.256L133.683 49.544C133.619 49.1173 133.485 48.76 133.283 48.472C133.091 48.1733 132.84 47.9493 132.531 47.8C132.221 47.64 131.859 47.56 131.443 47.56C131.112 47.56 130.813 47.608 130.547 47.704C130.28 47.8 130.045 47.9333 129.843 48.104C129.651 48.2747 129.485 48.488 129.347 48.744C129.219 48.9893 129.117 49.272 129.043 49.592C128.979 49.912 128.947 50.264 128.947 50.648C128.947 51.0213 128.979 51.368 129.043 51.688C129.117 51.9973 129.219 52.28 129.347 52.536C129.485 52.792 129.656 53.0053 129.859 53.176C130.061 53.3467 130.291 53.48 130.547 53.576C130.813 53.672 131.112 53.72 131.443 53.72C131.859 53.72 132.221 53.6453 132.531 53.496C132.84 53.3467 133.096 53.128 133.299 52.84C133.512 52.5413 133.661 52.1627 133.747 51.704L135.427 51.992C135.288 52.6747 135.037 53.2507 134.675 53.72C134.323 54.1893 133.869 54.5467 133.315 54.792C132.771 55.0373 132.147 55.16 131.443 55.16C130.899 55.16 130.403 55.0907 129.955 54.952C129.507 54.8133 129.107 54.616 128.755 54.36C128.403 54.0933 128.104 53.7787 127.859 53.416C127.624 53.0427 127.443 52.6267 127.315 52.168C127.197 51.7093 127.139 51.2027 127.139 50.648C127.139 50.104 127.197 49.5973 127.315 49.128C127.443 48.6587 127.624 48.2373 127.859 47.864C128.104 47.4907 128.403 47.176 128.755 46.92C129.107 46.6533 129.507 46.456 129.955 46.328C130.403 46.1893 130.899 46.12 131.443 46.12C132.179 46.12 132.819 46.2427 133.363 46.488C133.907 46.7227 134.349 47.0747 134.691 47.544C135.032 48.0133 135.267 48.584 135.395 49.256ZM143.241 55H141.513V51.864H140.041L137.897 55H135.993L138.345 51.624C138.089 51.5707 137.849 51.496 137.625 51.4C137.155 51.1867 136.787 50.8827 136.521 50.488C136.254 50.0827 136.121 49.6027 136.121 49.048C136.121 48.472 136.254 47.976 136.521 47.56C136.787 47.144 137.166 46.824 137.657 46.6C138.147 46.376 138.718 46.264 139.369 46.264H143.241V55ZM141.513 50.52V47.576H139.497C139.166 47.576 138.873 47.6347 138.617 47.752C138.371 47.8693 138.179 48.04 138.041 48.264C137.913 48.4773 137.849 48.744 137.849 49.064C137.849 49.3733 137.918 49.64 138.057 49.864C138.195 50.0773 138.387 50.2427 138.633 50.36C138.878 50.4667 139.166 50.52 139.497 50.52H141.513ZM147.249 53.672C147.473 53.6613 147.676 53.624 147.857 53.56C148.039 53.4853 148.188 53.3733 148.305 53.224C148.487 53.0107 148.62 52.7013 148.705 52.296C148.791 51.88 148.849 51.336 148.881 50.664C148.913 49.9813 148.94 49.1387 148.961 48.136V46.28H155.489V55H153.729V47.72H150.641L150.625 48.344C150.615 49.4747 150.572 50.424 150.497 51.192C150.423 51.96 150.311 52.584 150.161 53.064C150.023 53.544 149.831 53.928 149.585 54.216C149.319 54.5467 149.004 54.776 148.641 54.904C148.279 55.0213 147.841 55.0853 147.329 55.096L147.249 53.672ZM161.588 55.16C161.033 55.16 160.521 55.0907 160.052 54.952C159.593 54.8027 159.188 54.6 158.836 54.344C158.484 54.0773 158.185 53.7573 157.94 53.384C157.695 53.0107 157.508 52.5947 157.38 52.136C157.252 51.6667 157.188 51.1653 157.188 50.632C157.188 50.0987 157.247 49.6027 157.364 49.144C157.492 48.6853 157.679 48.2747 157.924 47.912C158.169 47.5387 158.463 47.2187 158.804 46.952C159.156 46.6853 159.561 46.4827 160.02 46.344C160.479 46.1947 160.985 46.12 161.54 46.12C162.169 46.12 162.74 46.2213 163.252 46.424C163.764 46.6267 164.201 46.92 164.564 47.304C164.937 47.6773 165.22 48.1253 165.412 48.648C165.615 49.16 165.716 49.736 165.716 50.376C165.716 50.504 165.711 50.632 165.7 50.76C165.689 50.8773 165.668 50.9947 165.636 51.112H158.932C158.943 51.304 158.969 51.4907 159.012 51.672C159.076 52.0027 159.177 52.296 159.316 52.552C159.465 52.7973 159.647 53.016 159.86 53.208C160.073 53.3893 160.324 53.528 160.612 53.624C160.9 53.72 161.225 53.768 161.588 53.768C162.036 53.768 162.42 53.704 162.74 53.576C163.071 53.448 163.343 53.2667 163.556 53.032C163.769 52.7867 163.924 52.4933 164.02 52.152L165.652 52.44C165.503 53.0053 165.257 53.496 164.916 53.912C164.575 54.3173 164.127 54.6267 163.572 54.84C163.017 55.0533 162.356 55.16 161.588 55.16ZM158.964 49.832H164.036C164.015 49.5653 163.961 49.32 163.876 49.096C163.769 48.7653 163.604 48.4827 163.38 48.248C163.167 48.0133 162.905 47.832 162.596 47.704C162.297 47.576 161.951 47.512 161.556 47.512C161.204 47.512 160.884 47.56 160.596 47.656C160.319 47.7413 160.073 47.8747 159.86 48.056C159.657 48.2373 159.481 48.456 159.332 48.712C159.183 48.968 159.076 49.256 159.012 49.576C158.991 49.6613 158.975 49.7467 158.964 49.832ZM167.311 55V46.28H173.295V47.72H169.087V55H167.311ZM178.121 55.16C177.566 55.16 177.054 55.0907 176.585 54.952C176.126 54.8027 175.721 54.6 175.369 54.344C175.017 54.0773 174.718 53.7573 174.473 53.384C174.227 53.0107 174.041 52.5947 173.913 52.136C173.785 51.6667 173.721 51.1653 173.721 50.632C173.721 50.0987 173.779 49.6027 173.897 49.144C174.025 48.6853 174.211 48.2747 174.457 47.912C174.702 47.5387 174.995 47.2187 175.337 46.952C175.689 46.6853 176.094 46.4827 176.553 46.344C177.011 46.1947 177.518 46.12 178.073 46.12C178.702 46.12 179.273 46.2213 179.785 46.424C180.297 46.6267 180.734 46.92 181.097 47.304C181.47 47.6773 181.753 48.1253 181.945 48.648C182.147 49.16 182.249 49.736 182.249 50.376C182.249 50.504 182.243 50.632 182.233 50.76C182.222 50.8773 182.201 50.9947 182.169 51.112H175.465C175.475 51.304 175.502 51.4907 175.545 51.672C175.609 52.0027 175.71 52.296 175.849 52.552C175.998 52.7973 176.179 53.016 176.393 53.208C176.606 53.3893 176.857 53.528 177.145 53.624C177.433 53.72 177.758 53.768 178.121 53.768C178.569 53.768 178.953 53.704 179.273 53.576C179.603 53.448 179.875 53.2667 180.089 53.032C180.302 52.7867 180.457 52.4933 180.553 52.152L182.185 52.44C182.035 53.0053 181.79 53.496 181.449 53.912C181.107 54.3173 180.659 54.6267 180.105 54.84C179.55 55.0533 178.889 55.16 178.121 55.16ZM175.497 49.832H180.569C180.547 49.5653 180.494 49.32 180.409 49.096C180.302 48.7653 180.137 48.4827 179.913 48.248C179.699 48.0133 179.438 47.832 179.129 47.704C178.83 47.576 178.483 47.512 178.089 47.512C177.737 47.512 177.417 47.56 177.129 47.656C176.851 47.7413 176.606 47.8747 176.393 48.056C176.19 48.2373 176.014 48.456 175.865 48.712C175.715 48.968 175.609 49.256 175.545 49.576C175.523 49.6613 175.507 49.7467 175.497 49.832ZM183.844 55V46.28H185.62V49.704H189.94V46.28H191.7V55H189.94V51.144H185.62V55H183.844ZM200.498 57.464V55H194.338V57.464H192.706V53.496H193.554C193.714 53.2827 193.852 53.064 193.97 52.84C194.108 52.5307 194.215 52.152 194.29 51.704C194.375 51.256 194.439 50.68 194.482 49.976C194.535 49.2613 194.578 48.3707 194.61 47.304L194.642 46.28H201.01V53.496H202.13V57.464H200.498ZM195.298 53.496H199.33V47.672H196.258C196.236 48.44 196.21 49.096 196.178 49.64C196.146 50.2267 196.103 50.7333 196.05 51.16C195.996 51.576 195.916 51.9707 195.81 52.344C195.703 52.7493 195.543 53.1173 195.33 53.448C195.319 53.4587 195.308 53.4747 195.298 53.496ZM202.721 48.936C202.796 48.4667 202.94 48.056 203.153 47.704C203.367 47.352 203.633 47.0587 203.953 46.824C204.273 46.5893 204.647 46.4133 205.073 46.296C205.511 46.1787 205.991 46.12 206.513 46.12C207.079 46.12 207.58 46.184 208.017 46.312C208.465 46.44 208.839 46.6427 209.137 46.92C209.447 47.1867 209.681 47.528 209.841 47.944C210.001 48.3493 210.081 48.84 210.081 49.416V53.128C210.081 53.288 210.103 53.4213 210.145 53.528C210.199 53.624 210.268 53.6933 210.353 53.736C210.449 53.7787 210.561 53.8 210.689 53.8C210.732 53.8 210.78 53.8 210.833 53.8C210.887 53.7893 210.924 53.784 210.945 53.784L210.897 55C210.801 55.0427 210.679 55.0747 210.529 55.096C210.391 55.1173 210.273 55.128 210.177 55.128C209.793 55.128 209.473 55.0693 209.217 54.952C208.972 54.824 208.791 54.6373 208.673 54.392C208.556 54.1573 208.492 53.8693 208.481 53.528C208.428 53.6133 208.369 53.6987 208.305 53.784C208.081 54.072 207.82 54.3227 207.521 54.536C207.223 54.7387 206.892 54.8933 206.529 55C206.177 55.1067 205.793 55.16 205.377 55.16C204.769 55.16 204.241 55.0587 203.793 54.856C203.356 54.6533 203.015 54.36 202.769 53.976C202.535 53.592 202.417 53.1387 202.417 52.616C202.417 52.0933 202.535 51.6453 202.769 51.272C203.004 50.888 203.361 50.5893 203.841 50.376C204.321 50.152 204.929 50.0027 205.665 49.928L208.465 49.656V49.512C208.465 49.1493 208.417 48.84 208.321 48.584C208.236 48.328 208.108 48.12 207.937 47.96C207.767 47.7893 207.559 47.6667 207.313 47.592C207.068 47.5173 206.785 47.48 206.465 47.48C206.071 47.48 205.719 47.544 205.409 47.672C205.1 47.7893 204.855 47.976 204.673 48.232C204.503 48.4773 204.396 48.7867 204.353 49.16L202.721 48.936ZM208.481 50.872L205.841 51.144C205.447 51.1867 205.121 51.2667 204.865 51.384C204.609 51.5013 204.412 51.656 204.273 51.848C204.145 52.0293 204.081 52.248 204.081 52.504C204.081 52.7707 204.14 53 204.257 53.192C204.375 53.384 204.551 53.5333 204.785 53.64C205.031 53.736 205.324 53.784 205.665 53.784C205.985 53.784 206.284 53.7413 206.561 53.656C206.849 53.5707 207.111 53.4533 207.345 53.304C207.58 53.1547 207.783 52.9787 207.953 52.776C208.124 52.5733 208.252 52.344 208.337 52.088C208.433 51.832 208.481 51.5653 208.481 51.288V50.872ZM213.726 46.28L213.854 47.896C213.96 47.7253 214.072 47.5707 214.19 47.432C214.51 47.016 214.899 46.696 215.358 46.472C215.827 46.2373 216.35 46.12 216.926 46.12C217.395 46.12 217.827 46.1947 218.222 46.344C218.627 46.4827 218.984 46.6853 219.294 46.952C219.614 47.2187 219.88 47.5387 220.094 47.912C220.318 48.2853 220.488 48.7013 220.606 49.16C220.723 49.6187 220.782 50.1093 220.782 50.632C220.782 51.1653 220.723 51.6613 220.606 52.12C220.488 52.5787 220.318 52.9947 220.094 53.368C219.88 53.7413 219.614 54.0613 219.294 54.328C218.984 54.5947 218.627 54.8027 218.222 54.952C217.827 55.0907 217.395 55.16 216.926 55.16C216.35 55.16 215.827 55.048 215.358 54.824C214.899 54.5893 214.51 54.2693 214.19 53.864C214.104 53.7573 214.024 53.6453 213.95 53.528V58.2H212.174V46.28H213.726ZM216.462 53.688C216.782 53.688 217.075 53.64 217.342 53.544C217.608 53.448 217.843 53.3093 218.046 53.128C218.248 52.9467 218.414 52.728 218.542 52.472C218.68 52.216 218.782 51.9387 218.846 51.64C218.92 51.3307 218.958 51 218.958 50.648C218.958 50.2853 218.92 49.9493 218.846 49.64C218.782 49.3307 218.68 49.0533 218.542 48.808C218.414 48.552 218.248 48.3333 218.046 48.152C217.843 47.9707 217.608 47.832 217.342 47.736C217.075 47.64 216.782 47.592 216.462 47.592C215.939 47.592 215.491 47.7253 215.118 47.992C214.744 48.248 214.456 48.6053 214.254 49.064C214.051 49.5227 213.95 50.0507 213.95 50.648C213.95 51.0853 214.003 51.4907 214.11 51.864C214.227 52.2373 214.392 52.5627 214.606 52.84C214.83 53.1067 215.096 53.3147 215.406 53.464C215.715 53.6133 216.067 53.688 216.462 53.688ZM222.456 55V46.28H224.232V49.704H228.552V46.28H230.312V55H228.552V51.144H224.232V55H222.456ZM232.566 55V46.28H234.342V49.08H236.758C237.408 49.08 237.963 49.2027 238.422 49.448C238.88 49.6933 239.232 50.04 239.478 50.488C239.734 50.9253 239.862 51.448 239.862 52.056C239.862 52.504 239.787 52.9093 239.638 53.272C239.499 53.6347 239.296 53.944 239.03 54.2C238.763 54.456 238.438 54.6533 238.054 54.792C237.67 54.9307 237.238 55 236.758 55H232.566ZM240.966 55V46.28H242.742V55H240.966ZM234.342 50.408V53.672H236.406C236.768 53.672 237.078 53.6133 237.334 53.496C237.6 53.368 237.803 53.1867 237.942 52.952C238.08 52.7067 238.15 52.408 238.15 52.056C238.15 51.6933 238.08 51.3947 237.942 51.16C237.803 50.9147 237.6 50.728 237.334 50.6C237.078 50.472 236.768 50.408 236.406 50.408H234.342ZM245.004 55V46.28H246.732V52.616L250.956 46.28H252.684V55H250.956V48.664L246.732 55H245.004ZM250.3 42.888H251.708C251.708 43.2613 251.638 43.6027 251.5 43.912C251.372 44.2107 251.18 44.4667 250.924 44.68C250.678 44.8933 250.385 45.0587 250.044 45.176C249.702 45.2933 249.318 45.352 248.892 45.352C248.486 45.352 248.108 45.2933 247.756 45.176C247.404 45.0587 247.105 44.8933 246.86 44.68C246.614 44.4667 246.422 44.2107 246.284 43.912C246.145 43.6027 246.076 43.2613 246.076 42.888H247.484C247.484 43.3147 247.612 43.6507 247.868 43.896C248.124 44.1413 248.465 44.264 248.892 44.264C249.18 44.264 249.43 44.2107 249.644 44.104C249.857 43.9867 250.017 43.8267 250.124 43.624C250.241 43.4213 250.3 43.176 250.3 42.888ZM259.703 55V47.72H256.775V46.28H264.407V47.72H261.479V55H259.703ZM270.866 46.28H272.626L269.042 55.56C268.85 56.0613 268.653 56.488 268.45 56.84C268.258 57.192 268.039 57.48 267.794 57.704C267.559 57.928 267.287 58.0933 266.978 58.2C266.679 58.3067 266.343 58.36 265.97 58.36C265.778 58.36 265.591 58.344 265.41 58.312C265.229 58.2907 265.069 58.2533 264.93 58.2L264.85 56.84C264.967 56.872 265.085 56.8933 265.202 56.904C265.319 56.9147 265.437 56.92 265.554 56.92C265.821 56.92 266.05 56.8827 266.242 56.808C266.445 56.744 266.621 56.632 266.77 56.472C266.93 56.3227 267.079 56.1147 267.218 55.848C267.357 55.592 267.506 55.272 267.666 54.888L267.714 54.76L264.21 46.28H266.066L268.546 52.792L270.866 46.28ZM275.136 46.28L275.264 47.896C275.371 47.7253 275.483 47.5707 275.6 47.432C275.92 47.016 276.31 46.696 276.768 46.472C277.238 46.2373 277.76 46.12 278.336 46.12C278.806 46.12 279.238 46.1947 279.632 46.344C280.038 46.4827 280.395 46.6853 280.704 46.952C281.024 47.2187 281.291 47.5387 281.504 47.912C281.728 48.2853 281.899 48.7013 282.016 49.16C282.134 49.6187 282.192 50.1093 282.192 50.632C282.192 51.1653 282.134 51.6613 282.016 52.12C281.899 52.5787 281.728 52.9947 281.504 53.368C281.291 53.7413 281.024 54.0613 280.704 54.328C280.395 54.5947 280.038 54.8027 279.632 54.952C279.238 55.0907 278.806 55.16 278.336 55.16C277.76 55.16 277.238 55.048 276.768 54.824C276.31 54.5893 275.92 54.2693 275.6 53.864C275.515 53.7573 275.435 53.6453 275.36 53.528V58.2H273.584V46.28H275.136ZM277.872 53.688C278.192 53.688 278.486 53.64 278.752 53.544C279.019 53.448 279.254 53.3093 279.456 53.128C279.659 52.9467 279.824 52.728 279.952 52.472C280.091 52.216 280.192 51.9387 280.256 51.64C280.331 51.3307 280.368 51 280.368 50.648C280.368 50.2853 280.331 49.9493 280.256 49.64C280.192 49.3307 280.091 49.0533 279.952 48.808C279.824 48.552 279.659 48.3333 279.456 48.152C279.254 47.9707 279.019 47.832 278.752 47.736C278.486 47.64 278.192 47.592 277.872 47.592C277.35 47.592 276.902 47.7253 276.528 47.992C276.155 48.248 275.867 48.6053 275.664 49.064C275.462 49.5227 275.36 50.0507 275.36 50.648C275.36 51.0853 275.414 51.4907 275.52 51.864C275.638 52.2373 275.803 52.5627 276.016 52.84C276.24 53.1067 276.507 53.3147 276.816 53.464C277.126 53.6133 277.478 53.688 277.872 53.688ZM283.866 55V46.28H285.642V49.704H289.962V46.28H291.722V55H289.962V51.144H285.642V55H283.866ZM293.976 55V46.28H295.704V52.616L299.928 46.28H301.656V55H299.928V48.664L295.704 55H293.976ZM305.451 46.28L305.579 47.896C305.685 47.7253 305.797 47.5707 305.915 47.432C306.235 47.016 306.624 46.696 307.083 46.472C307.552 46.2373 308.075 46.12 308.651 46.12C309.12 46.12 309.552 46.1947 309.947 46.344C310.352 46.4827 310.709 46.6853 311.019 46.952C311.339 47.2187 311.605 47.5387 311.819 47.912C312.043 48.2853 312.213 48.7013 312.331 49.16C312.448 49.6187 312.507 50.1093 312.507 50.632C312.507 51.1653 312.448 51.6613 312.331 52.12C312.213 52.5787 312.043 52.9947 311.819 53.368C311.605 53.7413 311.339 54.0613 311.019 54.328C310.709 54.5947 310.352 54.8027 309.947 54.952C309.552 55.0907 309.12 55.16 308.651 55.16C308.075 55.16 307.552 55.048 307.083 54.824C306.624 54.5893 306.235 54.2693 305.915 53.864C305.829 53.7573 305.749 53.6453 305.675 53.528V58.2H303.899V46.28H305.451ZM308.187 53.688C308.507 53.688 308.8 53.64 309.067 53.544C309.333 53.448 309.568 53.3093 309.771 53.128C309.973 52.9467 310.139 52.728 310.267 52.472C310.405 52.216 310.507 51.9387 310.571 51.64C310.645 51.3307 310.683 51 310.683 50.648C310.683 50.2853 310.645 49.9493 310.571 49.64C310.507 49.3307 310.405 49.0533 310.267 48.808C310.139 48.552 309.973 48.3333 309.771 48.152C309.568 47.9707 309.333 47.832 309.067 47.736C308.8 47.64 308.507 47.592 308.187 47.592C307.664 47.592 307.216 47.7253 306.843 47.992C306.469 48.248 306.181 48.6053 305.979 49.064C305.776 49.5227 305.675 50.0507 305.675 50.648C305.675 51.0853 305.728 51.4907 305.835 51.864C305.952 52.2373 306.117 52.5627 306.331 52.84C306.555 53.1067 306.821 53.3147 307.131 53.464C307.44 53.6133 307.792 53.688 308.187 53.688ZM317.197 55V46.28H324.941V55H323.165V47.72H318.973V55H317.197ZM330.926 55.16C330.382 55.16 329.886 55.0907 329.438 54.952C328.99 54.8133 328.59 54.616 328.238 54.36C327.886 54.0933 327.587 53.7787 327.342 53.416C327.107 53.0427 326.926 52.6267 326.798 52.168C326.681 51.6987 326.622 51.1867 326.622 50.632C326.622 50.0987 326.681 49.5973 326.798 49.128C326.926 48.6587 327.107 48.2373 327.342 47.864C327.587 47.4907 327.886 47.176 328.238 46.92C328.59 46.6533 328.99 46.456 329.438 46.328C329.886 46.1893 330.382 46.12 330.926 46.12C331.481 46.12 331.982 46.1893 332.43 46.328C332.889 46.456 333.289 46.6533 333.63 46.92C333.982 47.176 334.281 47.4907 334.526 47.864C334.771 48.2373 334.953 48.6587 335.07 49.128C335.198 49.5973 335.262 50.0987 335.262 50.632C335.262 51.1867 335.198 51.6987 335.07 52.168C334.953 52.6267 334.771 53.0427 334.526 53.416C334.281 53.7787 333.982 54.0933 333.63 54.36C333.289 54.616 332.889 54.8133 332.43 54.952C331.982 55.0907 331.481 55.16 330.926 55.16ZM330.926 53.72C331.278 53.72 331.582 53.672 331.838 53.576C332.105 53.48 332.339 53.3467 332.542 53.176C332.745 53.0053 332.91 52.7973 333.038 52.552C333.177 52.296 333.278 52.008 333.342 51.688C333.406 51.368 333.438 51.016 333.438 50.632C333.438 50.248 333.406 49.896 333.342 49.576C333.278 49.256 333.177 48.9733 333.038 48.728C332.91 48.4827 332.745 48.2747 332.542 48.104C332.339 47.9227 332.105 47.7893 331.838 47.704C331.582 47.608 331.278 47.56 330.926 47.56C330.595 47.56 330.297 47.608 330.03 47.704C329.763 47.7893 329.529 47.9227 329.326 48.104C329.134 48.2747 328.969 48.488 328.83 48.744C328.691 48.9893 328.59 49.272 328.526 49.592C328.462 49.9013 328.43 50.248 328.43 50.632C328.43 51.016 328.462 51.368 328.526 51.688C328.601 52.008 328.702 52.296 328.83 52.552C328.969 52.7973 329.134 53.0053 329.326 53.176C329.529 53.3467 329.763 53.48 330.03 53.576C330.297 53.672 330.595 53.72 330.926 53.72ZM339.42 49.416C339.42 48.7333 339.5 48.0987 339.66 47.512C339.831 46.9147 340.071 46.3813 340.38 45.912C340.69 45.432 341.063 45.0267 341.5 44.696C341.938 44.3547 342.428 44.0933 342.972 43.912C343.527 43.7307 344.13 43.64 344.78 43.64C345.698 43.64 346.498 43.7893 347.18 44.088C347.863 44.3867 348.423 44.824 348.86 45.4C349.308 45.9653 349.628 46.664 349.82 47.496L347.916 47.864C347.799 47.2987 347.607 46.8187 347.34 46.424C347.074 46.0187 346.727 45.7147 346.3 45.512C345.884 45.2987 345.378 45.192 344.78 45.192C344.343 45.192 343.943 45.256 343.58 45.384C343.228 45.5013 342.914 45.6827 342.636 45.928C342.359 46.1627 342.124 46.456 341.932 46.808C341.74 47.1493 341.596 47.5387 341.5 47.976C341.404 48.4133 341.356 48.8933 341.356 49.416C341.356 49.9387 341.404 50.4187 341.5 50.856C341.596 51.2933 341.74 51.6827 341.932 52.024C342.124 52.3653 342.359 52.6587 342.636 52.904C342.914 53.1387 343.228 53.32 343.58 53.448C343.943 53.5653 344.343 53.624 344.78 53.624C345.378 53.624 345.895 53.5173 346.332 53.304C346.78 53.0907 347.138 52.776 347.404 52.36C347.682 51.944 347.863 51.4427 347.948 50.856L349.82 51.224C349.682 52.0667 349.388 52.7813 348.94 53.368C348.492 53.9547 347.916 54.4027 347.212 54.712C346.508 55.0107 345.698 55.16 344.78 55.16C344.215 55.16 343.687 55.1013 343.196 54.984C342.716 54.856 342.274 54.6747 341.868 54.44C341.474 54.1947 341.122 53.9067 340.812 53.576C340.514 53.2347 340.258 52.8507 340.044 52.424C339.842 51.9973 339.687 51.5333 339.58 51.032C339.474 50.52 339.42 49.9813 339.42 49.416ZM350.524 51.512L352.364 51.256C352.46 51.7893 352.636 52.232 352.892 52.584C353.148 52.936 353.495 53.2027 353.932 53.384C354.37 53.5653 354.887 53.656 355.484 53.656C355.932 53.656 356.316 53.6187 356.636 53.544C356.967 53.4587 357.244 53.3467 357.468 53.208C357.692 53.0693 357.858 52.8987 357.964 52.696C358.071 52.4933 358.124 52.2693 358.124 52.024C358.124 51.6613 358.034 51.368 357.852 51.144C357.682 50.92 357.42 50.7387 357.068 50.6C356.716 50.4613 356.274 50.3493 355.74 50.264L354.524 50.056C353.991 49.9707 353.5 49.848 353.052 49.688C352.615 49.528 352.236 49.3307 351.916 49.096C351.596 48.8507 351.351 48.552 351.18 48.2C351.01 47.8373 350.924 47.4107 350.924 46.92C350.924 46.4293 351.02 45.9867 351.212 45.592C351.415 45.1867 351.703 44.84 352.076 44.552C352.45 44.264 352.903 44.04 353.436 43.88C353.97 43.72 354.572 43.64 355.244 43.64C356.162 43.64 356.935 43.768 357.564 44.024C358.204 44.28 358.706 44.6587 359.068 45.16C359.431 45.6507 359.666 46.2747 359.772 47.032L357.948 47.288C357.81 46.5627 357.527 46.024 357.1 45.672C356.674 45.32 356.044 45.144 355.212 45.144C354.818 45.144 354.471 45.1867 354.172 45.272C353.874 45.3467 353.623 45.4533 353.42 45.592C353.218 45.7307 353.063 45.896 352.956 46.088C352.86 46.28 352.812 46.4933 352.812 46.728C352.812 47.1013 352.908 47.3947 353.1 47.608C353.303 47.8213 353.586 47.9867 353.948 48.104C354.311 48.2213 354.754 48.3333 355.276 48.44L356.476 48.648C357.212 48.7867 357.842 48.9733 358.364 49.208C358.898 49.4427 359.303 49.7733 359.58 50.2C359.868 50.616 360.012 51.16 360.012 51.832C360.012 52.3653 359.906 52.84 359.692 53.256C359.49 53.672 359.186 54.024 358.78 54.312C358.386 54.5893 357.906 54.8027 357.34 54.952C356.775 55.0907 356.14 55.16 355.436 55.16C354.69 55.16 354.034 55.0853 353.468 54.936C352.903 54.7867 352.418 54.5627 352.012 54.264C351.607 53.9653 351.282 53.592 351.036 53.144C350.791 52.6853 350.62 52.1413 350.524 51.512ZM361.543 55V53.112H363.415V55H361.543ZM361.543 48.168V46.28H363.415V48.168H361.543ZM370.551 50.712V49.272H375.735V55H374.455L374.311 53.08C374.108 53.4427 373.858 53.7573 373.559 54.024C373.164 54.3973 372.706 54.68 372.183 54.872C371.66 55.064 371.068 55.16 370.407 55.16C369.756 55.16 369.154 55.0747 368.599 54.904C368.044 54.7227 367.548 54.4667 367.111 54.136C366.674 53.8053 366.3 53.4053 365.991 52.936C365.692 52.4667 365.463 51.9387 365.303 51.352C365.143 50.7547 365.063 50.1093 365.063 49.416C365.063 48.7227 365.148 48.0827 365.319 47.496C365.49 46.8987 365.73 46.3653 366.039 45.896C366.359 45.416 366.743 45.0107 367.191 44.68C367.65 44.3387 368.167 44.0827 368.743 43.912C369.319 43.7307 369.948 43.64 370.631 43.64C371.527 43.64 372.306 43.7787 372.967 44.056C373.639 44.3227 374.194 44.7227 374.631 45.256C375.068 45.7787 375.388 46.424 375.591 47.192L373.783 47.592C373.666 47.08 373.468 46.648 373.191 46.296C372.914 45.9333 372.562 45.6613 372.135 45.48C371.708 45.288 371.212 45.192 370.647 45.192C370.167 45.192 369.735 45.256 369.351 45.384C368.978 45.5013 368.642 45.6773 368.343 45.912C368.055 46.1467 367.81 46.4347 367.607 46.776C367.404 47.1173 367.25 47.512 367.143 47.96C367.047 48.3973 366.999 48.8827 366.999 49.416C366.999 49.9387 367.047 50.424 367.143 50.872C367.25 51.3093 367.404 51.6987 367.607 52.04C367.81 52.3813 368.055 52.6693 368.343 52.904C368.631 53.1387 368.962 53.32 369.335 53.448C369.708 53.5653 370.124 53.624 370.583 53.624C371.351 53.624 371.991 53.4907 372.503 53.224C373.015 52.9467 373.404 52.552 373.671 52.04C373.874 51.656 374.002 51.2133 374.055 50.712H370.551ZM382.534 55.16C381.862 55.16 381.244 55.0693 380.678 54.888C380.113 54.7067 379.612 54.4507 379.174 54.12C378.737 53.7893 378.364 53.3893 378.054 52.92C377.745 52.44 377.51 51.9067 377.35 51.32C377.19 50.7333 377.11 50.0987 377.11 49.416C377.11 48.7333 377.19 48.0987 377.35 47.512C377.51 46.9147 377.745 46.3813 378.054 45.912C378.364 45.432 378.737 45.0267 379.174 44.696C379.612 44.3547 380.113 44.0933 380.678 43.912C381.244 43.7307 381.862 43.64 382.534 43.64C383.228 43.64 383.857 43.7307 384.422 43.912C384.988 44.0933 385.489 44.3547 385.926 44.696C386.364 45.0267 386.737 45.432 387.046 45.912C387.356 46.3813 387.585 46.9093 387.734 47.496C387.894 48.0827 387.974 48.7173 387.974 49.4C387.974 50.0827 387.894 50.7173 387.734 51.304C387.585 51.8907 387.356 52.424 387.046 52.904C386.737 53.3733 386.364 53.7787 385.926 54.12C385.489 54.4507 384.988 54.7067 384.422 54.888C383.857 55.0693 383.228 55.16 382.534 55.16ZM382.534 53.608C383.004 53.608 383.425 53.544 383.798 53.416C384.172 53.288 384.497 53.1067 384.774 52.872C385.062 52.6267 385.297 52.3333 385.478 51.992C385.67 51.6507 385.814 51.2667 385.91 50.84C386.006 50.4027 386.054 49.9227 386.054 49.4C386.054 48.888 386.006 48.4187 385.91 47.992C385.814 47.5547 385.67 47.1653 385.478 46.824C385.297 46.472 385.062 46.1787 384.774 45.944C384.497 45.6987 384.172 45.512 383.798 45.384C383.425 45.256 383.004 45.192 382.534 45.192C382.086 45.192 381.676 45.256 381.302 45.384C380.929 45.512 380.598 45.6987 380.31 45.944C380.033 46.1787 379.798 46.472 379.606 46.824C379.414 47.1653 379.27 47.5547 379.174 47.992C379.089 48.4187 379.046 48.8933 379.046 49.416C379.046 49.9387 379.089 50.4133 379.174 50.84C379.27 51.2667 379.414 51.656 379.606 52.008C379.798 52.3493 380.033 52.6427 380.31 52.888C380.598 53.1227 380.929 53.304 381.302 53.432C381.676 53.5493 382.086 53.608 382.534 53.608ZM389.638 55V53.112H391.51V55H389.638ZM12.664 73V61.8H14.76L18.632 69.128L22.456 61.8H24.52V73H22.84V64.408L19.432 70.872H17.8L14.344 64.408V73H12.664ZM30.8431 73.16C30.2885 73.16 29.7765 73.0907 29.3071 72.952C28.8485 72.8027 28.4431 72.6 28.0911 72.344C27.7391 72.0773 27.4405 71.7573 27.1951 71.384C26.9498 71.0107 26.7631 70.5947 26.6351 70.136C26.5071 69.6667 26.4431 69.1653 26.4431 68.632C26.4431 68.0987 26.5018 67.6027 26.6191 67.144C26.7471 66.6853 26.9338 66.2747 27.1791 65.912C27.4245 65.5387 27.7178 65.2187 28.0591 64.952C28.4111 64.6853 28.8165 64.4827 29.2751 64.344C29.7338 64.1947 30.2405 64.12 30.7951 64.12C31.4245 64.12 31.9951 64.2213 32.5071 64.424C33.0191 64.6267 33.4565 64.92 33.8191 65.304C34.1925 65.6773 34.4751 66.1253 34.6671 66.648C34.8698 67.16 34.9711 67.736 34.9711 68.376C34.9711 68.504 34.9658 68.632 34.9551 68.76C34.9445 68.8773 34.9231 68.9947 34.8911 69.112H28.1871C28.1978 69.304 28.2245 69.4907 28.2671 69.672C28.3311 70.0027 28.4325 70.296 28.5711 70.552C28.7205 70.7973 28.9018 71.016 29.1151 71.208C29.3285 71.3893 29.5791 71.528 29.8671 71.624C30.1551 71.72 30.4805 71.768 30.8431 71.768C31.2911 71.768 31.6751 71.704 31.9951 71.576C32.3258 71.448 32.5978 71.2667 32.8111 71.032C33.0245 70.7867 33.1791 70.4933 33.2751 70.152L34.9071 70.44C34.7578 71.0053 34.5125 71.496 34.1711 71.912C33.8298 72.3173 33.3818 72.6267 32.8271 72.84C32.2725 73.0533 31.6111 73.16 30.8431 73.16ZM28.2191 67.832H33.2911C33.2698 67.5653 33.2165 67.32 33.1311 67.096C33.0245 66.7653 32.8591 66.4827 32.6351 66.248C32.4218 66.0133 32.1605 65.832 31.8511 65.704C31.5525 65.576 31.2058 65.512 30.8111 65.512C30.4591 65.512 30.1391 65.56 29.8511 65.656C29.5738 65.7413 29.3285 65.8747 29.1151 66.056C28.9125 66.2373 28.7365 66.456 28.5871 66.712C28.4378 66.968 28.3311 67.256 28.2671 67.576C28.2458 67.6613 28.2298 67.7467 28.2191 67.832ZM38.1182 64.28L38.2462 65.896C38.3529 65.7253 38.4649 65.5707 38.5822 65.432C38.9022 65.016 39.2916 64.696 39.7502 64.472C40.2196 64.2373 40.7422 64.12 41.3182 64.12C41.7876 64.12 42.2196 64.1947 42.6142 64.344C43.0196 64.4827 43.3769 64.6853 43.6862 64.952C44.0062 65.2187 44.2729 65.5387 44.4862 65.912C44.7102 66.2853 44.8809 66.7013 44.9983 67.16C45.1156 67.6187 45.1742 68.1093 45.1742 68.632C45.1742 69.1653 45.1156 69.6613 44.9983 70.12C44.8809 70.5787 44.7102 70.9947 44.4862 71.368C44.2729 71.7413 44.0062 72.0613 43.6862 72.328C43.3769 72.5947 43.0196 72.8027 42.6142 72.952C42.2196 73.0907 41.7876 73.16 41.3182 73.16C40.7422 73.16 40.2196 73.048 39.7502 72.824C39.2916 72.5893 38.9022 72.2693 38.5822 71.864C38.4969 71.7573 38.4169 71.6453 38.3422 71.528V76.2H36.5662V64.28H38.1182ZM40.8542 71.688C41.1742 71.688 41.4676 71.64 41.7342 71.544C42.0009 71.448 42.2356 71.3093 42.4382 71.128C42.6409 70.9467 42.8062 70.728 42.9342 70.472C43.0729 70.216 43.1742 69.9387 43.2382 69.64C43.3129 69.3307 43.3502 69 43.3502 68.648C43.3502 68.2853 43.3129 67.9493 43.2382 67.64C43.1742 67.3307 43.0729 67.0533 42.9342 66.808C42.8062 66.552 42.6409 66.3333 42.4382 66.152C42.2356 65.9707 42.0009 65.832 41.7342 65.736C41.4676 65.64 41.1742 65.592 40.8542 65.592C40.3316 65.592 39.8836 65.7253 39.5102 65.992C39.1369 66.248 38.8489 66.6053 38.6462 67.064C38.4436 67.5227 38.3422 68.0507 38.3422 68.648C38.3422 69.0853 38.3956 69.4907 38.5022 69.864C38.6196 70.2373 38.7849 70.5627 38.9982 70.84C39.2222 71.1067 39.4889 71.3147 39.7982 71.464C40.1076 71.6133 40.4596 71.688 40.8542 71.688ZM50.5921 73.16C50.0481 73.16 49.5521 73.0907 49.1041 72.952C48.6561 72.8133 48.2561 72.616 47.9041 72.36C47.5521 72.0933 47.2535 71.7787 47.0081 71.416C46.7735 71.0427 46.5921 70.6267 46.4641 70.168C46.3468 69.6987 46.2881 69.1867 46.2881 68.632C46.2881 68.0987 46.3468 67.5973 46.4641 67.128C46.5921 66.6587 46.7735 66.2373 47.0081 65.864C47.2535 65.4907 47.5521 65.176 47.9041 64.92C48.2561 64.6533 48.6561 64.456 49.1041 64.328C49.5521 64.1893 50.0481 64.12 50.5921 64.12C51.1468 64.12 51.6481 64.1893 52.0961 64.328C52.5548 64.456 52.9548 64.6533 53.2961 64.92C53.6481 65.176 53.9468 65.4907 54.1921 65.864C54.4375 66.2373 54.6188 66.6587 54.7361 67.128C54.8641 67.5973 54.9281 68.0987 54.9281 68.632C54.9281 69.1867 54.8641 69.6987 54.7361 70.168C54.6188 70.6267 54.4375 71.0427 54.1921 71.416C53.9468 71.7787 53.6481 72.0933 53.2961 72.36C52.9548 72.616 52.5548 72.8133 52.0961 72.952C51.6481 73.0907 51.1468 73.16 50.5921 73.16ZM50.5921 71.72C50.9441 71.72 51.2481 71.672 51.5041 71.576C51.7708 71.48 52.0055 71.3467 52.2081 71.176C52.4108 71.0053 52.5761 70.7973 52.7041 70.552C52.8428 70.296 52.9441 70.008 53.0081 69.688C53.0721 69.368 53.1041 69.016 53.1041 68.632C53.1041 68.248 53.0721 67.896 53.0081 67.576C52.9441 67.256 52.8428 66.9733 52.7041 66.728C52.5761 66.4827 52.4108 66.2747 52.2081 66.104C52.0055 65.9227 51.7708 65.7893 51.5041 65.704C51.2481 65.608 50.9441 65.56 50.5921 65.56C50.2615 65.56 49.9628 65.608 49.6961 65.704C49.4295 65.7893 49.1948 65.9227 48.9921 66.104C48.8001 66.2747 48.6348 66.488 48.4961 66.744C48.3575 66.9893 48.2561 67.272 48.1921 67.592C48.1281 67.9013 48.0961 68.248 48.0961 68.632C48.0961 69.016 48.1281 69.368 48.1921 69.688C48.2668 70.008 48.3681 70.296 48.4961 70.552C48.6348 70.7973 48.8001 71.0053 48.9921 71.176C49.1948 71.3467 49.4295 71.48 49.6961 71.576C49.9628 71.672 50.2615 71.72 50.5921 71.72ZM56.6144 73V64.28H64.3584V73H62.5824V65.72H58.3904V73H56.6144ZM68.1514 64.28L68.2794 65.896C68.386 65.7253 68.498 65.5707 68.6154 65.432C68.9354 65.016 69.3247 64.696 69.7834 64.472C70.2527 64.2373 70.7754 64.12 71.3514 64.12C71.8207 64.12 72.2527 64.1947 72.6474 64.344C73.0527 64.4827 73.41 64.6853 73.7194 64.952C74.0394 65.2187 74.306 65.5387 74.5194 65.912C74.7434 66.2853 74.914 66.7013 75.0314 67.16C75.1487 67.6187 75.2074 68.1093 75.2074 68.632C75.2074 69.1653 75.1487 69.6613 75.0314 70.12C74.914 70.5787 74.7434 70.9947 74.5194 71.368C74.306 71.7413 74.0394 72.0613 73.7194 72.328C73.41 72.5947 73.0527 72.8027 72.6474 72.952C72.2527 73.0907 71.8207 73.16 71.3514 73.16C70.7754 73.16 70.2527 73.048 69.7834 72.824C69.3247 72.5893 68.9354 72.2693 68.6154 71.864C68.53 71.7573 68.45 71.6453 68.3754 71.528V76.2H66.5994V64.28H68.1514ZM70.8874 71.688C71.2074 71.688 71.5007 71.64 71.7674 71.544C72.034 71.448 72.2687 71.3093 72.4714 71.128C72.674 70.9467 72.8394 70.728 72.9674 70.472C73.106 70.216 73.2074 69.9387 73.2714 69.64C73.346 69.3307 73.3834 69 73.3834 68.648C73.3834 68.2853 73.346 67.9493 73.2714 67.64C73.2074 67.3307 73.106 67.0533 72.9674 66.808C72.8394 66.552 72.674 66.3333 72.4714 66.152C72.2687 65.9707 72.034 65.832 71.7674 65.736C71.5007 65.64 71.2074 65.592 70.8874 65.592C70.3647 65.592 69.9167 65.7253 69.5434 65.992C69.17 66.248 68.882 66.6053 68.6794 67.064C68.4767 67.5227 68.3754 68.0507 68.3754 68.648C68.3754 69.0853 68.4287 69.4907 68.5354 69.864C68.6527 70.2373 68.818 70.5627 69.0314 70.84C69.2554 71.1067 69.522 71.3147 69.8314 71.464C70.1407 71.6133 70.4927 71.688 70.8874 71.688ZM76.8813 73V64.28H78.6093V70.616L82.8333 64.28H84.5613V73H82.8333V66.664L78.6093 73H76.8813ZM93.2357 73H91.5077V69.864H90.0357L87.8917 73H85.9877L88.3397 69.624C88.0837 69.5707 87.8437 69.496 87.6197 69.4C87.1504 69.1867 86.7824 68.8827 86.5157 68.488C86.2491 68.0827 86.1157 67.6027 86.1157 67.048C86.1157 66.472 86.2491 65.976 86.5157 65.56C86.7824 65.144 87.1611 64.824 87.6517 64.6C88.1424 64.376 88.7131 64.264 89.3637 64.264H93.2357V73ZM91.5077 68.52V65.576H89.4917C89.1611 65.576 88.8677 65.6347 88.6117 65.752C88.3664 65.8693 88.1744 66.04 88.0357 66.264C87.9077 66.4773 87.8437 66.744 87.8437 67.064C87.8437 67.3733 87.9131 67.64 88.0517 67.864C88.1904 68.0773 88.3824 68.2427 88.6277 68.36C88.8731 68.4667 89.1611 68.52 89.4917 68.52H91.5077ZM97.2362 73V65.72H94.3082V64.28H101.94V65.72H99.0122V73H97.2362ZM103.024 73V64.28H104.752V70.616L108.976 64.28H110.704V73H108.976V66.664L104.752 73H103.024ZM116.786 73.16C116.232 73.16 115.72 73.0907 115.25 72.952C114.792 72.8027 114.386 72.6 114.034 72.344C113.682 72.0773 113.384 71.7573 113.138 71.384C112.893 71.0107 112.706 70.5947 112.578 70.136C112.45 69.6667 112.386 69.1653 112.386 68.632C112.386 68.0987 112.445 67.6027 112.562 67.144C112.69 66.6853 112.877 66.2747 113.122 65.912C113.368 65.5387 113.661 65.2187 114.002 64.952C114.354 64.6853 114.76 64.4827 115.218 64.344C115.677 64.1947 116.184 64.12 116.738 64.12C117.368 64.12 117.938 64.2213 118.45 64.424C118.962 64.6267 119.4 64.92 119.762 65.304C120.136 65.6773 120.418 66.1253 120.61 66.648C120.813 67.16 120.914 67.736 120.914 68.376C120.914 68.504 120.909 68.632 120.898 68.76C120.888 68.8773 120.866 68.9947 120.834 69.112H114.13C114.141 69.304 114.168 69.4907 114.21 69.672C114.274 70.0027 114.376 70.296 114.514 70.552C114.664 70.7973 114.845 71.016 115.058 71.208C115.272 71.3893 115.522 71.528 115.81 71.624C116.098 71.72 116.424 71.768 116.786 71.768C117.234 71.768 117.618 71.704 117.938 71.576C118.269 71.448 118.541 71.2667 118.754 71.032C118.968 70.7867 119.122 70.4933 119.218 70.152L120.85 70.44C120.701 71.0053 120.456 71.496 120.114 71.912C119.773 72.3173 119.325 72.6267 118.77 72.84C118.216 73.0533 117.554 73.16 116.786 73.16ZM114.162 67.832H119.234C119.213 67.5653 119.16 67.32 119.074 67.096C118.968 66.7653 118.802 66.4827 118.578 66.248C118.365 66.0133 118.104 65.832 117.794 65.704C117.496 65.576 117.149 65.512 116.754 65.512C116.402 65.512 116.082 65.56 115.794 65.656C115.517 65.7413 115.272 65.8747 115.058 66.056C114.856 66.2373 114.68 66.456 114.53 66.712C114.381 66.968 114.274 67.256 114.21 67.576C114.189 67.6613 114.173 67.7467 114.162 67.832ZM133.222 67.256L131.51 67.544C131.446 67.1173 131.312 66.76 131.11 66.472C130.918 66.1733 130.667 65.9493 130.358 65.8C130.048 65.64 129.686 65.56 129.27 65.56C128.939 65.56 128.64 65.608 128.374 65.704C128.107 65.8 127.872 65.9333 127.67 66.104C127.478 66.2747 127.312 66.488 127.174 66.744C127.046 66.9893 126.944 67.272 126.87 67.592C126.806 67.912 126.774 68.264 126.774 68.648C126.774 69.0213 126.806 69.368 126.87 69.688C126.944 69.9973 127.046 70.28 127.174 70.536C127.312 70.792 127.483 71.0053 127.686 71.176C127.888 71.3467 128.118 71.48 128.374 71.576C128.64 71.672 128.939 71.72 129.27 71.72C129.686 71.72 130.048 71.6453 130.358 71.496C130.667 71.3467 130.923 71.128 131.126 70.84C131.339 70.5413 131.488 70.1627 131.574 69.704L133.254 69.992C133.115 70.6747 132.864 71.2507 132.502 71.72C132.15 72.1893 131.696 72.5467 131.142 72.792C130.598 73.0373 129.974 73.16 129.27 73.16C128.726 73.16 128.23 73.0907 127.782 72.952C127.334 72.8133 126.934 72.616 126.582 72.36C126.23 72.0933 125.931 71.7787 125.686 71.416C125.451 71.0427 125.27 70.6267 125.142 70.168C125.024 69.7093 124.966 69.2027 124.966 68.648C124.966 68.104 125.024 67.5973 125.142 67.128C125.27 66.6587 125.451 66.2373 125.686 65.864C125.931 65.4907 126.23 65.176 126.582 64.92C126.934 64.6533 127.334 64.456 127.782 64.328C128.23 64.1893 128.726 64.12 129.27 64.12C130.006 64.12 130.646 64.2427 131.19 64.488C131.734 64.7227 132.176 65.0747 132.518 65.544C132.859 66.0133 133.094 66.584 133.222 67.256ZM138.38 73.16C137.836 73.16 137.34 73.0907 136.892 72.952C136.444 72.8133 136.044 72.616 135.692 72.36C135.34 72.0933 135.041 71.7787 134.796 71.416C134.561 71.0427 134.38 70.6267 134.252 70.168C134.134 69.6987 134.076 69.1867 134.076 68.632C134.076 68.0987 134.134 67.5973 134.252 67.128C134.38 66.6587 134.561 66.2373 134.796 65.864C135.041 65.4907 135.34 65.176 135.692 64.92C136.044 64.6533 136.444 64.456 136.892 64.328C137.34 64.1893 137.836 64.12 138.38 64.12C138.934 64.12 139.436 64.1893 139.884 64.328C140.342 64.456 140.742 64.6533 141.084 64.92C141.436 65.176 141.734 65.4907 141.98 65.864C142.225 66.2373 142.406 66.6587 142.524 67.128C142.652 67.5973 142.716 68.0987 142.716 68.632C142.716 69.1867 142.652 69.6987 142.524 70.168C142.406 70.6267 142.225 71.0427 141.98 71.416C141.734 71.7787 141.436 72.0933 141.084 72.36C140.742 72.616 140.342 72.8133 139.884 72.952C139.436 73.0907 138.934 73.16 138.38 73.16ZM138.38 71.72C138.732 71.72 139.036 71.672 139.292 71.576C139.558 71.48 139.793 71.3467 139.996 71.176C140.198 71.0053 140.364 70.7973 140.492 70.552C140.63 70.296 140.732 70.008 140.796 69.688C140.86 69.368 140.892 69.016 140.892 68.632C140.892 68.248 140.86 67.896 140.796 67.576C140.732 67.256 140.63 66.9733 140.492 66.728C140.364 66.4827 140.198 66.2747 139.996 66.104C139.793 65.9227 139.558 65.7893 139.292 65.704C139.036 65.608 138.732 65.56 138.38 65.56C138.049 65.56 137.75 65.608 137.484 65.704C137.217 65.7893 136.982 65.9227 136.78 66.104C136.588 66.2747 136.422 66.488 136.284 66.744C136.145 66.9893 136.044 67.272 135.98 67.592C135.916 67.9013 135.884 68.248 135.884 68.632C135.884 69.016 135.916 69.368 135.98 69.688C136.054 70.008 136.156 70.296 136.284 70.552C136.422 70.7973 136.588 71.0053 136.78 71.176C136.982 71.3467 137.217 71.48 137.484 71.576C137.75 71.672 138.049 71.72 138.38 71.72ZM148.402 73.16C147.709 73.16 147.09 73.048 146.546 72.824C146.013 72.6 145.565 72.2747 145.202 71.848C144.839 71.4213 144.562 70.904 144.37 70.296C144.189 69.6773 144.098 68.9787 144.098 68.2V67.496C144.098 66.3973 144.194 65.4533 144.386 64.664C144.578 63.8747 144.877 63.2293 145.282 62.728C145.687 62.216 146.205 61.832 146.834 61.576C147.463 61.3093 148.221 61.1493 149.106 61.096L150.658 60.984C150.925 60.9627 151.159 60.936 151.362 60.904C151.565 60.872 151.773 60.8293 151.986 60.776L152.114 62.216C151.911 62.2907 151.687 62.3493 151.442 62.392C151.207 62.4347 150.941 62.4667 150.642 62.488L149.09 62.584C148.503 62.6267 147.991 62.7333 147.554 62.904C147.127 63.0747 146.775 63.336 146.498 63.688C146.221 64.0293 146.018 64.488 145.89 65.064C145.815 65.416 145.762 65.8213 145.73 66.28C145.943 65.8853 146.215 65.5493 146.546 65.272C146.877 64.984 147.25 64.7653 147.666 64.616C148.082 64.4667 148.535 64.392 149.026 64.392C149.506 64.392 149.943 64.4613 150.338 64.6C150.733 64.7387 151.079 64.936 151.378 65.192C151.677 65.4373 151.927 65.7413 152.13 66.104C152.333 66.456 152.487 66.856 152.594 67.304C152.701 67.752 152.754 68.2373 152.754 68.76C152.754 69.2933 152.69 69.7893 152.562 70.248C152.434 70.696 152.242 71.1013 151.986 71.464C151.73 71.816 151.421 72.12 151.058 72.376C150.706 72.632 150.306 72.8293 149.858 72.968C149.421 73.096 148.935 73.16 148.402 73.16ZM148.402 71.72C148.733 71.72 149.031 71.6773 149.298 71.592C149.565 71.496 149.799 71.368 150.002 71.208C150.205 71.048 150.375 70.8453 150.514 70.6C150.663 70.3547 150.77 70.0773 150.834 69.768C150.909 69.4587 150.946 69.1173 150.946 68.744C150.946 68.3707 150.914 68.0293 150.85 67.72C150.786 67.4107 150.69 67.1333 150.562 66.888C150.445 66.6427 150.285 66.44 150.082 66.28C149.89 66.1093 149.666 65.9813 149.41 65.896C149.154 65.8 148.861 65.752 148.53 65.752C148.221 65.752 147.933 65.7947 147.666 65.88C147.399 65.9653 147.159 66.0933 146.946 66.264C146.743 66.424 146.567 66.6267 146.418 66.872C146.269 67.1067 146.151 67.384 146.066 67.704C145.991 68.0133 145.954 68.3547 145.954 68.728C145.954 69.1013 145.986 69.4427 146.05 69.752C146.114 70.0613 146.21 70.3387 146.338 70.584C146.466 70.8187 146.631 71.0213 146.834 71.192C147.037 71.3627 147.266 71.496 147.522 71.592C147.778 71.6773 148.071 71.72 148.402 71.72ZM156.001 64.28L156.129 65.896C156.236 65.7253 156.348 65.5707 156.465 65.432C156.785 65.016 157.175 64.696 157.633 64.472C158.103 64.2373 158.625 64.12 159.201 64.12C159.671 64.12 160.103 64.1947 160.497 64.344C160.903 64.4827 161.26 64.6853 161.569 64.952C161.889 65.2187 162.156 65.5387 162.369 65.912C162.593 66.2853 162.764 66.7013 162.881 67.16C162.999 67.6187 163.057 68.1093 163.057 68.632C163.057 69.1653 162.999 69.6613 162.881 70.12C162.764 70.5787 162.593 70.9947 162.369 71.368C162.156 71.7413 161.889 72.0613 161.569 72.328C161.26 72.5947 160.903 72.8027 160.497 72.952C160.103 73.0907 159.671 73.16 159.201 73.16C158.625 73.16 158.103 73.048 157.633 72.824C157.175 72.5893 156.785 72.2693 156.465 71.864C156.38 71.7573 156.3 71.6453 156.225 71.528V76.2H154.449V64.28H156.001ZM158.737 71.688C159.057 71.688 159.351 71.64 159.617 71.544C159.884 71.448 160.119 71.3093 160.321 71.128C160.524 70.9467 160.689 70.728 160.817 70.472C160.956 70.216 161.057 69.9387 161.121 69.64C161.196 69.3307 161.233 69 161.233 68.648C161.233 68.2853 161.196 67.9493 161.121 67.64C161.057 67.3307 160.956 67.0533 160.817 66.808C160.689 66.552 160.524 66.3333 160.321 66.152C160.119 65.9707 159.884 65.832 159.617 65.736C159.351 65.64 159.057 65.592 158.737 65.592C158.215 65.592 157.767 65.7253 157.393 65.992C157.02 66.248 156.732 66.6053 156.529 67.064C156.327 67.5227 156.225 68.0507 156.225 68.648C156.225 69.0853 156.279 69.4907 156.385 69.864C156.503 70.2373 156.668 70.5627 156.881 70.84C157.105 71.1067 157.372 71.3147 157.681 71.464C157.991 71.6133 158.343 71.688 158.737 71.688ZM164.123 66.936C164.198 66.4667 164.342 66.056 164.555 65.704C164.769 65.352 165.035 65.0587 165.355 64.824C165.675 64.5893 166.049 64.4133 166.475 64.296C166.913 64.1787 167.393 64.12 167.915 64.12C168.481 64.12 168.982 64.184 169.419 64.312C169.867 64.44 170.241 64.6427 170.539 64.92C170.849 65.1867 171.083 65.528 171.243 65.944C171.403 66.3493 171.483 66.84 171.483 67.416V71.128C171.483 71.288 171.505 71.4213 171.547 71.528C171.601 71.624 171.67 71.6933 171.755 71.736C171.851 71.7787 171.963 71.8 172.091 71.8C172.134 71.8 172.182 71.8 172.235 71.8C172.289 71.7893 172.326 71.784 172.347 71.784L172.299 73C172.203 73.0427 172.081 73.0747 171.931 73.096C171.793 73.1173 171.675 73.128 171.579 73.128C171.195 73.128 170.875 73.0693 170.619 72.952C170.374 72.824 170.193 72.6373 170.075 72.392C169.958 72.1573 169.894 71.8693 169.883 71.528C169.83 71.6133 169.771 71.6987 169.707 71.784C169.483 72.072 169.222 72.3227 168.923 72.536C168.625 72.7387 168.294 72.8933 167.931 73C167.579 73.1067 167.195 73.16 166.779 73.16C166.171 73.16 165.643 73.0587 165.195 72.856C164.758 72.6533 164.417 72.36 164.171 71.976C163.937 71.592 163.819 71.1387 163.819 70.616C163.819 70.0933 163.937 69.6453 164.171 69.272C164.406 68.888 164.763 68.5893 165.243 68.376C165.723 68.152 166.331 68.0027 167.067 67.928L169.867 67.656V67.512C169.867 67.1493 169.819 66.84 169.723 66.584C169.638 66.328 169.51 66.12 169.339 65.96C169.169 65.7893 168.961 65.6667 168.715 65.592C168.47 65.5173 168.187 65.48 167.867 65.48C167.473 65.48 167.121 65.544 166.811 65.672C166.502 65.7893 166.257 65.976 166.075 66.232C165.905 66.4773 165.798 66.7867 165.755 67.16L164.123 66.936ZM169.883 68.872L167.243 69.144C166.849 69.1867 166.523 69.2667 166.267 69.384C166.011 69.5013 165.814 69.656 165.675 69.848C165.547 70.0293 165.483 70.248 165.483 70.504C165.483 70.7707 165.542 71 165.659 71.192C165.777 71.384 165.953 71.5333 166.187 71.64C166.433 71.736 166.726 71.784 167.067 71.784C167.387 71.784 167.686 71.7413 167.963 71.656C168.251 71.5707 168.513 71.4533 168.747 71.304C168.982 71.1547 169.185 70.9787 169.355 70.776C169.526 70.5733 169.654 70.344 169.739 70.088C169.835 69.832 169.883 69.5653 169.883 69.288V68.872ZM172.484 71.672C172.708 71.6613 172.911 71.624 173.092 71.56C173.273 71.4853 173.423 71.3733 173.54 71.224C173.721 71.0107 173.855 70.7013 173.94 70.296C174.025 69.88 174.084 69.336 174.116 68.664C174.148 67.9813 174.175 67.1387 174.196 66.136V64.28H180.724V73H178.964V65.72H175.876L175.86 66.344C175.849 67.4747 175.807 68.424 175.732 69.192C175.657 69.96 175.545 70.584 175.396 71.064C175.257 71.544 175.065 71.928 174.82 72.216C174.553 72.5467 174.239 72.776 173.876 72.904C173.513 73.0213 173.076 73.0853 172.564 73.096L172.484 71.672ZM186.726 73.16C186.182 73.16 185.686 73.0907 185.238 72.952C184.79 72.8133 184.39 72.616 184.038 72.36C183.686 72.0933 183.388 71.7787 183.142 71.416C182.908 71.0427 182.726 70.6267 182.598 70.168C182.481 69.6987 182.422 69.1867 182.422 68.632C182.422 68.0987 182.481 67.5973 182.598 67.128C182.726 66.6587 182.908 66.2373 183.142 65.864C183.388 65.4907 183.686 65.176 184.038 64.92C184.39 64.6533 184.79 64.456 185.238 64.328C185.686 64.1893 186.182 64.12 186.726 64.12C187.281 64.12 187.782 64.1893 188.23 64.328C188.689 64.456 189.089 64.6533 189.43 64.92C189.782 65.176 190.081 65.4907 190.326 65.864C190.572 66.2373 190.753 66.6587 190.87 67.128C190.998 67.5973 191.062 68.0987 191.062 68.632C191.062 69.1867 190.998 69.6987 190.87 70.168C190.753 70.6267 190.572 71.0427 190.326 71.416C190.081 71.7787 189.782 72.0933 189.43 72.36C189.089 72.616 188.689 72.8133 188.23 72.952C187.782 73.0907 187.281 73.16 186.726 73.16ZM186.726 71.72C187.078 71.72 187.382 71.672 187.638 71.576C187.905 71.48 188.14 71.3467 188.342 71.176C188.545 71.0053 188.71 70.7973 188.838 70.552C188.977 70.296 189.078 70.008 189.142 69.688C189.206 69.368 189.238 69.016 189.238 68.632C189.238 68.248 189.206 67.896 189.142 67.576C189.078 67.256 188.977 66.9733 188.838 66.728C188.71 66.4827 188.545 66.2747 188.342 66.104C188.14 65.9227 187.905 65.7893 187.638 65.704C187.382 65.608 187.078 65.56 186.726 65.56C186.396 65.56 186.097 65.608 185.83 65.704C185.564 65.7893 185.329 65.9227 185.126 66.104C184.934 66.2747 184.769 66.488 184.63 66.744C184.492 66.9893 184.39 67.272 184.326 67.592C184.262 67.9013 184.23 68.248 184.23 68.632C184.23 69.016 184.262 69.368 184.326 69.688C184.401 70.008 184.502 70.296 184.63 70.552C184.769 70.7973 184.934 71.0053 185.126 71.176C185.329 71.3467 185.564 71.48 185.83 71.576C186.097 71.672 186.396 71.72 186.726 71.72ZM195.765 73V64.28H197.541V68.344L201.461 64.28H203.573L199.461 68.36L203.669 73H201.493L197.541 68.664V73H195.765ZM203.845 66.936C203.92 66.4667 204.064 66.056 204.277 65.704C204.49 65.352 204.757 65.0587 205.077 64.824C205.397 64.5893 205.77 64.4133 206.197 64.296C206.634 64.1787 207.114 64.12 207.637 64.12C208.202 64.12 208.704 64.184 209.141 64.312C209.589 64.44 209.962 64.6427 210.261 64.92C210.57 65.1867 210.805 65.528 210.965 65.944C211.125 66.3493 211.205 66.84 211.205 67.416V71.128C211.205 71.288 211.226 71.4213 211.269 71.528C211.322 71.624 211.392 71.6933 211.477 71.736C211.573 71.7787 211.685 71.8 211.813 71.8C211.856 71.8 211.904 71.8 211.957 71.8C212.01 71.7893 212.048 71.784 212.069 71.784L212.021 73C211.925 73.0427 211.802 73.0747 211.653 73.096C211.514 73.1173 211.397 73.128 211.301 73.128C210.917 73.128 210.597 73.0693 210.341 72.952C210.096 72.824 209.914 72.6373 209.797 72.392C209.68 72.1573 209.616 71.8693 209.605 71.528C209.552 71.6133 209.493 71.6987 209.429 71.784C209.205 72.072 208.944 72.3227 208.645 72.536C208.346 72.7387 208.016 72.8933 207.653 73C207.301 73.1067 206.917 73.16 206.501 73.16C205.893 73.16 205.365 73.0587 204.917 72.856C204.48 72.6533 204.138 72.36 203.893 71.976C203.658 71.592 203.541 71.1387 203.541 70.616C203.541 70.0933 203.658 69.6453 203.893 69.272C204.128 68.888 204.485 68.5893 204.965 68.376C205.445 68.152 206.053 68.0027 206.789 67.928L209.589 67.656V67.512C209.589 67.1493 209.541 66.84 209.445 66.584C209.36 66.328 209.232 66.12 209.061 65.96C208.89 65.7893 208.682 65.6667 208.437 65.592C208.192 65.5173 207.909 65.48 207.589 65.48C207.194 65.48 206.842 65.544 206.533 65.672C206.224 65.7893 205.978 65.976 205.797 66.232C205.626 66.4773 205.52 66.7867 205.477 67.16L203.845 66.936ZM209.605 68.872L206.965 69.144C206.57 69.1867 206.245 69.2667 205.989 69.384C205.733 69.5013 205.536 69.656 205.397 69.848C205.269 70.0293 205.205 70.248 205.205 70.504C205.205 70.7707 205.264 71 205.381 71.192C205.498 71.384 205.674 71.5333 205.909 71.64C206.154 71.736 206.448 71.784 206.789 71.784C207.109 71.784 207.408 71.7413 207.685 71.656C207.973 71.5707 208.234 71.4533 208.469 71.304C208.704 71.1547 208.906 70.9787 209.077 70.776C209.248 70.5733 209.376 70.344 209.461 70.088C209.557 69.832 209.605 69.5653 209.605 69.288V68.872ZM213.297 73V64.28H215.073V68.344L218.993 64.28H221.105L216.993 68.36L221.201 73H219.025L215.073 68.664V73H213.297ZM228.746 73.16C228.202 73.16 227.706 73.0907 227.258 72.952C226.81 72.8133 226.41 72.616 226.058 72.36C225.706 72.0933 225.407 71.7787 225.162 71.416C224.927 71.0427 224.746 70.6267 224.618 70.168C224.501 69.6987 224.442 69.1867 224.442 68.632C224.442 68.0987 224.501 67.5973 224.618 67.128C224.746 66.6587 224.927 66.2373 225.162 65.864C225.407 65.4907 225.706 65.176 226.058 64.92C226.41 64.6533 226.81 64.456 227.258 64.328C227.706 64.1893 228.202 64.12 228.746 64.12C229.301 64.12 229.802 64.1893 230.25 64.328C230.709 64.456 231.109 64.6533 231.45 64.92C231.802 65.176 232.101 65.4907 232.346 65.864C232.591 66.2373 232.773 66.6587 232.89 67.128C233.018 67.5973 233.082 68.0987 233.082 68.632C233.082 69.1867 233.018 69.6987 232.89 70.168C232.773 70.6267 232.591 71.0427 232.346 71.416C232.101 71.7787 231.802 72.0933 231.45 72.36C231.109 72.616 230.709 72.8133 230.25 72.952C229.802 73.0907 229.301 73.16 228.746 73.16ZM228.746 71.72C229.098 71.72 229.402 71.672 229.658 71.576C229.925 71.48 230.159 71.3467 230.362 71.176C230.565 71.0053 230.73 70.7973 230.858 70.552C230.997 70.296 231.098 70.008 231.162 69.688C231.226 69.368 231.258 69.016 231.258 68.632C231.258 68.248 231.226 67.896 231.162 67.576C231.098 67.256 230.997 66.9733 230.858 66.728C230.73 66.4827 230.565 66.2747 230.362 66.104C230.159 65.9227 229.925 65.7893 229.658 65.704C229.402 65.608 229.098 65.56 228.746 65.56C228.415 65.56 228.117 65.608 227.85 65.704C227.583 65.7893 227.349 65.9227 227.146 66.104C226.954 66.2747 226.789 66.488 226.65 66.744C226.511 66.9893 226.41 67.272 226.346 67.592C226.282 67.9013 226.25 68.248 226.25 68.632C226.25 69.016 226.282 69.368 226.346 69.688C226.421 70.008 226.522 70.296 226.65 70.552C226.789 70.7973 226.954 71.0053 227.146 71.176C227.349 71.3467 227.583 71.48 227.85 71.576C228.117 71.672 228.415 71.72 228.746 71.72ZM234.768 73V64.28H242.512V73H240.736V65.72H236.544V73H234.768ZM244.753 73V64.28H246.529V67.08H248.945C249.596 67.08 250.15 67.2027 250.609 67.448C251.068 67.6933 251.42 68.04 251.665 68.488C251.921 68.9253 252.049 69.448 252.049 70.056C252.049 70.504 251.974 70.9093 251.825 71.272C251.686 71.6347 251.484 71.944 251.217 72.2C250.95 72.456 250.625 72.6533 250.241 72.792C249.857 72.9307 249.425 73 248.945 73H244.753ZM253.153 73V64.28H254.929V73H253.153ZM246.529 68.408V71.672H248.593C248.956 71.672 249.265 71.6133 249.521 71.496C249.788 71.368 249.99 71.1867 250.129 70.952C250.268 70.7067 250.337 70.408 250.337 70.056C250.337 69.6933 250.268 69.3947 250.129 69.16C249.99 68.9147 249.788 68.728 249.521 68.6C249.265 68.472 248.956 68.408 248.593 68.408H246.529ZM258.936 73V65.72H256.008V64.28H263.64V65.72H260.712V73H258.936ZM264.723 73V64.28H266.499V67.704H270.819V64.28H272.579V73H270.819V69.144H266.499V73H264.723ZM274.833 73V64.28H276.609V67.08H279.025C279.676 67.08 280.23 67.2027 280.689 67.448C281.148 67.6933 281.5 68.04 281.745 68.488C282.001 68.9253 282.129 69.448 282.129 70.056C282.129 70.504 282.054 70.9093 281.905 71.272C281.766 71.6347 281.564 71.944 281.297 72.2C281.03 72.456 280.705 72.6533 280.321 72.792C279.937 72.9307 279.505 73 279.025 73H274.833ZM283.233 73V64.28H285.009V73H283.233ZM276.609 68.408V71.672H278.673C279.036 71.672 279.345 71.6133 279.601 71.496C279.868 71.368 280.07 71.1867 280.209 70.952C280.348 70.7067 280.417 70.408 280.417 70.056C280.417 69.6933 280.348 69.3947 280.209 69.16C280.07 68.9147 279.868 68.728 279.601 68.6C279.345 68.472 279.036 68.408 278.673 68.408H276.609ZM292.407 73L290.151 69.736L287.911 73H286.039L289.159 68.488L286.167 64.28H288.119L290.199 67.272L292.311 64.28H294.135L291.127 68.504L294.327 73H292.407ZM298.335 73V64.28H300.063V70.616L304.287 64.28H306.015V73H304.287V66.664L300.063 73H298.335ZM308.258 73V64.28H314.242V65.72H310.034V73H308.258ZM316.857 64.28L316.985 65.896C317.092 65.7253 317.204 65.5707 317.321 65.432C317.641 65.016 318.03 64.696 318.489 64.472C318.958 64.2373 319.481 64.12 320.057 64.12C320.526 64.12 320.958 64.1947 321.353 64.344C321.758 64.4827 322.116 64.6853 322.425 64.952C322.745 65.2187 323.012 65.5387 323.225 65.912C323.449 66.2853 323.62 66.7013 323.737 67.16C323.854 67.6187 323.913 68.1093 323.913 68.632C323.913 69.1653 323.854 69.6613 323.737 70.12C323.62 70.5787 323.449 70.9947 323.225 71.368C323.012 71.7413 322.745 72.0613 322.425 72.328C322.116 72.5947 321.758 72.8027 321.353 72.952C320.958 73.0907 320.526 73.16 320.057 73.16C319.481 73.16 318.958 73.048 318.489 72.824C318.03 72.5893 317.641 72.2693 317.321 71.864C317.236 71.7573 317.156 71.6453 317.081 71.528V76.2H315.305V64.28H316.857ZM319.593 71.688C319.913 71.688 320.206 71.64 320.473 71.544C320.74 71.448 320.974 71.3093 321.177 71.128C321.38 70.9467 321.545 70.728 321.673 70.472C321.812 70.216 321.913 69.9387 321.977 69.64C322.052 69.3307 322.089 69 322.089 68.648C322.089 68.2853 322.052 67.9493 321.977 67.64C321.913 67.3307 321.812 67.0533 321.673 66.808C321.545 66.552 321.38 66.3333 321.177 66.152C320.974 65.9707 320.74 65.832 320.473 65.736C320.206 65.64 319.913 65.592 319.593 65.592C319.07 65.592 318.622 65.7253 318.249 65.992C317.876 66.248 317.588 66.6053 317.385 67.064C317.182 67.5227 317.081 68.0507 317.081 68.648C317.081 69.0853 317.134 69.4907 317.241 69.864C317.358 70.2373 317.524 70.5627 317.737 70.84C317.961 71.1067 318.228 71.3147 318.537 71.464C318.846 71.6133 319.198 71.688 319.593 71.688ZM329.331 73.16C328.787 73.16 328.291 73.0907 327.843 72.952C327.395 72.8133 326.995 72.616 326.643 72.36C326.291 72.0933 325.992 71.7787 325.747 71.416C325.512 71.0427 325.331 70.6267 325.203 70.168C325.086 69.6987 325.027 69.1867 325.027 68.632C325.027 68.0987 325.086 67.5973 325.203 67.128C325.331 66.6587 325.512 66.2373 325.747 65.864C325.992 65.4907 326.291 65.176 326.643 64.92C326.995 64.6533 327.395 64.456 327.843 64.328C328.291 64.1893 328.787 64.12 329.331 64.12C329.886 64.12 330.387 64.1893 330.835 64.328C331.294 64.456 331.694 64.6533 332.035 64.92C332.387 65.176 332.686 65.4907 332.931 65.864C333.176 66.2373 333.358 66.6587 333.475 67.128C333.603 67.5973 333.667 68.0987 333.667 68.632C333.667 69.1867 333.603 69.6987 333.475 70.168C333.358 70.6267 333.176 71.0427 332.931 71.416C332.686 71.7787 332.387 72.0933 332.035 72.36C331.694 72.616 331.294 72.8133 330.835 72.952C330.387 73.0907 329.886 73.16 329.331 73.16ZM329.331 71.72C329.683 71.72 329.987 71.672 330.243 71.576C330.51 71.48 330.744 71.3467 330.947 71.176C331.15 71.0053 331.315 70.7973 331.443 70.552C331.582 70.296 331.683 70.008 331.747 69.688C331.811 69.368 331.843 69.016 331.843 68.632C331.843 68.248 331.811 67.896 331.747 67.576C331.683 67.256 331.582 66.9733 331.443 66.728C331.315 66.4827 331.15 66.2747 330.947 66.104C330.744 65.9227 330.51 65.7893 330.243 65.704C329.987 65.608 329.683 65.56 329.331 65.56C329 65.56 328.702 65.608 328.435 65.704C328.168 65.7893 327.934 65.9227 327.731 66.104C327.539 66.2747 327.374 66.488 327.235 66.744C327.096 66.9893 326.995 67.272 326.931 67.592C326.867 67.9013 326.835 68.248 326.835 68.632C326.835 69.016 326.867 69.368 326.931 69.688C327.006 70.008 327.107 70.296 327.235 70.552C327.374 70.7973 327.539 71.0053 327.731 71.176C327.934 71.3467 328.168 71.48 328.435 71.576C328.702 71.672 329 71.72 329.331 71.72ZM335.353 73V64.28H337.129V68.344L341.049 64.28H343.161L339.049 68.36L343.257 73H341.081L337.129 68.664V73H335.353ZM347.754 73.16C347.21 73.16 346.714 73.0907 346.266 72.952C345.818 72.8133 345.418 72.616 345.066 72.36C344.714 72.0933 344.415 71.7787 344.17 71.416C343.935 71.0427 343.754 70.6267 343.626 70.168C343.509 69.6987 343.45 69.1867 343.45 68.632C343.45 68.0987 343.509 67.5973 343.626 67.128C343.754 66.6587 343.935 66.2373 344.17 65.864C344.415 65.4907 344.714 65.176 345.066 64.92C345.418 64.6533 345.818 64.456 346.266 64.328C346.714 64.1893 347.21 64.12 347.754 64.12C348.309 64.12 348.81 64.1893 349.258 64.328C349.717 64.456 350.117 64.6533 350.458 64.92C350.81 65.176 351.109 65.4907 351.354 65.864C351.599 66.2373 351.781 66.6587 351.898 67.128C352.026 67.5973 352.09 68.0987 352.09 68.632C352.09 69.1867 352.026 69.6987 351.898 70.168C351.781 70.6267 351.599 71.0427 351.354 71.416C351.109 71.7787 350.81 72.0933 350.458 72.36C350.117 72.616 349.717 72.8133 349.258 72.952C348.81 73.0907 348.309 73.16 347.754 73.16ZM347.754 71.72C348.106 71.72 348.41 71.672 348.666 71.576C348.933 71.48 349.167 71.3467 349.37 71.176C349.573 71.0053 349.738 70.7973 349.866 70.552C350.005 70.296 350.106 70.008 350.17 69.688C350.234 69.368 350.266 69.016 350.266 68.632C350.266 68.248 350.234 67.896 350.17 67.576C350.106 67.256 350.005 66.9733 349.866 66.728C349.738 66.4827 349.573 66.2747 349.37 66.104C349.167 65.9227 348.933 65.7893 348.666 65.704C348.41 65.608 348.106 65.56 347.754 65.56C347.423 65.56 347.125 65.608 346.858 65.704C346.591 65.7893 346.357 65.9227 346.154 66.104C345.962 66.2747 345.797 66.488 345.658 66.744C345.519 66.9893 345.418 67.272 345.354 67.592C345.29 67.9013 345.258 68.248 345.258 68.632C345.258 69.016 345.29 69.368 345.354 69.688C345.429 70.008 345.53 70.296 345.658 70.552C345.797 70.7973 345.962 71.0053 346.154 71.176C346.357 71.3467 346.591 71.48 346.858 71.576C347.125 71.672 347.423 71.72 347.754 71.72ZM353.776 73V64.28H358.128C358.715 64.28 359.216 64.3653 359.632 64.536C360.059 64.7067 360.384 64.9573 360.608 65.288C360.843 65.6187 360.96 66.0293 360.96 66.52C360.96 66.8187 360.912 67.0853 360.816 67.32C360.731 67.5547 360.603 67.7573 360.432 67.928C360.272 68.0987 360.07 68.2427 359.824 68.36C359.739 68.4027 359.654 68.44 359.568 68.472C359.782 68.536 359.984 68.6213 360.176 68.728C360.528 68.9307 360.8 69.1973 360.992 69.528C361.195 69.8587 361.296 70.2427 361.296 70.68C361.296 71.1813 361.179 71.608 360.944 71.96C360.71 72.3013 360.374 72.5627 359.936 72.744C359.499 72.9147 358.976 73 358.368 73H353.776ZM355.504 69.144V71.704H358.048C358.368 71.704 358.64 71.656 358.864 71.56C359.088 71.464 359.259 71.3307 359.376 71.16C359.504 70.9787 359.568 70.7493 359.568 70.472C359.568 70.184 359.499 69.944 359.36 69.752C359.232 69.5493 359.051 69.4 358.816 69.304C358.582 69.1973 358.315 69.144 358.016 69.144H355.504ZM355.504 65.576V67.896H357.888C358.155 67.896 358.39 67.8533 358.592 67.768C358.806 67.672 358.971 67.5333 359.088 67.352C359.206 67.1707 359.264 66.9467 359.264 66.68C359.264 66.3173 359.136 66.0453 358.88 65.864C358.635 65.672 358.299 65.576 357.872 65.576H355.504ZM362.807 71.112H364.679V73.128C364.679 73.6933 364.604 74.1467 364.455 74.488C364.316 74.8293 364.098 75.0747 363.799 75.224C363.5 75.384 363.106 75.4693 362.615 75.48L362.519 74.472C362.796 74.472 363.01 74.4347 363.159 74.36C363.319 74.296 363.431 74.168 363.495 73.976C363.559 73.7947 363.591 73.5387 363.591 73.208V73H362.807V71.112ZM371.648 73V65.72H368.72V64.28H376.352V65.72H373.424V73H371.648ZM376.827 66.936C376.902 66.4667 377.046 66.056 377.259 65.704C377.472 65.352 377.739 65.0587 378.059 64.824C378.379 64.5893 378.752 64.4133 379.179 64.296C379.616 64.1787 380.096 64.12 380.619 64.12C381.184 64.12 381.686 64.184 382.123 64.312C382.571 64.44 382.944 64.6427 383.243 64.92C383.552 65.1867 383.787 65.528 383.947 65.944C384.107 66.3493 384.187 66.84 384.187 67.416V71.128C384.187 71.288 384.208 71.4213 384.251 71.528C384.304 71.624 384.374 71.6933 384.459 71.736C384.555 71.7787 384.667 71.8 384.795 71.8C384.838 71.8 384.886 71.8 384.939 71.8C384.992 71.7893 385.03 71.784 385.051 71.784L385.003 73C384.907 73.0427 384.784 73.0747 384.635 73.096C384.496 73.1173 384.379 73.128 384.283 73.128C383.899 73.128 383.579 73.0693 383.323 72.952C383.078 72.824 382.896 72.6373 382.779 72.392C382.662 72.1573 382.598 71.8693 382.587 71.528C382.534 71.6133 382.475 71.6987 382.411 71.784C382.187 72.072 381.926 72.3227 381.627 72.536C381.328 72.7387 380.998 72.8933 380.635 73C380.283 73.1067 379.899 73.16 379.483 73.16C378.875 73.16 378.347 73.0587 377.899 72.856C377.462 72.6533 377.12 72.36 376.875 71.976C376.64 71.592 376.523 71.1387 376.523 70.616C376.523 70.0933 376.64 69.6453 376.875 69.272C377.11 68.888 377.467 68.5893 377.947 68.376C378.427 68.152 379.035 68.0027 379.771 67.928L382.571 67.656V67.512C382.571 67.1493 382.523 66.84 382.427 66.584C382.342 66.328 382.214 66.12 382.043 65.96C381.872 65.7893 381.664 65.6667 381.419 65.592C381.174 65.5173 380.891 65.48 380.571 65.48C380.176 65.48 379.824 65.544 379.515 65.672C379.206 65.7893 378.96 65.976 378.779 66.232C378.608 66.4773 378.502 66.7867 378.459 67.16L376.827 66.936ZM382.587 68.872L379.947 69.144C379.552 69.1867 379.227 69.2667 378.971 69.384C378.715 69.5013 378.518 69.656 378.379 69.848C378.251 70.0293 378.187 70.248 378.187 70.504C378.187 70.7707 378.246 71 378.363 71.192C378.48 71.384 378.656 71.5333 378.891 71.64C379.136 71.736 379.43 71.784 379.771 71.784C380.091 71.784 380.39 71.7413 380.667 71.656C380.955 71.5707 381.216 71.4533 381.451 71.304C381.686 71.1547 381.888 70.9787 382.059 70.776C382.23 70.5733 382.358 70.344 382.443 70.088C382.539 69.832 382.587 69.5653 382.587 69.288V68.872ZM386.279 73V64.28H388.055V68.344L391.975 64.28H394.087L389.975 68.36L394.183 73H392.007L388.055 68.664V73H386.279ZM397.984 73V64.28H399.712V70.616L403.936 64.28H405.664V73H403.936V66.664L399.712 73H397.984ZM11.192 89.672C11.416 89.6613 11.6187 89.624 11.8 89.56C11.9813 89.4853 12.1307 89.3733 12.248 89.224C12.4293 89.0107 12.5627 88.7013 12.648 88.296C12.7333 87.88 12.792 87.336 12.824 86.664C12.856 85.9813 12.8827 85.1387 12.904 84.136V82.28H19.432V91H17.672V83.72H14.584L14.568 84.344C14.5573 85.4747 14.5147 86.424 14.44 87.192C14.3653 87.96 14.2533 88.584 14.104 89.064C13.9653 89.544 13.7733 89.928 13.528 90.216C13.2613 90.5467 12.9467 90.776 12.584 90.904C12.2213 91.0213 11.784 91.0853 11.272 91.096L11.192 89.672ZM21.6906 91V82.28H23.4666V85.816H24.9386C24.9706 85.5813 25.0186 85.352 25.0826 85.128C25.2 84.6587 25.376 84.2373 25.6106 83.864C25.856 83.4907 26.1546 83.176 26.5066 82.92C26.8586 82.6533 27.2586 82.456 27.7066 82.328C28.1653 82.1893 28.6666 82.12 29.2106 82.12C29.7653 82.12 30.2666 82.1893 30.7146 82.328C31.1626 82.456 31.5573 82.6533 31.8986 82.92C32.2506 83.176 32.5493 83.4907 32.7946 83.864C33.04 84.2373 33.2213 84.6587 33.3386 85.128C33.4666 85.5973 33.5306 86.0987 33.5306 86.632C33.5306 87.1867 33.4666 87.6987 33.3386 88.168C33.2213 88.6267 33.04 89.0427 32.7946 89.416C32.5493 89.7787 32.2506 90.0933 31.8986 90.36C31.5573 90.616 31.1626 90.8133 30.7146 90.952C30.2666 91.0907 29.7653 91.16 29.2106 91.16C28.6666 91.16 28.1653 91.0907 27.7066 90.952C27.2586 90.8133 26.8586 90.616 26.5066 90.36C26.1546 90.0933 25.856 89.7787 25.6106 89.416C25.376 89.0427 25.2 88.6213 25.0826 88.152C24.9973 87.8747 24.944 87.576 24.9226 87.256H23.4666V91H21.6906ZM29.2106 89.72C29.552 89.72 29.856 89.6773 30.1226 89.592C30.3893 89.496 30.6186 89.3627 30.8106 89.192C31.0133 89.0213 31.1786 88.808 31.3066 88.552C31.4453 88.296 31.5466 88.008 31.6106 87.688C31.6746 87.368 31.7066 87.016 31.7066 86.632C31.7066 86.248 31.6746 85.896 31.6106 85.576C31.5466 85.256 31.4453 84.9733 31.3066 84.728C31.1786 84.4827 31.0133 84.2747 30.8106 84.104C30.6186 83.9227 30.3893 83.7893 30.1226 83.704C29.856 83.608 29.552 83.56 29.2106 83.56C28.88 83.56 28.576 83.608 28.2986 83.704C28.032 83.7893 27.7973 83.9227 27.5946 84.104C27.4026 84.2747 27.2373 84.488 27.0986 84.744C26.96 84.9893 26.8586 85.272 26.7946 85.592C26.7413 85.9013 26.7146 86.248 26.7146 86.632C26.7146 87.016 26.7466 87.368 26.8106 87.688C26.8746 88.008 26.9706 88.296 27.0986 88.552C27.2373 88.808 27.4026 89.0213 27.5946 89.192C27.7973 89.3627 28.032 89.496 28.2986 89.592C28.576 89.6773 28.88 89.72 29.2106 89.72ZM39.2069 91.16C38.5135 91.16 37.8949 91.048 37.3509 90.824C36.8175 90.6 36.3695 90.2747 36.0069 89.848C35.6442 89.4213 35.3669 88.904 35.1749 88.296C34.9935 87.6773 34.9029 86.9787 34.9029 86.2V85.496C34.9029 84.3973 34.9989 83.4533 35.1909 82.664C35.3829 81.8747 35.6815 81.2293 36.0869 80.728C36.4922 80.216 37.0095 79.832 37.6389 79.576C38.2682 79.3093 39.0255 79.1493 39.9109 79.096L41.4629 78.984C41.7295 78.9627 41.9642 78.936 42.1669 78.904C42.3695 78.872 42.5775 78.8293 42.7909 78.776L42.9189 80.216C42.7162 80.2907 42.4922 80.3493 42.2469 80.392C42.0122 80.4347 41.7455 80.4667 41.4469 80.488L39.8949 80.584C39.3082 80.6267 38.7962 80.7333 38.3589 80.904C37.9322 81.0747 37.5802 81.336 37.3029 81.688C37.0255 82.0293 36.8229 82.488 36.6949 83.064C36.6202 83.416 36.5669 83.8213 36.5349 84.28C36.7482 83.8853 37.0202 83.5493 37.3509 83.272C37.6815 82.984 38.0549 82.7653 38.4709 82.616C38.8869 82.4667 39.3402 82.392 39.8309 82.392C40.3109 82.392 40.7482 82.4613 41.1429 82.6C41.5375 82.7387 41.8842 82.936 42.1829 83.192C42.4815 83.4373 42.7322 83.7413 42.9349 84.104C43.1375 84.456 43.2922 84.856 43.3989 85.304C43.5055 85.752 43.5589 86.2373 43.5589 86.76C43.5589 87.2933 43.4949 87.7893 43.3669 88.248C43.2389 88.696 43.0469 89.1013 42.7909 89.464C42.5349 89.816 42.2255 90.12 41.8629 90.376C41.5109 90.632 41.1109 90.8293 40.6629 90.968C40.2255 91.096 39.7402 91.16 39.2069 91.16ZM39.2069 89.72C39.5375 89.72 39.8362 89.6773 40.1029 89.592C40.3695 89.496 40.6042 89.368 40.8069 89.208C41.0095 89.048 41.1802 88.8453 41.3189 88.6C41.4682 88.3547 41.5749 88.0773 41.6389 87.768C41.7135 87.4587 41.7509 87.1173 41.7509 86.744C41.7509 86.3707 41.7189 86.0293 41.6549 85.72C41.5909 85.4107 41.4949 85.1333 41.3669 84.888C41.2495 84.6427 41.0895 84.44 40.8869 84.28C40.6949 84.1093 40.4709 83.9813 40.2149 83.896C39.9589 83.8 39.6655 83.752 39.3349 83.752C39.0255 83.752 38.7375 83.7947 38.4709 83.88C38.2042 83.9653 37.9642 84.0933 37.7509 84.264C37.5482 84.424 37.3722 84.6267 37.2229 84.872C37.0735 85.1067 36.9562 85.384 36.8709 85.704C36.7962 86.0133 36.7589 86.3547 36.7589 86.728C36.7589 87.1013 36.7909 87.4427 36.8549 87.752C36.9189 88.0613 37.0149 88.3387 37.1429 88.584C37.2709 88.8187 37.4362 89.0213 37.6389 89.192C37.8415 89.3627 38.0709 89.496 38.3269 89.592C38.5829 89.6773 38.8762 89.72 39.2069 89.72ZM45.2544 91V82.28H46.9824V88.616L51.2064 82.28H52.9344V91H51.2064V84.664L46.9824 91H45.2544ZM56.9212 91V83.72H53.9932V82.28H61.6252V83.72H58.6972V91H56.9212ZM66.5487 91.16C65.9941 91.16 65.4821 91.0907 65.0127 90.952C64.5541 90.8027 64.1487 90.6 63.7967 90.344C63.4447 90.0773 63.1461 89.7573 62.9007 89.384C62.6554 89.0107 62.4687 88.5947 62.3407 88.136C62.2127 87.6667 62.1487 87.1653 62.1487 86.632C62.1487 86.0987 62.2074 85.6027 62.3247 85.144C62.4527 84.6853 62.6394 84.2747 62.8847 83.912C63.1301 83.5387 63.4234 83.2187 63.7647 82.952C64.1167 82.6853 64.5221 82.4827 64.9807 82.344C65.4394 82.1947 65.9461 82.12 66.5007 82.12C67.1301 82.12 67.7007 82.2213 68.2127 82.424C68.7247 82.6267 69.1621 82.92 69.5247 83.304C69.8981 83.6773 70.1807 84.1253 70.3727 84.648C70.5754 85.16 70.6767 85.736 70.6767 86.376C70.6767 86.504 70.6714 86.632 70.6607 86.76C70.6501 86.8773 70.6287 86.9947 70.5967 87.112H63.8927C63.9034 87.304 63.9301 87.4907 63.9727 87.672C64.0367 88.0027 64.1381 88.296 64.2767 88.552C64.4261 88.7973 64.6074 89.016 64.8207 89.208C65.0341 89.3893 65.2847 89.528 65.5727 89.624C65.8607 89.72 66.1861 89.768 66.5487 89.768C66.9967 89.768 67.3807 89.704 67.7007 89.576C68.0314 89.448 68.3034 89.2667 68.5167 89.032C68.7301 88.7867 68.8847 88.4933 68.9807 88.152L70.6128 88.44C70.4634 89.0053 70.2181 89.496 69.8767 89.912C69.5354 90.3173 69.0874 90.6267 68.5327 90.84C67.9781 91.0533 67.3167 91.16 66.5487 91.16ZM63.9247 85.832H68.9967C68.9754 85.5653 68.9221 85.32 68.8367 85.096C68.7301 84.7653 68.5647 84.4827 68.3407 84.248C68.1274 84.0133 67.8661 83.832 67.5567 83.704C67.2581 83.576 66.9114 83.512 66.5167 83.512C66.1647 83.512 65.8447 83.56 65.5567 83.656C65.2794 83.7413 65.0341 83.8747 64.8207 84.056C64.6181 84.2373 64.4421 84.456 64.2927 84.712C64.1434 84.968 64.0367 85.256 63.9727 85.576C63.9514 85.6613 63.9354 85.7467 63.9247 85.832ZM71.0239 89.672C71.2479 89.6613 71.4505 89.624 71.6319 89.56C71.8132 89.4853 71.9625 89.3733 72.0799 89.224C72.2612 89.0107 72.3945 88.7013 72.4799 88.296C72.5652 87.88 72.6239 87.336 72.6559 86.664C72.6879 85.9813 72.7145 85.1387 72.7359 84.136V82.28H79.2639V91H77.5039V83.72H74.4159L74.3999 84.344C74.3892 85.4747 74.3465 86.424 74.2719 87.192C74.1972 87.96 74.0852 88.584 73.9359 89.064C73.7972 89.544 73.6052 89.928 73.3599 90.216C73.0932 90.5467 72.7785 90.776 72.4159 90.904C72.0532 91.0213 71.6159 91.0853 71.1039 91.096L71.0239 89.672ZM85.3625 91.16C84.8078 91.16 84.2958 91.0907 83.8265 90.952C83.3678 90.8027 82.9625 90.6 82.6105 90.344C82.2585 90.0773 81.9598 89.7573 81.7145 89.384C81.4692 89.0107 81.2825 88.5947 81.1545 88.136C81.0265 87.6667 80.9625 87.1653 80.9625 86.632C80.9625 86.0987 81.0212 85.6027 81.1385 85.144C81.2665 84.6853 81.4532 84.2747 81.6985 83.912C81.9438 83.5387 82.2372 83.2187 82.5785 82.952C82.9305 82.6853 83.3358 82.4827 83.7945 82.344C84.2532 82.1947 84.7598 82.12 85.3145 82.12C85.9438 82.12 86.5145 82.2213 87.0265 82.424C87.5385 82.6267 87.9758 82.92 88.3385 83.304C88.7118 83.6773 88.9945 84.1253 89.1865 84.648C89.3892 85.16 89.4905 85.736 89.4905 86.376C89.4905 86.504 89.4852 86.632 89.4745 86.76C89.4638 86.8773 89.4425 86.9947 89.4105 87.112H82.7065C82.7172 87.304 82.7438 87.4907 82.7865 87.672C82.8505 88.0027 82.9518 88.296 83.0905 88.552C83.2398 88.7973 83.4212 89.016 83.6345 89.208C83.8478 89.3893 84.0985 89.528 84.3865 89.624C84.6745 89.72 84.9998 89.768 85.3625 89.768C85.8105 89.768 86.1945 89.704 86.5145 89.576C86.8452 89.448 87.1172 89.2667 87.3305 89.032C87.5438 88.7867 87.6985 88.4933 87.7945 88.152L89.4265 88.44C89.2772 89.0053 89.0318 89.496 88.6905 89.912C88.3492 90.3173 87.9012 90.6267 87.3465 90.84C86.7918 91.0533 86.1305 91.16 85.3625 91.16ZM82.7385 85.832H87.8105C87.7892 85.5653 87.7358 85.32 87.6505 85.096C87.5438 84.7653 87.3785 84.4827 87.1545 84.248C86.9412 84.0133 86.6798 83.832 86.3705 83.704C86.0718 83.576 85.7252 83.512 85.3305 83.512C84.9785 83.512 84.6585 83.56 84.3705 83.656C84.0932 83.7413 83.8478 83.8747 83.6345 84.056C83.4318 84.2373 83.2558 84.456 83.1065 84.712C82.9572 84.968 82.8505 85.256 82.7865 85.576C82.7652 85.6613 82.7492 85.7467 82.7385 85.832ZM91.0856 91V82.28H92.8136V88.616L97.0376 82.28H98.7656V91H97.0376V84.664L92.8136 91H91.0856ZM96.3816 78.888H97.7896C97.7896 79.2613 97.7203 79.6027 97.5816 79.912C97.4536 80.2107 97.2616 80.4667 97.0056 80.68C96.7603 80.8933 96.467 81.0587 96.1256 81.176C95.7843 81.2933 95.4003 81.352 94.9736 81.352C94.5683 81.352 94.1896 81.2933 93.8376 81.176C93.4856 81.0587 93.187 80.8933 92.9416 80.68C92.6963 80.4667 92.5043 80.2107 92.3656 79.912C92.227 79.6027 92.1576 79.2613 92.1576 78.888H93.5656C93.5656 79.3147 93.6936 79.6507 93.9496 79.896C94.2056 80.1413 94.547 80.264 94.9736 80.264C95.2616 80.264 95.5123 80.2107 95.7256 80.104C95.939 79.9867 96.099 79.8267 96.2056 79.624C96.323 79.4213 96.3816 79.176 96.3816 78.888Z" fill="black"/>
<path d="M12.792 17.832C12.792 16.4667 12.952 15.1973 13.272 14.024C13.6133 12.8293 14.0933 11.7627 14.712 10.824C15.3307 9.864 16.0773 9.05333 16.952 8.392C17.8267 7.70933 18.808 7.18667 19.896 6.824C21.0053 6.46133 22.2107 6.28 23.512 6.28C25.3467 6.28 26.9467 6.57867 28.312 7.176C29.6773 7.77333 30.7973 8.648 31.672 9.8C32.568 10.9307 33.208 12.328 33.592 13.992L29.784 14.728C29.5493 13.5973 29.1653 12.6373 28.632 11.848C28.0987 11.0373 27.4053 10.4293 26.552 10.024C25.72 9.59733 24.7067 9.384 23.512 9.384C22.6373 9.384 21.8373 9.512 21.112 9.768C20.408 10.0027 19.7787 10.3653 19.224 10.856C18.6693 11.3253 18.2 11.912 17.816 12.616C17.432 13.2987 17.144 14.0773 16.952 14.952C16.76 15.8267 16.664 16.7867 16.664 17.832C16.664 18.8773 16.76 19.8373 16.952 20.712C17.144 21.5867 17.432 22.3653 17.816 23.048C18.2 23.7307 18.6693 24.3173 19.224 24.808C19.7787 25.2773 20.408 25.64 21.112 25.896C21.8373 26.1307 22.6373 26.248 23.512 26.248C24.7067 26.248 25.7413 26.0347 26.616 25.608C27.512 25.1813 28.2267 24.552 28.76 23.72C29.3147 22.888 29.6773 21.8853 29.848 20.712L33.592 21.448C33.3147 23.1333 32.728 24.5627 31.832 25.736C30.936 26.9093 29.784 27.8053 28.376 28.424C26.968 29.0213 25.3467 29.32 23.512 29.32C22.3813 29.32 21.3253 29.2027 20.344 28.968C19.384 28.712 18.4987 28.3493 17.688 27.88C16.8987 27.3893 16.1947 26.8133 15.576 26.152C14.9787 25.4693 14.4667 24.7013 14.04 23.848C13.6347 22.9947 13.3253 22.0667 13.112 21.064C12.8987 20.04 12.792 18.9627 12.792 17.832ZM35 22.024L38.68 21.512C38.872 22.5787 39.224 23.464 39.736 24.168C40.248 24.872 40.9413 25.4053 41.816 25.768C42.6907 26.1307 43.7253 26.312 44.92 26.312C45.816 26.312 46.584 26.2373 47.224 26.088C47.8853 25.9173 48.44 25.6933 48.888 25.416C49.336 25.1387 49.6667 24.7973 49.88 24.392C50.0933 23.9867 50.2 23.5387 50.2 23.048C50.2 22.3227 50.0187 21.736 49.656 21.288C49.3147 20.84 48.792 20.4773 48.088 20.2C47.384 19.9227 46.4987 19.6987 45.432 19.528L43 19.112C41.9333 18.9413 40.952 18.696 40.056 18.376C39.1813 18.056 38.424 17.6613 37.784 17.192C37.144 16.7013 36.6533 16.104 36.312 15.4C35.9707 14.6747 35.8 13.8213 35.8 12.84C35.8 11.8587 35.992 10.9733 36.376 10.184C36.7813 9.37333 37.3573 8.68 38.104 8.104C38.8507 7.528 39.7573 7.08 40.824 6.76C41.8907 6.44 43.096 6.28 44.44 6.28C46.2747 6.28 47.8213 6.536 49.08 7.048C50.36 7.56 51.3627 8.31733 52.088 9.32C52.8133 10.3013 53.2827 11.5493 53.496 13.064L49.848 13.576C49.5707 12.1253 49.0053 11.048 48.152 10.344C47.2987 9.64 46.04 9.288 44.376 9.288C43.5867 9.288 42.8933 9.37333 42.296 9.544C41.6987 9.69333 41.1973 9.90667 40.792 10.184C40.3867 10.4613 40.0773 10.792 39.864 11.176C39.672 11.56 39.576 11.9867 39.576 12.456C39.576 13.2027 39.768 13.7893 40.152 14.216C40.5573 14.6427 41.1227 14.9733 41.848 15.208C42.5733 15.4427 43.4587 15.6667 44.504 15.88L46.904 16.296C48.376 16.5733 49.6347 16.9467 50.68 17.416C51.7467 17.8853 52.5573 18.5467 53.112 19.4C53.688 20.232 53.976 21.32 53.976 22.664C53.976 23.7307 53.7627 24.68 53.336 25.512C52.9307 26.344 52.3227 27.048 51.512 27.624C50.7227 28.1787 49.7627 28.6053 48.632 28.904C47.5013 29.1813 46.232 29.32 44.824 29.32C43.3307 29.32 42.0187 29.1707 40.888 28.872C39.7573 28.5733 38.7867 28.1253 37.976 27.528C37.1653 26.9307 36.5147 26.184 36.024 25.288C35.5333 24.3707 35.192 23.2827 35 22.024ZM57.0365 29V25.224H60.7805V29H57.0365ZM57.0365 15.336V11.56H60.7805V15.336H57.0365ZM75.053 20.424V17.544H85.421V29H82.861L82.573 25.16C82.1677 25.8853 81.6663 26.5147 81.069 27.048C80.2797 27.7947 79.3623 28.36 78.317 28.744C77.2717 29.128 76.0877 29.32 74.765 29.32C73.4637 29.32 72.2583 29.1493 71.149 28.808C70.0397 28.4453 69.0477 27.9333 68.173 27.272C67.2983 26.6107 66.5517 25.8107 65.933 24.872C65.3357 23.9333 64.877 22.8773 64.557 21.704C64.237 20.5093 64.077 19.2187 64.077 17.832C64.077 16.4453 64.2477 15.1653 64.589 13.992C64.9303 12.7973 65.4103 11.7307 66.029 10.792C66.669 9.832 67.437 9.02133 68.333 8.36C69.2503 7.67733 70.285 7.16533 71.437 6.824C72.589 6.46133 73.8477 6.28 75.213 6.28C77.005 6.28 78.5623 6.55733 79.885 7.112C81.229 7.64533 82.3383 8.44533 83.213 9.512C84.0877 10.5573 84.7277 11.848 85.133 13.384L81.517 14.184C81.2823 13.16 80.8877 12.296 80.333 11.592C79.7783 10.8667 79.0743 10.3227 78.221 9.96C77.3677 9.576 76.3757 9.384 75.245 9.384C74.285 9.384 73.421 9.512 72.653 9.768C71.9063 10.0027 71.2343 10.3547 70.637 10.824C70.061 11.2933 69.5703 11.8693 69.165 12.552C68.7597 13.2347 68.4503 14.024 68.237 14.92C68.045 15.7947 67.949 16.7653 67.949 17.832C67.949 18.8773 68.045 19.848 68.237 20.744C68.4503 21.6187 68.7597 22.3973 69.165 23.08C69.5703 23.7627 70.061 24.3387 70.637 24.808C71.213 25.2773 71.8743 25.64 72.621 25.896C73.3677 26.1307 74.1997 26.248 75.117 26.248C76.653 26.248 77.933 25.9813 78.957 25.448C79.981 24.8933 80.7597 24.104 81.293 23.08C81.6983 22.312 81.9543 21.4267 82.061 20.424H75.053ZM99.02 29.32C97.676 29.32 96.4387 29.1387 95.308 28.776C94.1773 28.4133 93.1747 27.9013 92.3 27.24C91.4253 26.5787 90.6787 25.7787 90.06 24.84C89.4413 23.88 88.972 22.8133 88.652 21.64C88.332 20.4667 88.172 19.1973 88.172 17.832C88.172 16.4667 88.332 15.1973 88.652 14.024C88.972 12.8293 89.4413 11.7627 90.06 10.824C90.6787 9.864 91.4253 9.05333 92.3 8.392C93.1747 7.70933 94.1773 7.18667 95.308 6.824C96.4387 6.46133 97.676 6.28 99.02 6.28C100.407 6.28 101.665 6.46133 102.796 6.824C103.927 7.18667 104.929 7.70933 105.804 8.392C106.679 9.05333 107.425 9.864 108.044 10.824C108.663 11.7627 109.121 12.8187 109.42 13.992C109.74 15.1653 109.9 16.4347 109.9 17.8C109.9 19.1653 109.74 20.4347 109.42 21.608C109.121 22.7813 108.663 23.848 108.044 24.808C107.425 25.7467 106.679 26.5573 105.804 27.24C104.929 27.9013 103.927 28.4133 102.796 28.776C101.665 29.1387 100.407 29.32 99.02 29.32ZM99.02 26.216C99.9587 26.216 100.801 26.088 101.548 25.832C102.295 25.576 102.945 25.2133 103.5 24.744C104.076 24.2533 104.545 23.6667 104.908 22.984C105.292 22.3013 105.58 21.5333 105.772 20.68C105.964 19.8053 106.06 18.8453 106.06 17.8C106.06 16.776 105.964 15.8373 105.772 14.984C105.58 14.1093 105.292 13.3307 104.908 12.648C104.545 11.944 104.076 11.3573 103.5 10.888C102.945 10.3973 102.295 10.024 101.548 9.768C100.801 9.512 99.9587 9.384 99.02 9.384C98.124 9.384 97.3027 9.512 96.556 9.768C95.8093 10.024 95.148 10.3973 94.572 10.888C94.0173 11.3573 93.548 11.944 93.164 12.648C92.78 13.3307 92.492 14.1093 92.3 14.984C92.1293 15.8373 92.044 16.7867 92.044 17.832C92.044 18.8773 92.1293 19.8267 92.3 20.68C92.492 21.5333 92.78 22.312 93.164 23.016C93.548 23.6987 94.0173 24.2853 94.572 24.776C95.148 25.2453 95.8093 25.608 96.556 25.864C97.3027 26.0987 98.124 26.216 99.02 26.216ZM118.268 17.832C118.268 16.4667 118.428 15.1973 118.748 14.024C119.09 12.8293 119.57 11.7627 120.188 10.824C120.807 9.864 121.554 9.05333 122.428 8.392C123.303 7.70933 124.284 7.18667 125.372 6.824C126.482 6.46133 127.687 6.28 128.988 6.28C130.823 6.28 132.423 6.57867 133.788 7.176C135.154 7.77333 136.274 8.648 137.148 9.8C138.044 10.9307 138.684 12.328 139.068 13.992L135.26 14.728C135.026 13.5973 134.642 12.6373 134.108 11.848C133.575 11.0373 132.882 10.4293 132.028 10.024C131.196 9.59733 130.183 9.384 128.988 9.384C128.114 9.384 127.314 9.512 126.588 9.768C125.884 10.0027 125.255 10.3653 124.7 10.856C124.146 11.3253 123.676 11.912 123.292 12.616C122.908 13.2987 122.62 14.0773 122.428 14.952C122.236 15.8267 122.14 16.7867 122.14 17.832C122.14 18.8773 122.236 19.8373 122.428 20.712C122.62 21.5867 122.908 22.3653 123.292 23.048C123.676 23.7307 124.146 24.3173 124.7 24.808C125.255 25.2773 125.884 25.64 126.588 25.896C127.314 26.1307 128.114 26.248 128.988 26.248C130.183 26.248 131.218 26.0347 132.092 25.608C132.988 25.1813 133.703 24.552 134.236 23.72C134.791 22.888 135.154 21.8853 135.324 20.712L139.068 21.448C138.791 23.1333 138.204 24.5627 137.308 25.736C136.412 26.9093 135.26 27.8053 133.852 28.424C132.444 29.0213 130.823 29.32 128.988 29.32C127.858 29.32 126.802 29.2027 125.82 28.968C124.86 28.712 123.975 28.3493 123.164 27.88C122.375 27.3893 121.671 26.8133 121.052 26.152C120.455 25.4693 119.943 24.7013 119.516 23.848C119.111 22.9947 118.802 22.0667 118.588 21.064C118.375 20.04 118.268 18.9627 118.268 17.832ZM142.524 29V6.6H157.852V9.704H146.3V16.008H156.412V19.08H146.3V25.896H158.044V29H142.524ZM161.525 29V6.6H165.301V15.88H177.205V6.6H180.981V29H177.205V18.952H165.301V29H161.525ZM191.426 29V9.704H183.874V6.6H202.85V9.704H195.202V29H191.426ZM221.748 29H217.972V20.648H214.644L208.052 29H203.764L210.644 20.392C210.047 20.3067 209.482 20.1787 208.948 20.008C207.988 19.688 207.156 19.2293 206.452 18.632C205.77 18.0133 205.236 17.288 204.852 16.456C204.49 15.6027 204.308 14.664 204.308 13.64C204.308 12.5733 204.49 11.6133 204.852 10.76C205.215 9.88533 205.727 9.13867 206.388 8.52C207.071 7.90133 207.871 7.432 208.788 7.112C209.727 6.77067 210.762 6.6 211.892 6.6H221.748V29ZM217.972 17.672V9.608H212.5C211.604 9.608 210.826 9.768 210.164 10.088C209.524 10.408 209.034 10.8667 208.692 11.464C208.351 12.0613 208.18 12.7867 208.18 13.64C208.18 14.472 208.351 15.1867 208.692 15.784C209.034 16.3813 209.524 16.8507 210.164 17.192C210.826 17.512 211.604 17.672 212.5 17.672H217.972ZM227.154 29V6.6H243.346V9.704H230.834V15.4H237.618C239.09 15.4 240.37 15.6773 241.458 16.232C242.568 16.7867 243.421 17.5867 244.018 18.632C244.616 19.656 244.914 20.8613 244.914 22.248C244.914 23.2933 244.744 24.232 244.402 25.064C244.061 25.896 243.57 26.6 242.93 27.176C242.29 27.752 241.522 28.2 240.626 28.52C239.752 28.84 238.76 29 237.65 29H227.154ZM230.834 18.408V26.024H237.266C238.077 26.024 238.781 25.8853 239.378 25.608C239.976 25.3093 240.424 24.8827 240.722 24.328C241.042 23.752 241.202 23.0693 241.202 22.28C241.202 21.4267 241.032 20.7227 240.69 20.168C240.349 19.592 239.88 19.1547 239.282 18.856C238.706 18.5573 238.034 18.408 237.266 18.408H230.834ZM248.53 29V6.6H257.842C259.037 6.6 260.115 6.78133 261.075 7.144C262.056 7.48533 262.888 7.99733 263.57 8.68C264.253 9.34133 264.776 10.1413 265.139 11.08C265.523 12.0187 265.715 13.064 265.715 14.216C265.715 15.7307 265.373 17.0533 264.691 18.184C264.029 19.3147 263.09 20.1893 261.875 20.808C260.68 21.4053 259.261 21.704 257.618 21.704H252.306V29H248.53ZM252.306 9.672V18.664H257.042C258.066 18.664 258.941 18.4933 259.667 18.152C260.392 17.7893 260.947 17.2773 261.33 16.616C261.714 15.9547 261.906 15.1547 261.906 14.216C261.906 13.256 261.714 12.4347 261.33 11.752C260.947 11.0693 260.392 10.5573 259.667 10.216C258.941 9.85333 258.066 9.672 257.042 9.672H252.306ZM269.001 29V6.6H272.777V14.28H279.081C280.723 14.28 282.142 14.5893 283.337 15.208C284.531 15.8053 285.459 16.6587 286.121 17.768C286.782 18.8773 287.113 20.1787 287.113 21.672C287.113 23.144 286.782 24.4347 286.121 25.544C285.459 26.632 284.531 27.4853 283.337 28.104C282.142 28.7013 280.723 29 279.081 29H269.001ZM272.777 17.352V25.928H278.761C279.635 25.928 280.414 25.768 281.097 25.448C281.779 25.128 282.313 24.648 282.697 24.008C283.081 23.368 283.273 22.5787 283.273 21.64C283.273 20.7013 283.081 19.912 282.697 19.272C282.313 18.632 281.779 18.152 281.097 17.832C280.414 17.512 279.635 17.352 278.761 17.352H272.777Z" fill="black"/>
</svg>
