<svg width="413" height="112" viewBox="0 0 413 112" fill="none" xmlns="http://www.w3.org/2000/svg">
<path d="M1 0V101" stroke="black" stroke-width="2"/>
<path d="M15.0243 53.464L18.9923 50.024C19.2696 49.768 19.5149 49.5333 19.7283 49.32C19.9416 49.1067 20.1176 48.904 20.2563 48.712C20.3949 48.5093 20.5069 48.3173 20.5923 48.136C20.6883 47.944 20.7523 47.7573 20.7843 47.576C20.8269 47.3947 20.8483 47.2027 20.8483 47C20.8483 46.6267 20.7683 46.3067 20.6083 46.04C20.4483 45.7627 20.2189 45.5547 19.9203 45.416C19.6216 45.2667 19.2643 45.192 18.8483 45.192C18.3896 45.192 17.9949 45.2773 17.6643 45.448C17.3336 45.6187 17.0723 45.8747 16.8803 46.216C16.6989 46.5573 16.5976 46.9787 16.5763 47.48L14.7683 47.192C14.8323 46.456 15.0349 45.8267 15.3763 45.304C15.7283 44.7707 16.1976 44.36 16.7843 44.072C17.3816 43.784 18.0803 43.64 18.8803 43.64C19.6803 43.64 20.3683 43.7787 20.9443 44.056C21.5309 44.3333 21.9789 44.7227 22.2883 45.224C22.6083 45.7147 22.7683 46.3013 22.7683 46.984C22.7683 47.272 22.7363 47.5547 22.6723 47.832C22.6189 48.0987 22.5336 48.3653 22.4163 48.632C22.2989 48.888 22.1336 49.1493 21.9203 49.416C21.7176 49.6827 21.4669 49.9653 21.1683 50.264C20.8803 50.552 20.5389 50.8667 20.1443 51.208L17.5043 53.464H22.9923V55H15.0243V53.464ZM31.1289 45.352L26.6649 55H24.6169L29.1609 45.352H23.4489V43.8H31.1289V45.352ZM30.2277 57.4L33.7478 43.8H35.6198L32.0998 57.4H30.2277ZM41.0865 55.16C40.5105 55.16 39.9772 55.0747 39.4865 54.904C38.9958 54.7333 38.5585 54.488 38.1745 54.168C37.7905 53.8373 37.4652 53.4427 37.1985 52.984C36.9318 52.5147 36.7292 51.9813 36.5905 51.384C36.4518 50.776 36.3825 50.1147 36.3825 49.4C36.3825 48.6853 36.4518 48.0293 36.5905 47.432C36.7292 46.8347 36.9318 46.3013 37.1985 45.832C37.4652 45.3627 37.7905 44.968 38.1745 44.648C38.5585 44.3173 38.9958 44.0667 39.4865 43.896C39.9772 43.7253 40.5105 43.64 41.0865 43.64C41.6838 43.64 42.2278 43.7253 42.7185 43.896C43.2092 44.0667 43.6465 44.3173 44.0305 44.648C44.4145 44.968 44.7398 45.3627 45.0065 45.832C45.2732 46.3013 45.4758 46.8347 45.6145 47.432C45.7532 48.0293 45.8225 48.6853 45.8225 49.4C45.8225 50.1147 45.7532 50.776 45.6145 51.384C45.4758 51.9813 45.2732 52.5147 45.0065 52.984C44.7398 53.4427 44.4145 53.8373 44.0305 54.168C43.6465 54.488 43.2092 54.7333 42.7185 54.904C42.2278 55.0747 41.6838 55.16 41.0865 55.16ZM41.0865 53.624C41.4385 53.624 41.7585 53.5653 42.0465 53.448C42.3452 53.3307 42.6065 53.1547 42.8305 52.92C43.0652 52.6747 43.2572 52.3813 43.4065 52.04C43.5558 51.6987 43.6678 51.3093 43.7425 50.872C43.8278 50.424 43.8705 49.9333 43.8705 49.4C43.8705 48.8667 43.8278 48.3813 43.7425 47.944C43.6678 47.496 43.5558 47.1013 43.4065 46.76C43.2572 46.4187 43.0652 46.1307 42.8305 45.896C42.6065 45.6613 42.3452 45.4853 42.0465 45.368C41.7585 45.2507 41.4385 45.192 41.0865 45.192C40.7452 45.192 40.4305 45.2507 40.1425 45.368C39.8545 45.4853 39.5932 45.6613 39.3585 45.896C39.1345 46.1307 38.9425 46.4187 38.7825 46.76C38.6332 47.1013 38.5158 47.496 38.4305 47.944C38.3558 48.3813 38.3185 48.8667 38.3185 49.4C38.3185 49.9333 38.3558 50.424 38.4305 50.872C38.5158 51.3093 38.6332 51.6987 38.7825 52.04C38.9425 52.3813 39.1345 52.6747 39.3585 52.92C39.5932 53.1547 39.8545 53.3307 40.1425 53.448C40.4305 53.5653 40.7452 53.624 41.0865 53.624ZM53.0736 49.24C53.511 49.3787 53.8843 49.5653 54.1936 49.8C54.5136 50.0453 54.7536 50.3493 54.9136 50.712C55.0843 51.064 55.1696 51.48 55.1696 51.96C55.1696 52.4613 55.0683 52.9093 54.8656 53.304C54.6736 53.6987 54.4016 54.0347 54.0496 54.312C53.6976 54.5893 53.271 54.8027 52.7696 54.952C52.279 55.0907 51.7243 55.16 51.1056 55.16C50.4976 55.16 49.943 55.096 49.4416 54.968C48.951 54.8293 48.519 54.6267 48.1456 54.36C47.7723 54.0933 47.4683 53.752 47.2336 53.336C46.999 52.92 46.839 52.4293 46.7536 51.864L48.5616 51.528C48.6043 51.88 48.6896 52.1893 48.8176 52.456C48.9456 52.712 49.1163 52.9307 49.3296 53.112C49.543 53.2933 49.7936 53.432 50.0816 53.528C50.3803 53.624 50.7163 53.672 51.0896 53.672C51.431 53.672 51.735 53.6293 52.0016 53.544C52.279 53.4587 52.5083 53.3413 52.6896 53.192C52.8816 53.032 53.0256 52.84 53.1216 52.616C53.2176 52.392 53.2656 52.1307 53.2656 51.832C53.2656 51.4693 53.1856 51.16 53.0256 50.904C52.8656 50.648 52.631 50.4507 52.3216 50.312C52.0123 50.1733 51.639 50.104 51.2016 50.104H49.9856V48.6H51.1696C51.4683 48.6 51.735 48.5573 51.9696 48.472C52.215 48.3867 52.4176 48.2693 52.5776 48.12C52.7483 47.9707 52.8763 47.7893 52.9616 47.576C53.047 47.3627 53.0896 47.1227 53.0896 46.856C53.0896 46.5893 53.0416 46.3493 52.9456 46.136C52.8603 45.9227 52.727 45.7413 52.5456 45.592C52.375 45.4427 52.1616 45.3307 51.9056 45.256C51.6603 45.1813 51.367 45.144 51.0256 45.144C50.7056 45.144 50.4123 45.192 50.1456 45.288C49.8896 45.3733 49.6603 45.5067 49.4576 45.688C49.2656 45.8587 49.1056 46.072 48.9776 46.328C48.8496 46.584 48.7643 46.8773 48.7216 47.208L46.9776 46.84C47.063 46.328 47.2176 45.8747 47.4416 45.48C47.6763 45.0853 47.975 44.7493 48.3376 44.472C48.7003 44.1947 49.1163 43.9867 49.5856 43.848C50.055 43.7093 50.5723 43.64 51.1376 43.64C51.703 43.64 52.2203 43.7093 52.6896 43.848C53.159 43.976 53.559 44.168 53.8896 44.424C54.231 44.6693 54.4923 44.9733 54.6736 45.336C54.855 45.6987 54.9456 46.1147 54.9456 46.584C54.9456 47.0213 54.8656 47.416 54.7056 47.768C54.5563 48.1093 54.343 48.4027 54.0656 48.648C53.7883 48.8933 53.4576 49.0907 53.0736 49.24ZM59.8663 55V46.28H67.6103V55H65.8343V47.72H61.6423V55H59.8663ZM71.4033 46.28L71.5313 47.896C71.6379 47.7253 71.7499 47.5707 71.8673 47.432C72.1873 47.016 72.5766 46.696 73.0353 46.472C73.5046 46.2373 74.0273 46.12 74.6033 46.12C75.0726 46.12 75.5046 46.1947 75.8993 46.344C76.3046 46.4827 76.6619 46.6853 76.9713 46.952C77.2913 47.2187 77.5579 47.5387 77.7713 47.912C77.9953 48.2853 78.1659 48.7013 78.2833 49.16C78.4006 49.6187 78.4593 50.1093 78.4593 50.632C78.4593 51.1653 78.4006 51.6613 78.2833 52.12C78.1659 52.5787 77.9953 52.9947 77.7713 53.368C77.5579 53.7413 77.2913 54.0613 76.9713 54.328C76.6619 54.5947 76.3046 54.8027 75.8993 54.952C75.5046 55.0907 75.0726 55.16 74.6033 55.16C74.0273 55.16 73.5046 55.048 73.0353 54.824C72.5766 54.5893 72.1873 54.2693 71.8673 53.864C71.7819 53.7573 71.7019 53.6453 71.6273 53.528V58.2H69.8513V46.28H71.4033ZM74.1393 53.688C74.4593 53.688 74.7526 53.64 75.0193 53.544C75.2859 53.448 75.5206 53.3093 75.7233 53.128C75.9259 52.9467 76.0913 52.728 76.2193 52.472C76.3579 52.216 76.4593 51.9387 76.5233 51.64C76.5979 51.3307 76.6353 51 76.6353 50.648C76.6353 50.2853 76.5979 49.9493 76.5233 49.64C76.4593 49.3307 76.3579 49.0533 76.2193 48.808C76.0913 48.552 75.9259 48.3333 75.7233 48.152C75.5206 47.9707 75.2859 47.832 75.0193 47.736C74.7526 47.64 74.4593 47.592 74.1393 47.592C73.6166 47.592 73.1686 47.7253 72.7953 47.992C72.4219 48.248 72.1339 48.6053 71.9313 49.064C71.7286 49.5227 71.6273 50.0507 71.6273 50.648C71.6273 51.0853 71.6806 51.4907 71.7873 51.864C71.9046 52.2373 72.0699 52.5627 72.2833 52.84C72.5073 53.1067 72.7739 53.3147 73.0833 53.464C73.3926 53.6133 73.7446 53.688 74.1393 53.688ZM83.8771 55.16C83.3331 55.16 82.8371 55.0907 82.3891 54.952C81.9411 54.8133 81.5411 54.616 81.1891 54.36C80.8371 54.0933 80.5385 53.7787 80.2931 53.416C80.0585 53.0427 79.8771 52.6267 79.7491 52.168C79.6318 51.6987 79.5731 51.1867 79.5731 50.632C79.5731 50.0987 79.6318 49.5973 79.7491 49.128C79.8771 48.6587 80.0585 48.2373 80.2931 47.864C80.5385 47.4907 80.8371 47.176 81.1891 46.92C81.5411 46.6533 81.9411 46.456 82.3891 46.328C82.8371 46.1893 83.3331 46.12 83.8771 46.12C84.4318 46.12 84.9331 46.1893 85.3811 46.328C85.8398 46.456 86.2398 46.6533 86.5811 46.92C86.9331 47.176 87.2318 47.4907 87.4771 47.864C87.7225 48.2373 87.9038 48.6587 88.0211 49.128C88.1491 49.5973 88.2131 50.0987 88.2131 50.632C88.2131 51.1867 88.1491 51.6987 88.0211 52.168C87.9038 52.6267 87.7225 53.0427 87.4771 53.416C87.2318 53.7787 86.9331 54.0933 86.5811 54.36C86.2398 54.616 85.8398 54.8133 85.3811 54.952C84.9331 55.0907 84.4318 55.16 83.8771 55.16ZM83.8771 53.72C84.2291 53.72 84.5331 53.672 84.7891 53.576C85.0558 53.48 85.2905 53.3467 85.4931 53.176C85.6958 53.0053 85.8611 52.7973 85.9891 52.552C86.1278 52.296 86.2291 52.008 86.2931 51.688C86.3571 51.368 86.3891 51.016 86.3891 50.632C86.3891 50.248 86.3571 49.896 86.2931 49.576C86.2291 49.256 86.1278 48.9733 85.9891 48.728C85.8611 48.4827 85.6958 48.2747 85.4931 48.104C85.2905 47.9227 85.0558 47.7893 84.7891 47.704C84.5331 47.608 84.2291 47.56 83.8771 47.56C83.5465 47.56 83.2478 47.608 82.9811 47.704C82.7145 47.7893 82.4798 47.9227 82.2771 48.104C82.0851 48.2747 81.9198 48.488 81.7811 48.744C81.6425 48.9893 81.5411 49.272 81.4771 49.592C81.4131 49.9013 81.3811 50.248 81.3811 50.632C81.3811 51.016 81.4131 51.368 81.4771 51.688C81.5518 52.008 81.6531 52.296 81.7811 52.552C81.9198 52.7973 82.0851 53.0053 82.2771 53.176C82.4798 53.3467 82.7145 53.48 82.9811 53.576C83.2478 53.672 83.5465 53.72 83.8771 53.72ZM89.8994 55V46.28H91.6274V53.56H94.9394V46.28H96.6674V53.56H99.9794V46.28H101.707V55H89.8994ZM102.714 53.672C102.938 53.6613 103.141 53.624 103.322 53.56C103.504 53.4853 103.653 53.3733 103.77 53.224C103.952 53.0107 104.085 52.7013 104.17 52.296C104.256 51.88 104.314 51.336 104.346 50.664C104.378 49.9813 104.405 49.1387 104.426 48.136V46.28H110.954V55H109.194V47.72H106.106L106.09 48.344C106.08 49.4747 106.037 50.424 105.962 51.192C105.888 51.96 105.776 52.584 105.626 53.064C105.488 53.544 105.296 53.928 105.05 54.216C104.784 54.5467 104.469 54.776 104.106 54.904C103.744 55.0213 103.306 55.0853 102.794 55.096L102.714 53.672ZM112.605 48.936C112.68 48.4667 112.824 48.056 113.037 47.704C113.25 47.352 113.517 47.0587 113.837 46.824C114.157 46.5893 114.53 46.4133 114.957 46.296C115.394 46.1787 115.874 46.12 116.397 46.12C116.962 46.12 117.464 46.184 117.901 46.312C118.349 46.44 118.722 46.6427 119.021 46.92C119.33 47.1867 119.565 47.528 119.725 47.944C119.885 48.3493 119.965 48.84 119.965 49.416V53.128C119.965 53.288 119.986 53.4213 120.029 53.528C120.082 53.624 120.152 53.6933 120.237 53.736C120.333 53.7787 120.445 53.8 120.573 53.8C120.616 53.8 120.664 53.8 120.717 53.8C120.77 53.7893 120.808 53.784 120.829 53.784L120.781 55C120.685 55.0427 120.562 55.0747 120.413 55.096C120.274 55.1173 120.157 55.128 120.061 55.128C119.677 55.128 119.357 55.0693 119.101 54.952C118.856 54.824 118.674 54.6373 118.557 54.392C118.44 54.1573 118.376 53.8693 118.365 53.528C118.312 53.6133 118.253 53.6987 118.189 53.784C117.965 54.072 117.704 54.3227 117.405 54.536C117.106 54.7387 116.776 54.8933 116.413 55C116.061 55.1067 115.677 55.16 115.261 55.16C114.653 55.16 114.125 55.0587 113.677 54.856C113.24 54.6533 112.898 54.36 112.653 53.976C112.418 53.592 112.301 53.1387 112.301 52.616C112.301 52.0933 112.418 51.6453 112.653 51.272C112.888 50.888 113.245 50.5893 113.725 50.376C114.205 50.152 114.813 50.0027 115.549 49.928L118.349 49.656V49.512C118.349 49.1493 118.301 48.84 118.205 48.584C118.12 48.328 117.992 48.12 117.821 47.96C117.65 47.7893 117.442 47.6667 117.197 47.592C116.952 47.5173 116.669 47.48 116.349 47.48C115.954 47.48 115.602 47.544 115.293 47.672C114.984 47.7893 114.738 47.976 114.557 48.232C114.386 48.4773 114.28 48.7867 114.237 49.16L112.605 48.936ZM118.365 50.872L115.725 51.144C115.33 51.1867 115.005 51.2667 114.749 51.384C114.493 51.5013 114.296 51.656 114.157 51.848C114.029 52.0293 113.965 52.248 113.965 52.504C113.965 52.7707 114.024 53 114.141 53.192C114.258 53.384 114.434 53.5333 114.669 53.64C114.914 53.736 115.208 53.784 115.549 53.784C115.869 53.784 116.168 53.7413 116.445 53.656C116.733 53.5707 116.994 53.4533 117.229 53.304C117.464 53.1547 117.666 52.9787 117.837 52.776C118.008 52.5733 118.136 52.344 118.221 52.088C118.317 51.832 118.365 51.5653 118.365 51.288V50.872ZM129.074 55.16C128.38 55.16 127.762 55.048 127.218 54.824C126.684 54.6 126.236 54.2747 125.874 53.848C125.511 53.4213 125.234 52.904 125.042 52.296C124.86 51.6773 124.77 50.9787 124.77 50.2V49.496C124.77 48.3973 124.866 47.4533 125.058 46.664C125.25 45.8747 125.548 45.2293 125.954 44.728C126.359 44.216 126.876 43.832 127.506 43.576C128.135 43.3093 128.892 43.1493 129.778 43.096L131.33 42.984C131.596 42.9627 131.831 42.936 132.034 42.904C132.236 42.872 132.444 42.8293 132.658 42.776L132.786 44.216C132.583 44.2907 132.359 44.3493 132.114 44.392C131.879 44.4347 131.612 44.4667 131.314 44.488L129.762 44.584C129.175 44.6267 128.663 44.7333 128.226 44.904C127.799 45.0747 127.447 45.336 127.17 45.688C126.892 46.0293 126.69 46.488 126.562 47.064C126.487 47.416 126.434 47.8213 126.402 48.28C126.615 47.8853 126.887 47.5493 127.218 47.272C127.548 46.984 127.922 46.7653 128.338 46.616C128.754 46.4667 129.207 46.392 129.698 46.392C130.178 46.392 130.615 46.4613 131.01 46.6C131.404 46.7387 131.751 46.936 132.05 47.192C132.348 47.4373 132.599 47.7413 132.802 48.104C133.004 48.456 133.159 48.856 133.266 49.304C133.372 49.752 133.426 50.2373 133.426 50.76C133.426 51.2933 133.362 51.7893 133.234 52.248C133.106 52.696 132.914 53.1013 132.658 53.464C132.402 53.816 132.092 54.12 131.73 54.376C131.378 54.632 130.978 54.8293 130.53 54.968C130.092 55.096 129.607 55.16 129.074 55.16ZM129.074 53.72C129.404 53.72 129.703 53.6773 129.97 53.592C130.236 53.496 130.471 53.368 130.674 53.208C130.876 53.048 131.047 52.8453 131.186 52.6C131.335 52.3547 131.442 52.0773 131.506 51.768C131.58 51.4587 131.618 51.1173 131.618 50.744C131.618 50.3707 131.586 50.0293 131.522 49.72C131.458 49.4107 131.362 49.1333 131.234 48.888C131.116 48.6427 130.956 48.44 130.754 48.28C130.562 48.1093 130.338 47.9813 130.082 47.896C129.826 47.8 129.532 47.752 129.202 47.752C128.892 47.752 128.604 47.7947 128.338 47.88C128.071 47.9653 127.831 48.0933 127.618 48.264C127.415 48.424 127.239 48.6267 127.09 48.872C126.94 49.1067 126.823 49.384 126.738 49.704C126.663 50.0133 126.626 50.3547 126.626 50.728C126.626 51.1013 126.658 51.4427 126.722 51.752C126.786 52.0613 126.882 52.3387 127.01 52.584C127.138 52.8187 127.303 53.0213 127.506 53.192C127.708 53.3627 127.938 53.496 128.194 53.592C128.45 53.6773 128.743 53.72 129.074 53.72ZM135.121 55V46.28H136.849V52.616L141.073 46.28H142.801V55H141.073V48.664L136.849 55H135.121ZM146.788 55V47.72H143.86V46.28H151.492V47.72H148.564V55H146.788ZM152.576 55V46.28H156.928C157.514 46.28 158.016 46.3653 158.432 46.536C158.858 46.7067 159.184 46.9573 159.408 47.288C159.642 47.6187 159.76 48.0293 159.76 48.52C159.76 48.8187 159.712 49.0853 159.616 49.32C159.53 49.5547 159.402 49.7573 159.232 49.928C159.072 50.0987 158.869 50.2427 158.624 50.36C158.538 50.4027 158.453 50.44 158.368 50.472C158.581 50.536 158.784 50.6213 158.976 50.728C159.328 50.9307 159.6 51.1973 159.792 51.528C159.994 51.8587 160.096 52.2427 160.096 52.68C160.096 53.1813 159.978 53.608 159.744 53.96C159.509 54.3013 159.173 54.5627 158.736 54.744C158.298 54.9147 157.776 55 157.168 55H152.576ZM154.304 51.144V53.704H156.848C157.168 53.704 157.44 53.656 157.664 53.56C157.888 53.464 158.058 53.3307 158.176 53.16C158.304 52.9787 158.368 52.7493 158.368 52.472C158.368 52.184 158.298 51.944 158.16 51.752C158.032 51.5493 157.85 51.4 157.616 51.304C157.381 51.1973 157.114 51.144 156.816 51.144H154.304ZM154.304 47.576V49.896H156.688C156.954 49.896 157.189 49.8533 157.392 49.768C157.605 49.672 157.77 49.5333 157.888 49.352C158.005 49.1707 158.064 48.9467 158.064 48.68C158.064 48.3173 157.936 48.0453 157.68 47.864C157.434 47.672 157.098 47.576 156.672 47.576H154.304ZM161.046 48.936C161.121 48.4667 161.265 48.056 161.478 47.704C161.692 47.352 161.958 47.0587 162.278 46.824C162.598 46.5893 162.972 46.4133 163.398 46.296C163.836 46.1787 164.316 46.12 164.838 46.12C165.404 46.12 165.905 46.184 166.342 46.312C166.79 46.44 167.164 46.6427 167.462 46.92C167.772 47.1867 168.006 47.528 168.166 47.944C168.326 48.3493 168.406 48.84 168.406 49.416V53.128C168.406 53.288 168.428 53.4213 168.47 53.528C168.524 53.624 168.593 53.6933 168.678 53.736C168.774 53.7787 168.886 53.8 169.014 53.8C169.057 53.8 169.105 53.8 169.158 53.8C169.212 53.7893 169.249 53.784 169.27 53.784L169.222 55C169.126 55.0427 169.004 55.0747 168.854 55.096C168.716 55.1173 168.598 55.128 168.502 55.128C168.118 55.128 167.798 55.0693 167.542 54.952C167.297 54.824 167.116 54.6373 166.998 54.392C166.881 54.1573 166.817 53.8693 166.806 53.528C166.753 53.6133 166.694 53.6987 166.63 53.784C166.406 54.072 166.145 54.3227 165.846 54.536C165.548 54.7387 165.217 54.8933 164.854 55C164.502 55.1067 164.118 55.16 163.702 55.16C163.094 55.16 162.566 55.0587 162.118 54.856C161.681 54.6533 161.34 54.36 161.094 53.976C160.86 53.592 160.742 53.1387 160.742 52.616C160.742 52.0933 160.86 51.6453 161.094 51.272C161.329 50.888 161.686 50.5893 162.166 50.376C162.646 50.152 163.254 50.0027 163.99 49.928L166.79 49.656V49.512C166.79 49.1493 166.742 48.84 166.646 48.584C166.561 48.328 166.433 48.12 166.262 47.96C166.092 47.7893 165.884 47.6667 165.638 47.592C165.393 47.5173 165.11 47.48 164.79 47.48C164.396 47.48 164.044 47.544 163.734 47.672C163.425 47.7893 163.18 47.976 162.998 48.232C162.828 48.4773 162.721 48.7867 162.678 49.16L161.046 48.936ZM166.806 50.872L164.166 51.144C163.772 51.1867 163.446 51.2667 163.19 51.384C162.934 51.5013 162.737 51.656 162.598 51.848C162.47 52.0293 162.406 52.248 162.406 52.504C162.406 52.7707 162.465 53 162.582 53.192C162.7 53.384 162.876 53.5333 163.11 53.64C163.356 53.736 163.649 53.784 163.99 53.784C164.31 53.784 164.609 53.7413 164.886 53.656C165.174 53.5707 165.436 53.4533 165.67 53.304C165.905 53.1547 166.108 52.9787 166.278 52.776C166.449 52.5733 166.577 52.344 166.662 52.088C166.758 51.832 166.806 51.5653 166.806 51.288V50.872ZM173.515 55V46.28H181.259V55H179.483V47.72H175.291V55H173.515ZM187.244 55.16C186.7 55.16 186.204 55.0907 185.756 54.952C185.308 54.8133 184.908 54.616 184.556 54.36C184.204 54.0933 183.905 53.7787 183.66 53.416C183.425 53.0427 183.244 52.6267 183.116 52.168C182.999 51.6987 182.94 51.1867 182.94 50.632C182.94 50.0987 182.999 49.5973 183.116 49.128C183.244 48.6587 183.425 48.2373 183.66 47.864C183.905 47.4907 184.204 47.176 184.556 46.92C184.908 46.6533 185.308 46.456 185.756 46.328C186.204 46.1893 186.7 46.12 187.244 46.12C187.799 46.12 188.3 46.1893 188.748 46.328C189.207 46.456 189.607 46.6533 189.948 46.92C190.3 47.176 190.599 47.4907 190.844 47.864C191.089 48.2373 191.271 48.6587 191.388 49.128C191.516 49.5973 191.58 50.0987 191.58 50.632C191.58 51.1867 191.516 51.6987 191.388 52.168C191.271 52.6267 191.089 53.0427 190.844 53.416C190.599 53.7787 190.3 54.0933 189.948 54.36C189.607 54.616 189.207 54.8133 188.748 54.952C188.3 55.0907 187.799 55.16 187.244 55.16ZM187.244 53.72C187.596 53.72 187.9 53.672 188.156 53.576C188.423 53.48 188.657 53.3467 188.86 53.176C189.063 53.0053 189.228 52.7973 189.356 52.552C189.495 52.296 189.596 52.008 189.66 51.688C189.724 51.368 189.756 51.016 189.756 50.632C189.756 50.248 189.724 49.896 189.66 49.576C189.596 49.256 189.495 48.9733 189.356 48.728C189.228 48.4827 189.063 48.2747 188.86 48.104C188.657 47.9227 188.423 47.7893 188.156 47.704C187.9 47.608 187.596 47.56 187.244 47.56C186.913 47.56 186.615 47.608 186.348 47.704C186.081 47.7893 185.847 47.9227 185.644 48.104C185.452 48.2747 185.287 48.488 185.148 48.744C185.009 48.9893 184.908 49.272 184.844 49.592C184.78 49.9013 184.748 50.248 184.748 50.632C184.748 51.016 184.78 51.368 184.844 51.688C184.919 52.008 185.02 52.296 185.148 52.552C185.287 52.7973 185.452 53.0053 185.644 53.176C185.847 53.3467 186.081 53.48 186.348 53.576C186.615 53.672 186.913 53.72 187.244 53.72ZM196.506 55V43.8H198.394V53.448H203.994V55H196.506ZM209.045 55.16C208.49 55.16 207.978 55.0907 207.509 54.952C207.05 54.8027 206.645 54.6 206.293 54.344C205.941 54.0773 205.642 53.7573 205.397 53.384C205.152 53.0107 204.965 52.5947 204.837 52.136C204.709 51.6667 204.645 51.1653 204.645 50.632C204.645 50.0987 204.704 49.6027 204.821 49.144C204.949 48.6853 205.136 48.2747 205.381 47.912C205.626 47.5387 205.92 47.2187 206.261 46.952C206.613 46.6853 207.018 46.4827 207.477 46.344C207.936 46.1947 208.442 46.12 208.997 46.12C209.626 46.12 210.197 46.2213 210.709 46.424C211.221 46.6267 211.658 46.92 212.021 47.304C212.394 47.6773 212.677 48.1253 212.869 48.648C213.072 49.16 213.173 49.736 213.173 50.376C213.173 50.504 213.168 50.632 213.157 50.76C213.146 50.8773 213.125 50.9947 213.093 51.112H206.389C206.4 51.304 206.426 51.4907 206.469 51.672C206.533 52.0027 206.634 52.296 206.773 52.552C206.922 52.7973 207.104 53.016 207.317 53.208C207.53 53.3893 207.781 53.528 208.069 53.624C208.357 53.72 208.682 53.768 209.045 53.768C209.493 53.768 209.877 53.704 210.197 53.576C210.528 53.448 210.8 53.2667 211.013 53.032C211.226 52.7867 211.381 52.4933 211.477 52.152L213.109 52.44C212.96 53.0053 212.714 53.496 212.373 53.912C212.032 54.3173 211.584 54.6267 211.029 54.84C210.474 55.0533 209.813 55.16 209.045 55.16ZM206.421 49.832H211.493C211.472 49.5653 211.418 49.32 211.333 49.096C211.226 48.7653 211.061 48.4827 210.837 48.248C210.624 48.0133 210.362 47.832 210.053 47.704C209.754 47.576 209.408 47.512 209.013 47.512C208.661 47.512 208.341 47.56 208.053 47.656C207.776 47.7413 207.53 47.8747 207.317 48.056C207.114 48.2373 206.938 48.456 206.789 48.712C206.64 48.968 206.533 49.256 206.469 49.576C206.448 49.6613 206.432 49.7467 206.421 49.832ZM214.16 48.936C214.235 48.4667 214.379 48.056 214.592 47.704C214.805 47.352 215.072 47.0587 215.392 46.824C215.712 46.5893 216.085 46.4133 216.512 46.296C216.949 46.1787 217.429 46.12 217.952 46.12C218.517 46.12 219.019 46.184 219.456 46.312C219.904 46.44 220.277 46.6427 220.576 46.92C220.885 47.1867 221.12 47.528 221.28 47.944C221.44 48.3493 221.52 48.84 221.52 49.416V53.128C221.52 53.288 221.541 53.4213 221.584 53.528C221.637 53.624 221.707 53.6933 221.792 53.736C221.888 53.7787 222 53.8 222.128 53.8C222.171 53.8 222.219 53.8 222.272 53.8C222.325 53.7893 222.363 53.784 222.384 53.784L222.336 55C222.24 55.0427 222.117 55.0747 221.968 55.096C221.829 55.1173 221.712 55.128 221.616 55.128C221.232 55.128 220.912 55.0693 220.656 54.952C220.411 54.824 220.229 54.6373 220.112 54.392C219.995 54.1573 219.931 53.8693 219.92 53.528C219.867 53.6133 219.808 53.6987 219.744 53.784C219.52 54.072 219.259 54.3227 218.96 54.536C218.661 54.7387 218.331 54.8933 217.968 55C217.616 55.1067 217.232 55.16 216.816 55.16C216.208 55.16 215.68 55.0587 215.232 54.856C214.795 54.6533 214.453 54.36 214.208 53.976C213.973 53.592 213.856 53.1387 213.856 52.616C213.856 52.0933 213.973 51.6453 214.208 51.272C214.443 50.888 214.8 50.5893 215.28 50.376C215.76 50.152 216.368 50.0027 217.104 49.928L219.904 49.656V49.512C219.904 49.1493 219.856 48.84 219.76 48.584C219.675 48.328 219.547 48.12 219.376 47.96C219.205 47.7893 218.997 47.6667 218.752 47.592C218.507 47.5173 218.224 47.48 217.904 47.48C217.509 47.48 217.157 47.544 216.848 47.672C216.539 47.7893 216.293 47.976 216.112 48.232C215.941 48.4773 215.835 48.7867 215.792 49.16L214.16 48.936ZM219.92 50.872L217.28 51.144C216.885 51.1867 216.56 51.2667 216.304 51.384C216.048 51.5013 215.851 51.656 215.712 51.848C215.584 52.0293 215.52 52.248 215.52 52.504C215.52 52.7707 215.579 53 215.696 53.192C215.813 53.384 215.989 53.5333 216.224 53.64C216.469 53.736 216.763 53.784 217.104 53.784C217.424 53.784 217.723 53.7413 218 53.656C218.288 53.5707 218.549 53.4533 218.784 53.304C219.019 53.1547 219.221 52.9787 219.392 52.776C219.563 52.5733 219.691 52.344 219.776 52.088C219.872 51.832 219.92 51.5653 219.92 51.288V50.872ZM226.893 46.12C227.394 46.12 227.863 46.1787 228.301 46.296C228.749 46.4133 229.143 46.5893 229.485 46.824C229.506 46.8453 229.527 46.8667 229.549 46.888C229.773 46.5573 230.034 46.312 230.333 46.152C230.685 45.9493 231.117 45.8587 231.629 45.88L231.549 47.416C231.186 47.3627 230.882 47.3573 230.637 47.4C230.477 47.432 230.327 47.4853 230.189 47.56C230.221 47.6133 230.247 47.6613 230.269 47.704C230.461 48.056 230.557 48.4613 230.557 48.92C230.557 49.3467 230.466 49.736 230.285 50.088C230.114 50.4293 229.863 50.7173 229.533 50.952C229.213 51.176 228.829 51.352 228.381 51.48C227.933 51.608 227.437 51.672 226.893 51.672C226.37 51.672 225.885 51.6133 225.437 51.496C225.266 51.5387 225.127 51.6027 225.021 51.688C224.85 51.8267 224.765 52.024 224.765 52.28C224.765 52.4293 224.802 52.5627 224.877 52.68C224.951 52.7973 225.063 52.888 225.213 52.952C225.362 53.0053 225.543 53.0373 225.757 53.048L228.765 53.144C229.383 53.1547 229.901 53.2507 230.317 53.432C230.743 53.6133 231.063 53.864 231.277 54.184C231.501 54.504 231.613 54.904 231.613 55.384C231.613 55.864 231.501 56.2853 231.277 56.648C231.053 57.0213 230.733 57.336 230.317 57.592C229.901 57.848 229.394 58.04 228.797 58.168C228.21 58.296 227.554 58.36 226.829 58.36C226.167 58.36 225.57 58.312 225.037 58.216C224.503 58.12 224.05 57.9707 223.677 57.768C223.303 57.576 223.021 57.3307 222.829 57.032C222.637 56.744 222.541 56.3973 222.541 55.992C222.541 55.6187 222.631 55.2933 222.813 55.016C222.994 54.7493 223.266 54.536 223.629 54.376C223.821 54.2907 224.039 54.2213 224.285 54.168C224.189 54.136 224.103 54.104 224.029 54.072C223.751 53.9227 223.538 53.7307 223.389 53.496C223.239 53.2613 223.165 52.9893 223.165 52.68C223.165 52.3173 223.261 52.0027 223.453 51.736C223.655 51.4693 223.938 51.2613 224.301 51.112C224.343 51.1013 224.381 51.0853 224.413 51.064C224.349 51.032 224.285 50.9947 224.221 50.952C223.901 50.7173 223.65 50.4293 223.469 50.088C223.287 49.736 223.197 49.3467 223.197 48.92C223.197 48.4827 223.287 48.0933 223.469 47.752C223.65 47.4 223.901 47.1067 224.221 46.872C224.551 46.6267 224.946 46.44 225.405 46.312C225.863 46.184 226.359 46.12 226.893 46.12ZM225.789 54.536C225.49 54.5467 225.234 54.5947 225.021 54.68C224.775 54.776 224.589 54.9093 224.461 55.08C224.343 55.2613 224.285 55.4747 224.285 55.72C224.285 55.9547 224.343 56.1573 224.461 56.328C224.578 56.4987 224.749 56.6373 224.973 56.744C225.197 56.8507 225.474 56.9307 225.805 56.984C226.135 57.0373 226.509 57.064 226.925 57.064C227.383 57.064 227.794 57.032 228.157 56.968C228.53 56.904 228.845 56.808 229.101 56.68C229.357 56.5627 229.549 56.408 229.677 56.216C229.815 56.0347 229.885 55.8213 229.885 55.576C229.885 55.2773 229.773 55.0427 229.549 54.872C229.325 54.6907 228.967 54.5947 228.477 54.584L225.789 54.536ZM228.813 48.92C228.813 48.6747 228.765 48.4507 228.669 48.248C228.573 48.0453 228.439 47.8747 228.269 47.736C228.098 47.5973 227.895 47.496 227.661 47.432C227.437 47.368 227.181 47.336 226.893 47.336C226.615 47.336 226.354 47.368 226.109 47.432C225.874 47.496 225.666 47.5973 225.485 47.736C225.314 47.8747 225.181 48.0453 225.085 48.248C224.989 48.4507 224.941 48.6747 224.941 48.92C224.941 49.2507 225.026 49.5333 225.197 49.768C225.367 49.992 225.597 50.1627 225.885 50.28C226.183 50.3973 226.519 50.456 226.893 50.456C227.266 50.456 227.597 50.3973 227.885 50.28C228.173 50.1627 228.397 49.992 228.557 49.768C228.727 49.5333 228.813 49.2507 228.813 48.92ZM240.261 46.28V55H238.693L238.565 53.432C238.405 53.6987 238.223 53.944 238.021 54.168C237.818 54.3813 237.589 54.5627 237.333 54.712C237.087 54.8507 236.815 54.9573 236.517 55.032C236.229 55.1173 235.919 55.16 235.589 55.16C235.119 55.16 234.693 55.0907 234.309 54.952C233.935 54.8027 233.61 54.5893 233.333 54.312C233.066 54.0347 232.863 53.6987 232.725 53.304C232.586 52.8987 232.517 52.4453 232.517 51.944V46.28H234.293V51.688C234.293 51.9973 234.33 52.2747 234.405 52.52C234.49 52.7547 234.607 52.952 234.757 53.112C234.917 53.272 235.109 53.3947 235.333 53.48C235.567 53.5653 235.829 53.608 236.117 53.608C236.405 53.608 236.671 53.5707 236.917 53.496C237.162 53.4107 237.381 53.2987 237.573 53.16C237.765 53.0107 237.925 52.8293 238.053 52.616C238.191 52.392 238.298 52.1467 238.373 51.88C238.447 51.6027 238.485 51.2987 238.485 50.968V46.28H240.261ZM246.344 55.16C245.79 55.16 245.278 55.0907 244.808 54.952C244.35 54.8027 243.944 54.6 243.592 54.344C243.24 54.0773 242.942 53.7573 242.696 53.384C242.451 53.0107 242.264 52.5947 242.136 52.136C242.008 51.6667 241.944 51.1653 241.944 50.632C241.944 50.0987 242.003 49.6027 242.12 49.144C242.248 48.6853 242.435 48.2747 242.68 47.912C242.926 47.5387 243.219 47.2187 243.56 46.952C243.912 46.6853 244.318 46.4827 244.776 46.344C245.235 46.1947 245.742 46.12 246.296 46.12C246.926 46.12 247.496 46.2213 248.008 46.424C248.52 46.6267 248.958 46.92 249.32 47.304C249.694 47.6773 249.976 48.1253 250.168 48.648C250.371 49.16 250.472 49.736 250.472 50.376C250.472 50.504 250.467 50.632 250.456 50.76C250.446 50.8773 250.424 50.9947 250.392 51.112H243.688C243.699 51.304 243.726 51.4907 243.768 51.672C243.832 52.0027 243.934 52.296 244.072 52.552C244.222 52.7973 244.403 53.016 244.616 53.208C244.83 53.3893 245.08 53.528 245.368 53.624C245.656 53.72 245.982 53.768 246.344 53.768C246.792 53.768 247.176 53.704 247.496 53.576C247.827 53.448 248.099 53.2667 248.312 53.032C248.526 52.7867 248.68 52.4933 248.776 52.152L250.408 52.44C250.259 53.0053 250.014 53.496 249.672 53.912C249.331 54.3173 248.883 54.6267 248.328 54.84C247.774 55.0533 247.112 55.16 246.344 55.16ZM243.72 49.832H248.792C248.771 49.5653 248.718 49.32 248.632 49.096C248.526 48.7653 248.36 48.4827 248.136 48.248C247.923 48.0133 247.662 47.832 247.352 47.704C247.054 47.576 246.707 47.512 246.312 47.512C245.96 47.512 245.64 47.56 245.352 47.656C245.075 47.7413 244.83 47.8747 244.616 48.056C244.414 48.2373 244.238 48.456 244.088 48.712C243.939 48.968 243.832 49.256 243.768 49.576C243.747 49.6613 243.731 49.7467 243.72 49.832ZM258.828 55.16C258.284 55.16 257.788 55.0907 257.34 54.952C256.892 54.8133 256.492 54.616 256.14 54.36C255.788 54.0933 255.489 53.7787 255.244 53.416C255.009 53.0427 254.828 52.6267 254.7 52.168C254.582 51.6987 254.524 51.1867 254.524 50.632C254.524 50.0987 254.582 49.5973 254.7 49.128C254.828 48.6587 255.009 48.2373 255.244 47.864C255.489 47.4907 255.788 47.176 256.14 46.92C256.492 46.6533 256.892 46.456 257.34 46.328C257.788 46.1893 258.284 46.12 258.828 46.12C259.382 46.12 259.884 46.1893 260.332 46.328C260.79 46.456 261.19 46.6533 261.532 46.92C261.884 47.176 262.182 47.4907 262.428 47.864C262.673 48.2373 262.854 48.6587 262.972 49.128C263.1 49.5973 263.164 50.0987 263.164 50.632C263.164 51.1867 263.1 51.6987 262.972 52.168C262.854 52.6267 262.673 53.0427 262.428 53.416C262.182 53.7787 261.884 54.0933 261.532 54.36C261.19 54.616 260.79 54.8133 260.332 54.952C259.884 55.0907 259.382 55.16 258.828 55.16ZM258.828 53.72C259.18 53.72 259.484 53.672 259.74 53.576C260.006 53.48 260.241 53.3467 260.444 53.176C260.646 53.0053 260.812 52.7973 260.94 52.552C261.078 52.296 261.18 52.008 261.244 51.688C261.308 51.368 261.34 51.016 261.34 50.632C261.34 50.248 261.308 49.896 261.244 49.576C261.18 49.256 261.078 48.9733 260.94 48.728C260.812 48.4827 260.646 48.2747 260.444 48.104C260.241 47.9227 260.006 47.7893 259.74 47.704C259.484 47.608 259.18 47.56 258.828 47.56C258.497 47.56 258.198 47.608 257.932 47.704C257.665 47.7893 257.43 47.9227 257.228 48.104C257.036 48.2747 256.87 48.488 256.732 48.744C256.593 48.9893 256.492 49.272 256.428 49.592C256.364 49.9013 256.332 50.248 256.332 50.632C256.332 51.016 256.364 51.368 256.428 51.688C256.502 52.008 256.604 52.296 256.732 52.552C256.87 52.7973 257.036 53.0053 257.228 53.176C257.43 53.3467 257.665 53.48 257.932 53.576C258.198 53.672 258.497 53.72 258.828 53.72ZM265.138 45.816C265.138 45.1547 265.25 44.6053 265.474 44.168C265.709 43.7307 266.039 43.4 266.466 43.176C266.903 42.952 267.437 42.84 268.066 42.84C268.269 42.84 268.477 42.8507 268.69 42.872C268.903 42.8933 269.101 42.9253 269.282 42.968L269.234 44.392C269.117 44.36 269.01 44.3387 268.914 44.328C268.829 44.3067 268.738 44.296 268.642 44.296C268.557 44.2853 268.455 44.28 268.338 44.28C268.039 44.28 267.783 44.3333 267.57 44.44C267.357 44.536 267.191 44.696 267.074 44.92C266.967 45.144 266.914 45.4427 266.914 45.816V46.28H269.282V47.672H266.914V55H265.138V47.672H263.73V46.28H265.138V45.816ZM273.403 55V43.8H275.291V53.448H280.891V55H273.403ZM285.942 55.16C285.387 55.16 284.875 55.0907 284.406 54.952C283.947 54.8027 283.542 54.6 283.19 54.344C282.838 54.0773 282.539 53.7573 282.294 53.384C282.049 53.0107 281.862 52.5947 281.734 52.136C281.606 51.6667 281.542 51.1653 281.542 50.632C281.542 50.0987 281.601 49.6027 281.718 49.144C281.846 48.6853 282.033 48.2747 282.278 47.912C282.523 47.5387 282.817 47.2187 283.158 46.952C283.51 46.6853 283.915 46.4827 284.374 46.344C284.833 46.1947 285.339 46.12 285.894 46.12C286.523 46.12 287.094 46.2213 287.606 46.424C288.118 46.6267 288.555 46.92 288.918 47.304C289.291 47.6773 289.574 48.1253 289.766 48.648C289.969 49.16 290.07 49.736 290.07 50.376C290.07 50.504 290.065 50.632 290.054 50.76C290.043 50.8773 290.022 50.9947 289.99 51.112H283.286C283.297 51.304 283.323 51.4907 283.366 51.672C283.43 52.0027 283.531 52.296 283.67 52.552C283.819 52.7973 284.001 53.016 284.214 53.208C284.427 53.3893 284.678 53.528 284.966 53.624C285.254 53.72 285.579 53.768 285.942 53.768C286.39 53.768 286.774 53.704 287.094 53.576C287.425 53.448 287.697 53.2667 287.91 53.032C288.123 52.7867 288.278 52.4933 288.374 52.152L290.006 52.44C289.857 53.0053 289.611 53.496 289.27 53.912C288.929 54.3173 288.481 54.6267 287.926 54.84C287.371 55.0533 286.71 55.16 285.942 55.16ZM283.318 49.832H288.39C288.369 49.5653 288.315 49.32 288.23 49.096C288.123 48.7653 287.958 48.4827 287.734 48.248C287.521 48.0133 287.259 47.832 286.95 47.704C286.651 47.576 286.305 47.512 285.91 47.512C285.558 47.512 285.238 47.56 284.95 47.656C284.673 47.7413 284.427 47.8747 284.214 48.056C284.011 48.2373 283.835 48.456 283.686 48.712C283.537 48.968 283.43 49.256 283.366 49.576C283.345 49.6613 283.329 49.7467 283.318 49.832ZM294.945 46.12C295.446 46.12 295.916 46.1787 296.353 46.296C296.801 46.4133 297.196 46.5893 297.537 46.824C297.558 46.8453 297.58 46.8667 297.601 46.888C297.825 46.5573 298.086 46.312 298.385 46.152C298.737 45.9493 299.169 45.8587 299.681 45.88L299.601 47.416C299.238 47.3627 298.934 47.3573 298.689 47.4C298.529 47.432 298.38 47.4853 298.241 47.56C298.273 47.6133 298.3 47.6613 298.321 47.704C298.513 48.056 298.609 48.4613 298.609 48.92C298.609 49.3467 298.518 49.736 298.337 50.088C298.166 50.4293 297.916 50.7173 297.585 50.952C297.265 51.176 296.881 51.352 296.433 51.48C295.985 51.608 295.489 51.672 294.945 51.672C294.422 51.672 293.937 51.6133 293.489 51.496C293.318 51.5387 293.18 51.6027 293.073 51.688C292.902 51.8267 292.817 52.024 292.817 52.28C292.817 52.4293 292.854 52.5627 292.929 52.68C293.004 52.7973 293.116 52.888 293.265 52.952C293.414 53.0053 293.596 53.0373 293.809 53.048L296.817 53.144C297.436 53.1547 297.953 53.2507 298.369 53.432C298.796 53.6133 299.116 53.864 299.329 54.184C299.553 54.504 299.665 54.904 299.665 55.384C299.665 55.864 299.553 56.2853 299.329 56.648C299.105 57.0213 298.785 57.336 298.369 57.592C297.953 57.848 297.446 58.04 296.849 58.168C296.262 58.296 295.606 58.36 294.881 58.36C294.22 58.36 293.622 58.312 293.089 58.216C292.556 58.12 292.102 57.9707 291.729 57.768C291.356 57.576 291.073 57.3307 290.881 57.032C290.689 56.744 290.593 56.3973 290.593 55.992C290.593 55.6187 290.684 55.2933 290.865 55.016C291.046 54.7493 291.318 54.536 291.681 54.376C291.873 54.2907 292.092 54.2213 292.337 54.168C292.241 54.136 292.156 54.104 292.081 54.072C291.804 53.9227 291.59 53.7307 291.441 53.496C291.292 53.2613 291.217 52.9893 291.217 52.68C291.217 52.3173 291.313 52.0027 291.505 51.736C291.708 51.4693 291.99 51.2613 292.353 51.112C292.396 51.1013 292.433 51.0853 292.465 51.064C292.401 51.032 292.337 50.9947 292.273 50.952C291.953 50.7173 291.702 50.4293 291.521 50.088C291.34 49.736 291.249 49.3467 291.249 48.92C291.249 48.4827 291.34 48.0933 291.521 47.752C291.702 47.4 291.953 47.1067 292.273 46.872C292.604 46.6267 292.998 46.44 293.457 46.312C293.916 46.184 294.412 46.12 294.945 46.12ZM293.841 54.536C293.542 54.5467 293.286 54.5947 293.073 54.68C292.828 54.776 292.641 54.9093 292.513 55.08C292.396 55.2613 292.337 55.4747 292.337 55.72C292.337 55.9547 292.396 56.1573 292.513 56.328C292.63 56.4987 292.801 56.6373 293.025 56.744C293.249 56.8507 293.526 56.9307 293.857 56.984C294.188 57.0373 294.561 57.064 294.977 57.064C295.436 57.064 295.846 57.032 296.209 56.968C296.582 56.904 296.897 56.808 297.153 56.68C297.409 56.5627 297.601 56.408 297.729 56.216C297.868 56.0347 297.937 55.8213 297.937 55.576C297.937 55.2773 297.825 55.0427 297.601 54.872C297.377 54.6907 297.02 54.5947 296.529 54.584L293.841 54.536ZM296.865 48.92C296.865 48.6747 296.817 48.4507 296.721 48.248C296.625 48.0453 296.492 47.8747 296.321 47.736C296.15 47.5973 295.948 47.496 295.713 47.432C295.489 47.368 295.233 47.336 294.945 47.336C294.668 47.336 294.406 47.368 294.161 47.432C293.926 47.496 293.718 47.5973 293.537 47.736C293.366 47.8747 293.233 48.0453 293.137 48.248C293.041 48.4507 292.993 48.6747 292.993 48.92C292.993 49.2507 293.078 49.5333 293.249 49.768C293.42 49.992 293.649 50.1627 293.937 50.28C294.236 50.3973 294.572 50.456 294.945 50.456C295.318 50.456 295.649 50.3973 295.937 50.28C296.225 50.1627 296.449 49.992 296.609 49.768C296.78 49.5333 296.865 49.2507 296.865 48.92ZM304.521 55.16C303.967 55.16 303.455 55.0907 302.985 54.952C302.527 54.8027 302.121 54.6 301.769 54.344C301.417 54.0773 301.119 53.7573 300.873 53.384C300.628 53.0107 300.441 52.5947 300.313 52.136C300.185 51.6667 300.121 51.1653 300.121 50.632C300.121 50.0987 300.18 49.6027 300.297 49.144C300.425 48.6853 300.612 48.2747 300.857 47.912C301.103 47.5387 301.396 47.2187 301.737 46.952C302.089 46.6853 302.495 46.4827 302.953 46.344C303.412 46.1947 303.919 46.12 304.473 46.12C305.103 46.12 305.673 46.2213 306.185 46.424C306.697 46.6267 307.135 46.92 307.497 47.304C307.871 47.6773 308.153 48.1253 308.345 48.648C308.548 49.16 308.649 49.736 308.649 50.376C308.649 50.504 308.644 50.632 308.633 50.76C308.623 50.8773 308.601 50.9947 308.569 51.112H301.865C301.876 51.304 301.903 51.4907 301.945 51.672C302.009 52.0027 302.111 52.296 302.249 52.552C302.399 52.7973 302.58 53.016 302.793 53.208C303.007 53.3893 303.257 53.528 303.545 53.624C303.833 53.72 304.159 53.768 304.521 53.768C304.969 53.768 305.353 53.704 305.673 53.576C306.004 53.448 306.276 53.2667 306.489 53.032C306.703 52.7867 306.857 52.4933 306.953 52.152L308.585 52.44C308.436 53.0053 308.191 53.496 307.849 53.912C307.508 54.3173 307.06 54.6267 306.505 54.84C305.951 55.0533 305.289 55.16 304.521 55.16ZM301.897 49.832H306.969C306.948 49.5653 306.895 49.32 306.809 49.096C306.703 48.7653 306.537 48.4827 306.313 48.248C306.1 48.0133 305.839 47.832 305.529 47.704C305.231 47.576 304.884 47.512 304.489 47.512C304.137 47.512 303.817 47.56 303.529 47.656C303.252 47.7413 303.007 47.8747 302.793 48.056C302.591 48.2373 302.415 48.456 302.265 48.712C302.116 48.968 302.009 49.256 301.945 49.576C301.924 49.6613 301.908 49.7467 301.897 49.832ZM310.244 55V46.28H311.796L311.94 47.88C312.154 47.5067 312.415 47.192 312.724 46.936C313.034 46.6693 313.38 46.4667 313.764 46.328C314.159 46.1893 314.58 46.12 315.028 46.12C315.658 46.12 316.202 46.2533 316.66 46.52C317.13 46.7867 317.487 47.16 317.732 47.64C317.988 48.1093 318.116 48.6693 318.116 49.32V55H316.34V49.704C316.34 49.2987 316.266 48.9467 316.116 48.648C315.967 48.3387 315.748 48.0987 315.46 47.928C315.183 47.7467 314.836 47.656 314.42 47.656C314.068 47.656 313.748 47.72 313.46 47.848C313.172 47.9653 312.916 48.1413 312.692 48.376C312.479 48.6 312.314 48.872 312.196 49.192C312.079 49.5013 312.02 49.8533 312.02 50.248V55H310.244ZM326.517 43H328.277V55H326.725L326.597 53.4C326.501 53.56 326.394 53.7147 326.277 53.864C325.946 54.2693 325.546 54.5893 325.077 54.824C324.618 55.048 324.101 55.16 323.525 55.16C323.056 55.16 322.618 55.0907 322.213 54.952C321.818 54.8027 321.461 54.5947 321.141 54.328C320.832 54.0613 320.565 53.7413 320.341 53.368C320.128 52.9947 319.962 52.5787 319.845 52.12C319.738 51.6613 319.685 51.1653 319.685 50.632C319.685 50.1093 319.738 49.6187 319.845 49.16C319.962 48.7013 320.128 48.2853 320.341 47.912C320.565 47.5387 320.832 47.2187 321.141 46.952C321.461 46.6853 321.818 46.4827 322.213 46.344C322.618 46.1947 323.056 46.12 323.525 46.12C324.101 46.12 324.618 46.2373 325.077 46.472C325.546 46.696 325.946 47.016 326.277 47.432C326.362 47.5387 326.442 47.6453 326.517 47.752V43ZM324.005 53.688C324.528 53.688 324.976 53.56 325.349 53.304C325.722 53.0373 326.01 52.6747 326.213 52.216C326.416 51.7573 326.517 51.2347 326.517 50.648C326.517 50.2107 326.458 49.8053 326.341 49.432C326.224 49.0587 326.058 48.7333 325.845 48.456C325.632 48.1787 325.37 47.9653 325.061 47.816C324.752 47.6667 324.4 47.592 324.005 47.592C323.674 47.592 323.376 47.64 323.109 47.736C322.853 47.832 322.624 47.9707 322.421 48.152C322.218 48.3333 322.048 48.552 321.909 48.808C321.781 49.0533 321.68 49.3307 321.605 49.64C321.53 49.9493 321.493 50.2853 321.493 50.648C321.493 51 321.53 51.3307 321.605 51.64C321.68 51.9387 321.781 52.216 321.909 52.472C322.048 52.728 322.218 52.9467 322.421 53.128C322.624 53.3093 322.853 53.448 323.109 53.544C323.376 53.64 323.674 53.688 324.005 53.688ZM333.519 47.464C333.135 47.464 332.799 47.512 332.511 47.608C332.234 47.6933 332.02 47.816 331.871 47.976C331.722 48.136 331.647 48.3333 331.647 48.568C331.647 48.8133 331.7 49.016 331.807 49.176C331.924 49.3253 332.111 49.448 332.367 49.544C332.634 49.6293 332.975 49.704 333.391 49.768L334.239 49.864C334.975 49.96 335.578 50.1093 336.047 50.312C336.516 50.5147 336.863 50.7867 337.087 51.128C337.311 51.4693 337.423 51.9013 337.423 52.424C337.423 52.9787 337.274 53.464 336.975 53.88C336.687 54.2853 336.271 54.6 335.727 54.824C335.183 55.048 334.516 55.16 333.727 55.16C332.895 55.16 332.202 55.0587 331.647 54.856C331.103 54.6427 330.676 54.3227 330.367 53.896C330.058 53.4693 329.85 52.9307 329.743 52.28L331.359 52.056C331.444 52.664 331.684 53.112 332.079 53.4C332.474 53.6773 333.007 53.816 333.679 53.816C334.031 53.816 334.33 53.7893 334.575 53.736C334.831 53.672 335.039 53.5867 335.199 53.48C335.359 53.3733 335.482 53.2507 335.567 53.112C335.652 52.9627 335.695 52.8027 335.695 52.632C335.695 52.3547 335.631 52.136 335.503 51.976C335.386 51.8053 335.194 51.672 334.927 51.576C334.671 51.48 334.324 51.4 333.887 51.336L332.991 51.24C332.319 51.144 331.759 50.9947 331.311 50.792C330.863 50.5893 330.527 50.3173 330.303 49.976C330.09 49.6347 329.983 49.224 329.983 48.744C329.983 48.2107 330.122 47.7467 330.399 47.352C330.687 46.9573 331.098 46.6533 331.631 46.44C332.164 46.2267 332.794 46.12 333.519 46.12C334.255 46.12 334.879 46.2213 335.391 46.424C335.914 46.616 336.33 46.9147 336.639 47.32C336.948 47.7253 337.14 48.2373 337.215 48.856L335.615 49.064C335.572 48.6907 335.466 48.392 335.295 48.168C335.135 47.9333 334.906 47.7573 334.607 47.64C334.319 47.5227 333.956 47.464 333.519 47.464ZM344.413 57.4C343.88 56.6747 343.437 55.9387 343.085 55.192C342.733 54.456 342.466 53.704 342.285 52.936C342.104 52.1573 342.013 51.3787 342.013 50.6C342.013 49.8213 342.104 49.0533 342.285 48.296C342.466 47.528 342.733 46.7707 343.085 46.024C343.437 45.2667 343.88 44.5253 344.413 43.8H346.061C345.688 44.3867 345.362 44.968 345.085 45.544C344.808 46.1093 344.573 46.68 344.381 47.256C344.2 47.8213 344.061 48.3813 343.965 48.936C343.869 49.4907 343.821 50.0453 343.821 50.6C343.821 51.144 343.869 51.6987 343.965 52.264C344.061 52.8187 344.2 53.3787 344.381 53.944C344.573 54.5093 344.808 55.08 345.085 55.656C345.362 56.232 345.688 56.8133 346.061 57.4H344.413ZM347.581 55V43.8H349.469V53.448H355.069V55H347.581ZM360.519 55.16C359.847 55.16 359.228 55.0693 358.663 54.888C358.097 54.7067 357.596 54.4507 357.159 54.12C356.721 53.7893 356.348 53.3893 356.039 52.92C355.729 52.44 355.495 51.9067 355.335 51.32C355.175 50.7333 355.095 50.0987 355.095 49.416C355.095 48.7333 355.175 48.0987 355.335 47.512C355.495 46.9147 355.729 46.3813 356.039 45.912C356.348 45.432 356.721 45.0267 357.159 44.696C357.596 44.3547 358.097 44.0933 358.663 43.912C359.228 43.7307 359.847 43.64 360.519 43.64C361.212 43.64 361.841 43.7307 362.407 43.912C362.972 44.0933 363.473 44.3547 363.911 44.696C364.348 45.0267 364.721 45.432 365.031 45.912C365.34 46.3813 365.569 46.9093 365.719 47.496C365.879 48.0827 365.959 48.7173 365.959 49.4C365.959 50.0827 365.879 50.7173 365.719 51.304C365.569 51.8907 365.34 52.424 365.031 52.904C364.721 53.3733 364.348 53.7787 363.911 54.12C363.473 54.4507 362.972 54.7067 362.407 54.888C361.841 55.0693 361.212 55.16 360.519 55.16ZM360.519 53.608C360.988 53.608 361.409 53.544 361.783 53.416C362.156 53.288 362.481 53.1067 362.759 52.872C363.047 52.6267 363.281 52.3333 363.463 51.992C363.655 51.6507 363.799 51.2667 363.895 50.84C363.991 50.4027 364.039 49.9227 364.039 49.4C364.039 48.888 363.991 48.4187 363.895 47.992C363.799 47.5547 363.655 47.1653 363.463 46.824C363.281 46.472 363.047 46.1787 362.759 45.944C362.481 45.6987 362.156 45.512 361.783 45.384C361.409 45.256 360.988 45.192 360.519 45.192C360.071 45.192 359.66 45.256 359.287 45.384C358.913 45.512 358.583 45.6987 358.295 45.944C358.017 46.1787 357.783 46.472 357.591 46.824C357.399 47.1653 357.255 47.5547 357.159 47.992C357.073 48.4187 357.031 48.8933 357.031 49.416C357.031 49.9387 357.073 50.4133 357.159 50.84C357.255 51.2667 357.399 51.656 357.591 52.008C357.783 52.3493 358.017 52.6427 358.295 52.888C358.583 53.1227 358.913 53.304 359.287 53.432C359.66 53.5493 360.071 53.608 360.519 53.608ZM367.895 55V43.8H369.783V53.448H375.383V55H367.895ZM377.297 43.8C377.83 44.5147 378.273 45.2453 378.625 45.992C378.988 46.7387 379.254 47.5013 379.425 48.28C379.606 49.048 379.697 49.8213 379.697 50.6C379.697 51.3787 379.606 52.152 379.425 52.92C379.254 53.6773 378.988 54.4293 378.625 55.176C378.273 55.9227 377.83 56.664 377.297 57.4H375.633C376.006 56.8133 376.332 56.232 376.609 55.656C376.897 55.0907 377.132 54.5253 377.313 53.96C377.505 53.3947 377.644 52.8347 377.729 52.28C377.825 51.7147 377.873 51.1547 377.873 50.6C377.873 50.0453 377.825 49.496 377.729 48.952C377.644 48.3973 377.505 47.8373 377.313 47.272C377.132 46.696 376.897 46.12 376.609 45.544C376.332 44.968 376.006 44.3867 375.633 43.8H377.297ZM381.905 53.112H383.777V55.128C383.777 55.6933 383.702 56.1467 383.553 56.488C383.414 56.8293 383.196 57.0747 382.897 57.224C382.598 57.384 382.204 57.4693 381.713 57.48L381.617 56.472C381.894 56.472 382.108 56.4347 382.257 56.36C382.417 56.296 382.529 56.168 382.593 55.976C382.657 55.7947 382.689 55.5387 382.689 55.208V55H381.905V53.112ZM12.44 73V64.28H16.792C17.3787 64.28 17.88 64.3653 18.296 64.536C18.7227 64.7067 19.048 64.9573 19.272 65.288C19.5067 65.6187 19.624 66.0293 19.624 66.52C19.624 66.8187 19.576 67.0853 19.48 67.32C19.3947 67.5547 19.2667 67.7573 19.096 67.928C18.936 68.0987 18.7333 68.2427 18.488 68.36C18.4027 68.4027 18.3173 68.44 18.232 68.472C18.4453 68.536 18.648 68.6213 18.84 68.728C19.192 68.9307 19.464 69.1973 19.656 69.528C19.8587 69.8587 19.96 70.2427 19.96 70.68C19.96 71.1813 19.8427 71.608 19.608 71.96C19.3733 72.3013 19.0373 72.5627 18.6 72.744C18.1627 72.9147 17.64 73 17.032 73H12.44ZM14.168 69.144V71.704H16.712C17.032 71.704 17.304 71.656 17.528 71.56C17.752 71.464 17.9227 71.3307 18.04 71.16C18.168 70.9787 18.232 70.7493 18.232 70.472C18.232 70.184 18.1627 69.944 18.024 69.752C17.896 69.5493 17.7147 69.4 17.48 69.304C17.2453 69.1973 16.9787 69.144 16.68 69.144H14.168ZM14.168 65.576V67.896H16.552C16.8187 67.896 17.0533 67.8533 17.256 67.768C17.4693 67.672 17.6347 67.5333 17.752 67.352C17.8693 67.1707 17.928 66.9467 17.928 66.68C17.928 66.3173 17.8 66.0453 17.544 65.864C17.2987 65.672 16.9627 65.576 16.536 65.576H14.168ZM24.535 73V64.28H26.311V68.344L30.231 64.28H32.343L28.231 68.36L32.439 73H30.263L26.311 68.664V73H24.535ZM36.9359 73.16C36.3919 73.16 35.8959 73.0907 35.4479 72.952C34.9999 72.8133 34.5999 72.616 34.2479 72.36C33.8959 72.0933 33.5972 71.7787 33.3519 71.416C33.1172 71.0427 32.9359 70.6267 32.8079 70.168C32.6905 69.6987 32.6319 69.1867 32.6319 68.632C32.6319 68.0987 32.6905 67.5973 32.8079 67.128C32.9359 66.6587 33.1172 66.2373 33.3519 65.864C33.5972 65.4907 33.8959 65.176 34.2479 64.92C34.5999 64.6533 34.9999 64.456 35.4479 64.328C35.8959 64.1893 36.3919 64.12 36.9359 64.12C37.4905 64.12 37.9919 64.1893 38.4399 64.328C38.8985 64.456 39.2985 64.6533 39.6399 64.92C39.9919 65.176 40.2905 65.4907 40.5359 65.864C40.7812 66.2373 40.9625 66.6587 41.0799 67.128C41.2079 67.5973 41.2719 68.0987 41.2719 68.632C41.2719 69.1867 41.2079 69.6987 41.0799 70.168C40.9625 70.6267 40.7812 71.0427 40.5359 71.416C40.2905 71.7787 39.9919 72.0933 39.6399 72.36C39.2985 72.616 38.8985 72.8133 38.4399 72.952C37.9919 73.0907 37.4905 73.16 36.9359 73.16ZM36.9359 71.72C37.2879 71.72 37.5919 71.672 37.8479 71.576C38.1145 71.48 38.3492 71.3467 38.5519 71.176C38.7545 71.0053 38.9199 70.7973 39.0479 70.552C39.1865 70.296 39.2879 70.008 39.3519 69.688C39.4159 69.368 39.4479 69.016 39.4479 68.632C39.4479 68.248 39.4159 67.896 39.3519 67.576C39.2879 67.256 39.1865 66.9733 39.0479 66.728C38.9199 66.4827 38.7545 66.2747 38.5519 66.104C38.3492 65.9227 38.1145 65.7893 37.8479 65.704C37.5919 65.608 37.2879 65.56 36.9359 65.56C36.6052 65.56 36.3065 65.608 36.0399 65.704C35.7732 65.7893 35.5385 65.9227 35.3359 66.104C35.1439 66.2747 34.9785 66.488 34.8399 66.744C34.7012 66.9893 34.5999 67.272 34.5359 67.592C34.4719 67.9013 34.4399 68.248 34.4399 68.632C34.4399 69.016 34.4719 69.368 34.5359 69.688C34.6105 70.008 34.7119 70.296 34.8399 70.552C34.9785 70.7973 35.1439 71.0053 35.3359 71.176C35.5385 71.3467 35.7732 71.48 36.0399 71.576C36.3065 71.672 36.6052 71.72 36.9359 71.72ZM44.7181 73V65.72H41.7901V64.28H49.4221V65.72H46.4941V73H44.7181ZM54.2496 73.16C53.7056 73.16 53.2096 73.0907 52.7616 72.952C52.3136 72.8133 51.9136 72.616 51.5616 72.36C51.2096 72.0933 50.911 71.7787 50.6656 71.416C50.431 71.0427 50.2496 70.6267 50.1216 70.168C50.0043 69.6987 49.9456 69.1867 49.9456 68.632C49.9456 68.0987 50.0043 67.5973 50.1216 67.128C50.2496 66.6587 50.431 66.2373 50.6656 65.864C50.911 65.4907 51.2096 65.176 51.5616 64.92C51.9136 64.6533 52.3136 64.456 52.7616 64.328C53.2096 64.1893 53.7056 64.12 54.2496 64.12C54.8043 64.12 55.3056 64.1893 55.7536 64.328C56.2123 64.456 56.6123 64.6533 56.9536 64.92C57.3056 65.176 57.6043 65.4907 57.8496 65.864C58.095 66.2373 58.2763 66.6587 58.3936 67.128C58.5216 67.5973 58.5856 68.0987 58.5856 68.632C58.5856 69.1867 58.5216 69.6987 58.3936 70.168C58.2763 70.6267 58.095 71.0427 57.8496 71.416C57.6043 71.7787 57.3056 72.0933 56.9536 72.36C56.6123 72.616 56.2123 72.8133 55.7536 72.952C55.3056 73.0907 54.8043 73.16 54.2496 73.16ZM54.2496 71.72C54.6016 71.72 54.9056 71.672 55.1616 71.576C55.4283 71.48 55.663 71.3467 55.8656 71.176C56.0683 71.0053 56.2336 70.7973 56.3616 70.552C56.5003 70.296 56.6016 70.008 56.6656 69.688C56.7296 69.368 56.7616 69.016 56.7616 68.632C56.7616 68.248 56.7296 67.896 56.6656 67.576C56.6016 67.256 56.5003 66.9733 56.3616 66.728C56.2336 66.4827 56.0683 66.2747 55.8656 66.104C55.663 65.9227 55.4283 65.7893 55.1616 65.704C54.9056 65.608 54.6016 65.56 54.2496 65.56C53.919 65.56 53.6203 65.608 53.3536 65.704C53.087 65.7893 52.8523 65.9227 52.6496 66.104C52.4576 66.2747 52.2923 66.488 52.1536 66.744C52.015 66.9893 51.9136 67.272 51.8496 67.592C51.7856 67.9013 51.7536 68.248 51.7536 68.632C51.7536 69.016 51.7856 69.368 51.8496 69.688C51.9243 70.008 52.0256 70.296 52.1536 70.552C52.2923 70.7973 52.4576 71.0053 52.6496 71.176C52.8523 71.3467 53.087 71.48 53.3536 71.576C53.6203 71.672 53.919 71.72 54.2496 71.72ZM61.8239 64.28L61.9519 65.896C62.0585 65.7253 62.1705 65.5707 62.2879 65.432C62.6079 65.016 62.9972 64.696 63.4559 64.472C63.9252 64.2373 64.4479 64.12 65.0239 64.12C65.4932 64.12 65.9252 64.1947 66.3199 64.344C66.7252 64.4827 67.0825 64.6853 67.3919 64.952C67.7119 65.2187 67.9785 65.5387 68.1919 65.912C68.4159 66.2853 68.5865 66.7013 68.7039 67.16C68.8212 67.6187 68.8799 68.1093 68.8799 68.632C68.8799 69.1653 68.8212 69.6613 68.7039 70.12C68.5865 70.5787 68.4159 70.9947 68.1919 71.368C67.9785 71.7413 67.7119 72.0613 67.3919 72.328C67.0825 72.5947 66.7252 72.8027 66.3199 72.952C65.9252 73.0907 65.4932 73.16 65.0239 73.16C64.4479 73.16 63.9252 73.048 63.4559 72.824C62.9972 72.5893 62.6079 72.2693 62.2879 71.864C62.2025 71.7573 62.1225 71.6453 62.0479 71.528V76.2H60.2719V64.28H61.8239ZM64.5599 71.688C64.8799 71.688 65.1732 71.64 65.4399 71.544C65.7065 71.448 65.9412 71.3093 66.1439 71.128C66.3465 70.9467 66.5119 70.728 66.6399 70.472C66.7785 70.216 66.8799 69.9387 66.9439 69.64C67.0185 69.3307 67.0559 69 67.0559 68.648C67.0559 68.2853 67.0185 67.9493 66.9439 67.64C66.8799 67.3307 66.7785 67.0533 66.6399 66.808C66.5119 66.552 66.3465 66.3333 66.1439 66.152C65.9412 65.9707 65.7065 65.832 65.4399 65.736C65.1732 65.64 64.8799 65.592 64.5599 65.592C64.0372 65.592 63.5892 65.7253 63.2159 65.992C62.8425 66.248 62.5545 66.6053 62.3519 67.064C62.1492 67.5227 62.0479 68.0507 62.0479 68.648C62.0479 69.0853 62.1012 69.4907 62.2079 69.864C62.3252 70.2373 62.4905 70.5627 62.7039 70.84C62.9279 71.1067 63.1945 71.3147 63.5039 71.464C63.8132 71.6133 64.1652 71.688 64.5599 71.688ZM74.2978 73.16C73.7538 73.16 73.2578 73.0907 72.8098 72.952C72.3618 72.8133 71.9618 72.616 71.6098 72.36C71.2578 72.0933 70.9591 71.7787 70.7138 71.416C70.4791 71.0427 70.2978 70.6267 70.1698 70.168C70.0524 69.6987 69.9938 69.1867 69.9938 68.632C69.9938 68.0987 70.0524 67.5973 70.1698 67.128C70.2978 66.6587 70.4791 66.2373 70.7138 65.864C70.9591 65.4907 71.2578 65.176 71.6098 64.92C71.9618 64.6533 72.3618 64.456 72.8098 64.328C73.2578 64.1893 73.7538 64.12 74.2978 64.12C74.8524 64.12 75.3538 64.1893 75.8018 64.328C76.2604 64.456 76.6604 64.6533 77.0018 64.92C77.3538 65.176 77.6524 65.4907 77.8978 65.864C78.1431 66.2373 78.3244 66.6587 78.4418 67.128C78.5698 67.5973 78.6338 68.0987 78.6338 68.632C78.6338 69.1867 78.5698 69.6987 78.4418 70.168C78.3244 70.6267 78.1431 71.0427 77.8978 71.416C77.6524 71.7787 77.3538 72.0933 77.0018 72.36C76.6604 72.616 76.2604 72.8133 75.8018 72.952C75.3538 73.0907 74.8524 73.16 74.2978 73.16ZM74.2978 71.72C74.6498 71.72 74.9538 71.672 75.2098 71.576C75.4764 71.48 75.7111 71.3467 75.9138 71.176C76.1164 71.0053 76.2818 70.7973 76.4098 70.552C76.5484 70.296 76.6498 70.008 76.7138 69.688C76.7778 69.368 76.8098 69.016 76.8098 68.632C76.8098 68.248 76.7778 67.896 76.7138 67.576C76.6498 67.256 76.5484 66.9733 76.4098 66.728C76.2818 66.4827 76.1164 66.2747 75.9138 66.104C75.7111 65.9227 75.4764 65.7893 75.2098 65.704C74.9538 65.608 74.6498 65.56 74.2978 65.56C73.9671 65.56 73.6684 65.608 73.4018 65.704C73.1351 65.7893 72.9004 65.9227 72.6978 66.104C72.5058 66.2747 72.3404 66.488 72.2018 66.744C72.0631 66.9893 71.9618 67.272 71.8978 67.592C71.8338 67.9013 71.8018 68.248 71.8018 68.632C71.8018 69.016 71.8338 69.368 71.8978 69.688C71.9724 70.008 72.0738 70.296 72.2018 70.552C72.3404 70.7973 72.5058 71.0053 72.6978 71.176C72.9004 71.3467 73.1351 71.48 73.4018 71.576C73.6684 71.672 73.9671 71.72 74.2978 71.72ZM80.32 73V64.28H82.048V70.616L86.272 64.28H88V73H86.272V66.664L82.048 73H80.32ZM85.616 60.888H87.024C87.024 61.2613 86.9547 61.6027 86.816 61.912C86.688 62.2107 86.496 62.4667 86.24 62.68C85.9947 62.8933 85.7013 63.0587 85.36 63.176C85.0187 63.2933 84.6347 63.352 84.208 63.352C83.8027 63.352 83.424 63.2933 83.072 63.176C82.72 63.0587 82.4213 62.8933 82.176 62.68C81.9307 62.4667 81.7387 62.2107 81.6 61.912C81.4613 61.6027 81.392 61.2613 81.392 60.888H82.8C82.8 61.3147 82.928 61.6507 83.184 61.896C83.44 62.1413 83.7813 62.264 84.208 62.264C84.496 62.264 84.7467 62.2107 84.96 62.104C85.1733 61.9867 85.3333 61.8267 85.44 61.624C85.5573 61.4213 85.616 61.176 85.616 60.888ZM93.2587 73V64.28H101.003V73H99.2267V65.72H95.0347V73H93.2587ZM104.796 64.28L104.924 65.896C105.03 65.7253 105.142 65.5707 105.26 65.432C105.58 65.016 105.969 64.696 106.428 64.472C106.897 64.2373 107.42 64.12 107.996 64.12C108.465 64.12 108.897 64.1947 109.292 64.344C109.697 64.4827 110.054 64.6853 110.364 64.952C110.684 65.2187 110.95 65.5387 111.164 65.912C111.388 66.2853 111.558 66.7013 111.676 67.16C111.793 67.6187 111.852 68.1093 111.852 68.632C111.852 69.1653 111.793 69.6613 111.676 70.12C111.558 70.5787 111.388 70.9947 111.164 71.368C110.95 71.7413 110.684 72.0613 110.364 72.328C110.054 72.5947 109.697 72.8027 109.292 72.952C108.897 73.0907 108.465 73.16 107.996 73.16C107.42 73.16 106.897 73.048 106.428 72.824C105.969 72.5893 105.58 72.2693 105.26 71.864C105.174 71.7573 105.094 71.6453 105.02 71.528V76.2H103.244V64.28H104.796ZM107.532 71.688C107.852 71.688 108.145 71.64 108.412 71.544C108.678 71.448 108.913 71.3093 109.116 71.128C109.318 70.9467 109.484 70.728 109.612 70.472C109.75 70.216 109.852 69.9387 109.916 69.64C109.99 69.3307 110.028 69 110.028 68.648C110.028 68.2853 109.99 67.9493 109.916 67.64C109.852 67.3307 109.75 67.0533 109.612 66.808C109.484 66.552 109.318 66.3333 109.116 66.152C108.913 65.9707 108.678 65.832 108.412 65.736C108.145 65.64 107.852 65.592 107.532 65.592C107.009 65.592 106.561 65.7253 106.188 65.992C105.814 66.248 105.526 66.6053 105.324 67.064C105.121 67.5227 105.02 68.0507 105.02 68.648C105.02 69.0853 105.073 69.4907 105.18 69.864C105.297 70.2373 105.462 70.5627 105.676 70.84C105.9 71.1067 106.166 71.3147 106.476 71.464C106.785 71.6133 107.137 71.688 107.532 71.688ZM113.526 73V64.28H115.254V70.616L119.478 64.28H121.206V73H119.478V66.664L115.254 73H113.526ZM123.448 73V64.28H125.224V67.704H129.544V64.28H131.304V73H129.544V69.144H125.224V73H123.448ZM139.99 73H138.262V69.864H136.79L134.646 73H132.742L135.094 69.624C134.838 69.5707 134.598 69.496 134.374 69.4C133.905 69.1867 133.537 68.8827 133.27 68.488C133.003 68.0827 132.87 67.6027 132.87 67.048C132.87 66.472 133.003 65.976 133.27 65.56C133.537 65.144 133.915 64.824 134.406 64.6C134.897 64.376 135.467 64.264 136.118 64.264H139.99V73ZM138.262 68.52V65.576H136.246C135.915 65.576 135.622 65.6347 135.366 65.752C135.121 65.8693 134.929 66.04 134.79 66.264C134.662 66.4773 134.598 66.744 134.598 67.064C134.598 67.3733 134.667 67.64 134.806 67.864C134.945 68.0773 135.137 68.2427 135.382 68.36C135.627 68.4667 135.915 68.52 136.246 68.52H138.262ZM140.983 71.672C141.207 71.6613 141.409 71.624 141.591 71.56C141.772 71.4853 141.921 71.3733 142.039 71.224C142.22 71.0107 142.353 70.7013 142.439 70.296C142.524 69.88 142.583 69.336 142.615 68.664C142.647 67.9813 142.673 67.1387 142.695 66.136V64.28H149.223V73H147.463V65.72H144.375L144.359 66.344C144.348 67.4747 144.305 68.424 144.231 69.192C144.156 69.96 144.044 70.584 143.895 71.064C143.756 71.544 143.564 71.928 143.319 72.216C143.052 72.5467 142.737 72.776 142.375 72.904C142.012 73.0213 141.575 73.0853 141.063 73.096L140.983 71.672ZM151.481 73V64.28H153.209V70.616L157.433 64.28H159.161V73H157.433V66.664L153.209 73H151.481ZM169.796 64.28H171.556L167.972 73.56C167.78 74.0613 167.583 74.488 167.38 74.84C167.188 75.192 166.969 75.48 166.724 75.704C166.489 75.928 166.217 76.0933 165.908 76.2C165.609 76.3067 165.273 76.36 164.9 76.36C164.708 76.36 164.521 76.344 164.34 76.312C164.159 76.2907 163.999 76.2533 163.86 76.2L163.78 74.84C163.897 74.872 164.015 74.8933 164.132 74.904C164.249 74.9147 164.367 74.92 164.484 74.92C164.751 74.92 164.98 74.8827 165.172 74.808C165.375 74.744 165.551 74.632 165.7 74.472C165.86 74.3227 166.009 74.1147 166.148 73.848C166.287 73.592 166.436 73.272 166.596 72.888L166.644 72.76L163.14 64.28H164.996L167.476 70.792L169.796 64.28ZM179.554 73H177.762V69.416C177.378 69.5653 176.962 69.6933 176.514 69.8C176.066 69.896 175.64 69.944 175.234 69.944C174.541 69.944 173.965 69.8373 173.506 69.624C173.048 69.4 172.706 69.0587 172.482 68.6C172.269 68.1413 172.162 67.5387 172.162 66.792V64.28H173.938V66.632C173.938 67.144 174.008 67.5387 174.146 67.816C174.285 68.0827 174.498 68.2693 174.786 68.376C175.074 68.472 175.442 68.52 175.89 68.52C176.093 68.52 176.301 68.504 176.514 68.472C176.738 68.44 176.957 68.392 177.17 68.328C177.384 68.264 177.581 68.1893 177.762 68.104V64.28H179.554V73ZM181.188 66.936C181.263 66.4667 181.407 66.056 181.62 65.704C181.834 65.352 182.1 65.0587 182.42 64.824C182.74 64.5893 183.114 64.4133 183.54 64.296C183.978 64.1787 184.458 64.12 184.98 64.12C185.546 64.12 186.047 64.184 186.484 64.312C186.932 64.44 187.306 64.6427 187.604 64.92C187.914 65.1867 188.148 65.528 188.308 65.944C188.468 66.3493 188.548 66.84 188.548 67.416V71.128C188.548 71.288 188.57 71.4213 188.612 71.528C188.666 71.624 188.735 71.6933 188.82 71.736C188.916 71.7787 189.028 71.8 189.156 71.8C189.199 71.8 189.247 71.8 189.3 71.8C189.354 71.7893 189.391 71.784 189.412 71.784L189.364 73C189.268 73.0427 189.146 73.0747 188.996 73.096C188.858 73.1173 188.74 73.128 188.644 73.128C188.26 73.128 187.94 73.0693 187.684 72.952C187.439 72.824 187.258 72.6373 187.14 72.392C187.023 72.1573 186.959 71.8693 186.948 71.528C186.895 71.6133 186.836 71.6987 186.772 71.784C186.548 72.072 186.287 72.3227 185.988 72.536C185.69 72.7387 185.359 72.8933 184.996 73C184.644 73.1067 184.26 73.16 183.844 73.16C183.236 73.16 182.708 73.0587 182.26 72.856C181.823 72.6533 181.482 72.36 181.236 71.976C181.002 71.592 180.884 71.1387 180.884 70.616C180.884 70.0933 181.002 69.6453 181.236 69.272C181.471 68.888 181.828 68.5893 182.308 68.376C182.788 68.152 183.396 68.0027 184.132 67.928L186.932 67.656V67.512C186.932 67.1493 186.884 66.84 186.788 66.584C186.703 66.328 186.575 66.12 186.404 65.96C186.234 65.7893 186.026 65.6667 185.78 65.592C185.535 65.5173 185.252 65.48 184.932 65.48C184.538 65.48 184.186 65.544 183.876 65.672C183.567 65.7893 183.322 65.976 183.14 66.232C182.97 66.4773 182.863 66.7867 182.82 67.16L181.188 66.936ZM186.948 68.872L184.308 69.144C183.914 69.1867 183.588 69.2667 183.332 69.384C183.076 69.5013 182.879 69.656 182.74 69.848C182.612 70.0293 182.548 70.248 182.548 70.504C182.548 70.7707 182.607 71 182.724 71.192C182.842 71.384 183.018 71.5333 183.252 71.64C183.498 71.736 183.791 71.784 184.132 71.784C184.452 71.784 184.751 71.7413 185.028 71.656C185.316 71.5707 185.578 71.4533 185.812 71.304C186.047 71.1547 186.25 70.9787 186.42 70.776C186.591 70.5733 186.719 70.344 186.804 70.088C186.9 69.832 186.948 69.5653 186.948 69.288V68.872ZM198.337 67.256L196.625 67.544C196.561 67.1173 196.427 66.76 196.225 66.472C196.033 66.1733 195.782 65.9493 195.473 65.8C195.163 65.64 194.801 65.56 194.385 65.56C194.054 65.56 193.755 65.608 193.489 65.704C193.222 65.8 192.987 65.9333 192.785 66.104C192.593 66.2747 192.427 66.488 192.289 66.744C192.161 66.9893 192.059 67.272 191.985 67.592C191.921 67.912 191.889 68.264 191.889 68.648C191.889 69.0213 191.921 69.368 191.985 69.688C192.059 69.9973 192.161 70.28 192.289 70.536C192.427 70.792 192.598 71.0053 192.801 71.176C193.003 71.3467 193.233 71.48 193.489 71.576C193.755 71.672 194.054 71.72 194.385 71.72C194.801 71.72 195.163 71.6453 195.473 71.496C195.782 71.3467 196.038 71.128 196.241 70.84C196.454 70.5413 196.603 70.1627 196.689 69.704L198.369 69.992C198.23 70.6747 197.979 71.2507 197.617 71.72C197.265 72.1893 196.811 72.5467 196.257 72.792C195.713 73.0373 195.089 73.16 194.385 73.16C193.841 73.16 193.345 73.0907 192.897 72.952C192.449 72.8133 192.049 72.616 191.697 72.36C191.345 72.0933 191.046 71.7787 190.801 71.416C190.566 71.0427 190.385 70.6267 190.257 70.168C190.139 69.7093 190.081 69.2027 190.081 68.648C190.081 68.104 190.139 67.5973 190.257 67.128C190.385 66.6587 190.566 66.2373 190.801 65.864C191.046 65.4907 191.345 65.176 191.697 64.92C192.049 64.6533 192.449 64.456 192.897 64.328C193.345 64.1893 193.841 64.12 194.385 64.12C195.121 64.12 195.761 64.2427 196.305 64.488C196.849 64.7227 197.291 65.0747 197.633 65.544C197.974 66.0133 198.209 66.584 198.337 67.256ZM201.511 73V65.72H198.583V64.28H206.215V65.72H203.287V73H201.511ZM207.298 73V64.28H209.026V70.616L213.25 64.28H214.978V73H213.25V66.664L209.026 73H207.298ZM221.061 73.16C220.506 73.16 219.994 73.0907 219.525 72.952C219.066 72.8027 218.661 72.6 218.309 72.344C217.957 72.0773 217.658 71.7573 217.413 71.384C217.167 71.0107 216.981 70.5947 216.853 70.136C216.725 69.6667 216.661 69.1653 216.661 68.632C216.661 68.0987 216.719 67.6027 216.837 67.144C216.965 66.6853 217.151 66.2747 217.397 65.912C217.642 65.5387 217.935 65.2187 218.277 64.952C218.629 64.6853 219.034 64.4827 219.493 64.344C219.951 64.1947 220.458 64.12 221.013 64.12C221.642 64.12 222.213 64.2213 222.725 64.424C223.237 64.6267 223.674 64.92 224.037 65.304C224.41 65.6773 224.693 66.1253 224.885 66.648C225.087 67.16 225.189 67.736 225.189 68.376C225.189 68.504 225.183 68.632 225.173 68.76C225.162 68.8773 225.141 68.9947 225.109 69.112H218.405C218.415 69.304 218.442 69.4907 218.485 69.672C218.549 70.0027 218.65 70.296 218.789 70.552C218.938 70.7973 219.119 71.016 219.333 71.208C219.546 71.3893 219.797 71.528 220.085 71.624C220.373 71.72 220.698 71.768 221.061 71.768C221.509 71.768 221.893 71.704 222.213 71.576C222.543 71.448 222.815 71.2667 223.029 71.032C223.242 70.7867 223.397 70.4933 223.493 70.152L225.125 70.44C224.975 71.0053 224.73 71.496 224.389 71.912C224.047 72.3173 223.599 72.6267 223.045 72.84C222.49 73.0533 221.829 73.16 221.061 73.16ZM218.437 67.832H223.509C223.487 67.5653 223.434 67.32 223.349 67.096C223.242 66.7653 223.077 66.4827 222.853 66.248C222.639 66.0133 222.378 65.832 222.069 65.704C221.77 65.576 221.423 65.512 221.029 65.512C220.677 65.512 220.357 65.56 220.069 65.656C219.791 65.7413 219.546 65.8747 219.333 66.056C219.13 66.2373 218.954 66.456 218.805 66.712C218.655 66.968 218.549 67.256 218.485 67.576C218.463 67.6613 218.447 67.7467 218.437 67.832ZM229.032 73V71.464H232.168V63.448L229.208 64.152V62.568L232.344 61.8H234.056V71.464H236.776V73H229.032ZM242.038 73.16C241.462 73.16 240.929 73.0747 240.438 72.904C239.948 72.7333 239.51 72.488 239.126 72.168C238.742 71.8373 238.417 71.4427 238.15 70.984C237.884 70.5147 237.681 69.9813 237.542 69.384C237.404 68.776 237.334 68.1147 237.334 67.4C237.334 66.6853 237.404 66.0293 237.542 65.432C237.681 64.8347 237.884 64.3013 238.15 63.832C238.417 63.3627 238.742 62.968 239.126 62.648C239.51 62.3173 239.948 62.0667 240.438 61.896C240.929 61.7253 241.462 61.64 242.038 61.64C242.636 61.64 243.18 61.7253 243.67 61.896C244.161 62.0667 244.598 62.3173 244.982 62.648C245.366 62.968 245.692 63.3627 245.958 63.832C246.225 64.3013 246.428 64.8347 246.566 65.432C246.705 66.0293 246.774 66.6853 246.774 67.4C246.774 68.1147 246.705 68.776 246.566 69.384C246.428 69.9813 246.225 70.5147 245.958 70.984C245.692 71.4427 245.366 71.8373 244.982 72.168C244.598 72.488 244.161 72.7333 243.67 72.904C243.18 73.0747 242.636 73.16 242.038 73.16ZM242.038 71.624C242.39 71.624 242.71 71.5653 242.998 71.448C243.297 71.3307 243.558 71.1547 243.782 70.92C244.017 70.6747 244.209 70.3813 244.358 70.04C244.508 69.6987 244.62 69.3093 244.694 68.872C244.78 68.424 244.822 67.9333 244.822 67.4C244.822 66.8667 244.78 66.3813 244.694 65.944C244.62 65.496 244.508 65.1013 244.358 64.76C244.209 64.4187 244.017 64.1307 243.782 63.896C243.558 63.6613 243.297 63.4853 242.998 63.368C242.71 63.2507 242.39 63.192 242.038 63.192C241.697 63.192 241.382 63.2507 241.094 63.368C240.806 63.4853 240.545 63.6613 240.31 63.896C240.086 64.1307 239.894 64.4187 239.734 64.76C239.585 65.1013 239.468 65.496 239.382 65.944C239.308 66.3813 239.27 66.8667 239.27 67.4C239.27 67.9333 239.308 68.424 239.382 68.872C239.468 69.3093 239.585 69.6987 239.734 70.04C239.894 70.3813 240.086 70.6747 240.31 70.92C240.545 71.1547 240.806 71.3307 241.094 71.448C241.382 71.5653 241.697 71.624 242.038 71.624ZM251.474 73V64.28H253.25V68.344L257.17 64.28H259.282L255.17 68.36L259.378 73H257.202L253.25 68.664V73H251.474ZM263.875 73.16C263.331 73.16 262.835 73.0907 262.387 72.952C261.939 72.8133 261.539 72.616 261.187 72.36C260.835 72.0933 260.536 71.7787 260.291 71.416C260.056 71.0427 259.875 70.6267 259.747 70.168C259.629 69.6987 259.571 69.1867 259.571 68.632C259.571 68.0987 259.629 67.5973 259.747 67.128C259.875 66.6587 260.056 66.2373 260.291 65.864C260.536 65.4907 260.835 65.176 261.187 64.92C261.539 64.6533 261.939 64.456 262.387 64.328C262.835 64.1893 263.331 64.12 263.875 64.12C264.429 64.12 264.931 64.1893 265.379 64.328C265.837 64.456 266.237 64.6533 266.579 64.92C266.931 65.176 267.229 65.4907 267.475 65.864C267.72 66.2373 267.901 66.6587 268.019 67.128C268.147 67.5973 268.211 68.0987 268.211 68.632C268.211 69.1867 268.147 69.6987 268.019 70.168C267.901 70.6267 267.72 71.0427 267.475 71.416C267.229 71.7787 266.931 72.0933 266.579 72.36C266.237 72.616 265.837 72.8133 265.379 72.952C264.931 73.0907 264.429 73.16 263.875 73.16ZM263.875 71.72C264.227 71.72 264.531 71.672 264.787 71.576C265.053 71.48 265.288 71.3467 265.491 71.176C265.693 71.0053 265.859 70.7973 265.987 70.552C266.125 70.296 266.227 70.008 266.291 69.688C266.355 69.368 266.387 69.016 266.387 68.632C266.387 68.248 266.355 67.896 266.291 67.576C266.227 67.256 266.125 66.9733 265.987 66.728C265.859 66.4827 265.693 66.2747 265.491 66.104C265.288 65.9227 265.053 65.7893 264.787 65.704C264.531 65.608 264.227 65.56 263.875 65.56C263.544 65.56 263.245 65.608 262.979 65.704C262.712 65.7893 262.477 65.9227 262.275 66.104C262.083 66.2747 261.917 66.488 261.779 66.744C261.64 66.9893 261.539 67.272 261.475 67.592C261.411 67.9013 261.379 68.248 261.379 68.632C261.379 69.016 261.411 69.368 261.475 69.688C261.549 70.008 261.651 70.296 261.779 70.552C261.917 70.7973 262.083 71.0053 262.275 71.176C262.477 71.3467 262.712 71.48 262.979 71.576C263.245 71.672 263.544 71.72 263.875 71.72ZM278.377 73V66.424L275.753 71.432H274.153L271.481 66.44V73H269.897V64.28H271.929L274.953 69.928L277.929 64.28H279.961V73H278.377ZM281.602 66.936C281.677 66.4667 281.821 66.056 282.034 65.704C282.247 65.352 282.514 65.0587 282.834 64.824C283.154 64.5893 283.527 64.4133 283.954 64.296C284.391 64.1787 284.871 64.12 285.394 64.12C285.959 64.12 286.461 64.184 286.898 64.312C287.346 64.44 287.719 64.6427 288.018 64.92C288.327 65.1867 288.562 65.528 288.722 65.944C288.882 66.3493 288.962 66.84 288.962 67.416V71.128C288.962 71.288 288.983 71.4213 289.026 71.528C289.079 71.624 289.149 71.6933 289.234 71.736C289.33 71.7787 289.442 71.8 289.57 71.8C289.613 71.8 289.661 71.8 289.714 71.8C289.767 71.7893 289.805 71.784 289.826 71.784L289.778 73C289.682 73.0427 289.559 73.0747 289.41 73.096C289.271 73.1173 289.154 73.128 289.058 73.128C288.674 73.128 288.354 73.0693 288.098 72.952C287.853 72.824 287.671 72.6373 287.554 72.392C287.437 72.1573 287.373 71.8693 287.362 71.528C287.309 71.6133 287.25 71.6987 287.186 71.784C286.962 72.072 286.701 72.3227 286.402 72.536C286.103 72.7387 285.773 72.8933 285.41 73C285.058 73.1067 284.674 73.16 284.258 73.16C283.65 73.16 283.122 73.0587 282.674 72.856C282.237 72.6533 281.895 72.36 281.65 71.976C281.415 71.592 281.298 71.1387 281.298 70.616C281.298 70.0933 281.415 69.6453 281.65 69.272C281.885 68.888 282.242 68.5893 282.722 68.376C283.202 68.152 283.81 68.0027 284.546 67.928L287.346 67.656V67.512C287.346 67.1493 287.298 66.84 287.202 66.584C287.117 66.328 286.989 66.12 286.818 65.96C286.647 65.7893 286.439 65.6667 286.194 65.592C285.949 65.5173 285.666 65.48 285.346 65.48C284.951 65.48 284.599 65.544 284.29 65.672C283.981 65.7893 283.735 65.976 283.554 66.232C283.383 66.4773 283.277 66.7867 283.234 67.16L281.602 66.936ZM287.362 68.872L284.722 69.144C284.327 69.1867 284.002 69.2667 283.746 69.384C283.49 69.5013 283.293 69.656 283.154 69.848C283.026 70.0293 282.962 70.248 282.962 70.504C282.962 70.7707 283.021 71 283.138 71.192C283.255 71.384 283.431 71.5333 283.666 71.64C283.911 71.736 284.205 71.784 284.546 71.784C284.866 71.784 285.165 71.7413 285.442 71.656C285.73 71.5707 285.991 71.4533 286.226 71.304C286.461 71.1547 286.663 70.9787 286.834 70.776C287.005 70.5733 287.133 70.344 287.218 70.088C287.314 69.832 287.362 69.5653 287.362 69.288V68.872ZM291.054 73V64.28H292.83V67.704H297.15V64.28H298.91V73H297.15V69.144H292.83V73H291.054ZM307.708 75.464V73H301.548V75.464H299.916V71.496H300.764C300.924 71.2827 301.063 71.064 301.18 70.84C301.319 70.5307 301.426 70.152 301.5 69.704C301.586 69.256 301.65 68.68 301.692 67.976C301.746 67.2613 301.788 66.3707 301.82 65.304L301.852 64.28H308.22V71.496H309.34V75.464H307.708ZM302.508 71.496H306.54V65.672H303.468C303.447 66.44 303.42 67.096 303.388 67.64C303.356 68.2267 303.314 68.7333 303.26 69.16C303.207 69.576 303.127 69.9707 303.02 70.344C302.914 70.7493 302.754 71.1173 302.54 71.448C302.53 71.4587 302.519 71.4747 302.508 71.496Z" fill="black"/>
<path d="M14.328 29V6.6H18.104V25.896H29.304V29H14.328ZM39.405 29.32C38.2957 29.32 37.2717 29.1813 36.333 28.904C35.4157 28.6053 34.605 28.2 33.901 27.688C33.197 27.1547 32.5997 26.5147 32.109 25.768C31.6183 25.0213 31.245 24.1893 30.989 23.272C30.733 22.3333 30.605 21.3307 30.605 20.264C30.605 19.1973 30.7223 18.2053 30.957 17.288C31.213 16.3707 31.5863 15.5493 32.077 14.824C32.5677 14.0773 33.1543 13.4373 33.837 12.904C34.541 12.3707 35.3517 11.9653 36.269 11.688C37.1863 11.3893 38.1997 11.24 39.309 11.24C40.5677 11.24 41.709 11.4427 42.733 11.848C43.757 12.2533 44.6317 12.84 45.357 13.608C46.1037 14.3547 46.669 15.2507 47.053 16.296C47.4583 17.32 47.661 18.472 47.661 19.752C47.661 20.008 47.6503 20.264 47.629 20.52C47.6077 20.7547 47.565 20.9893 47.501 21.224H34.093C34.1143 21.608 34.1677 21.9813 34.253 22.344C34.381 23.0053 34.5837 23.592 34.861 24.104C35.1597 24.5947 35.5223 25.032 35.949 25.416C36.3757 25.7787 36.877 26.056 37.453 26.248C38.029 26.44 38.6797 26.536 39.405 26.536C40.301 26.536 41.069 26.408 41.709 26.152C42.3703 25.896 42.9143 25.5333 43.341 25.064C43.7677 24.5733 44.077 23.9867 44.269 23.304L47.533 23.88C47.2343 25.0107 46.7437 25.992 46.061 26.824C45.3783 27.6347 44.4823 28.2533 43.373 28.68C42.2637 29.1067 40.941 29.32 39.405 29.32ZM34.157 18.664H44.301C44.2583 18.1307 44.1517 17.64 43.981 17.192C43.7677 16.5307 43.437 15.9653 42.989 15.496C42.5623 15.0267 42.0397 14.664 41.421 14.408C40.8237 14.152 40.1303 14.024 39.341 14.024C38.637 14.024 37.997 14.12 37.421 14.312C36.8663 14.4827 36.3757 14.7493 35.949 15.112C35.5437 15.4747 35.1917 15.912 34.893 16.424C34.5943 16.936 34.381 17.512 34.253 18.152C34.2103 18.3227 34.1783 18.4933 34.157 18.664ZM49.6352 16.872C49.7846 15.9333 50.0726 15.112 50.4992 14.408C50.9259 13.704 51.4592 13.1173 52.0992 12.648C52.7392 12.1787 53.4859 11.8267 54.3392 11.592C55.2139 11.3573 56.1739 11.24 57.2192 11.24C58.3499 11.24 59.3526 11.368 60.2272 11.624C61.1232 11.88 61.8699 12.2853 62.4672 12.84C63.0859 13.3733 63.5552 14.056 63.8752 14.888C64.1952 15.6987 64.3552 16.68 64.3552 17.832V25.256C64.3552 25.576 64.3979 25.8427 64.4832 26.056C64.5899 26.248 64.7286 26.3867 64.8993 26.472C65.0913 26.5573 65.3152 26.6 65.5712 26.6C65.6566 26.6 65.7526 26.6 65.8592 26.6C65.9659 26.5787 66.0406 26.568 66.0833 26.568L65.9872 29C65.7952 29.0853 65.5499 29.1493 65.2512 29.192C64.9739 29.2347 64.7392 29.256 64.5472 29.256C63.7792 29.256 63.1392 29.1387 62.6272 28.904C62.1366 28.648 61.7739 28.2747 61.5392 27.784C61.3046 27.3147 61.1766 26.7387 61.1552 26.056C61.0486 26.2267 60.9312 26.3973 60.8032 26.568C60.3552 27.144 59.8326 27.6453 59.2352 28.072C58.6379 28.4773 57.9766 28.7867 57.2512 29C56.5472 29.2133 55.7792 29.32 54.9472 29.32C53.7312 29.32 52.6752 29.1173 51.7792 28.712C50.9046 28.3067 50.2219 27.72 49.7312 26.952C49.2619 26.184 49.0272 25.2773 49.0272 24.232C49.0272 23.1867 49.2619 22.2907 49.7312 21.544C50.2006 20.776 50.9152 20.1787 51.8752 19.752C52.8352 19.304 54.0512 19.0053 55.5232 18.856L61.1232 18.312V18.024C61.1232 17.2987 61.0272 16.68 60.8352 16.168C60.6646 15.656 60.4086 15.24 60.0672 14.92C59.7259 14.5787 59.3099 14.3333 58.8192 14.184C58.3286 14.0347 57.7632 13.96 57.1232 13.96C56.3339 13.96 55.6299 14.088 55.0112 14.344C54.3926 14.5787 53.9019 14.952 53.5392 15.464C53.1979 15.9547 52.9846 16.5733 52.8992 17.32L49.6352 16.872ZM61.1552 20.744L55.8752 21.288C55.0859 21.3733 54.4352 21.5333 53.9232 21.768C53.4112 22.0027 53.0166 22.312 52.7392 22.696C52.4832 23.0587 52.3552 23.496 52.3552 24.008C52.3552 24.5413 52.4726 25 52.7072 25.384C52.9419 25.768 53.2939 26.0667 53.7632 26.28C54.2539 26.472 54.8406 26.568 55.5232 26.568C56.1632 26.568 56.7606 26.4827 57.3152 26.312C57.8912 26.1413 58.4139 25.9067 58.8832 25.608C59.3526 25.3093 59.7579 24.9573 60.0992 24.552C60.4406 24.1467 60.6966 23.688 60.8672 23.176C61.0592 22.664 61.1552 22.1307 61.1552 21.576V20.744ZM75.1 11.24C76.1027 11.24 77.0413 11.3573 77.916 11.592C78.812 11.8267 79.6013 12.1787 80.284 12.648C80.3267 12.6907 80.3693 12.7333 80.412 12.776C80.86 12.1147 81.3827 11.624 81.98 11.304C82.684 10.8987 83.548 10.7173 84.572 10.76L84.412 13.832C83.6867 13.7253 83.0787 13.7147 82.588 13.8C82.268 13.864 81.9693 13.9707 81.692 14.12C81.756 14.2267 81.8093 14.3227 81.852 14.408C82.236 15.112 82.428 15.9227 82.428 16.84C82.428 17.6933 82.2467 18.472 81.884 19.176C81.5427 19.8587 81.0413 20.4347 80.38 20.904C79.74 21.352 78.972 21.704 78.076 21.96C77.18 22.216 76.188 22.344 75.1 22.344C74.0547 22.344 73.084 22.2267 72.188 21.992C71.8467 22.0773 71.5693 22.2053 71.356 22.376C71.0147 22.6533 70.844 23.048 70.844 23.56C70.844 23.8587 70.9187 24.1253 71.068 24.36C71.2173 24.5947 71.4413 24.776 71.74 24.904C72.0387 25.0107 72.4013 25.0747 72.828 25.096L78.844 25.288C80.0813 25.3093 81.116 25.5013 81.948 25.864C82.8013 26.2267 83.4413 26.728 83.868 27.368C84.316 28.008 84.54 28.808 84.54 29.768C84.54 30.728 84.316 31.5707 83.868 32.296C83.42 33.0427 82.78 33.672 81.948 34.184C81.116 34.696 80.1027 35.08 78.908 35.336C77.7347 35.592 76.4227 35.72 74.972 35.72C73.6493 35.72 72.4547 35.624 71.388 35.432C70.3213 35.24 69.4147 34.9413 68.668 34.536C67.9213 34.152 67.356 33.6613 66.972 33.064C66.588 32.488 66.396 31.7947 66.396 30.984C66.396 30.2373 66.5773 29.5867 66.94 29.032C67.3027 28.4987 67.8467 28.072 68.572 27.752C68.956 27.5813 69.3933 27.4427 69.884 27.336C69.692 27.272 69.5213 27.208 69.372 27.144C68.8173 26.8453 68.3907 26.4613 68.092 25.992C67.7933 25.5227 67.644 24.9787 67.644 24.36C67.644 23.6347 67.836 23.0053 68.22 22.472C68.6253 21.9387 69.1907 21.5227 69.916 21.224C70.0013 21.2027 70.076 21.1707 70.14 21.128C70.012 21.064 69.884 20.9893 69.756 20.904C69.116 20.4347 68.6147 19.8587 68.252 19.176C67.8893 18.472 67.708 17.6933 67.708 16.84C67.708 15.9653 67.8893 15.1867 68.252 14.504C68.6147 13.8 69.116 13.2133 69.756 12.744C70.4173 12.2533 71.2067 11.88 72.124 11.624C73.0413 11.368 74.0333 11.24 75.1 11.24ZM72.892 28.072C72.2947 28.0933 71.7827 28.1893 71.356 28.36C70.8653 28.552 70.492 28.8187 70.236 29.16C70.0013 29.5227 69.884 29.9493 69.884 30.44C69.884 30.9093 70.0013 31.3147 70.236 31.656C70.4707 31.9973 70.812 32.2747 71.26 32.488C71.708 32.7013 72.2627 32.8613 72.924 32.968C73.5853 33.0747 74.332 33.128 75.164 33.128C76.0813 33.128 76.9027 33.064 77.628 32.936C78.3747 32.808 79.004 32.616 79.516 32.36C80.028 32.1253 80.412 31.816 80.668 31.432C80.9453 31.0693 81.084 30.6427 81.084 30.152C81.084 29.5547 80.86 29.0853 80.412 28.744C79.964 28.3813 79.2493 28.1893 78.268 28.168L72.892 28.072ZM78.94 16.84C78.94 16.3493 78.844 15.9013 78.652 15.496C78.46 15.0907 78.1933 14.7493 77.852 14.472C77.5107 14.1947 77.1053 13.992 76.636 13.864C76.188 13.736 75.676 13.672 75.1 13.672C74.5453 13.672 74.0227 13.736 73.532 13.864C73.0627 13.992 72.6467 14.1947 72.284 14.472C71.9427 14.7493 71.676 15.0907 71.484 15.496C71.292 15.9013 71.196 16.3493 71.196 16.84C71.196 17.5013 71.3667 18.0667 71.708 18.536C72.0493 18.984 72.508 19.3253 73.084 19.56C73.6813 19.7947 74.3533 19.912 75.1 19.912C75.8467 19.912 76.508 19.7947 77.084 19.56C77.66 19.3253 78.108 18.984 78.428 18.536C78.7693 18.0667 78.94 17.5013 78.94 16.84ZM101.836 11.56V29H98.7005L98.4445 25.864C98.1245 26.3973 97.7618 26.888 97.3565 27.336C96.9512 27.7627 96.4925 28.1253 95.9805 28.424C95.4898 28.7013 94.9458 28.9147 94.3485 29.064C93.7725 29.2347 93.1538 29.32 92.4925 29.32C91.5538 29.32 90.7005 29.1813 89.9325 28.904C89.1858 28.6053 88.5352 28.1787 87.9805 27.624C87.4472 27.0693 87.0418 26.3973 86.7645 25.608C86.4872 24.7973 86.3485 23.8907 86.3485 22.888V11.56H89.9005V22.376C89.9005 22.9947 89.9752 23.5493 90.1245 24.04C90.2952 24.5093 90.5298 24.904 90.8285 25.224C91.1485 25.544 91.5325 25.7893 91.9805 25.96C92.4498 26.1307 92.9725 26.216 93.5485 26.216C94.1245 26.216 94.6578 26.1413 95.1485 25.992C95.6392 25.8213 96.0765 25.5973 96.4605 25.32C96.8445 25.0213 97.1645 24.6587 97.4205 24.232C97.6978 23.784 97.9112 23.2933 98.0605 22.76C98.2098 22.2053 98.2845 21.5973 98.2845 20.936V11.56H101.836ZM114.004 29.32C112.894 29.32 111.87 29.1813 110.932 28.904C110.014 28.6053 109.204 28.2 108.5 27.688C107.796 27.1547 107.198 26.5147 106.708 25.768C106.217 25.0213 105.844 24.1893 105.588 23.272C105.332 22.3333 105.204 21.3307 105.204 20.264C105.204 19.1973 105.321 18.2053 105.556 17.288C105.812 16.3707 106.185 15.5493 106.676 14.824C107.166 14.0773 107.753 13.4373 108.436 12.904C109.14 12.3707 109.95 11.9653 110.868 11.688C111.785 11.3893 112.798 11.24 113.908 11.24C115.166 11.24 116.308 11.4427 117.332 11.848C118.356 12.2533 119.23 12.84 119.956 13.608C120.702 14.3547 121.268 15.2507 121.652 16.296C122.057 17.32 122.26 18.472 122.26 19.752C122.26 20.008 122.249 20.264 122.228 20.52C122.206 20.7547 122.164 20.9893 122.1 21.224H108.692C108.713 21.608 108.766 21.9813 108.852 22.344C108.98 23.0053 109.182 23.592 109.46 24.104C109.758 24.5947 110.121 25.032 110.548 25.416C110.974 25.7787 111.476 26.056 112.052 26.248C112.628 26.44 113.278 26.536 114.004 26.536C114.9 26.536 115.668 26.408 116.308 26.152C116.969 25.896 117.513 25.5333 117.94 25.064C118.366 24.5733 118.676 23.9867 118.868 23.304L122.132 23.88C121.833 25.0107 121.342 25.992 120.66 26.824C119.977 27.6347 119.081 28.2533 117.972 28.68C116.862 29.1067 115.54 29.32 114.004 29.32ZM108.756 18.664H118.9C118.857 18.1307 118.75 17.64 118.58 17.192C118.366 16.5307 118.036 15.9653 117.588 15.496C117.161 15.0267 116.638 14.664 116.02 14.408C115.422 14.152 114.729 14.024 113.94 14.024C113.236 14.024 112.596 14.12 112.02 14.312C111.465 14.4827 110.974 14.7493 110.548 15.112C110.142 15.4747 109.79 15.912 109.492 16.424C109.193 16.936 108.98 17.512 108.852 18.152C108.809 18.3227 108.777 18.4933 108.756 18.664ZM138.971 29.32C137.883 29.32 136.891 29.1813 135.995 28.904C135.099 28.6267 134.299 28.232 133.595 27.72C132.891 27.1867 132.293 26.5573 131.803 25.832C131.333 25.0853 130.971 24.2533 130.715 23.336C130.48 22.3973 130.363 21.3733 130.363 20.264C130.363 19.1973 130.48 18.1947 130.715 17.256C130.971 16.3173 131.333 15.4747 131.803 14.728C132.293 13.9813 132.891 13.352 133.595 12.84C134.299 12.3067 135.099 11.912 135.995 11.656C136.891 11.3787 137.883 11.24 138.971 11.24C140.08 11.24 141.083 11.3787 141.979 11.656C142.896 11.912 143.696 12.3067 144.379 12.84C145.083 13.352 145.68 13.9813 146.171 14.728C146.661 15.4747 147.024 16.3173 147.259 17.256C147.515 18.1947 147.643 19.1973 147.643 20.264C147.643 21.3733 147.515 22.3973 147.259 23.336C147.024 24.2533 146.661 25.0853 146.171 25.832C145.68 26.5573 145.083 27.1867 144.379 27.72C143.696 28.232 142.896 28.6267 141.979 28.904C141.083 29.1813 140.08 29.32 138.971 29.32ZM138.971 26.44C139.675 26.44 140.283 26.344 140.795 26.152C141.328 25.96 141.797 25.6933 142.203 25.352C142.608 25.0107 142.939 24.5947 143.195 24.104C143.472 23.592 143.675 23.016 143.803 22.376C143.931 21.736 143.995 21.032 143.995 20.264C143.995 19.496 143.931 18.792 143.803 18.152C143.675 17.512 143.472 16.9467 143.195 16.456C142.939 15.9653 142.608 15.5493 142.203 15.208C141.797 14.8453 141.328 14.5787 140.795 14.408C140.283 14.216 139.675 14.12 138.971 14.12C138.309 14.12 137.712 14.216 137.179 14.408C136.645 14.5787 136.176 14.8453 135.771 15.208C135.387 15.5493 135.056 15.976 134.779 16.488C134.501 16.9787 134.299 17.544 134.171 18.184C134.043 18.8027 133.979 19.496 133.979 20.264C133.979 21.032 134.043 21.736 134.171 22.376C134.32 23.016 134.523 23.592 134.779 24.104C135.056 24.5947 135.387 25.0107 135.771 25.352C136.176 25.6933 136.645 25.96 137.179 26.152C137.712 26.344 138.309 26.44 138.971 26.44ZM151.591 10.632C151.591 9.30933 151.815 8.21067 152.263 7.336C152.732 6.46133 153.394 5.8 154.247 5.352C155.122 4.904 156.188 4.68 157.447 4.68C157.852 4.68 158.268 4.70133 158.695 4.744C159.122 4.78667 159.516 4.85067 159.879 4.936L159.783 7.784C159.548 7.72 159.335 7.67733 159.143 7.656C158.972 7.61333 158.791 7.592 158.599 7.592C158.428 7.57067 158.226 7.56 157.991 7.56C157.394 7.56 156.882 7.66667 156.455 7.88C156.028 8.072 155.698 8.392 155.463 8.84C155.25 9.288 155.143 9.88533 155.143 10.632V11.56H159.879V14.344H155.143V29H151.591V14.344H148.775V11.56H151.591V10.632ZM168.122 29V6.6H171.898V25.896H183.098V29H168.122ZM193.199 29.32C192.089 29.32 191.065 29.1813 190.127 28.904C189.209 28.6053 188.399 28.2 187.695 27.688C186.991 27.1547 186.393 26.5147 185.903 25.768C185.412 25.0213 185.039 24.1893 184.783 23.272C184.527 22.3333 184.399 21.3307 184.399 20.264C184.399 19.1973 184.516 18.2053 184.751 17.288C185.007 16.3707 185.38 15.5493 185.871 14.824C186.361 14.0773 186.948 13.4373 187.631 12.904C188.335 12.3707 189.145 11.9653 190.063 11.688C190.98 11.3893 191.993 11.24 193.103 11.24C194.361 11.24 195.503 11.4427 196.527 11.848C197.551 12.2533 198.425 12.84 199.151 13.608C199.897 14.3547 200.463 15.2507 200.847 16.296C201.252 17.32 201.455 18.472 201.455 19.752C201.455 20.008 201.444 20.264 201.423 20.52C201.401 20.7547 201.359 20.9893 201.295 21.224H187.887C187.908 21.608 187.961 21.9813 188.047 22.344C188.175 23.0053 188.377 23.592 188.655 24.104C188.953 24.5947 189.316 25.032 189.743 25.416C190.169 25.7787 190.671 26.056 191.247 26.248C191.823 26.44 192.473 26.536 193.199 26.536C194.095 26.536 194.863 26.408 195.503 26.152C196.164 25.896 196.708 25.5333 197.135 25.064C197.561 24.5733 197.871 23.9867 198.063 23.304L201.327 23.88C201.028 25.0107 200.537 25.992 199.855 26.824C199.172 27.6347 198.276 28.2533 197.167 28.68C196.057 29.1067 194.735 29.32 193.199 29.32ZM187.951 18.664H198.095C198.052 18.1307 197.945 17.64 197.775 17.192C197.561 16.5307 197.231 15.9653 196.783 15.496C196.356 15.0267 195.833 14.664 195.215 14.408C194.617 14.152 193.924 14.024 193.135 14.024C192.431 14.024 191.791 14.12 191.215 14.312C190.66 14.4827 190.169 14.7493 189.743 15.112C189.337 15.4747 188.985 15.912 188.687 16.424C188.388 16.936 188.175 17.512 188.047 18.152C188.004 18.3227 187.972 18.4933 187.951 18.664ZM211.205 11.24C212.208 11.24 213.146 11.3573 214.021 11.592C214.917 11.8267 215.706 12.1787 216.389 12.648C216.432 12.6907 216.474 12.7333 216.517 12.776C216.965 12.1147 217.488 11.624 218.085 11.304C218.789 10.8987 219.653 10.7173 220.677 10.76L220.517 13.832C219.792 13.7253 219.184 13.7147 218.693 13.8C218.373 13.864 218.074 13.9707 217.797 14.12C217.861 14.2267 217.914 14.3227 217.957 14.408C218.341 15.112 218.533 15.9227 218.533 16.84C218.533 17.6933 218.352 18.472 217.989 19.176C217.648 19.8587 217.146 20.4347 216.485 20.904C215.845 21.352 215.077 21.704 214.181 21.96C213.285 22.216 212.293 22.344 211.205 22.344C210.16 22.344 209.189 22.2267 208.293 21.992C207.952 22.0773 207.674 22.2053 207.461 22.376C207.12 22.6533 206.949 23.048 206.949 23.56C206.949 23.8587 207.024 24.1253 207.173 24.36C207.322 24.5947 207.546 24.776 207.845 24.904C208.144 25.0107 208.506 25.0747 208.933 25.096L214.949 25.288C216.186 25.3093 217.221 25.5013 218.053 25.864C218.906 26.2267 219.546 26.728 219.973 27.368C220.421 28.008 220.645 28.808 220.645 29.768C220.645 30.728 220.421 31.5707 219.973 32.296C219.525 33.0427 218.885 33.672 218.053 34.184C217.221 34.696 216.208 35.08 215.013 35.336C213.84 35.592 212.528 35.72 211.077 35.72C209.754 35.72 208.56 35.624 207.493 35.432C206.426 35.24 205.52 34.9413 204.773 34.536C204.026 34.152 203.461 33.6613 203.077 33.064C202.693 32.488 202.501 31.7947 202.501 30.984C202.501 30.2373 202.682 29.5867 203.045 29.032C203.408 28.4987 203.952 28.072 204.677 27.752C205.061 27.5813 205.498 27.4427 205.989 27.336C205.797 27.272 205.626 27.208 205.477 27.144C204.922 26.8453 204.496 26.4613 204.197 25.992C203.898 25.5227 203.749 24.9787 203.749 24.36C203.749 23.6347 203.941 23.0053 204.325 22.472C204.73 21.9387 205.296 21.5227 206.021 21.224C206.106 21.2027 206.181 21.1707 206.245 21.128C206.117 21.064 205.989 20.9893 205.861 20.904C205.221 20.4347 204.72 19.8587 204.357 19.176C203.994 18.472 203.813 17.6933 203.813 16.84C203.813 15.9653 203.994 15.1867 204.357 14.504C204.72 13.8 205.221 13.2133 205.861 12.744C206.522 12.2533 207.312 11.88 208.229 11.624C209.146 11.368 210.138 11.24 211.205 11.24ZM208.997 28.072C208.4 28.0933 207.888 28.1893 207.461 28.36C206.97 28.552 206.597 28.8187 206.341 29.16C206.106 29.5227 205.989 29.9493 205.989 30.44C205.989 30.9093 206.106 31.3147 206.341 31.656C206.576 31.9973 206.917 32.2747 207.365 32.488C207.813 32.7013 208.368 32.8613 209.029 32.968C209.69 33.0747 210.437 33.128 211.269 33.128C212.186 33.128 213.008 33.064 213.733 32.936C214.48 32.808 215.109 32.616 215.621 32.36C216.133 32.1253 216.517 31.816 216.773 31.432C217.05 31.0693 217.189 30.6427 217.189 30.152C217.189 29.5547 216.965 29.0853 216.517 28.744C216.069 28.3813 215.354 28.1893 214.373 28.168L208.997 28.072ZM215.045 16.84C215.045 16.3493 214.949 15.9013 214.757 15.496C214.565 15.0907 214.298 14.7493 213.957 14.472C213.616 14.1947 213.21 13.992 212.741 13.864C212.293 13.736 211.781 13.672 211.205 13.672C210.65 13.672 210.128 13.736 209.637 13.864C209.168 13.992 208.752 14.1947 208.389 14.472C208.048 14.7493 207.781 15.0907 207.589 15.496C207.397 15.9013 207.301 16.3493 207.301 16.84C207.301 17.5013 207.472 18.0667 207.813 18.536C208.154 18.984 208.613 19.3253 209.189 19.56C209.786 19.7947 210.458 19.912 211.205 19.912C211.952 19.912 212.613 19.7947 213.189 19.56C213.765 19.3253 214.213 18.984 214.533 18.536C214.874 18.0667 215.045 17.5013 215.045 16.84ZM230.358 29.32C229.248 29.32 228.224 29.1813 227.286 28.904C226.368 28.6053 225.558 28.2 224.854 27.688C224.15 27.1547 223.552 26.5147 223.062 25.768C222.571 25.0213 222.198 24.1893 221.942 23.272C221.686 22.3333 221.558 21.3307 221.558 20.264C221.558 19.1973 221.675 18.2053 221.91 17.288C222.166 16.3707 222.539 15.5493 223.03 14.824C223.52 14.0773 224.107 13.4373 224.79 12.904C225.494 12.3707 226.304 11.9653 227.222 11.688C228.139 11.3893 229.152 11.24 230.262 11.24C231.52 11.24 232.662 11.4427 233.686 11.848C234.71 12.2533 235.584 12.84 236.31 13.608C237.056 14.3547 237.622 15.2507 238.006 16.296C238.411 17.32 238.614 18.472 238.614 19.752C238.614 20.008 238.603 20.264 238.582 20.52C238.56 20.7547 238.518 20.9893 238.454 21.224H225.046C225.067 21.608 225.12 21.9813 225.206 22.344C225.334 23.0053 225.536 23.592 225.814 24.104C226.112 24.5947 226.475 25.032 226.902 25.416C227.328 25.7787 227.83 26.056 228.406 26.248C228.982 26.44 229.632 26.536 230.358 26.536C231.254 26.536 232.022 26.408 232.662 26.152C233.323 25.896 233.867 25.5333 234.294 25.064C234.72 24.5733 235.03 23.9867 235.222 23.304L238.486 23.88C238.187 25.0107 237.696 25.992 237.014 26.824C236.331 27.6347 235.435 28.2533 234.326 28.68C233.216 29.1067 231.894 29.32 230.358 29.32ZM225.11 18.664H235.254C235.211 18.1307 235.104 17.64 234.934 17.192C234.72 16.5307 234.39 15.9653 233.942 15.496C233.515 15.0267 232.992 14.664 232.374 14.408C231.776 14.152 231.083 14.024 230.294 14.024C229.59 14.024 228.95 14.12 228.374 14.312C227.819 14.4827 227.328 14.7493 226.902 15.112C226.496 15.4747 226.144 15.912 225.846 16.424C225.547 16.936 225.334 17.512 225.206 18.152C225.163 18.3227 225.131 18.4933 225.11 18.664ZM241.804 29V11.56H244.908L245.196 14.76C245.622 14.0133 246.145 13.384 246.764 12.872C247.382 12.3387 248.076 11.9333 248.844 11.656C249.633 11.3787 250.476 11.24 251.372 11.24C252.63 11.24 253.718 11.5067 254.636 12.04C255.574 12.5733 256.289 13.32 256.78 14.28C257.292 15.2187 257.548 16.3387 257.548 17.64V29H253.996V18.408C253.996 17.5973 253.846 16.8933 253.548 16.296C253.249 15.6773 252.812 15.1973 252.236 14.856C251.681 14.4933 250.988 14.312 250.156 14.312C249.452 14.312 248.812 14.44 248.236 14.696C247.66 14.9307 247.148 15.2827 246.7 15.752C246.273 16.2 245.942 16.744 245.708 17.384C245.473 18.0027 245.356 18.7067 245.356 19.496V29H241.804ZM274.349 5H277.869V29H274.765L274.509 25.8C274.317 26.12 274.104 26.4293 273.869 26.728C273.208 27.5387 272.408 28.1787 271.469 28.648C270.552 29.096 269.517 29.32 268.365 29.32C267.426 29.32 266.552 29.1813 265.741 28.904C264.952 28.6053 264.237 28.1893 263.597 27.656C262.978 27.1227 262.445 26.4827 261.997 25.736C261.57 24.9893 261.24 24.1573 261.005 23.24C260.792 22.3227 260.685 21.3307 260.685 20.264C260.685 19.2187 260.792 18.2373 261.005 17.32C261.24 16.4027 261.57 15.5707 261.997 14.824C262.445 14.0773 262.978 13.4373 263.597 12.904C264.237 12.3707 264.952 11.9653 265.741 11.688C266.552 11.3893 267.426 11.24 268.365 11.24C269.517 11.24 270.552 11.4747 271.469 11.944C272.408 12.392 273.208 13.032 273.869 13.864C274.04 14.0773 274.2 14.2907 274.349 14.504V5ZM269.325 26.376C270.37 26.376 271.266 26.12 272.013 25.608C272.76 25.0747 273.336 24.3493 273.741 23.432C274.146 22.5147 274.349 21.4693 274.349 20.296C274.349 19.4213 274.232 18.6107 273.997 17.864C273.762 17.1173 273.432 16.4667 273.005 15.912C272.578 15.3573 272.056 14.9307 271.437 14.632C270.818 14.3333 270.114 14.184 269.325 14.184C268.664 14.184 268.066 14.28 267.533 14.472C267.021 14.664 266.562 14.9413 266.157 15.304C265.752 15.6667 265.41 16.104 265.133 16.616C264.877 17.1067 264.674 17.6613 264.525 18.28C264.376 18.8987 264.301 19.5707 264.301 20.296C264.301 21 264.376 21.6613 264.525 22.28C264.674 22.8773 264.877 23.432 265.133 23.944C265.41 24.456 265.752 24.8933 266.157 25.256C266.562 25.6187 267.021 25.896 267.533 26.088C268.066 26.28 268.664 26.376 269.325 26.376ZM288.353 13.928C287.585 13.928 286.913 14.024 286.337 14.216C285.782 14.3867 285.355 14.632 285.057 14.952C284.758 15.272 284.609 15.6667 284.609 16.136C284.609 16.6267 284.715 17.032 284.929 17.352C285.163 17.6507 285.537 17.896 286.049 18.088C286.582 18.2587 287.265 18.408 288.097 18.536L289.793 18.728C291.265 18.92 292.47 19.2187 293.409 19.624C294.347 20.0293 295.041 20.5733 295.489 21.256C295.937 21.9387 296.161 22.8027 296.161 23.848C296.161 24.9573 295.862 25.928 295.265 26.76C294.689 27.5707 293.857 28.2 292.769 28.648C291.681 29.096 290.347 29.32 288.769 29.32C287.105 29.32 285.718 29.1173 284.609 28.712C283.521 28.2853 282.667 27.6453 282.049 26.792C281.43 25.9387 281.014 24.8613 280.801 23.56L284.033 23.112C284.203 24.328 284.683 25.224 285.473 25.8C286.262 26.3547 287.329 26.632 288.673 26.632C289.377 26.632 289.974 26.5787 290.465 26.472C290.977 26.344 291.393 26.1733 291.713 25.96C292.033 25.7467 292.278 25.5013 292.449 25.224C292.619 24.9253 292.705 24.6053 292.705 24.264C292.705 23.7093 292.577 23.272 292.321 22.952C292.086 22.6107 291.702 22.344 291.169 22.152C290.657 21.96 289.963 21.8 289.089 21.672L287.297 21.48C285.953 21.288 284.833 20.9893 283.937 20.584C283.041 20.1787 282.369 19.6347 281.921 18.952C281.494 18.2693 281.281 17.448 281.281 16.488C281.281 15.4213 281.558 14.4933 282.113 13.704C282.689 12.9147 283.51 12.3067 284.577 11.88C285.643 11.4533 286.902 11.24 288.353 11.24C289.825 11.24 291.073 11.4427 292.097 11.848C293.142 12.232 293.974 12.8293 294.593 13.64C295.211 14.4507 295.595 15.4747 295.745 16.712L292.545 17.128C292.459 16.3813 292.246 15.784 291.905 15.336C291.585 14.8667 291.126 14.5147 290.529 14.28C289.953 14.0453 289.227 13.928 288.353 13.928ZM299.18 29V25.224H302.924V29H299.18ZM299.18 15.336V11.56H302.924V15.336H299.18ZM313.789 29V6.6H317.981L325.725 21.256L333.373 6.6H337.501V29H334.141V11.816L327.325 24.744H324.061L317.149 11.816V29H313.789ZM358.083 29L355.875 23.368H345.923L343.715 29H340.035L349.059 6.6H352.867L361.923 29H358.083ZM354.691 20.328L350.915 10.568L347.107 20.328H354.691ZM364.448 29V6.6H373.76C374.955 6.6 376.032 6.78133 376.992 7.144C377.973 7.48533 378.805 7.99733 379.488 8.68C380.171 9.34133 380.693 10.1413 381.056 11.08C381.44 12.0187 381.632 13.064 381.632 14.216C381.632 15.7307 381.291 17.0533 380.608 18.184C379.947 19.3147 379.008 20.1893 377.792 20.808C376.597 21.4053 375.179 21.704 373.536 21.704H368.224V29H364.448ZM368.224 9.672V18.664H372.96C373.984 18.664 374.859 18.4933 375.584 18.152C376.309 17.7893 376.864 17.2773 377.248 16.616C377.632 15.9547 377.824 15.1547 377.824 14.216C377.824 13.256 377.632 12.4347 377.248 11.752C376.864 11.0693 376.309 10.5573 375.584 10.216C374.859 9.85333 373.984 9.672 372.96 9.672H368.224ZM389.942 29V9.704H382.39V6.6H401.366V9.704H393.718V29H389.942Z" fill="black"/>
</svg>
