<svg width="413" height="112" viewBox="0 0 413 112" fill="none" xmlns="http://www.w3.org/2000/svg">
<path d="M1 0V101" stroke="black" stroke-width="2"/>
<path d="M11.664 55V43.8H16.864C17.3973 43.8 17.8773 43.864 18.304 43.992C18.7307 44.12 19.088 44.3067 19.376 44.552C19.6747 44.7973 19.904 45.096 20.064 45.448C20.224 45.8 20.304 46.2 20.304 46.648C20.304 46.9893 20.2507 47.3093 20.144 47.608C20.0373 47.9067 19.8773 48.1733 19.664 48.408C19.4613 48.6427 19.216 48.8453 18.928 49.016C18.7893 49.0907 18.64 49.16 18.48 49.224C18.7787 49.3093 19.0507 49.4213 19.296 49.56C19.744 49.8053 20.0907 50.136 20.336 50.552C20.5813 50.9573 20.704 51.432 20.704 51.976C20.704 52.5947 20.56 53.1333 20.272 53.592C19.984 54.04 19.568 54.3867 19.024 54.632C18.48 54.8773 17.8187 55 17.04 55H11.664ZM13.504 50.088V53.528H16.8C17.2373 53.528 17.6 53.4587 17.888 53.32C18.1867 53.1813 18.4107 52.9893 18.56 52.744C18.7093 52.488 18.784 52.1893 18.784 51.848C18.784 51.464 18.6933 51.144 18.512 50.888C18.3413 50.6213 18.1013 50.424 17.792 50.296C17.4827 50.1573 17.1253 50.088 16.72 50.088H13.504ZM13.504 45.272V48.584H16.544C16.832 48.584 17.0933 48.5467 17.328 48.472C17.5627 48.3867 17.7653 48.2747 17.936 48.136C18.1067 47.9867 18.2347 47.8107 18.32 47.608C18.416 47.3947 18.464 47.1653 18.464 46.92C18.464 46.5573 18.3893 46.2587 18.24 46.024C18.0907 45.7787 17.872 45.592 17.584 45.464C17.296 45.336 16.9493 45.272 16.544 45.272H13.504ZM25.4256 55V46.28H27.2016V50.344L31.1216 46.28H33.2336L29.1216 50.36L33.3296 55H31.1536L27.2016 50.664V55H25.4256ZM37.8265 55.16C37.2825 55.16 36.7865 55.0907 36.3385 54.952C35.8905 54.8133 35.4905 54.616 35.1385 54.36C34.7865 54.0933 34.4878 53.7787 34.2425 53.416C34.0078 53.0427 33.8265 52.6267 33.6985 52.168C33.5812 51.6987 33.5225 51.1867 33.5225 50.632C33.5225 50.0987 33.5812 49.5973 33.6985 49.128C33.8265 48.6587 34.0078 48.2373 34.2425 47.864C34.4878 47.4907 34.7865 47.176 35.1385 46.92C35.4905 46.6533 35.8905 46.456 36.3385 46.328C36.7865 46.1893 37.2825 46.12 37.8265 46.12C38.3812 46.12 38.8825 46.1893 39.3305 46.328C39.7892 46.456 40.1892 46.6533 40.5305 46.92C40.8825 47.176 41.1812 47.4907 41.4265 47.864C41.6718 48.2373 41.8532 48.6587 41.9705 49.128C42.0985 49.5973 42.1625 50.0987 42.1625 50.632C42.1625 51.1867 42.0985 51.6987 41.9705 52.168C41.8532 52.6267 41.6718 53.0427 41.4265 53.416C41.1812 53.7787 40.8825 54.0933 40.5305 54.36C40.1892 54.616 39.7892 54.8133 39.3305 54.952C38.8825 55.0907 38.3812 55.16 37.8265 55.16ZM37.8265 53.72C38.1785 53.72 38.4825 53.672 38.7385 53.576C39.0052 53.48 39.2398 53.3467 39.4425 53.176C39.6452 53.0053 39.8105 52.7973 39.9385 52.552C40.0772 52.296 40.1785 52.008 40.2425 51.688C40.3065 51.368 40.3385 51.016 40.3385 50.632C40.3385 50.248 40.3065 49.896 40.2425 49.576C40.1785 49.256 40.0772 48.9733 39.9385 48.728C39.8105 48.4827 39.6452 48.2747 39.4425 48.104C39.2398 47.9227 39.0052 47.7893 38.7385 47.704C38.4825 47.608 38.1785 47.56 37.8265 47.56C37.4958 47.56 37.1972 47.608 36.9305 47.704C36.6638 47.7893 36.4292 47.9227 36.2265 48.104C36.0345 48.2747 35.8692 48.488 35.7305 48.744C35.5918 48.9893 35.4905 49.272 35.4265 49.592C35.3625 49.9013 35.3305 50.248 35.3305 50.632C35.3305 51.016 35.3625 51.368 35.4265 51.688C35.5012 52.008 35.6025 52.296 35.7305 52.552C35.8692 52.7973 36.0345 53.0053 36.2265 53.176C36.4292 53.3467 36.6638 53.48 36.9305 53.576C37.1972 53.672 37.4958 53.72 37.8265 53.72ZM52.3287 55V48.424L49.7047 53.432H48.1047L45.4327 48.44V55H43.8487V46.28H45.8807L48.9047 51.928L51.8807 46.28H53.9127V55H52.3287ZM56.1619 55V46.28H63.9059V55H62.1299V47.72H57.9379V55H56.1619ZM66.1469 55V46.28H67.9229V49.08H70.3389C70.9895 49.08 71.5442 49.2027 72.0029 49.448C72.4615 49.6933 72.8135 50.04 73.0589 50.488C73.3149 50.9253 73.4429 51.448 73.4429 52.056C73.4429 52.504 73.3682 52.9093 73.2189 53.272C73.0802 53.6347 72.8775 53.944 72.6109 54.2C72.3442 54.456 72.0189 54.6533 71.6349 54.792C71.2509 54.9307 70.8189 55 70.3389 55H66.1469ZM67.9229 50.408V53.672H69.9869C70.3495 53.672 70.6589 53.6133 70.9149 53.496C71.1815 53.368 71.3842 53.1867 71.5229 52.952C71.6615 52.7067 71.7309 52.408 71.7309 52.056C71.7309 51.6933 71.6615 51.3947 71.5229 51.16C71.3842 50.9147 71.1815 50.728 70.9149 50.6C70.6589 50.472 70.3495 50.408 69.9869 50.408H67.9229ZM74.7881 55V46.28H76.5641V49.816H78.0361C78.0681 49.5813 78.1161 49.352 78.1801 49.128C78.2975 48.6587 78.4735 48.2373 78.7081 47.864C78.9535 47.4907 79.2521 47.176 79.6041 46.92C79.9561 46.6533 80.3561 46.456 80.8041 46.328C81.2628 46.1893 81.7641 46.12 82.3081 46.12C82.8628 46.12 83.3641 46.1893 83.8121 46.328C84.2601 46.456 84.6548 46.6533 84.9961 46.92C85.3481 47.176 85.6468 47.4907 85.8921 47.864C86.1375 48.2373 86.3188 48.6587 86.4361 49.128C86.5641 49.5973 86.6281 50.0987 86.6281 50.632C86.6281 51.1867 86.5641 51.6987 86.4361 52.168C86.3188 52.6267 86.1375 53.0427 85.8921 53.416C85.6468 53.7787 85.3481 54.0933 84.9961 54.36C84.6548 54.616 84.2601 54.8133 83.8121 54.952C83.3641 55.0907 82.8628 55.16 82.3081 55.16C81.7641 55.16 81.2628 55.0907 80.8041 54.952C80.3561 54.8133 79.9561 54.616 79.6041 54.36C79.2521 54.0933 78.9535 53.7787 78.7081 53.416C78.4735 53.0427 78.2975 52.6213 78.1801 52.152C78.0948 51.8747 78.0415 51.576 78.0201 51.256H76.5641V55H74.7881ZM82.3081 53.72C82.6495 53.72 82.9535 53.6773 83.2201 53.592C83.4868 53.496 83.7161 53.3627 83.9081 53.192C84.1108 53.0213 84.2761 52.808 84.4041 52.552C84.5428 52.296 84.6441 52.008 84.7081 51.688C84.7721 51.368 84.8041 51.016 84.8041 50.632C84.8041 50.248 84.7721 49.896 84.7081 49.576C84.6441 49.256 84.5428 48.9733 84.4041 48.728C84.2761 48.4827 84.1108 48.2747 83.9081 48.104C83.7161 47.9227 83.4868 47.7893 83.2201 47.704C82.9535 47.608 82.6495 47.56 82.3081 47.56C81.9775 47.56 81.6735 47.608 81.3961 47.704C81.1295 47.7893 80.8948 47.9227 80.6921 48.104C80.5001 48.2747 80.3348 48.488 80.1961 48.744C80.0575 48.9893 79.9561 49.272 79.8921 49.592C79.8388 49.9013 79.8121 50.248 79.8121 50.632C79.8121 51.016 79.8441 51.368 79.9081 51.688C79.9721 52.008 80.0681 52.296 80.1961 52.552C80.3348 52.808 80.5001 53.0213 80.6921 53.192C80.8948 53.3627 81.1295 53.496 81.3961 53.592C81.6735 53.6773 81.9775 53.72 82.3081 53.72ZM90.0644 55V47.72H87.1364V46.28H94.7684V47.72H91.8404V55H90.0644ZM99.6919 55.16C99.1372 55.16 98.6252 55.0907 98.1559 54.952C97.6972 54.8027 97.2919 54.6 96.9399 54.344C96.5879 54.0773 96.2892 53.7573 96.0439 53.384C95.7985 53.0107 95.6119 52.5947 95.4839 52.136C95.3559 51.6667 95.2919 51.1653 95.2919 50.632C95.2919 50.0987 95.3505 49.6027 95.4679 49.144C95.5959 48.6853 95.7825 48.2747 96.0279 47.912C96.2732 47.5387 96.5665 47.2187 96.9079 46.952C97.2599 46.6853 97.6652 46.4827 98.1239 46.344C98.5825 46.1947 99.0892 46.12 99.6439 46.12C100.273 46.12 100.844 46.2213 101.356 46.424C101.868 46.6267 102.305 46.92 102.668 47.304C103.041 47.6773 103.324 48.1253 103.516 48.648C103.719 49.16 103.82 49.736 103.82 50.376C103.82 50.504 103.815 50.632 103.804 50.76C103.793 50.8773 103.772 50.9947 103.74 51.112H97.0359C97.0465 51.304 97.0732 51.4907 97.1159 51.672C97.1799 52.0027 97.2812 52.296 97.4199 52.552C97.5692 52.7973 97.7505 53.016 97.9639 53.208C98.1772 53.3893 98.4279 53.528 98.7159 53.624C99.0039 53.72 99.3292 53.768 99.6919 53.768C100.14 53.768 100.524 53.704 100.844 53.576C101.175 53.448 101.447 53.2667 101.66 53.032C101.873 52.7867 102.028 52.4933 102.124 52.152L103.756 52.44C103.607 53.0053 103.361 53.496 103.02 53.912C102.679 54.3173 102.231 54.6267 101.676 54.84C101.121 55.0533 100.46 55.16 99.6919 55.16ZM97.0679 49.832H102.14C102.119 49.5653 102.065 49.32 101.98 49.096C101.873 48.7653 101.708 48.4827 101.484 48.248C101.271 48.0133 101.009 47.832 100.7 47.704C100.401 47.576 100.055 47.512 99.6599 47.512C99.3079 47.512 98.9879 47.56 98.6999 47.656C98.4225 47.7413 98.1772 47.8747 97.9639 48.056C97.7612 48.2373 97.5852 48.456 97.4359 48.712C97.2865 48.968 97.1799 49.256 97.1159 49.576C97.0945 49.6613 97.0785 49.7467 97.0679 49.832ZM106.967 46.28L107.095 47.896C107.202 47.7253 107.314 47.5707 107.431 47.432C107.751 47.016 108.14 46.696 108.599 46.472C109.068 46.2373 109.591 46.12 110.167 46.12C110.636 46.12 111.068 46.1947 111.463 46.344C111.868 46.4827 112.226 46.6853 112.535 46.952C112.855 47.2187 113.122 47.5387 113.335 47.912C113.559 48.2853 113.73 48.7013 113.847 49.16C113.964 49.6187 114.023 50.1093 114.023 50.632C114.023 51.1653 113.964 51.6613 113.847 52.12C113.73 52.5787 113.559 52.9947 113.335 53.368C113.122 53.7413 112.855 54.0613 112.535 54.328C112.226 54.5947 111.868 54.8027 111.463 54.952C111.068 55.0907 110.636 55.16 110.167 55.16C109.591 55.16 109.068 55.048 108.599 54.824C108.14 54.5893 107.751 54.2693 107.431 53.864C107.346 53.7573 107.266 53.6453 107.191 53.528V58.2H105.415V46.28H106.967ZM109.703 53.688C110.023 53.688 110.316 53.64 110.583 53.544C110.85 53.448 111.084 53.3093 111.287 53.128C111.49 52.9467 111.655 52.728 111.783 52.472C111.922 52.216 112.023 51.9387 112.087 51.64C112.162 51.3307 112.199 51 112.199 50.648C112.199 50.2853 112.162 49.9493 112.087 49.64C112.023 49.3307 111.922 49.0533 111.783 48.808C111.655 48.552 111.49 48.3333 111.287 48.152C111.084 47.9707 110.85 47.832 110.583 47.736C110.316 47.64 110.023 47.592 109.703 47.592C109.18 47.592 108.732 47.7253 108.359 47.992C107.986 48.248 107.698 48.6053 107.495 49.064C107.292 49.5227 107.191 50.0507 107.191 50.648C107.191 51.0853 107.244 51.4907 107.351 51.864C107.468 52.2373 107.634 52.5627 107.847 52.84C108.071 53.1067 108.338 53.3147 108.647 53.464C108.956 53.6133 109.308 53.688 109.703 53.688ZM115.697 55V46.28H117.473V49.704H121.793V46.28H123.553V55H121.793V51.144H117.473V55H115.697ZM129.551 55.16C129.007 55.16 128.511 55.0907 128.063 54.952C127.615 54.8133 127.215 54.616 126.863 54.36C126.511 54.0933 126.212 53.7787 125.967 53.416C125.732 53.0427 125.551 52.6267 125.423 52.168C125.306 51.6987 125.247 51.1867 125.247 50.632C125.247 50.0987 125.306 49.5973 125.423 49.128C125.551 48.6587 125.732 48.2373 125.967 47.864C126.212 47.4907 126.511 47.176 126.863 46.92C127.215 46.6533 127.615 46.456 128.063 46.328C128.511 46.1893 129.007 46.12 129.551 46.12C130.106 46.12 130.607 46.1893 131.055 46.328C131.514 46.456 131.914 46.6533 132.255 46.92C132.607 47.176 132.906 47.4907 133.151 47.864C133.396 48.2373 133.578 48.6587 133.695 49.128C133.823 49.5973 133.887 50.0987 133.887 50.632C133.887 51.1867 133.823 51.6987 133.695 52.168C133.578 52.6267 133.396 53.0427 133.151 53.416C132.906 53.7787 132.607 54.0933 132.255 54.36C131.914 54.616 131.514 54.8133 131.055 54.952C130.607 55.0907 130.106 55.16 129.551 55.16ZM129.551 53.72C129.903 53.72 130.207 53.672 130.463 53.576C130.73 53.48 130.964 53.3467 131.167 53.176C131.37 53.0053 131.535 52.7973 131.663 52.552C131.802 52.296 131.903 52.008 131.967 51.688C132.031 51.368 132.063 51.016 132.063 50.632C132.063 50.248 132.031 49.896 131.967 49.576C131.903 49.256 131.802 48.9733 131.663 48.728C131.535 48.4827 131.37 48.2747 131.167 48.104C130.964 47.9227 130.73 47.7893 130.463 47.704C130.207 47.608 129.903 47.56 129.551 47.56C129.22 47.56 128.922 47.608 128.655 47.704C128.388 47.7893 128.154 47.9227 127.951 48.104C127.759 48.2747 127.594 48.488 127.455 48.744C127.316 48.9893 127.215 49.272 127.151 49.592C127.087 49.9013 127.055 50.248 127.055 50.632C127.055 51.016 127.087 51.368 127.151 51.688C127.226 52.008 127.327 52.296 127.455 52.552C127.594 52.7973 127.759 53.0053 127.951 53.176C128.154 53.3467 128.388 53.48 128.655 53.576C128.922 53.672 129.22 53.72 129.551 53.72ZM144.053 55V48.424L141.429 53.432H139.829L137.157 48.44V55H135.573V46.28H137.605L140.629 51.928L143.605 46.28H145.637V55H144.053ZM150.902 55V46.28H152.678V50.344L156.598 46.28H158.71L154.598 50.36L158.806 55H156.63L152.678 50.664V55H150.902ZM158.577 53.672C158.801 53.6613 159.004 53.624 159.185 53.56C159.366 53.4853 159.516 53.3733 159.633 53.224C159.814 53.0107 159.948 52.7013 160.033 52.296C160.118 51.88 160.177 51.336 160.209 50.664C160.241 49.9813 160.268 49.1387 160.289 48.136V46.28H166.817V55H165.057V47.72H161.969L161.953 48.344C161.942 49.4747 161.9 50.424 161.825 51.192C161.75 51.96 161.638 52.584 161.489 53.064C161.35 53.544 161.158 53.928 160.913 54.216C160.646 54.5467 160.332 54.776 159.969 54.904C159.606 55.0213 159.169 55.0853 158.657 55.096L158.577 53.672ZM174.452 46.28H176.212L172.628 55.56C172.436 56.0613 172.238 56.488 172.036 56.84C171.844 57.192 171.625 57.48 171.38 57.704C171.145 57.928 170.873 58.0933 170.564 58.2C170.265 58.3067 169.929 58.36 169.556 58.36C169.364 58.36 169.177 58.344 168.996 58.312C168.814 58.2907 168.654 58.2533 168.516 58.2L168.436 56.84C168.553 56.872 168.67 56.8933 168.788 56.904C168.905 56.9147 169.022 56.92 169.14 56.92C169.406 56.92 169.636 56.8827 169.828 56.808C170.03 56.744 170.206 56.632 170.356 56.472C170.516 56.3227 170.665 56.1147 170.804 55.848C170.942 55.592 171.092 55.272 171.252 54.888L171.3 54.76L167.796 46.28H169.652L172.132 52.792L174.452 46.28ZM181.154 55.16C180.461 55.16 179.842 55.048 179.298 54.824C178.765 54.6 178.317 54.2747 177.954 53.848C177.592 53.4213 177.314 52.904 177.122 52.296C176.941 51.6773 176.85 50.9787 176.85 50.2V49.496C176.85 48.3973 176.946 47.4533 177.138 46.664C177.33 45.8747 177.629 45.2293 178.034 44.728C178.44 44.216 178.957 43.832 179.586 43.576C180.216 43.3093 180.973 43.1493 181.858 43.096L183.41 42.984C183.677 42.9627 183.912 42.936 184.114 42.904C184.317 42.872 184.525 42.8293 184.738 42.776L184.866 44.216C184.664 44.2907 184.44 44.3493 184.194 44.392C183.96 44.4347 183.693 44.4667 183.394 44.488L181.842 44.584C181.256 44.6267 180.744 44.7333 180.306 44.904C179.88 45.0747 179.528 45.336 179.25 45.688C178.973 46.0293 178.77 46.488 178.642 47.064C178.568 47.416 178.514 47.8213 178.482 48.28C178.696 47.8853 178.968 47.5493 179.298 47.272C179.629 46.984 180.002 46.7653 180.418 46.616C180.834 46.4667 181.288 46.392 181.778 46.392C182.258 46.392 182.696 46.4613 183.09 46.6C183.485 46.7387 183.832 46.936 184.13 47.192C184.429 47.4373 184.68 47.7413 184.882 48.104C185.085 48.456 185.24 48.856 185.346 49.304C185.453 49.752 185.506 50.2373 185.506 50.76C185.506 51.2933 185.442 51.7893 185.314 52.248C185.186 52.696 184.994 53.1013 184.738 53.464C184.482 53.816 184.173 54.12 183.81 54.376C183.458 54.632 183.058 54.8293 182.61 54.968C182.173 55.096 181.688 55.16 181.154 55.16ZM181.154 53.72C181.485 53.72 181.784 53.6773 182.05 53.592C182.317 53.496 182.552 53.368 182.754 53.208C182.957 53.048 183.128 52.8453 183.266 52.6C183.416 52.3547 183.522 52.0773 183.586 51.768C183.661 51.4587 183.698 51.1173 183.698 50.744C183.698 50.3707 183.666 50.0293 183.602 49.72C183.538 49.4107 183.442 49.1333 183.314 48.888C183.197 48.6427 183.037 48.44 182.834 48.28C182.642 48.1093 182.418 47.9813 182.162 47.896C181.906 47.8 181.613 47.752 181.282 47.752C180.973 47.752 180.685 47.7947 180.418 47.88C180.152 47.9653 179.912 48.0933 179.698 48.264C179.496 48.424 179.32 48.6267 179.17 48.872C179.021 49.1067 178.904 49.384 178.818 49.704C178.744 50.0133 178.706 50.3547 178.706 50.728C178.706 51.1013 178.738 51.4427 178.802 51.752C178.866 52.0613 178.962 52.3387 179.09 52.584C179.218 52.8187 179.384 53.0213 179.586 53.192C179.789 53.3627 180.018 53.496 180.274 53.592C180.53 53.6773 180.824 53.72 181.154 53.72ZM191.042 55.16C190.487 55.16 189.975 55.0907 189.506 54.952C189.047 54.8027 188.642 54.6 188.29 54.344C187.938 54.0773 187.639 53.7573 187.394 53.384C187.149 53.0107 186.962 52.5947 186.834 52.136C186.706 51.6667 186.642 51.1653 186.642 50.632C186.642 50.0987 186.701 49.6027 186.818 49.144C186.946 48.6853 187.133 48.2747 187.378 47.912C187.623 47.5387 187.917 47.2187 188.258 46.952C188.61 46.6853 189.015 46.4827 189.474 46.344C189.933 46.1947 190.439 46.12 190.994 46.12C191.623 46.12 192.194 46.2213 192.706 46.424C193.218 46.6267 193.655 46.92 194.018 47.304C194.391 47.6773 194.674 48.1253 194.866 48.648C195.069 49.16 195.17 49.736 195.17 50.376C195.17 50.504 195.165 50.632 195.154 50.76C195.143 50.8773 195.122 50.9947 195.09 51.112H188.386C188.397 51.304 188.423 51.4907 188.466 51.672C188.53 52.0027 188.631 52.296 188.77 52.552C188.919 52.7973 189.101 53.016 189.314 53.208C189.527 53.3893 189.778 53.528 190.066 53.624C190.354 53.72 190.679 53.768 191.042 53.768C191.49 53.768 191.874 53.704 192.194 53.576C192.525 53.448 192.797 53.2667 193.01 53.032C193.223 52.7867 193.378 52.4933 193.474 52.152L195.106 52.44C194.957 53.0053 194.711 53.496 194.37 53.912C194.029 54.3173 193.581 54.6267 193.026 54.84C192.471 55.0533 191.81 55.16 191.042 55.16ZM188.418 49.832H193.49C193.469 49.5653 193.415 49.32 193.33 49.096C193.223 48.7653 193.058 48.4827 192.834 48.248C192.621 48.0133 192.359 47.832 192.05 47.704C191.751 47.576 191.405 47.512 191.01 47.512C190.658 47.512 190.338 47.56 190.05 47.656C189.773 47.7413 189.527 47.8747 189.314 48.056C189.111 48.2373 188.935 48.456 188.786 48.712C188.637 48.968 188.53 49.256 188.466 49.576C188.445 49.6613 188.429 49.7467 188.418 49.832ZM205.157 46.28H206.917L203.333 55.56C203.141 56.0613 202.944 56.488 202.741 56.84C202.549 57.192 202.331 57.48 202.085 57.704C201.851 57.928 201.579 58.0933 201.269 58.2C200.971 58.3067 200.635 58.36 200.261 58.36C200.069 58.36 199.883 58.344 199.701 58.312C199.52 58.2907 199.36 58.2533 199.221 58.2L199.141 56.84C199.259 56.872 199.376 56.8933 199.493 56.904C199.611 56.9147 199.728 56.92 199.845 56.92C200.112 56.92 200.341 56.8827 200.533 56.808C200.736 56.744 200.912 56.632 201.061 56.472C201.221 56.3227 201.371 56.1147 201.509 55.848C201.648 55.592 201.797 55.272 201.957 54.888L202.005 54.76L198.501 46.28H200.357L202.837 52.792L205.157 46.28ZM212.03 55V50.568L208.686 55H206.638L210.254 50.344L206.798 46.28H208.814L212.03 50.392V46.28H213.71V50.392L216.942 46.28H218.958L215.502 50.344L219.118 55H217.07L213.71 50.568V55H212.03ZM223.716 55.16C223.162 55.16 222.65 55.0907 222.18 54.952C221.722 54.8027 221.316 54.6 220.964 54.344C220.612 54.0773 220.314 53.7573 220.068 53.384C219.823 53.0107 219.636 52.5947 219.508 52.136C219.38 51.6667 219.316 51.1653 219.316 50.632C219.316 50.0987 219.375 49.6027 219.492 49.144C219.62 48.6853 219.807 48.2747 220.052 47.912C220.298 47.5387 220.591 47.2187 220.932 46.952C221.284 46.6853 221.69 46.4827 222.148 46.344C222.607 46.1947 223.114 46.12 223.668 46.12C224.298 46.12 224.868 46.2213 225.38 46.424C225.892 46.6267 226.33 46.92 226.692 47.304C227.066 47.6773 227.348 48.1253 227.54 48.648C227.743 49.16 227.844 49.736 227.844 50.376C227.844 50.504 227.839 50.632 227.828 50.76C227.818 50.8773 227.796 50.9947 227.764 51.112H221.06C221.071 51.304 221.098 51.4907 221.14 51.672C221.204 52.0027 221.306 52.296 221.444 52.552C221.594 52.7973 221.775 53.016 221.988 53.208C222.202 53.3893 222.452 53.528 222.74 53.624C223.028 53.72 223.354 53.768 223.716 53.768C224.164 53.768 224.548 53.704 224.868 53.576C225.199 53.448 225.471 53.2667 225.684 53.032C225.898 52.7867 226.052 52.4933 226.148 52.152L227.78 52.44C227.631 53.0053 227.386 53.496 227.044 53.912C226.703 54.3173 226.255 54.6267 225.7 54.84C225.146 55.0533 224.484 55.16 223.716 55.16ZM221.092 49.832H226.164C226.143 49.5653 226.09 49.32 226.004 49.096C225.898 48.7653 225.732 48.4827 225.508 48.248C225.295 48.0133 225.034 47.832 224.724 47.704C224.426 47.576 224.079 47.512 223.684 47.512C223.332 47.512 223.012 47.56 222.724 47.656C222.447 47.7413 222.202 47.8747 221.988 48.056C221.786 48.2373 221.61 48.456 221.46 48.712C221.311 48.968 221.204 49.256 221.14 49.576C221.119 49.6613 221.103 49.7467 221.092 49.832ZM239 57.464V55H232.84V57.464H231.208V53.496H232.056C232.216 53.2827 232.354 53.064 232.472 52.84C232.61 52.5307 232.717 52.152 232.792 51.704C232.877 51.256 232.941 50.68 232.984 49.976C233.037 49.2613 233.08 48.3707 233.112 47.304L233.144 46.28H239.512V53.496H240.632V57.464H239ZM233.8 53.496H237.832V47.672H234.76C234.738 48.44 234.712 49.096 234.68 49.64C234.648 50.2267 234.605 50.7333 234.552 51.16C234.498 51.576 234.418 51.9707 234.312 52.344C234.205 52.7493 234.045 53.1173 233.832 53.448C233.821 53.4587 233.81 53.4747 233.8 53.496ZM245.575 55.16C245.031 55.16 244.535 55.0907 244.087 54.952C243.639 54.8133 243.239 54.616 242.887 54.36C242.535 54.0933 242.237 53.7787 241.991 53.416C241.757 53.0427 241.575 52.6267 241.447 52.168C241.33 51.6987 241.271 51.1867 241.271 50.632C241.271 50.0987 241.33 49.5973 241.447 49.128C241.575 48.6587 241.757 48.2373 241.991 47.864C242.237 47.4907 242.535 47.176 242.887 46.92C243.239 46.6533 243.639 46.456 244.087 46.328C244.535 46.1893 245.031 46.12 245.575 46.12C246.13 46.12 246.631 46.1893 247.079 46.328C247.538 46.456 247.938 46.6533 248.279 46.92C248.631 47.176 248.93 47.4907 249.175 47.864C249.421 48.2373 249.602 48.6587 249.719 49.128C249.847 49.5973 249.911 50.0987 249.911 50.632C249.911 51.1867 249.847 51.6987 249.719 52.168C249.602 52.6267 249.421 53.0427 249.175 53.416C248.93 53.7787 248.631 54.0933 248.279 54.36C247.938 54.616 247.538 54.8133 247.079 54.952C246.631 55.0907 246.13 55.16 245.575 55.16ZM245.575 53.72C245.927 53.72 246.231 53.672 246.487 53.576C246.754 53.48 246.989 53.3467 247.191 53.176C247.394 53.0053 247.559 52.7973 247.687 52.552C247.826 52.296 247.927 52.008 247.991 51.688C248.055 51.368 248.087 51.016 248.087 50.632C248.087 50.248 248.055 49.896 247.991 49.576C247.927 49.256 247.826 48.9733 247.687 48.728C247.559 48.4827 247.394 48.2747 247.191 48.104C246.989 47.9227 246.754 47.7893 246.487 47.704C246.231 47.608 245.927 47.56 245.575 47.56C245.245 47.56 244.946 47.608 244.679 47.704C244.413 47.7893 244.178 47.9227 243.975 48.104C243.783 48.2747 243.618 48.488 243.479 48.744C243.341 48.9893 243.239 49.272 243.175 49.592C243.111 49.9013 243.079 50.248 243.079 50.632C243.079 51.016 243.111 51.368 243.175 51.688C243.25 52.008 243.351 52.296 243.479 52.552C243.618 52.7973 243.783 53.0053 243.975 53.176C244.178 53.3467 244.413 53.48 244.679 53.576C244.946 53.672 245.245 53.72 245.575 53.72ZM259.294 49.256L257.582 49.544C257.518 49.1173 257.384 48.76 257.182 48.472C256.99 48.1733 256.739 47.9493 256.43 47.8C256.12 47.64 255.758 47.56 255.342 47.56C255.011 47.56 254.712 47.608 254.446 47.704C254.179 47.8 253.944 47.9333 253.742 48.104C253.55 48.2747 253.384 48.488 253.246 48.744C253.118 48.9893 253.016 49.272 252.942 49.592C252.878 49.912 252.846 50.264 252.846 50.648C252.846 51.0213 252.878 51.368 252.942 51.688C253.016 51.9973 253.118 52.28 253.246 52.536C253.384 52.792 253.555 53.0053 253.758 53.176C253.96 53.3467 254.19 53.48 254.446 53.576C254.712 53.672 255.011 53.72 255.342 53.72C255.758 53.72 256.12 53.6453 256.43 53.496C256.739 53.3467 256.995 53.128 257.198 52.84C257.411 52.5413 257.56 52.1627 257.646 51.704L259.326 51.992C259.187 52.6747 258.936 53.2507 258.574 53.72C258.222 54.1893 257.768 54.5467 257.214 54.792C256.67 55.0373 256.046 55.16 255.342 55.16C254.798 55.16 254.302 55.0907 253.854 54.952C253.406 54.8133 253.006 54.616 252.654 54.36C252.302 54.0933 252.003 53.7787 251.758 53.416C251.523 53.0427 251.342 52.6267 251.214 52.168C251.096 51.7093 251.038 51.2027 251.038 50.648C251.038 50.104 251.096 49.5973 251.214 49.128C251.342 48.6587 251.523 48.2373 251.758 47.864C252.003 47.4907 252.302 47.176 252.654 46.92C253.006 46.6533 253.406 46.456 253.854 46.328C254.302 46.1893 254.798 46.12 255.342 46.12C256.078 46.12 256.718 46.2427 257.262 46.488C257.806 46.7227 258.248 47.0747 258.59 47.544C258.931 48.0133 259.166 48.584 259.294 49.256ZM262.468 55V47.72H259.54V46.28H267.172V47.72H264.244V55H262.468ZM273.631 46.28H275.391L271.807 55.56C271.615 56.0613 271.418 56.488 271.215 56.84C271.023 57.192 270.804 57.48 270.559 57.704C270.324 57.928 270.052 58.0933 269.743 58.2C269.444 58.3067 269.108 58.36 268.735 58.36C268.543 58.36 268.356 58.344 268.175 58.312C267.994 58.2907 267.834 58.2533 267.695 58.2L267.615 56.84C267.732 56.872 267.85 56.8933 267.967 56.904C268.084 56.9147 268.202 56.92 268.319 56.92C268.586 56.92 268.815 56.8827 269.007 56.808C269.21 56.744 269.386 56.632 269.535 56.472C269.695 56.3227 269.844 56.1147 269.983 55.848C270.122 55.592 270.271 55.272 270.431 54.888L270.479 54.76L266.975 46.28H268.831L271.311 52.792L273.631 46.28ZM276.349 55V46.28H284.093V55H282.317V47.72H278.125V55H276.349ZM290.174 55.16C289.62 55.16 289.108 55.0907 288.638 54.952C288.18 54.8027 287.774 54.6 287.422 54.344C287.07 54.0773 286.772 53.7573 286.526 53.384C286.281 53.0107 286.094 52.5947 285.966 52.136C285.838 51.6667 285.774 51.1653 285.774 50.632C285.774 50.0987 285.833 49.6027 285.95 49.144C286.078 48.6853 286.265 48.2747 286.51 47.912C286.756 47.5387 287.049 47.2187 287.39 46.952C287.742 46.6853 288.148 46.4827 288.606 46.344C289.065 46.1947 289.572 46.12 290.126 46.12C290.756 46.12 291.326 46.2213 291.838 46.424C292.35 46.6267 292.788 46.92 293.15 47.304C293.524 47.6773 293.806 48.1253 293.998 48.648C294.201 49.16 294.302 49.736 294.302 50.376C294.302 50.504 294.297 50.632 294.286 50.76C294.276 50.8773 294.254 50.9947 294.222 51.112H287.518C287.529 51.304 287.556 51.4907 287.598 51.672C287.662 52.0027 287.764 52.296 287.902 52.552C288.052 52.7973 288.233 53.016 288.446 53.208C288.66 53.3893 288.91 53.528 289.198 53.624C289.486 53.72 289.812 53.768 290.174 53.768C290.622 53.768 291.006 53.704 291.326 53.576C291.657 53.448 291.929 53.2667 292.142 53.032C292.356 52.7867 292.51 52.4933 292.606 52.152L294.238 52.44C294.089 53.0053 293.844 53.496 293.502 53.912C293.161 54.3173 292.713 54.6267 292.158 54.84C291.604 55.0533 290.942 55.16 290.174 55.16ZM287.55 49.832H292.622C292.601 49.5653 292.548 49.32 292.462 49.096C292.356 48.7653 292.19 48.4827 291.966 48.248C291.753 48.0133 291.492 47.832 291.182 47.704C290.884 47.576 290.537 47.512 290.142 47.512C289.79 47.512 289.47 47.56 289.182 47.656C288.905 47.7413 288.66 47.8747 288.446 48.056C288.244 48.2373 288.068 48.456 287.918 48.712C287.769 48.968 287.662 49.256 287.598 49.576C287.577 49.6613 287.561 49.7467 287.55 49.832ZM295.897 55V46.28H297.673V49.704H301.993V46.28H303.753V55H301.993V51.144H297.673V55H295.897ZM309.024 55V46.28H310.8V49.704H315.12V46.28H316.88V55H315.12V51.144H310.8V55H309.024ZM322.878 55.16C322.334 55.16 321.838 55.0907 321.39 54.952C320.942 54.8133 320.542 54.616 320.19 54.36C319.838 54.0933 319.539 53.7787 319.294 53.416C319.059 53.0427 318.878 52.6267 318.75 52.168C318.632 51.6987 318.574 51.1867 318.574 50.632C318.574 50.0987 318.632 49.5973 318.75 49.128C318.878 48.6587 319.059 48.2373 319.294 47.864C319.539 47.4907 319.838 47.176 320.19 46.92C320.542 46.6533 320.942 46.456 321.39 46.328C321.838 46.1893 322.334 46.12 322.878 46.12C323.432 46.12 323.934 46.1893 324.382 46.328C324.84 46.456 325.24 46.6533 325.582 46.92C325.934 47.176 326.232 47.4907 326.478 47.864C326.723 48.2373 326.904 48.6587 327.022 49.128C327.15 49.5973 327.214 50.0987 327.214 50.632C327.214 51.1867 327.15 51.6987 327.022 52.168C326.904 52.6267 326.723 53.0427 326.478 53.416C326.232 53.7787 325.934 54.0933 325.582 54.36C325.24 54.616 324.84 54.8133 324.382 54.952C323.934 55.0907 323.432 55.16 322.878 55.16ZM322.878 53.72C323.23 53.72 323.534 53.672 323.79 53.576C324.056 53.48 324.291 53.3467 324.494 53.176C324.696 53.0053 324.862 52.7973 324.99 52.552C325.128 52.296 325.23 52.008 325.294 51.688C325.358 51.368 325.39 51.016 325.39 50.632C325.39 50.248 325.358 49.896 325.294 49.576C325.23 49.256 325.128 48.9733 324.99 48.728C324.862 48.4827 324.696 48.2747 324.494 48.104C324.291 47.9227 324.056 47.7893 323.79 47.704C323.534 47.608 323.23 47.56 322.878 47.56C322.547 47.56 322.248 47.608 321.982 47.704C321.715 47.7893 321.48 47.9227 321.278 48.104C321.086 48.2747 320.92 48.488 320.782 48.744C320.643 48.9893 320.542 49.272 320.478 49.592C320.414 49.9013 320.382 50.248 320.382 50.632C320.382 51.016 320.414 51.368 320.478 51.688C320.552 52.008 320.654 52.296 320.782 52.552C320.92 52.7973 321.086 53.0053 321.278 53.176C321.48 53.3467 321.715 53.48 321.982 53.576C322.248 53.672 322.547 53.72 322.878 53.72ZM328.9 55V46.28H333.252C333.839 46.28 334.34 46.3653 334.756 46.536C335.183 46.7067 335.508 46.9573 335.732 47.288C335.967 47.6187 336.084 48.0293 336.084 48.52C336.084 48.8187 336.036 49.0853 335.94 49.32C335.855 49.5547 335.727 49.7573 335.556 49.928C335.396 50.0987 335.193 50.2427 334.948 50.36C334.863 50.4027 334.777 50.44 334.692 50.472C334.905 50.536 335.108 50.6213 335.3 50.728C335.652 50.9307 335.924 51.1973 336.116 51.528C336.319 51.8587 336.42 52.2427 336.42 52.68C336.42 53.1813 336.303 53.608 336.068 53.96C335.833 54.3013 335.497 54.5627 335.06 54.744C334.623 54.9147 334.1 55 333.492 55H328.9ZM330.628 51.144V53.704H333.172C333.492 53.704 333.764 53.656 333.988 53.56C334.212 53.464 334.383 53.3307 334.5 53.16C334.628 52.9787 334.692 52.7493 334.692 52.472C334.692 52.184 334.623 51.944 334.484 51.752C334.356 51.5493 334.175 51.4 333.94 51.304C333.705 51.1973 333.439 51.144 333.14 51.144H330.628ZM330.628 47.576V49.896H333.012C333.279 49.896 333.513 49.8533 333.716 49.768C333.929 49.672 334.095 49.5333 334.212 49.352C334.329 49.1707 334.388 48.9467 334.388 48.68C334.388 48.3173 334.26 48.0453 334.004 47.864C333.759 47.672 333.423 47.576 332.996 47.576H330.628ZM337.979 55V46.28H339.755V49.08H342.171C342.821 49.08 343.376 49.2027 343.835 49.448C344.293 49.6933 344.645 50.04 344.891 50.488C345.147 50.9253 345.275 51.448 345.275 52.056C345.275 52.504 345.2 52.9093 345.051 53.272C344.912 53.6347 344.709 53.944 344.443 54.2C344.176 54.456 343.851 54.6533 343.467 54.792C343.083 54.9307 342.651 55 342.171 55H337.979ZM346.379 55V46.28H348.155V55H346.379ZM339.755 50.408V53.672H341.819C342.181 53.672 342.491 53.6133 342.747 53.496C343.013 53.368 343.216 53.1867 343.355 52.952C343.493 52.7067 343.563 52.408 343.563 52.056C343.563 51.6933 343.493 51.3947 343.355 51.16C343.216 50.9147 343.013 50.728 342.747 50.6C342.491 50.472 342.181 50.408 341.819 50.408H339.755ZM350.417 55V46.28H352.145V52.616L356.369 46.28H358.097V55H356.369V48.664L352.145 55H350.417ZM355.713 42.888H357.121C357.121 43.2613 357.052 43.6027 356.913 43.912C356.785 44.2107 356.593 44.4667 356.337 44.68C356.092 44.8933 355.798 45.0587 355.457 45.176C355.116 45.2933 354.732 45.352 354.305 45.352C353.9 45.352 353.521 45.2933 353.169 45.176C352.817 45.0587 352.518 44.8933 352.273 44.68C352.028 44.4667 351.836 44.2107 351.697 43.912C351.558 43.6027 351.489 43.2613 351.489 42.888H352.897C352.897 43.3147 353.025 43.6507 353.281 43.896C353.537 44.1413 353.878 44.264 354.305 44.264C354.593 44.264 354.844 44.2107 355.057 44.104C355.27 43.9867 355.43 43.8267 355.537 43.624C355.654 43.4213 355.713 43.176 355.713 42.888ZM371.052 49.256L369.34 49.544C369.276 49.1173 369.142 48.76 368.94 48.472C368.748 48.1733 368.497 47.9493 368.188 47.8C367.878 47.64 367.516 47.56 367.1 47.56C366.769 47.56 366.47 47.608 366.204 47.704C365.937 47.8 365.702 47.9333 365.5 48.104C365.308 48.2747 365.142 48.488 365.004 48.744C364.876 48.9893 364.774 49.272 364.7 49.592C364.636 49.912 364.604 50.264 364.604 50.648C364.604 51.0213 364.636 51.368 364.7 51.688C364.774 51.9973 364.876 52.28 365.004 52.536C365.142 52.792 365.313 53.0053 365.516 53.176C365.718 53.3467 365.948 53.48 366.204 53.576C366.47 53.672 366.769 53.72 367.1 53.72C367.516 53.72 367.878 53.6453 368.188 53.496C368.497 53.3467 368.753 53.128 368.956 52.84C369.169 52.5413 369.318 52.1627 369.404 51.704L371.084 51.992C370.945 52.6747 370.694 53.2507 370.332 53.72C369.98 54.1893 369.526 54.5467 368.972 54.792C368.428 55.0373 367.804 55.16 367.1 55.16C366.556 55.16 366.06 55.0907 365.612 54.952C365.164 54.8133 364.764 54.616 364.412 54.36C364.06 54.0933 363.761 53.7787 363.516 53.416C363.281 53.0427 363.1 52.6267 362.972 52.168C362.854 51.7093 362.796 51.2027 362.796 50.648C362.796 50.104 362.854 49.5973 362.972 49.128C363.1 48.6587 363.281 48.2373 363.516 47.864C363.761 47.4907 364.06 47.176 364.412 46.92C364.764 46.6533 365.164 46.456 365.612 46.328C366.06 46.1893 366.556 46.12 367.1 46.12C367.836 46.12 368.476 46.2427 369.02 46.488C369.564 46.7227 370.006 47.0747 370.348 47.544C370.689 48.0133 370.924 48.584 371.052 49.256ZM372.466 55V46.28H374.242V50.344L378.162 46.28H380.274L376.162 50.36L380.37 55H378.194L374.242 50.664V55H372.466ZM381.154 55V46.28H382.882V52.616L387.106 46.28H388.834V55H387.106V48.664L382.882 55H381.154ZM391.076 55V46.28H392.852V49.704H397.172V46.28H398.932V55H397.172V51.144H392.852V55H391.076ZM19.136 67.256L17.424 67.544C17.36 67.1173 17.2267 66.76 17.024 66.472C16.832 66.1733 16.5813 65.9493 16.272 65.8C15.9627 65.64 15.6 65.56 15.184 65.56C14.8533 65.56 14.5547 65.608 14.288 65.704C14.0213 65.8 13.7867 65.9333 13.584 66.104C13.392 66.2747 13.2267 66.488 13.088 66.744C12.96 66.9893 12.8587 67.272 12.784 67.592C12.72 67.912 12.688 68.264 12.688 68.648C12.688 69.0213 12.72 69.368 12.784 69.688C12.8587 69.9973 12.96 70.28 13.088 70.536C13.2267 70.792 13.3973 71.0053 13.6 71.176C13.8027 71.3467 14.032 71.48 14.288 71.576C14.5547 71.672 14.8533 71.72 15.184 71.72C15.6 71.72 15.9627 71.6453 16.272 71.496C16.5813 71.3467 16.8373 71.128 17.04 70.84C17.2533 70.5413 17.4027 70.1627 17.488 69.704L19.168 69.992C19.0293 70.6747 18.7787 71.2507 18.416 71.72C18.064 72.1893 17.6107 72.5467 17.056 72.792C16.512 73.0373 15.888 73.16 15.184 73.16C14.64 73.16 14.144 73.0907 13.696 72.952C13.248 72.8133 12.848 72.616 12.496 72.36C12.144 72.0933 11.8453 71.7787 11.6 71.416C11.3653 71.0427 11.184 70.6267 11.056 70.168C10.9387 69.7093 10.88 69.2027 10.88 68.648C10.88 68.104 10.9387 67.5973 11.056 67.128C11.184 66.6587 11.3653 66.2373 11.6 65.864C11.8453 65.4907 12.144 65.176 12.496 64.92C12.848 64.6533 13.248 64.456 13.696 64.328C14.144 64.1893 14.64 64.12 15.184 64.12C15.92 64.12 16.56 64.2427 17.104 64.488C17.648 64.7227 18.0907 65.0747 18.432 65.544C18.7733 66.0133 19.008 66.584 19.136 67.256ZM23.5663 73V64.28H31.3103V73H29.5343V65.72H25.3423V73H23.5663ZM37.2952 73.16C36.7512 73.16 36.2552 73.0907 35.8073 72.952C35.3593 72.8133 34.9593 72.616 34.6072 72.36C34.2552 72.0933 33.9566 71.7787 33.7112 71.416C33.4766 71.0427 33.2952 70.6267 33.1672 70.168C33.0499 69.6987 32.9912 69.1867 32.9912 68.632C32.9912 68.0987 33.0499 67.5973 33.1672 67.128C33.2952 66.6587 33.4766 66.2373 33.7112 65.864C33.9566 65.4907 34.2552 65.176 34.6072 64.92C34.9593 64.6533 35.3593 64.456 35.8073 64.328C36.2552 64.1893 36.7512 64.12 37.2952 64.12C37.8499 64.12 38.3513 64.1893 38.7993 64.328C39.2579 64.456 39.6579 64.6533 39.9993 64.92C40.3513 65.176 40.6499 65.4907 40.8953 65.864C41.1406 66.2373 41.3219 66.6587 41.4392 67.128C41.5673 67.5973 41.6313 68.0987 41.6313 68.632C41.6313 69.1867 41.5673 69.6987 41.4392 70.168C41.3219 70.6267 41.1406 71.0427 40.8953 71.416C40.6499 71.7787 40.3513 72.0933 39.9993 72.36C39.6579 72.616 39.2579 72.8133 38.7993 72.952C38.3513 73.0907 37.8499 73.16 37.2952 73.16ZM37.2952 71.72C37.6473 71.72 37.9513 71.672 38.2073 71.576C38.4739 71.48 38.7086 71.3467 38.9113 71.176C39.1139 71.0053 39.2793 70.7973 39.4073 70.552C39.5459 70.296 39.6473 70.008 39.7113 69.688C39.7753 69.368 39.8073 69.016 39.8073 68.632C39.8073 68.248 39.7753 67.896 39.7113 67.576C39.6473 67.256 39.5459 66.9733 39.4073 66.728C39.2793 66.4827 39.1139 66.2747 38.9113 66.104C38.7086 65.9227 38.4739 65.7893 38.2073 65.704C37.9513 65.608 37.6473 65.56 37.2952 65.56C36.9646 65.56 36.6659 65.608 36.3993 65.704C36.1326 65.7893 35.8979 65.9227 35.6953 66.104C35.5033 66.2747 35.3379 66.488 35.1992 66.744C35.0606 66.9893 34.9593 67.272 34.8953 67.592C34.8313 67.9013 34.7993 68.248 34.7993 68.632C34.7993 69.016 34.8313 69.368 34.8953 69.688C34.9699 70.008 35.0713 70.296 35.1992 70.552C35.3379 70.7973 35.5033 71.0053 35.6953 71.176C35.8979 71.3467 36.1326 71.48 36.3993 71.576C36.6659 71.672 36.9646 71.72 37.2952 71.72ZM43.3175 73V64.28H51.0615V73H49.2855V65.72H45.0935V73H43.3175ZM58.6785 64.28H60.4385L56.8545 73.56C56.6625 74.0613 56.4652 74.488 56.2625 74.84C56.0705 75.192 55.8518 75.48 55.6065 75.704C55.3718 75.928 55.0998 76.0933 54.7905 76.2C54.4918 76.3067 54.1558 76.36 53.7825 76.36C53.5905 76.36 53.4038 76.344 53.2225 76.312C53.0412 76.2907 52.8812 76.2533 52.7425 76.2L52.6625 74.84C52.7798 74.872 52.8972 74.8933 53.0145 74.904C53.1318 74.9147 53.2492 74.92 53.3665 74.92C53.6332 74.92 53.8625 74.8827 54.0545 74.808C54.2572 74.744 54.4332 74.632 54.5825 74.472C54.7425 74.3227 54.8918 74.1147 55.0305 73.848C55.1692 73.592 55.3185 73.272 55.4785 72.888L55.5265 72.76L52.0225 64.28H53.8785L56.3585 70.792L58.6785 64.28ZM60.0239 71.672C60.2479 71.6613 60.4505 71.624 60.6319 71.56C60.8132 71.4853 60.9625 71.3733 61.0799 71.224C61.2612 71.0107 61.3945 70.7013 61.4799 70.296C61.5652 69.88 61.6239 69.336 61.6559 68.664C61.6879 67.9813 61.7145 67.1387 61.7359 66.136V64.28H68.2639V73H66.5039V65.72H63.4159L63.3999 66.344C63.3892 67.4747 63.3465 68.424 63.2719 69.192C63.1972 69.96 63.0852 70.584 62.9359 71.064C62.7972 71.544 62.6052 71.928 62.3599 72.216C62.0932 72.5467 61.7785 72.776 61.4159 72.904C61.0532 73.0213 60.6159 73.0853 60.1039 73.096L60.0239 71.672ZM76.9545 73H75.2265V69.864H73.7545L71.6105 73H69.7065L72.0585 69.624C71.8025 69.5707 71.5625 69.496 71.3385 69.4C70.8692 69.1867 70.5012 68.8827 70.2345 68.488C69.9678 68.0827 69.8345 67.6027 69.8345 67.048C69.8345 66.472 69.9678 65.976 70.2345 65.56C70.5012 65.144 70.8798 64.824 71.3705 64.6C71.8612 64.376 72.4318 64.264 73.0825 64.264H76.9545V73ZM75.2265 68.52V65.576H73.2105C72.8798 65.576 72.5865 65.6347 72.3305 65.752C72.0852 65.8693 71.8932 66.04 71.7545 66.264C71.6265 66.4773 71.5625 66.744 71.5625 67.064C71.5625 67.3733 71.6318 67.64 71.7705 67.864C71.9092 68.0773 72.1012 68.2427 72.3465 68.36C72.5918 68.4667 72.8798 68.52 73.2105 68.52H75.2265ZM80.747 64.28L80.875 65.896C80.9817 65.7253 81.0937 65.5707 81.211 65.432C81.531 65.016 81.9203 64.696 82.379 64.472C82.8483 64.2373 83.371 64.12 83.947 64.12C84.4163 64.12 84.8483 64.1947 85.243 64.344C85.6483 64.4827 86.0057 64.6853 86.315 64.952C86.635 65.2187 86.9017 65.5387 87.115 65.912C87.339 66.2853 87.5097 66.7013 87.627 67.16C87.7443 67.6187 87.803 68.1093 87.803 68.632C87.803 69.1653 87.7443 69.6613 87.627 70.12C87.5097 70.5787 87.339 70.9947 87.115 71.368C86.9017 71.7413 86.635 72.0613 86.315 72.328C86.0057 72.5947 85.6483 72.8027 85.243 72.952C84.8483 73.0907 84.4163 73.16 83.947 73.16C83.371 73.16 82.8483 73.048 82.379 72.824C81.9203 72.5893 81.531 72.2693 81.211 71.864C81.1257 71.7573 81.0457 71.6453 80.971 71.528V76.2H79.195V64.28H80.747ZM83.483 71.688C83.803 71.688 84.0963 71.64 84.363 71.544C84.6297 71.448 84.8643 71.3093 85.067 71.128C85.2697 70.9467 85.435 70.728 85.563 70.472C85.7017 70.216 85.803 69.9387 85.867 69.64C85.9417 69.3307 85.979 69 85.979 68.648C85.979 68.2853 85.9417 67.9493 85.867 67.64C85.803 67.3307 85.7017 67.0533 85.563 66.808C85.435 66.552 85.2697 66.3333 85.067 66.152C84.8643 65.9707 84.6297 65.832 84.363 65.736C84.0963 65.64 83.803 65.592 83.483 65.592C82.9603 65.592 82.5123 65.7253 82.139 65.992C81.7657 66.248 81.4777 66.6053 81.275 67.064C81.0723 67.5227 80.971 68.0507 80.971 68.648C80.971 69.0853 81.0243 69.4907 81.131 69.864C81.2483 70.2373 81.4137 70.5627 81.627 70.84C81.851 71.1067 82.1177 71.3147 82.427 71.464C82.7363 71.6133 83.0883 71.688 83.483 71.688ZM89.4769 73V64.28H91.2529V67.704H95.5729V64.28H97.3329V73H95.5729V69.144H91.2529V73H89.4769ZM103.331 73.16C102.787 73.16 102.291 73.0907 101.843 72.952C101.395 72.8133 100.995 72.616 100.643 72.36C100.291 72.0933 99.9922 71.7787 99.7469 71.416C99.5122 71.0427 99.3309 70.6267 99.2029 70.168C99.0855 69.6987 99.0269 69.1867 99.0269 68.632C99.0269 68.0987 99.0855 67.5973 99.2029 67.128C99.3309 66.6587 99.5122 66.2373 99.7469 65.864C99.9922 65.4907 100.291 65.176 100.643 64.92C100.995 64.6533 101.395 64.456 101.843 64.328C102.291 64.1893 102.787 64.12 103.331 64.12C103.886 64.12 104.387 64.1893 104.835 64.328C105.294 64.456 105.694 64.6533 106.035 64.92C106.387 65.176 106.686 65.4907 106.931 65.864C107.176 66.2373 107.358 66.6587 107.475 67.128C107.603 67.5973 107.667 68.0987 107.667 68.632C107.667 69.1867 107.603 69.6987 107.475 70.168C107.358 70.6267 107.176 71.0427 106.931 71.416C106.686 71.7787 106.387 72.0933 106.035 72.36C105.694 72.616 105.294 72.8133 104.835 72.952C104.387 73.0907 103.886 73.16 103.331 73.16ZM103.331 71.72C103.683 71.72 103.987 71.672 104.243 71.576C104.51 71.48 104.744 71.3467 104.947 71.176C105.15 71.0053 105.315 70.7973 105.443 70.552C105.582 70.296 105.683 70.008 105.747 69.688C105.811 69.368 105.843 69.016 105.843 68.632C105.843 68.248 105.811 67.896 105.747 67.576C105.683 67.256 105.582 66.9733 105.443 66.728C105.315 66.4827 105.15 66.2747 104.947 66.104C104.744 65.9227 104.51 65.7893 104.243 65.704C103.987 65.608 103.683 65.56 103.331 65.56C103 65.56 102.702 65.608 102.435 65.704C102.168 65.7893 101.934 65.9227 101.731 66.104C101.539 66.2747 101.374 66.488 101.235 66.744C101.096 66.9893 100.995 67.272 100.931 67.592C100.867 67.9013 100.835 68.248 100.835 68.632C100.835 69.016 100.867 69.368 100.931 69.688C101.006 70.008 101.107 70.296 101.235 70.552C101.374 70.7973 101.539 71.0053 101.731 71.176C101.934 71.3467 102.168 71.48 102.435 71.576C102.702 71.672 103 71.72 103.331 71.72ZM109.353 73V64.28H111.081V70.616L115.305 64.28H117.033V73H115.305V66.664L111.081 73H109.353ZM114.649 60.888H116.057C116.057 61.2613 115.988 61.6027 115.849 61.912C115.721 62.2107 115.529 62.4667 115.273 62.68C115.028 62.8933 114.734 63.0587 114.393 63.176C114.052 63.2933 113.668 63.352 113.241 63.352C112.836 63.352 112.457 63.2933 112.105 63.176C111.753 63.0587 111.454 62.8933 111.209 62.68C110.964 62.4667 110.772 62.2107 110.633 61.912C110.494 61.6027 110.425 61.2613 110.425 60.888H111.833C111.833 61.3147 111.961 61.6507 112.217 61.896C112.473 62.1413 112.814 62.264 113.241 62.264C113.529 62.264 113.78 62.2107 113.993 62.104C114.206 61.9867 114.366 61.8267 114.473 61.624C114.59 61.4213 114.649 61.176 114.649 60.888ZM122.292 73V64.28H124.02V70.616L128.244 64.28H129.972V73H128.244V66.664L124.02 73H122.292ZM139.91 67.256L138.198 67.544C138.134 67.1173 138.001 66.76 137.798 66.472C137.606 66.1733 137.356 65.9493 137.046 65.8C136.737 65.64 136.374 65.56 135.958 65.56C135.628 65.56 135.329 65.608 135.062 65.704C134.796 65.8 134.561 65.9333 134.358 66.104C134.166 66.2747 134.001 66.488 133.862 66.744C133.734 66.9893 133.633 67.272 133.558 67.592C133.494 67.912 133.462 68.264 133.462 68.648C133.462 69.0213 133.494 69.368 133.558 69.688C133.633 69.9973 133.734 70.28 133.862 70.536C134.001 70.792 134.172 71.0053 134.374 71.176C134.577 71.3467 134.806 71.48 135.062 71.576C135.329 71.672 135.628 71.72 135.958 71.72C136.374 71.72 136.737 71.6453 137.046 71.496C137.356 71.3467 137.612 71.128 137.814 70.84C138.028 70.5413 138.177 70.1627 138.262 69.704L139.942 69.992C139.804 70.6747 139.553 71.2507 139.19 71.72C138.838 72.1893 138.385 72.5467 137.83 72.792C137.286 73.0373 136.662 73.16 135.958 73.16C135.414 73.16 134.918 73.0907 134.47 72.952C134.022 72.8133 133.622 72.616 133.27 72.36C132.918 72.0933 132.62 71.7787 132.374 71.416C132.14 71.0427 131.958 70.6267 131.83 70.168C131.713 69.7093 131.654 69.2027 131.654 68.648C131.654 68.104 131.713 67.5973 131.83 67.128C131.958 66.6587 132.14 66.2373 132.374 65.864C132.62 65.4907 132.918 65.176 133.27 64.92C133.622 64.6533 134.022 64.456 134.47 64.328C134.918 64.1893 135.414 64.12 135.958 64.12C136.694 64.12 137.334 64.2427 137.878 64.488C138.422 64.7227 138.865 65.0747 139.206 65.544C139.548 66.0133 139.782 66.584 139.91 67.256ZM141.324 73V64.28H149.068V73H147.292V65.72H143.1V73H141.324ZM155.053 73.16C154.509 73.16 154.013 73.0907 153.565 72.952C153.117 72.8133 152.717 72.616 152.365 72.36C152.013 72.0933 151.715 71.7787 151.469 71.416C151.235 71.0427 151.053 70.6267 150.925 70.168C150.808 69.6987 150.749 69.1867 150.749 68.632C150.749 68.0987 150.808 67.5973 150.925 67.128C151.053 66.6587 151.235 66.2373 151.469 65.864C151.715 65.4907 152.013 65.176 152.365 64.92C152.717 64.6533 153.117 64.456 153.565 64.328C154.013 64.1893 154.509 64.12 155.053 64.12C155.608 64.12 156.109 64.1893 156.557 64.328C157.016 64.456 157.416 64.6533 157.757 64.92C158.109 65.176 158.408 65.4907 158.653 65.864C158.899 66.2373 159.08 66.6587 159.197 67.128C159.325 67.5973 159.389 68.0987 159.389 68.632C159.389 69.1867 159.325 69.6987 159.197 70.168C159.08 70.6267 158.899 71.0427 158.653 71.416C158.408 71.7787 158.109 72.0933 157.757 72.36C157.416 72.616 157.016 72.8133 156.557 72.952C156.109 73.0907 155.608 73.16 155.053 73.16ZM155.053 71.72C155.405 71.72 155.709 71.672 155.965 71.576C156.232 71.48 156.467 71.3467 156.669 71.176C156.872 71.0053 157.037 70.7973 157.165 70.552C157.304 70.296 157.405 70.008 157.469 69.688C157.533 69.368 157.565 69.016 157.565 68.632C157.565 68.248 157.533 67.896 157.469 67.576C157.405 67.256 157.304 66.9733 157.165 66.728C157.037 66.4827 156.872 66.2747 156.669 66.104C156.467 65.9227 156.232 65.7893 155.965 65.704C155.709 65.608 155.405 65.56 155.053 65.56C154.723 65.56 154.424 65.608 154.157 65.704C153.891 65.7893 153.656 65.9227 153.453 66.104C153.261 66.2747 153.096 66.488 152.957 66.744C152.819 66.9893 152.717 67.272 152.653 67.592C152.589 67.9013 152.557 68.248 152.557 68.632C152.557 69.016 152.589 69.368 152.653 69.688C152.728 70.008 152.829 70.296 152.957 70.552C153.096 70.7973 153.261 71.0053 153.453 71.176C153.656 71.3467 153.891 71.48 154.157 71.576C154.424 71.672 154.723 71.72 155.053 71.72ZM159.828 71.672C160.052 71.6613 160.254 71.624 160.436 71.56C160.617 71.4853 160.766 71.3733 160.884 71.224C161.065 71.0107 161.198 70.7013 161.284 70.296C161.369 69.88 161.428 69.336 161.46 68.664C161.492 67.9813 161.518 67.1387 161.54 66.136V64.28H168.068V73H166.308V65.72H163.22L163.204 66.344C163.193 67.4747 163.15 68.424 163.076 69.192C163.001 69.96 162.889 70.584 162.74 71.064C162.601 71.544 162.409 71.928 162.164 72.216C161.897 72.5467 161.582 72.776 161.22 72.904C160.857 73.0213 160.42 73.0853 159.908 73.096L159.828 71.672ZM170.326 73V64.28H172.102V67.704H176.422V64.28H178.182V73H176.422V69.144H172.102V73H170.326ZM180.436 73V64.28H182.164V70.616L186.388 64.28H188.116V73H186.388V66.664L182.164 73H180.436ZM192.103 73V65.72H189.175V64.28H196.807V65.72H193.879V73H192.103ZM201.731 73.16C201.176 73.16 200.664 73.0907 200.195 72.952C199.736 72.8027 199.331 72.6 198.979 72.344C198.627 72.0773 198.328 71.7573 198.083 71.384C197.837 71.0107 197.651 70.5947 197.523 70.136C197.395 69.6667 197.331 69.1653 197.331 68.632C197.331 68.0987 197.389 67.6027 197.507 67.144C197.635 66.6853 197.821 66.2747 198.067 65.912C198.312 65.5387 198.605 65.2187 198.947 64.952C199.299 64.6853 199.704 64.4827 200.163 64.344C200.621 64.1947 201.128 64.12 201.683 64.12C202.312 64.12 202.883 64.2213 203.395 64.424C203.907 64.6267 204.344 64.92 204.707 65.304C205.08 65.6773 205.363 66.1253 205.555 66.648C205.757 67.16 205.859 67.736 205.859 68.376C205.859 68.504 205.853 68.632 205.843 68.76C205.832 68.8773 205.811 68.9947 205.779 69.112H199.075C199.085 69.304 199.112 69.4907 199.155 69.672C199.219 70.0027 199.32 70.296 199.459 70.552C199.608 70.7973 199.789 71.016 200.003 71.208C200.216 71.3893 200.467 71.528 200.755 71.624C201.043 71.72 201.368 71.768 201.731 71.768C202.179 71.768 202.563 71.704 202.883 71.576C203.213 71.448 203.485 71.2667 203.699 71.032C203.912 70.7867 204.067 70.4933 204.163 70.152L205.795 70.44C205.645 71.0053 205.4 71.496 205.059 71.912C204.717 72.3173 204.269 72.6267 203.715 72.84C203.16 73.0533 202.499 73.16 201.731 73.16ZM199.107 67.832H204.179C204.157 67.5653 204.104 67.32 204.019 67.096C203.912 66.7653 203.747 66.4827 203.523 66.248C203.309 66.0133 203.048 65.832 202.739 65.704C202.44 65.576 202.093 65.512 201.699 65.512C201.347 65.512 201.027 65.56 200.739 65.656C200.461 65.7413 200.216 65.8747 200.003 66.056C199.8 66.2373 199.624 66.456 199.475 66.712C199.325 66.968 199.219 67.256 199.155 67.576C199.133 67.6613 199.117 67.7467 199.107 67.832ZM206.206 71.672C206.43 71.6613 206.632 71.624 206.814 71.56C206.995 71.4853 207.144 71.3733 207.262 71.224C207.443 71.0107 207.576 70.7013 207.662 70.296C207.747 69.88 207.806 69.336 207.838 68.664C207.87 67.9813 207.896 67.1387 207.918 66.136V64.28H214.446V73H212.686V65.72H209.598L209.582 66.344C209.571 67.4747 209.528 68.424 209.454 69.192C209.379 69.96 209.267 70.584 209.118 71.064C208.979 71.544 208.787 71.928 208.542 72.216C208.275 72.5467 207.96 72.776 207.598 72.904C207.235 73.0213 206.798 73.0853 206.286 73.096L206.206 71.672ZM216.704 73V64.28H218.48V67.08H220.896C221.547 67.08 222.102 67.2027 222.56 67.448C223.019 67.6933 223.371 68.04 223.616 68.488C223.872 68.9253 224 69.448 224 70.056C224 70.504 223.926 70.9093 223.776 71.272C223.638 71.6347 223.435 71.944 223.168 72.2C222.902 72.456 222.576 72.6533 222.192 72.792C221.808 72.9307 221.376 73 220.896 73H216.704ZM218.48 68.408V71.672H220.544C220.907 71.672 221.216 71.6133 221.472 71.496C221.739 71.368 221.942 71.1867 222.08 70.952C222.219 70.7067 222.288 70.408 222.288 70.056C222.288 69.6933 222.219 69.3947 222.08 69.16C221.942 68.9147 221.739 68.728 221.472 68.6C221.216 68.472 220.907 68.408 220.544 68.408H218.48ZM225.346 73V64.28H227.122V67.704H231.442V64.28H233.202V73H231.442V69.144H227.122V73H225.346ZM235.456 73V64.28H237.184V70.616L241.408 64.28H243.136V73H241.408V66.664L237.184 73H235.456ZM245.378 73V64.28H247.154V71.56H251.314V64.28H253.09V71.56H254.21V75.464H252.578V73H245.378ZM259.25 73.16C258.695 73.16 258.183 73.0907 257.714 72.952C257.255 72.8027 256.85 72.6 256.498 72.344C256.146 72.0773 255.847 71.7573 255.602 71.384C255.357 71.0107 255.17 70.5947 255.042 70.136C254.914 69.6667 254.85 69.1653 254.85 68.632C254.85 68.0987 254.909 67.6027 255.026 67.144C255.154 66.6853 255.341 66.2747 255.586 65.912C255.831 65.5387 256.125 65.2187 256.466 64.952C256.818 64.6853 257.223 64.4827 257.682 64.344C258.141 64.1947 258.647 64.12 259.202 64.12C259.831 64.12 260.402 64.2213 260.914 64.424C261.426 64.6267 261.863 64.92 262.226 65.304C262.599 65.6773 262.882 66.1253 263.074 66.648C263.277 67.16 263.378 67.736 263.378 68.376C263.378 68.504 263.373 68.632 263.362 68.76C263.351 68.8773 263.33 68.9947 263.298 69.112H256.594C256.605 69.304 256.631 69.4907 256.674 69.672C256.738 70.0027 256.839 70.296 256.978 70.552C257.127 70.7973 257.309 71.016 257.522 71.208C257.735 71.3893 257.986 71.528 258.274 71.624C258.562 71.72 258.887 71.768 259.25 71.768C259.698 71.768 260.082 71.704 260.402 71.576C260.733 71.448 261.005 71.2667 261.218 71.032C261.431 70.7867 261.586 70.4933 261.682 70.152L263.314 70.44C263.165 71.0053 262.919 71.496 262.578 71.912C262.237 72.3173 261.789 72.6267 261.234 72.84C260.679 73.0533 260.018 73.16 259.25 73.16ZM256.626 67.832H261.698C261.677 67.5653 261.623 67.32 261.538 67.096C261.431 66.7653 261.266 66.4827 261.042 66.248C260.829 66.0133 260.567 65.832 260.258 65.704C259.959 65.576 259.613 65.512 259.218 65.512C258.866 65.512 258.546 65.56 258.258 65.656C257.981 65.7413 257.735 65.8747 257.522 66.056C257.319 66.2373 257.143 66.456 256.994 66.712C256.845 66.968 256.738 67.256 256.674 67.576C256.653 67.6613 256.637 67.7467 256.626 67.832ZM264.973 73V64.28H266.701V70.616L270.925 64.28H272.653V73H270.925V66.664L266.701 73H264.973ZM270.269 60.888H271.677C271.677 61.2613 271.608 61.6027 271.469 61.912C271.341 62.2107 271.149 62.4667 270.893 62.68C270.648 62.8933 270.354 63.0587 270.013 63.176C269.672 63.2933 269.288 63.352 268.861 63.352C268.456 63.352 268.077 63.2933 267.725 63.176C267.373 63.0587 267.074 62.8933 266.829 62.68C266.584 62.4667 266.392 62.2107 266.253 61.912C266.114 61.6027 266.045 61.2613 266.045 60.888H267.453C267.453 61.3147 267.581 61.6507 267.837 61.896C268.093 62.1413 268.434 62.264 268.861 62.264C269.149 62.264 269.4 62.2107 269.613 62.104C269.826 61.9867 269.986 61.8267 270.093 61.624C270.21 61.4213 270.269 61.176 270.269 60.888ZM276.8 69.848H275.216L275.104 61.8H276.928L276.8 69.848ZM275.088 73V71.112H276.944V73H275.088Z" fill="black"/>
<path d="M14.328 29V6.6H29.656V9.704H18.104V16.872H28.216V19.976H18.104V29H14.328ZM39.5567 29.32C38.4687 29.32 37.4767 29.1813 36.5807 28.904C35.6847 28.6267 34.8847 28.232 34.1807 27.72C33.4767 27.1867 32.8794 26.5573 32.3887 25.832C31.9194 25.0853 31.5567 24.2533 31.3007 23.336C31.0661 22.3973 30.9487 21.3733 30.9487 20.264C30.9487 19.1973 31.0661 18.1947 31.3007 17.256C31.5567 16.3173 31.9194 15.4747 32.3887 14.728C32.8794 13.9813 33.4767 13.352 34.1807 12.84C34.8847 12.3067 35.6847 11.912 36.5807 11.656C37.4767 11.3787 38.4687 11.24 39.5567 11.24C40.6661 11.24 41.6687 11.3787 42.5647 11.656C43.4821 11.912 44.2821 12.3067 44.9648 12.84C45.6688 13.352 46.2661 13.9813 46.7568 14.728C47.2474 15.4747 47.6101 16.3173 47.8447 17.256C48.1007 18.1947 48.2288 19.1973 48.2288 20.264C48.2288 21.3733 48.1007 22.3973 47.8447 23.336C47.6101 24.2533 47.2474 25.0853 46.7568 25.832C46.2661 26.5573 45.6688 27.1867 44.9648 27.72C44.2821 28.232 43.4821 28.6267 42.5647 28.904C41.6687 29.1813 40.6661 29.32 39.5567 29.32ZM39.5567 26.44C40.2607 26.44 40.8687 26.344 41.3807 26.152C41.9141 25.96 42.3834 25.6933 42.7887 25.352C43.1941 25.0107 43.5248 24.5947 43.7808 24.104C44.0581 23.592 44.2607 23.016 44.3888 22.376C44.5168 21.736 44.5808 21.032 44.5808 20.264C44.5808 19.496 44.5168 18.792 44.3888 18.152C44.2607 17.512 44.0581 16.9467 43.7808 16.456C43.5248 15.9653 43.1941 15.5493 42.7887 15.208C42.3834 14.8453 41.9141 14.5787 41.3807 14.408C40.8687 14.216 40.2607 14.12 39.5567 14.12C38.8954 14.12 38.2981 14.216 37.7647 14.408C37.2314 14.5787 36.7621 14.8453 36.3567 15.208C35.9727 15.5493 35.6421 15.976 35.3647 16.488C35.0874 16.9787 34.8847 17.544 34.7567 18.184C34.6287 18.8027 34.5647 19.496 34.5647 20.264C34.5647 21.032 34.6287 21.736 34.7567 22.376C34.9061 23.016 35.1087 23.592 35.3647 24.104C35.6421 24.5947 35.9727 25.0107 36.3567 25.352C36.7621 25.6933 37.2314 25.96 37.7647 26.152C38.2981 26.344 38.8954 26.44 39.5567 26.44ZM51.6012 29V11.56H54.7052L55.0252 15.4C55.3666 14.7813 55.7612 14.216 56.2092 13.704C56.8919 12.9147 57.6492 12.3067 58.4812 11.88C59.3346 11.4533 60.2306 11.24 61.1692 11.24C61.2546 11.24 61.3399 11.24 61.4252 11.24C61.5106 11.24 61.5639 11.2507 61.5852 11.272L61.4892 15.144C61.3612 15.1013 61.2012 15.08 61.0092 15.08C60.8386 15.0587 60.6572 15.048 60.4652 15.048C59.8252 15.048 59.2279 15.1333 58.6732 15.304C58.1399 15.4747 57.6492 15.7307 57.2012 16.072C56.7746 16.4133 56.4012 16.84 56.0812 17.352C55.7826 17.8427 55.5479 18.408 55.3772 19.048C55.2279 19.688 55.1532 20.392 55.1532 21.16V29H51.6012ZM64.7373 23.848V14.344H61.9212V11.56H63.5213C63.9479 11.56 64.2892 11.528 64.5452 11.464C64.8012 11.3787 64.9932 11.1973 65.1212 10.92C65.2493 10.6427 65.3453 10.216 65.4093 9.64C65.4732 9.04267 65.5159 8.21067 65.5373 7.144H68.3212V11.56H73.0573V14.344H68.3212V23.208C68.3212 23.9547 68.4066 24.5733 68.5773 25.064C68.7479 25.5333 69.0466 25.8853 69.4733 26.12C69.8999 26.3333 70.4973 26.44 71.2653 26.44C71.4786 26.44 71.7026 26.4293 71.9373 26.408C72.1719 26.3867 72.4066 26.3653 72.6413 26.344C72.8759 26.3013 73.0999 26.2587 73.3133 26.216L73.2173 29C72.8973 29.064 72.5666 29.1173 72.2253 29.16C71.9053 29.2027 71.5746 29.2347 71.2333 29.256C70.9133 29.2987 70.5719 29.32 70.2093 29.32C69.3133 29.32 68.5239 29.2133 67.8412 29C67.1586 28.7867 66.5826 28.456 66.1133 28.008C65.6439 27.56 65.2919 26.9947 65.0573 26.312C64.8439 25.6293 64.7373 24.808 64.7373 23.848ZM75.7288 29V11.56H78.8328L79.1208 14.76C79.5474 14.0133 80.0701 13.384 80.6888 12.872C81.3074 12.3387 82.0008 11.9333 82.7688 11.656C83.5581 11.3787 84.4008 11.24 85.2968 11.24C86.5554 11.24 87.6434 11.5067 88.5608 12.04C89.4994 12.5733 90.2141 13.32 90.7048 14.28C91.2168 15.2187 91.4728 16.3387 91.4728 17.64V29H87.9208V18.408C87.9208 17.5973 87.7714 16.8933 87.4728 16.296C87.1741 15.6773 86.7368 15.1973 86.1608 14.856C85.6061 14.4933 84.9128 14.312 84.0808 14.312C83.3768 14.312 82.7368 14.44 82.1608 14.696C81.5848 14.9307 81.0728 15.2827 80.6248 15.752C80.1981 16.2 79.8674 16.744 79.6328 17.384C79.3981 18.0027 79.2808 18.7067 79.2808 19.496V29H75.7288ZM95.73 29V11.56H99.282V29H95.73ZM95.634 9.064V5.48H99.378V9.064H95.634ZM104.21 23.848V14.344H101.394V11.56H102.994C103.42 11.56 103.762 11.528 104.018 11.464C104.274 11.3787 104.466 11.1973 104.594 10.92C104.722 10.6427 104.818 10.216 104.882 9.64C104.946 9.04267 104.988 8.21067 105.01 7.144H107.794V11.56H112.53V14.344H107.794V23.208C107.794 23.9547 107.879 24.5733 108.05 25.064C108.22 25.5333 108.519 25.8853 108.946 26.12C109.372 26.3333 109.97 26.44 110.738 26.44C110.951 26.44 111.175 26.4293 111.41 26.408C111.644 26.3867 111.879 26.3653 112.114 26.344C112.348 26.3013 112.572 26.2587 112.786 26.216L112.69 29C112.37 29.064 112.039 29.1173 111.698 29.16C111.378 29.2027 111.047 29.2347 110.706 29.256C110.386 29.2987 110.044 29.32 109.682 29.32C108.786 29.32 107.996 29.2133 107.314 29C106.631 28.7867 106.055 28.456 105.586 28.008C105.116 27.56 104.764 26.9947 104.53 26.312C104.316 25.6293 104.21 24.808 104.21 23.848ZM122.881 29.32C121.772 29.32 120.748 29.1813 119.809 28.904C118.892 28.6053 118.081 28.2 117.377 27.688C116.673 27.1547 116.076 26.5147 115.585 25.768C115.095 25.0213 114.721 24.1893 114.465 23.272C114.209 22.3333 114.081 21.3307 114.081 20.264C114.081 19.1973 114.199 18.2053 114.433 17.288C114.689 16.3707 115.063 15.5493 115.553 14.824C116.044 14.0773 116.631 13.4373 117.313 12.904C118.017 12.3707 118.828 11.9653 119.745 11.688C120.663 11.3893 121.676 11.24 122.785 11.24C124.044 11.24 125.185 11.4427 126.209 11.848C127.233 12.2533 128.108 12.84 128.833 13.608C129.58 14.3547 130.145 15.2507 130.529 16.296C130.935 17.32 131.137 18.472 131.137 19.752C131.137 20.008 131.127 20.264 131.105 20.52C131.084 20.7547 131.041 20.9893 130.977 21.224H117.569C117.591 21.608 117.644 21.9813 117.729 22.344C117.857 23.0053 118.06 23.592 118.337 24.104C118.636 24.5947 118.999 25.032 119.425 25.416C119.852 25.7787 120.353 26.056 120.929 26.248C121.505 26.44 122.156 26.536 122.881 26.536C123.777 26.536 124.545 26.408 125.185 26.152C125.847 25.896 126.391 25.5333 126.817 25.064C127.244 24.5733 127.553 23.9867 127.745 23.304L131.009 23.88C130.711 25.0107 130.22 25.992 129.537 26.824C128.855 27.6347 127.959 28.2533 126.849 28.68C125.74 29.1067 124.417 29.32 122.881 29.32ZM117.633 18.664H127.777C127.735 18.1307 127.628 17.64 127.457 17.192C127.244 16.5307 126.913 15.9653 126.465 15.496C126.039 15.0267 125.516 14.664 124.897 14.408C124.3 14.152 123.607 14.024 122.817 14.024C122.113 14.024 121.473 14.12 120.897 14.312C120.343 14.4827 119.852 14.7493 119.425 15.112C119.02 15.4747 118.668 15.912 118.369 16.424C118.071 16.936 117.857 17.512 117.729 18.152C117.687 18.3227 117.655 18.4933 117.633 18.664ZM134.232 29V25.224H137.976V29H134.232ZM134.232 15.336V11.56H137.976V15.336H134.232ZM148.392 29V11.56H157.096C158.27 11.56 159.272 11.7307 160.104 12.072C160.958 12.4133 161.608 12.9147 162.056 13.576C162.526 14.2373 162.76 15.0587 162.76 16.04C162.76 16.6373 162.664 17.1707 162.472 17.64C162.302 18.1093 162.046 18.5147 161.704 18.856C161.384 19.1973 160.979 19.4853 160.488 19.72C160.318 19.8053 160.147 19.88 159.976 19.944C160.403 20.072 160.808 20.2427 161.192 20.456C161.896 20.8613 162.44 21.3947 162.824 22.056C163.23 22.7173 163.432 23.4853 163.432 24.36C163.432 25.3627 163.198 26.216 162.728 26.92C162.259 27.6027 161.587 28.1253 160.712 28.488C159.838 28.8293 158.792 29 157.576 29H148.392ZM151.848 21.288V26.408H156.936C157.576 26.408 158.12 26.312 158.568 26.12C159.016 25.928 159.358 25.6613 159.592 25.32C159.848 24.9573 159.976 24.4987 159.976 23.944C159.976 23.368 159.838 22.888 159.56 22.504C159.304 22.0987 158.942 21.8 158.472 21.608C158.003 21.3947 157.47 21.288 156.872 21.288H151.848ZM151.848 14.152V18.792H156.616C157.15 18.792 157.619 18.7067 158.024 18.536C158.451 18.344 158.782 18.0667 159.016 17.704C159.251 17.3413 159.368 16.8933 159.368 16.36C159.368 15.6347 159.112 15.0907 158.6 14.728C158.11 14.344 157.438 14.152 156.584 14.152H151.848ZM169.654 11.56L169.91 14.792C170.123 14.4507 170.347 14.1413 170.582 13.864C171.222 13.032 172.001 12.392 172.918 11.944C173.857 11.4747 174.902 11.24 176.054 11.24C176.993 11.24 177.857 11.3893 178.646 11.688C179.457 11.9653 180.171 12.3707 180.79 12.904C181.43 13.4373 181.963 14.0773 182.39 14.824C182.838 15.5707 183.179 16.4027 183.414 17.32C183.649 18.2373 183.766 19.2187 183.766 20.264C183.766 21.3307 183.649 22.3227 183.414 23.24C183.179 24.1573 182.838 24.9893 182.39 25.736C181.963 26.4827 181.43 27.1227 180.79 27.656C180.171 28.1893 179.457 28.6053 178.646 28.904C177.857 29.1813 176.993 29.32 176.054 29.32C174.902 29.32 173.857 29.096 172.918 28.648C172.001 28.1787 171.222 27.5387 170.582 26.728C170.411 26.5147 170.251 26.2907 170.102 26.056V35.4H166.55V11.56H169.654ZM175.126 26.376C175.766 26.376 176.353 26.28 176.886 26.088C177.419 25.896 177.889 25.6187 178.294 25.256C178.699 24.8933 179.03 24.456 179.286 23.944C179.563 23.432 179.766 22.8773 179.894 22.28C180.043 21.6613 180.118 21 180.118 20.296C180.118 19.5707 180.043 18.8987 179.894 18.28C179.766 17.6613 179.563 17.1067 179.286 16.616C179.03 16.104 178.699 15.6667 178.294 15.304C177.889 14.9413 177.419 14.664 176.886 14.472C176.353 14.28 175.766 14.184 175.126 14.184C174.081 14.184 173.185 14.4507 172.438 14.984C171.691 15.496 171.115 16.2107 170.71 17.128C170.305 18.0453 170.102 19.1013 170.102 20.296C170.102 21.1707 170.209 21.9813 170.422 22.728C170.657 23.4747 170.987 24.1253 171.414 24.68C171.862 25.2133 172.395 25.6293 173.014 25.928C173.633 26.2267 174.337 26.376 175.126 26.376ZM194.794 29.32C193.684 29.32 192.66 29.1813 191.722 28.904C190.804 28.6053 189.994 28.2 189.29 27.688C188.586 27.1547 187.988 26.5147 187.498 25.768C187.007 25.0213 186.634 24.1893 186.378 23.272C186.122 22.3333 185.994 21.3307 185.994 20.264C185.994 19.1973 186.111 18.2053 186.346 17.288C186.602 16.3707 186.975 15.5493 187.466 14.824C187.956 14.0773 188.543 13.4373 189.226 12.904C189.93 12.3707 190.74 11.9653 191.658 11.688C192.575 11.3893 193.588 11.24 194.698 11.24C195.956 11.24 197.098 11.4427 198.122 11.848C199.146 12.2533 200.02 12.84 200.746 13.608C201.492 14.3547 202.058 15.2507 202.442 16.296C202.847 17.32 203.05 18.472 203.05 19.752C203.05 20.008 203.039 20.264 203.018 20.52C202.996 20.7547 202.954 20.9893 202.89 21.224H189.482C189.503 21.608 189.556 21.9813 189.642 22.344C189.77 23.0053 189.972 23.592 190.25 24.104C190.548 24.5947 190.911 25.032 191.338 25.416C191.764 25.7787 192.266 26.056 192.842 26.248C193.418 26.44 194.068 26.536 194.794 26.536C195.69 26.536 196.458 26.408 197.098 26.152C197.759 25.896 198.303 25.5333 198.73 25.064C199.156 24.5733 199.466 23.9867 199.658 23.304L202.922 23.88C202.623 25.0107 202.132 25.992 201.45 26.824C200.767 27.6347 199.871 28.2533 198.762 28.68C197.652 29.1067 196.33 29.32 194.794 29.32ZM189.546 18.664H199.69C199.647 18.1307 199.54 17.64 199.37 17.192C199.156 16.5307 198.826 15.9653 198.378 15.496C197.951 15.0267 197.428 14.664 196.81 14.408C196.212 14.152 195.519 14.024 194.73 14.024C194.026 14.024 193.386 14.12 192.81 14.312C192.255 14.4827 191.764 14.7493 191.338 15.112C190.932 15.4747 190.58 15.912 190.282 16.424C189.983 16.936 189.77 17.512 189.642 18.152C189.599 18.3227 189.567 18.4933 189.546 18.664ZM223.2 29V15.848L217.952 25.864H214.752L209.408 15.88V29H206.24V11.56H210.304L216.352 22.856L222.304 11.56H226.368V29H223.2ZM238.546 29.32C237.437 29.32 236.413 29.1813 235.474 28.904C234.557 28.6053 233.746 28.2 233.042 27.688C232.338 27.1547 231.741 26.5147 231.25 25.768C230.76 25.0213 230.386 24.1893 230.13 23.272C229.874 22.3333 229.746 21.3307 229.746 20.264C229.746 19.1973 229.864 18.2053 230.098 17.288C230.354 16.3707 230.728 15.5493 231.218 14.824C231.709 14.0773 232.296 13.4373 232.978 12.904C233.682 12.3707 234.493 11.9653 235.41 11.688C236.328 11.3893 237.341 11.24 238.45 11.24C239.709 11.24 240.85 11.4427 241.874 11.848C242.898 12.2533 243.773 12.84 244.498 13.608C245.245 14.3547 245.81 15.2507 246.194 16.296C246.6 17.32 246.802 18.472 246.802 19.752C246.802 20.008 246.792 20.264 246.77 20.52C246.749 20.7547 246.706 20.9893 246.642 21.224H233.234C233.256 21.608 233.309 21.9813 233.394 22.344C233.522 23.0053 233.725 23.592 234.002 24.104C234.301 24.5947 234.664 25.032 235.09 25.416C235.517 25.7787 236.018 26.056 236.594 26.248C237.17 26.44 237.821 26.536 238.546 26.536C239.442 26.536 240.21 26.408 240.85 26.152C241.512 25.896 242.056 25.5333 242.482 25.064C242.909 24.5733 243.218 23.9867 243.41 23.304L246.674 23.88C246.376 25.0107 245.885 25.992 245.202 26.824C244.52 27.6347 243.624 28.2533 242.514 28.68C241.405 29.1067 240.082 29.32 238.546 29.32ZM233.298 18.664H243.442C243.4 18.1307 243.293 17.64 243.122 17.192C242.909 16.5307 242.578 15.9653 242.13 15.496C241.704 15.0267 241.181 14.664 240.562 14.408C239.965 14.152 239.272 14.024 238.482 14.024C237.778 14.024 237.138 14.12 236.562 14.312C236.008 14.4827 235.517 14.7493 235.09 15.112C234.685 15.4747 234.333 15.912 234.034 16.424C233.736 16.936 233.522 17.512 233.394 18.152C233.352 18.3227 233.32 18.4933 233.298 18.664ZM249.993 29V11.56H253.545V18.408H262.185V11.56H265.705V29H262.185V21.288H253.545V29H249.993ZM268.996 16.872C269.146 15.9333 269.434 15.112 269.86 14.408C270.287 13.704 270.82 13.1173 271.46 12.648C272.1 12.1787 272.847 11.8267 273.7 11.592C274.575 11.3573 275.535 11.24 276.58 11.24C277.711 11.24 278.714 11.368 279.588 11.624C280.484 11.88 281.231 12.2853 281.828 12.84C282.447 13.3733 282.916 14.056 283.236 14.888C283.556 15.6987 283.716 16.68 283.716 17.832V25.256C283.716 25.576 283.759 25.8427 283.844 26.056C283.951 26.248 284.09 26.3867 284.26 26.472C284.452 26.5573 284.676 26.6 284.932 26.6C285.018 26.6 285.114 26.6 285.22 26.6C285.327 26.5787 285.402 26.568 285.444 26.568L285.348 29C285.156 29.0853 284.911 29.1493 284.612 29.192C284.335 29.2347 284.1 29.256 283.908 29.256C283.14 29.256 282.5 29.1387 281.988 28.904C281.498 28.648 281.135 28.2747 280.9 27.784C280.666 27.3147 280.538 26.7387 280.516 26.056C280.41 26.2267 280.292 26.3973 280.164 26.568C279.716 27.144 279.194 27.6453 278.596 28.072C277.999 28.4773 277.338 28.7867 276.612 29C275.908 29.2133 275.14 29.32 274.308 29.32C273.092 29.32 272.036 29.1173 271.14 28.712C270.266 28.3067 269.583 27.72 269.092 26.952C268.623 26.184 268.388 25.2773 268.388 24.232C268.388 23.1867 268.623 22.2907 269.092 21.544C269.562 20.776 270.276 20.1787 271.236 19.752C272.196 19.304 273.412 19.0053 274.884 18.856L280.484 18.312V18.024C280.484 17.2987 280.388 16.68 280.196 16.168C280.026 15.656 279.77 15.24 279.428 14.92C279.087 14.5787 278.671 14.3333 278.18 14.184C277.69 14.0347 277.124 13.96 276.484 13.96C275.695 13.96 274.991 14.088 274.372 14.344C273.754 14.5787 273.263 14.952 272.9 15.464C272.559 15.9547 272.346 16.5733 272.26 17.32L268.996 16.872ZM280.516 20.744L275.236 21.288C274.447 21.3733 273.796 21.5333 273.284 21.768C272.772 22.0027 272.378 22.312 272.1 22.696C271.844 23.0587 271.716 23.496 271.716 24.008C271.716 24.5413 271.834 25 272.068 25.384C272.303 25.768 272.655 26.0667 273.124 26.28C273.615 26.472 274.202 26.568 274.884 26.568C275.524 26.568 276.122 26.4827 276.676 26.312C277.252 26.1413 277.775 25.9067 278.244 25.608C278.714 25.3093 279.119 24.9573 279.46 24.552C279.802 24.1467 280.058 23.688 280.228 23.176C280.42 22.664 280.516 22.1307 280.516 21.576V20.744ZM309.326 17.512L305.902 18.088C305.774 17.2347 305.507 16.52 305.102 15.944C304.718 15.3467 304.216 14.8987 303.598 14.6C302.979 14.28 302.254 14.12 301.422 14.12C300.76 14.12 300.163 14.216 299.63 14.408C299.096 14.6 298.627 14.8667 298.222 15.208C297.838 15.5493 297.507 15.976 297.23 16.488C296.974 16.9787 296.771 17.544 296.622 18.184C296.494 18.824 296.43 19.528 296.43 20.296C296.43 21.0427 296.494 21.736 296.622 22.376C296.771 22.9947 296.974 23.56 297.23 24.072C297.507 24.584 297.848 25.0107 298.254 25.352C298.659 25.6933 299.118 25.96 299.63 26.152C300.163 26.344 300.76 26.44 301.422 26.44C302.254 26.44 302.979 26.2907 303.598 25.992C304.216 25.6933 304.728 25.256 305.134 24.68C305.56 24.0827 305.859 23.3253 306.03 22.408L309.39 22.984C309.112 24.3493 308.611 25.5013 307.886 26.44C307.182 27.3787 306.275 28.0933 305.166 28.584C304.078 29.0747 302.83 29.32 301.422 29.32C300.334 29.32 299.342 29.1813 298.446 28.904C297.55 28.6267 296.75 28.232 296.046 27.72C295.342 27.1867 294.744 26.5573 294.254 25.832C293.784 25.0853 293.422 24.2533 293.166 23.336C292.931 22.4187 292.814 21.4053 292.814 20.296C292.814 19.208 292.931 18.1947 293.166 17.256C293.422 16.3173 293.784 15.4747 294.254 14.728C294.744 13.9813 295.342 13.352 296.046 12.84C296.75 12.3067 297.55 11.912 298.446 11.656C299.342 11.3787 300.334 11.24 301.422 11.24C302.894 11.24 304.174 11.4853 305.262 11.976C306.35 12.4453 307.235 13.1493 307.918 14.088C308.6 15.0267 309.07 16.168 309.326 17.512ZM312.154 29V11.56H315.706V19.688L323.546 11.56H327.77L319.546 19.72L327.962 29H323.61L315.706 20.328V29H312.154ZM329.53 29V11.56H332.986V24.232L341.434 11.56H344.89V29H341.434V16.328L332.986 29H329.53ZM349.375 29V11.56H352.927V18.408H361.567V11.56H365.087V29H361.567V21.288H352.927V29H349.375ZM377.083 29.32C375.995 29.32 375.003 29.1813 374.107 28.904C373.211 28.6267 372.411 28.232 371.707 27.72C371.003 27.1867 370.406 26.5573 369.915 25.832C369.446 25.0853 369.083 24.2533 368.827 23.336C368.592 22.3973 368.475 21.3733 368.475 20.264C368.475 19.1973 368.592 18.1947 368.827 17.256C369.083 16.3173 369.446 15.4747 369.915 14.728C370.406 13.9813 371.003 13.352 371.707 12.84C372.411 12.3067 373.211 11.912 374.107 11.656C375.003 11.3787 375.995 11.24 377.083 11.24C378.192 11.24 379.195 11.3787 380.091 11.656C381.008 11.912 381.808 12.3067 382.491 12.84C383.195 13.352 383.792 13.9813 384.283 14.728C384.774 15.4747 385.136 16.3173 385.371 17.256C385.627 18.1947 385.755 19.1973 385.755 20.264C385.755 21.3733 385.627 22.3973 385.371 23.336C385.136 24.2533 384.774 25.0853 384.283 25.832C383.792 26.5573 383.195 27.1867 382.491 27.72C381.808 28.232 381.008 28.6267 380.091 28.904C379.195 29.1813 378.192 29.32 377.083 29.32ZM377.083 26.44C377.787 26.44 378.395 26.344 378.907 26.152C379.44 25.96 379.91 25.6933 380.315 25.352C380.72 25.0107 381.051 24.5947 381.307 24.104C381.584 23.592 381.787 23.016 381.915 22.376C382.043 21.736 382.107 21.032 382.107 20.264C382.107 19.496 382.043 18.792 381.915 18.152C381.787 17.512 381.584 16.9467 381.307 16.456C381.051 15.9653 380.72 15.5493 380.315 15.208C379.91 14.8453 379.44 14.5787 378.907 14.408C378.395 14.216 377.787 14.12 377.083 14.12C376.422 14.12 375.824 14.216 375.291 14.408C374.758 14.5787 374.288 14.8453 373.883 15.208C373.499 15.5493 373.168 15.976 372.891 16.488C372.614 16.9787 372.411 17.544 372.283 18.184C372.155 18.8027 372.091 19.496 372.091 20.264C372.091 21.032 372.155 21.736 372.283 22.376C372.432 23.016 372.635 23.592 372.891 24.104C373.168 24.5947 373.499 25.0107 373.883 25.352C374.288 25.6933 374.758 25.96 375.291 26.152C375.824 26.344 376.422 26.44 377.083 26.44ZM389.127 29V11.56H397.831C399.005 11.56 400.007 11.7307 400.839 12.072C401.693 12.4133 402.343 12.9147 402.791 13.576C403.261 14.2373 403.495 15.0587 403.495 16.04C403.495 16.6373 403.399 17.1707 403.207 17.64C403.037 18.1093 402.781 18.5147 402.439 18.856C402.119 19.1973 401.714 19.4853 401.223 19.72C401.053 19.8053 400.882 19.88 400.711 19.944C401.138 20.072 401.543 20.2427 401.927 20.456C402.631 20.8613 403.175 21.3947 403.559 22.056C403.965 22.7173 404.167 23.4853 404.167 24.36C404.167 25.3627 403.933 26.216 403.463 26.92C402.994 27.6027 402.322 28.1253 401.447 28.488C400.573 28.8293 399.527 29 398.311 29H389.127ZM392.583 21.288V26.408H397.671C398.311 26.408 398.855 26.312 399.303 26.12C399.751 25.928 400.093 25.6613 400.327 25.32C400.583 24.9573 400.711 24.4987 400.711 23.944C400.711 23.368 400.573 22.888 400.295 22.504C400.039 22.0987 399.677 21.8 399.207 21.608C398.738 21.3947 398.205 21.288 397.607 21.288H392.583ZM392.583 14.152V18.792H397.351C397.885 18.792 398.354 18.7067 398.759 18.536C399.186 18.344 399.517 18.0667 399.751 17.704C399.986 17.3413 400.103 16.8933 400.103 16.36C400.103 15.6347 399.847 15.0907 399.335 14.728C398.845 14.344 398.173 14.152 397.319 14.152H392.583Z" fill="black"/>
</svg>
