<svg width="397" height="158" viewBox="0 0 397 158" fill="none" xmlns="http://www.w3.org/2000/svg">
<mask id="path-1-outside-1_846_36" maskUnits="userSpaceOnUse" x="0" y="0" width="397" height="158" fill="black">
<rect fill="white" width="397" height="158"/>
<path d="M36.5593 117.437V107.738L49.2503 87.6214C52.0207 83.1909 54.1546 79.5388 55.652 76.665C57.2244 73.7913 58.3101 71.157 58.909 68.7621C59.5829 66.3673 59.9198 63.733 59.9198 60.8592C59.9198 57.0275 59.2085 54.1537 57.7859 52.2379C56.4382 50.322 54.6787 49.3641 52.5073 49.3641C50.7104 49.3641 48.8385 50.0227 46.8918 51.3398C44.9451 52.5372 42.961 54.4531 40.9394 57.0874L37.1208 48.8252C38.768 46.5502 40.4152 44.6942 42.0625 43.2573C43.7846 41.8204 45.5067 40.7427 47.2288 40.0243C49.0257 39.3058 50.8227 38.9466 52.6197 38.9466C57.3367 38.9466 61.0055 40.8026 63.6261 44.5146C66.3215 48.2265 67.6693 53.4353 67.6693 60.1408C67.6693 64.212 67.1452 67.9838 66.0969 71.4563C65.0487 74.8091 63.5512 78.1618 61.6045 81.5146C59.7327 84.8673 57.5239 88.5194 54.9782 92.4709L44.0841 109.354L43.2979 106.66H67.557V117.437H36.5593ZM51.2719 153C44.9077 153 38.9178 151.084 33.3022 147.252C27.6867 143.421 22.7451 138.152 18.4773 131.447C14.2843 124.621 10.9899 116.718 8.59394 107.738C6.19798 98.7573 5 89.178 5 79C5 68.7023 6.19798 59.123 8.59394 50.2621C10.9899 41.2816 14.2843 33.4385 18.4773 26.733C22.7451 19.9078 27.6867 14.5793 33.3022 10.7476C38.9178 6.91586 44.9077 5 51.2719 5C57.7111 5 63.701 6.91586 69.2416 10.7476C74.8571 14.5793 79.7614 19.9078 83.9543 26.733C88.2221 33.4385 91.554 41.2816 93.9499 50.2621C96.3459 59.123 97.5439 68.7023 97.5439 79C97.5439 89.178 96.3459 98.7573 93.9499 107.738C91.554 116.718 88.2221 124.621 83.9543 131.447C79.7614 138.152 74.8571 143.421 69.2416 147.252C63.701 151.084 57.7111 153 51.2719 153ZM51.2719 142.942C56.8126 142.942 61.9789 141.325 66.7708 138.092C71.6376 134.739 75.9054 130.129 79.5742 124.262C83.243 118.395 86.0882 111.629 88.1098 103.966C90.2062 96.1828 91.2545 87.8608 91.2545 79C91.2545 70.1392 90.2062 61.877 88.1098 54.2136C86.0882 46.4304 83.243 39.6052 79.5742 33.7379C75.9054 27.8706 71.6376 23.3204 66.7708 20.0874C61.9789 16.7346 56.8126 15.0583 51.2719 15.0583C45.7313 15.0583 40.5276 16.7346 35.6608 20.0874C30.8689 23.3204 26.6385 27.8706 22.9697 33.7379C19.3009 39.6052 16.4182 46.4304 14.3218 54.2136C12.3002 61.877 11.2894 70.1392 11.2894 79C11.2894 87.8608 12.3002 96.1828 14.3218 103.966C16.4182 111.629 19.3009 118.395 22.9697 124.262C26.6385 130.129 30.8689 134.739 35.6608 138.092C40.5276 141.325 45.7313 142.942 51.2719 142.942Z"/>
<path d="M149.568 118.874C143.803 118.874 139.46 115.581 136.54 108.995C133.62 102.29 132.16 92.2314 132.16 78.8204C132.16 65.6489 133.62 55.7702 136.54 49.1845C139.46 42.479 143.803 39.1262 149.568 39.1262C155.408 39.1262 159.788 42.479 162.708 49.1845C165.628 55.7702 167.088 65.6489 167.088 78.8204C167.088 92.2314 165.628 102.29 162.708 108.995C159.788 115.581 155.408 118.874 149.568 118.874ZM149.568 108.456C152.788 108.456 155.184 106.002 156.756 101.092C158.403 96.0631 159.227 88.6392 159.227 78.8204C159.227 69.0016 158.403 61.6974 156.756 56.9078C155.184 51.9984 152.788 49.5437 149.568 49.5437C146.348 49.5437 143.952 51.9984 142.38 56.9078C140.808 61.8172 140.022 69.1812 140.022 79C140.022 88.8188 140.808 96.1828 142.38 101.092C143.952 106.002 146.348 108.456 149.568 108.456ZM149.006 153C142.642 153 136.652 151.084 131.037 147.252C125.421 143.421 120.48 138.152 116.212 131.447C112.019 124.621 108.724 116.718 106.328 107.738C103.932 98.7573 102.735 89.178 102.735 79C102.735 68.7023 103.932 59.123 106.328 50.2621C108.724 41.2816 112.019 33.4385 116.212 26.733C120.48 19.9078 125.421 14.5793 131.037 10.7476C136.652 6.91586 142.642 5 149.006 5C155.446 5 161.435 6.91586 166.976 10.7476C172.592 14.5793 177.496 19.9078 181.689 26.733C185.957 33.4385 189.288 41.2816 191.684 50.2621C194.08 59.123 195.278 68.7023 195.278 79C195.278 89.178 194.08 98.7573 191.684 107.738C189.288 116.718 185.957 124.621 181.689 131.447C177.496 138.152 172.592 143.421 166.976 147.252C161.435 151.084 155.446 153 149.006 153ZM149.006 142.942C154.547 142.942 159.713 141.325 164.505 138.092C169.372 134.739 173.64 130.129 177.309 124.262C180.978 118.395 183.823 111.629 185.844 103.966C187.941 96.1828 188.989 87.8608 188.989 79C188.989 70.1392 187.941 61.877 185.844 54.2136C183.823 46.4304 180.978 39.6052 177.309 33.7379C173.64 27.8706 169.372 23.3204 164.505 20.0874C159.713 16.7346 154.547 15.0583 149.006 15.0583C143.466 15.0583 138.262 16.7346 133.395 20.0874C128.603 23.3204 124.373 27.8706 120.704 33.7379C117.035 39.6052 114.153 46.4304 112.056 54.2136C110.035 61.877 109.024 70.1392 109.024 79C109.024 87.8608 110.035 96.1828 112.056 103.966C114.153 111.629 117.035 118.395 120.704 124.262C124.373 130.129 128.603 134.739 133.395 138.092C138.262 141.325 143.466 142.942 149.006 142.942Z"/>
<path d="M232.923 117.437V107.738L245.614 87.6214C248.384 83.1909 250.518 79.5388 252.016 76.665C253.588 73.7913 254.674 71.157 255.273 68.7621C255.947 66.3673 256.283 63.733 256.283 60.8592C256.283 57.0275 255.572 54.1537 254.15 52.2379C252.802 50.322 251.042 49.3641 248.871 49.3641C247.074 49.3641 245.202 50.0227 243.255 51.3398C241.309 52.5372 239.325 54.4531 237.303 57.0874L233.484 48.8252C235.132 46.5502 236.779 44.6942 238.426 43.2573C240.148 41.8204 241.87 40.7427 243.592 40.0243C245.389 39.3058 247.186 38.9466 248.983 38.9466C253.7 38.9466 257.369 40.8026 259.99 44.5146C262.685 48.2265 264.033 53.4353 264.033 60.1408C264.033 64.212 263.509 67.9838 262.461 71.4563C261.412 74.8091 259.915 78.1618 257.968 81.5146C256.096 84.8673 253.888 88.5194 251.342 92.4709L240.448 109.354L239.662 106.66H263.921V117.437H232.923ZM247.636 153C241.271 153 235.281 151.084 229.666 147.252C224.05 143.421 219.109 138.152 214.841 131.447C210.648 124.621 207.354 116.718 204.958 107.738C202.562 98.7573 201.364 89.178 201.364 79C201.364 68.7023 202.562 59.123 204.958 50.2621C207.354 41.2816 210.648 33.4385 214.841 26.733C219.109 19.9078 224.05 14.5793 229.666 10.7476C235.281 6.91586 241.271 5 247.636 5C254.075 5 260.065 6.91586 265.605 10.7476C271.221 14.5793 276.125 19.9078 280.318 26.733C284.586 33.4385 287.918 41.2816 290.314 50.2621C292.71 59.123 293.908 68.7023 293.908 79C293.908 89.178 292.71 98.7573 290.314 107.738C287.918 116.718 284.586 124.621 280.318 131.447C276.125 138.152 271.221 143.421 265.605 147.252C260.065 151.084 254.075 153 247.636 153ZM247.636 142.942C253.176 142.942 258.343 141.325 263.134 138.092C268.001 134.739 272.269 130.129 275.938 124.262C279.607 118.395 282.452 111.629 284.473 103.966C286.57 96.1828 287.618 87.8608 287.618 79C287.618 70.1392 286.57 61.877 284.473 54.2136C282.452 46.4304 279.607 39.6052 275.938 33.7379C272.269 27.8706 268.001 23.3204 263.134 20.0874C258.343 16.7346 253.176 15.0583 247.636 15.0583C242.095 15.0583 236.891 16.7346 232.024 20.0874C227.232 23.3204 223.002 27.8706 219.333 33.7379C215.665 39.6052 212.782 46.4304 210.685 54.2136C208.664 61.877 207.653 70.1392 207.653 79C207.653 87.8608 208.664 96.1828 210.685 103.966C212.782 111.629 215.665 118.395 219.333 124.262C223.002 130.129 227.232 134.739 232.024 138.092C236.891 141.325 242.095 142.942 247.636 142.942Z"/>
<path d="M344.605 118.694C341.61 118.694 338.952 118.335 336.631 117.617C334.385 116.778 332.513 115.641 331.015 114.204V102.17C332.962 104.205 335.171 105.762 337.642 106.84C340.187 107.917 342.434 108.456 344.38 108.456C347.974 108.456 350.67 107.199 352.467 104.684C354.264 102.17 355.162 98.4579 355.162 93.5485C355.162 88.9984 354.189 85.466 352.242 82.9514C350.37 80.4369 347.675 79.1796 344.156 79.1796C342.958 79.1796 341.647 79.3592 340.225 79.7184C338.802 80.0777 337.23 80.6165 335.508 81.3349L332.138 77.7427L333.823 40.2039H360.665V50.0825H340.225L339.214 69.8398C340.562 69.4806 341.76 69.2411 342.808 69.1214C343.931 68.8819 344.867 68.7621 345.616 68.7621C349.135 68.7621 352.167 69.7799 354.713 71.8155C357.333 73.8511 359.355 76.665 360.778 80.2573C362.2 83.7298 362.912 87.801 362.912 92.4709C362.912 100.853 361.377 107.319 358.307 111.869C355.237 116.419 350.67 118.694 344.605 118.694ZM345.728 153C339.364 153 333.374 151.084 327.758 147.252C322.143 143.421 317.201 138.152 312.933 131.447C308.74 124.621 305.446 116.718 303.05 107.738C300.654 98.7573 299.456 89.178 299.456 79C299.456 68.7023 300.654 59.123 303.05 50.2621C305.446 41.2816 308.74 33.4385 312.933 26.733C317.201 19.9078 322.143 14.5793 327.758 10.7476C333.374 6.91586 339.364 5 345.728 5C352.167 5 358.157 6.91586 363.698 10.7476C369.313 14.5793 374.217 19.9078 378.41 26.733C382.678 33.4385 386.01 41.2816 388.406 50.2621C390.802 59.123 392 68.7023 392 79C392 89.178 390.802 98.7573 388.406 107.738C386.01 116.718 382.678 124.621 378.41 131.447C374.217 138.152 369.313 143.421 363.698 147.252C358.157 151.084 352.167 153 345.728 153ZM345.728 142.942C351.269 142.942 356.435 141.325 361.227 138.092C366.094 134.739 370.361 130.129 374.03 124.262C377.699 118.395 380.544 111.629 382.566 103.966C384.662 96.1828 385.711 87.8608 385.711 79C385.711 70.1392 384.662 61.877 382.566 54.2136C380.544 46.4304 377.699 39.6052 374.03 33.7379C370.361 27.8706 366.094 23.3204 361.227 20.0874C356.435 16.7346 351.269 15.0583 345.728 15.0583C340.187 15.0583 334.984 16.7346 330.117 20.0874C325.325 23.3204 321.095 27.8706 317.426 33.7379C313.757 39.6052 310.874 46.4304 308.778 54.2136C306.756 61.877 305.746 70.1392 305.746 79C305.746 87.8608 306.756 96.1828 308.778 103.966C310.874 111.629 313.757 118.395 317.426 124.262C321.095 130.129 325.325 134.739 330.117 138.092C334.984 141.325 340.187 142.942 345.728 142.942Z"/>
</mask>
<path d="M36.5593 117.437V107.738L49.2503 87.6214C52.0207 83.1909 54.1546 79.5388 55.652 76.665C57.2244 73.7913 58.3101 71.157 58.909 68.7621C59.5829 66.3673 59.9198 63.733 59.9198 60.8592C59.9198 57.0275 59.2085 54.1537 57.7859 52.2379C56.4382 50.322 54.6787 49.3641 52.5073 49.3641C50.7104 49.3641 48.8385 50.0227 46.8918 51.3398C44.9451 52.5372 42.961 54.4531 40.9394 57.0874L37.1208 48.8252C38.768 46.5502 40.4152 44.6942 42.0625 43.2573C43.7846 41.8204 45.5067 40.7427 47.2288 40.0243C49.0257 39.3058 50.8227 38.9466 52.6197 38.9466C57.3367 38.9466 61.0055 40.8026 63.6261 44.5146C66.3215 48.2265 67.6693 53.4353 67.6693 60.1408C67.6693 64.212 67.1452 67.9838 66.0969 71.4563C65.0487 74.8091 63.5512 78.1618 61.6045 81.5146C59.7327 84.8673 57.5239 88.5194 54.9782 92.4709L44.0841 109.354L43.2979 106.66H67.557V117.437H36.5593ZM51.2719 153C44.9077 153 38.9178 151.084 33.3022 147.252C27.6867 143.421 22.7451 138.152 18.4773 131.447C14.2843 124.621 10.9899 116.718 8.59394 107.738C6.19798 98.7573 5 89.178 5 79C5 68.7023 6.19798 59.123 8.59394 50.2621C10.9899 41.2816 14.2843 33.4385 18.4773 26.733C22.7451 19.9078 27.6867 14.5793 33.3022 10.7476C38.9178 6.91586 44.9077 5 51.2719 5C57.7111 5 63.701 6.91586 69.2416 10.7476C74.8571 14.5793 79.7614 19.9078 83.9543 26.733C88.2221 33.4385 91.554 41.2816 93.9499 50.2621C96.3459 59.123 97.5439 68.7023 97.5439 79C97.5439 89.178 96.3459 98.7573 93.9499 107.738C91.554 116.718 88.2221 124.621 83.9543 131.447C79.7614 138.152 74.8571 143.421 69.2416 147.252C63.701 151.084 57.7111 153 51.2719 153ZM51.2719 142.942C56.8126 142.942 61.9789 141.325 66.7708 138.092C71.6376 134.739 75.9054 130.129 79.5742 124.262C83.243 118.395 86.0882 111.629 88.1098 103.966C90.2062 96.1828 91.2545 87.8608 91.2545 79C91.2545 70.1392 90.2062 61.877 88.1098 54.2136C86.0882 46.4304 83.243 39.6052 79.5742 33.7379C75.9054 27.8706 71.6376 23.3204 66.7708 20.0874C61.9789 16.7346 56.8126 15.0583 51.2719 15.0583C45.7313 15.0583 40.5276 16.7346 35.6608 20.0874C30.8689 23.3204 26.6385 27.8706 22.9697 33.7379C19.3009 39.6052 16.4182 46.4304 14.3218 54.2136C12.3002 61.877 11.2894 70.1392 11.2894 79C11.2894 87.8608 12.3002 96.1828 14.3218 103.966C16.4182 111.629 19.3009 118.395 22.9697 124.262C26.6385 130.129 30.8689 134.739 35.6608 138.092C40.5276 141.325 45.7313 142.942 51.2719 142.942Z" fill="black"/>
<path d="M149.568 118.874C143.803 118.874 139.46 115.581 136.54 108.995C133.62 102.29 132.16 92.2314 132.16 78.8204C132.16 65.6489 133.62 55.7702 136.54 49.1845C139.46 42.479 143.803 39.1262 149.568 39.1262C155.408 39.1262 159.788 42.479 162.708 49.1845C165.628 55.7702 167.088 65.6489 167.088 78.8204C167.088 92.2314 165.628 102.29 162.708 108.995C159.788 115.581 155.408 118.874 149.568 118.874ZM149.568 108.456C152.788 108.456 155.184 106.002 156.756 101.092C158.403 96.0631 159.227 88.6392 159.227 78.8204C159.227 69.0016 158.403 61.6974 156.756 56.9078C155.184 51.9984 152.788 49.5437 149.568 49.5437C146.348 49.5437 143.952 51.9984 142.38 56.9078C140.808 61.8172 140.022 69.1812 140.022 79C140.022 88.8188 140.808 96.1828 142.38 101.092C143.952 106.002 146.348 108.456 149.568 108.456ZM149.006 153C142.642 153 136.652 151.084 131.037 147.252C125.421 143.421 120.48 138.152 116.212 131.447C112.019 124.621 108.724 116.718 106.328 107.738C103.932 98.7573 102.735 89.178 102.735 79C102.735 68.7023 103.932 59.123 106.328 50.2621C108.724 41.2816 112.019 33.4385 116.212 26.733C120.48 19.9078 125.421 14.5793 131.037 10.7476C136.652 6.91586 142.642 5 149.006 5C155.446 5 161.435 6.91586 166.976 10.7476C172.592 14.5793 177.496 19.9078 181.689 26.733C185.957 33.4385 189.288 41.2816 191.684 50.2621C194.08 59.123 195.278 68.7023 195.278 79C195.278 89.178 194.08 98.7573 191.684 107.738C189.288 116.718 185.957 124.621 181.689 131.447C177.496 138.152 172.592 143.421 166.976 147.252C161.435 151.084 155.446 153 149.006 153ZM149.006 142.942C154.547 142.942 159.713 141.325 164.505 138.092C169.372 134.739 173.64 130.129 177.309 124.262C180.978 118.395 183.823 111.629 185.844 103.966C187.941 96.1828 188.989 87.8608 188.989 79C188.989 70.1392 187.941 61.877 185.844 54.2136C183.823 46.4304 180.978 39.6052 177.309 33.7379C173.64 27.8706 169.372 23.3204 164.505 20.0874C159.713 16.7346 154.547 15.0583 149.006 15.0583C143.466 15.0583 138.262 16.7346 133.395 20.0874C128.603 23.3204 124.373 27.8706 120.704 33.7379C117.035 39.6052 114.153 46.4304 112.056 54.2136C110.035 61.877 109.024 70.1392 109.024 79C109.024 87.8608 110.035 96.1828 112.056 103.966C114.153 111.629 117.035 118.395 120.704 124.262C124.373 130.129 128.603 134.739 133.395 138.092C138.262 141.325 143.466 142.942 149.006 142.942Z" fill="black"/>
<path d="M232.923 117.437V107.738L245.614 87.6214C248.384 83.1909 250.518 79.5388 252.016 76.665C253.588 73.7913 254.674 71.157 255.273 68.7621C255.947 66.3673 256.283 63.733 256.283 60.8592C256.283 57.0275 255.572 54.1537 254.15 52.2379C252.802 50.322 251.042 49.3641 248.871 49.3641C247.074 49.3641 245.202 50.0227 243.255 51.3398C241.309 52.5372 239.325 54.4531 237.303 57.0874L233.484 48.8252C235.132 46.5502 236.779 44.6942 238.426 43.2573C240.148 41.8204 241.87 40.7427 243.592 40.0243C245.389 39.3058 247.186 38.9466 248.983 38.9466C253.7 38.9466 257.369 40.8026 259.99 44.5146C262.685 48.2265 264.033 53.4353 264.033 60.1408C264.033 64.212 263.509 67.9838 262.461 71.4563C261.412 74.8091 259.915 78.1618 257.968 81.5146C256.096 84.8673 253.888 88.5194 251.342 92.4709L240.448 109.354L239.662 106.66H263.921V117.437H232.923ZM247.636 153C241.271 153 235.281 151.084 229.666 147.252C224.05 143.421 219.109 138.152 214.841 131.447C210.648 124.621 207.354 116.718 204.958 107.738C202.562 98.7573 201.364 89.178 201.364 79C201.364 68.7023 202.562 59.123 204.958 50.2621C207.354 41.2816 210.648 33.4385 214.841 26.733C219.109 19.9078 224.05 14.5793 229.666 10.7476C235.281 6.91586 241.271 5 247.636 5C254.075 5 260.065 6.91586 265.605 10.7476C271.221 14.5793 276.125 19.9078 280.318 26.733C284.586 33.4385 287.918 41.2816 290.314 50.2621C292.71 59.123 293.908 68.7023 293.908 79C293.908 89.178 292.71 98.7573 290.314 107.738C287.918 116.718 284.586 124.621 280.318 131.447C276.125 138.152 271.221 143.421 265.605 147.252C260.065 151.084 254.075 153 247.636 153ZM247.636 142.942C253.176 142.942 258.343 141.325 263.134 138.092C268.001 134.739 272.269 130.129 275.938 124.262C279.607 118.395 282.452 111.629 284.473 103.966C286.57 96.1828 287.618 87.8608 287.618 79C287.618 70.1392 286.57 61.877 284.473 54.2136C282.452 46.4304 279.607 39.6052 275.938 33.7379C272.269 27.8706 268.001 23.3204 263.134 20.0874C258.343 16.7346 253.176 15.0583 247.636 15.0583C242.095 15.0583 236.891 16.7346 232.024 20.0874C227.232 23.3204 223.002 27.8706 219.333 33.7379C215.665 39.6052 212.782 46.4304 210.685 54.2136C208.664 61.877 207.653 70.1392 207.653 79C207.653 87.8608 208.664 96.1828 210.685 103.966C212.782 111.629 215.665 118.395 219.333 124.262C223.002 130.129 227.232 134.739 232.024 138.092C236.891 141.325 242.095 142.942 247.636 142.942Z" fill="black"/>
<path d="M344.605 118.694C341.61 118.694 338.952 118.335 336.631 117.617C334.385 116.778 332.513 115.641 331.015 114.204V102.17C332.962 104.205 335.171 105.762 337.642 106.84C340.187 107.917 342.434 108.456 344.38 108.456C347.974 108.456 350.67 107.199 352.467 104.684C354.264 102.17 355.162 98.4579 355.162 93.5485C355.162 88.9984 354.189 85.466 352.242 82.9514C350.37 80.4369 347.675 79.1796 344.156 79.1796C342.958 79.1796 341.647 79.3592 340.225 79.7184C338.802 80.0777 337.23 80.6165 335.508 81.3349L332.138 77.7427L333.823 40.2039H360.665V50.0825H340.225L339.214 69.8398C340.562 69.4806 341.76 69.2411 342.808 69.1214C343.931 68.8819 344.867 68.7621 345.616 68.7621C349.135 68.7621 352.167 69.7799 354.713 71.8155C357.333 73.8511 359.355 76.665 360.778 80.2573C362.2 83.7298 362.912 87.801 362.912 92.4709C362.912 100.853 361.377 107.319 358.307 111.869C355.237 116.419 350.67 118.694 344.605 118.694ZM345.728 153C339.364 153 333.374 151.084 327.758 147.252C322.143 143.421 317.201 138.152 312.933 131.447C308.74 124.621 305.446 116.718 303.05 107.738C300.654 98.7573 299.456 89.178 299.456 79C299.456 68.7023 300.654 59.123 303.05 50.2621C305.446 41.2816 308.74 33.4385 312.933 26.733C317.201 19.9078 322.143 14.5793 327.758 10.7476C333.374 6.91586 339.364 5 345.728 5C352.167 5 358.157 6.91586 363.698 10.7476C369.313 14.5793 374.217 19.9078 378.41 26.733C382.678 33.4385 386.01 41.2816 388.406 50.2621C390.802 59.123 392 68.7023 392 79C392 89.178 390.802 98.7573 388.406 107.738C386.01 116.718 382.678 124.621 378.41 131.447C374.217 138.152 369.313 143.421 363.698 147.252C358.157 151.084 352.167 153 345.728 153ZM345.728 142.942C351.269 142.942 356.435 141.325 361.227 138.092C366.094 134.739 370.361 130.129 374.03 124.262C377.699 118.395 380.544 111.629 382.566 103.966C384.662 96.1828 385.711 87.8608 385.711 79C385.711 70.1392 384.662 61.877 382.566 54.2136C380.544 46.4304 377.699 39.6052 374.03 33.7379C370.361 27.8706 366.094 23.3204 361.227 20.0874C356.435 16.7346 351.269 15.0583 345.728 15.0583C340.187 15.0583 334.984 16.7346 330.117 20.0874C325.325 23.3204 321.095 27.8706 317.426 33.7379C313.757 39.6052 310.874 46.4304 308.778 54.2136C306.756 61.877 305.746 70.1392 305.746 79C305.746 87.8608 306.756 96.1828 308.778 103.966C310.874 111.629 313.757 118.395 317.426 124.262C321.095 130.129 325.325 134.739 330.117 138.092C334.984 141.325 340.187 142.942 345.728 142.942Z" fill="black"/>
<path d="M36.5593 117.437V107.738L49.2503 87.6214C52.0207 83.1909 54.1546 79.5388 55.652 76.665C57.2244 73.7913 58.3101 71.157 58.909 68.7621C59.5829 66.3673 59.9198 63.733 59.9198 60.8592C59.9198 57.0275 59.2085 54.1537 57.7859 52.2379C56.4382 50.322 54.6787 49.3641 52.5073 49.3641C50.7104 49.3641 48.8385 50.0227 46.8918 51.3398C44.9451 52.5372 42.961 54.4531 40.9394 57.0874L37.1208 48.8252C38.768 46.5502 40.4152 44.6942 42.0625 43.2573C43.7846 41.8204 45.5067 40.7427 47.2288 40.0243C49.0257 39.3058 50.8227 38.9466 52.6197 38.9466C57.3367 38.9466 61.0055 40.8026 63.6261 44.5146C66.3215 48.2265 67.6693 53.4353 67.6693 60.1408C67.6693 64.212 67.1452 67.9838 66.0969 71.4563C65.0487 74.8091 63.5512 78.1618 61.6045 81.5146C59.7327 84.8673 57.5239 88.5194 54.9782 92.4709L44.0841 109.354L43.2979 106.66H67.557V117.437H36.5593ZM51.2719 153C44.9077 153 38.9178 151.084 33.3022 147.252C27.6867 143.421 22.7451 138.152 18.4773 131.447C14.2843 124.621 10.9899 116.718 8.59394 107.738C6.19798 98.7573 5 89.178 5 79C5 68.7023 6.19798 59.123 8.59394 50.2621C10.9899 41.2816 14.2843 33.4385 18.4773 26.733C22.7451 19.9078 27.6867 14.5793 33.3022 10.7476C38.9178 6.91586 44.9077 5 51.2719 5C57.7111 5 63.701 6.91586 69.2416 10.7476C74.8571 14.5793 79.7614 19.9078 83.9543 26.733C88.2221 33.4385 91.554 41.2816 93.9499 50.2621C96.3459 59.123 97.5439 68.7023 97.5439 79C97.5439 89.178 96.3459 98.7573 93.9499 107.738C91.554 116.718 88.2221 124.621 83.9543 131.447C79.7614 138.152 74.8571 143.421 69.2416 147.252C63.701 151.084 57.7111 153 51.2719 153ZM51.2719 142.942C56.8126 142.942 61.9789 141.325 66.7708 138.092C71.6376 134.739 75.9054 130.129 79.5742 124.262C83.243 118.395 86.0882 111.629 88.1098 103.966C90.2062 96.1828 91.2545 87.8608 91.2545 79C91.2545 70.1392 90.2062 61.877 88.1098 54.2136C86.0882 46.4304 83.243 39.6052 79.5742 33.7379C75.9054 27.8706 71.6376 23.3204 66.7708 20.0874C61.9789 16.7346 56.8126 15.0583 51.2719 15.0583C45.7313 15.0583 40.5276 16.7346 35.6608 20.0874C30.8689 23.3204 26.6385 27.8706 22.9697 33.7379C19.3009 39.6052 16.4182 46.4304 14.3218 54.2136C12.3002 61.877 11.2894 70.1392 11.2894 79C11.2894 87.8608 12.3002 96.1828 14.3218 103.966C16.4182 111.629 19.3009 118.395 22.9697 124.262C26.6385 130.129 30.8689 134.739 35.6608 138.092C40.5276 141.325 45.7313 142.942 51.2719 142.942Z" stroke="black" stroke-width="10" mask="url(#path-1-outside-1_846_36)"/>
<path d="M149.568 118.874C143.803 118.874 139.46 115.581 136.54 108.995C133.62 102.29 132.16 92.2314 132.16 78.8204C132.16 65.6489 133.62 55.7702 136.54 49.1845C139.46 42.479 143.803 39.1262 149.568 39.1262C155.408 39.1262 159.788 42.479 162.708 49.1845C165.628 55.7702 167.088 65.6489 167.088 78.8204C167.088 92.2314 165.628 102.29 162.708 108.995C159.788 115.581 155.408 118.874 149.568 118.874ZM149.568 108.456C152.788 108.456 155.184 106.002 156.756 101.092C158.403 96.0631 159.227 88.6392 159.227 78.8204C159.227 69.0016 158.403 61.6974 156.756 56.9078C155.184 51.9984 152.788 49.5437 149.568 49.5437C146.348 49.5437 143.952 51.9984 142.38 56.9078C140.808 61.8172 140.022 69.1812 140.022 79C140.022 88.8188 140.808 96.1828 142.38 101.092C143.952 106.002 146.348 108.456 149.568 108.456ZM149.006 153C142.642 153 136.652 151.084 131.037 147.252C125.421 143.421 120.48 138.152 116.212 131.447C112.019 124.621 108.724 116.718 106.328 107.738C103.932 98.7573 102.735 89.178 102.735 79C102.735 68.7023 103.932 59.123 106.328 50.2621C108.724 41.2816 112.019 33.4385 116.212 26.733C120.48 19.9078 125.421 14.5793 131.037 10.7476C136.652 6.91586 142.642 5 149.006 5C155.446 5 161.435 6.91586 166.976 10.7476C172.592 14.5793 177.496 19.9078 181.689 26.733C185.957 33.4385 189.288 41.2816 191.684 50.2621C194.08 59.123 195.278 68.7023 195.278 79C195.278 89.178 194.08 98.7573 191.684 107.738C189.288 116.718 185.957 124.621 181.689 131.447C177.496 138.152 172.592 143.421 166.976 147.252C161.435 151.084 155.446 153 149.006 153ZM149.006 142.942C154.547 142.942 159.713 141.325 164.505 138.092C169.372 134.739 173.64 130.129 177.309 124.262C180.978 118.395 183.823 111.629 185.844 103.966C187.941 96.1828 188.989 87.8608 188.989 79C188.989 70.1392 187.941 61.877 185.844 54.2136C183.823 46.4304 180.978 39.6052 177.309 33.7379C173.64 27.8706 169.372 23.3204 164.505 20.0874C159.713 16.7346 154.547 15.0583 149.006 15.0583C143.466 15.0583 138.262 16.7346 133.395 20.0874C128.603 23.3204 124.373 27.8706 120.704 33.7379C117.035 39.6052 114.153 46.4304 112.056 54.2136C110.035 61.877 109.024 70.1392 109.024 79C109.024 87.8608 110.035 96.1828 112.056 103.966C114.153 111.629 117.035 118.395 120.704 124.262C124.373 130.129 128.603 134.739 133.395 138.092C138.262 141.325 143.466 142.942 149.006 142.942Z" stroke="black" stroke-width="10" mask="url(#path-1-outside-1_846_36)"/>
<path d="M232.923 117.437V107.738L245.614 87.6214C248.384 83.1909 250.518 79.5388 252.016 76.665C253.588 73.7913 254.674 71.157 255.273 68.7621C255.947 66.3673 256.283 63.733 256.283 60.8592C256.283 57.0275 255.572 54.1537 254.15 52.2379C252.802 50.322 251.042 49.3641 248.871 49.3641C247.074 49.3641 245.202 50.0227 243.255 51.3398C241.309 52.5372 239.325 54.4531 237.303 57.0874L233.484 48.8252C235.132 46.5502 236.779 44.6942 238.426 43.2573C240.148 41.8204 241.87 40.7427 243.592 40.0243C245.389 39.3058 247.186 38.9466 248.983 38.9466C253.7 38.9466 257.369 40.8026 259.99 44.5146C262.685 48.2265 264.033 53.4353 264.033 60.1408C264.033 64.212 263.509 67.9838 262.461 71.4563C261.412 74.8091 259.915 78.1618 257.968 81.5146C256.096 84.8673 253.888 88.5194 251.342 92.4709L240.448 109.354L239.662 106.66H263.921V117.437H232.923ZM247.636 153C241.271 153 235.281 151.084 229.666 147.252C224.05 143.421 219.109 138.152 214.841 131.447C210.648 124.621 207.354 116.718 204.958 107.738C202.562 98.7573 201.364 89.178 201.364 79C201.364 68.7023 202.562 59.123 204.958 50.2621C207.354 41.2816 210.648 33.4385 214.841 26.733C219.109 19.9078 224.05 14.5793 229.666 10.7476C235.281 6.91586 241.271 5 247.636 5C254.075 5 260.065 6.91586 265.605 10.7476C271.221 14.5793 276.125 19.9078 280.318 26.733C284.586 33.4385 287.918 41.2816 290.314 50.2621C292.71 59.123 293.908 68.7023 293.908 79C293.908 89.178 292.71 98.7573 290.314 107.738C287.918 116.718 284.586 124.621 280.318 131.447C276.125 138.152 271.221 143.421 265.605 147.252C260.065 151.084 254.075 153 247.636 153ZM247.636 142.942C253.176 142.942 258.343 141.325 263.134 138.092C268.001 134.739 272.269 130.129 275.938 124.262C279.607 118.395 282.452 111.629 284.473 103.966C286.57 96.1828 287.618 87.8608 287.618 79C287.618 70.1392 286.57 61.877 284.473 54.2136C282.452 46.4304 279.607 39.6052 275.938 33.7379C272.269 27.8706 268.001 23.3204 263.134 20.0874C258.343 16.7346 253.176 15.0583 247.636 15.0583C242.095 15.0583 236.891 16.7346 232.024 20.0874C227.232 23.3204 223.002 27.8706 219.333 33.7379C215.665 39.6052 212.782 46.4304 210.685 54.2136C208.664 61.877 207.653 70.1392 207.653 79C207.653 87.8608 208.664 96.1828 210.685 103.966C212.782 111.629 215.665 118.395 219.333 124.262C223.002 130.129 227.232 134.739 232.024 138.092C236.891 141.325 242.095 142.942 247.636 142.942Z" stroke="black" stroke-width="10" mask="url(#path-1-outside-1_846_36)"/>
<path d="M344.605 118.694C341.61 118.694 338.952 118.335 336.631 117.617C334.385 116.778 332.513 115.641 331.015 114.204V102.17C332.962 104.205 335.171 105.762 337.642 106.84C340.187 107.917 342.434 108.456 344.38 108.456C347.974 108.456 350.67 107.199 352.467 104.684C354.264 102.17 355.162 98.4579 355.162 93.5485C355.162 88.9984 354.189 85.466 352.242 82.9514C350.37 80.4369 347.675 79.1796 344.156 79.1796C342.958 79.1796 341.647 79.3592 340.225 79.7184C338.802 80.0777 337.23 80.6165 335.508 81.3349L332.138 77.7427L333.823 40.2039H360.665V50.0825H340.225L339.214 69.8398C340.562 69.4806 341.76 69.2411 342.808 69.1214C343.931 68.8819 344.867 68.7621 345.616 68.7621C349.135 68.7621 352.167 69.7799 354.713 71.8155C357.333 73.8511 359.355 76.665 360.778 80.2573C362.2 83.7298 362.912 87.801 362.912 92.4709C362.912 100.853 361.377 107.319 358.307 111.869C355.237 116.419 350.67 118.694 344.605 118.694ZM345.728 153C339.364 153 333.374 151.084 327.758 147.252C322.143 143.421 317.201 138.152 312.933 131.447C308.74 124.621 305.446 116.718 303.05 107.738C300.654 98.7573 299.456 89.178 299.456 79C299.456 68.7023 300.654 59.123 303.05 50.2621C305.446 41.2816 308.74 33.4385 312.933 26.733C317.201 19.9078 322.143 14.5793 327.758 10.7476C333.374 6.91586 339.364 5 345.728 5C352.167 5 358.157 6.91586 363.698 10.7476C369.313 14.5793 374.217 19.9078 378.41 26.733C382.678 33.4385 386.01 41.2816 388.406 50.2621C390.802 59.123 392 68.7023 392 79C392 89.178 390.802 98.7573 388.406 107.738C386.01 116.718 382.678 124.621 378.41 131.447C374.217 138.152 369.313 143.421 363.698 147.252C358.157 151.084 352.167 153 345.728 153ZM345.728 142.942C351.269 142.942 356.435 141.325 361.227 138.092C366.094 134.739 370.361 130.129 374.03 124.262C377.699 118.395 380.544 111.629 382.566 103.966C384.662 96.1828 385.711 87.8608 385.711 79C385.711 70.1392 384.662 61.877 382.566 54.2136C380.544 46.4304 377.699 39.6052 374.03 33.7379C370.361 27.8706 366.094 23.3204 361.227 20.0874C356.435 16.7346 351.269 15.0583 345.728 15.0583C340.187 15.0583 334.984 16.7346 330.117 20.0874C325.325 23.3204 321.095 27.8706 317.426 33.7379C313.757 39.6052 310.874 46.4304 308.778 54.2136C306.756 61.877 305.746 70.1392 305.746 79C305.746 87.8608 306.756 96.1828 308.778 103.966C310.874 111.629 313.757 118.395 317.426 124.262C321.095 130.129 325.325 134.739 330.117 138.092C334.984 141.325 340.187 142.942 345.728 142.942Z" stroke="black" stroke-width="10" mask="url(#path-1-outside-1_846_36)"/>
</svg>
