<svg width="378" height="67" viewBox="0 0 378 67" fill="none" xmlns="http://www.w3.org/2000/svg">
<path d="M0 0H364V29H0V0Z" fill="#ECECEC"/>
<path d="M0 29H364V58H0V29Z" fill="#ECECEC"/>
<path d="M1.232 18.322C1.232 17.3833 1.342 16.5107 1.562 15.704C1.79667 14.8827 2.12667 14.1493 2.552 13.504C2.97733 12.844 3.49067 12.2867 4.092 11.832C4.69333 11.3627 5.368 11.0033 6.116 10.754C6.87867 10.5047 7.70733 10.38 8.602 10.38C9.86333 10.38 10.9633 10.5853 11.902 10.996C12.8407 11.4067 13.6107 12.008 14.212 12.8C14.828 13.5773 15.268 14.538 15.532 15.682L12.914 16.188C12.7527 15.4107 12.4887 14.7507 12.122 14.208C11.7553 13.6507 11.2787 13.2327 10.692 12.954C10.12 12.6607 9.42333 12.514 8.602 12.514C8.00067 12.514 7.45067 12.602 6.952 12.778C6.468 12.9393 6.03533 13.1887 5.654 13.526C5.27267 13.8487 4.95 14.252 4.686 14.736C4.422 15.2053 4.224 15.7407 4.092 16.342C3.96 16.9433 3.894 17.6033 3.894 18.322C3.894 19.0407 3.96 19.7007 4.092 20.302C4.224 20.9033 4.422 21.4387 4.686 21.908C4.95 22.3773 5.27267 22.7807 5.654 23.118C6.03533 23.4407 6.468 23.69 6.952 23.866C7.45067 24.0273 8.00067 24.108 8.602 24.108C9.42333 24.108 10.1347 23.9613 10.736 23.668C11.352 23.3747 11.8433 22.942 12.21 22.37C12.5913 21.798 12.8407 21.1087 12.958 20.302L15.532 20.808C15.3413 21.9667 14.938 22.9493 14.322 23.756C13.706 24.5627 12.914 25.1787 11.946 25.604C10.978 26.0147 9.86333 26.22 8.602 26.22C7.82467 26.22 7.09867 26.1393 6.424 25.978C5.764 25.802 5.15533 25.5527 4.598 25.23C4.05533 24.8927 3.57133 24.4967 3.146 24.042C2.73533 23.5727 2.38333 23.0447 2.09 22.458C1.81133 21.8713 1.59867 21.2333 1.452 20.544C1.30533 19.84 1.232 19.0993 1.232 18.322ZM22.748 26.22C22 26.22 21.318 26.1247 20.702 25.934C20.086 25.7433 19.536 25.472 19.052 25.12C18.568 24.7533 18.1573 24.3207 17.82 23.822C17.4973 23.3087 17.248 22.7367 17.072 22.106C16.9107 21.4607 16.83 20.7567 16.83 19.994C16.83 19.2607 16.9107 18.5713 17.072 17.926C17.248 17.2807 17.4973 16.7013 17.82 16.188C18.1573 15.6747 18.568 15.242 19.052 14.89C19.536 14.5233 20.086 14.252 20.702 14.076C21.318 13.8853 22 13.79 22.748 13.79C23.5107 13.79 24.2 13.8853 24.816 14.076C25.4467 14.252 25.9967 14.5233 26.466 14.89C26.95 15.242 27.3607 15.6747 27.698 16.188C28.0353 16.7013 28.2847 17.2807 28.446 17.926C28.622 18.5713 28.71 19.2607 28.71 19.994C28.71 20.7567 28.622 21.4607 28.446 22.106C28.2847 22.7367 28.0353 23.3087 27.698 23.822C27.3607 24.3207 26.95 24.7533 26.466 25.12C25.9967 25.472 25.4467 25.7433 24.816 25.934C24.2 26.1247 23.5107 26.22 22.748 26.22ZM22.748 24.24C23.232 24.24 23.65 24.174 24.002 24.042C24.3687 23.91 24.6913 23.7267 24.97 23.492C25.2487 23.2573 25.476 22.9713 25.652 22.634C25.8427 22.282 25.982 21.886 26.07 21.446C26.158 21.006 26.202 20.522 26.202 19.994C26.202 19.466 26.158 18.982 26.07 18.542C25.982 18.102 25.8427 17.7133 25.652 17.376C25.476 17.0387 25.2487 16.7527 24.97 16.518C24.6913 16.2687 24.3687 16.0853 24.002 15.968C23.65 15.836 23.232 15.77 22.748 15.77C22.2933 15.77 21.8827 15.836 21.516 15.968C21.1493 16.0853 20.8267 16.2687 20.548 16.518C20.284 16.7527 20.0567 17.046 19.866 17.398C19.6753 17.7353 19.536 18.124 19.448 18.564C19.36 18.9893 19.316 19.466 19.316 19.994C19.316 20.522 19.36 21.006 19.448 21.446C19.5507 21.886 19.69 22.282 19.866 22.634C20.0567 22.9713 20.284 23.2573 20.548 23.492C20.8267 23.7267 21.1493 23.91 21.516 24.042C21.8827 24.174 22.2933 24.24 22.748 24.24ZM36.5286 26.22C35.5753 26.22 34.7246 26.066 33.9766 25.758C33.2433 25.45 32.6273 25.0027 32.1286 24.416C31.6299 23.8293 31.2486 23.118 30.9846 22.282C30.7353 21.4313 30.6106 20.4707 30.6106 19.4V18.432C30.6106 16.9213 30.7426 15.6233 31.0066 14.538C31.2706 13.4527 31.6813 12.5653 32.2386 11.876C32.7959 11.172 33.5073 10.644 34.3726 10.292C35.2379 9.92533 36.2793 9.70533 37.4966 9.632L39.6306 9.478C39.9973 9.44867 40.3199 9.412 40.5986 9.368C40.8773 9.324 41.1633 9.26533 41.4566 9.192L41.6326 11.172C41.3539 11.2747 41.0459 11.3553 40.7086 11.414C40.3859 11.4727 40.0193 11.5167 39.6086 11.546L37.4746 11.678C36.6679 11.7367 35.9639 11.8833 35.3626 12.118C34.7759 12.3527 34.2919 12.712 33.9106 13.196C33.5293 13.6653 33.2506 14.296 33.0746 15.088C32.9719 15.572 32.8986 16.1293 32.8546 16.76C33.1479 16.2173 33.5219 15.7553 33.9766 15.374C34.4313 14.978 34.9446 14.6773 35.5166 14.472C36.0886 14.2667 36.7119 14.164 37.3866 14.164C38.0466 14.164 38.6479 14.2593 39.1906 14.45C39.7333 14.6407 40.2099 14.912 40.6206 15.264C41.0313 15.6013 41.3759 16.0193 41.6546 16.518C41.9333 17.002 42.1459 17.552 42.2926 18.168C42.4393 18.784 42.5126 19.4513 42.5126 20.17C42.5126 20.9033 42.4246 21.5853 42.2486 22.216C42.0726 22.832 41.8086 23.3893 41.4566 23.888C41.1046 24.372 40.6793 24.79 40.1806 25.142C39.6966 25.494 39.1466 25.7653 38.5306 25.956C37.9293 26.132 37.2619 26.22 36.5286 26.22ZM36.5286 24.24C36.9833 24.24 37.3939 24.1813 37.7606 24.064C38.1273 23.932 38.4499 23.756 38.7286 23.536C39.0073 23.316 39.2419 23.0373 39.4326 22.7C39.6379 22.3627 39.7846 21.9813 39.8726 21.556C39.9753 21.1307 40.0266 20.6613 40.0266 20.148C40.0266 19.6347 39.9826 19.1653 39.8946 18.74C39.8066 18.3147 39.6746 17.9333 39.4986 17.596C39.3373 17.2587 39.1173 16.98 38.8386 16.76C38.5746 16.5253 38.2666 16.3493 37.9146 16.232C37.5626 16.1 37.1593 16.034 36.7046 16.034C36.2793 16.034 35.8833 16.0927 35.5166 16.21C35.1499 16.3273 34.8199 16.5033 34.5266 16.738C34.2479 16.958 34.0059 17.2367 33.8006 17.574C33.5953 17.8967 33.4339 18.278 33.3166 18.718C33.2139 19.1433 33.1626 19.6127 33.1626 20.126C33.1626 20.6393 33.2066 21.1087 33.2946 21.534C33.3826 21.9593 33.5146 22.3407 33.6906 22.678C33.8666 23.0007 34.0939 23.2793 34.3726 23.514C34.6513 23.7487 34.9666 23.932 35.3186 24.064C35.6706 24.1813 36.0739 24.24 36.5286 24.24ZM55.4259 18.102L53.0719 18.498C52.9839 17.9113 52.8006 17.42 52.5219 17.024C52.2579 16.6133 51.9132 16.3053 51.4879 16.1C51.0626 15.88 50.5639 15.77 49.9919 15.77C49.5372 15.77 49.1266 15.836 48.7599 15.968C48.3932 16.1 48.0706 16.2833 47.7919 16.518C47.5279 16.7527 47.3006 17.046 47.1099 17.398C46.9339 17.7353 46.7946 18.124 46.6919 18.564C46.6039 19.004 46.5599 19.488 46.5599 20.016C46.5599 20.5293 46.6039 21.006 46.6919 21.446C46.7946 21.8713 46.9339 22.26 47.1099 22.612C47.3006 22.964 47.5352 23.2573 47.8139 23.492C48.0926 23.7267 48.4079 23.91 48.7599 24.042C49.1266 24.174 49.5372 24.24 49.9919 24.24C50.5639 24.24 51.0626 24.1373 51.4879 23.932C51.9132 23.7267 52.2652 23.426 52.5439 23.03C52.8372 22.6193 53.0426 22.0987 53.1599 21.468L55.4699 21.864C55.2792 22.8027 54.9346 23.5947 54.4359 24.24C53.9519 24.8853 53.3286 25.3767 52.5659 25.714C51.8179 26.0513 50.9599 26.22 49.9919 26.22C49.2439 26.22 48.5619 26.1247 47.9459 25.934C47.3299 25.7433 46.7799 25.472 46.2959 25.12C45.8119 24.7533 45.4012 24.3207 45.0639 23.822C44.7412 23.3087 44.4919 22.7367 44.3159 22.106C44.1546 21.4753 44.0739 20.7787 44.0739 20.016C44.0739 19.268 44.1546 18.5713 44.3159 17.926C44.4919 17.2807 44.7412 16.7013 45.0639 16.188C45.4012 15.6747 45.8119 15.242 46.2959 14.89C46.7799 14.5233 47.3299 14.252 47.9459 14.076C48.5619 13.8853 49.2439 13.79 49.9919 13.79C51.0039 13.79 51.8839 13.9587 52.6319 14.296C53.3799 14.6187 53.9886 15.1027 54.4579 15.748C54.9272 16.3933 55.2499 17.178 55.4259 18.102ZM59.7902 26V15.99H55.7642V14.01H66.2582V15.99H62.2322V26H59.7902ZM67.748 26V14.01H73.732C74.5386 14.01 75.228 14.1273 75.8 14.362C76.3866 14.5967 76.834 14.9413 77.142 15.396C77.4646 15.8507 77.626 16.4153 77.626 17.09C77.626 17.5007 77.56 17.8673 77.428 18.19C77.3106 18.5127 77.1346 18.7913 76.9 19.026C76.68 19.2607 76.4013 19.4587 76.064 19.62C75.9466 19.6787 75.8293 19.73 75.712 19.774C76.0053 19.862 76.284 19.9793 76.548 20.126C77.032 20.4047 77.406 20.7713 77.67 21.226C77.9486 21.6807 78.088 22.2087 78.088 22.81C78.088 23.4993 77.9266 24.086 77.604 24.57C77.2813 25.0393 76.8193 25.3987 76.218 25.648C75.6166 25.8827 74.898 26 74.062 26H67.748ZM70.124 20.698V24.218H73.622C74.062 24.218 74.436 24.152 74.744 24.02C75.052 23.888 75.2866 23.7047 75.448 23.47C75.624 23.2207 75.712 22.9053 75.712 22.524C75.712 22.128 75.6166 21.798 75.426 21.534C75.25 21.2553 75.0006 21.05 74.678 20.918C74.3553 20.7713 73.9886 20.698 73.578 20.698H70.124ZM70.124 15.792V18.982H73.402C73.7686 18.982 74.0913 18.9233 74.37 18.806C74.6633 18.674 74.8906 18.4833 75.052 18.234C75.2133 17.9847 75.294 17.6767 75.294 17.31C75.294 16.8113 75.118 16.4373 74.766 16.188C74.4286 15.924 73.9666 15.792 73.38 15.792H70.124ZM85.5113 26.22C84.7486 26.22 84.0446 26.1247 83.3993 25.934C82.7686 25.7287 82.2113 25.45 81.7273 25.098C81.2433 24.7313 80.8326 24.2913 80.4953 23.778C80.1579 23.2647 79.9013 22.6927 79.7253 22.062C79.5493 21.4167 79.4613 20.7273 79.4613 19.994C79.4613 19.2607 79.5419 18.5787 79.7033 17.948C79.8793 17.3173 80.1359 16.7527 80.4733 16.254C80.8106 15.7407 81.2139 15.3007 81.6833 14.934C82.1673 14.5673 82.7246 14.2887 83.3553 14.098C83.9859 13.8927 84.6826 13.79 85.4453 13.79C86.3106 13.79 87.0953 13.9293 87.7993 14.208C88.5033 14.4867 89.1046 14.89 89.6033 15.418C90.1166 15.9313 90.5053 16.5473 90.7693 17.266C91.0479 17.97 91.1873 18.762 91.1873 19.642C91.1873 19.818 91.1799 19.994 91.1653 20.17C91.1506 20.3313 91.1213 20.4927 91.0773 20.654H81.8593C81.8739 20.918 81.9106 21.1747 81.9693 21.424C82.0573 21.8787 82.1966 22.282 82.3873 22.634C82.5926 22.9713 82.8419 23.272 83.1353 23.536C83.4286 23.7853 83.7733 23.976 84.1693 24.108C84.5653 24.24 85.0126 24.306 85.5113 24.306C86.1273 24.306 86.6553 24.218 87.0953 24.042C87.5499 23.866 87.9239 23.6167 88.2173 23.294C88.5106 22.9567 88.7233 22.5533 88.8553 22.084L91.0993 22.48C90.8939 23.2573 90.5566 23.932 90.0873 24.504C89.6179 25.0613 89.0019 25.4867 88.2393 25.78C87.4766 26.0733 86.5673 26.22 85.5113 26.22ZM81.9033 18.894H88.8773C88.8479 18.5273 88.7746 18.19 88.6573 17.882C88.5106 17.4273 88.2833 17.0387 87.9753 16.716C87.6819 16.3933 87.3226 16.144 86.8973 15.968C86.4866 15.792 86.0099 15.704 85.4673 15.704C84.9833 15.704 84.5433 15.77 84.1473 15.902C83.7659 16.0193 83.4286 16.2027 83.1353 16.452C82.8566 16.7013 82.6146 17.002 82.4093 17.354C82.2039 17.706 82.0573 18.102 81.9693 18.542C81.9399 18.6593 81.9179 18.7767 81.9033 18.894ZM93.3805 26V14.01H95.8225V18.718H101.763V14.01H104.183V26H101.763V20.698H95.8225V26H93.3805ZM107.282 26V14.01H109.724V18.718H115.664V14.01H118.084V26H115.664V20.698H109.724V26H107.282ZM121.183 26V14.01H123.625V17.86H126.947C127.842 17.86 128.604 18.0287 129.235 18.366C129.866 18.7033 130.35 19.18 130.687 19.796C131.039 20.3973 131.215 21.116 131.215 21.952C131.215 22.568 131.112 23.1253 130.907 23.624C130.716 24.1227 130.438 24.548 130.071 24.9C129.704 25.252 129.257 25.5233 128.729 25.714C128.201 25.9047 127.607 26 126.947 26H121.183ZM132.733 26V14.01H135.175V26H132.733ZM123.625 19.686V24.174H126.463C126.962 24.174 127.387 24.0933 127.739 23.932C128.106 23.756 128.384 23.5067 128.575 23.184C128.766 22.8467 128.861 22.436 128.861 21.952C128.861 21.4533 128.766 21.0427 128.575 20.72C128.384 20.3827 128.106 20.126 127.739 19.95C127.387 19.774 126.962 19.686 126.463 19.686H123.625ZM138.285 26V14.01H140.661V22.722L146.469 14.01H148.845V26H146.469V17.288L140.661 26H138.285ZM145.567 9.346H147.503C147.503 9.85933 147.408 10.3287 147.217 10.754C147.041 11.1647 146.777 11.5167 146.425 11.81C146.088 12.1033 145.685 12.3307 145.215 12.492C144.746 12.6533 144.218 12.734 143.631 12.734C143.074 12.734 142.553 12.6533 142.069 12.492C141.585 12.3307 141.175 12.1033 140.837 11.81C140.5 11.5167 140.236 11.1647 140.045 10.754C139.855 10.3287 139.759 9.85933 139.759 9.346H141.695C141.695 9.93267 141.871 10.3947 142.223 10.732C142.575 11.0693 143.045 11.238 143.631 11.238C144.027 11.238 144.372 11.1647 144.665 11.018C144.959 10.8567 145.179 10.6367 145.325 10.358C145.487 10.0793 145.567 9.742 145.567 9.346ZM156.384 26V10.6H163.534C164.268 10.6 164.928 10.688 165.514 10.864C166.101 11.04 166.592 11.2967 166.988 11.634C167.399 11.9713 167.714 12.382 167.934 12.866C168.154 13.35 168.264 13.9 168.264 14.516C168.264 14.9853 168.191 15.4253 168.044 15.836C167.898 16.2467 167.678 16.6133 167.384 16.936C167.106 17.2587 166.768 17.5373 166.372 17.772C166.182 17.8747 165.976 17.97 165.756 18.058C166.167 18.1753 166.541 18.3293 166.878 18.52C167.494 18.8573 167.971 19.312 168.308 19.884C168.646 20.4413 168.814 21.094 168.814 21.842C168.814 22.6927 168.616 23.4333 168.22 24.064C167.824 24.68 167.252 25.1567 166.504 25.494C165.756 25.8313 164.847 26 163.776 26H156.384ZM158.914 19.246V23.976H163.446C164.048 23.976 164.546 23.8807 164.942 23.69C165.353 23.4993 165.661 23.2353 165.866 22.898C166.072 22.546 166.174 22.1353 166.174 21.666C166.174 21.138 166.05 20.698 165.8 20.346C165.566 19.9793 165.236 19.708 164.81 19.532C164.385 19.3413 163.894 19.246 163.336 19.246H158.914ZM158.914 12.624V17.178H163.094C163.49 17.178 163.85 17.1267 164.172 17.024C164.495 16.9067 164.774 16.7527 165.008 16.562C165.243 16.3567 165.419 16.1147 165.536 15.836C165.668 15.5427 165.734 15.2273 165.734 14.89C165.734 14.3913 165.632 13.9807 165.426 13.658C165.221 13.3207 164.92 13.064 164.524 12.888C164.128 12.712 163.652 12.624 163.094 12.624H158.914ZM171.467 26V10.6H182.005V12.734H174.063V17.068H181.015V19.18H174.063V23.866H182.137V26H171.467ZM184.53 26V10.6H195.662V12.734H187.06V16.65H191.724C192.736 16.65 193.616 16.8407 194.364 17.222C195.127 17.6033 195.714 18.1533 196.124 18.872C196.535 19.576 196.74 20.4047 196.74 21.358C196.74 22.0767 196.623 22.722 196.388 23.294C196.154 23.866 195.816 24.35 195.376 24.746C194.936 25.142 194.408 25.45 193.792 25.67C193.191 25.89 192.509 26 191.746 26H184.53ZM187.06 18.718V23.954H191.482C192.04 23.954 192.524 23.8587 192.934 23.668C193.345 23.4627 193.653 23.1693 193.858 22.788C194.078 22.392 194.188 21.9227 194.188 21.38C194.188 20.7933 194.071 20.3093 193.836 19.928C193.602 19.532 193.279 19.2313 192.868 19.026C192.472 18.8207 192.01 18.718 191.482 18.718H187.06ZM203.77 21.556V16.584H201.328V13.944H202.758C203.125 13.944 203.411 13.9147 203.616 13.856C203.836 13.7973 204.005 13.6727 204.122 13.482C204.239 13.2767 204.327 12.9687 204.386 12.558C204.459 12.1473 204.518 11.5827 204.562 10.864H207.29V13.944H212.746V16.584H207.29V21.116C207.29 21.732 207.371 22.216 207.532 22.568C207.708 22.9053 207.994 23.1473 208.39 23.294C208.801 23.4407 209.343 23.514 210.018 23.514C210.297 23.514 210.597 23.4993 210.92 23.47C211.257 23.4407 211.595 23.404 211.932 23.36C212.284 23.316 212.614 23.2647 212.922 23.206L212.812 25.868C212.445 25.956 212.049 26.022 211.624 26.066C211.199 26.1247 210.773 26.1687 210.348 26.198C209.923 26.2273 209.505 26.242 209.094 26.242C208.199 26.242 207.415 26.1613 206.74 26C206.065 25.824 205.508 25.5527 205.068 25.186C204.628 24.8047 204.298 24.3207 204.078 23.734C203.873 23.1327 203.77 22.4067 203.77 21.556ZM214.776 26V13.944H217.922L218.208 16.87C218.516 16.386 218.883 15.946 219.308 15.55C219.939 14.9633 220.643 14.5087 221.42 14.186C222.212 13.8633 223.055 13.702 223.95 13.702C224.067 13.702 224.185 13.7093 224.302 13.724C224.434 13.724 224.529 13.7313 224.588 13.746L224.5 17.31C224.295 17.2513 224.067 17.2073 223.818 17.178C223.569 17.1487 223.312 17.134 223.048 17.134C222.491 17.134 221.963 17.1927 221.464 17.31C220.98 17.4273 220.54 17.596 220.144 17.816C219.763 18.036 219.433 18.3147 219.154 18.652C218.875 18.9747 218.663 19.356 218.516 19.796C218.369 20.236 218.289 20.7273 218.274 21.27V26H214.776ZM225.262 17.552C225.438 16.9067 225.71 16.342 226.076 15.858C226.458 15.374 226.942 14.978 227.528 14.67C228.115 14.3473 228.804 14.1053 229.596 13.944C230.403 13.7827 231.32 13.702 232.346 13.702C233.52 13.702 234.532 13.7973 235.382 13.988C236.248 14.164 236.952 14.4427 237.494 14.824C238.052 15.2053 238.462 15.6893 238.726 16.276C238.99 16.848 239.122 17.5373 239.122 18.344V22.766C239.122 22.9713 239.152 23.14 239.21 23.272C239.269 23.404 239.357 23.5067 239.474 23.58C239.592 23.6387 239.746 23.668 239.936 23.668C240.024 23.668 240.112 23.668 240.2 23.668C240.288 23.6533 240.369 23.6387 240.442 23.624L240.376 25.978C240.127 26.0513 239.856 26.11 239.562 26.154C239.284 26.198 239.012 26.22 238.748 26.22C238.103 26.22 237.568 26.1173 237.142 25.912C236.717 25.692 236.402 25.3767 236.196 24.966C236.05 24.658 235.954 24.306 235.91 23.91C235.793 24.042 235.676 24.1667 235.558 24.284C235.118 24.6947 234.612 25.0467 234.04 25.34C233.468 25.6333 232.83 25.8533 232.126 26C231.437 26.1613 230.704 26.242 229.926 26.242C228.856 26.242 227.939 26.1027 227.176 25.824C226.414 25.5307 225.834 25.12 225.438 24.592C225.042 24.0493 224.844 23.404 224.844 22.656C224.844 21.908 225.035 21.2773 225.416 20.764C225.798 20.236 226.392 19.8253 227.198 19.532C228.005 19.224 229.046 19.0187 230.322 18.916L235.822 18.52C235.822 18.1387 235.756 17.8013 235.624 17.508C235.492 17.2147 235.287 16.9727 235.008 16.782C234.73 16.5913 234.363 16.452 233.908 16.364C233.454 16.2613 232.911 16.21 232.28 16.21C231.532 16.21 230.902 16.276 230.388 16.408C229.875 16.54 229.479 16.7453 229.2 17.024C228.922 17.3027 228.746 17.662 228.672 18.102L225.262 17.552ZM235.888 20.588L230.234 21.028C229.794 21.0573 229.428 21.1307 229.134 21.248C228.841 21.3653 228.621 21.5267 228.474 21.732C228.328 21.9227 228.254 22.1573 228.254 22.436C228.254 22.7293 228.335 22.9787 228.496 23.184C228.672 23.3893 228.936 23.5433 229.288 23.646C229.655 23.7487 230.11 23.8 230.652 23.8C231.239 23.8 231.789 23.7487 232.302 23.646C232.83 23.5433 233.307 23.404 233.732 23.228C234.172 23.052 234.554 22.8393 234.876 22.59C235.199 22.3407 235.448 22.0693 235.624 21.776C235.8 21.468 235.888 21.138 235.888 20.786V20.588ZM248.09 16.078C247.312 16.078 246.667 16.1293 246.154 16.232C245.655 16.32 245.274 16.452 245.01 16.628C244.76 16.804 244.636 17.0313 244.636 17.31C244.636 17.5593 244.709 17.7647 244.856 17.926C245.017 18.0727 245.274 18.19 245.626 18.278C245.992 18.366 246.484 18.4393 247.1 18.498L250.136 18.674C251.382 18.7767 252.394 18.9673 253.172 19.246C253.964 19.51 254.543 19.884 254.91 20.368C255.276 20.852 255.46 21.4533 255.46 22.172C255.46 23.0227 255.188 23.756 254.646 24.372C254.103 24.9733 253.289 25.4353 252.204 25.758C251.133 26.0807 249.798 26.242 248.2 26.242C246.704 26.242 245.45 26.11 244.438 25.846C243.44 25.5673 242.656 25.1493 242.084 24.592C241.526 24.02 241.13 23.294 240.896 22.414L244.24 21.908C244.386 22.5973 244.782 23.096 245.428 23.404C246.088 23.712 246.99 23.866 248.134 23.866C248.838 23.866 249.432 23.8367 249.916 23.778C250.4 23.7193 250.796 23.6313 251.104 23.514C251.412 23.3967 251.639 23.2647 251.786 23.118C251.932 22.9567 252.006 22.7733 252.006 22.568C252.006 22.2893 251.932 22.0693 251.786 21.908C251.654 21.7467 251.419 21.622 251.082 21.534C250.744 21.4313 250.282 21.358 249.696 21.314L246.616 21.138C245.384 21.05 244.372 20.8593 243.58 20.566C242.802 20.2727 242.223 19.8767 241.842 19.378C241.475 18.8793 241.292 18.278 241.292 17.574C241.292 16.7673 241.556 16.078 242.084 15.506C242.612 14.9193 243.382 14.472 244.394 14.164C245.406 13.856 246.63 13.702 248.068 13.702C249.505 13.702 250.708 13.834 251.676 14.098C252.658 14.3473 253.436 14.7433 254.008 15.286C254.58 15.8287 254.968 16.5107 255.174 17.332L251.896 17.816C251.808 17.42 251.617 17.0973 251.324 16.848C251.03 16.584 250.62 16.3933 250.092 16.276C249.564 16.144 248.896 16.078 248.09 16.078ZM257.468 26V9.5H260.966V16.276C261.377 15.7333 261.861 15.2713 262.418 14.89C262.99 14.5087 263.621 14.2153 264.31 14.01C265.014 13.8047 265.762 13.702 266.554 13.702C267.727 13.702 268.717 13.9073 269.524 14.318C270.345 14.714 270.969 15.2933 271.394 16.056C271.819 16.804 272.032 17.7207 272.032 18.806V26H268.534V19.532C268.534 18.916 268.409 18.388 268.16 17.948C267.925 17.508 267.573 17.1707 267.104 16.936C266.635 16.7013 266.055 16.584 265.366 16.584C264.691 16.584 264.083 16.6793 263.54 16.87C263.012 17.046 262.55 17.3027 262.154 17.64C261.773 17.9627 261.479 18.366 261.274 18.85C261.069 19.3193 260.966 19.8473 260.966 20.434V26H257.468ZM274.055 20.786V18.498H280.105V20.786H274.055ZM282.306 26V14.01H292.954V26H290.512V15.99H284.748V26H282.306ZM298.169 14.01L298.345 16.232C298.492 15.9973 298.646 15.7847 298.807 15.594C299.247 15.022 299.782 14.582 300.413 14.274C301.058 13.9513 301.777 13.79 302.569 13.79C303.214 13.79 303.808 13.8927 304.351 14.098C304.908 14.2887 305.4 14.5673 305.825 14.934C306.265 15.3007 306.632 15.7407 306.925 16.254C307.233 16.7673 307.468 17.3393 307.629 17.97C307.79 18.6007 307.871 19.2753 307.871 19.994C307.871 20.7273 307.79 21.4093 307.629 22.04C307.468 22.6707 307.233 23.2427 306.925 23.756C306.632 24.2693 306.265 24.7093 305.825 25.076C305.4 25.4427 304.908 25.7287 304.351 25.934C303.808 26.1247 303.214 26.22 302.569 26.22C301.777 26.22 301.058 26.066 300.413 25.758C299.782 25.4353 299.247 24.9953 298.807 24.438C298.69 24.2913 298.58 24.1373 298.477 23.976V30.4H296.035V14.01H298.169ZM301.931 24.196C302.371 24.196 302.774 24.13 303.141 23.998C303.508 23.866 303.83 23.6753 304.109 23.426C304.388 23.1767 304.615 22.876 304.791 22.524C304.982 22.172 305.121 21.7907 305.209 21.38C305.312 20.9547 305.363 20.5 305.363 20.016C305.363 19.5173 305.312 19.0553 305.209 18.63C305.121 18.2047 304.982 17.8233 304.791 17.486C304.615 17.134 304.388 16.8333 304.109 16.584C303.83 16.3347 303.508 16.144 303.141 16.012C302.774 15.88 302.371 15.814 301.931 15.814C301.212 15.814 300.596 15.9973 300.083 16.364C299.57 16.716 299.174 17.2073 298.895 17.838C298.616 18.4687 298.477 19.1947 298.477 20.016C298.477 20.6173 298.55 21.1747 298.697 21.688C298.858 22.2013 299.086 22.6487 299.379 23.03C299.687 23.3967 300.054 23.6827 300.479 23.888C300.904 24.0933 301.388 24.196 301.931 24.196ZM315.321 26.22C314.573 26.22 313.891 26.1247 313.275 25.934C312.659 25.7433 312.109 25.472 311.625 25.12C311.141 24.7533 310.73 24.3207 310.393 23.822C310.07 23.3087 309.821 22.7367 309.645 22.106C309.483 21.4607 309.403 20.7567 309.403 19.994C309.403 19.2607 309.483 18.5713 309.645 17.926C309.821 17.2807 310.07 16.7013 310.393 16.188C310.73 15.6747 311.141 15.242 311.625 14.89C312.109 14.5233 312.659 14.252 313.275 14.076C313.891 13.8853 314.573 13.79 315.321 13.79C316.083 13.79 316.773 13.8853 317.389 14.076C318.019 14.252 318.569 14.5233 319.039 14.89C319.523 15.242 319.933 15.6747 320.271 16.188C320.608 16.7013 320.857 17.2807 321.019 17.926C321.195 18.5713 321.283 19.2607 321.283 19.994C321.283 20.7567 321.195 21.4607 321.019 22.106C320.857 22.7367 320.608 23.3087 320.271 23.822C319.933 24.3207 319.523 24.7533 319.039 25.12C318.569 25.472 318.019 25.7433 317.389 25.934C316.773 26.1247 316.083 26.22 315.321 26.22ZM315.321 24.24C315.805 24.24 316.223 24.174 316.575 24.042C316.941 23.91 317.264 23.7267 317.543 23.492C317.821 23.2573 318.049 22.9713 318.225 22.634C318.415 22.282 318.555 21.886 318.643 21.446C318.731 21.006 318.775 20.522 318.775 19.994C318.775 19.466 318.731 18.982 318.643 18.542C318.555 18.102 318.415 17.7133 318.225 17.376C318.049 17.0387 317.821 16.7527 317.543 16.518C317.264 16.2687 316.941 16.0853 316.575 15.968C316.223 15.836 315.805 15.77 315.321 15.77C314.866 15.77 314.455 15.836 314.089 15.968C313.722 16.0853 313.399 16.2687 313.121 16.518C312.857 16.7527 312.629 17.046 312.439 17.398C312.248 17.7353 312.109 18.124 312.021 18.564C311.933 18.9893 311.889 19.466 311.889 19.994C311.889 20.522 311.933 21.006 312.021 21.446C312.123 21.886 312.263 22.282 312.439 22.634C312.629 22.9713 312.857 23.2573 313.121 23.492C313.399 23.7267 313.722 23.91 314.089 24.042C314.455 24.174 314.866 24.24 315.321 24.24ZM328.881 26.22C328.118 26.22 327.414 26.1247 326.769 25.934C326.138 25.7287 325.581 25.45 325.097 25.098C324.613 24.7313 324.202 24.2913 323.865 23.778C323.528 23.2647 323.271 22.6927 323.095 22.062C322.919 21.4167 322.831 20.7273 322.831 19.994C322.831 19.2607 322.912 18.5787 323.073 17.948C323.249 17.3173 323.506 16.7527 323.843 16.254C324.18 15.7407 324.584 15.3007 325.053 14.934C325.537 14.5673 326.094 14.2887 326.725 14.098C327.356 13.8927 328.052 13.79 328.815 13.79C329.68 13.79 330.465 13.9293 331.169 14.208C331.873 14.4867 332.474 14.89 332.973 15.418C333.486 15.9313 333.875 16.5473 334.139 17.266C334.418 17.97 334.557 18.762 334.557 19.642C334.557 19.818 334.55 19.994 334.535 20.17C334.52 20.3313 334.491 20.4927 334.447 20.654H325.229C325.244 20.918 325.28 21.1747 325.339 21.424C325.427 21.8787 325.566 22.282 325.757 22.634C325.962 22.9713 326.212 23.272 326.505 23.536C326.798 23.7853 327.143 23.976 327.539 24.108C327.935 24.24 328.382 24.306 328.881 24.306C329.497 24.306 330.025 24.218 330.465 24.042C330.92 23.866 331.294 23.6167 331.587 23.294C331.88 22.9567 332.093 22.5533 332.225 22.084L334.469 22.48C334.264 23.2573 333.926 23.932 333.457 24.504C332.988 25.0613 332.372 25.4867 331.609 25.78C330.846 26.0733 329.937 26.22 328.881 26.22ZM325.273 18.894H332.247C332.218 18.5273 332.144 18.19 332.027 17.882C331.88 17.4273 331.653 17.0387 331.345 16.716C331.052 16.3933 330.692 16.144 330.267 15.968C329.856 15.792 329.38 15.704 328.837 15.704C328.353 15.704 327.913 15.77 327.517 15.902C327.136 16.0193 326.798 16.2027 326.505 16.452C326.226 16.7013 325.984 17.002 325.779 17.354C325.574 17.706 325.427 18.102 325.339 18.542C325.31 18.6593 325.288 18.7767 325.273 18.894ZM336.75 26V14.01H339.192V19.598L344.582 14.01H347.486L341.832 19.62L347.618 26H344.626L339.192 20.038V26H336.75ZM351.331 26V15.99H347.305V14.01H357.799V15.99H353.773V26H351.331ZM1.98 48V36.01H12.628V48H10.186V37.99H4.422V48H1.98ZM17.8434 36.01L18.0194 38.232C18.166 37.9973 18.32 37.7847 18.4814 37.594C18.9214 37.022 19.4567 36.582 20.0874 36.274C20.7327 35.9513 21.4514 35.79 22.2434 35.79C22.8887 35.79 23.4827 35.8927 24.0254 36.098C24.5827 36.2887 25.074 36.5673 25.4994 36.934C25.9394 37.3007 26.306 37.7407 26.5994 38.254C26.9074 38.7673 27.142 39.3393 27.3034 39.97C27.4647 40.6007 27.5454 41.2753 27.5454 41.994C27.5454 42.7273 27.4647 43.4093 27.3034 44.04C27.142 44.6707 26.9074 45.2427 26.5994 45.756C26.306 46.2693 25.9394 46.7093 25.4994 47.076C25.074 47.4427 24.5827 47.7287 24.0254 47.934C23.4827 48.1247 22.8887 48.22 22.2434 48.22C21.4514 48.22 20.7327 48.066 20.0874 47.758C19.4567 47.4353 18.9214 46.9953 18.4814 46.438C18.364 46.2913 18.254 46.1373 18.1514 45.976V52.4H15.7094V36.01H17.8434ZM21.6054 46.196C22.0454 46.196 22.4487 46.13 22.8154 45.998C23.182 45.866 23.5047 45.6753 23.7834 45.426C24.062 45.1767 24.2894 44.876 24.4654 44.524C24.656 44.172 24.7954 43.7907 24.8834 43.38C24.986 42.9547 25.0374 42.5 25.0374 42.016C25.0374 41.5173 24.986 41.0553 24.8834 40.63C24.7954 40.2047 24.656 39.8233 24.4654 39.486C24.2894 39.134 24.062 38.8333 23.7834 38.584C23.5047 38.3347 23.182 38.144 22.8154 38.012C22.4487 37.88 22.0454 37.814 21.6054 37.814C20.8867 37.814 20.2707 37.9973 19.7574 38.364C19.244 38.716 18.848 39.2073 18.5694 39.838C18.2907 40.4687 18.1514 41.1947 18.1514 42.016C18.1514 42.6173 18.2247 43.1747 18.3714 43.688C18.5327 44.2013 18.76 44.6487 19.0534 45.03C19.3614 45.3967 19.728 45.6827 20.1534 45.888C20.5787 46.0933 21.0627 46.196 21.6054 46.196ZM34.995 48.22C34.247 48.22 33.565 48.1247 32.949 47.934C32.333 47.7433 31.783 47.472 31.299 47.12C30.815 46.7533 30.4043 46.3207 30.067 45.822C29.7443 45.3087 29.495 44.7367 29.319 44.106C29.1576 43.4607 29.077 42.7567 29.077 41.994C29.077 41.2607 29.1576 40.5713 29.319 39.926C29.495 39.2807 29.7443 38.7013 30.067 38.188C30.4043 37.6747 30.815 37.242 31.299 36.89C31.783 36.5233 32.333 36.252 32.949 36.076C33.565 35.8853 34.247 35.79 34.995 35.79C35.7576 35.79 36.447 35.8853 37.063 36.076C37.6936 36.252 38.2436 36.5233 38.713 36.89C39.197 37.242 39.6076 37.6747 39.945 38.188C40.2823 38.7013 40.5316 39.2807 40.693 39.926C40.869 40.5713 40.957 41.2607 40.957 41.994C40.957 42.7567 40.869 43.4607 40.693 44.106C40.5316 44.7367 40.2823 45.3087 39.945 45.822C39.6076 46.3207 39.197 46.7533 38.713 47.12C38.2436 47.472 37.6936 47.7433 37.063 47.934C36.447 48.1247 35.7576 48.22 34.995 48.22ZM34.995 46.24C35.479 46.24 35.897 46.174 36.249 46.042C36.6156 45.91 36.9383 45.7267 37.217 45.492C37.4956 45.2573 37.723 44.9713 37.899 44.634C38.0896 44.282 38.229 43.886 38.317 43.446C38.405 43.006 38.449 42.522 38.449 41.994C38.449 41.466 38.405 40.982 38.317 40.542C38.229 40.102 38.0896 39.7133 37.899 39.376C37.723 39.0387 37.4956 38.7527 37.217 38.518C36.9383 38.2687 36.6156 38.0853 36.249 37.968C35.897 37.836 35.479 37.77 34.995 37.77C34.5403 37.77 34.1296 37.836 33.763 37.968C33.3963 38.0853 33.0736 38.2687 32.795 38.518C32.531 38.7527 32.3036 39.046 32.113 39.398C31.9223 39.7353 31.783 40.124 31.695 40.564C31.607 40.9893 31.563 41.466 31.563 41.994C31.563 42.522 31.607 43.006 31.695 43.446C31.7976 43.886 31.937 44.282 32.113 44.634C32.3036 44.9713 32.531 45.2573 32.795 45.492C33.0736 45.7267 33.3963 45.91 33.763 46.042C34.1296 46.174 34.5403 46.24 34.995 46.24ZM47.4229 48V36.01H49.8649V41.598L55.2549 36.01H58.1589L52.5049 41.62L58.2909 48H55.2989L49.8649 42.038V48H47.4229ZM64.4741 48.22C63.7261 48.22 63.0441 48.1247 62.4281 47.934C61.8121 47.7433 61.2621 47.472 60.7781 47.12C60.2941 46.7533 59.8834 46.3207 59.5461 45.822C59.2234 45.3087 58.9741 44.7367 58.7981 44.106C58.6368 43.4607 58.5561 42.7567 58.5561 41.994C58.5561 41.2607 58.6368 40.5713 58.7981 39.926C58.9741 39.2807 59.2234 38.7013 59.5461 38.188C59.8834 37.6747 60.2941 37.242 60.7781 36.89C61.2621 36.5233 61.8121 36.252 62.4281 36.076C63.0441 35.8853 63.7261 35.79 64.4741 35.79C65.2368 35.79 65.9261 35.8853 66.5421 36.076C67.1728 36.252 67.7228 36.5233 68.1921 36.89C68.6761 37.242 69.0868 37.6747 69.4241 38.188C69.7614 38.7013 70.0108 39.2807 70.1721 39.926C70.3481 40.5713 70.4361 41.2607 70.4361 41.994C70.4361 42.7567 70.3481 43.4607 70.1721 44.106C70.0108 44.7367 69.7614 45.3087 69.4241 45.822C69.0868 46.3207 68.6761 46.7533 68.1921 47.12C67.7228 47.472 67.1728 47.7433 66.5421 47.934C65.9261 48.1247 65.2368 48.22 64.4741 48.22ZM64.4741 46.24C64.9581 46.24 65.3761 46.174 65.7281 46.042C66.0948 45.91 66.4174 45.7267 66.6961 45.492C66.9748 45.2573 67.2021 44.9713 67.3781 44.634C67.5688 44.282 67.7081 43.886 67.7961 43.446C67.8841 43.006 67.9281 42.522 67.9281 41.994C67.9281 41.466 67.8841 40.982 67.7961 40.542C67.7081 40.102 67.5688 39.7133 67.3781 39.376C67.2021 39.0387 66.9748 38.7527 66.6961 38.518C66.4174 38.2687 66.0948 38.0853 65.7281 37.968C65.3761 37.836 64.9581 37.77 64.4741 37.77C64.0194 37.77 63.6088 37.836 63.2421 37.968C62.8754 38.0853 62.5528 38.2687 62.2741 38.518C62.0101 38.7527 61.7828 39.046 61.5921 39.398C61.4014 39.7353 61.2621 40.124 61.1741 40.564C61.0861 40.9893 61.0421 41.466 61.0421 41.994C61.0421 42.522 61.0861 43.006 61.1741 43.446C61.2768 43.886 61.4161 44.282 61.5921 44.634C61.7828 44.9713 62.0101 45.2573 62.2741 45.492C62.5528 45.7267 62.8754 45.91 63.2421 46.042C63.6088 46.174 64.0194 46.24 64.4741 46.24ZM84.4147 48V38.958L80.8067 45.844H78.6067L74.9327 38.98V48H72.7547V36.01H75.5487L79.7067 43.776L83.7987 36.01H86.5927V48H84.4147ZM89.6852 48V36.01H100.333V48H97.8912V37.99H92.1272V48H89.6852ZM103.415 48V36.01H105.857V39.86H109.179C110.073 39.86 110.836 40.0287 111.467 40.366C112.097 40.7033 112.581 41.18 112.919 41.796C113.271 42.3973 113.447 43.116 113.447 43.952C113.447 44.568 113.344 45.1253 113.139 45.624C112.948 46.1227 112.669 46.548 112.303 46.9C111.936 47.252 111.489 47.5233 110.961 47.714C110.433 47.9047 109.839 48 109.179 48H103.415ZM105.857 41.686V46.174H108.695C109.193 46.174 109.619 46.0933 109.971 45.932C110.337 45.756 110.616 45.5067 110.807 45.184C110.997 44.8467 111.093 44.436 111.093 43.952C111.093 43.4533 110.997 43.0427 110.807 42.72C110.616 42.3827 110.337 42.126 109.971 41.95C109.619 41.774 109.193 41.686 108.695 41.686H105.857ZM115.296 48V36.01H117.738V40.872H119.762C119.806 40.5493 119.872 40.234 119.96 39.926C120.122 39.2807 120.364 38.7013 120.686 38.188C121.024 37.6747 121.434 37.242 121.918 36.89C122.402 36.5233 122.952 36.252 123.568 36.076C124.199 35.8853 124.888 35.79 125.636 35.79C126.399 35.79 127.088 35.8853 127.704 36.076C128.32 36.252 128.863 36.5233 129.332 36.89C129.816 37.242 130.227 37.6747 130.564 38.188C130.902 38.7013 131.151 39.2807 131.312 39.926C131.488 40.5713 131.576 41.2607 131.576 41.994C131.576 42.7567 131.488 43.4607 131.312 44.106C131.151 44.7367 130.902 45.3087 130.564 45.822C130.227 46.3207 129.816 46.7533 129.332 47.12C128.863 47.472 128.32 47.7433 127.704 47.934C127.088 48.1247 126.399 48.22 125.636 48.22C124.888 48.22 124.199 48.1247 123.568 47.934C122.952 47.7433 122.402 47.472 121.918 47.12C121.434 46.7533 121.024 46.3207 120.686 45.822C120.364 45.3087 120.122 44.7293 119.96 44.084C119.843 43.7027 119.77 43.292 119.74 42.852H117.738V48H115.296ZM125.636 46.24C126.106 46.24 126.524 46.1813 126.89 46.064C127.257 45.932 127.572 45.7487 127.836 45.514C128.115 45.2793 128.342 44.986 128.518 44.634C128.709 44.282 128.848 43.886 128.936 43.446C129.024 43.006 129.068 42.522 129.068 41.994C129.068 41.466 129.024 40.982 128.936 40.542C128.848 40.102 128.709 39.7133 128.518 39.376C128.342 39.0387 128.115 38.7527 127.836 38.518C127.572 38.2687 127.257 38.0853 126.89 37.968C126.524 37.836 126.106 37.77 125.636 37.77C125.182 37.77 124.764 37.836 124.382 37.968C124.016 38.0853 123.693 38.2687 123.414 38.518C123.15 38.7527 122.923 39.046 122.732 39.398C122.542 39.7353 122.402 40.124 122.314 40.564C122.241 40.9893 122.204 41.466 122.204 41.994C122.204 42.522 122.248 43.006 122.336 43.446C122.424 43.886 122.556 44.282 122.732 44.634C122.923 44.986 123.15 45.2793 123.414 45.514C123.693 45.7487 124.016 45.932 124.382 46.064C124.764 46.1813 125.182 46.24 125.636 46.24ZM136.301 48V37.99H132.275V36.01H142.769V37.99H138.743V48H136.301ZM149.539 48.22C148.776 48.22 148.072 48.1247 147.427 47.934C146.796 47.7287 146.239 47.45 145.755 47.098C145.271 46.7313 144.86 46.2913 144.523 45.778C144.186 45.2647 143.929 44.6927 143.753 44.062C143.577 43.4167 143.489 42.7273 143.489 41.994C143.489 41.2607 143.57 40.5787 143.731 39.948C143.907 39.3173 144.164 38.7527 144.501 38.254C144.838 37.7407 145.242 37.3007 145.711 36.934C146.195 36.5673 146.752 36.2887 147.383 36.098C148.014 35.8927 148.71 35.79 149.473 35.79C150.338 35.79 151.123 35.9293 151.827 36.208C152.531 36.4867 153.132 36.89 153.631 37.418C154.144 37.9313 154.533 38.5473 154.797 39.266C155.076 39.97 155.215 40.762 155.215 41.642C155.215 41.818 155.208 41.994 155.193 42.17C155.178 42.3313 155.149 42.4927 155.105 42.654H145.887C145.902 42.918 145.938 43.1747 145.997 43.424C146.085 43.8787 146.224 44.282 146.415 44.634C146.62 44.9713 146.87 45.272 147.163 45.536C147.456 45.7853 147.801 45.976 148.197 46.108C148.593 46.24 149.04 46.306 149.539 46.306C150.155 46.306 150.683 46.218 151.123 46.042C151.578 45.866 151.952 45.6167 152.245 45.294C152.538 44.9567 152.751 44.5533 152.883 44.084L155.127 44.48C154.922 45.2573 154.584 45.932 154.115 46.504C153.646 47.0613 153.03 47.4867 152.267 47.78C151.504 48.0733 150.595 48.22 149.539 48.22ZM145.931 40.894H152.905C152.876 40.5273 152.802 40.19 152.685 39.882C152.538 39.4273 152.311 39.0387 152.003 38.716C151.71 38.3933 151.35 38.144 150.925 37.968C150.514 37.792 150.038 37.704 149.495 37.704C149.011 37.704 148.571 37.77 148.175 37.902C147.794 38.0193 147.456 38.2027 147.163 38.452C146.884 38.7013 146.642 39.002 146.437 39.354C146.232 39.706 146.085 40.102 145.997 40.542C145.968 40.6593 145.946 40.7767 145.931 40.894ZM159.542 36.01L159.718 38.232C159.865 37.9973 160.019 37.7847 160.18 37.594C160.62 37.022 161.156 36.582 161.786 36.274C162.432 35.9513 163.15 35.79 163.942 35.79C164.588 35.79 165.182 35.8927 165.724 36.098C166.282 36.2887 166.773 36.5673 167.198 36.934C167.638 37.3007 168.005 37.7407 168.298 38.254C168.606 38.7673 168.841 39.3393 169.002 39.97C169.164 40.6007 169.244 41.2753 169.244 41.994C169.244 42.7273 169.164 43.4093 169.002 44.04C168.841 44.6707 168.606 45.2427 168.298 45.756C168.005 46.2693 167.638 46.7093 167.198 47.076C166.773 47.4427 166.282 47.7287 165.724 47.934C165.182 48.1247 164.588 48.22 163.942 48.22C163.15 48.22 162.432 48.066 161.786 47.758C161.156 47.4353 160.62 46.9953 160.18 46.438C160.063 46.2913 159.953 46.1373 159.85 45.976V52.4H157.408V36.01H159.542ZM163.304 46.196C163.744 46.196 164.148 46.13 164.514 45.998C164.881 45.866 165.204 45.6753 165.482 45.426C165.761 45.1767 165.988 44.876 166.164 44.524C166.355 44.172 166.494 43.7907 166.582 43.38C166.685 42.9547 166.736 42.5 166.736 42.016C166.736 41.5173 166.685 41.0553 166.582 40.63C166.494 40.2047 166.355 39.8233 166.164 39.486C165.988 39.134 165.761 38.8333 165.482 38.584C165.204 38.3347 164.881 38.144 164.514 38.012C164.148 37.88 163.744 37.814 163.304 37.814C162.586 37.814 161.97 37.9973 161.456 38.364C160.943 38.716 160.547 39.2073 160.268 39.838C159.99 40.4687 159.85 41.1947 159.85 42.016C159.85 42.6173 159.924 43.1747 160.07 43.688C160.232 44.2013 160.459 44.6487 160.752 45.03C161.06 45.3967 161.427 45.6827 161.852 45.888C162.278 46.0933 162.762 46.196 163.304 46.196ZM171.546 48V36.01H173.988V40.718H179.928V36.01H182.348V48H179.928V42.698H173.988V48H171.546ZM185.447 48V36.01H187.889V39.86H191.211C192.106 39.86 192.868 40.0287 193.499 40.366C194.13 40.7033 194.614 41.18 194.951 41.796C195.303 42.3973 195.479 43.116 195.479 43.952C195.479 44.568 195.376 45.1253 195.171 45.624C194.98 46.1227 194.702 46.548 194.335 46.9C193.968 47.252 193.521 47.5233 192.993 47.714C192.465 47.9047 191.871 48 191.211 48H185.447ZM196.997 48V36.01H199.439V48H196.997ZM187.889 41.686V46.174H190.727C191.226 46.174 191.651 46.0933 192.003 45.932C192.37 45.756 192.648 45.5067 192.839 45.184C193.03 44.8467 193.125 44.436 193.125 43.952C193.125 43.4533 193.03 43.0427 192.839 42.72C192.648 42.3827 192.37 42.126 192.003 41.95C191.651 41.774 191.226 41.686 190.727 41.686H187.889ZM202.55 48V36.01H204.926V44.722L210.734 36.01H213.11V48H210.734V39.288L204.926 48H202.55ZM209.832 31.346H211.768C211.768 31.8593 211.672 32.3287 211.482 32.754C211.306 33.1647 211.042 33.5167 210.69 33.81C210.352 34.1033 209.949 34.3307 209.48 34.492C209.01 34.6533 208.482 34.734 207.896 34.734C207.338 34.734 206.818 34.6533 206.334 34.492C205.85 34.3307 205.439 34.1033 205.102 33.81C204.764 33.5167 204.5 33.1647 204.31 32.754C204.119 32.3287 204.024 31.8593 204.024 31.346H205.96C205.96 31.9327 206.136 32.3947 206.488 32.732C206.84 33.0693 207.309 33.238 207.896 33.238C208.292 33.238 208.636 33.1647 208.93 33.018C209.223 32.8567 209.443 32.6367 209.59 32.358C209.751 32.0793 209.832 31.742 209.832 31.346ZM220.34 48V36.01H222.782V41.598L228.172 36.01H231.076L225.422 41.62L231.208 48H228.216L222.782 42.038V48H220.34ZM230.893 46.174C231.201 46.1593 231.479 46.108 231.729 46.02C231.978 45.9173 232.183 45.7633 232.345 45.558C232.594 45.2647 232.777 44.8393 232.895 44.282C233.012 43.71 233.093 42.962 233.137 42.038C233.181 41.0993 233.217 39.9407 233.247 38.562V36.01H242.223V48H239.803V37.99H235.557L235.535 38.848C235.52 40.4027 235.461 41.708 235.359 42.764C235.256 43.82 235.102 44.678 234.897 45.338C234.706 45.998 234.442 46.526 234.105 46.922C233.738 47.3767 233.305 47.692 232.807 47.868C232.308 48.0293 231.707 48.1173 231.003 48.132L230.893 46.174ZM252.72 36.01H255.14L250.212 48.77C249.948 49.4593 249.677 50.046 249.398 50.53C249.134 51.014 248.834 51.41 248.496 51.718C248.174 52.026 247.8 52.2533 247.374 52.4C246.964 52.5467 246.502 52.62 245.988 52.62C245.724 52.62 245.468 52.598 245.218 52.554C244.969 52.5247 244.749 52.4733 244.558 52.4L244.448 50.53C244.61 50.574 244.771 50.6033 244.932 50.618C245.094 50.6327 245.255 50.64 245.416 50.64C245.783 50.64 246.098 50.5887 246.362 50.486C246.641 50.398 246.883 50.244 247.088 50.024C247.308 49.8187 247.514 49.5327 247.704 49.166C247.895 48.814 248.1 48.374 248.32 47.846L248.386 47.67L243.568 36.01H246.12L249.53 44.964L252.72 36.01ZM261.937 48.22C260.983 48.22 260.133 48.066 259.385 47.758C258.651 47.45 258.035 47.0027 257.537 46.416C257.038 45.8293 256.657 45.118 256.393 44.282C256.143 43.4313 256.019 42.4707 256.019 41.4V40.432C256.019 38.9213 256.151 37.6233 256.415 36.538C256.679 35.4527 257.089 34.5653 257.647 33.876C258.204 33.172 258.915 32.644 259.781 32.292C260.646 31.9253 261.687 31.7053 262.905 31.632L265.039 31.478C265.405 31.4487 265.728 31.412 266.007 31.368C266.285 31.324 266.571 31.2653 266.865 31.192L267.041 33.172C266.762 33.2747 266.454 33.3553 266.117 33.414C265.794 33.4727 265.427 33.5167 265.017 33.546L262.883 33.678C262.076 33.7367 261.372 33.8833 260.771 34.118C260.184 34.3527 259.7 34.712 259.319 35.196C258.937 35.6653 258.659 36.296 258.483 37.088C258.38 37.572 258.307 38.1293 258.263 38.76C258.556 38.2173 258.93 37.7553 259.385 37.374C259.839 36.978 260.353 36.6773 260.925 36.472C261.497 36.2667 262.12 36.164 262.795 36.164C263.455 36.164 264.056 36.2593 264.599 36.45C265.141 36.6407 265.618 36.912 266.029 37.264C266.439 37.6013 266.784 38.0193 267.063 38.518C267.341 39.002 267.554 39.552 267.701 40.168C267.847 40.784 267.921 41.4513 267.921 42.17C267.921 42.9033 267.833 43.5853 267.657 44.216C267.481 44.832 267.217 45.3893 266.865 45.888C266.513 46.372 266.087 46.79 265.589 47.142C265.105 47.494 264.555 47.7653 263.939 47.956C263.337 48.132 262.67 48.22 261.937 48.22ZM261.937 46.24C262.391 46.24 262.802 46.1813 263.169 46.064C263.535 45.932 263.858 45.756 264.137 45.536C264.415 45.316 264.65 45.0373 264.841 44.7C265.046 44.3627 265.193 43.9813 265.281 43.556C265.383 43.1307 265.435 42.6613 265.435 42.148C265.435 41.6347 265.391 41.1653 265.303 40.74C265.215 40.3147 265.083 39.9333 264.907 39.596C264.745 39.2587 264.525 38.98 264.247 38.76C263.983 38.5253 263.675 38.3493 263.323 38.232C262.971 38.1 262.567 38.034 262.113 38.034C261.687 38.034 261.291 38.0927 260.925 38.21C260.558 38.3273 260.228 38.5033 259.935 38.738C259.656 38.958 259.414 39.2367 259.209 39.574C259.003 39.8967 258.842 40.278 258.725 40.718C258.622 41.1433 258.571 41.6127 258.571 42.126C258.571 42.6393 258.615 43.1087 258.703 43.534C258.791 43.9593 258.923 44.3407 259.099 44.678C259.275 45.0007 259.502 45.2793 259.781 45.514C260.059 45.7487 260.375 45.932 260.727 46.064C261.079 46.1813 261.482 46.24 261.937 46.24ZM273.563 39.662C273.666 39.0167 273.864 38.452 274.157 37.968C274.451 37.484 274.817 37.0807 275.257 36.758C275.697 36.4353 276.211 36.1933 276.797 36.032C277.399 35.8707 278.059 35.79 278.777 35.79C279.555 35.79 280.244 35.878 280.845 36.054C281.461 36.23 281.975 36.5087 282.385 36.89C282.811 37.2567 283.133 37.726 283.353 38.298C283.573 38.8553 283.683 39.53 283.683 40.322V45.426C283.683 45.646 283.713 45.8293 283.771 45.976C283.845 46.108 283.94 46.2033 284.057 46.262C284.189 46.3207 284.343 46.35 284.519 46.35C284.578 46.35 284.644 46.35 284.717 46.35C284.791 46.3353 284.842 46.328 284.871 46.328L284.805 48C284.673 48.0587 284.505 48.1027 284.299 48.132C284.109 48.1613 283.947 48.176 283.815 48.176C283.287 48.176 282.847 48.0953 282.495 47.934C282.158 47.758 281.909 47.5013 281.747 47.164C281.586 46.8413 281.498 46.4453 281.483 45.976C281.41 46.0933 281.329 46.2107 281.241 46.328C280.933 46.724 280.574 47.0687 280.163 47.362C279.753 47.6407 279.298 47.8533 278.799 48C278.315 48.1467 277.787 48.22 277.215 48.22C276.379 48.22 275.653 48.0807 275.037 47.802C274.436 47.5233 273.967 47.12 273.629 46.592C273.307 46.064 273.145 45.4407 273.145 44.722C273.145 44.0033 273.307 43.3873 273.629 42.874C273.952 42.346 274.443 41.9353 275.103 41.642C275.763 41.334 276.599 41.1287 277.611 41.026L281.461 40.652V40.454C281.461 39.9553 281.395 39.53 281.263 39.178C281.146 38.826 280.97 38.54 280.735 38.32C280.501 38.0853 280.215 37.9167 279.877 37.814C279.54 37.7113 279.151 37.66 278.711 37.66C278.169 37.66 277.685 37.748 277.259 37.924C276.834 38.0853 276.497 38.342 276.247 38.694C276.013 39.0313 275.866 39.4567 275.807 39.97L273.563 39.662ZM281.483 42.324L277.853 42.698C277.311 42.7567 276.863 42.8667 276.511 43.028C276.159 43.1893 275.888 43.402 275.697 43.666C275.521 43.9153 275.433 44.216 275.433 44.568C275.433 44.9347 275.514 45.25 275.675 45.514C275.837 45.778 276.079 45.9833 276.401 46.13C276.739 46.262 277.142 46.328 277.611 46.328C278.051 46.328 278.462 46.2693 278.843 46.152C279.239 46.0347 279.599 45.8733 279.921 45.668C280.244 45.4627 280.523 45.2207 280.757 44.942C280.992 44.6633 281.168 44.348 281.285 43.996C281.417 43.644 281.483 43.2773 281.483 42.896V42.324ZM286.56 48V36.01H292.544C293.351 36.01 294.04 36.1273 294.612 36.362C295.199 36.5967 295.646 36.9413 295.954 37.396C296.277 37.8507 296.438 38.4153 296.438 39.09C296.438 39.5007 296.372 39.8673 296.24 40.19C296.123 40.5127 295.947 40.7913 295.712 41.026C295.492 41.2607 295.214 41.4587 294.876 41.62C294.759 41.6787 294.642 41.73 294.524 41.774C294.818 41.862 295.096 41.9793 295.36 42.126C295.844 42.4047 296.218 42.7713 296.482 43.226C296.761 43.6807 296.9 44.2087 296.9 44.81C296.9 45.4993 296.739 46.086 296.416 46.57C296.094 47.0393 295.632 47.3987 295.03 47.648C294.429 47.8827 293.71 48 292.874 48H286.56ZM288.936 42.698V46.218H292.434C292.874 46.218 293.248 46.152 293.556 46.02C293.864 45.888 294.099 45.7047 294.26 45.47C294.436 45.2207 294.524 44.9053 294.524 44.524C294.524 44.128 294.429 43.798 294.238 43.534C294.062 43.2553 293.813 43.05 293.49 42.918C293.168 42.7713 292.801 42.698 292.39 42.698H288.936ZM288.936 37.792V40.982H292.214C292.581 40.982 292.904 40.9233 293.182 40.806C293.476 40.674 293.703 40.4833 293.864 40.234C294.026 39.9847 294.106 39.6767 294.106 39.31C294.106 38.8113 293.93 38.4373 293.578 38.188C293.241 37.924 292.779 37.792 292.192 37.792H288.936ZM301.464 48V37.99H297.438V36.01H307.932V37.99H303.906V48H301.464ZM314.569 48.22C313.821 48.22 313.139 48.1247 312.523 47.934C311.907 47.7433 311.357 47.472 310.873 47.12C310.389 46.7533 309.979 46.3207 309.641 45.822C309.319 45.3087 309.069 44.7367 308.893 44.106C308.732 43.4607 308.651 42.7567 308.651 41.994C308.651 41.2607 308.732 40.5713 308.893 39.926C309.069 39.2807 309.319 38.7013 309.641 38.188C309.979 37.6747 310.389 37.242 310.873 36.89C311.357 36.5233 311.907 36.252 312.523 36.076C313.139 35.8853 313.821 35.79 314.569 35.79C315.332 35.79 316.021 35.8853 316.637 36.076C317.268 36.252 317.818 36.5233 318.287 36.89C318.771 37.242 319.182 37.6747 319.519 38.188C319.857 38.7013 320.106 39.2807 320.267 39.926C320.443 40.5713 320.531 41.2607 320.531 41.994C320.531 42.7567 320.443 43.4607 320.267 44.106C320.106 44.7367 319.857 45.3087 319.519 45.822C319.182 46.3207 318.771 46.7533 318.287 47.12C317.818 47.472 317.268 47.7433 316.637 47.934C316.021 48.1247 315.332 48.22 314.569 48.22ZM314.569 46.24C315.053 46.24 315.471 46.174 315.823 46.042C316.19 45.91 316.513 45.7267 316.791 45.492C317.07 45.2573 317.297 44.9713 317.473 44.634C317.664 44.282 317.803 43.886 317.891 43.446C317.979 43.006 318.023 42.522 318.023 41.994C318.023 41.466 317.979 40.982 317.891 40.542C317.803 40.102 317.664 39.7133 317.473 39.376C317.297 39.0387 317.07 38.7527 316.791 38.518C316.513 38.2687 316.19 38.0853 315.823 37.968C315.471 37.836 315.053 37.77 314.569 37.77C314.115 37.77 313.704 37.836 313.337 37.968C312.971 38.0853 312.648 38.2687 312.369 38.518C312.105 38.7527 311.878 39.046 311.687 39.398C311.497 39.7353 311.357 40.124 311.269 40.564C311.181 40.9893 311.137 41.466 311.137 41.994C311.137 42.522 311.181 43.006 311.269 43.446C311.372 43.886 311.511 44.282 311.687 44.634C311.878 44.9713 312.105 45.2573 312.369 45.492C312.648 45.7267 312.971 45.91 313.337 46.042C313.704 46.174 314.115 46.24 314.569 46.24ZM324.984 36.01L325.16 38.232C325.307 37.9973 325.461 37.7847 325.622 37.594C326.062 37.022 326.597 36.582 327.228 36.274C327.873 35.9513 328.592 35.79 329.384 35.79C330.029 35.79 330.623 35.8927 331.166 36.098C331.723 36.2887 332.215 36.5673 332.64 36.934C333.08 37.3007 333.447 37.7407 333.74 38.254C334.048 38.7673 334.283 39.3393 334.444 39.97C334.605 40.6007 334.686 41.2753 334.686 41.994C334.686 42.7273 334.605 43.4093 334.444 44.04C334.283 44.6707 334.048 45.2427 333.74 45.756C333.447 46.2693 333.08 46.7093 332.64 47.076C332.215 47.4427 331.723 47.7287 331.166 47.934C330.623 48.1247 330.029 48.22 329.384 48.22C328.592 48.22 327.873 48.066 327.228 47.758C326.597 47.4353 326.062 46.9953 325.622 46.438C325.505 46.2913 325.395 46.1373 325.292 45.976V52.4H322.85V36.01H324.984ZM328.746 46.196C329.186 46.196 329.589 46.13 329.956 45.998C330.323 45.866 330.645 45.6753 330.924 45.426C331.203 45.1767 331.43 44.876 331.606 44.524C331.797 44.172 331.936 43.7907 332.024 43.38C332.127 42.9547 332.178 42.5 332.178 42.016C332.178 41.5173 332.127 41.0553 332.024 40.63C331.936 40.2047 331.797 39.8233 331.606 39.486C331.43 39.134 331.203 38.8333 330.924 38.584C330.645 38.3347 330.323 38.144 329.956 38.012C329.589 37.88 329.186 37.814 328.746 37.814C328.027 37.814 327.411 37.9973 326.898 38.364C326.385 38.716 325.989 39.2073 325.71 39.838C325.431 40.4687 325.292 41.1947 325.292 42.016C325.292 42.6173 325.365 43.1747 325.512 43.688C325.673 44.2013 325.901 44.6487 326.194 45.03C326.502 45.3967 326.869 45.6827 327.294 45.888C327.719 46.0933 328.203 46.196 328.746 46.196ZM336.152 39.662C336.254 39.0167 336.452 38.452 336.746 37.968C337.039 37.484 337.406 37.0807 337.846 36.758C338.286 36.4353 338.799 36.1933 339.386 36.032C339.987 35.8707 340.647 35.79 341.366 35.79C342.143 35.79 342.832 35.878 343.434 36.054C344.05 36.23 344.563 36.5087 344.974 36.89C345.399 37.2567 345.722 37.726 345.942 38.298C346.162 38.8553 346.272 39.53 346.272 40.322V45.426C346.272 45.646 346.301 45.8293 346.36 45.976C346.433 46.108 346.528 46.2033 346.646 46.262C346.778 46.3207 346.932 46.35 347.108 46.35C347.166 46.35 347.232 46.35 347.306 46.35C347.379 46.3353 347.43 46.328 347.46 46.328L347.394 48C347.262 48.0587 347.093 48.1027 346.888 48.132C346.697 48.1613 346.536 48.176 346.404 48.176C345.876 48.176 345.436 48.0953 345.084 47.934C344.746 47.758 344.497 47.5013 344.336 47.164C344.174 46.8413 344.086 46.4453 344.072 45.976C343.998 46.0933 343.918 46.2107 343.83 46.328C343.522 46.724 343.162 47.0687 342.752 47.362C342.341 47.6407 341.886 47.8533 341.388 48C340.904 48.1467 340.376 48.22 339.804 48.22C338.968 48.22 338.242 48.0807 337.626 47.802C337.024 47.5233 336.555 47.12 336.218 46.592C335.895 46.064 335.734 45.4407 335.734 44.722C335.734 44.0033 335.895 43.3873 336.218 42.874C336.54 42.346 337.032 41.9353 337.692 41.642C338.352 41.334 339.188 41.1287 340.2 41.026L344.05 40.652V40.454C344.05 39.9553 343.984 39.53 343.852 39.178C343.734 38.826 343.558 38.54 343.324 38.32C343.089 38.0853 342.803 37.9167 342.466 37.814C342.128 37.7113 341.74 37.66 341.3 37.66C340.757 37.66 340.273 37.748 339.848 37.924C339.422 38.0853 339.085 38.342 338.836 38.694C338.601 39.0313 338.454 39.4567 338.396 39.97L336.152 39.662ZM344.072 42.324L340.442 42.698C339.899 42.7567 339.452 42.8667 339.1 43.028C338.748 43.1893 338.476 43.402 338.286 43.666C338.11 43.9153 338.022 44.216 338.022 44.568C338.022 44.9347 338.102 45.25 338.264 45.514C338.425 45.778 338.667 45.9833 338.99 46.13C339.327 46.262 339.73 46.328 340.2 46.328C340.64 46.328 341.05 46.2693 341.432 46.152C341.828 46.0347 342.187 45.8733 342.51 45.668C342.832 45.4627 343.111 45.2207 343.346 44.942C343.58 44.6633 343.756 44.348 343.874 43.996C344.006 43.644 344.072 43.2773 344.072 42.896V42.324Z" fill="black"/>
</svg>
