<svg width="388" height="58" viewBox="0 0 388 58" fill="none" xmlns="http://www.w3.org/2000/svg">
<rect x="0.5" y="0.5" width="387" height="57" fill="white" stroke="black"/>
<path d="M8.80985 32.616C8.80985 31.448 9.00185 30.336 9.38585 29.28C9.78585 28.208 10.3538 27.232 11.0898 26.352C11.8258 25.456 12.7138 24.68 13.7538 24.024C14.7938 23.352 15.9698 22.84 17.2818 22.488C18.6098 22.12 20.0418 21.936 21.5778 21.936C23.3698 21.936 24.9058 22.16 26.1858 22.608C27.4658 23.056 28.4498 23.712 29.1378 24.576C29.8418 25.44 30.1938 26.504 30.1938 27.768L26.0658 28.584C26.0658 27.832 25.8898 27.2 25.5378 26.688C25.1858 26.176 24.6418 25.792 23.9058 25.536C23.1858 25.264 22.2658 25.128 21.1458 25.128C20.1218 25.128 19.1778 25.256 18.3138 25.512C17.4658 25.768 16.7058 26.12 16.0338 26.568C15.3778 27.016 14.8178 27.536 14.3538 28.128C13.9058 28.72 13.5618 29.36 13.3218 30.048C13.0978 30.72 12.9858 31.424 12.9858 32.16C12.9858 32.64 13.0498 33.08 13.1778 33.48C13.3058 33.88 13.4978 34.24 13.7538 34.56C14.0098 34.88 14.3378 35.152 14.7378 35.376C15.1378 35.6 15.6178 35.776 16.1778 35.904C16.7538 36.016 17.4098 36.072 18.1458 36.072C19.2498 36.072 20.2338 35.944 21.0978 35.688C21.9778 35.416 22.7298 35.016 23.3538 34.488C23.9938 33.96 24.5058 33.296 24.8898 32.496L28.8258 33.312C28.2018 34.656 27.3858 35.768 26.3778 36.648C25.3858 37.528 24.1698 38.184 22.7298 38.616C21.3058 39.048 19.6178 39.264 17.6658 39.264C16.6898 39.264 15.7938 39.192 14.9778 39.048C14.1778 38.92 13.4498 38.728 12.7938 38.472C12.1378 38.2 11.5618 37.88 11.0658 37.512C10.5698 37.128 10.1538 36.688 9.81785 36.192C9.48185 35.696 9.22585 35.152 9.04985 34.56C8.88985 33.952 8.80985 33.304 8.80985 32.616ZM28.326 35.856C28.95 35.824 29.518 35.72 30.03 35.544C30.542 35.352 31.014 35.024 31.446 34.56C31.702 34.304 31.934 34.008 32.142 33.672C32.35 33.32 32.558 32.896 32.766 32.4C32.99 31.904 33.214 31.312 33.438 30.624C33.678 29.936 33.934 29.128 34.206 28.2C34.494 27.272 34.822 26.2 35.19 24.984L36.006 22.2H52.518L48.006 39H43.974L47.622 25.392H39.078V25.44C38.63 26.912 38.23 28.216 37.878 29.352C37.526 30.472 37.19 31.456 36.87 32.304C36.566 33.136 36.262 33.872 35.958 34.512C35.654 35.136 35.326 35.688 34.974 36.168C34.638 36.632 34.254 37.064 33.822 37.464C33.326 37.928 32.774 38.296 32.166 38.568C31.574 38.84 30.91 39.024 30.174 39.12C29.454 39.232 28.646 39.264 27.75 39.216L28.326 35.856ZM52.1057 39L56.6177 22.2H72.9137L72.0737 25.272H59.7617L58.8017 28.92H69.7217L68.9057 31.944H57.9857L56.9057 35.928H69.4097L68.5937 39H52.1057ZM68.0831 43.008L70.0031 35.808H71.6351C71.8591 35.648 72.0751 35.472 72.2831 35.28C72.6831 34.928 73.0591 34.496 73.4111 33.984C73.7631 33.472 74.1151 32.824 74.4671 32.04C74.8191 31.256 75.1871 30.288 75.5711 29.136C75.9711 27.984 76.4111 26.592 76.8911 24.96L77.7071 22.2H93.8831L90.2351 35.808H92.5151L90.5951 43.008H86.7551L87.8351 39H72.9791L71.9231 43.008H68.0831ZM75.9071 35.808H86.2511L89.0591 25.392H80.7311C80.4591 26.32 80.2031 27.152 79.9631 27.888C79.6911 28.768 79.4271 29.552 79.1711 30.24C78.9311 30.928 78.6911 31.552 78.4511 32.112C78.2111 32.656 77.9551 33.16 77.6831 33.624C77.1871 34.472 76.5951 35.2 75.9071 35.808ZM96.2799 39L100.768 33.96L95.7519 22.2H100.096L103.696 30.672L111.304 22.2H116.056L101.104 39H96.2799ZM130.826 39.264C129.642 39.264 128.578 39.168 127.634 38.976C126.706 38.784 125.882 38.504 125.162 38.136C124.442 37.752 123.842 37.296 123.362 36.768C122.882 36.224 122.522 35.608 122.282 34.92C122.042 34.232 121.922 33.48 121.922 32.664C121.922 32.424 121.93 32.184 121.946 31.944H119.138L117.266 39H113.21L117.722 22.2H121.778L119.978 28.824H122.69C123.058 27.944 123.546 27.128 124.154 26.376C124.89 25.48 125.786 24.704 126.842 24.048C127.898 23.376 129.098 22.856 130.442 22.488C131.786 22.12 133.266 21.936 134.882 21.936C136.034 21.936 137.082 22.04 138.026 22.248C138.97 22.44 139.802 22.728 140.522 23.112C141.242 23.496 141.842 23.96 142.322 24.504C142.802 25.032 143.162 25.64 143.402 26.328C143.658 27.016 143.786 27.768 143.786 28.584C143.786 29.72 143.594 30.816 143.21 31.872C142.842 32.928 142.298 33.904 141.578 34.8C140.858 35.696 139.97 36.48 138.914 37.152C137.858 37.808 136.65 38.328 135.29 38.712C133.946 39.08 132.458 39.264 130.826 39.264ZM131.402 36.072C132.41 36.072 133.338 35.944 134.186 35.688C135.05 35.432 135.818 35.08 136.49 34.632C137.162 34.184 137.73 33.664 138.194 33.072C138.658 32.464 139.01 31.824 139.25 31.152C139.49 30.464 139.61 29.752 139.61 29.016C139.61 28.552 139.546 28.12 139.418 27.72C139.306 27.32 139.114 26.96 138.842 26.64C138.586 26.32 138.25 26.048 137.834 25.824C137.418 25.6 136.914 25.432 136.322 25.32C135.73 25.192 135.042 25.128 134.258 25.128C133.234 25.128 132.298 25.264 131.45 25.536C130.602 25.792 129.842 26.152 129.17 26.616C128.514 27.064 127.954 27.592 127.49 28.2C127.026 28.792 126.674 29.44 126.434 30.144C126.21 30.832 126.098 31.536 126.098 32.256C126.098 32.72 126.154 33.152 126.266 33.552C126.378 33.952 126.562 34.304 126.818 34.608C127.074 34.912 127.402 35.176 127.802 35.4C128.218 35.608 128.722 35.776 129.314 35.904C129.906 36.016 130.602 36.072 131.402 36.072ZM169.012 43.008L170.092 39H144.148L148.66 22.2H152.716L149.044 35.808H156.844L160.492 22.2H164.524L160.876 35.808H168.652L172.3 22.2H176.356L172.684 35.808H174.772L172.852 43.008H169.012ZM179.983 39H176.071L180.583 22.2H184.495L181.351 33.84L195.799 22.2H199.711L195.199 39H191.287L194.407 27.384L179.983 39ZM203.187 39H199.275L203.787 22.2H207.699L204.555 33.84L219.003 22.2H222.915L218.403 39H214.491L217.611 27.384L203.187 39ZM217.611 16.488H221.283C221.123 17.352 220.835 18.096 220.419 18.72C220.003 19.344 219.475 19.856 218.835 20.256C218.195 20.656 217.467 20.952 216.651 21.144C215.851 21.336 214.987 21.432 214.059 21.432C213.051 21.432 212.171 21.32 211.419 21.096C210.667 20.856 210.059 20.52 209.595 20.088C209.147 19.64 208.851 19.12 208.707 18.528C208.579 17.92 208.627 17.24 208.851 16.488H212.331C212.203 16.968 212.203 17.376 212.331 17.712C212.459 18.048 212.699 18.304 213.051 18.48C213.419 18.64 213.875 18.72 214.419 18.72C214.947 18.72 215.435 18.64 215.883 18.48C216.331 18.304 216.699 18.056 216.987 17.736C217.291 17.4 217.499 16.984 217.611 16.488ZM228.152 39L232.664 22.2H251.792L247.28 39H243.224L246.896 25.392H235.856L232.208 39H228.152ZM249.796 35.856C250.42 35.824 250.988 35.72 251.5 35.544C252.012 35.352 252.484 35.024 252.916 34.56C253.172 34.304 253.404 34.008 253.612 33.672C253.82 33.32 254.028 32.896 254.236 32.4C254.46 31.904 254.684 31.312 254.908 30.624C255.148 29.936 255.404 29.128 255.676 28.2C255.964 27.272 256.292 26.2 256.66 24.984L257.476 22.2H273.988L269.476 39H265.444L269.092 25.392H260.548V25.44C260.1 26.912 259.7 28.216 259.348 29.352C258.996 30.472 258.66 31.456 258.34 32.304C258.036 33.136 257.732 33.872 257.428 34.512C257.124 35.136 256.796 35.688 256.444 36.168C256.108 36.632 255.724 37.064 255.292 37.464C254.796 37.928 254.244 38.296 253.636 38.568C253.044 38.84 252.38 39.024 251.644 39.12C250.924 39.232 250.116 39.264 249.22 39.216L249.796 35.856ZM289.344 39L288.408 35.4H278.52L275.664 39H271.2L284.712 22.2H288.84L293.376 39H289.344ZM287.616 32.376L285.984 26.016L280.944 32.376H287.616ZM295.046 39L299.558 22.2H303.542L301.55 29.616L312.902 22.2H318.686L305.894 30.504L314.51 39H309.254L301.166 31.08L299.03 39H295.046ZM331.791 39L330.855 35.4H320.967L318.111 39H313.647L327.159 22.2H331.287L335.823 39H331.791ZM330.063 32.376L328.431 26.016L323.391 32.376H330.063ZM340.293 39L343.941 25.392H336.573L337.461 22.2H356.229L355.365 25.392H347.973L344.325 39H340.293ZM369.629 39.192L374.837 33.216H360.029V30.384H374.837L369.629 24.408H373.949L380.525 31.8L373.949 39.192H369.629Z" fill="black"/>
</svg>
