<svg width="92" height="89" viewBox="0 0 92 89" fill="none" xmlns="http://www.w3.org/2000/svg">
<path d="M16.1516 74.3791C14.6986 74.6653 13.4494 73.328 13.8337 71.8978L21.039 45.0814C21.452 43.5443 23.4078 43.0821 24.4653 44.2717L43.6771 65.885C44.705 67.0414 44.0869 68.877 42.5688 69.176L16.1516 74.3791Z" fill="black"/>
<path d="M54.501 0C75.2117 0 92.001 16.7893 92.001 37.5C92.001 58.2107 75.2117 75 54.501 75C47.1482 75 40.2895 72.8841 34.501 69.2275C28.0991 65.1835 23.0061 59.255 20.001 52.2217C18.0699 47.702 17.001 42.7257 17.001 37.5C17.001 16.7893 33.7903 0 54.501 0ZM40 34C37.7909 34 36 35.7909 36 38C36 40.2091 37.7909 42 40 42C42.2091 42 44 40.2091 44 38C44 35.7909 42.2091 34 40 34ZM55 34C52.7909 34 51 35.7909 51 38C51 40.2091 52.7909 42 55 42C57.2091 42 59 40.2091 59 38C59 35.7909 57.2091 34 55 34ZM70 34C67.7909 34 66 35.7909 66 38C66 40.2091 67.7909 42 70 42C72.2091 42 74 40.2091 74 38C74 35.7909 72.2091 34 70 34Z" fill="black"/>
<path d="M54.501 0C75.2117 0 92.001 16.7893 92.001 37.5C92.001 58.2107 75.2117 75 54.501 75C47.1482 75 40.2895 72.8841 34.501 69.2275C28.0991 65.1835 23.0061 59.255 20.001 52.2217C18.0699 47.702 17.001 42.7257 17.001 37.5C17.001 16.7893 33.7903 0 54.501 0ZM40 34C37.7909 34 36 35.7909 36 38C36 40.2091 37.7909 42 40 42C42.2091 42 44 40.2091 44 38C44 35.7909 42.2091 34 40 34ZM55 34C52.7909 34 51 35.7909 51 38C51 40.2091 52.7909 42 55 42C57.2091 42 59 40.2091 59 38C59 35.7909 57.2091 34 55 34ZM70 34C67.7909 34 66 35.7909 66 38C66 40.2091 67.7909 42 70 42C72.2091 42 74 40.2091 74 38C74 35.7909 72.2091 34 70 34Z" fill="black" fill-opacity="0.2"/>
<path d="M54.501 0C75.2117 0 92.001 16.7893 92.001 37.5C92.001 58.2107 75.2117 75 54.501 75C47.1482 75 40.2895 72.8841 34.501 69.2275C28.0991 65.1835 23.0061 59.255 20.001 52.2217C18.0699 47.702 17.001 42.7257 17.001 37.5C17.001 16.7893 33.7903 0 54.501 0ZM40 34C37.7909 34 36 35.7909 36 38C36 40.2091 37.7909 42 40 42C42.2091 42 44 40.2091 44 38C44 35.7909 42.2091 34 40 34ZM55 34C52.7909 34 51 35.7909 51 38C51 40.2091 52.7909 42 55 42C57.2091 42 59 40.2091 59 38C59 35.7909 57.2091 34 55 34ZM70 34C67.7909 34 66 35.7909 66 38C66 40.2091 67.7909 42 70 42C72.2091 42 74 40.2091 74 38C74 35.7909 72.2091 34 70 34Z" fill="black" fill-opacity="0.2"/>
</svg>
