<svg width="126" height="126" viewBox="0 0 126 126" fill="none" xmlns="http://www.w3.org/2000/svg">
<circle cx="63" cy="63" r="62.925" fill="black" stroke="white" stroke-width="0.15"/>
<path d="M96.9564 94.7413C98.1486 94.741 99.0745 93.7015 98.9379 92.5171L95.76 64.9745C95.5731 63.356 93.6302 62.6321 92.4297 63.7336L62.4144 91.2769C61.0743 92.5067 61.9443 94.7419 63.7632 94.7419L96.9564 94.7413Z" fill="white" stroke="white" stroke-width="0.01"/>
<path d="M63.374 30.0049C45.4976 30.0049 31.0059 44.4967 31.0059 62.373C31.0059 80.2494 45.4976 94.7412 63.374 94.7412C69.7205 94.7412 75.6405 92.9148 80.6367 89.7588C86.1625 86.2682 90.5585 81.1508 93.1523 75.0801C94.8192 71.1789 95.7422 66.8836 95.7422 62.373C95.7422 44.4967 81.2504 30.0049 63.374 30.0049Z" fill="white" stroke="white" stroke-width="0.01"/>
<path d="M63.373 30.0049C45.4967 30.0049 31.0049 44.4967 31.0049 62.373C31.0049 80.2494 45.4966 94.7412 63.373 94.7412C69.7195 94.7412 75.6395 92.9148 80.6357 89.7588C86.1615 86.2682 90.5575 81.1508 93.1514 75.0801C94.8182 71.1789 95.7412 66.8836 95.7412 62.373C95.7412 44.4967 81.2494 30.0049 63.373 30.0049Z" fill="white" stroke="white" stroke-width="0.01"/>
<circle cx="3.45313" cy="3.45313" r="3.44813" transform="matrix(-1 0 0 1 79.1758 59)" fill="black" stroke="white" stroke-width="0.01"/>
<circle cx="3.45313" cy="3.45313" r="3.44813" transform="matrix(-1 0 0 1 66.2266 59)" fill="black" stroke="white" stroke-width="0.01"/>
<circle cx="3.45313" cy="3.45313" r="3.44813" transform="matrix(-1 0 0 1 53.2773 59)" fill="black" stroke="white" stroke-width="0.01"/>
</svg>
