<svg width="126" height="126" viewBox="0 0 126 126" fill="none" xmlns="http://www.w3.org/2000/svg">
<circle cx="63" cy="63" r="62.925" fill="black" stroke="white" stroke-width="0.15"/>
<path d="M86.8722 88.3732C88.0646 88.3731 88.9903 87.3335 88.8537 86.149L86.4783 65.5577C86.2913 63.9394 84.3485 63.2155 83.1481 64.3169L60.7085 84.9078C59.3684 86.1376 60.2385 88.3727 62.0572 88.3728L86.8722 88.3732Z" fill="white" stroke="white" stroke-width="0.01"/>
<path d="M60.6875 37.0049C46.503 37.0049 35.0039 48.5039 35.0039 62.6885C35.0039 76.873 46.503 88.372 60.6875 88.3721C65.7234 88.3721 70.4212 86.9223 74.3857 84.418C78.7701 81.6483 82.2583 77.5883 84.3164 72.7715C85.639 69.676 86.3711 66.2675 86.3711 62.6885C86.3711 48.5039 74.8721 37.0049 60.6875 37.0049Z" fill="white" stroke="white" stroke-width="0.01"/>
<path d="M60.6875 37.0049C46.503 37.0049 35.0039 48.5039 35.0039 62.6885C35.0039 76.873 46.503 88.372 60.6875 88.3721C65.7234 88.3721 70.4212 86.9223 74.3857 84.418C78.7701 81.6483 82.2583 77.5883 84.3164 72.7715C85.639 69.676 86.3711 66.2675 86.3711 62.6885C86.3711 48.5039 74.8721 37.0049 60.6875 37.0049Z" fill="white" stroke="white" stroke-width="0.01"/>
<path d="M60.6875 37.0049C46.503 37.0049 35.0039 48.5039 35.0039 62.6885C35.0039 76.873 46.503 88.372 60.6875 88.3721C65.7234 88.3721 70.4212 86.9223 74.3857 84.418C78.7701 81.6483 82.2583 77.5883 84.3164 72.7715C85.639 69.676 86.3711 66.2675 86.3711 62.6885C86.3711 48.5039 74.8721 37.0049 60.6875 37.0049Z" fill="white" stroke="white" stroke-width="0.01"/>
<circle cx="2.7401" cy="2.7401" r="2.7351" transform="matrix(-1 0 0 1 73.2266 60.0122)" fill="black" stroke="white" stroke-width="0.01"/>
<circle cx="2.7401" cy="2.7401" r="2.7351" transform="matrix(-1 0 0 1 62.9521 60.0122)" fill="black" stroke="white" stroke-width="0.01"/>
<circle cx="2.7401" cy="2.7401" r="2.7351" transform="matrix(-1 0 0 1 52.6768 60.0122)" fill="black" stroke="white" stroke-width="0.01"/>
</svg>
