<svg width="491" height="321" viewBox="0 0 491 321" fill="none" xmlns="http://www.w3.org/2000/svg">
<path d="M10.978 243.388V240H2.508V243.388H0.264V237.932H1.43C1.65 237.639 1.84067 237.338 2.002 237.03C2.19267 236.605 2.33933 236.084 2.442 235.468C2.55933 234.852 2.64733 234.06 2.706 233.092C2.77933 232.109 2.838 230.885 2.882 229.418L2.926 228.01H11.682V237.932H13.222V243.388H10.978ZM3.828 237.932H9.372V229.924H5.148C5.11867 230.98 5.082 231.882 5.038 232.63C4.994 233.437 4.93533 234.133 4.862 234.72C4.78867 235.292 4.67867 235.835 4.532 236.348C4.38533 236.905 4.16533 237.411 3.872 237.866C3.85733 237.881 3.84267 237.903 3.828 237.932ZM13.4992 238.174C13.8072 238.159 14.0859 238.108 14.3352 238.02C14.5846 237.917 14.7899 237.763 14.9512 237.558C15.2006 237.265 15.3839 236.839 15.5012 236.282C15.6186 235.71 15.6992 234.962 15.7432 234.038C15.7872 233.099 15.8239 231.941 15.8532 230.562V228.01H24.8292V240H22.4092V229.99H18.1632L18.1412 230.848C18.1266 232.403 18.0679 233.708 17.9652 234.764C17.8626 235.82 17.7086 236.678 17.5032 237.338C17.3126 237.998 17.0486 238.526 16.7112 238.922C16.3446 239.377 15.9119 239.692 15.4132 239.868C14.9146 240.029 14.3132 240.117 13.6092 240.132L13.4992 238.174ZM36.7788 240H34.4028V235.688H32.3788L29.4308 240H26.8128L30.0468 235.358C29.6948 235.285 29.3648 235.182 29.0568 235.05C28.4115 234.757 27.9055 234.339 27.5388 233.796C27.1722 233.239 26.9888 232.579 26.9888 231.816C26.9888 231.024 27.1722 230.342 27.5388 229.77C27.9055 229.198 28.4262 228.758 29.1008 228.45C29.7755 228.142 30.5602 227.988 31.4548 227.988H36.7788V240ZM34.4028 233.84V229.792H31.6308C31.1762 229.792 30.7728 229.873 30.4208 230.034C30.0835 230.195 29.8195 230.43 29.6288 230.738C29.4528 231.031 29.3648 231.398 29.3648 231.838C29.3648 232.263 29.4602 232.63 29.6508 232.938C29.8415 233.231 30.1055 233.459 30.4428 233.62C30.7802 233.767 31.1762 233.84 31.6308 233.84H34.4028ZM44.0069 240V228.01H46.3829V236.722L52.1909 228.01H54.5669V240H52.1909V231.288L46.3829 240H44.0069ZM57.6503 240V228.01H60.0923V232.718H66.0323V228.01H68.4523V240H66.0323V234.698H60.0923V240H57.6503ZM80.5496 243.388V240H72.0796V243.388H69.8356V237.932H71.0016C71.2216 237.639 71.4122 237.338 71.5736 237.03C71.7642 236.605 71.9109 236.084 72.0136 235.468C72.1309 234.852 72.2189 234.06 72.2776 233.092C72.3509 232.109 72.4096 230.885 72.4536 229.418L72.4976 228.01H81.2536V237.932H82.7936V243.388H80.5496ZM73.3996 237.932H78.9436V229.924H74.7196C74.6902 230.98 74.6536 231.882 74.6096 232.63C74.5656 233.437 74.5069 234.133 74.4336 234.72C74.3602 235.292 74.2502 235.835 74.1036 236.348C73.9569 236.905 73.7369 237.411 73.4436 237.866C73.4289 237.881 73.4142 237.903 73.3996 237.932ZM84.443 240V228.01H86.819V236.722L92.627 228.01H95.003V240H92.627V231.288L86.819 240H84.443ZM98.0865 240V228.01H104.07C104.877 228.01 105.566 228.127 106.138 228.362C106.725 228.597 107.172 228.941 107.48 229.396C107.803 229.851 107.964 230.415 107.964 231.09C107.964 231.501 107.898 231.867 107.766 232.19C107.649 232.513 107.473 232.791 107.238 233.026C107.018 233.261 106.74 233.459 106.402 233.62C106.285 233.679 106.168 233.73 106.05 233.774C106.344 233.862 106.622 233.979 106.886 234.126C107.37 234.405 107.744 234.771 108.008 235.226C108.287 235.681 108.426 236.209 108.426 236.81C108.426 237.499 108.265 238.086 107.942 238.57C107.62 239.039 107.158 239.399 106.556 239.648C105.955 239.883 105.236 240 104.4 240H98.0865ZM100.462 234.698V238.218H103.96C104.4 238.218 104.774 238.152 105.082 238.02C105.39 237.888 105.625 237.705 105.786 237.47C105.962 237.221 106.05 236.905 106.05 236.524C106.05 236.128 105.955 235.798 105.764 235.534C105.588 235.255 105.339 235.05 105.016 234.918C104.694 234.771 104.327 234.698 103.916 234.698H100.462ZM100.462 229.792V232.982H103.74C104.107 232.982 104.43 232.923 104.708 232.806C105.002 232.674 105.229 232.483 105.39 232.234C105.552 231.985 105.632 231.677 105.632 231.31C105.632 230.811 105.456 230.437 105.104 230.188C104.767 229.924 104.305 229.792 103.718 229.792H100.462ZM110.57 240V228.01H112.946V236.722L118.754 228.01H121.13V240H118.754V231.288L112.946 240H110.57ZM133.211 243.388V240H124.741V243.388H122.497V237.932H123.663C123.883 237.639 124.074 237.338 124.235 237.03C124.426 236.605 124.573 236.084 124.675 235.468C124.793 234.852 124.881 234.06 124.939 233.092C125.013 232.109 125.071 230.885 125.115 229.418L125.159 228.01H133.915V237.932H135.455V243.388H133.211ZM126.061 237.932H131.605V229.924H127.381C127.352 230.98 127.315 231.882 127.271 232.63C127.227 233.437 127.169 234.133 127.095 234.72C127.022 235.292 126.912 235.835 126.765 236.348C126.619 236.905 126.399 237.411 126.105 237.866C126.091 237.881 126.076 237.903 126.061 237.932ZM144.497 228.01H146.917L141.989 240.77C141.725 241.459 141.453 242.046 141.175 242.53C140.911 243.014 140.61 243.41 140.273 243.718C139.95 244.026 139.576 244.253 139.151 244.4C138.74 244.547 138.278 244.62 137.765 244.62C137.501 244.62 137.244 244.598 136.995 244.554C136.745 244.525 136.525 244.473 136.335 244.4L136.225 242.53C136.386 242.574 136.547 242.603 136.709 242.618C136.87 242.633 137.031 242.64 137.193 242.64C137.559 242.64 137.875 242.589 138.139 242.486C138.417 242.398 138.659 242.244 138.865 242.024C139.085 241.819 139.29 241.533 139.481 241.166C139.671 240.814 139.877 240.374 140.097 239.846L140.163 239.67L135.345 228.01H137.897L141.307 236.964L144.497 228.01ZM147.227 231.662C147.329 231.017 147.527 230.452 147.821 229.968C148.114 229.484 148.481 229.081 148.921 228.758C149.361 228.435 149.874 228.193 150.461 228.032C151.062 227.871 151.722 227.79 152.441 227.79C153.218 227.79 153.907 227.878 154.509 228.054C155.125 228.23 155.638 228.509 156.049 228.89C156.474 229.257 156.797 229.726 157.017 230.298C157.237 230.855 157.347 231.53 157.347 232.322V237.426C157.347 237.646 157.376 237.829 157.435 237.976C157.508 238.108 157.603 238.203 157.721 238.262C157.853 238.321 158.007 238.35 158.183 238.35C158.241 238.35 158.307 238.35 158.381 238.35C158.454 238.335 158.505 238.328 158.535 238.328L158.469 240C158.337 240.059 158.168 240.103 157.963 240.132C157.772 240.161 157.611 240.176 157.479 240.176C156.951 240.176 156.511 240.095 156.159 239.934C155.821 239.758 155.572 239.501 155.411 239.164C155.249 238.841 155.161 238.445 155.147 237.976C155.073 238.093 154.993 238.211 154.905 238.328C154.597 238.724 154.237 239.069 153.827 239.362C153.416 239.641 152.961 239.853 152.463 240C151.979 240.147 151.451 240.22 150.879 240.22C150.043 240.22 149.317 240.081 148.701 239.802C148.099 239.523 147.63 239.12 147.293 238.592C146.97 238.064 146.809 237.441 146.809 236.722C146.809 236.003 146.97 235.387 147.293 234.874C147.615 234.346 148.107 233.935 148.767 233.642C149.427 233.334 150.263 233.129 151.275 233.026L155.125 232.652V232.454C155.125 231.955 155.059 231.53 154.927 231.178C154.809 230.826 154.633 230.54 154.399 230.32C154.164 230.085 153.878 229.917 153.541 229.814C153.203 229.711 152.815 229.66 152.375 229.66C151.832 229.66 151.348 229.748 150.923 229.924C150.497 230.085 150.16 230.342 149.911 230.694C149.676 231.031 149.529 231.457 149.471 231.97L147.227 231.662ZM155.147 234.324L151.517 234.698C150.974 234.757 150.527 234.867 150.175 235.028C149.823 235.189 149.551 235.402 149.361 235.666C149.185 235.915 149.097 236.216 149.097 236.568C149.097 236.935 149.177 237.25 149.339 237.514C149.5 237.778 149.742 237.983 150.065 238.13C150.402 238.262 150.805 238.328 151.275 238.328C151.715 238.328 152.125 238.269 152.507 238.152C152.903 238.035 153.262 237.873 153.585 237.668C153.907 237.463 154.186 237.221 154.421 236.942C154.655 236.663 154.831 236.348 154.949 235.996C155.081 235.644 155.147 235.277 155.147 234.896V234.324ZM158.722 238.174C159.03 238.159 159.309 238.108 159.558 238.02C159.808 237.917 160.013 237.763 160.174 237.558C160.424 237.265 160.607 236.839 160.724 236.282C160.842 235.71 160.922 234.962 160.966 234.038C161.01 233.099 161.047 231.941 161.076 230.562V228.01H170.052V240H167.632V229.99H163.386L163.364 230.848C163.35 232.403 163.291 233.708 163.188 234.764C163.086 235.82 162.932 236.678 162.726 237.338C162.536 237.998 162.272 238.526 161.934 238.922C161.568 239.377 161.135 239.692 160.636 239.868C160.138 240.029 159.536 240.117 158.832 240.132L158.722 238.174ZM173.158 240V228.01H175.6V231.86H178.922C179.817 231.86 180.579 232.029 181.21 232.366C181.841 232.703 182.325 233.18 182.662 233.796C183.014 234.397 183.19 235.116 183.19 235.952C183.19 236.568 183.087 237.125 182.882 237.624C182.691 238.123 182.413 238.548 182.046 238.9C181.679 239.252 181.232 239.523 180.704 239.714C180.176 239.905 179.582 240 178.922 240H173.158ZM175.6 233.686V238.174H178.438C178.937 238.174 179.362 238.093 179.714 237.932C180.081 237.756 180.359 237.507 180.55 237.184C180.741 236.847 180.836 236.436 180.836 235.952C180.836 235.453 180.741 235.043 180.55 234.72C180.359 234.383 180.081 234.126 179.714 233.95C179.362 233.774 178.937 233.686 178.438 233.686H175.6ZM185.04 240V228.01H187.482V232.718H193.422V228.01H195.842V240H193.422V234.698H187.482V240H185.04ZM198.941 240V228.01H201.383V231.86H204.705C205.6 231.86 206.362 232.029 206.993 232.366C207.624 232.703 208.108 233.18 208.445 233.796C208.797 234.397 208.973 235.116 208.973 235.952C208.973 236.568 208.87 237.125 208.665 237.624C208.474 238.123 208.196 238.548 207.829 238.9C207.462 239.252 207.015 239.523 206.487 239.714C205.959 239.905 205.365 240 204.705 240H198.941ZM210.491 240V228.01H212.933V240H210.491ZM201.383 233.686V238.174H204.221C204.72 238.174 205.145 238.093 205.497 237.932C205.864 237.756 206.142 237.507 206.333 237.184C206.524 236.847 206.619 236.436 206.619 235.952C206.619 235.453 206.524 235.043 206.333 234.72C206.142 234.383 205.864 234.126 205.497 233.95C205.145 233.774 204.72 233.686 204.221 233.686H201.383ZM223.105 240L220.003 235.512L216.923 240H214.349L218.639 233.796L214.525 228.01H217.209L220.069 232.124L222.973 228.01H225.481L221.345 233.818L225.745 240H223.105ZM231.256 240V228.01H233.632V236.722L239.44 228.01H241.816V240H239.44V231.288L233.632 240H231.256ZM244.9 240V228.01H253.128V229.99H247.342V240H244.9ZM256.724 228.01L256.9 230.232C257.047 229.997 257.201 229.785 257.362 229.594C257.802 229.022 258.337 228.582 258.968 228.274C259.613 227.951 260.332 227.79 261.124 227.79C261.769 227.79 262.363 227.893 262.906 228.098C263.463 228.289 263.955 228.567 264.38 228.934C264.82 229.301 265.187 229.741 265.48 230.254C265.788 230.767 266.023 231.339 266.184 231.97C266.345 232.601 266.426 233.275 266.426 233.994C266.426 234.727 266.345 235.409 266.184 236.04C266.023 236.671 265.788 237.243 265.48 237.756C265.187 238.269 264.82 238.709 264.38 239.076C263.955 239.443 263.463 239.729 262.906 239.934C262.363 240.125 261.769 240.22 261.124 240.22C260.332 240.22 259.613 240.066 258.968 239.758C258.337 239.435 257.802 238.995 257.362 238.438C257.245 238.291 257.135 238.137 257.032 237.976V244.4H254.59V228.01H256.724ZM260.486 238.196C260.926 238.196 261.329 238.13 261.696 237.998C262.063 237.866 262.385 237.675 262.664 237.426C262.943 237.177 263.17 236.876 263.346 236.524C263.537 236.172 263.676 235.791 263.764 235.38C263.867 234.955 263.918 234.5 263.918 234.016C263.918 233.517 263.867 233.055 263.764 232.63C263.676 232.205 263.537 231.823 263.346 231.486C263.17 231.134 262.943 230.833 262.664 230.584C262.385 230.335 262.063 230.144 261.696 230.012C261.329 229.88 260.926 229.814 260.486 229.814C259.767 229.814 259.151 229.997 258.638 230.364C258.125 230.716 257.729 231.207 257.45 231.838C257.171 232.469 257.032 233.195 257.032 234.016C257.032 234.617 257.105 235.175 257.252 235.688C257.413 236.201 257.641 236.649 257.934 237.03C258.242 237.397 258.609 237.683 259.034 237.888C259.459 238.093 259.943 238.196 260.486 238.196ZM273.875 240.22C273.127 240.22 272.445 240.125 271.829 239.934C271.213 239.743 270.663 239.472 270.179 239.12C269.695 238.753 269.285 238.321 268.947 237.822C268.625 237.309 268.375 236.737 268.199 236.106C268.038 235.461 267.957 234.757 267.957 233.994C267.957 233.261 268.038 232.571 268.199 231.926C268.375 231.281 268.625 230.701 268.947 230.188C269.285 229.675 269.695 229.242 270.179 228.89C270.663 228.523 271.213 228.252 271.829 228.076C272.445 227.885 273.127 227.79 273.875 227.79C274.638 227.79 275.327 227.885 275.943 228.076C276.574 228.252 277.124 228.523 277.593 228.89C278.077 229.242 278.488 229.675 278.825 230.188C279.163 230.701 279.412 231.281 279.573 231.926C279.749 232.571 279.837 233.261 279.837 233.994C279.837 234.757 279.749 235.461 279.573 236.106C279.412 236.737 279.163 237.309 278.825 237.822C278.488 238.321 278.077 238.753 277.593 239.12C277.124 239.472 276.574 239.743 275.943 239.934C275.327 240.125 274.638 240.22 273.875 240.22ZM273.875 238.24C274.359 238.24 274.777 238.174 275.129 238.042C275.496 237.91 275.819 237.727 276.097 237.492C276.376 237.257 276.603 236.971 276.779 236.634C276.97 236.282 277.109 235.886 277.197 235.446C277.285 235.006 277.329 234.522 277.329 233.994C277.329 233.466 277.285 232.982 277.197 232.542C277.109 232.102 276.97 231.713 276.779 231.376C276.603 231.039 276.376 230.753 276.097 230.518C275.819 230.269 275.496 230.085 275.129 229.968C274.777 229.836 274.359 229.77 273.875 229.77C273.421 229.77 273.01 229.836 272.643 229.968C272.277 230.085 271.954 230.269 271.675 230.518C271.411 230.753 271.184 231.046 270.993 231.398C270.803 231.735 270.663 232.124 270.575 232.564C270.487 232.989 270.443 233.466 270.443 233.994C270.443 234.522 270.487 235.006 270.575 235.446C270.678 235.886 270.817 236.282 270.993 236.634C271.184 236.971 271.411 237.257 271.675 237.492C271.954 237.727 272.277 237.91 272.643 238.042C273.01 238.174 273.421 238.24 273.875 238.24ZM282.156 240V228.01H284.598V233.598L289.988 228.01H292.892L287.238 233.62L293.024 240H290.032L284.598 234.038V240H282.156ZM299.207 240.22C298.459 240.22 297.777 240.125 297.161 239.934C296.545 239.743 295.995 239.472 295.511 239.12C295.027 238.753 294.617 238.321 294.279 237.822C293.957 237.309 293.707 236.737 293.531 236.106C293.37 235.461 293.289 234.757 293.289 233.994C293.289 233.261 293.37 232.571 293.531 231.926C293.707 231.281 293.957 230.701 294.279 230.188C294.617 229.675 295.027 229.242 295.511 228.89C295.995 228.523 296.545 228.252 297.161 228.076C297.777 227.885 298.459 227.79 299.207 227.79C299.97 227.79 300.659 227.885 301.275 228.076C301.906 228.252 302.456 228.523 302.925 228.89C303.409 229.242 303.82 229.675 304.157 230.188C304.495 230.701 304.744 231.281 304.905 231.926C305.081 232.571 305.169 233.261 305.169 233.994C305.169 234.757 305.081 235.461 304.905 236.106C304.744 236.737 304.495 237.309 304.157 237.822C303.82 238.321 303.409 238.753 302.925 239.12C302.456 239.472 301.906 239.743 301.275 239.934C300.659 240.125 299.97 240.22 299.207 240.22ZM299.207 238.24C299.691 238.24 300.109 238.174 300.461 238.042C300.828 237.91 301.151 237.727 301.429 237.492C301.708 237.257 301.935 236.971 302.111 236.634C302.302 236.282 302.441 235.886 302.529 235.446C302.617 235.006 302.661 234.522 302.661 233.994C302.661 233.466 302.617 232.982 302.529 232.542C302.441 232.102 302.302 231.713 302.111 231.376C301.935 231.039 301.708 230.753 301.429 230.518C301.151 230.269 300.828 230.085 300.461 229.968C300.109 229.836 299.691 229.77 299.207 229.77C298.753 229.77 298.342 229.836 297.975 229.968C297.609 230.085 297.286 230.269 297.007 230.518C296.743 230.753 296.516 231.046 296.325 231.398C296.135 231.735 295.995 232.124 295.907 232.564C295.819 232.989 295.775 233.466 295.775 233.994C295.775 234.522 295.819 235.006 295.907 235.446C296.01 235.886 296.149 236.282 296.325 236.634C296.516 236.971 296.743 237.257 297.007 237.492C297.286 237.727 297.609 237.91 297.975 238.042C298.342 238.174 298.753 238.24 299.207 238.24ZM307.488 240V228.01H313.472C314.278 228.01 314.968 228.127 315.54 228.362C316.126 228.597 316.574 228.941 316.882 229.396C317.204 229.851 317.366 230.415 317.366 231.09C317.366 231.501 317.3 231.867 317.168 232.19C317.05 232.513 316.874 232.791 316.64 233.026C316.42 233.261 316.141 233.459 315.804 233.62C315.686 233.679 315.569 233.73 315.452 233.774C315.745 233.862 316.024 233.979 316.288 234.126C316.772 234.405 317.146 234.771 317.41 235.226C317.688 235.681 317.828 236.209 317.828 236.81C317.828 237.499 317.666 238.086 317.344 238.57C317.021 239.039 316.559 239.399 315.958 239.648C315.356 239.883 314.638 240 313.802 240H307.488ZM309.864 234.698V238.218H313.362C313.802 238.218 314.176 238.152 314.484 238.02C314.792 237.888 315.026 237.705 315.188 237.47C315.364 237.221 315.452 236.905 315.452 236.524C315.452 236.128 315.356 235.798 315.166 235.534C314.99 235.255 314.74 235.05 314.418 234.918C314.095 234.771 313.728 234.698 313.318 234.698H309.864ZM309.864 229.792V232.982H313.142C313.508 232.982 313.831 232.923 314.11 232.806C314.403 232.674 314.63 232.483 314.792 232.234C314.953 231.985 315.034 231.677 315.034 231.31C315.034 230.811 314.858 230.437 314.506 230.188C314.168 229.924 313.706 229.792 313.12 229.792H309.864ZM324.118 240V228.01H326.494V236.722L332.302 228.01H334.678V240H332.302V231.288L326.494 240H324.118ZM341.909 240V228.01H344.351V233.598L349.741 228.01H352.645L346.991 233.62L352.777 240H349.785L344.351 234.038V240H341.909ZM358.96 240.22C358.212 240.22 357.53 240.125 356.914 239.934C356.298 239.743 355.748 239.472 355.264 239.12C354.78 238.753 354.37 238.321 354.032 237.822C353.71 237.309 353.46 236.737 353.284 236.106C353.123 235.461 353.042 234.757 353.042 233.994C353.042 233.261 353.123 232.571 353.284 231.926C353.46 231.281 353.71 230.701 354.032 230.188C354.37 229.675 354.78 229.242 355.264 228.89C355.748 228.523 356.298 228.252 356.914 228.076C357.53 227.885 358.212 227.79 358.96 227.79C359.723 227.79 360.412 227.885 361.028 228.076C361.659 228.252 362.209 228.523 362.678 228.89C363.162 229.242 363.573 229.675 363.91 230.188C364.248 230.701 364.497 231.281 364.658 231.926C364.834 232.571 364.922 233.261 364.922 233.994C364.922 234.757 364.834 235.461 364.658 236.106C364.497 236.737 364.248 237.309 363.91 237.822C363.573 238.321 363.162 238.753 362.678 239.12C362.209 239.472 361.659 239.743 361.028 239.934C360.412 240.125 359.723 240.22 358.96 240.22ZM358.96 238.24C359.444 238.24 359.862 238.174 360.214 238.042C360.581 237.91 360.904 237.727 361.182 237.492C361.461 237.257 361.688 236.971 361.864 236.634C362.055 236.282 362.194 235.886 362.282 235.446C362.37 235.006 362.414 234.522 362.414 233.994C362.414 233.466 362.37 232.982 362.282 232.542C362.194 232.102 362.055 231.713 361.864 231.376C361.688 231.039 361.461 230.753 361.182 230.518C360.904 230.269 360.581 230.085 360.214 229.968C359.862 229.836 359.444 229.77 358.96 229.77C358.506 229.77 358.095 229.836 357.728 229.968C357.362 230.085 357.039 230.269 356.76 230.518C356.496 230.753 356.269 231.046 356.078 231.398C355.888 231.735 355.748 232.124 355.66 232.564C355.572 232.989 355.528 233.466 355.528 233.994C355.528 234.522 355.572 235.006 355.66 235.446C355.763 235.886 355.902 236.282 356.078 236.634C356.269 236.971 356.496 237.257 356.76 237.492C357.039 237.727 357.362 237.91 357.728 238.042C358.095 238.174 358.506 238.24 358.96 238.24ZM378.901 240V230.958L375.293 237.844H373.093L369.419 230.98V240H367.241V228.01H370.035L374.193 235.776L378.285 228.01H381.079V240H378.901ZM383.336 231.662C383.438 231.017 383.636 230.452 383.93 229.968C384.223 229.484 384.59 229.081 385.03 228.758C385.47 228.435 385.983 228.193 386.57 228.032C387.171 227.871 387.831 227.79 388.55 227.79C389.327 227.79 390.016 227.878 390.618 228.054C391.234 228.23 391.747 228.509 392.158 228.89C392.583 229.257 392.906 229.726 393.126 230.298C393.346 230.855 393.456 231.53 393.456 232.322V237.426C393.456 237.646 393.485 237.829 393.544 237.976C393.617 238.108 393.712 238.203 393.83 238.262C393.962 238.321 394.116 238.35 394.292 238.35C394.35 238.35 394.416 238.35 394.49 238.35C394.563 238.335 394.614 238.328 394.644 238.328L394.578 240C394.446 240.059 394.277 240.103 394.072 240.132C393.881 240.161 393.72 240.176 393.588 240.176C393.06 240.176 392.62 240.095 392.268 239.934C391.93 239.758 391.681 239.501 391.52 239.164C391.358 238.841 391.27 238.445 391.256 237.976C391.182 238.093 391.102 238.211 391.014 238.328C390.706 238.724 390.346 239.069 389.936 239.362C389.525 239.641 389.07 239.853 388.572 240C388.088 240.147 387.56 240.22 386.988 240.22C386.152 240.22 385.426 240.081 384.81 239.802C384.208 239.523 383.739 239.12 383.402 238.592C383.079 238.064 382.918 237.441 382.918 236.722C382.918 236.003 383.079 235.387 383.402 234.874C383.724 234.346 384.216 233.935 384.876 233.642C385.536 233.334 386.372 233.129 387.384 233.026L391.234 232.652V232.454C391.234 231.955 391.168 231.53 391.036 231.178C390.918 230.826 390.742 230.54 390.508 230.32C390.273 230.085 389.987 229.917 389.65 229.814C389.312 229.711 388.924 229.66 388.484 229.66C387.941 229.66 387.457 229.748 387.032 229.924C386.606 230.085 386.269 230.342 386.02 230.694C385.785 231.031 385.638 231.457 385.58 231.97L383.336 231.662ZM391.256 234.324L387.626 234.698C387.083 234.757 386.636 234.867 386.284 235.028C385.932 235.189 385.66 235.402 385.47 235.666C385.294 235.915 385.206 236.216 385.206 236.568C385.206 236.935 385.286 237.25 385.448 237.514C385.609 237.778 385.851 237.983 386.174 238.13C386.511 238.262 386.914 238.328 387.384 238.328C387.824 238.328 388.234 238.269 388.616 238.152C389.012 238.035 389.371 237.873 389.694 237.668C390.016 237.463 390.295 237.221 390.53 236.942C390.764 236.663 390.94 236.348 391.058 235.996C391.19 235.644 391.256 235.277 391.256 234.896V234.324ZM396.333 240V228.01H398.775V232.718H404.715V228.01H407.135V240H404.715V234.698H398.775V240H396.333ZM419.232 243.388V240H410.762V243.388H408.518V237.932H409.684C409.904 237.639 410.094 237.338 410.256 237.03C410.446 236.605 410.593 236.084 410.696 235.468C410.813 234.852 410.901 234.06 410.96 233.092C411.033 232.109 411.092 230.885 411.136 229.418L411.18 228.01H419.936V237.932H421.476V243.388H419.232ZM412.082 237.932H417.626V229.924H413.402C413.372 230.98 413.336 231.882 413.292 232.63C413.248 233.437 413.189 234.133 413.116 234.72C413.042 235.292 412.932 235.835 412.786 236.348C412.639 236.905 412.419 237.411 412.126 237.866C412.111 237.881 412.096 237.903 412.082 237.932ZM423.059 237.404H425.633V240.176C425.633 240.953 425.531 241.577 425.325 242.046C425.135 242.515 424.834 242.853 424.423 243.058C424.013 243.278 423.47 243.395 422.795 243.41L422.663 242.024C423.045 242.024 423.338 241.973 423.543 241.87C423.763 241.782 423.917 241.606 424.005 241.342C424.093 241.093 424.137 240.741 424.137 240.286V240H423.059V237.404ZM1.98 260V248.01H12.628V260H10.186V249.99H4.422V260H1.98ZM20.8574 260.22C20.1094 260.22 19.4274 260.125 18.8114 259.934C18.1954 259.743 17.6454 259.472 17.1614 259.12C16.6774 258.753 16.2667 258.321 15.9294 257.822C15.6067 257.309 15.3574 256.737 15.1814 256.106C15.02 255.461 14.9394 254.757 14.9394 253.994C14.9394 253.261 15.02 252.571 15.1814 251.926C15.3574 251.281 15.6067 250.701 15.9294 250.188C16.2667 249.675 16.6774 249.242 17.1614 248.89C17.6454 248.523 18.1954 248.252 18.8114 248.076C19.4274 247.885 20.1094 247.79 20.8574 247.79C21.62 247.79 22.3094 247.885 22.9254 248.076C23.556 248.252 24.106 248.523 24.5754 248.89C25.0594 249.242 25.47 249.675 25.8074 250.188C26.1447 250.701 26.394 251.281 26.5554 251.926C26.7314 252.571 26.8194 253.261 26.8194 253.994C26.8194 254.757 26.7314 255.461 26.5554 256.106C26.394 256.737 26.1447 257.309 25.8074 257.822C25.47 258.321 25.0594 258.753 24.5754 259.12C24.106 259.472 23.556 259.743 22.9254 259.934C22.3094 260.125 21.62 260.22 20.8574 260.22ZM20.8574 258.24C21.3414 258.24 21.7594 258.174 22.1114 258.042C22.478 257.91 22.8007 257.727 23.0794 257.492C23.358 257.257 23.5854 256.971 23.7614 256.634C23.952 256.282 24.0914 255.886 24.1794 255.446C24.2674 255.006 24.3114 254.522 24.3114 253.994C24.3114 253.466 24.2674 252.982 24.1794 252.542C24.0914 252.102 23.952 251.713 23.7614 251.376C23.5854 251.039 23.358 250.753 23.0794 250.518C22.8007 250.269 22.478 250.085 22.1114 249.968C21.7594 249.836 21.3414 249.77 20.8574 249.77C20.4027 249.77 19.992 249.836 19.6254 249.968C19.2587 250.085 18.936 250.269 18.6574 250.518C18.3934 250.753 18.166 251.046 17.9754 251.398C17.7847 251.735 17.6454 252.124 17.5574 252.564C17.4694 252.989 17.4254 253.466 17.4254 253.994C17.4254 254.522 17.4694 255.006 17.5574 255.446C17.66 255.886 17.7994 256.282 17.9754 256.634C18.166 256.971 18.3934 257.257 18.6574 257.492C18.936 257.727 19.2587 257.91 19.6254 258.042C19.992 258.174 20.4027 258.24 20.8574 258.24ZM38.136 263.388V260H29.666V263.388H27.422V257.932H28.588C28.808 257.639 28.9986 257.338 29.16 257.03C29.3506 256.605 29.4973 256.084 29.6 255.468C29.7173 254.852 29.8053 254.06 29.864 253.092C29.9373 252.109 29.996 250.885 30.04 249.418L30.084 248.01H38.84V257.932H40.38V263.388H38.136ZM30.986 257.932H36.53V249.924H32.306C32.2766 250.98 32.24 251.882 32.196 252.63C32.152 253.437 32.0933 254.133 32.02 254.72C31.9466 255.292 31.8366 255.835 31.69 256.348C31.5433 256.905 31.3233 257.411 31.03 257.866C31.0153 257.881 31.0006 257.903 30.986 257.932ZM49.1344 260L46.0324 255.512L42.9524 260H40.3784L44.6684 253.796L40.5544 248.01H43.2384L46.0984 252.124L49.0024 248.01H51.5104L47.3744 253.818L51.7744 260H49.1344ZM58.2213 260.22C57.4733 260.22 56.7913 260.125 56.1753 259.934C55.5593 259.743 55.0093 259.472 54.5253 259.12C54.0413 258.753 53.6306 258.321 53.2933 257.822C52.9706 257.309 52.7213 256.737 52.5453 256.106C52.3839 255.461 52.3033 254.757 52.3033 253.994C52.3033 253.261 52.3839 252.571 52.5453 251.926C52.7213 251.281 52.9706 250.701 53.2933 250.188C53.6306 249.675 54.0413 249.242 54.5253 248.89C55.0093 248.523 55.5593 248.252 56.1753 248.076C56.7913 247.885 57.4733 247.79 58.2213 247.79C58.9839 247.79 59.6733 247.885 60.2893 248.076C60.9199 248.252 61.4699 248.523 61.9393 248.89C62.4233 249.242 62.8339 249.675 63.1713 250.188C63.5086 250.701 63.7579 251.281 63.9193 251.926C64.0953 252.571 64.1833 253.261 64.1833 253.994C64.1833 254.757 64.0953 255.461 63.9193 256.106C63.7579 256.737 63.5086 257.309 63.1713 257.822C62.8339 258.321 62.4233 258.753 61.9393 259.12C61.4699 259.472 60.9199 259.743 60.2893 259.934C59.6733 260.125 58.9839 260.22 58.2213 260.22ZM58.2213 258.24C58.7053 258.24 59.1233 258.174 59.4753 258.042C59.8419 257.91 60.1646 257.727 60.4433 257.492C60.7219 257.257 60.9493 256.971 61.1253 256.634C61.3159 256.282 61.4553 255.886 61.5433 255.446C61.6313 255.006 61.6753 254.522 61.6753 253.994C61.6753 253.466 61.6313 252.982 61.5433 252.542C61.4553 252.102 61.3159 251.713 61.1253 251.376C60.9493 251.039 60.7219 250.753 60.4433 250.518C60.1646 250.269 59.8419 250.085 59.4753 249.968C59.1233 249.836 58.7053 249.77 58.2213 249.77C57.7666 249.77 57.3559 249.836 56.9893 249.968C56.6226 250.085 56.2999 250.269 56.0213 250.518C55.7573 250.753 55.5299 251.046 55.3393 251.398C55.1486 251.735 55.0093 252.124 54.9213 252.564C54.8333 252.989 54.7893 253.466 54.7893 253.994C54.7893 254.522 54.8333 255.006 54.9213 255.446C55.0239 255.886 55.1633 256.282 55.3393 256.634C55.5299 256.971 55.7573 257.257 56.0213 257.492C56.2999 257.727 56.6226 257.91 56.9893 258.042C57.3559 258.174 57.7666 258.24 58.2213 258.24ZM75.4999 263.388V260H67.0299V263.388H64.7859V257.932H65.9519C66.1719 257.639 66.3625 257.338 66.5239 257.03C66.7145 256.605 66.8612 256.084 66.9639 255.468C67.0812 254.852 67.1692 254.06 67.2279 253.092C67.3012 252.109 67.3599 250.885 67.4039 249.418L67.4479 248.01H76.2039V257.932H77.7439V263.388H75.4999ZM68.3499 257.932H73.8939V249.924H69.6699C69.6405 250.98 69.6039 251.882 69.5599 252.63C69.5159 253.437 69.4572 254.133 69.3839 254.72C69.3105 255.292 69.2005 255.835 69.0539 256.348C68.9072 256.905 68.6872 257.411 68.3939 257.866C68.3792 257.881 68.3645 257.903 68.3499 257.932ZM79.3934 260V248.01H81.7694V256.722L87.5774 248.01H89.9534V260H87.5774V251.288L81.7694 260H79.3934ZM95.4353 260V249.99H91.4093V248.01H101.903V249.99H97.8773V260H95.4353ZM107.54 260V248.01H109.982V253.598L115.372 248.01H118.276L112.622 253.62L118.408 260H115.416L109.982 254.038V260H107.54ZM118.651 251.662C118.753 251.017 118.951 250.452 119.245 249.968C119.538 249.484 119.905 249.081 120.345 248.758C120.785 248.435 121.298 248.193 121.885 248.032C122.486 247.871 123.146 247.79 123.865 247.79C124.642 247.79 125.331 247.878 125.933 248.054C126.549 248.23 127.062 248.509 127.473 248.89C127.898 249.257 128.221 249.726 128.441 250.298C128.661 250.855 128.771 251.53 128.771 252.322V257.426C128.771 257.646 128.8 257.829 128.859 257.976C128.932 258.108 129.027 258.203 129.145 258.262C129.277 258.321 129.431 258.35 129.607 258.35C129.665 258.35 129.731 258.35 129.805 258.35C129.878 258.335 129.929 258.328 129.959 258.328L129.893 260C129.761 260.059 129.592 260.103 129.387 260.132C129.196 260.161 129.035 260.176 128.903 260.176C128.375 260.176 127.935 260.095 127.583 259.934C127.245 259.758 126.996 259.501 126.835 259.164C126.673 258.841 126.585 258.445 126.571 257.976C126.497 258.093 126.417 258.211 126.329 258.328C126.021 258.724 125.661 259.069 125.251 259.362C124.84 259.641 124.385 259.853 123.887 260C123.403 260.147 122.875 260.22 122.303 260.22C121.467 260.22 120.741 260.081 120.125 259.802C119.523 259.523 119.054 259.12 118.717 258.592C118.394 258.064 118.233 257.441 118.233 256.722C118.233 256.003 118.394 255.387 118.717 254.874C119.039 254.346 119.531 253.935 120.191 253.642C120.851 253.334 121.687 253.129 122.699 253.026L126.549 252.652V252.454C126.549 251.955 126.483 251.53 126.351 251.178C126.233 250.826 126.057 250.54 125.823 250.32C125.588 250.085 125.302 249.917 124.965 249.814C124.627 249.711 124.239 249.66 123.799 249.66C123.256 249.66 122.772 249.748 122.347 249.924C121.921 250.085 121.584 250.342 121.335 250.694C121.1 251.031 120.953 251.457 120.895 251.97L118.651 251.662ZM126.571 254.324L122.941 254.698C122.398 254.757 121.951 254.867 121.599 255.028C121.247 255.189 120.975 255.402 120.785 255.666C120.609 255.915 120.521 256.216 120.521 256.568C120.521 256.935 120.601 257.25 120.763 257.514C120.924 257.778 121.166 257.983 121.489 258.13C121.826 258.262 122.229 258.328 122.699 258.328C123.139 258.328 123.549 258.269 123.931 258.152C124.327 258.035 124.686 257.873 125.009 257.668C125.331 257.463 125.61 257.221 125.845 256.942C126.079 256.663 126.255 256.348 126.373 255.996C126.505 255.644 126.571 255.277 126.571 254.896V254.324ZM131.648 260V248.01H134.09V253.598L139.48 248.01H142.384L136.73 253.62L142.516 260H139.524L134.09 254.038V260H131.648ZM156.739 263.388V260H148.269V263.388H146.025V257.932H147.191C147.411 257.639 147.602 257.338 147.763 257.03C147.954 256.605 148.101 256.084 148.203 255.468C148.321 254.852 148.409 254.06 148.467 253.092C148.541 252.109 148.599 250.885 148.643 249.418L148.687 248.01H157.443V257.932H158.983V263.388H156.739ZM149.589 257.932H155.133V249.924H150.909C150.88 250.98 150.843 251.882 150.799 252.63C150.755 253.437 150.697 254.133 150.623 254.72C150.55 255.292 150.44 255.835 150.293 256.348C150.147 256.905 149.927 257.411 149.633 257.866C149.619 257.881 149.604 257.903 149.589 257.932ZM159.26 258.174C159.568 258.159 159.847 258.108 160.096 258.02C160.346 257.917 160.551 257.763 160.712 257.558C160.962 257.265 161.145 256.839 161.262 256.282C161.38 255.71 161.46 254.962 161.504 254.038C161.548 253.099 161.585 251.941 161.614 250.562V248.01H170.59V260H168.17V249.99H163.924L163.902 250.848C163.888 252.403 163.829 253.708 163.726 254.764C163.624 255.82 163.47 256.678 163.264 257.338C163.074 257.998 162.81 258.526 162.472 258.922C162.106 259.377 161.673 259.692 161.174 259.868C160.676 260.029 160.074 260.117 159.37 260.132L159.26 258.174ZM182.54 260H180.164V255.688H178.14L175.192 260H172.574L175.808 255.358C175.456 255.285 175.126 255.182 174.818 255.05C174.173 254.757 173.667 254.339 173.3 253.796C172.933 253.239 172.75 252.579 172.75 251.816C172.75 251.024 172.933 250.342 173.3 249.77C173.667 249.198 174.187 248.758 174.862 248.45C175.537 248.142 176.321 247.988 177.216 247.988H182.54V260ZM180.164 253.84V249.792H177.392C176.937 249.792 176.534 249.873 176.182 250.034C175.845 250.195 175.581 250.43 175.39 250.738C175.214 251.031 175.126 251.398 175.126 251.838C175.126 252.263 175.221 252.63 175.412 252.938C175.603 253.231 175.867 253.459 176.204 253.62C176.541 253.767 176.937 253.84 177.392 253.84H180.164ZM189.768 260V248.01H200.416V260H197.974V249.99H192.21V260H189.768ZM208.645 260.22C207.897 260.22 207.215 260.125 206.599 259.934C205.983 259.743 205.433 259.472 204.949 259.12C204.465 258.753 204.055 258.321 203.717 257.822C203.395 257.309 203.145 256.737 202.969 256.106C202.808 255.461 202.727 254.757 202.727 253.994C202.727 253.261 202.808 252.571 202.969 251.926C203.145 251.281 203.395 250.701 203.717 250.188C204.055 249.675 204.465 249.242 204.949 248.89C205.433 248.523 205.983 248.252 206.599 248.076C207.215 247.885 207.897 247.79 208.645 247.79C209.408 247.79 210.097 247.885 210.713 248.076C211.344 248.252 211.894 248.523 212.363 248.89C212.847 249.242 213.258 249.675 213.595 250.188C213.933 250.701 214.182 251.281 214.343 251.926C214.519 252.571 214.607 253.261 214.607 253.994C214.607 254.757 214.519 255.461 214.343 256.106C214.182 256.737 213.933 257.309 213.595 257.822C213.258 258.321 212.847 258.753 212.363 259.12C211.894 259.472 211.344 259.743 210.713 259.934C210.097 260.125 209.408 260.22 208.645 260.22ZM208.645 258.24C209.129 258.24 209.547 258.174 209.899 258.042C210.266 257.91 210.589 257.727 210.867 257.492C211.146 257.257 211.373 256.971 211.549 256.634C211.74 256.282 211.879 255.886 211.967 255.446C212.055 255.006 212.099 254.522 212.099 253.994C212.099 253.466 212.055 252.982 211.967 252.542C211.879 252.102 211.74 251.713 211.549 251.376C211.373 251.039 211.146 250.753 210.867 250.518C210.589 250.269 210.266 250.085 209.899 249.968C209.547 249.836 209.129 249.77 208.645 249.77C208.191 249.77 207.78 249.836 207.413 249.968C207.047 250.085 206.724 250.269 206.445 250.518C206.181 250.753 205.954 251.046 205.763 251.398C205.573 251.735 205.433 252.124 205.345 252.564C205.257 252.989 205.213 253.466 205.213 253.994C205.213 254.522 205.257 255.006 205.345 255.446C205.448 255.886 205.587 256.282 205.763 256.634C205.954 256.971 206.181 257.257 206.445 257.492C206.724 257.727 207.047 257.91 207.413 258.042C207.78 258.174 208.191 258.24 208.645 258.24ZM216.926 260V248.01H222.91C223.717 248.01 224.406 248.127 224.978 248.362C225.565 248.597 226.012 248.941 226.32 249.396C226.643 249.851 226.804 250.415 226.804 251.09C226.804 251.501 226.738 251.867 226.606 252.19C226.489 252.513 226.313 252.791 226.078 253.026C225.858 253.261 225.579 253.459 225.242 253.62C225.125 253.679 225.007 253.73 224.89 253.774C225.183 253.862 225.462 253.979 225.726 254.126C226.21 254.405 226.584 254.771 226.848 255.226C227.127 255.681 227.266 256.209 227.266 256.81C227.266 257.499 227.105 258.086 226.782 258.57C226.459 259.039 225.997 259.399 225.396 259.648C224.795 259.883 224.076 260 223.24 260H216.926ZM219.302 254.698V258.218H222.8C223.24 258.218 223.614 258.152 223.922 258.02C224.23 257.888 224.465 257.705 224.626 257.47C224.802 257.221 224.89 256.905 224.89 256.524C224.89 256.128 224.795 255.798 224.604 255.534C224.428 255.255 224.179 255.05 223.856 254.918C223.533 254.771 223.167 254.698 222.756 254.698H219.302ZM219.302 249.792V252.982H222.58C222.947 252.982 223.269 252.923 223.548 252.806C223.841 252.674 224.069 252.483 224.23 252.234C224.391 251.985 224.472 251.677 224.472 251.31C224.472 250.811 224.296 250.437 223.944 250.188C223.607 249.924 223.145 249.792 222.558 249.792H219.302ZM239.991 252.102L237.637 252.498C237.549 251.911 237.366 251.42 237.087 251.024C236.823 250.613 236.479 250.305 236.053 250.1C235.628 249.88 235.129 249.77 234.557 249.77C234.103 249.77 233.692 249.836 233.325 249.968C232.959 250.1 232.636 250.283 232.357 250.518C232.093 250.753 231.866 251.046 231.675 251.398C231.499 251.735 231.36 252.124 231.257 252.564C231.169 253.004 231.125 253.488 231.125 254.016C231.125 254.529 231.169 255.006 231.257 255.446C231.36 255.871 231.499 256.26 231.675 256.612C231.866 256.964 232.101 257.257 232.379 257.492C232.658 257.727 232.973 257.91 233.325 258.042C233.692 258.174 234.103 258.24 234.557 258.24C235.129 258.24 235.628 258.137 236.053 257.932C236.479 257.727 236.831 257.426 237.109 257.03C237.403 256.619 237.608 256.099 237.725 255.468L240.035 255.864C239.845 256.803 239.5 257.595 239.001 258.24C238.517 258.885 237.894 259.377 237.131 259.714C236.383 260.051 235.525 260.22 234.557 260.22C233.809 260.22 233.127 260.125 232.511 259.934C231.895 259.743 231.345 259.472 230.861 259.12C230.377 258.753 229.967 258.321 229.629 257.822C229.307 257.309 229.057 256.737 228.881 256.106C228.72 255.475 228.639 254.779 228.639 254.016C228.639 253.268 228.72 252.571 228.881 251.926C229.057 251.281 229.307 250.701 229.629 250.188C229.967 249.675 230.377 249.242 230.861 248.89C231.345 248.523 231.895 248.252 232.511 248.076C233.127 247.885 233.809 247.79 234.557 247.79C235.569 247.79 236.449 247.959 237.197 248.296C237.945 248.619 238.554 249.103 239.023 249.748C239.493 250.393 239.815 251.178 239.991 252.102ZM247.216 260.22C246.453 260.22 245.749 260.125 245.104 259.934C244.473 259.729 243.916 259.45 243.432 259.098C242.948 258.731 242.537 258.291 242.2 257.778C241.862 257.265 241.606 256.693 241.43 256.062C241.254 255.417 241.166 254.727 241.166 253.994C241.166 253.261 241.246 252.579 241.408 251.948C241.584 251.317 241.84 250.753 242.178 250.254C242.515 249.741 242.918 249.301 243.388 248.934C243.872 248.567 244.429 248.289 245.06 248.098C245.69 247.893 246.387 247.79 247.15 247.79C248.015 247.79 248.8 247.929 249.504 248.208C250.208 248.487 250.809 248.89 251.308 249.418C251.821 249.931 252.21 250.547 252.474 251.266C252.752 251.97 252.892 252.762 252.892 253.642C252.892 253.818 252.884 253.994 252.87 254.17C252.855 254.331 252.826 254.493 252.782 254.654H243.564C243.578 254.918 243.615 255.175 243.674 255.424C243.762 255.879 243.901 256.282 244.092 256.634C244.297 256.971 244.546 257.272 244.84 257.536C245.133 257.785 245.478 257.976 245.874 258.108C246.27 258.24 246.717 258.306 247.216 258.306C247.832 258.306 248.36 258.218 248.8 258.042C249.254 257.866 249.628 257.617 249.922 257.294C250.215 256.957 250.428 256.553 250.56 256.084L252.804 256.48C252.598 257.257 252.261 257.932 251.792 258.504C251.322 259.061 250.706 259.487 249.944 259.78C249.181 260.073 248.272 260.22 247.216 260.22ZM243.608 252.894H250.582C250.552 252.527 250.479 252.19 250.362 251.882C250.215 251.427 249.988 251.039 249.68 250.716C249.386 250.393 249.027 250.144 248.602 249.968C248.191 249.792 247.714 249.704 247.172 249.704C246.688 249.704 246.248 249.77 245.852 249.902C245.47 250.019 245.133 250.203 244.84 250.452C244.561 250.701 244.319 251.002 244.114 251.354C243.908 251.706 243.762 252.102 243.674 252.542C243.644 252.659 243.622 252.777 243.608 252.894ZM264.083 263.388V260H255.613V263.388H253.369V257.932H254.535C254.755 257.639 254.946 257.338 255.107 257.03C255.298 256.605 255.444 256.084 255.547 255.468C255.664 254.852 255.752 254.06 255.811 253.092C255.884 252.109 255.943 250.885 255.987 249.418L256.031 248.01H264.787V257.932H266.327V263.388H264.083ZM256.933 257.932H262.477V249.924H258.253C258.224 250.98 258.187 251.882 258.143 252.63C258.099 253.437 258.04 254.133 257.967 254.72C257.894 255.292 257.784 255.835 257.637 256.348C257.49 256.905 257.27 257.411 256.977 257.866C256.962 257.881 256.948 257.903 256.933 257.932ZM267.976 260V248.01H270.418V252.718H276.358V248.01H278.778V260H276.358V254.698H270.418V260H267.976ZM287.158 260.22C286.395 260.22 285.691 260.125 285.046 259.934C284.415 259.729 283.858 259.45 283.374 259.098C282.89 258.731 282.479 258.291 282.142 257.778C281.804 257.265 281.548 256.693 281.372 256.062C281.196 255.417 281.108 254.727 281.108 253.994C281.108 253.261 281.188 252.579 281.35 251.948C281.526 251.317 281.782 250.753 282.12 250.254C282.457 249.741 282.86 249.301 283.33 248.934C283.814 248.567 284.371 248.289 285.002 248.098C285.632 247.893 286.329 247.79 287.092 247.79C287.957 247.79 288.742 247.929 289.446 248.208C290.15 248.487 290.751 248.89 291.25 249.418C291.763 249.931 292.152 250.547 292.416 251.266C292.694 251.97 292.834 252.762 292.834 253.642C292.834 253.818 292.826 253.994 292.812 254.17C292.797 254.331 292.768 254.493 292.724 254.654H283.506C283.52 254.918 283.557 255.175 283.616 255.424C283.704 255.879 283.843 256.282 284.034 256.634C284.239 256.971 284.488 257.272 284.782 257.536C285.075 257.785 285.42 257.976 285.816 258.108C286.212 258.24 286.659 258.306 287.158 258.306C287.774 258.306 288.302 258.218 288.742 258.042C289.196 257.866 289.57 257.617 289.864 257.294C290.157 256.957 290.37 256.553 290.502 256.084L292.746 256.48C292.54 257.257 292.203 257.932 291.734 258.504C291.264 259.061 290.648 259.487 289.886 259.78C289.123 260.073 288.214 260.22 287.158 260.22ZM283.55 252.894H290.524C290.494 252.527 290.421 252.19 290.304 251.882C290.157 251.427 289.93 251.039 289.622 250.716C289.328 250.393 288.969 250.144 288.544 249.968C288.133 249.792 287.656 249.704 287.114 249.704C286.63 249.704 286.19 249.77 285.794 249.902C285.412 250.019 285.075 250.203 284.782 250.452C284.503 250.701 284.261 251.002 284.056 251.354C283.85 251.706 283.704 252.102 283.616 252.542C283.586 252.659 283.564 252.777 283.55 252.894ZM295.027 260V248.01H301.011C301.818 248.01 302.507 248.127 303.079 248.362C303.666 248.597 304.113 248.941 304.421 249.396C304.744 249.851 304.905 250.415 304.905 251.09C304.905 251.501 304.839 251.867 304.707 252.19C304.59 252.513 304.414 252.791 304.179 253.026C303.959 253.261 303.68 253.459 303.343 253.62C303.226 253.679 303.108 253.73 302.991 253.774C303.284 253.862 303.563 253.979 303.827 254.126C304.311 254.405 304.685 254.771 304.949 255.226C305.228 255.681 305.367 256.209 305.367 256.81C305.367 257.499 305.206 258.086 304.883 258.57C304.56 259.039 304.098 259.399 303.497 259.648C302.896 259.883 302.177 260 301.341 260H295.027ZM297.403 254.698V258.218H300.901C301.341 258.218 301.715 258.152 302.023 258.02C302.331 257.888 302.566 257.705 302.727 257.47C302.903 257.221 302.991 256.905 302.991 256.524C302.991 256.128 302.896 255.798 302.705 255.534C302.529 255.255 302.28 255.05 301.957 254.918C301.634 254.771 301.268 254.698 300.857 254.698H297.403ZM297.403 249.792V252.982H300.681C301.048 252.982 301.37 252.923 301.649 252.806C301.942 252.674 302.17 252.483 302.331 252.234C302.492 251.985 302.573 251.677 302.573 251.31C302.573 250.811 302.397 250.437 302.045 250.188C301.708 249.924 301.246 249.792 300.659 249.792H297.403ZM307.51 260V248.01H309.952V252.718H315.892V248.01H318.312V260H315.892V254.698H309.952V260H307.51ZM321.411 260V248.01H323.853V251.86H327.175C328.07 251.86 328.833 252.029 329.463 252.366C330.094 252.703 330.578 253.18 330.915 253.796C331.267 254.397 331.443 255.116 331.443 255.952C331.443 256.568 331.341 257.125 331.135 257.624C330.945 258.123 330.666 258.548 330.299 258.9C329.933 259.252 329.485 259.523 328.957 259.714C328.429 259.905 327.835 260 327.175 260H321.411ZM332.961 260V248.01H335.403V260H332.961ZM323.853 253.686V258.174H326.691C327.19 258.174 327.615 258.093 327.967 257.932C328.334 257.756 328.613 257.507 328.803 257.184C328.994 256.847 329.089 256.436 329.089 255.952C329.089 255.453 328.994 255.043 328.803 254.72C328.613 254.383 328.334 254.126 327.967 253.95C327.615 253.774 327.19 253.686 326.691 253.686H323.853ZM345.576 260L342.474 255.512L339.394 260H336.82L341.11 253.796L336.996 248.01H339.68L342.54 252.124L345.444 248.01H347.952L343.816 253.818L348.216 260H345.576ZM4.4 280V269.99H0.374V268.01H10.868V269.99H6.842V280H4.4ZM14.4918 268.01L14.6678 270.232C14.8145 269.997 14.9685 269.785 15.1298 269.594C15.5698 269.022 16.1051 268.582 16.7358 268.274C17.3811 267.951 18.0998 267.79 18.8918 267.79C19.5371 267.79 20.1311 267.893 20.6738 268.098C21.2311 268.289 21.7225 268.567 22.1478 268.934C22.5878 269.301 22.9545 269.741 23.2478 270.254C23.5558 270.767 23.7905 271.339 23.9518 271.97C24.1131 272.601 24.1938 273.275 24.1938 273.994C24.1938 274.727 24.1131 275.409 23.9518 276.04C23.7905 276.671 23.5558 277.243 23.2478 277.756C22.9545 278.269 22.5878 278.709 22.1478 279.076C21.7225 279.443 21.2311 279.729 20.6738 279.934C20.1311 280.125 19.5371 280.22 18.8918 280.22C18.0998 280.22 17.3811 280.066 16.7358 279.758C16.1051 279.435 15.5698 278.995 15.1298 278.438C15.0125 278.291 14.9025 278.137 14.7998 277.976V284.4H12.3578V268.01H14.4918ZM18.2538 278.196C18.6938 278.196 19.0971 278.13 19.4638 277.998C19.8305 277.866 20.1531 277.675 20.4318 277.426C20.7105 277.177 20.9378 276.876 21.1138 276.524C21.3045 276.172 21.4438 275.791 21.5318 275.38C21.6345 274.955 21.6858 274.5 21.6858 274.016C21.6858 273.517 21.6345 273.055 21.5318 272.63C21.4438 272.205 21.3045 271.823 21.1138 271.486C20.9378 271.134 20.7105 270.833 20.4318 270.584C20.1531 270.335 19.8305 270.144 19.4638 270.012C19.0971 269.88 18.6938 269.814 18.2538 269.814C17.5351 269.814 16.9191 269.997 16.4058 270.364C15.8925 270.716 15.4965 271.207 15.2178 271.838C14.9391 272.469 14.7998 273.195 14.7998 274.016C14.7998 274.617 14.8731 275.175 15.0198 275.688C15.1811 276.201 15.4085 276.649 15.7018 277.03C16.0098 277.397 16.3765 277.683 16.8018 277.888C17.2271 278.093 17.7111 278.196 18.2538 278.196ZM31.7754 280.22C31.0127 280.22 30.3087 280.125 29.6634 279.934C29.0327 279.729 28.4754 279.45 27.9914 279.098C27.5074 278.731 27.0967 278.291 26.7594 277.778C26.4221 277.265 26.1654 276.693 25.9894 276.062C25.8134 275.417 25.7254 274.727 25.7254 273.994C25.7254 273.261 25.8061 272.579 25.9674 271.948C26.1434 271.317 26.4001 270.753 26.7374 270.254C27.0747 269.741 27.4781 269.301 27.9474 268.934C28.4314 268.567 28.9887 268.289 29.6194 268.098C30.2501 267.893 30.9467 267.79 31.7094 267.79C32.5747 267.79 33.3594 267.929 34.0634 268.208C34.7674 268.487 35.3687 268.89 35.8674 269.418C36.3807 269.931 36.7694 270.547 37.0334 271.266C37.3121 271.97 37.4514 272.762 37.4514 273.642C37.4514 273.818 37.4441 273.994 37.4294 274.17C37.4147 274.331 37.3854 274.493 37.3414 274.654H28.1234C28.1381 274.918 28.1747 275.175 28.2334 275.424C28.3214 275.879 28.4607 276.282 28.6514 276.634C28.8567 276.971 29.1061 277.272 29.3994 277.536C29.6927 277.785 30.0374 277.976 30.4334 278.108C30.8294 278.24 31.2767 278.306 31.7754 278.306C32.3914 278.306 32.9194 278.218 33.3594 278.042C33.8141 277.866 34.1881 277.617 34.4814 277.294C34.7747 276.957 34.9874 276.553 35.1194 276.084L37.3634 276.48C37.1581 277.257 36.8207 277.932 36.3514 278.504C35.8821 279.061 35.2661 279.487 34.5034 279.78C33.7407 280.073 32.8314 280.22 31.7754 280.22ZM28.1674 272.894H35.1414C35.1121 272.527 35.0387 272.19 34.9214 271.882C34.7747 271.427 34.5474 271.039 34.2394 270.716C33.9461 270.393 33.5867 270.144 33.1614 269.968C32.7507 269.792 32.2741 269.704 31.7314 269.704C31.2474 269.704 30.8074 269.77 30.4114 269.902C30.0301 270.019 29.6927 270.203 29.3994 270.452C29.1207 270.701 28.8787 271.002 28.6734 271.354C28.4681 271.706 28.3214 272.102 28.2334 272.542C28.2041 272.659 28.1821 272.777 28.1674 272.894ZM39.6447 280V268.01H42.0867V272.718H48.0267V268.01H50.4467V280H48.0267V274.698H42.0867V280H39.6447ZM53.5459 280V268.01H55.9219V276.722L61.7299 268.01H64.1059V280H61.7299V271.288L55.9219 280H53.5459ZM69.3234 268.01L69.4994 270.232C69.646 269.997 69.8 269.785 69.9614 269.594C70.4014 269.022 70.9367 268.582 71.5674 268.274C72.2127 267.951 72.9314 267.79 73.7234 267.79C74.3687 267.79 74.9627 267.893 75.5054 268.098C76.0627 268.289 76.554 268.567 76.9794 268.934C77.4194 269.301 77.786 269.741 78.0794 270.254C78.3874 270.767 78.622 271.339 78.7834 271.97C78.9447 272.601 79.0254 273.275 79.0254 273.994C79.0254 274.727 78.9447 275.409 78.7834 276.04C78.622 276.671 78.3874 277.243 78.0794 277.756C77.786 278.269 77.4194 278.709 76.9794 279.076C76.554 279.443 76.0627 279.729 75.5054 279.934C74.9627 280.125 74.3687 280.22 73.7234 280.22C72.9314 280.22 72.2127 280.066 71.5674 279.758C70.9367 279.435 70.4014 278.995 69.9614 278.438C69.844 278.291 69.734 278.137 69.6314 277.976V284.4H67.1894V268.01H69.3234ZM73.0854 278.196C73.5254 278.196 73.9287 278.13 74.2954 277.998C74.662 277.866 74.9847 277.675 75.2634 277.426C75.542 277.177 75.7694 276.876 75.9454 276.524C76.136 276.172 76.2754 275.791 76.3634 275.38C76.466 274.955 76.5174 274.5 76.5174 274.016C76.5174 273.517 76.466 273.055 76.3634 272.63C76.2754 272.205 76.136 271.823 75.9454 271.486C75.7694 271.134 75.542 270.833 75.2634 270.584C74.9847 270.335 74.662 270.144 74.2954 270.012C73.9287 269.88 73.5254 269.814 73.0854 269.814C72.3667 269.814 71.7507 269.997 71.2374 270.364C70.724 270.716 70.328 271.207 70.0494 271.838C69.7707 272.469 69.6314 273.195 69.6314 274.016C69.6314 274.617 69.7047 275.175 69.8514 275.688C70.0127 276.201 70.24 276.649 70.5334 277.03C70.8414 277.397 71.208 277.683 71.6334 277.888C72.0587 278.093 72.5427 278.196 73.0854 278.196ZM86.475 280.22C85.727 280.22 85.045 280.125 84.429 279.934C83.813 279.743 83.263 279.472 82.779 279.12C82.295 278.753 81.8843 278.321 81.547 277.822C81.2243 277.309 80.975 276.737 80.799 276.106C80.6376 275.461 80.557 274.757 80.557 273.994C80.557 273.261 80.6376 272.571 80.799 271.926C80.975 271.281 81.2243 270.701 81.547 270.188C81.8843 269.675 82.295 269.242 82.779 268.89C83.263 268.523 83.813 268.252 84.429 268.076C85.045 267.885 85.727 267.79 86.475 267.79C87.2376 267.79 87.927 267.885 88.543 268.076C89.1736 268.252 89.7236 268.523 90.193 268.89C90.677 269.242 91.0876 269.675 91.425 270.188C91.7623 270.701 92.0116 271.281 92.173 271.926C92.349 272.571 92.437 273.261 92.437 273.994C92.437 274.757 92.349 275.461 92.173 276.106C92.0116 276.737 91.7623 277.309 91.425 277.822C91.0876 278.321 90.677 278.753 90.193 279.12C89.7236 279.472 89.1736 279.743 88.543 279.934C87.927 280.125 87.2376 280.22 86.475 280.22ZM86.475 278.24C86.959 278.24 87.377 278.174 87.729 278.042C88.0956 277.91 88.4183 277.727 88.697 277.492C88.9756 277.257 89.203 276.971 89.379 276.634C89.5696 276.282 89.709 275.886 89.797 275.446C89.885 275.006 89.929 274.522 89.929 273.994C89.929 273.466 89.885 272.982 89.797 272.542C89.709 272.102 89.5696 271.713 89.379 271.376C89.203 271.039 88.9756 270.753 88.697 270.518C88.4183 270.269 88.0956 270.085 87.729 269.968C87.377 269.836 86.959 269.77 86.475 269.77C86.0203 269.77 85.6096 269.836 85.243 269.968C84.8763 270.085 84.5536 270.269 84.275 270.518C84.011 270.753 83.7836 271.046 83.593 271.398C83.4023 271.735 83.263 272.124 83.175 272.564C83.087 272.989 83.043 273.466 83.043 273.994C83.043 274.522 83.087 275.006 83.175 275.446C83.2776 275.886 83.417 276.282 83.593 276.634C83.7836 276.971 84.011 277.257 84.275 277.492C84.5536 277.727 84.8763 277.91 85.243 278.042C85.6096 278.174 86.0203 278.24 86.475 278.24ZM94.7555 280V268.01H100.74C101.546 268.01 102.236 268.127 102.808 268.362C103.394 268.597 103.842 268.941 104.15 269.396C104.472 269.851 104.634 270.415 104.634 271.09C104.634 271.501 104.568 271.867 104.436 272.19C104.318 272.513 104.142 272.791 103.908 273.026C103.688 273.261 103.409 273.459 103.072 273.62C102.954 273.679 102.837 273.73 102.72 273.774C103.013 273.862 103.292 273.979 103.556 274.126C104.04 274.405 104.414 274.771 104.678 275.226C104.956 275.681 105.096 276.209 105.096 276.81C105.096 277.499 104.934 278.086 104.612 278.57C104.289 279.039 103.827 279.399 103.226 279.648C102.624 279.883 101.906 280 101.07 280H94.7555ZM97.1315 274.698V278.218H100.63C101.07 278.218 101.444 278.152 101.752 278.02C102.06 277.888 102.294 277.705 102.456 277.47C102.632 277.221 102.72 276.905 102.72 276.524C102.72 276.128 102.624 275.798 102.434 275.534C102.258 275.255 102.008 275.05 101.686 274.918C101.363 274.771 100.996 274.698 100.586 274.698H97.1315ZM97.1315 269.792V272.982H100.41C100.776 272.982 101.099 272.923 101.378 272.806C101.671 272.674 101.898 272.483 102.06 272.234C102.221 271.985 102.302 271.677 102.302 271.31C102.302 270.811 102.126 270.437 101.774 270.188C101.436 269.924 100.974 269.792 100.388 269.792H97.1315ZM112.387 280.22C111.639 280.22 110.957 280.125 110.341 279.934C109.725 279.743 109.175 279.472 108.691 279.12C108.207 278.753 107.796 278.321 107.459 277.822C107.136 277.309 106.887 276.737 106.711 276.106C106.549 275.461 106.469 274.757 106.469 273.994C106.469 273.261 106.549 272.571 106.711 271.926C106.887 271.281 107.136 270.701 107.459 270.188C107.796 269.675 108.207 269.242 108.691 268.89C109.175 268.523 109.725 268.252 110.341 268.076C110.957 267.885 111.639 267.79 112.387 267.79C113.149 267.79 113.839 267.885 114.455 268.076C115.085 268.252 115.635 268.523 116.105 268.89C116.589 269.242 116.999 269.675 117.337 270.188C117.674 270.701 117.923 271.281 118.085 271.926C118.261 272.571 118.349 273.261 118.349 273.994C118.349 274.757 118.261 275.461 118.085 276.106C117.923 276.737 117.674 277.309 117.337 277.822C116.999 278.321 116.589 278.753 116.105 279.12C115.635 279.472 115.085 279.743 114.455 279.934C113.839 280.125 113.149 280.22 112.387 280.22ZM112.387 278.24C112.871 278.24 113.289 278.174 113.641 278.042C114.007 277.91 114.33 277.727 114.609 277.492C114.887 277.257 115.115 276.971 115.291 276.634C115.481 276.282 115.621 275.886 115.709 275.446C115.797 275.006 115.841 274.522 115.841 273.994C115.841 273.466 115.797 272.982 115.709 272.542C115.621 272.102 115.481 271.713 115.291 271.376C115.115 271.039 114.887 270.753 114.609 270.518C114.33 270.269 114.007 270.085 113.641 269.968C113.289 269.836 112.871 269.77 112.387 269.77C111.932 269.77 111.521 269.836 111.155 269.968C110.788 270.085 110.465 270.269 110.187 270.518C109.923 270.753 109.695 271.046 109.505 271.398C109.314 271.735 109.175 272.124 109.087 272.564C108.999 272.989 108.955 273.466 108.955 273.994C108.955 274.522 108.999 275.006 109.087 275.446C109.189 275.886 109.329 276.282 109.505 276.634C109.695 276.971 109.923 277.257 110.187 277.492C110.465 277.727 110.788 277.91 111.155 278.042C111.521 278.174 111.932 278.24 112.387 278.24ZM120.667 280V268.01H123.109V273.598L128.499 268.01H131.403L125.749 273.62L131.535 280H128.543L123.109 274.038V280H120.667ZM132.548 277.404H135.122V280.176C135.122 280.953 135.019 281.577 134.814 282.046C134.623 282.515 134.322 282.853 133.912 283.058C133.501 283.278 132.958 283.395 132.284 283.41L132.152 282.024C132.533 282.024 132.826 281.973 133.032 281.87C133.252 281.782 133.406 281.606 133.494 281.342C133.582 281.093 133.626 280.741 133.626 280.286V280H132.548V277.404ZM4.4 300V289.99H0.374V288.01H10.868V289.99H6.842V300H4.4ZM11.5218 291.662C11.6245 291.017 11.8225 290.452 12.1158 289.968C12.4091 289.484 12.7758 289.081 13.2158 288.758C13.6558 288.435 14.1691 288.193 14.7558 288.032C15.3571 287.871 16.0171 287.79 16.7358 287.79C17.5131 287.79 18.2025 287.878 18.8038 288.054C19.4198 288.23 19.9331 288.509 20.3438 288.89C20.7691 289.257 21.0918 289.726 21.3118 290.298C21.5318 290.855 21.6418 291.53 21.6418 292.322V297.426C21.6418 297.646 21.6711 297.829 21.7298 297.976C21.8031 298.108 21.8985 298.203 22.0158 298.262C22.1478 298.321 22.3018 298.35 22.4778 298.35C22.5365 298.35 22.6025 298.35 22.6758 298.35C22.7491 298.335 22.8005 298.328 22.8298 298.328L22.7638 300C22.6318 300.059 22.4631 300.103 22.2578 300.132C22.0671 300.161 21.9058 300.176 21.7738 300.176C21.2458 300.176 20.8058 300.095 20.4538 299.934C20.1165 299.758 19.8671 299.501 19.7058 299.164C19.5445 298.841 19.4565 298.445 19.4418 297.976C19.3685 298.093 19.2878 298.211 19.1998 298.328C18.8918 298.724 18.5325 299.069 18.1218 299.362C17.7111 299.641 17.2565 299.853 16.7578 300C16.2738 300.147 15.7458 300.22 15.1738 300.22C14.3378 300.22 13.6118 300.081 12.9958 299.802C12.3945 299.523 11.9251 299.12 11.5878 298.592C11.2651 298.064 11.1038 297.441 11.1038 296.722C11.1038 296.003 11.2651 295.387 11.5878 294.874C11.9105 294.346 12.4018 293.935 13.0618 293.642C13.7218 293.334 14.5578 293.129 15.5698 293.026L19.4198 292.652V292.454C19.4198 291.955 19.3538 291.53 19.2218 291.178C19.1045 290.826 18.9285 290.54 18.6938 290.32C18.4591 290.085 18.1731 289.917 17.8358 289.814C17.4985 289.711 17.1098 289.66 16.6698 289.66C16.1271 289.66 15.6431 289.748 15.2178 289.924C14.7925 290.085 14.4551 290.342 14.2058 290.694C13.9711 291.031 13.8245 291.457 13.7658 291.97L11.5218 291.662ZM19.4418 294.324L15.8118 294.698C15.2691 294.757 14.8218 294.867 14.4698 295.028C14.1178 295.189 13.8465 295.402 13.6558 295.666C13.4798 295.915 13.3918 296.216 13.3918 296.568C13.3918 296.935 13.4725 297.25 13.6338 297.514C13.7951 297.778 14.0371 297.983 14.3598 298.13C14.6971 298.262 15.1005 298.328 15.5698 298.328C16.0098 298.328 16.4205 298.269 16.8018 298.152C17.1978 298.035 17.5571 297.873 17.8798 297.668C18.2025 297.463 18.4811 297.221 18.7158 296.942C18.9505 296.663 19.1265 296.348 19.2438 295.996C19.3758 295.644 19.4418 295.277 19.4418 294.896V294.324ZM24.5188 300V288.01H26.9608V293.598L32.3508 288.01H35.2548L29.6008 293.62L35.3868 300H32.3948L26.9608 294.038V300H24.5188ZM40.6123 300V288.01H42.9883V296.722L48.7963 288.01H51.1723V300H48.7963V291.288L42.9883 300H40.6123ZM67.4011 303.388V300H58.9311V303.388H56.6871V297.932H57.8531C58.0731 297.639 58.2638 297.338 58.4251 297.03C58.6158 296.605 58.7625 296.084 58.8651 295.468C58.9825 294.852 59.0705 294.06 59.1291 293.092C59.2025 292.109 59.2611 290.885 59.3051 289.418L59.3491 288.01H68.1051V297.932H69.6451V303.388H67.4011ZM60.2511 297.932H65.7951V289.924H61.5711C61.5418 290.98 61.5051 291.882 61.4611 292.63C61.4171 293.437 61.3585 294.133 61.2851 294.72C61.2118 295.292 61.1018 295.835 60.9551 296.348C60.8085 296.905 60.5885 297.411 60.2951 297.866C60.2805 297.881 60.2658 297.903 60.2511 297.932ZM69.9224 298.174C70.2304 298.159 70.509 298.108 70.7584 298.02C71.0077 297.917 71.213 297.763 71.3744 297.558C71.6237 297.265 71.807 296.839 71.9244 296.282C72.0417 295.71 72.1224 294.962 72.1664 294.038C72.2104 293.099 72.247 291.941 72.2764 290.562V288.01H81.2524V300H78.8324V289.99H74.5864L74.5644 290.848C74.5497 292.403 74.491 293.708 74.3884 294.764C74.2857 295.82 74.1317 296.678 73.9264 297.338C73.7357 297.998 73.4717 298.526 73.1344 298.922C72.7677 299.377 72.335 299.692 71.8364 299.868C71.3377 300.029 70.7364 300.117 70.0324 300.132L69.9224 298.174ZM93.202 300H90.826V295.688H88.802L85.854 300H83.236L86.47 295.358C86.118 295.285 85.788 295.182 85.48 295.05C84.8346 294.757 84.3286 294.339 83.962 293.796C83.5953 293.239 83.412 292.579 83.412 291.816C83.412 291.024 83.5953 290.342 83.962 289.77C84.3286 289.198 84.8493 288.758 85.524 288.45C86.1986 288.142 86.9833 287.988 87.878 287.988H93.202V300ZM90.826 293.84V289.792H88.054C87.5993 289.792 87.196 289.873 86.844 290.034C86.5066 290.195 86.2426 290.43 86.052 290.738C85.876 291.031 85.788 291.398 85.788 291.838C85.788 292.263 85.8833 292.63 86.074 292.938C86.2646 293.231 86.5286 293.459 86.866 293.62C87.2033 293.767 87.5993 293.84 88.054 293.84H90.826ZM110.176 300L112.376 291.772L107.998 297.954H105.292L103.752 291.398L101.442 300H98.604L101.816 287.944H105.49L105.446 288.01L105.49 287.944L107.096 295.27L112.31 287.944H116.248L113.014 300H110.176ZM117.314 291.706C117.534 291.061 117.82 290.496 118.172 290.012C118.539 289.513 118.964 289.095 119.448 288.758C119.947 288.406 120.519 288.149 121.164 287.988C121.809 287.812 122.528 287.724 123.32 287.724C124.215 287.724 124.977 287.849 125.608 288.098C126.253 288.333 126.759 288.67 127.126 289.11C127.507 289.55 127.749 290.056 127.852 290.628C127.955 291.185 127.925 291.779 127.764 292.41L126.532 297.03C126.473 297.221 126.451 297.375 126.466 297.492C126.495 297.609 126.561 297.697 126.664 297.756C126.781 297.8 126.913 297.822 127.06 297.822C127.133 297.822 127.207 297.822 127.28 297.822C127.368 297.807 127.427 297.8 127.456 297.8L126.818 299.956C126.627 300.029 126.4 300.088 126.136 300.132C125.887 300.176 125.674 300.198 125.498 300.198C124.897 300.198 124.427 300.088 124.09 299.868C123.753 299.648 123.54 299.34 123.452 298.944C123.393 298.709 123.379 298.46 123.408 298.196C123.379 298.225 123.342 298.262 123.298 298.306C122.931 298.717 122.528 299.069 122.088 299.362C121.648 299.641 121.179 299.853 120.68 300C120.181 300.147 119.646 300.22 119.074 300.22C118.355 300.22 117.732 300.095 117.204 299.846C116.691 299.597 116.295 299.245 116.016 298.79C115.737 298.335 115.598 297.8 115.598 297.184C115.598 296.407 115.796 295.725 116.192 295.138C116.588 294.537 117.219 294.038 118.084 293.642C118.964 293.231 120.115 292.953 121.538 292.806L124.86 292.476C124.948 292.124 124.977 291.809 124.948 291.53C124.904 291.237 124.801 290.987 124.64 290.782C124.479 290.562 124.259 290.393 123.98 290.276C123.716 290.159 123.393 290.1 123.012 290.1C122.543 290.1 122.125 290.173 121.758 290.32C121.391 290.467 121.083 290.694 120.834 291.002C120.585 291.295 120.379 291.677 120.218 292.146L117.314 291.706ZM124.354 294.478L121.076 294.896C120.548 294.955 120.101 295.057 119.734 295.204C119.382 295.351 119.111 295.541 118.92 295.776C118.729 296.011 118.634 296.289 118.634 296.612C118.634 296.876 118.693 297.096 118.81 297.272C118.927 297.448 119.096 297.58 119.316 297.668C119.551 297.756 119.837 297.8 120.174 297.8C120.585 297.8 120.973 297.749 121.34 297.646C121.707 297.543 122.044 297.404 122.352 297.228C122.675 297.052 122.961 296.839 123.21 296.59C123.474 296.341 123.694 296.069 123.87 295.776C124.031 295.512 124.156 295.233 124.244 294.94L124.354 294.478ZM141.608 292.212L138.594 292.74C138.667 292.212 138.638 291.765 138.506 291.398C138.374 291.031 138.139 290.76 137.802 290.584C137.465 290.393 137.017 290.298 136.46 290.298C135.976 290.298 135.521 290.401 135.096 290.606C134.685 290.797 134.304 291.061 133.952 291.398C133.615 291.735 133.321 292.131 133.072 292.586C132.823 293.026 132.632 293.495 132.5 293.994C132.368 294.493 132.302 294.991 132.302 295.49C132.302 295.754 132.331 296.003 132.39 296.238C132.449 296.458 132.537 296.656 132.654 296.832C132.771 297.008 132.911 297.162 133.072 297.294C133.233 297.411 133.424 297.499 133.644 297.558C133.879 297.617 134.143 297.646 134.436 297.646C134.905 297.646 135.353 297.558 135.778 297.382C136.218 297.206 136.614 296.927 136.966 296.546C137.318 296.165 137.611 295.695 137.846 295.138L140.772 295.644C140.435 296.641 139.936 297.485 139.276 298.174C138.616 298.849 137.831 299.362 136.922 299.714C136.027 300.051 135.052 300.22 133.996 300.22C133.351 300.22 132.771 300.147 132.258 300C131.745 299.868 131.29 299.67 130.894 299.406C130.498 299.127 130.161 298.805 129.882 298.438C129.603 298.071 129.391 297.661 129.244 297.206C129.112 296.751 129.046 296.267 129.046 295.754C129.046 294.903 129.171 294.089 129.42 293.312C129.669 292.52 130.021 291.787 130.476 291.112C130.945 290.437 131.503 289.851 132.148 289.352C132.793 288.839 133.512 288.443 134.304 288.164C135.111 287.871 135.976 287.724 136.9 287.724C138.103 287.724 139.056 287.937 139.76 288.362C140.479 288.787 140.985 289.345 141.278 290.034C141.571 290.709 141.681 291.435 141.608 292.212ZM141.081 300L144.293 287.944H147.395L144.865 297.426H148.627L151.179 287.944H154.281L151.751 297.426H155.535L158.087 287.944H161.167L157.955 300H141.081ZM162.922 300L165.474 290.518H161.712L162.394 287.944H173.13L172.448 290.518H168.664L166.112 300H162.922ZM172.79 291.706C173.01 291.061 173.296 290.496 173.648 290.012C174.015 289.513 174.44 289.095 174.924 288.758C175.423 288.406 175.995 288.149 176.64 287.988C177.285 287.812 178.004 287.724 178.796 287.724C179.691 287.724 180.453 287.849 181.084 288.098C181.729 288.333 182.235 288.67 182.602 289.11C182.983 289.55 183.225 290.056 183.328 290.628C183.431 291.185 183.401 291.779 183.24 292.41L182.008 297.03C181.949 297.221 181.927 297.375 181.942 297.492C181.971 297.609 182.037 297.697 182.14 297.756C182.257 297.8 182.389 297.822 182.536 297.822C182.609 297.822 182.683 297.822 182.756 297.822C182.844 297.807 182.903 297.8 182.932 297.8L182.294 299.956C182.103 300.029 181.876 300.088 181.612 300.132C181.363 300.176 181.15 300.198 180.974 300.198C180.373 300.198 179.903 300.088 179.566 299.868C179.229 299.648 179.016 299.34 178.928 298.944C178.869 298.709 178.855 298.46 178.884 298.196C178.855 298.225 178.818 298.262 178.774 298.306C178.407 298.717 178.004 299.069 177.564 299.362C177.124 299.641 176.655 299.853 176.156 300C175.657 300.147 175.122 300.22 174.55 300.22C173.831 300.22 173.208 300.095 172.68 299.846C172.167 299.597 171.771 299.245 171.492 298.79C171.213 298.335 171.074 297.8 171.074 297.184C171.074 296.407 171.272 295.725 171.668 295.138C172.064 294.537 172.695 294.038 173.56 293.642C174.44 293.231 175.591 292.953 177.014 292.806L180.336 292.476C180.424 292.124 180.453 291.809 180.424 291.53C180.38 291.237 180.277 290.987 180.116 290.782C179.955 290.562 179.735 290.393 179.456 290.276C179.192 290.159 178.869 290.1 178.488 290.1C178.019 290.1 177.601 290.173 177.234 290.32C176.867 290.467 176.559 290.694 176.31 291.002C176.061 291.295 175.855 291.677 175.694 292.146L172.79 291.706ZM179.83 294.478L176.552 294.896C176.024 294.955 175.577 295.057 175.21 295.204C174.858 295.351 174.587 295.541 174.396 295.776C174.205 296.011 174.11 296.289 174.11 296.612C174.11 296.876 174.169 297.096 174.286 297.272C174.403 297.448 174.572 297.58 174.792 297.668C175.027 297.756 175.313 297.8 175.65 297.8C176.061 297.8 176.449 297.749 176.816 297.646C177.183 297.543 177.52 297.404 177.828 297.228C178.151 297.052 178.437 296.839 178.686 296.59C178.95 296.341 179.17 296.069 179.346 295.776C179.507 295.512 179.632 295.233 179.72 294.94L179.83 294.478ZM189.78 300.22C188.754 300.22 187.888 300.051 187.184 299.714C186.48 299.377 185.938 298.878 185.556 298.218C185.19 297.558 184.984 296.751 184.94 295.798C184.911 294.845 185.05 293.752 185.358 292.52L185.622 291.508C185.974 290.159 186.422 288.993 186.964 288.01C187.507 287.027 188.152 286.228 188.9 285.612C189.663 284.981 190.536 284.505 191.518 284.182C192.516 283.845 193.645 283.639 194.906 283.566L197.172 283.434C197.554 283.405 197.884 283.368 198.162 283.324C198.441 283.28 198.742 283.221 199.064 283.148L198.558 285.744C198.25 285.847 197.92 285.927 197.568 285.986C197.231 286.045 196.842 286.089 196.402 286.118L194.158 286.25C193.396 286.294 192.714 286.433 192.112 286.668C191.526 286.888 190.998 287.225 190.528 287.68C190.074 288.12 189.678 288.685 189.34 289.374C189.179 289.667 189.032 289.997 188.9 290.364C189.208 290.027 189.538 289.726 189.89 289.462C190.418 289.066 190.983 288.765 191.584 288.56C192.2 288.355 192.838 288.252 193.498 288.252C194.026 288.252 194.496 288.318 194.906 288.45C195.332 288.567 195.706 288.743 196.028 288.978C196.351 289.213 196.622 289.499 196.842 289.836C197.062 290.173 197.224 290.555 197.326 290.98C197.444 291.405 197.502 291.875 197.502 292.388C197.502 293.239 197.378 294.053 197.128 294.83C196.894 295.607 196.549 296.326 196.094 296.986C195.654 297.631 195.112 298.196 194.466 298.68C193.836 299.164 193.124 299.545 192.332 299.824C191.54 300.088 190.69 300.22 189.78 300.22ZM190.11 297.646C190.58 297.646 191.02 297.558 191.43 297.382C191.856 297.191 192.23 296.935 192.552 296.612C192.875 296.289 193.161 295.923 193.41 295.512C193.66 295.087 193.843 294.647 193.96 294.192C194.092 293.737 194.158 293.29 194.158 292.85C194.158 292.557 194.129 292.3 194.07 292.08C194.026 291.845 193.946 291.64 193.828 291.464C193.726 291.288 193.594 291.141 193.432 291.024C193.271 290.892 193.08 290.797 192.86 290.738C192.64 290.679 192.391 290.65 192.112 290.65C191.672 290.65 191.262 290.731 190.88 290.892C190.499 291.053 190.14 291.273 189.802 291.552C189.48 291.831 189.194 292.161 188.944 292.542C188.71 292.909 188.519 293.312 188.372 293.752C188.226 294.192 188.13 294.647 188.086 295.116C188.057 295.439 188.057 295.732 188.086 295.996C188.13 296.26 188.196 296.495 188.284 296.7C188.387 296.905 188.519 297.081 188.68 297.228C188.856 297.375 189.062 297.485 189.296 297.558C189.531 297.617 189.802 297.646 190.11 297.646ZM197.696 300L200.908 287.944H204.098L202.91 292.388H207.904L209.092 287.944H212.26L209.048 300H205.858L207.2 294.94H202.228L200.864 300H197.696ZM211.662 300L214.874 287.944H218.064L217.074 291.574H219.56C220.41 291.574 221.122 291.713 221.694 291.992C222.28 292.271 222.72 292.674 223.014 293.202C223.307 293.715 223.454 294.346 223.454 295.094C223.454 295.871 223.314 296.568 223.036 297.184C222.757 297.785 222.361 298.299 221.848 298.724C221.349 299.135 220.77 299.45 220.11 299.67C219.45 299.89 218.738 300 217.976 300H211.662ZM223.41 300L226.644 287.944H229.834L226.6 300H223.41ZM216.458 293.928L215.468 297.646H217.844C218.342 297.646 218.782 297.558 219.164 297.382C219.56 297.191 219.86 296.935 220.066 296.612C220.286 296.275 220.396 295.886 220.396 295.446C220.396 295.109 220.337 294.83 220.22 294.61C220.102 294.39 219.926 294.221 219.692 294.104C219.457 293.987 219.171 293.928 218.834 293.928H216.458ZM236.519 300L234.803 295.93L231.129 300H227.653L233.593 293.576L231.041 287.944H234.297L235.881 291.596L239.269 287.944H242.767L237.025 293.95L239.731 300H236.519ZM258.451 300V290.958L254.843 297.844H252.643L248.969 290.98V300H246.791V288.01H249.585L253.743 295.776L257.835 288.01H260.629V300H258.451ZM269.002 300.22C268.239 300.22 267.535 300.125 266.89 299.934C266.259 299.729 265.702 299.45 265.218 299.098C264.734 298.731 264.323 298.291 263.986 297.778C263.648 297.265 263.392 296.693 263.216 296.062C263.04 295.417 262.952 294.727 262.952 293.994C262.952 293.261 263.032 292.579 263.194 291.948C263.37 291.317 263.626 290.753 263.964 290.254C264.301 289.741 264.704 289.301 265.174 288.934C265.658 288.567 266.215 288.289 266.846 288.098C267.476 287.893 268.173 287.79 268.936 287.79C269.801 287.79 270.586 287.929 271.29 288.208C271.994 288.487 272.595 288.89 273.094 289.418C273.607 289.931 273.996 290.547 274.26 291.266C274.538 291.97 274.678 292.762 274.678 293.642C274.678 293.818 274.67 293.994 274.656 294.17C274.641 294.331 274.612 294.493 274.568 294.654H265.35C265.364 294.918 265.401 295.175 265.46 295.424C265.548 295.879 265.687 296.282 265.878 296.634C266.083 296.971 266.332 297.272 266.626 297.536C266.919 297.785 267.264 297.976 267.66 298.108C268.056 298.24 268.503 298.306 269.002 298.306C269.618 298.306 270.146 298.218 270.586 298.042C271.04 297.866 271.414 297.617 271.708 297.294C272.001 296.957 272.214 296.553 272.346 296.084L274.59 296.48C274.384 297.257 274.047 297.932 273.578 298.504C273.108 299.061 272.492 299.487 271.73 299.78C270.967 300.073 270.058 300.22 269.002 300.22ZM265.394 292.894H272.368C272.338 292.527 272.265 292.19 272.148 291.882C272.001 291.427 271.774 291.039 271.466 290.716C271.172 290.393 270.813 290.144 270.388 289.968C269.977 289.792 269.5 289.704 268.958 289.704C268.474 289.704 268.034 289.77 267.638 289.902C267.256 290.019 266.919 290.203 266.626 290.452C266.347 290.701 266.105 291.002 265.9 291.354C265.694 291.706 265.548 292.102 265.46 292.542C265.43 292.659 265.408 292.777 265.394 292.894ZM279.005 288.01L279.181 290.232C279.328 289.997 279.482 289.785 279.643 289.594C280.083 289.022 280.618 288.582 281.249 288.274C281.894 287.951 282.613 287.79 283.405 287.79C284.05 287.79 284.644 287.893 285.187 288.098C285.744 288.289 286.236 288.567 286.661 288.934C287.101 289.301 287.468 289.741 287.761 290.254C288.069 290.767 288.304 291.339 288.465 291.97C288.626 292.601 288.707 293.275 288.707 293.994C288.707 294.727 288.626 295.409 288.465 296.04C288.304 296.671 288.069 297.243 287.761 297.756C287.468 298.269 287.101 298.709 286.661 299.076C286.236 299.443 285.744 299.729 285.187 299.934C284.644 300.125 284.05 300.22 283.405 300.22C282.613 300.22 281.894 300.066 281.249 299.758C280.618 299.435 280.083 298.995 279.643 298.438C279.526 298.291 279.416 298.137 279.313 297.976V304.4H276.871V288.01H279.005ZM282.767 298.196C283.207 298.196 283.61 298.13 283.977 297.998C284.344 297.866 284.666 297.675 284.945 297.426C285.224 297.177 285.451 296.876 285.627 296.524C285.818 296.172 285.957 295.791 286.045 295.38C286.148 294.955 286.199 294.5 286.199 294.016C286.199 293.517 286.148 293.055 286.045 292.63C285.957 292.205 285.818 291.823 285.627 291.486C285.451 291.134 285.224 290.833 284.945 290.584C284.666 290.335 284.344 290.144 283.977 290.012C283.61 289.88 283.207 289.814 282.767 289.814C282.048 289.814 281.432 289.997 280.919 290.364C280.406 290.716 280.01 291.207 279.731 291.838C279.452 292.469 279.313 293.195 279.313 294.016C279.313 294.617 279.386 295.175 279.533 295.688C279.694 296.201 279.922 296.649 280.215 297.03C280.523 297.397 280.89 297.683 281.315 297.888C281.74 298.093 282.224 298.196 282.767 298.196ZM296.156 300.22C295.408 300.22 294.726 300.125 294.11 299.934C293.494 299.743 292.944 299.472 292.46 299.12C291.976 298.753 291.566 298.321 291.228 297.822C290.906 297.309 290.656 296.737 290.48 296.106C290.319 295.461 290.238 294.757 290.238 293.994C290.238 293.261 290.319 292.571 290.48 291.926C290.656 291.281 290.906 290.701 291.228 290.188C291.566 289.675 291.976 289.242 292.46 288.89C292.944 288.523 293.494 288.252 294.11 288.076C294.726 287.885 295.408 287.79 296.156 287.79C296.919 287.79 297.608 287.885 298.224 288.076C298.855 288.252 299.405 288.523 299.874 288.89C300.358 289.242 300.769 289.675 301.106 290.188C301.444 290.701 301.693 291.281 301.854 291.926C302.03 292.571 302.118 293.261 302.118 293.994C302.118 294.757 302.03 295.461 301.854 296.106C301.693 296.737 301.444 297.309 301.106 297.822C300.769 298.321 300.358 298.753 299.874 299.12C299.405 299.472 298.855 299.743 298.224 299.934C297.608 300.125 296.919 300.22 296.156 300.22ZM296.156 298.24C296.64 298.24 297.058 298.174 297.41 298.042C297.777 297.91 298.1 297.727 298.378 297.492C298.657 297.257 298.884 296.971 299.06 296.634C299.251 296.282 299.39 295.886 299.478 295.446C299.566 295.006 299.61 294.522 299.61 293.994C299.61 293.466 299.566 292.982 299.478 292.542C299.39 292.102 299.251 291.713 299.06 291.376C298.884 291.039 298.657 290.753 298.378 290.518C298.1 290.269 297.777 290.085 297.41 289.968C297.058 289.836 296.64 289.77 296.156 289.77C295.702 289.77 295.291 289.836 294.924 289.968C294.558 290.085 294.235 290.269 293.956 290.518C293.692 290.753 293.465 291.046 293.274 291.398C293.084 291.735 292.944 292.124 292.856 292.564C292.768 292.989 292.724 293.466 292.724 293.994C292.724 294.522 292.768 295.006 292.856 295.446C292.959 295.886 293.098 296.282 293.274 296.634C293.465 296.971 293.692 297.257 293.956 297.492C294.235 297.727 294.558 297.91 294.924 298.042C295.291 298.174 295.702 298.24 296.156 298.24ZM304.437 300V288.01H315.085V300H312.643V289.99H306.879V300H304.437ZM320.3 288.01L320.476 290.232C320.623 289.997 320.777 289.785 320.938 289.594C321.378 289.022 321.914 288.582 322.544 288.274C323.19 287.951 323.908 287.79 324.7 287.79C325.346 287.79 325.94 287.893 326.482 288.098C327.04 288.289 327.531 288.567 327.956 288.934C328.396 289.301 328.763 289.741 329.056 290.254C329.364 290.767 329.599 291.339 329.76 291.97C329.922 292.601 330.002 293.275 330.002 293.994C330.002 294.727 329.922 295.409 329.76 296.04C329.599 296.671 329.364 297.243 329.056 297.756C328.763 298.269 328.396 298.709 327.956 299.076C327.531 299.443 327.04 299.729 326.482 299.934C325.94 300.125 325.346 300.22 324.7 300.22C323.908 300.22 323.19 300.066 322.544 299.758C321.914 299.435 321.378 298.995 320.938 298.438C320.821 298.291 320.711 298.137 320.608 297.976V304.4H318.166V288.01H320.3ZM324.062 298.196C324.502 298.196 324.906 298.13 325.272 297.998C325.639 297.866 325.962 297.675 326.24 297.426C326.519 297.177 326.746 296.876 326.922 296.524C327.113 296.172 327.252 295.791 327.34 295.38C327.443 294.955 327.494 294.5 327.494 294.016C327.494 293.517 327.443 293.055 327.34 292.63C327.252 292.205 327.113 291.823 326.922 291.486C326.746 291.134 326.519 290.833 326.24 290.584C325.962 290.335 325.639 290.144 325.272 290.012C324.906 289.88 324.502 289.814 324.062 289.814C323.344 289.814 322.728 289.997 322.214 290.364C321.701 290.716 321.305 291.207 321.026 291.838C320.748 292.469 320.608 293.195 320.608 294.016C320.608 294.617 320.682 295.175 320.828 295.688C320.99 296.201 321.217 296.649 321.51 297.03C321.818 297.397 322.185 297.683 322.61 297.888C323.036 298.093 323.52 298.196 324.062 298.196ZM332.304 300V288.01H334.68V296.722L340.488 288.01H342.864V300H340.488V291.288L334.68 300H332.304ZM354.791 300H352.415V295.688H350.391L347.443 300H344.825L348.059 295.358C347.707 295.285 347.377 295.182 347.069 295.05C346.424 294.757 345.918 294.339 345.551 293.796C345.185 293.239 345.001 292.579 345.001 291.816C345.001 291.024 345.185 290.342 345.551 289.77C345.918 289.198 346.439 288.758 347.113 288.45C347.788 288.142 348.573 287.988 349.467 287.988H354.791V300ZM352.415 293.84V289.792H349.643C349.189 289.792 348.785 289.873 348.433 290.034C348.096 290.195 347.832 290.43 347.641 290.738C347.465 291.031 347.377 291.398 347.377 291.838C347.377 292.263 347.473 292.63 347.663 292.938C347.854 293.231 348.118 293.459 348.455 293.62C348.793 293.767 349.189 293.84 349.643 293.84H352.415ZM360.292 300V289.99H356.266V288.01H366.76V289.99H362.734V300H360.292ZM368.25 300V288.01H370.626V296.722L376.434 288.01H378.81V300H376.434V291.288L370.626 300H368.25ZM381.893 300V288.01H384.269V296.722L390.077 288.01H392.453V300H390.077V291.288L384.269 300H381.893ZM389.175 283.346H391.111C391.111 283.859 391.016 284.329 390.825 284.754C390.649 285.165 390.385 285.517 390.033 285.81C389.696 286.103 389.293 286.331 388.823 286.492C388.354 286.653 387.826 286.734 387.239 286.734C386.682 286.734 386.161 286.653 385.677 286.492C385.193 286.331 384.783 286.103 384.445 285.81C384.108 285.517 383.844 285.165 383.653 284.754C383.463 284.329 383.367 283.859 383.367 283.346H385.303C385.303 283.933 385.479 284.395 385.831 284.732C386.183 285.069 386.653 285.238 387.239 285.238C387.635 285.238 387.98 285.165 388.273 285.018C388.567 284.857 388.787 284.637 388.933 284.358C389.095 284.079 389.175 283.742 389.175 283.346Z" fill="black"/>
<path d="M0.396 19L4.532 3.6H7.92L6.292 9.672H13.31L14.96 3.6H18.326L14.19 19H10.824L12.584 12.444H5.544L3.784 19H0.396ZM18.7351 10.706C18.9551 10.0607 19.2411 9.496 19.5931 9.012C19.9597 8.51333 20.3851 8.09533 20.8691 7.758C21.3677 7.406 21.9397 7.14933 22.5851 6.988C23.2304 6.812 23.9491 6.724 24.7411 6.724C25.6357 6.724 26.3984 6.84867 27.0291 7.098C27.6744 7.33267 28.1804 7.67 28.5471 8.11C28.9284 8.55 29.1704 9.056 29.2731 9.628C29.3757 10.1853 29.3464 10.7793 29.1851 11.41L27.9531 16.03C27.8944 16.2207 27.8724 16.3747 27.8871 16.492C27.9164 16.6093 27.9824 16.6973 28.0851 16.756C28.2024 16.8 28.3344 16.822 28.4811 16.822C28.5544 16.822 28.6277 16.822 28.7011 16.822C28.7891 16.8073 28.8477 16.8 28.8771 16.8L28.2391 18.956C28.0484 19.0293 27.8211 19.088 27.5571 19.132C27.3077 19.176 27.0951 19.198 26.9191 19.198C26.3177 19.198 25.8484 19.088 25.5111 18.868C25.1737 18.648 24.9611 18.34 24.8731 17.944C24.8144 17.7093 24.7997 17.46 24.8291 17.196C24.7997 17.2253 24.7631 17.262 24.7191 17.306C24.3524 17.7167 23.9491 18.0687 23.5091 18.362C23.0691 18.6407 22.5997 18.8533 22.1011 19C21.6024 19.1467 21.0671 19.22 20.4951 19.22C19.7764 19.22 19.1531 19.0953 18.6251 18.846C18.1117 18.5967 17.7157 18.2447 17.4371 17.79C17.1584 17.3353 17.0191 16.8 17.0191 16.184C17.0191 15.4067 17.2171 14.7247 17.6131 14.138C18.0091 13.5367 18.6397 13.038 19.5051 12.642C20.3851 12.2313 21.5364 11.9527 22.9591 11.806L26.2811 11.476C26.3691 11.124 26.3984 10.8087 26.3691 10.53C26.3251 10.2367 26.2224 9.98733 26.0611 9.782C25.8997 9.562 25.6797 9.39333 25.4011 9.276C25.1371 9.15867 24.8144 9.1 24.4331 9.1C23.9637 9.1 23.5457 9.17333 23.1791 9.32C22.8124 9.46667 22.5044 9.694 22.2551 10.002C22.0057 10.2953 21.8004 10.6767 21.6391 11.146L18.7351 10.706ZM25.7751 13.478L22.4971 13.896C21.9691 13.9547 21.5217 14.0573 21.1551 14.204C20.8031 14.3507 20.5317 14.5413 20.3411 14.776C20.1504 15.0107 20.0551 15.2893 20.0551 15.612C20.0551 15.876 20.1137 16.096 20.2311 16.272C20.3484 16.448 20.5171 16.58 20.7371 16.668C20.9717 16.756 21.2577 16.8 21.5951 16.8C22.0057 16.8 22.3944 16.7487 22.7611 16.646C23.1277 16.5433 23.4651 16.404 23.7731 16.228C24.0957 16.052 24.3817 15.8393 24.6311 15.59C24.8951 15.3407 25.1151 15.0693 25.2911 14.776C25.4524 14.512 25.5771 14.2333 25.6651 13.94L25.7751 13.478ZM29.6752 19L32.8873 6.944H35.9892L33.4592 16.426H37.2213L39.7733 6.944H42.8753L40.3453 16.426H44.1293L46.6813 6.944H49.7613L46.5493 19H29.6752ZM54.9484 19.22C54.3031 19.22 53.7164 19.1467 53.1884 19C52.6604 18.868 52.1911 18.67 51.7804 18.406C51.3844 18.142 51.0471 17.834 50.7684 17.482C50.4898 17.1153 50.2771 16.712 50.1304 16.272C49.9984 15.8173 49.9324 15.3333 49.9324 14.82C49.9324 13.984 50.0498 13.17 50.2844 12.378C50.5191 11.586 50.8564 10.8527 51.2964 10.178C51.7511 9.50333 52.2938 8.90933 52.9244 8.396C53.5551 7.868 54.2738 7.45733 55.0804 7.164C55.8871 6.87067 56.7671 6.724 57.7204 6.724C58.5418 6.724 59.2531 6.84867 59.8544 7.098C60.4704 7.33267 60.9764 7.65533 61.3724 8.066C61.7831 8.47667 62.0911 8.95333 62.2964 9.496C62.5164 10.024 62.6264 10.5813 62.6264 11.168C62.6264 11.608 62.5751 12.0333 62.4724 12.444C62.3698 12.8547 62.2231 13.28 62.0324 13.72H53.1224C53.0931 13.9693 53.0784 14.226 53.0784 14.49C53.0784 14.754 53.1078 15.0033 53.1664 15.238C53.2251 15.4727 53.3058 15.6853 53.4084 15.876C53.5258 16.0667 53.6724 16.2207 53.8484 16.338C54.0391 16.4553 54.2664 16.5507 54.5304 16.624C54.7944 16.6973 55.0951 16.734 55.4324 16.734C55.9311 16.734 56.3858 16.668 56.7964 16.536C57.2218 16.3893 57.6031 16.1767 57.9404 15.898C58.2778 15.6193 58.5564 15.2893 58.7764 14.908L61.5704 15.414C61.2038 16.2207 60.7124 16.91 60.0964 17.482C59.4804 18.0393 58.7398 18.472 57.8744 18.78C57.0091 19.0733 56.0338 19.22 54.9484 19.22ZM53.6504 11.718H59.7444C59.7444 11.6593 59.7444 11.608 59.7444 11.564C59.7444 11.168 59.6931 10.8233 59.5904 10.53C59.4878 10.2367 59.3338 9.99467 59.1284 9.804C58.9378 9.59867 58.6958 9.452 58.4024 9.364C58.1091 9.26133 57.7644 9.21 57.3684 9.21C56.8551 9.21 56.3711 9.298 55.9164 9.474C55.4764 9.65 55.0804 9.89933 54.7284 10.222C54.3911 10.53 54.0978 10.904 53.8484 11.344C53.7751 11.4613 53.7091 11.586 53.6504 11.718ZM66.4161 19L69.6281 6.944H80.7821L77.5481 19H74.3581L76.8881 9.518H72.1361L69.5841 19H66.4161ZM86.173 6.944L85.887 8.814C85.975 8.71133 86.0703 8.60867 86.173 8.506C86.7303 7.94867 87.3463 7.516 88.021 7.208C88.7103 6.88533 89.451 6.724 90.243 6.724C90.7563 6.724 91.2256 6.79733 91.651 6.944C92.091 7.076 92.4723 7.274 92.795 7.538C93.1176 7.802 93.3816 8.11733 93.587 8.484C93.807 8.836 93.9756 9.23933 94.093 9.694C94.2103 10.1487 94.269 10.64 94.269 11.168C94.269 12.0627 94.1443 12.9133 93.895 13.72C93.6603 14.512 93.323 15.2453 92.883 15.92C92.4576 16.5947 91.9516 17.1813 91.365 17.68C90.793 18.164 90.1623 18.5453 89.473 18.824C88.7836 19.088 88.065 19.22 87.317 19.22C86.4663 19.22 85.7623 19.066 85.205 18.758C84.6476 18.4353 84.2223 17.9953 83.929 17.438C83.885 17.3647 83.8483 17.284 83.819 17.196L82.147 23.4H78.979L83.379 6.944H86.173ZM86.921 16.602C87.3756 16.602 87.8083 16.514 88.219 16.338C88.6296 16.1473 89.0036 15.898 89.341 15.59C89.693 15.2673 89.9936 14.9007 90.243 14.49C90.4923 14.0647 90.683 13.61 90.815 13.126C90.947 12.6273 91.013 12.114 91.013 11.586C91.013 11.3073 90.9836 11.0507 90.925 10.816C90.8663 10.5813 90.7783 10.376 90.661 10.2C90.5583 10.0093 90.419 9.85533 90.243 9.738C90.067 9.606 89.8616 9.51067 89.627 9.452C89.407 9.37867 89.1503 9.342 88.857 9.342C88.2556 9.342 87.691 9.496 87.163 9.804C86.6496 10.112 86.2023 10.5373 85.821 11.08C85.4396 11.6227 85.1536 12.2607 84.963 12.994C84.8163 13.5367 84.7503 14.028 84.765 14.468C84.7796 14.908 84.8676 15.2893 85.029 15.612C85.205 15.92 85.447 16.162 85.755 16.338C86.0776 16.514 86.4663 16.602 86.921 16.602ZM100.066 19.22C99.4358 19.22 98.8565 19.1467 98.3285 19C97.8005 18.868 97.3311 18.67 96.9205 18.406C96.5245 18.142 96.1871 17.834 95.9085 17.482C95.6298 17.1153 95.4171 16.712 95.2705 16.272C95.1385 15.8173 95.0725 15.3333 95.0725 14.82C95.0725 13.984 95.1971 13.17 95.4465 12.378C95.6958 11.586 96.0478 10.8527 96.5025 10.178C96.9718 9.50333 97.5291 8.90933 98.1745 8.396C98.8198 7.868 99.5385 7.45733 100.33 7.164C101.137 6.87067 101.995 6.724 102.904 6.724C103.55 6.724 104.136 6.79733 104.664 6.944C105.192 7.076 105.654 7.274 106.05 7.538C106.461 7.802 106.806 8.11733 107.084 8.484C107.363 8.836 107.568 9.232 107.7 9.672C107.847 10.112 107.92 10.5887 107.92 11.102C107.92 11.938 107.796 12.7593 107.546 13.566C107.297 14.358 106.945 15.0987 106.49 15.788C106.036 16.4627 105.478 17.064 104.818 17.592C104.173 18.1053 103.454 18.5087 102.662 18.802C101.87 19.0807 101.005 19.22 100.066 19.22ZM100.506 16.646C101.005 16.646 101.467 16.5433 101.892 16.338C102.318 16.118 102.699 15.8247 103.036 15.458C103.374 15.0913 103.66 14.6807 103.894 14.226C104.144 13.7567 104.334 13.28 104.466 12.796C104.598 12.2973 104.664 11.8207 104.664 11.366C104.664 11.1167 104.635 10.8893 104.576 10.684C104.532 10.464 104.452 10.2733 104.334 10.112C104.217 9.936 104.07 9.78933 103.894 9.672C103.718 9.55467 103.513 9.46667 103.278 9.408C103.058 9.33467 102.794 9.298 102.486 9.298C102.002 9.298 101.548 9.408 101.122 9.628C100.712 9.83333 100.33 10.1193 99.9785 10.486C99.6411 10.8527 99.3478 11.2707 99.0985 11.74C98.8491 12.1947 98.6585 12.664 98.5265 13.148C98.3945 13.632 98.3285 14.1087 98.3285 14.578C98.3285 14.8273 98.3578 15.062 98.4165 15.282C98.4751 15.4873 98.5631 15.678 98.6805 15.854C98.7978 16.0153 98.9371 16.162 99.0985 16.294C99.2745 16.4113 99.4798 16.4993 99.7145 16.558C99.9638 16.6167 100.228 16.646 100.506 16.646ZM121.366 11.212L118.352 11.74C118.426 11.212 118.396 10.7647 118.264 10.398C118.132 10.0313 117.898 9.76 117.56 9.584C117.223 9.39333 116.776 9.298 116.218 9.298C115.734 9.298 115.28 9.40067 114.854 9.606C114.444 9.79667 114.062 10.0607 113.71 10.398C113.373 10.7353 113.08 11.1313 112.83 11.586C112.581 12.026 112.39 12.4953 112.258 12.994C112.126 13.4927 112.06 13.9913 112.06 14.49C112.06 14.754 112.09 15.0033 112.148 15.238C112.207 15.458 112.295 15.656 112.412 15.832C112.53 16.008 112.669 16.162 112.83 16.294C112.992 16.4113 113.182 16.4993 113.402 16.558C113.637 16.6167 113.901 16.646 114.194 16.646C114.664 16.646 115.111 16.558 115.536 16.382C115.976 16.206 116.372 15.9273 116.724 15.546C117.076 15.1647 117.37 14.6953 117.604 14.138L120.53 14.644C120.193 15.6413 119.694 16.4847 119.034 17.174C118.374 17.8487 117.59 18.362 116.68 18.714C115.786 19.0513 114.81 19.22 113.754 19.22C113.109 19.22 112.53 19.1467 112.016 19C111.503 18.868 111.048 18.67 110.652 18.406C110.256 18.1273 109.919 17.8047 109.64 17.438C109.362 17.0713 109.149 16.6607 109.002 16.206C108.87 15.7513 108.804 15.2673 108.804 14.754C108.804 13.9033 108.929 13.0893 109.178 12.312C109.428 11.52 109.78 10.7867 110.234 10.112C110.704 9.43733 111.261 8.85067 111.906 8.352C112.552 7.83867 113.27 7.44267 114.062 7.164C114.869 6.87067 115.734 6.724 116.658 6.724C117.861 6.724 118.814 6.93667 119.518 7.362C120.237 7.78733 120.743 8.34467 121.036 9.034C121.33 9.70867 121.44 10.4347 121.366 11.212ZM123.193 19L125.745 9.518H121.983L122.665 6.944H133.401L132.719 9.518H128.935L126.383 19H123.193ZM137.395 6.944L137.109 8.814C137.197 8.71133 137.292 8.60867 137.395 8.506C137.952 7.94867 138.568 7.516 139.243 7.208C139.932 6.88533 140.673 6.724 141.465 6.724C141.978 6.724 142.448 6.79733 142.873 6.944C143.313 7.076 143.694 7.274 144.017 7.538C144.34 7.802 144.604 8.11733 144.809 8.484C145.029 8.836 145.198 9.23933 145.315 9.694C145.432 10.1487 145.491 10.64 145.491 11.168C145.491 12.0627 145.366 12.9133 145.117 13.72C144.882 14.512 144.545 15.2453 144.105 15.92C143.68 16.5947 143.174 17.1813 142.587 17.68C142.015 18.164 141.384 18.5453 140.695 18.824C140.006 19.088 139.287 19.22 138.539 19.22C137.688 19.22 136.984 19.066 136.427 18.758C135.87 18.4353 135.444 17.9953 135.151 17.438C135.107 17.3647 135.07 17.284 135.041 17.196L133.369 23.4H130.201L134.601 6.944H137.395ZM138.143 16.602C138.598 16.602 139.03 16.514 139.441 16.338C139.852 16.1473 140.226 15.898 140.563 15.59C140.915 15.2673 141.216 14.9007 141.465 14.49C141.714 14.0647 141.905 13.61 142.037 13.126C142.169 12.6273 142.235 12.114 142.235 11.586C142.235 11.3073 142.206 11.0507 142.147 10.816C142.088 10.5813 142 10.376 141.883 10.2C141.78 10.0093 141.641 9.85533 141.465 9.738C141.289 9.606 141.084 9.51067 140.849 9.452C140.629 9.37867 140.372 9.342 140.079 9.342C139.478 9.342 138.913 9.496 138.385 9.804C137.872 10.112 137.424 10.5373 137.043 11.08C136.662 11.6227 136.376 12.2607 136.185 12.994C136.038 13.5367 135.972 14.028 135.987 14.468C136.002 14.908 136.09 15.2893 136.251 15.612C136.427 15.92 136.669 16.162 136.977 16.338C137.3 16.514 137.688 16.602 138.143 16.602ZM147.285 10.706C147.505 10.0607 147.791 9.496 148.143 9.012C148.509 8.51333 148.935 8.09533 149.419 7.758C149.917 7.406 150.489 7.14933 151.135 6.988C151.78 6.812 152.499 6.724 153.291 6.724C154.185 6.724 154.948 6.84867 155.579 7.098C156.224 7.33267 156.73 7.67 157.097 8.11C157.478 8.55 157.72 9.056 157.823 9.628C157.925 10.1853 157.896 10.7793 157.735 11.41L156.503 16.03C156.444 16.2207 156.422 16.3747 156.437 16.492C156.466 16.6093 156.532 16.6973 156.635 16.756C156.752 16.8 156.884 16.822 157.031 16.822C157.104 16.822 157.177 16.822 157.251 16.822C157.339 16.8073 157.397 16.8 157.427 16.8L156.789 18.956C156.598 19.0293 156.371 19.088 156.107 19.132C155.857 19.176 155.645 19.198 155.469 19.198C154.867 19.198 154.398 19.088 154.061 18.868C153.723 18.648 153.511 18.34 153.423 17.944C153.364 17.7093 153.349 17.46 153.379 17.196C153.349 17.2253 153.313 17.262 153.269 17.306C152.902 17.7167 152.499 18.0687 152.059 18.362C151.619 18.6407 151.149 18.8533 150.651 19C150.152 19.1467 149.617 19.22 149.045 19.22C148.326 19.22 147.703 19.0953 147.175 18.846C146.661 18.5967 146.265 18.2447 145.987 17.79C145.708 17.3353 145.569 16.8 145.569 16.184C145.569 15.4067 145.767 14.7247 146.163 14.138C146.559 13.5367 147.189 13.038 148.055 12.642C148.935 12.2313 150.086 11.9527 151.509 11.806L154.831 11.476C154.919 11.124 154.948 10.8087 154.919 10.53C154.875 10.2367 154.772 9.98733 154.611 9.782C154.449 9.562 154.229 9.39333 153.951 9.276C153.687 9.15867 153.364 9.1 152.983 9.1C152.513 9.1 152.095 9.17333 151.729 9.32C151.362 9.46667 151.054 9.694 150.805 10.002C150.555 10.2953 150.35 10.6767 150.189 11.146L147.285 10.706ZM154.325 13.478L151.047 13.896C150.519 13.9547 150.071 14.0573 149.705 14.204C149.353 14.3507 149.081 14.5413 148.891 14.776C148.7 15.0107 148.605 15.2893 148.605 15.612C148.605 15.876 148.663 16.096 148.781 16.272C148.898 16.448 149.067 16.58 149.287 16.668C149.521 16.756 149.807 16.8 150.145 16.8C150.555 16.8 150.944 16.7487 151.311 16.646C151.677 16.5433 152.015 16.404 152.323 16.228C152.645 16.052 152.931 15.8393 153.181 15.59C153.445 15.3407 153.665 15.0693 153.841 14.776C154.002 14.512 154.127 14.2333 154.215 13.94L154.325 13.478ZM158.225 19L161.437 6.944H164.627L163.439 11.388H168.433L169.621 6.944H172.789L169.577 19H166.387L167.729 13.94H162.757L161.393 19H158.225ZM185.545 11.212L182.531 11.74C182.604 11.212 182.575 10.7647 182.443 10.398C182.311 10.0313 182.076 9.76 181.739 9.584C181.401 9.39333 180.954 9.298 180.397 9.298C179.913 9.298 179.458 9.40067 179.033 9.606C178.622 9.79667 178.241 10.0607 177.889 10.398C177.551 10.7353 177.258 11.1313 177.009 11.586C176.759 12.026 176.569 12.4953 176.437 12.994C176.305 13.4927 176.239 13.9913 176.239 14.49C176.239 14.754 176.268 15.0033 176.327 15.238C176.385 15.458 176.473 15.656 176.591 15.832C176.708 16.008 176.847 16.162 177.009 16.294C177.17 16.4113 177.361 16.4993 177.581 16.558C177.815 16.6167 178.079 16.646 178.373 16.646C178.842 16.646 179.289 16.558 179.715 16.382C180.155 16.206 180.551 15.9273 180.903 15.546C181.255 15.1647 181.548 14.6953 181.783 14.138L184.709 14.644C184.371 15.6413 183.873 16.4847 183.213 17.174C182.553 17.8487 181.768 18.362 180.859 18.714C179.964 19.0513 178.989 19.22 177.933 19.22C177.287 19.22 176.708 19.1467 176.195 19C175.681 18.868 175.227 18.67 174.831 18.406C174.435 18.1273 174.097 17.8047 173.819 17.438C173.54 17.0713 173.327 16.6607 173.181 16.206C173.049 15.7513 172.983 15.2673 172.983 14.754C172.983 13.9033 173.107 13.0893 173.357 12.312C173.606 11.52 173.958 10.7867 174.413 10.112C174.882 9.43733 175.439 8.85067 176.085 8.352C176.73 7.83867 177.449 7.44267 178.241 7.164C179.047 6.87067 179.913 6.724 180.837 6.724C182.039 6.724 182.993 6.93667 183.697 7.362C184.415 7.78733 184.921 8.34467 185.215 9.034C185.508 9.70867 185.618 10.4347 185.545 11.212ZM187.372 19L189.924 9.518H186.162L186.844 6.944H197.58L196.898 9.518H193.114L190.562 19H187.372ZM195.567 19L198.779 6.944H204.961C205.651 6.944 206.237 7.06867 206.721 7.318C207.22 7.55267 207.601 7.88267 207.865 8.308C208.129 8.71867 208.261 9.188 208.261 9.716C208.261 10.1707 208.166 10.5887 207.975 10.97C207.799 11.3367 207.55 11.6593 207.227 11.938C206.919 12.202 206.56 12.422 206.149 12.598C205.944 12.686 205.731 12.7593 205.511 12.818C205.731 12.8913 205.937 12.9793 206.127 13.082C206.494 13.3167 206.773 13.6173 206.963 13.984C207.154 14.336 207.249 14.7393 207.249 15.194C207.249 15.9567 207.051 16.624 206.655 17.196C206.259 17.7533 205.702 18.1933 204.983 18.516C204.265 18.8387 203.414 19 202.431 19H195.567ZM199.989 13.962L199.219 16.778H202.189C202.571 16.778 202.915 16.712 203.223 16.58C203.546 16.448 203.795 16.2647 203.971 16.03C204.147 15.7953 204.235 15.5093 204.235 15.172C204.235 14.908 204.184 14.688 204.081 14.512C203.979 14.336 203.832 14.204 203.641 14.116C203.451 14.0133 203.209 13.962 202.915 13.962H199.989ZM201.265 9.166L200.583 11.74H203.289C203.656 11.74 203.979 11.6813 204.257 11.564C204.551 11.4467 204.778 11.278 204.939 11.058C205.115 10.838 205.203 10.574 205.203 10.266C205.203 9.89933 205.093 9.628 204.873 9.452C204.653 9.26133 204.323 9.166 203.883 9.166H201.265ZM213.812 19.22C213.182 19.22 212.602 19.1467 212.074 19C211.546 18.868 211.077 18.67 210.666 18.406C210.27 18.142 209.933 17.834 209.654 17.482C209.376 17.1153 209.163 16.712 209.016 16.272C208.884 15.8173 208.818 15.3333 208.818 14.82C208.818 13.984 208.943 13.17 209.192 12.378C209.442 11.586 209.794 10.8527 210.248 10.178C210.718 9.50333 211.275 8.90933 211.92 8.396C212.566 7.868 213.284 7.45733 214.076 7.164C214.883 6.87067 215.741 6.724 216.65 6.724C217.296 6.724 217.882 6.79733 218.41 6.944C218.938 7.076 219.4 7.274 219.796 7.538C220.207 7.802 220.552 8.11733 220.83 8.484C221.109 8.836 221.314 9.232 221.446 9.672C221.593 10.112 221.666 10.5887 221.666 11.102C221.666 11.938 221.542 12.7593 221.292 13.566C221.043 14.358 220.691 15.0987 220.236 15.788C219.782 16.4627 219.224 17.064 218.564 17.592C217.919 18.1053 217.2 18.5087 216.408 18.802C215.616 19.0807 214.751 19.22 213.812 19.22ZM214.252 16.646C214.751 16.646 215.213 16.5433 215.638 16.338C216.064 16.118 216.445 15.8247 216.782 15.458C217.12 15.0913 217.406 14.6807 217.64 14.226C217.89 13.7567 218.08 13.28 218.212 12.796C218.344 12.2973 218.41 11.8207 218.41 11.366C218.41 11.1167 218.381 10.8893 218.322 10.684C218.278 10.464 218.198 10.2733 218.08 10.112C217.963 9.936 217.816 9.78933 217.64 9.672C217.464 9.55467 217.259 9.46667 217.024 9.408C216.804 9.33467 216.54 9.298 216.232 9.298C215.748 9.298 215.294 9.408 214.868 9.628C214.458 9.83333 214.076 10.1193 213.724 10.486C213.387 10.8527 213.094 11.2707 212.844 11.74C212.595 12.1947 212.404 12.664 212.272 13.148C212.14 13.632 212.074 14.1087 212.074 14.578C212.074 14.8273 212.104 15.062 212.162 15.282C212.221 15.4873 212.309 15.678 212.426 15.854C212.544 16.0153 212.683 16.162 212.844 16.294C213.02 16.4113 213.226 16.4993 213.46 16.558C213.71 16.6167 213.974 16.646 214.252 16.646Z" fill="black"/>
<path d="M57.3457 50.1282C50.9739 50.1282 43.2465 50.8846 36.7392 55.9634C28.8762 62.1227 28.0628 70.6593 28.0628 74.9817C28.0628 79.304 28.8762 87.8406 36.7392 94C43.2465 99.0787 50.9739 99.8351 57.3457 99.8351C63.7174 99.8351 71.4448 99.0787 77.9521 94C85.8151 87.8406 86.6286 79.304 86.6286 74.9817C86.6286 70.6593 85.8151 62.1227 77.9521 55.9634C71.4448 50.8846 63.7174 50.1282 57.3457 50.1282ZM113.742 74.9817C113.742 83.8425 111.573 94.8644 98.8298 103.941C91.6446 109.02 79.0367 114.963 57.3457 114.963C35.6546 114.963 23.0467 109.02 15.8616 103.941C3.11809 94.8644 0.948983 83.8425 0.948983 74.9817C0.948983 66.1209 3.11809 55.0989 15.8616 46.022C23.0467 40.9432 35.6546 35 57.3457 35C79.0367 35 91.6446 40.9432 98.8298 46.022C111.573 55.0989 113.742 66.1209 113.742 74.9817Z" fill="black"/>
<path d="M149.525 52.2894V73.1447H172.03C176.774 73.1447 183.417 72.6044 186.807 70.011C188.84 68.4981 190.331 65.6886 190.331 62.2308C190.331 58.4487 188.433 55.9634 185.722 54.4505C184.773 53.9102 181.384 52.2894 173.521 52.2894H149.525ZM124.58 37.1612H175.419C188.298 37.1612 199.008 37.8095 207.278 43.9689C214.598 49.3718 216.089 56.1795 216.089 62.0146C216.089 68.0659 214.734 74.4414 208.362 79.9524C199.686 87.4084 187.484 87.8406 173.792 87.8406H149.525V112.802H124.58V37.1612Z" fill="black"/>
<path d="M249.618 67.2014H301.677V81.4652H249.618V97.6739H312.658V112.802H224.674V37.1612H311.167V52.2894H249.618V67.2014Z" fill="black"/>
<path d="M417.73 37.1612V112.802H393.463L345.608 62.0146V112.802H320.663V37.1612H345.065L392.786 87.9487V37.1612H417.73Z" fill="black"/>
<path d="M433.879 87.8406V74.3333H489.327V87.8406H433.879Z" fill="black"/>
<path d="M0 171.201H26.0292V171.634C26.0292 175.2 27.7916 177.469 29.6896 178.874C34.5701 182.656 43.1109 182.98 47.9914 182.98C55.1766 182.98 58.9725 182.332 61.5483 181.251C65.7509 179.522 67.7845 176.28 67.7845 173.687C67.7845 171.958 66.8355 169.04 61.1416 167.203C58.4302 166.339 51.3806 165.15 47.9914 164.718L34.2989 162.989C23.9957 161.692 11.9301 160.18 5.82946 154.777C3.66036 152.832 0.542276 149.158 0.542276 142.674C0.542276 133.921 5.01605 127.654 13.5569 123.332C23.0467 118.577 34.8412 117.929 44.6022 117.929C61.8194 117.929 71.3093 119.982 77.681 123.007C88.9332 128.302 90.6956 135.65 90.4245 141.377H65.2087C64.9375 138.676 63.5818 136.191 59.5148 134.462C55.3121 132.625 47.5847 132.408 44.331 132.408C39.7217 132.408 34.5701 132.949 31.3164 134.462C28.1983 135.974 26.5715 138.46 26.5715 141.053C26.5715 144.511 30.2319 145.916 33.35 146.78C36.0613 147.537 39.5861 148.185 49.6182 149.482L60.4638 150.886C68.869 151.967 78.2233 153.372 84.595 157.154C92.5936 161.908 94.2204 168.392 94.2204 173.687C94.2204 182.872 89.0688 188.599 83.1038 192.057C78.2233 194.866 69.1402 197.892 49.6182 197.892C34.5701 197.892 17.3528 197.136 7.72743 189.031C0.813414 183.304 0 176.064 0 171.634V171.201Z" fill="black"/>
<path d="M128.872 135.218V156.073H151.376C156.121 156.073 162.764 155.533 166.154 152.94C168.187 151.427 169.678 148.617 169.678 145.159C169.678 141.377 167.78 138.892 165.069 137.379C164.12 136.839 160.731 135.218 152.868 135.218H128.872ZM103.927 120.09H154.766C167.645 120.09 178.355 120.738 186.624 126.897C193.945 132.3 195.436 139.108 195.436 144.943C195.436 150.995 194.081 157.37 187.709 162.881C179.033 170.337 166.831 170.769 153.139 170.769H128.872V195.731H103.927V120.09Z" fill="black"/>
<path d="M222.441 167.419H251.453L236.811 139.108L222.441 167.419ZM216.34 180.386L208.071 195.731H182.042L224.61 120.09H249.148L291.717 195.731H265.688L257.418 180.386H216.34Z" fill="black"/>
<path d="M368.486 169.256H394.515C393.702 181.035 385.974 188.491 379.467 192.057C370.113 197.244 357.234 198 345.168 198C330.933 198 315.343 197.027 303.006 187.518C291.618 178.766 289.314 167.203 289.314 158.343C289.314 148.833 291.889 137.919 302.464 129.383C314.801 119.441 331.069 118.037 342.999 118.037C349.642 118.037 368.757 118.469 380.145 124.736C385.161 127.438 393.431 133.705 393.837 145.484H367.808C367.537 141.702 365.639 138.676 360.758 136.191C355.607 133.597 349.777 133.165 344.761 133.165C337.847 133.165 330.527 133.813 324.29 139.108C320.494 142.35 316.427 148.185 316.427 158.234C316.427 168.068 320.494 174.119 324.562 177.361C330.798 182.223 338.39 182.872 344.897 182.872C349.642 182.872 356.691 182.656 361.436 179.954C364.554 178.225 368.079 174.659 368.486 169.256Z" fill="black"/>
<path d="M427.96 150.13H480.019V164.394H427.96V180.603H491V195.731H403.016V120.09H489.509V135.218H427.96V150.13Z" fill="black"/>
</svg>
