<svg width="754" height="425" viewBox="0 0 754 425" fill="none" xmlns="http://www.w3.org/2000/svg">
<path d="M-3.12549 0H754V425H-3.12549V0Z" fill="black"/>
<path d="M90.3084 66.997L75.1194 87.493L62.4924 77.794L77.1324 57.847L53.7084 50.161L59.0154 34.972L82.4394 43.024V18.319H98.3604V43.024L121.601 35.155L126.725 50.161L103.484 57.847L117.941 77.611L105.314 87.31L90.3084 66.997ZM217.356 166L178.926 70.657H177.645L178.926 81.454V166H145.254V37.9H192.834L229.068 130.864H229.983L266.217 37.9H313.797V166H280.125V81.454L281.406 70.657H280.125L241.695 166H217.356ZM368.367 109.27V141.478H401.49C404.784 141.478 413.568 141.295 418.509 137.269C421.62 134.707 423.999 129.949 423.999 124.459C423.999 119.152 421.437 115.126 418.326 112.93C413.934 109.636 406.98 109.27 402.039 109.27H368.367ZM368.367 37.9V85.48H406.614C417.777 85.48 433.515 86.578 444.678 95.545C455.841 104.512 457.488 116.041 457.488 124.825C457.488 144.04 448.887 153.739 440.835 158.68C430.221 165.268 411.372 166 402.405 166H334.695V37.9H368.367ZM470.298 37.9H503.97V166H470.298V37.9ZM520.275 123.361V110.917H670.518V123.361H520.275Z" fill="white"/>
<rect x="37.7734" y="180" width="180.553" height="47.6329" rx="23.8165" fill="#F2FC3F"/>
<path d="M223.314 203.816C223.314 190.663 233.977 180 247.13 180H420.949C434.103 180 444.766 190.663 444.766 203.816C444.766 216.97 434.103 227.633 420.949 227.633H247.13C233.977 227.633 223.314 216.97 223.314 203.816Z" fill="#F2FC3F"/>
<path d="M450.751 203.816C450.751 190.663 461.414 180 474.567 180H656.367C669.52 180 680.183 190.663 680.183 203.816C680.183 216.97 669.52 227.633 656.366 227.633H474.567C461.414 227.633 450.751 216.97 450.751 203.816Z" fill="#F2FC3F"/>
<rect x="37.7734" y="338.797" width="163.595" height="48" rx="24" fill="#F2FC3F"/>
<rect x="37.7734" y="286.165" width="163.595" height="47.6329" rx="23.8165" fill="#F2FC3F"/>
<rect x="206.356" y="286.165" width="164.592" height="47.6329" rx="23.8165" fill="#F2FC3F"/>
<path d="M375.936 309.981C375.936 296.828 386.599 286.165 399.752 286.165H618.46C631.613 286.165 642.276 296.828 642.276 309.981C642.276 323.134 631.613 333.797 618.46 333.797H399.752C386.599 333.797 375.936 323.134 375.936 309.981Z" fill="#F2FC3F"/>
<rect x="36.7759" y="232.633" width="243.052" height="47.6329" rx="23.8165" fill="#F2FC3F"/>
<rect x="284.814" y="233.532" width="251.154" height="47.6329" rx="23.8165" fill="#F2FC3F"/>
<rect x="540.957" y="233.532" width="152.622" height="47.6329" rx="23.8165" fill="#F2FC3F"/>
<path d="M95.4568 202.64C94.4968 202.64 93.4168 202.85 92.5168 203.81C91.6768 204.71 91.2268 206.09 91.2268 207.44C91.2268 208.67 91.5868 210.08 92.4268 210.95C92.9968 211.52 93.9568 212.12 95.5468 212.12C96.7468 212.12 97.7368 211.88 98.5768 210.89C99.6268 209.66 99.6868 207.89 99.6868 207.35C99.6868 205.88 99.2668 204.68 98.5768 203.9C97.9168 203.15 96.9268 202.64 95.4568 202.64ZM86.0968 199.76H91.1368V201.68H91.2268C91.7968 200.93 92.5168 200.36 93.2068 200C94.4668 199.37 95.9068 199.28 96.9868 199.28C98.9068 199.28 101.127 199.49 102.927 201.2C104.847 203 105.147 205.43 105.147 207.26C105.147 209.15 104.817 211.67 102.927 213.53C101.067 215.33 98.8168 215.48 96.9268 215.48C94.8568 215.48 93.8968 215.18 93.4168 214.97C92.6068 214.64 91.8568 214.01 91.3768 213.38V220.55H86.0968V199.76ZM112.237 209.96L120.007 199.76H125.557V215H120.277V204.8L112.477 215H106.957V199.76H112.237V209.96ZM132.28 203.3H126.7V199.76H143.14V203.3H137.56V215H132.28V203.3ZM153.826 215L149.266 204.32H149.026L149.176 205.85V215H144.196V199.76H150.856L155.506 210.59L160.126 199.76H166.786V215H161.806V205.85L161.956 204.32H161.746L157.156 215H153.826Z" fill="black"/>
<path d="M280.53 205.16H275.46C275.43 204.71 275.31 203.81 274.32 203.18C273.63 202.76 272.67 202.61 271.83 202.61C270.66 202.61 269.52 202.88 268.68 203.84C267.57 205.1 267.54 206.99 267.54 207.53C267.54 209.24 268.08 210.44 268.77 211.13C269.67 212.03 270.87 212.15 271.86 212.15C272.55 212.15 273.6 212.09 274.35 211.55C274.98 211.1 275.46 210.29 275.49 209.27H280.59V209.36C280.59 211.37 279.72 212.75 278.97 213.53C277.14 215.42 274.41 215.57 271.65 215.57C269.19 215.57 266.16 215.42 264.15 213.41C263.4 212.66 262.08 210.95 262.08 207.62C262.08 204.59 263.13 202.76 264.12 201.71C266.16 199.55 269.19 199.19 271.5 199.19C275.07 199.19 276.9 199.97 277.77 200.48C280.14 201.86 280.5 203.84 280.53 205.16ZM287.593 208.61V212H291.403C291.853 212 292.933 211.94 293.473 211.67C293.803 211.49 294.313 211.07 294.313 210.2C294.313 209.45 293.923 209.09 293.323 208.85C292.843 208.67 292.243 208.61 291.343 208.61H287.593ZM287.593 202.7V205.85H290.653C291.253 205.85 292.543 205.79 293.023 205.49C293.233 205.37 293.683 205.04 293.683 204.29C293.683 203.51 293.233 203.15 292.993 203C292.933 202.97 292.453 202.7 291.253 202.7H287.593ZM282.313 199.76H293.023C294.793 199.76 296.233 199.85 297.253 200.45C298.243 201.02 298.903 201.98 298.903 203.45C298.903 204.77 298.393 205.55 298.003 205.94C297.463 206.48 296.503 206.81 295.843 206.93V207.08C296.803 207.14 297.883 207.53 298.603 208.16C299.443 208.91 299.683 209.81 299.683 210.74C299.683 212.33 299.053 213.26 298.573 213.71C297.253 215 295.183 215 293.323 215H282.313V199.76ZM310.626 202.61C309.666 202.61 308.346 202.79 307.386 203.75C306.606 204.56 306.126 205.88 306.126 207.38C306.126 208.88 306.606 210.2 307.386 211.01C308.346 211.97 309.666 212.15 310.626 212.15C311.586 212.15 312.906 211.97 313.866 211.01C314.646 210.2 315.126 208.88 315.126 207.38C315.126 205.88 314.646 204.56 313.866 203.75C312.906 202.79 311.586 202.61 310.626 202.61ZM320.586 207.38C320.586 209.39 320.136 211.79 317.946 213.56C315.726 215.36 312.606 215.57 310.626 215.57C308.646 215.57 305.526 215.36 303.306 213.56C301.116 211.79 300.666 209.39 300.666 207.38C300.666 205.37 301.116 202.97 303.306 201.2C305.526 199.4 308.646 199.19 310.626 199.19C312.606 199.19 315.726 199.4 317.946 201.2C320.136 202.97 320.586 205.37 320.586 207.38ZM331.903 203C330.973 203 329.743 203.18 328.813 204.11C327.943 204.98 327.553 206.33 327.553 207.56C327.553 208.82 327.943 210.17 328.813 211.07C329.773 212.06 330.853 212.21 331.903 212.21C332.863 212.21 334.033 212.06 334.993 211.07C335.893 210.14 336.283 208.7 336.283 207.56C336.283 206.36 335.863 204.95 335.023 204.11C334.063 203.15 332.803 203 331.903 203ZM336.673 192.71H340.573C340.603 193.97 340.123 195.17 339.433 195.89C338.263 197.09 336.073 197.39 334.093 197.6L331.963 197.84C330.283 198.02 328.333 198.38 326.983 199.46C326.413 199.91 325.093 201.17 325.003 203.54H325.243C325.663 202.58 326.323 201.65 327.643 200.93C329.203 200.06 330.883 199.94 332.323 199.94C334.243 199.94 336.913 200.15 338.893 201.53C341.443 203.3 341.743 205.82 341.743 207.56C341.743 209.39 341.353 211.61 339.583 213.35C337.393 215.51 334.573 215.57 332.203 215.57C329.743 215.57 326.623 215.48 324.283 213.2C321.943 210.92 321.673 207.62 321.673 205.46C321.673 202.97 321.943 199.43 324.523 196.91C326.023 195.44 327.823 194.78 329.623 194.42C330.133 194.33 331.243 194.12 333.463 193.94C335.053 193.82 335.833 193.76 336.343 193.31C336.553 193.13 336.643 192.92 336.673 192.71ZM352.787 202.61C351.827 202.61 350.507 202.79 349.547 203.75C348.767 204.56 348.287 205.88 348.287 207.38C348.287 208.88 348.767 210.2 349.547 211.01C350.507 211.97 351.827 212.15 352.787 212.15C353.747 212.15 355.067 211.97 356.027 211.01C356.807 210.2 357.287 208.88 357.287 207.38C357.287 205.88 356.807 204.56 356.027 203.75C355.067 202.79 353.747 202.61 352.787 202.61ZM362.747 207.38C362.747 209.39 362.297 211.79 360.107 213.56C357.887 215.36 354.767 215.57 352.787 215.57C350.807 215.57 347.687 215.36 345.467 213.56C343.277 211.79 342.827 209.39 342.827 207.38C342.827 205.37 343.277 202.97 345.467 201.2C347.687 199.4 350.807 199.19 352.787 199.19C354.767 199.19 357.887 199.4 360.107 201.2C362.297 202.97 362.747 205.37 362.747 207.38ZM377.034 203.12H371.814V204.14C371.814 205.49 371.664 206.93 371.394 208.01C371.124 209.18 370.584 210.44 369.834 211.64H377.034V203.12ZM362.724 211.64H364.854C365.574 210.65 366.444 209.12 366.954 207.08C367.404 205.31 367.434 203.63 367.434 202.19V199.76H382.134V211.64H384.684L384.384 218.96H380.334V215H367.074V218.96H363.024L362.724 211.64ZM397.5 208.22V207.98C396.9 208.49 396.27 208.58 394.77 208.73L393.66 208.85C392.79 208.94 392.04 209.06 391.53 209.39C391.26 209.57 390.81 209.96 390.81 210.68C390.81 211.22 391.08 211.7 391.44 211.97C392.01 212.42 392.82 212.45 393.45 212.45C394.41 212.45 395.49 212.33 396.42 211.4C397.05 210.77 397.5 209.84 397.5 208.22ZM391.26 204.68H385.92C385.92 203.18 386.49 202.01 387.39 201.11C389.1 199.43 391.59 199.19 394.32 199.19C396.45 199.19 399.84 199.4 401.55 201.2C402.81 202.52 402.84 204.11 402.84 205.37V212.15C402.84 213.5 403.05 213.89 403.08 213.98C403.17 214.13 403.41 214.49 403.92 214.58V215H398.16L397.83 213.5H397.71C397.08 214.31 396.33 214.79 395.34 215.12C394.14 215.51 392.85 215.57 391.71 215.57C390.21 215.57 388.26 215.48 386.97 214.61C386.16 214.04 385.2 212.96 385.2 210.98C385.2 209.84 385.5 208.79 386.34 207.98C387.78 206.6 390.33 206.42 391.92 206.27L394.32 206.06C395.73 205.94 396.66 205.88 397.11 205.4C397.35 205.16 397.47 204.77 397.47 204.41C397.47 203.93 397.29 203.33 396.51 202.91C395.94 202.61 395.1 202.49 394.41 202.49C394.05 202.49 392.85 202.52 392.13 203.03C391.86 203.24 391.29 203.75 391.26 204.68Z" fill="black"/>
<path d="M501.275 203C500.345 203 499.115 203.18 498.185 204.11C497.315 204.98 496.925 206.33 496.925 207.56C496.925 208.82 497.315 210.17 498.185 211.07C499.145 212.06 500.225 212.21 501.275 212.21C502.235 212.21 503.405 212.06 504.365 211.07C505.265 210.14 505.655 208.7 505.655 207.56C505.655 206.36 505.235 204.95 504.395 204.11C503.435 203.15 502.175 203 501.275 203ZM506.045 192.71H509.945C509.975 193.97 509.495 195.17 508.805 195.89C507.635 197.09 505.445 197.39 503.465 197.6L501.335 197.84C499.655 198.02 497.705 198.38 496.355 199.46C495.785 199.91 494.465 201.17 494.375 203.54H494.615C495.035 202.58 495.695 201.65 497.015 200.93C498.575 200.06 500.255 199.94 501.695 199.94C503.615 199.94 506.285 200.15 508.265 201.53C510.815 203.3 511.115 205.82 511.115 207.56C511.115 209.39 510.725 211.61 508.955 213.35C506.765 215.51 503.945 215.57 501.575 215.57C499.115 215.57 495.995 215.48 493.655 213.2C491.315 210.92 491.045 207.62 491.045 205.46C491.045 202.97 491.315 199.43 493.895 196.91C495.395 195.44 497.195 194.78 498.995 194.42C499.505 194.33 500.615 194.12 502.835 193.94C504.425 193.82 505.205 193.76 505.715 193.31C505.925 193.13 506.015 192.92 506.045 192.71ZM512.859 220.31V217.04C513.609 217.28 514.239 217.31 514.449 217.31C515.109 217.31 515.799 217.16 516.249 216.8C516.729 216.41 517.179 215.57 517.389 214.97L517.689 214.07L511.209 199.76H516.519L520.569 209.93L524.109 199.76H529.059L522.579 215.27C521.919 216.83 521.289 218.36 520.269 219.32C518.919 220.61 517.389 220.73 515.889 220.73C514.749 220.73 513.969 220.67 512.859 220.31ZM542.158 203.12H536.938V204.14C536.938 205.49 536.788 206.93 536.518 208.01C536.248 209.18 535.708 210.44 534.958 211.64H542.158V203.12ZM527.848 211.64H529.978C530.698 210.65 531.568 209.12 532.078 207.08C532.528 205.31 532.558 203.63 532.558 202.19V199.76H547.258V211.64H549.808L549.508 218.96H545.458V215H532.198V218.96H528.148L527.848 211.64ZM550.683 220.31V217.04C551.433 217.28 552.063 217.31 552.273 217.31C552.933 217.31 553.623 217.16 554.073 216.8C554.553 216.41 555.003 215.57 555.213 214.97L555.513 214.07L549.033 199.76H554.343L558.393 209.93L561.933 199.76H566.883L560.403 215.27C559.743 216.83 559.113 218.36 558.093 219.32C556.743 220.61 555.213 220.73 553.713 220.73C552.573 220.73 551.793 220.67 550.683 220.31ZM572.782 211.46H578.782V199.76H584.062V211.46H590.062V199.76H595.342V211.46H598.162L597.982 218.9H593.842V215H567.502V199.76H572.782V211.46ZM603.826 205.67H612.256C612.196 204.44 611.596 203.69 611.176 203.33C610.276 202.52 609.046 202.43 608.056 202.43C606.976 202.43 605.986 202.55 605.086 203.27C604.486 203.75 603.916 204.53 603.826 205.67ZM612.166 210.02H617.476C617.296 211.97 616.246 213.83 614.176 214.76C612.736 215.39 610.906 215.57 608.446 215.57C604.996 215.57 602.386 215.27 600.436 213.32C598.696 211.58 598.336 209.51 598.336 207.62C598.336 206.06 598.606 203.51 600.616 201.56C602.716 199.52 605.626 199.19 608.026 199.19C610.396 199.19 613.546 199.58 615.616 201.65C617.506 203.54 617.686 206 617.686 207.83V208.37H603.736V208.46C603.736 209.78 604.216 210.68 604.726 211.19C605.626 212.09 607.066 212.21 608.086 212.21C608.866 212.21 610.066 212.15 610.816 211.79C611.386 211.52 611.956 211.01 612.166 210.02ZM624.247 205.67H632.677C632.617 204.44 632.017 203.69 631.597 203.33C630.697 202.52 629.467 202.43 628.477 202.43C627.397 202.43 626.407 202.55 625.507 203.27C624.907 203.75 624.337 204.53 624.247 205.67ZM632.587 210.02H637.897C637.717 211.97 636.667 213.83 634.597 214.76C633.157 215.39 631.327 215.57 628.867 215.57C625.417 215.57 622.807 215.27 620.857 213.32C619.117 211.58 618.757 209.51 618.757 207.62C618.757 206.06 619.027 203.51 621.037 201.56C623.137 199.52 626.047 199.19 628.447 199.19C630.817 199.19 633.967 199.58 636.037 201.65C637.927 203.54 638.107 206 638.107 207.83V208.37H624.157V208.46C624.157 209.78 624.637 210.68 625.147 211.19C626.047 212.09 627.487 212.21 628.507 212.21C629.287 212.21 630.487 212.15 631.237 211.79C631.807 211.52 632.377 211.01 632.587 210.02Z" fill="black"/>
<path d="M86.7385 256.12H81.5185V257.14C81.5185 258.49 81.3685 259.93 81.0985 261.01C80.8285 262.18 80.2885 263.44 79.5385 264.64H86.7385V256.12ZM72.4285 264.64H74.5585C75.2785 263.65 76.1485 262.12 76.6585 260.08C77.1085 258.31 77.1385 256.63 77.1385 255.19V252.76H91.8385V264.64H94.3885L94.0885 271.96H90.0385V268H76.7785V271.96H72.7285L72.4285 264.64ZM100.604 262.96L108.374 252.76H113.924V268H108.644V257.8L100.844 268H95.3241V252.76H100.604V262.96ZM121.787 261.79V268H116.507V252.76H121.787V258.25H129.017V252.76H134.297V268H129.017V261.79H121.787ZM148.749 261.22V260.98C148.149 261.49 147.519 261.58 146.019 261.73L144.909 261.85C144.039 261.94 143.289 262.06 142.779 262.39C142.509 262.57 142.059 262.96 142.059 263.68C142.059 264.22 142.329 264.7 142.689 264.97C143.259 265.42 144.069 265.45 144.699 265.45C145.659 265.45 146.739 265.33 147.669 264.4C148.299 263.77 148.749 262.84 148.749 261.22ZM142.509 257.68H137.169C137.169 256.18 137.739 255.01 138.639 254.11C140.349 252.43 142.839 252.19 145.569 252.19C147.699 252.19 151.089 252.4 152.799 254.2C154.059 255.52 154.089 257.11 154.089 258.37V265.15C154.089 266.5 154.299 266.89 154.329 266.98C154.419 267.13 154.659 267.49 155.169 267.58V268H149.409L149.079 266.5H148.959C148.329 267.31 147.579 267.79 146.589 268.12C145.389 268.51 144.099 268.57 142.959 268.57C141.459 268.57 139.509 268.48 138.219 267.61C137.409 267.04 136.449 265.96 136.449 263.98C136.449 262.84 136.749 261.79 137.589 260.98C139.029 259.6 141.579 259.42 143.169 259.27L145.569 259.06C146.979 258.94 147.909 258.88 148.359 258.4C148.599 258.16 148.719 257.77 148.719 257.41C148.719 256.93 148.539 256.33 147.759 255.91C147.189 255.61 146.349 255.49 145.659 255.49C145.299 255.49 144.099 255.52 143.379 256.03C143.109 256.24 142.539 256.75 142.509 257.68ZM166.54 268L161.98 257.32H161.74L161.89 258.85V268H156.91V252.76H163.57L168.22 263.59L172.84 252.76H179.5V268H174.52V258.85L174.67 257.32H174.46L169.87 268H166.54ZM187.357 262.96L195.127 252.76H200.677V268H195.397V257.8L187.597 268H182.077V252.76H187.357V262.96ZM208.54 259.42L214.39 252.76H220.39L213.34 259.87L220.84 268H214.54L208.54 260.92V268H203.26V252.76H208.54V259.42ZM233.041 261.22V260.98C232.441 261.49 231.811 261.58 230.311 261.73L229.201 261.85C228.331 261.94 227.581 262.06 227.071 262.39C226.801 262.57 226.351 262.96 226.351 263.68C226.351 264.22 226.621 264.7 226.981 264.97C227.551 265.42 228.361 265.45 228.991 265.45C229.951 265.45 231.031 265.33 231.961 264.4C232.591 263.77 233.041 262.84 233.041 261.22ZM226.801 257.68H221.461C221.461 256.18 222.031 255.01 222.931 254.11C224.641 252.43 227.131 252.19 229.861 252.19C231.991 252.19 235.381 252.4 237.091 254.2C238.351 255.52 238.381 257.11 238.381 258.37V265.15C238.381 266.5 238.591 266.89 238.621 266.98C238.711 267.13 238.951 267.49 239.461 267.58V268H233.701L233.371 266.5H233.251C232.621 267.31 231.871 267.79 230.881 268.12C229.681 268.51 228.391 268.57 227.251 268.57C225.751 268.57 223.801 268.48 222.511 267.61C221.701 267.04 220.741 265.96 220.741 263.98C220.741 262.84 221.041 261.79 221.881 260.98C223.321 259.6 225.871 259.42 227.461 259.27L229.861 259.06C231.271 258.94 232.201 258.88 232.651 258.4C232.891 258.16 233.011 257.77 233.011 257.41C233.011 256.93 232.831 256.33 232.051 255.91C231.481 255.61 230.641 255.49 229.951 255.49C229.591 255.49 228.391 255.52 227.671 256.03C227.401 256.24 226.831 256.75 226.801 257.68Z" fill="black"/>
<path d="M337.885 256.3V268H332.605V252.76H349.975V268H344.695V256.3H337.885ZM361.918 255.64C360.958 255.64 359.878 255.85 358.978 256.81C358.138 257.71 357.688 259.09 357.688 260.44C357.688 261.67 358.048 263.08 358.888 263.95C359.458 264.52 360.418 265.12 362.008 265.12C363.208 265.12 364.198 264.88 365.038 263.89C366.088 262.66 366.148 260.89 366.148 260.35C366.148 258.88 365.728 257.68 365.038 256.9C364.378 256.15 363.388 255.64 361.918 255.64ZM352.558 252.76H357.598V254.68H357.688C358.258 253.93 358.978 253.36 359.668 253C360.928 252.37 362.368 252.28 363.448 252.28C365.368 252.28 367.588 252.49 369.388 254.2C371.308 256 371.608 258.43 371.608 260.26C371.608 262.15 371.278 264.67 369.388 266.53C367.528 268.33 365.278 268.48 363.388 268.48C361.318 268.48 360.358 268.18 359.878 267.97C359.068 267.64 358.318 267.01 357.838 266.38V273.55H352.558V252.76ZM382.658 255.61C381.698 255.61 380.378 255.79 379.418 256.75C378.638 257.56 378.158 258.88 378.158 260.38C378.158 261.88 378.638 263.2 379.418 264.01C380.378 264.97 381.698 265.15 382.658 265.15C383.618 265.15 384.938 264.97 385.898 264.01C386.678 263.2 387.158 261.88 387.158 260.38C387.158 258.88 386.678 257.56 385.898 256.75C384.938 255.79 383.618 255.61 382.658 255.61ZM392.618 260.38C392.618 262.39 392.168 264.79 389.978 266.56C387.758 268.36 384.638 268.57 382.658 268.57C380.678 268.57 377.558 268.36 375.338 266.56C373.148 264.79 372.698 262.39 372.698 260.38C372.698 258.37 373.148 255.97 375.338 254.2C377.558 252.4 380.678 252.19 382.658 252.19C384.638 252.19 387.758 252.4 389.978 254.2C392.168 255.97 392.618 258.37 392.618 260.38ZM399.705 256.3V268H394.425V252.76H407.505V256.3H399.705ZM417.907 255.64C416.947 255.64 415.867 255.85 414.967 256.81C414.127 257.71 413.677 259.09 413.677 260.44C413.677 261.67 414.037 263.08 414.877 263.95C415.447 264.52 416.407 265.12 417.997 265.12C419.197 265.12 420.187 264.88 421.027 263.89C422.077 262.66 422.137 260.89 422.137 260.35C422.137 258.88 421.717 257.68 421.027 256.9C420.367 256.15 419.377 255.64 417.907 255.64ZM408.547 252.76H413.587V254.68H413.677C414.247 253.93 414.967 253.36 415.657 253C416.917 252.37 418.357 252.28 419.437 252.28C421.357 252.28 423.577 252.49 425.377 254.2C427.297 256 427.597 258.43 427.597 260.26C427.597 262.15 427.267 264.67 425.377 266.53C423.517 268.33 421.267 268.48 419.377 268.48C417.307 268.48 416.347 268.18 415.867 267.97C415.057 267.64 414.307 267.01 413.827 266.38V273.55H408.547V252.76ZM434.178 258.67H442.608C442.548 257.44 441.948 256.69 441.528 256.33C440.628 255.52 439.398 255.43 438.408 255.43C437.328 255.43 436.338 255.55 435.438 256.27C434.838 256.75 434.268 257.53 434.178 258.67ZM442.518 263.02H447.828C447.648 264.97 446.598 266.83 444.528 267.76C443.088 268.39 441.258 268.57 438.798 268.57C435.348 268.57 432.738 268.27 430.788 266.32C429.048 264.58 428.688 262.51 428.688 260.62C428.688 259.06 428.958 256.51 430.968 254.56C433.068 252.52 435.978 252.19 438.378 252.19C440.748 252.19 443.898 252.58 445.968 254.65C447.858 256.54 448.038 259 448.038 260.83V261.37H434.088V261.46C434.088 262.78 434.568 263.68 435.078 264.19C435.978 265.09 437.418 265.21 438.438 265.21C439.218 265.21 440.418 265.15 441.168 264.79C441.738 264.52 442.308 264.01 442.518 263.02ZM467.559 258.16H462.489C462.459 257.71 462.339 256.81 461.349 256.18C460.659 255.76 459.699 255.61 458.859 255.61C457.689 255.61 456.549 255.88 455.709 256.84C454.599 258.1 454.569 259.99 454.569 260.53C454.569 262.24 455.109 263.44 455.799 264.13C456.699 265.03 457.899 265.15 458.889 265.15C459.579 265.15 460.629 265.09 461.379 264.55C462.009 264.1 462.489 263.29 462.519 262.27H467.619V262.36C467.619 264.37 466.749 265.75 465.999 266.53C464.169 268.42 461.439 268.57 458.679 268.57C456.219 268.57 453.189 268.42 451.179 266.41C450.429 265.66 449.109 263.95 449.109 260.62C449.109 257.59 450.159 255.76 451.149 254.71C453.189 252.55 456.219 252.19 458.529 252.19C462.099 252.19 463.929 252.97 464.799 253.48C467.169 254.86 467.529 256.84 467.559 258.16ZM487.072 258.16H482.002C481.972 257.71 481.852 256.81 480.862 256.18C480.172 255.76 479.212 255.61 478.372 255.61C477.202 255.61 476.062 255.88 475.222 256.84C474.112 258.1 474.082 259.99 474.082 260.53C474.082 262.24 474.622 263.44 475.312 264.13C476.212 265.03 477.412 265.15 478.402 265.15C479.092 265.15 480.142 265.09 480.892 264.55C481.522 264.1 482.002 263.29 482.032 262.27H487.132V262.36C487.132 264.37 486.262 265.75 485.512 266.53C483.682 268.42 480.952 268.57 478.192 268.57C475.732 268.57 472.702 268.42 470.692 266.41C469.942 265.66 468.622 263.95 468.622 260.62C468.622 257.59 469.672 255.76 470.662 254.71C472.702 252.55 475.732 252.19 478.042 252.19C481.612 252.19 483.442 252.97 484.312 253.48C486.682 254.86 487.042 256.84 487.072 258.16Z" fill="black"/>
<path d="M584.907 262.96L592.677 252.76H598.227V268H592.947V257.8L585.147 268H579.627V252.76H584.907V262.96ZM606.09 256.3V268H600.81V252.76H613.89V256.3H606.09ZM624.292 255.64C623.332 255.64 622.252 255.85 621.352 256.81C620.512 257.71 620.062 259.09 620.062 260.44C620.062 261.67 620.422 263.08 621.262 263.95C621.832 264.52 622.792 265.12 624.382 265.12C625.582 265.12 626.572 264.88 627.412 263.89C628.462 262.66 628.522 260.89 628.522 260.35C628.522 258.88 628.102 257.68 627.412 256.9C626.752 256.15 625.762 255.64 624.292 255.64ZM614.932 252.76H619.972V254.68H620.062C620.632 253.93 621.352 253.36 622.042 253C623.302 252.37 624.742 252.28 625.822 252.28C627.742 252.28 629.962 252.49 631.762 254.2C633.682 256 633.982 258.43 633.982 260.26C633.982 262.15 633.652 264.67 631.762 266.53C629.902 268.33 627.652 268.48 625.762 268.48C623.692 268.48 622.732 268.18 622.252 267.97C621.442 267.64 620.692 267.01 620.212 266.38V273.55H614.932V252.76ZM647.673 261.22V260.98C647.073 261.49 646.443 261.58 644.943 261.73L643.833 261.85C642.963 261.94 642.213 262.06 641.703 262.39C641.433 262.57 640.983 262.96 640.983 263.68C640.983 264.22 641.253 264.7 641.613 264.97C642.183 265.42 642.993 265.45 643.623 265.45C644.583 265.45 645.663 265.33 646.593 264.4C647.223 263.77 647.673 262.84 647.673 261.22ZM641.433 257.68H636.093C636.093 256.18 636.663 255.01 637.563 254.11C639.273 252.43 641.763 252.19 644.493 252.19C646.623 252.19 650.013 252.4 651.723 254.2C652.983 255.52 653.013 257.11 653.013 258.37V265.15C653.013 266.5 653.223 266.89 653.253 266.98C653.343 267.13 653.583 267.49 654.093 267.58V268H648.333L648.003 266.5H647.883C647.253 267.31 646.503 267.79 645.513 268.12C644.313 268.51 643.023 268.57 641.883 268.57C640.383 268.57 638.433 268.48 637.143 267.61C636.333 267.04 635.373 265.96 635.373 263.98C635.373 262.84 635.673 261.79 636.513 260.98C637.953 259.6 640.503 259.42 642.093 259.27L644.493 259.06C645.903 258.94 646.833 258.88 647.283 258.4C647.523 258.16 647.643 257.77 647.643 257.41C647.643 256.93 647.463 256.33 646.683 255.91C646.113 255.61 645.273 255.49 644.583 255.49C644.223 255.49 643.023 255.52 642.303 256.03C642.033 256.24 641.463 256.75 641.433 257.68Z" fill="black"/>
<path d="M90.0088 311.16H84.9388C84.9088 310.71 84.7888 309.81 83.7988 309.18C83.1088 308.76 82.1488 308.61 81.3088 308.61C80.1388 308.61 78.9988 308.88 78.1588 309.84C77.0488 311.1 77.0188 312.99 77.0188 313.53C77.0188 315.24 77.5588 316.44 78.2488 317.13C79.1488 318.03 80.3488 318.15 81.3388 318.15C82.0288 318.15 83.0788 318.09 83.8288 317.55C84.4588 317.1 84.9388 316.29 84.9688 315.27H90.0688V315.36C90.0688 317.37 89.1988 318.75 88.4488 319.53C86.6188 321.42 83.8888 321.57 81.1288 321.57C78.6688 321.57 75.6388 321.42 73.6288 319.41C72.8788 318.66 71.5588 316.95 71.5588 313.62C71.5588 310.59 72.6088 308.76 73.5988 307.71C75.6388 305.55 78.6688 305.19 80.9788 305.19C84.5488 305.19 86.3788 305.97 87.2488 306.48C89.6188 307.86 89.9788 309.84 90.0088 311.16ZM97.0717 314.61V318H100.882C101.332 318 102.412 317.94 102.952 317.67C103.282 317.49 103.792 317.07 103.792 316.2C103.792 315.45 103.402 315.09 102.802 314.85C102.322 314.67 101.722 314.61 100.822 314.61H97.0717ZM97.0717 308.7V311.85H100.132C100.732 311.85 102.022 311.79 102.502 311.49C102.712 311.37 103.162 311.04 103.162 310.29C103.162 309.51 102.712 309.15 102.472 309C102.412 308.97 101.932 308.7 100.732 308.7H97.0717ZM91.7917 305.76H102.502C104.272 305.76 105.712 305.85 106.732 306.45C107.722 307.02 108.382 307.98 108.382 309.45C108.382 310.77 107.872 311.55 107.482 311.94C106.942 312.48 105.982 312.81 105.322 312.93V313.08C106.282 313.14 107.362 313.53 108.082 314.16C108.922 314.91 109.162 315.81 109.162 316.74C109.162 318.33 108.532 319.26 108.052 319.71C106.732 321 104.662 321 102.802 321H91.7917V305.76ZM122.145 308.82H119.055C118.155 308.82 116.895 308.82 116.205 309.48C115.905 309.78 115.695 310.2 115.695 310.77C115.695 311.31 115.905 311.82 116.235 312.12C116.445 312.33 117.045 312.72 118.815 312.72H122.145V308.82ZM119.685 315.78L115.875 321H110.145L114.915 315.36C113.805 315.24 112.455 314.73 111.735 313.98C110.715 312.96 110.655 311.52 110.655 310.83C110.655 309.6 110.985 307.98 112.545 306.87C113.865 305.94 115.695 305.76 117.105 305.76H127.425V321H122.145V315.78H119.685ZM128.827 315.81H133.927V315.93C133.927 316.86 134.497 317.37 134.887 317.64C135.637 318.12 136.927 318.21 137.797 318.21C138.817 318.21 139.477 318.06 139.927 317.82C140.707 317.43 140.887 316.77 140.887 316.38C140.887 315.78 140.617 315.42 140.167 315.15C139.627 314.85 138.757 314.73 137.167 314.73H135.787V311.79H137.377C138.877 311.79 139.477 311.58 139.627 311.52C140.317 311.25 140.557 310.77 140.557 310.29C140.557 309.87 140.407 309.15 139.387 308.79C138.817 308.58 137.767 308.49 137.197 308.49C136.597 308.49 135.607 308.61 135.007 308.97C134.227 309.45 134.137 310.2 134.107 310.5H129.007C128.977 309.69 129.127 308.43 130.297 307.23C131.917 305.58 134.587 305.19 137.407 305.19C139.417 305.19 141.577 305.46 143.107 306.09C144.457 306.66 145.867 307.65 145.867 309.78C145.867 310.71 145.537 311.46 145.027 311.97C144.517 312.48 143.737 312.78 143.047 312.84V312.93C144.487 313.14 145.297 313.95 145.417 314.04C146.227 314.85 146.407 315.87 146.407 316.62C146.407 317.97 145.927 319.74 143.797 320.73C142.867 321.18 141.337 321.57 137.947 321.57C134.137 321.57 132.247 321.06 131.047 320.28C129.127 319.02 128.827 317.25 128.827 315.93V315.81ZM153.384 314.34V317.88H156.984C157.524 317.88 158.484 317.82 158.994 317.49C159.324 317.28 159.684 316.83 159.684 316.05C159.684 315.12 159.174 314.76 158.874 314.61C158.394 314.37 157.284 314.34 156.894 314.34H153.384ZM153.384 305.76V311.22H158.514C159.834 311.22 161.994 311.28 163.434 312.45C164.754 313.53 164.964 315 164.964 316.11C164.964 317.43 164.604 318.96 163.104 319.98C161.694 320.94 159.744 321 158.394 321H148.104V305.76H153.384Z" fill="black"/>
<path d="M252.558 314.22V313.98C251.958 314.49 251.328 314.58 249.828 314.73L248.718 314.85C247.848 314.94 247.098 315.06 246.588 315.39C246.318 315.57 245.868 315.96 245.868 316.68C245.868 317.22 246.138 317.7 246.498 317.97C247.068 318.42 247.878 318.45 248.508 318.45C249.468 318.45 250.548 318.33 251.478 317.4C252.108 316.77 252.558 315.84 252.558 314.22ZM246.318 310.68H240.978C240.978 309.18 241.548 308.01 242.448 307.11C244.158 305.43 246.648 305.19 249.378 305.19C251.508 305.19 254.898 305.4 256.608 307.2C257.868 308.52 257.898 310.11 257.898 311.37V318.15C257.898 319.5 258.108 319.89 258.138 319.98C258.228 320.13 258.468 320.49 258.978 320.58V321H253.218L252.888 319.5H252.768C252.138 320.31 251.388 320.79 250.398 321.12C249.198 321.51 247.908 321.57 246.768 321.57C245.268 321.57 243.318 321.48 242.028 320.61C241.218 320.04 240.258 318.96 240.258 316.98C240.258 315.84 240.558 314.79 241.398 313.98C242.838 312.6 245.388 312.42 246.978 312.27L249.378 312.06C250.788 311.94 251.718 311.88 252.168 311.4C252.408 311.16 252.528 310.77 252.528 310.41C252.528 309.93 252.348 309.33 251.568 308.91C250.998 308.61 250.158 308.49 249.468 308.49C249.108 308.49 247.908 308.52 247.188 309.03C246.918 309.24 246.348 309.75 246.318 310.68ZM259.548 315.81H264.648V315.93C264.648 316.86 265.218 317.37 265.608 317.64C266.358 318.12 267.648 318.21 268.518 318.21C269.538 318.21 270.198 318.06 270.648 317.82C271.428 317.43 271.608 316.77 271.608 316.38C271.608 315.78 271.338 315.42 270.888 315.15C270.348 314.85 269.478 314.73 267.888 314.73H266.508V311.79H268.098C269.598 311.79 270.198 311.58 270.348 311.52C271.038 311.25 271.278 310.77 271.278 310.29C271.278 309.87 271.128 309.15 270.108 308.79C269.538 308.58 268.488 308.49 267.918 308.49C267.318 308.49 266.328 308.61 265.728 308.97C264.948 309.45 264.858 310.2 264.828 310.5H259.728C259.698 309.69 259.848 308.43 261.018 307.23C262.638 305.58 265.308 305.19 268.128 305.19C270.138 305.19 272.298 305.46 273.828 306.09C275.178 306.66 276.588 307.65 276.588 309.78C276.588 310.71 276.258 311.46 275.748 311.97C275.238 312.48 274.458 312.78 273.768 312.84V312.93C275.208 313.14 276.018 313.95 276.138 314.04C276.948 314.85 277.128 315.87 277.128 316.62C277.128 317.97 276.648 319.74 274.518 320.73C273.588 321.18 272.058 321.57 268.668 321.57C264.858 321.57 262.968 321.06 261.768 320.28C259.848 319.02 259.548 317.25 259.548 315.93V315.81ZM290.705 314.22V313.98C290.105 314.49 289.475 314.58 287.975 314.73L286.865 314.85C285.995 314.94 285.245 315.06 284.735 315.39C284.465 315.57 284.015 315.96 284.015 316.68C284.015 317.22 284.285 317.7 284.645 317.97C285.215 318.42 286.025 318.45 286.655 318.45C287.615 318.45 288.695 318.33 289.625 317.4C290.255 316.77 290.705 315.84 290.705 314.22ZM284.465 310.68H279.125C279.125 309.18 279.695 308.01 280.595 307.11C282.305 305.43 284.795 305.19 287.525 305.19C289.655 305.19 293.045 305.4 294.755 307.2C296.015 308.52 296.045 310.11 296.045 311.37V318.15C296.045 319.5 296.255 319.89 296.285 319.98C296.375 320.13 296.615 320.49 297.125 320.58V321H291.365L291.035 319.5H290.915C290.285 320.31 289.535 320.79 288.545 321.12C287.345 321.51 286.055 321.57 284.915 321.57C283.415 321.57 281.465 321.48 280.175 320.61C279.365 320.04 278.405 318.96 278.405 316.98C278.405 315.84 278.705 314.79 279.545 313.98C280.985 312.6 283.535 312.42 285.125 312.27L287.525 312.06C288.935 311.94 289.865 311.88 290.315 311.4C290.555 311.16 290.675 310.77 290.675 310.41C290.675 309.93 290.495 309.33 289.715 308.91C289.145 308.61 288.305 308.49 287.615 308.49C287.255 308.49 286.055 308.52 285.335 309.03C285.065 309.24 284.495 309.75 284.465 310.68ZM308.225 308.64C307.265 308.64 306.185 308.85 305.285 309.81C304.445 310.71 303.995 312.09 303.995 313.44C303.995 314.67 304.355 316.08 305.195 316.95C305.765 317.52 306.725 318.12 308.315 318.12C309.515 318.12 310.505 317.88 311.345 316.89C312.395 315.66 312.455 313.89 312.455 313.35C312.455 311.88 312.035 310.68 311.345 309.9C310.685 309.15 309.695 308.64 308.225 308.64ZM298.865 305.76H303.905V307.68H303.995C304.565 306.93 305.285 306.36 305.975 306C307.235 305.37 308.675 305.28 309.755 305.28C311.675 305.28 313.895 305.49 315.695 307.2C317.615 309 317.915 311.43 317.915 313.26C317.915 315.15 317.585 317.67 315.695 319.53C313.835 321.33 311.585 321.48 309.695 321.48C307.625 321.48 306.665 321.18 306.185 320.97C305.375 320.64 304.625 320.01 304.145 319.38V326.55H298.865V305.76ZM323.866 309.3H318.286V305.76H334.726V309.3H329.146V321H323.866V309.3Z" fill="black"/>
<path d="M425.023 309.3V321H419.743V305.76H437.113V321H431.833V309.3H425.023ZM448.936 308.61C447.976 308.61 446.656 308.79 445.696 309.75C444.916 310.56 444.436 311.88 444.436 313.38C444.436 314.88 444.916 316.2 445.696 317.01C446.656 317.97 447.976 318.15 448.936 318.15C449.896 318.15 451.216 317.97 452.176 317.01C452.956 316.2 453.436 314.88 453.436 313.38C453.436 311.88 452.956 310.56 452.176 309.75C451.216 308.79 449.896 308.61 448.936 308.61ZM458.896 313.38C458.896 315.39 458.446 317.79 456.256 319.56C454.036 321.36 450.916 321.57 448.936 321.57C446.956 321.57 443.836 321.36 441.616 319.56C439.426 317.79 438.976 315.39 438.976 313.38C438.976 311.37 439.426 308.97 441.616 307.2C443.836 305.4 446.956 305.19 448.936 305.19C450.916 305.19 454.036 305.4 456.256 307.2C458.446 308.97 458.896 311.37 458.896 313.38ZM465.983 312.42L471.833 305.76H477.833L470.783 312.87L478.283 321H471.983L465.983 313.92V321H460.703V305.76H465.983V312.42ZM487.844 308.61C486.884 308.61 485.564 308.79 484.604 309.75C483.824 310.56 483.344 311.88 483.344 313.38C483.344 314.88 483.824 316.2 484.604 317.01C485.564 317.97 486.884 318.15 487.844 318.15C488.804 318.15 490.124 317.97 491.084 317.01C491.864 316.2 492.344 314.88 492.344 313.38C492.344 311.88 491.864 310.56 491.084 309.75C490.124 308.79 488.804 308.61 487.844 308.61ZM497.804 313.38C497.804 315.39 497.354 317.79 495.164 319.56C492.944 321.36 489.824 321.57 487.844 321.57C485.864 321.57 482.744 321.36 480.524 319.56C478.334 317.79 477.884 315.39 477.884 313.38C477.884 311.37 478.334 308.97 480.524 307.2C482.744 305.4 485.864 305.19 487.844 305.19C489.824 305.19 492.944 305.4 495.164 307.2C497.354 308.97 497.804 311.37 497.804 313.38ZM498.171 320.97V317.52C498.441 317.61 498.711 317.64 499.041 317.64C499.611 317.64 500.091 317.49 500.541 317.07C501.231 316.41 501.381 315.36 501.471 314.46C501.591 313.2 501.591 311.88 501.591 310.53V305.76H516.741V321H511.461V309.3H506.301V311.58C506.301 312.54 506.211 314.88 506.091 315.9C505.971 316.92 505.611 318.69 504.411 319.86C503.091 321.15 501.441 321.18 500.301 321.18C499.551 321.18 498.981 321.15 498.171 320.97ZM524.099 311.67H532.529C532.469 310.44 531.869 309.69 531.449 309.33C530.549 308.52 529.319 308.43 528.329 308.43C527.249 308.43 526.259 308.55 525.359 309.27C524.759 309.75 524.189 310.53 524.099 311.67ZM532.439 316.02H537.749C537.569 317.97 536.519 319.83 534.449 320.76C533.009 321.39 531.179 321.57 528.719 321.57C525.269 321.57 522.659 321.27 520.709 319.32C518.969 317.58 518.609 315.51 518.609 313.62C518.609 312.06 518.879 309.51 520.889 307.56C522.989 305.52 525.899 305.19 528.299 305.19C530.669 305.19 533.819 305.58 535.889 307.65C537.779 309.54 537.959 312 537.959 313.83V314.37H524.009V314.46C524.009 315.78 524.489 316.68 524.999 317.19C525.899 318.09 527.339 318.21 528.359 318.21C529.139 318.21 530.339 318.15 531.089 317.79C531.659 317.52 532.229 317.01 532.439 316.02ZM545.03 314.79V321H539.75V305.76H545.03V311.25H552.26V305.76H557.54V321H552.26V314.79H545.03ZM565.393 315.96L573.163 305.76H578.713V321H573.433V310.8L565.633 321H560.113V305.76H565.393V315.96ZM586.066 311.67H594.496C594.436 310.44 593.836 309.69 593.416 309.33C592.516 308.52 591.286 308.43 590.296 308.43C589.216 308.43 588.226 308.55 587.326 309.27C586.726 309.75 586.156 310.53 586.066 311.67ZM594.406 316.02H599.716C599.536 317.97 598.486 319.83 596.416 320.76C594.976 321.39 593.146 321.57 590.686 321.57C587.236 321.57 584.626 321.27 582.676 319.32C580.936 317.58 580.576 315.51 580.576 313.62C580.576 312.06 580.846 309.51 582.856 307.56C584.956 305.52 587.866 305.19 590.266 305.19C592.636 305.19 595.786 305.58 597.856 307.65C599.746 309.54 599.926 312 599.926 313.83V314.37H585.976V314.46C585.976 315.78 586.456 316.68 586.966 317.19C587.866 318.09 589.306 318.21 590.326 318.21C591.106 318.21 592.306 318.15 593.056 317.79C593.626 317.52 594.196 317.01 594.406 316.02Z" fill="black"/>
<path d="M89.8718 361.64C88.9118 361.64 87.8318 361.85 86.9318 362.81C86.0918 363.71 85.6418 365.09 85.6418 366.44C85.6418 367.67 86.0018 369.08 86.8418 369.95C87.4118 370.52 88.3718 371.12 89.9618 371.12C91.1618 371.12 92.1518 370.88 92.9918 369.89C94.0418 368.66 94.1018 366.89 94.1018 366.35C94.1018 364.88 93.6818 363.68 92.9918 362.9C92.3318 362.15 91.3418 361.64 89.8718 361.64ZM80.5118 358.76H85.5518V360.68H85.6418C86.2118 359.93 86.9318 359.36 87.6218 359C88.8818 358.37 90.3218 358.28 91.4018 358.28C93.3218 358.28 95.5418 358.49 97.3418 360.2C99.2618 362 99.5618 364.43 99.5618 366.26C99.5618 368.15 99.2318 370.67 97.3418 372.53C95.4818 374.33 93.2318 374.48 91.3418 374.48C89.2718 374.48 88.3118 374.18 87.8318 373.97C87.0218 373.64 86.2718 373.01 85.7918 372.38V379.55H80.5118V358.76ZM110.612 361.61C109.652 361.61 108.332 361.79 107.372 362.75C106.592 363.56 106.112 364.88 106.112 366.38C106.112 367.88 106.592 369.2 107.372 370.01C108.332 370.97 109.652 371.15 110.612 371.15C111.572 371.15 112.892 370.97 113.852 370.01C114.632 369.2 115.112 367.88 115.112 366.38C115.112 364.88 114.632 363.56 113.852 362.75C112.892 361.79 111.572 361.61 110.612 361.61ZM120.572 366.38C120.572 368.39 120.122 370.79 117.932 372.56C115.712 374.36 112.592 374.57 110.612 374.57C108.632 374.57 105.512 374.36 103.292 372.56C101.102 370.79 100.652 368.39 100.652 366.38C100.652 364.37 101.102 361.97 103.292 360.2C105.512 358.4 108.632 358.19 110.612 358.19C112.592 358.19 115.712 358.4 117.932 360.2C120.122 361.97 120.572 364.37 120.572 366.38ZM140.109 364.16H135.039C135.009 363.71 134.889 362.81 133.899 362.18C133.209 361.76 132.249 361.61 131.409 361.61C130.239 361.61 129.099 361.88 128.259 362.84C127.149 364.1 127.119 365.99 127.119 366.53C127.119 368.24 127.659 369.44 128.349 370.13C129.249 371.03 130.449 371.15 131.439 371.15C132.129 371.15 133.179 371.09 133.929 370.55C134.559 370.1 135.039 369.29 135.069 368.27H140.169V368.36C140.169 370.37 139.299 371.75 138.549 372.53C136.719 374.42 133.989 374.57 131.229 374.57C128.769 374.57 125.739 374.42 123.729 372.41C122.979 371.66 121.659 369.95 121.659 366.62C121.659 363.59 122.709 361.76 123.699 360.71C125.739 358.55 128.769 358.19 131.079 358.19C134.649 358.19 136.479 358.97 137.349 359.48C139.719 360.86 140.079 362.84 140.109 364.16ZM146.032 362.3H140.452V358.76H156.892V362.3H151.312V374H146.032V362.3Z" fill="black"/>
</svg>
